<svg width="125" height="78" viewBox="0 0 125 78" version="1.1" xmlns="http://www.w3.org/2000/svg" xmlns:xlink="http://www.w3.org/1999/xlink">
<title>netcore</title>
<desc>Created using Figma</desc>
<g id="Canvas" transform="translate(-3618 -414)">
<g id="netcore">
<g id="Vector">
<use xlink:href="#path0_fill" transform="translate(3618 453.17)" fill="#621EE5"/>
</g>
<g id="Vector">
<use xlink:href="#path1_fill" transform="translate(3634.5 414)" fill="#621EE5"/>
</g>
<g id="Vector">
<use xlink:href="#path2_fill" transform="translate(3683.01 414)" fill="#621EE5"/>
</g>
<g id="Vector">
<use xlink:href="#path3_fill" transform="translate(3711.33 414)" fill="#621EE5"/>
</g>
<g id="Vector">
<use xlink:href="#path4_fill" transform="translate(3652.63 470.305)" fill="#621EE5"/>
</g>
<g id="Vector">
<use xlink:href="#path5_fill" transform="translate(3671.23 476.117)" fill="#621EE5"/>
</g>
<g id="Vector">
<use xlink:href="#path6_fill" transform="translate(3689.81 476.348)" fill="#621EE5"/>
</g>
<g id="Vector">
<use xlink:href="#path7_fill" transform="translate(3699.14 476.218)" fill="#621EE5"/>
</g>
</g>
</g>
<defs>
<path id="path0_fill" d="M 3.52459 7.14268C 3.05803 7.15005 2.595 7.06032 2.16478 6.87915C 1.73456 6.69798 1.34649 6.42931 1.0251 6.09012C 0.694886 5.76302 0.433919 5.37245 0.257829 4.94183C 0.0817385 4.5112 -0.00585268 4.04937 0.00030274 3.584C -0.00303131 3.11902 0.0858499 2.65802 0.261779 2.22779C 0.437707 1.79756 0.697175 1.40668 1.0251 1.07788C 1.34334 0.732917 1.73024 0.458753 2.16079 0.273125C 2.59135 0.0874978 3.05596 -0.00546139 3.52459 0.000252084C 3.99255 -0.000895823 4.45577 0.094128 4.88567 0.279473C 5.31557 0.464819 5.70301 0.736552 6.02409 1.07788C 6.35767 1.40374 6.6225 1.79351 6.80284 2.22403C 6.98318 2.65455 7.07536 3.11705 7.07388 3.584C 7.07824 4.05138 6.98739 4.51472 6.80687 4.94565C 6.62636 5.37658 6.35999 5.76603 6.02409 6.09012C 5.69997 6.42573 5.31139 6.69202 4.8818 6.87292C 4.45221 7.05383 3.99053 7.1456 3.52459 7.14268Z"/>
<path id="path1_fill" d="M 36.6926 45.6865L 30.1439 45.6865L 6.72365 9.24757C 6.14026 8.34976 5.65427 7.39199 5.27394 6.3906L 5.07398 6.3906C 5.29655 8.4711 5.38006 10.5642 5.32393 12.6559L 5.32393 45.6865L 3.81393e-07 45.6865L 3.81393e-07 1.14721e-06L 6.92361 1.14721e-06L 29.719 35.7873C 30.6688 37.2743 31.2854 38.2935 31.5687 38.8448L 31.6936 38.8448C 31.4299 36.6163 31.3213 34.3721 31.3687 32.1284L 31.3687 1.14721e-06L 36.6926 1.14721e-06L 36.6926 45.6865Z"/>
<path id="path2_fill" d="M 24.2201 45.6865L 0 45.6865L 0 1.14721e-06L 23.0954 1.14721e-06L 23.0954 4.83681L 5.4489 4.83681L 5.4489 20.0239L 21.8956 20.0239L 21.8956 24.8356L 5.4489 24.8356L 5.4489 40.6743L 24.2451 40.6743L 24.2201 45.6865Z"/>
<path id="path3_fill" d="M 31.6686 4.83681L 18.4213 4.83681L 18.4213 45.6865L 13.0974 45.6865L 13.0974 4.83681L 4.57672e-06 4.83681L 4.57672e-06 1.14721e-06L 31.6686 1.14721e-06L 31.6686 4.83681Z"/>
<path id="path4_fill" d="M 15.6832 20.4571C 13.8786 21.3334 11.8881 21.7549 9.88432 21.6851C 8.5528 21.7453 7.22385 21.5192 5.98661 21.0221C 4.74937 20.5251 3.63245 19.7685 2.71077 18.8031C 0.874207 16.7418 -0.0934628 14.0467 0.0113096 11.2847C -0.0559223 9.78927 0.177142 8.29549 0.696673 6.89206C 1.2162 5.48862 2.01161 4.20413 3.0357 3.11479C 4.0337 2.08969 5.23353 1.28403 6.55889 0.749027C 7.88425 0.214027 9.30614 -0.0385992 10.7342 0.00721284C 12.4431 -0.0513441 14.1456 0.247366 15.7331 0.88435L 15.7331 3.39047C 14.2046 2.54202 12.4811 2.10998 10.7342 2.13741C 9.63283 2.10631 8.5378 2.31414 7.52401 2.74668C 6.51022 3.17922 5.60161 3.82626 4.86034 4.64353C 3.30151 6.42411 2.49475 8.74292 2.61078 11.1093C 2.49407 13.351 3.24639 15.551 4.71036 17.2493C 5.41258 18.0064 6.26984 18.6022 7.22332 18.9959C 8.17681 19.3895 9.20395 19.5717 10.2343 19.5299C 12.1534 19.5802 14.0487 19.0943 15.7082 18.1264L 15.6832 20.4571Z"/>
<path id="path5_fill" d="M 7.31223 15.8733C 6.31726 15.9056 5.32699 15.7231 4.40845 15.3383C 3.48992 14.9535 2.66458 14.3753 1.9883 13.6428C 0.621529 12.1135 -0.0880705 10.1051 0.013704 8.05418C -0.0487133 6.97968 0.102551 5.90345 0.458704 4.8881C 0.814856 3.87274 1.36879 2.93851 2.08829 2.13974C 2.82258 1.42121 3.69612 0.861412 4.65487 0.495003C 5.61362 0.128593 6.63717 -0.0366318 7.66217 0.00954199C 8.63103 -0.0421879 9.59959 0.116934 10.5013 0.475988C 11.4031 0.835042 12.2166 1.38552 12.8861 2.08961C 14.2146 3.69485 14.8847 5.74643 14.7607 7.82862C 14.8656 9.9418 14.1386 12.0117 12.7361 13.5927C 12.0471 14.3394 11.2065 14.9293 10.2708 15.3227C 9.33521 15.7161 8.32634 15.9038 7.31223 15.8733L 7.31223 15.8733ZM 7.4872 2.16479C 6.79965 2.13578 6.11444 2.26268 5.48259 2.53605C 4.85075 2.80942 4.28857 3.2222 3.83793 3.74365C 2.87616 4.98534 2.39656 6.53482 2.48821 8.1043C 2.40091 9.6271 2.88206 11.128 3.83793 12.3146C 4.29325 12.8287 4.8569 13.2348 5.48805 13.5035C 6.11921 13.7722 6.80208 13.8969 7.4872 13.8684C 8.15794 13.9081 8.82884 13.7932 9.44842 13.5325C 10.068 13.2719 10.6198 12.8724 11.0615 12.3647C 11.9702 11.1197 12.4127 9.59361 12.3112 8.05418C 12.4101 6.50725 11.9681 4.97415 11.0615 3.71859C 10.6259 3.20031 10.0765 2.79028 9.45639 2.52069C 8.83624 2.2511 8.16221 2.12928 7.4872 2.16479L 7.4872 2.16479Z"/>
<path id="path6_fill" d="M 7.84842 2.68552C 7.30856 2.3309 6.66758 2.16363 6.02379 2.20935C 5.52027 2.22772 5.02896 2.36989 4.59311 2.62336C 4.15726 2.87682 3.79023 3.23381 3.52429 3.6629C 2.78036 4.84384 2.42214 6.22794 2.4995 7.62256L 2.4995 15.2913L 3.05114e-06 15.2913L 3.05114e-06 0.254579L 2.4995 0.254579L 2.4995 3.38723C 2.77428 2.41793 3.32081 1.5481 4.07418 0.881108C 4.72604 0.313886 5.5606 0.00232891 6.42371 0.00397119C 6.90688 -0.0178001 7.3899 0.0501667 7.84842 0.204456L 7.84842 2.68552Z"/>
<path id="path7_fill" d="M 13.163 8.52967L 2.59012 8.52967C 2.51918 9.93065 2.97394 11.3075 3.86486 12.3891C 4.32817 12.8524 4.8838 13.2124 5.49542 13.4456C 6.10704 13.6788 6.76087 13.78 7.41414 13.7424C 9.10854 13.7255 10.7473 13.1336 12.0632 12.0633L 12.0632 14.3188C 10.5178 15.3401 8.68781 15.8405 6.83926 15.7473C 5.90655 15.7945 4.97495 15.6348 4.11086 15.2796C 3.24677 14.9243 2.47148 14.3824 1.84027 13.6923C 0.539044 12.0649 -0.1114 10.0101 0.015635 7.92819C -0.074201 5.84117 0.631824 3.79814 1.99024 2.21425C 2.60845 1.49823 3.37766 0.928922 4.24221 0.547509C 5.10677 0.166096 6.04507 -0.0178926 6.98923 0.00886537C 7.84176 -0.0390254 8.69401 0.107483 9.48193 0.437377C 10.2699 0.76727 10.9729 1.27197 11.5383 1.91352C 12.6892 3.43514 13.2569 5.32053 13.138 7.22649L 13.163 8.52967ZM 10.6635 6.49971C 10.7142 5.33844 10.3608 4.19562 9.6637 3.26683C 9.32167 2.87936 8.89672 2.57442 8.42061 2.37479C 7.94451 2.17517 7.42956 2.08601 6.91425 2.114C 6.37636 2.10739 5.84298 2.21317 5.3481 2.42459C 4.85322 2.63601 4.40766 2.94845 4.03983 3.34201C 3.21716 4.2146 2.69959 5.33162 2.56512 6.52478L 10.6635 6.49971Z"/>
</defs>
</svg>
