<svg version="1.1" viewBox="0.0 0.0 600.0 371.0" fill="none" stroke="none" stroke-linecap="square" stroke-miterlimit="10" width="600" height="371" xmlns:xlink="http://www.w3.org/1999/xlink" xmlns="http://www.w3.org/2000/svg"><path fill="#ffffff" d="M0 0L600.0 0L600.0 371.0L0 371.0L0 0Z" fill-rule="nonzero"/><path stroke="#333333" stroke-width="1.0" stroke-linecap="butt" d="M94.5 332.5L581.5 332.5" fill-rule="nonzero"/><path stroke="#cccccc" stroke-width="1.0" stroke-linecap="butt" d="M94.5 242.5L581.5 242.5" fill-rule="nonzero"/><path stroke="#cccccc" stroke-width="1.0" stroke-linecap="butt" d="M94.5 152.5L581.5 152.5" fill-rule="nonzero"/><path stroke="#cccccc" stroke-width="1.0" stroke-linecap="butt" d="M94.5 61.5L581.5 61.5" fill-rule="nonzero"/><clipPath id="id_0"><path d="M94.55 61.916668L581.45 61.916668L581.45 332.45L94.55 332.45L94.55 61.916668Z" clip-rule="nonzero"/></clipPath><path stroke="#000000" stroke-width="2.0" stroke-linecap="butt" stroke-opacity="0.0" clip-path="url(#id_0)" d="M302.0 332.0L167.0 332.0L167.0 98.0C167.0 96.89543 167.89543 96.0 169.0 96.0L300.0 96.0C301.10458 96.0 302.0 96.89543 302.0 98.0Z" fill-rule="nonzero"/><path fill="#4285f4" clip-path="url(#id_0)" d="M302.0 332.0L167.0 332.0L167.0 98.0C167.0 96.89543 167.89543 96.0 169.0 96.0L300.0 96.0C301.10458 96.0 302.0 96.89543 302.0 98.0Z" fill-rule="nonzero"/><path stroke="#000000" stroke-width="2.0" stroke-linecap="butt" stroke-opacity="0.0" clip-path="url(#id_0)" d="M510.0 332.0L375.0 332.0L375.0 85.0C375.0 83.89543 375.89542 83.0 377.0 83.0L508.0 83.0C509.10458 83.0 510.0 83.89543 510.0 85.0Z" fill-rule="nonzero"/><path fill="#4285f4" clip-path="url(#id_0)" d="M510.0 332.0L375.0 332.0L375.0 85.0C375.0 83.89543 375.89542 83.0 377.0 83.0L508.0 83.0C509.10458 83.0 510.0 83.89543 510.0 85.0Z" fill-rule="nonzero"/><path stroke="#4285f4" stroke-width="3.0" stroke-linejoin="round" stroke-linecap="round" d="M216.20312 108.5641L216.64062 104.3141L221.01562 104.3141L221.01562 105.3141L217.5625 105.3141L217.29688 107.64223Q217.9375 107.26723 218.73438 107.26723Q219.89062 107.26723 220.57812 108.04848Q221.26562 108.8141 221.26562 110.1266Q221.26562 111.4391 220.54688 112.20473Q219.84375 112.97035 218.5625 112.97035Q217.4375 112.97035 216.71875 112.34535Q216.0 111.70473 215.90625 110.59535L216.92188 110.59535Q217.03125 111.32973 217.45312 111.70473Q217.875 112.07973 218.5625 112.07973Q219.3125 112.07973 219.75 111.5641Q220.1875 111.04848 220.1875 110.14223Q220.1875 109.28285 219.71875 108.76723Q219.25 108.2516 218.46875 108.2516Q217.76562 108.2516 217.35938 108.54848L217.07812 108.78285L216.20312 108.5641ZM228.29688 112.84535L222.70312 112.84535L222.70312 112.0641L225.65625 108.78285Q226.3125 108.03285 226.5625 107.57973Q226.8125 107.11098 226.8125 106.61098Q226.8125 105.9391 226.40625 105.51723Q226.01562 105.07973 225.32812 105.07973Q224.53125 105.07973 224.07812 105.54848Q223.625 106.0016 223.625 106.82973L222.54688 106.82973Q222.54688 105.64223 223.29688 104.92348Q224.0625 104.1891 225.32812 104.1891Q226.53125 104.1891 227.21875 104.8141Q227.90625 105.4391 227.90625 106.48598Q227.90625 107.73598 226.29688 109.48598L224.01562 111.95473L228.29688 111.95473L228.29688 112.84535ZM234.28125 109.98598L235.46875 109.98598L235.46875 110.86098L234.28125 110.86098L234.28125 112.84535L233.20312 112.84535L233.20312 110.86098L229.3125 110.86098L229.3125 110.22035L233.125 104.3141L234.28125 104.3141L234.28125 109.98598ZM230.54688 109.98598L233.20312 109.98598L233.20312 105.79848L233.0625 106.03285L230.54688 109.98598ZM236.84375 112.28285Q236.84375 112.0016 237.0 111.8141Q237.17188 111.6266 237.5 111.6266Q237.84375 111.6266 238.01562 111.8141Q238.1875 112.0016 238.1875 112.28285Q238.1875 112.54848 238.01562 112.73598Q237.84375 112.90785 237.5 112.90785Q237.17188 112.90785 237.0 112.73598Q236.84375 112.54848 236.84375 112.28285ZM241.28125 108.04848L242.09375 108.04848Q242.875 108.03285 243.3125 107.64223Q243.75 107.2516 243.75 106.57973Q243.75 105.07973 242.25 105.07973Q241.54688 105.07973 241.125 105.48598Q240.71875 105.89223 240.71875 106.54848L239.625 106.54848Q239.625 105.53285 240.35938 104.86098Q241.10938 104.1891 242.25 104.1891Q243.45312 104.1891 244.14062 104.82973Q244.82812 105.47035 244.82812 106.61098Q244.82812 107.17348 244.46875 107.6891Q244.10938 108.20473 243.48438 108.47035Q244.1875 108.6891 244.5625 109.20473Q244.95312 109.72035 244.95312 110.47035Q244.95312 111.61098 244.20312 112.29848Q243.45312 112.97035 242.25 112.97035Q241.0625 112.97035 240.29688 112.3141Q239.54688 111.65785 239.54688 110.59535L240.64062 110.59535Q240.64062 111.26723 241.07812 111.67348Q241.51562 112.07973 242.26562 112.07973Q243.04688 112.07973 243.45312 111.67348Q243.875 111.2516 243.875 110.48598Q243.875 109.7516 243.42188 109.36098Q242.96875 108.95473 242.09375 108.9391L241.28125 108.9391L241.28125 108.04848ZM250.26562 112.84535L249.1875 112.84535L249.1875 105.6266L247.0 106.42348L247.0 105.4391L250.10938 104.26723L250.26562 104.26723L250.26562 112.84535Z" fill-rule="nonzero"/><path fill="#ffffff" d="M216.20312 108.5641L216.64062 104.3141L221.01562 104.3141L221.01562 105.3141L217.5625 105.3141L217.29688 107.64223Q217.9375 107.26723 218.73438 107.26723Q219.89062 107.26723 220.57812 108.04848Q221.26562 108.8141 221.26562 110.1266Q221.26562 111.4391 220.54688 112.20473Q219.84375 112.97035 218.5625 112.97035Q217.4375 112.97035 216.71875 112.34535Q216.0 111.70473 215.90625 110.59535L216.92188 110.59535Q217.03125 111.32973 217.45312 111.70473Q217.875 112.07973 218.5625 112.07973Q219.3125 112.07973 219.75 111.5641Q220.1875 111.04848 220.1875 110.14223Q220.1875 109.28285 219.71875 108.76723Q219.25 108.2516 218.46875 108.2516Q217.76562 108.2516 217.35938 108.54848L217.07812 108.78285L216.20312 108.5641ZM228.29688 112.84535L222.70312 112.84535L222.70312 112.0641L225.65625 108.78285Q226.3125 108.03285 226.5625 107.57973Q226.8125 107.11098 226.8125 106.61098Q226.8125 105.9391 226.40625 105.51723Q226.01562 105.07973 225.32812 105.07973Q224.53125 105.07973 224.07812 105.54848Q223.625 106.0016 223.625 106.82973L222.54688 106.82973Q222.54688 105.64223 223.29688 104.92348Q224.0625 104.1891 225.32812 104.1891Q226.53125 104.1891 227.21875 104.8141Q227.90625 105.4391 227.90625 106.48598Q227.90625 107.73598 226.29688 109.48598L224.01562 111.95473L228.29688 111.95473L228.29688 112.84535ZM234.28125 109.98598L235.46875 109.98598L235.46875 110.86098L234.28125 110.86098L234.28125 112.84535L233.20312 112.84535L233.20312 110.86098L229.3125 110.86098L229.3125 110.22035L233.125 104.3141L234.28125 104.3141L234.28125 109.98598ZM230.54688 109.98598L233.20312 109.98598L233.20312 105.79848L233.0625 106.03285L230.54688 109.98598ZM236.84375 112.28285Q236.84375 112.0016 237.0 111.8141Q237.17188 111.6266 237.5 111.6266Q237.84375 111.6266 238.01562 111.8141Q238.1875 112.0016 238.1875 112.28285Q238.1875 112.54848 238.01562 112.73598Q237.84375 112.90785 237.5 112.90785Q237.17188 112.90785 237.0 112.73598Q236.84375 112.54848 236.84375 112.28285ZM241.28125 108.04848L242.09375 108.04848Q242.875 108.03285 243.3125 107.64223Q243.75 107.2516 243.75 106.57973Q243.75 105.07973 242.25 105.07973Q241.54688 105.07973 241.125 105.48598Q240.71875 105.89223 240.71875 106.54848L239.625 106.54848Q239.625 105.53285 240.35938 104.86098Q241.10938 104.1891 242.25 104.1891Q243.45312 104.1891 244.14062 104.82973Q244.82812 105.47035 244.82812 106.61098Q244.82812 107.17348 244.46875 107.6891Q244.10938 108.20473 243.48438 108.47035Q244.1875 108.6891 244.5625 109.20473Q244.95312 109.72035 244.95312 110.47035Q244.95312 111.61098 244.20312 112.29848Q243.45312 112.97035 242.25 112.97035Q241.0625 112.97035 240.29688 112.3141Q239.54688 111.65785 239.54688 110.59535L240.64062 110.59535Q240.64062 111.26723 241.07812 111.67348Q241.51562 112.07973 242.26562 112.07973Q243.04688 112.07973 243.45312 111.67348Q243.875 111.2516 243.875 110.48598Q243.875 109.7516 243.42188 109.36098Q242.96875 108.95473 242.09375 108.9391L241.28125 108.9391L241.28125 108.04848ZM250.26562 112.84535L249.1875 112.84535L249.1875 105.6266L247.0 106.42348L247.0 105.4391L250.10938 104.26723L250.26562 104.26723L250.26562 112.84535Z" fill-rule="nonzero"/><path stroke="#4285f4" stroke-width="3.0" stroke-linejoin="round" stroke-linecap="round" d="M424.20312 95.85895L424.64062 91.60895L429.01562 91.60895L429.01562 92.60895L425.5625 92.60895L425.29688 94.93707Q425.9375 94.56207 426.73438 94.56207Q427.89062 94.56207 428.57812 95.34332Q429.26562 96.10895 429.26562 97.42145Q429.26562 98.73395 428.54688 99.49957Q427.84375 100.2652 426.5625 100.2652Q425.4375 100.2652 424.71875 99.6402Q424.0 98.99957 423.90625 97.8902L424.92188 97.8902Q425.03125 98.62457 425.45312 98.99957Q425.875 99.37457 426.5625 99.37457Q427.3125 99.37457 427.75 98.85895Q428.1875 98.34332 428.1875 97.43707Q428.1875 96.5777 427.71875 96.06207Q427.25 95.54645 426.46875 95.54645Q425.76562 95.54645 425.35938 95.84332L425.07812 96.0777L424.20312 95.85895ZM431.20312 95.85895L431.64062 91.60895L436.01562 91.60895L436.01562 92.60895L432.5625 92.60895L432.29688 94.93707Q432.9375 94.56207 433.73438 94.56207Q434.89062 94.56207 435.57812 95.34332Q436.26562 96.10895 436.26562 97.42145Q436.26562 98.73395 435.54688 99.49957Q434.84375 100.2652 433.5625 100.2652Q432.4375 100.2652 431.71875 99.6402Q431.0 98.99957 430.90625 97.8902L431.92188 97.8902Q432.03125 98.62457 432.45312 98.99957Q432.875 99.37457 433.5625 99.37457Q434.3125 99.37457 434.75 98.85895Q435.1875 98.34332 435.1875 97.43707Q435.1875 96.5777 434.71875 96.06207Q434.25 95.54645 433.46875 95.54645Q432.76562 95.54645 432.35938 95.84332L432.07812 96.0777L431.20312 95.85895ZM443.29688 100.1402L437.70312 100.1402L437.70312 99.35895L440.65625 96.0777Q441.3125 95.3277 441.5625 94.87457Q441.8125 94.40582 441.8125 93.90582Q441.8125 93.23395 441.40625 92.81207Q441.01562 92.37457 440.32812 92.37457Q439.53125 92.37457 439.07812 92.84332Q438.625 93.29645 438.625 94.12457L437.54688 94.12457Q437.54688 92.93707 438.29688 92.21832Q439.0625 91.48395 440.32812 91.48395Q441.53125 91.48395 442.21875 92.10895Q442.90625 92.73395 442.90625 93.78082Q442.90625 95.03082 441.29688 96.78082L439.01562 99.24957L443.29688 99.24957L443.29688 100.1402ZM444.84375 99.5777Q444.84375 99.29645 445.0 99.10895Q445.17188 98.92145 445.5 98.92145Q445.84375 98.92145 446.01562 99.10895Q446.1875 99.29645 446.1875 99.5777Q446.1875 99.84332 446.01562 100.03082Q445.84375 100.2027 445.5 100.2027Q445.17188 100.2027 445.0 100.03082Q444.84375 99.84332 444.84375 99.5777ZM452.28125 97.28082L453.46875 97.28082L453.46875 98.15582L452.28125 98.15582L452.28125 100.1402L451.20312 100.1402L451.20312 98.15582L447.3125 98.15582L447.3125 97.5152L451.125 91.60895L452.28125 91.60895L452.28125 97.28082ZM448.54688 97.28082L451.20312 97.28082L451.20312 93.09332L451.0625 93.3277L448.54688 97.28082ZM458.85938 96.3902Q458.53125 96.79645 458.04688 97.04645Q457.57812 97.28082 457.01562 97.28082Q456.28125 97.28082 455.73438 96.92145Q455.1875 96.56207 454.89062 95.90582Q454.59375 95.23395 454.59375 94.43707Q454.59375 93.59332 454.90625 92.90582Q455.23438 92.21832 455.82812 91.85895Q456.4375 91.48395 457.23438 91.48395Q458.5 91.48395 459.21875 92.43707Q459.95312 93.3902 459.95312 95.0152L459.95312 95.3277Q459.95312 97.8277 458.96875 98.96832Q457.98438 100.10895 456.0 100.1402L455.78125 100.1402L455.78125 99.23395L456.01562 99.23395Q457.35938 99.2027 458.07812 98.53082Q458.79688 97.85895 458.85938 96.3902ZM457.1875 96.3902Q457.73438 96.3902 458.1875 96.06207Q458.65625 95.71832 458.875 95.23395L458.875 94.79645Q458.875 93.73395 458.40625 93.06207Q457.9375 92.3902 457.23438 92.3902Q456.51562 92.3902 456.07812 92.93707Q455.65625 93.48395 455.65625 94.3902Q455.65625 95.2652 456.0625 95.8277Q456.48438 96.3902 457.1875 96.3902Z" fill-rule="nonzero"/><path fill="#ffffff" d="M424.20312 95.85895L424.64062 91.60895L429.01562 91.60895L429.01562 92.60895L425.5625 92.60895L425.29688 94.93707Q425.9375 94.56207 426.73438 94.56207Q427.89062 94.56207 428.57812 95.34332Q429.26562 96.10895 429.26562 97.42145Q429.26562 98.73395 428.54688 99.49957Q427.84375 100.2652 426.5625 100.2652Q425.4375 100.2652 424.71875 99.6402Q424.0 98.99957 423.90625 97.8902L424.92188 97.8902Q425.03125 98.62457 425.45312 98.99957Q425.875 99.37457 426.5625 99.37457Q427.3125 99.37457 427.75 98.85895Q428.1875 98.34332 428.1875 97.43707Q428.1875 96.5777 427.71875 96.06207Q427.25 95.54645 426.46875 95.54645Q425.76562 95.54645 425.35938 95.84332L425.07812 96.0777L424.20312 95.85895ZM431.20312 95.85895L431.64062 91.60895L436.01562 91.60895L436.01562 92.60895L432.5625 92.60895L432.29688 94.93707Q432.9375 94.56207 433.73438 94.56207Q434.89062 94.56207 435.57812 95.34332Q436.26562 96.10895 436.26562 97.42145Q436.26562 98.73395 435.54688 99.49957Q434.84375 100.2652 433.5625 100.2652Q432.4375 100.2652 431.71875 99.6402Q431.0 98.99957 430.90625 97.8902L431.92188 97.8902Q432.03125 98.62457 432.45312 98.99957Q432.875 99.37457 433.5625 99.37457Q434.3125 99.37457 434.75 98.85895Q435.1875 98.34332 435.1875 97.43707Q435.1875 96.5777 434.71875 96.06207Q434.25 95.54645 433.46875 95.54645Q432.76562 95.54645 432.35938 95.84332L432.07812 96.0777L431.20312 95.85895ZM443.29688 100.1402L437.70312 100.1402L437.70312 99.35895L440.65625 96.0777Q441.3125 95.3277 441.5625 94.87457Q441.8125 94.40582 441.8125 93.90582Q441.8125 93.23395 441.40625 92.81207Q441.01562 92.37457 440.32812 92.37457Q439.53125 92.37457 439.07812 92.84332Q438.625 93.29645 438.625 94.12457L437.54688 94.12457Q437.54688 92.93707 438.29688 92.21832Q439.0625 91.48395 440.32812 91.48395Q441.53125 91.48395 442.21875 92.10895Q442.90625 92.73395 442.90625 93.78082Q442.90625 95.03082 441.29688 96.78082L439.01562 99.24957L443.29688 99.24957L443.29688 100.1402ZM444.84375 99.5777Q444.84375 99.29645 445.0 99.10895Q445.17188 98.92145 445.5 98.92145Q445.84375 98.92145 446.01562 99.10895Q446.1875 99.29645 446.1875 99.5777Q446.1875 99.84332 446.01562 100.03082Q445.84375 100.2027 445.5 100.2027Q445.17188 100.2027 445.0 100.03082Q444.84375 99.84332 444.84375 99.5777ZM452.28125 97.28082L453.46875 97.28082L453.46875 98.15582L452.28125 98.15582L452.28125 100.1402L451.20312 100.1402L451.20312 98.15582L447.3125 98.15582L447.3125 97.5152L451.125 91.60895L452.28125 91.60895L452.28125 97.28082ZM448.54688 97.28082L451.20312 97.28082L451.20312 93.09332L451.0625 93.3277L448.54688 97.28082ZM458.85938 96.3902Q458.53125 96.79645 458.04688 97.04645Q457.57812 97.28082 457.01562 97.28082Q456.28125 97.28082 455.73438 96.92145Q455.1875 96.56207 454.89062 95.90582Q454.59375 95.23395 454.59375 94.43707Q454.59375 93.59332 454.90625 92.90582Q455.23438 92.21832 455.82812 91.85895Q456.4375 91.48395 457.23438 91.48395Q458.5 91.48395 459.21875 92.43707Q459.95312 93.3902 459.95312 95.0152L459.95312 95.3277Q459.95312 97.8277 458.96875 98.96832Q457.98438 100.10895 456.0 100.1402L455.78125 100.1402L455.78125 99.23395L456.01562 99.23395Q457.35938 99.2027 458.07812 98.53082Q458.79688 97.85895 458.85938 96.3902ZM457.1875 96.3902Q457.73438 96.3902 458.1875 96.06207Q458.65625 95.71832 458.875 95.23395L458.875 94.79645Q458.875 93.73395 458.40625 93.06207Q457.9375 92.3902 457.23438 92.3902Q456.51562 92.3902 456.07812 92.93707Q455.65625 93.48395 455.65625 94.3902Q455.65625 95.2652 456.0625 95.8277Q456.48438 96.3902 457.1875 96.3902Z" fill-rule="nonzero"/><path fill="#000000" d="M23.331263 204.71458L29.550013 204.71458L29.550013 205.66771L28.815638 205.66771Q29.284388 205.96458 29.456263 206.26146Q29.690638 206.66771 29.690638 207.21458Q29.690638 207.69896 29.503138 208.07396Q29.362513 208.35521 28.925013 208.69896L31.940638 208.69896L31.940638 209.74583L23.331263 209.74583L23.331263 208.69896L25.956263 208.69896Q27.393763 208.69896 27.831263 208.55833Q28.253138 208.40208 28.503138 208.05833Q28.737513 207.71458 28.737513 207.26146Q28.737513 206.79271 28.487513 206.43333Q28.221888 206.05833 27.815638 205.91771Q27.409388 205.76146 25.987513 205.76146L23.331263 205.76146L23.331263 204.71458ZM27.690638 203.30833L27.534388 202.27708Q28.159388 202.18333 28.487513 201.79271Q28.815638 201.38646 28.815638 200.65208Q28.815638 199.93333 28.534388 199.58958Q28.237513 199.23021 27.831263 199.23021Q27.471888 199.23021 27.268763 199.54271Q27.128138 199.76146 26.909388 200.62083Q26.612513 201.77708 26.409388 202.23021Q26.190638 202.66771 25.815638 202.90208Q25.440638 203.13646 24.971888 203.13646Q24.565638 203.13646 24.206263 202.94896Q23.846888 202.76146 23.612513 202.43333Q23.440638 202.18333 23.315638 201.76146Q23.190638 201.33958 23.190638 200.83958Q23.190638 200.12083 23.409388 199.57396Q23.612513 199.01146 23.971888 198.74583Q24.331263 198.48021 24.925013 198.38646L25.065638 199.41771Q24.596888 199.48021 24.331263 199.82396Q24.050013 200.15208 24.050013 200.77708Q24.050013 201.49583 24.300013 201.80833Q24.534388 202.12083 24.862513 202.12083Q25.065638 202.12083 25.221888 201.99583Q25.393763 201.85521 25.503138 201.58958Q25.565638 201.43333 25.768763 200.65208Q26.081263 199.52708 26.268763 199.08958Q26.456263 198.65208 26.815638 198.40208Q27.175013 198.15208 27.721888 198.15208Q28.253138 198.15208 28.721888 198.46458Q29.175013 198.76146 29.440638 199.33958Q29.690638 199.91771 29.690638 200.65208Q29.690638 201.87083 29.190638 202.51146Q28.675013 203.13646 27.690638 203.30833Z" fill-rule="nonzero"/><path fill="#000000" d="M65.05 332.21564Q65.05 330.6844 65.3625 329.7625Q65.675 328.825 66.28438 328.325Q66.90938 327.825 67.84688 327.825Q68.53438 327.825 69.05 328.10626Q69.58125 328.3875 69.925 328.91876Q70.26875 329.4344 70.45625 330.1844Q70.64375 330.9344 70.64375 332.21564Q70.64375 333.73126 70.33125 334.65314Q70.03438 335.575 69.40938 336.09064Q68.8 336.59064 67.84688 336.59064Q66.6125 336.59064 65.89375 335.7Q65.05 334.6375 65.05 332.21564ZM66.12813 332.21564Q66.12813 334.325 66.62813 335.02814Q67.12813 335.73126 67.84688 335.73126Q68.58125 335.73126 69.06563 335.02814Q69.56563 334.325 69.56563 332.21564Q69.56563 330.09064 69.06563 329.40314Q68.58125 328.7 67.83125 328.7Q67.1125 328.7 66.675 329.3094Q66.12813 330.09064 66.12813 332.21564ZM72.64375 336.45L72.64375 335.2469L73.84688 335.2469L73.84688 336.45L72.64375 336.45ZM75.05 332.21564Q75.05 330.6844 75.3625 329.7625Q75.675 328.825 76.28438 328.325Q76.90938 327.825 77.84688 327.825Q78.53438 327.825 79.05 328.10626Q79.58125 328.3875 79.925 328.91876Q80.26875 329.4344 80.45625 330.1844Q80.64375 330.9344 80.64375 332.21564Q80.64375 333.73126 80.33125 334.65314Q80.03438 335.575 79.40938 336.09064Q78.8 336.59064 77.84688 336.59064Q76.6125 336.59064 75.89375 335.7Q75.05 334.6375 75.05 332.21564ZM76.12813 332.21564Q76.12813 334.325 76.62813 335.02814Q77.12813 335.73126 77.84688 335.73126Q78.58125 335.73126 79.06563 335.02814Q79.56563 334.325 79.56563 332.21564Q79.56563 330.09064 79.06563 329.40314Q78.58125 328.7 77.83125 328.7Q77.1125 328.7 76.675 329.3094Q76.12813 330.09064 76.12813 332.21564ZM82.05 332.21564Q82.05 330.6844 82.3625 329.7625Q82.675 328.825 83.28438 328.325Q83.90938 327.825 84.84688 327.825Q85.53438 327.825 86.05 328.10626Q86.58125 328.3875 86.925 328.91876Q87.26875 329.4344 87.45625 330.1844Q87.64375 330.9344 87.64375 332.21564Q87.64375 333.73126 87.33125 334.65314Q87.03438 335.575 86.40938 336.09064Q85.8 336.59064 84.84688 336.59064Q83.6125 336.59064 82.89375 335.7Q82.05 334.6375 82.05 332.21564ZM83.12813 332.21564Q83.12813 334.325 83.62813 335.02814Q84.12813 335.73126 84.84688 335.73126Q85.58125 335.73126 86.06563 335.02814Q86.56563 334.325 86.56563 332.21564Q86.56563 330.09064 86.06563 329.40314Q85.58125 328.7 84.83125 328.7Q84.1125 328.7 83.675 329.3094Q83.12813 330.09064 83.12813 332.21564Z" fill-rule="nonzero"/><path fill="#000000" d="M56.596874 245.25659L56.596874 246.27222L50.909374 246.27222Q50.909374 245.89722 51.034374 245.53784Q51.253124 244.95972 51.721874 244.39722Q52.20625 243.83472 53.1125 243.10034Q54.51875 241.94409 55.003124 241.27222Q55.503124 240.60034 55.503124 240.00659Q55.503124 239.38159 55.05 238.95972Q54.596874 238.52222 53.878124 238.52222Q53.1125 238.52222 52.659374 238.97534Q52.20625 239.42847 52.190624 240.24097L51.1125 240.13159Q51.221874 238.91284 51.940624 238.28784Q52.675 237.64722 53.909374 237.64722Q55.14375 237.64722 55.8625 238.33472Q56.58125 239.02222 56.58125 240.03784Q56.58125 240.55347 56.3625 241.05347Q56.159374 241.53784 55.659374 242.10034Q55.175 242.64722 54.05 243.60034Q53.096874 244.39722 52.815624 244.69409Q52.55 244.97534 52.378124 245.25659L56.596874 245.25659ZM58.05 242.03784Q58.05 240.50659 58.3625 239.58472Q58.675 238.64722 59.284374 238.14722Q59.909374 237.64722 60.846874 237.64722Q61.534374 237.64722 62.05 237.92847Q62.58125 238.20972 62.925 238.74097Q63.26875 239.25659 63.45625 240.00659Q63.64375 240.75659 63.64375 242.03784Q63.64375 243.55347 63.33125 244.47534Q63.034374 245.39722 62.409374 245.91284Q61.8 246.41284 60.846874 246.41284Q59.6125 246.41284 58.89375 245.52222Q58.05 244.45972 58.05 242.03784ZM59.128124 242.03784Q59.128124 244.14722 59.628124 244.85034Q60.128124 245.55347 60.846874 245.55347Q61.58125 245.55347 62.065624 244.85034Q62.565624 244.14722 62.565624 242.03784Q62.565624 239.91284 62.065624 239.22534Q61.58125 238.52222 60.83125 238.52222Q60.1125 238.52222 59.675 239.13159Q59.128124 239.91284 59.128124 242.03784ZM65.05 242.03784Q65.05 240.50659 65.3625 239.58472Q65.675 238.64722 66.28438 238.14722Q66.90938 237.64722 67.84688 237.64722Q68.53438 237.64722 69.05 237.92847Q69.58125 238.20972 69.925 238.74097Q70.26875 239.25659 70.45625 240.00659Q70.64375 240.75659 70.64375 242.03784Q70.64375 243.55347 70.33125 244.47534Q70.03438 245.39722 69.40938 245.91284Q68.8 246.41284 67.84688 246.41284Q66.6125 246.41284 65.89375 245.52222Q65.05 244.45972 65.05 242.03784ZM66.12813 242.03784Q66.12813 244.14722 66.62813 244.85034Q67.12813 245.55347 67.84688 245.55347Q68.58125 245.55347 69.06563 244.85034Q69.56563 244.14722 69.56563 242.03784Q69.56563 239.91284 69.06563 239.22534Q68.58125 238.52222 67.83125 238.52222Q67.1125 238.52222 66.675 239.13159Q66.12813 239.91284 66.12813 242.03784ZM72.64375 246.27222L72.64375 245.06909L73.84688 245.06909L73.84688 246.27222L72.64375 246.27222ZM75.05 242.03784Q75.05 240.50659 75.3625 239.58472Q75.675 238.64722 76.28438 238.14722Q76.90938 237.64722 77.84688 237.64722Q78.53438 237.64722 79.05 237.92847Q79.58125 238.20972 79.925 238.74097Q80.26875 239.25659 80.45625 240.00659Q80.64375 240.75659 80.64375 242.03784Q80.64375 243.55347 80.33125 244.47534Q80.03438 245.39722 79.40938 245.91284Q78.8 246.41284 77.84688 246.41284Q76.6125 246.41284 75.89375 245.52222Q75.05 244.45972 75.05 242.03784ZM76.12813 242.03784Q76.12813 244.14722 76.62813 244.85034Q77.12813 245.55347 77.84688 245.55347Q78.58125 245.55347 79.06563 244.85034Q79.56563 244.14722 79.56563 242.03784Q79.56563 239.91284 79.06563 239.22534Q78.58125 238.52222 77.83125 238.52222Q77.1125 238.52222 76.675 239.13159Q76.12813 239.91284 76.12813 242.03784ZM82.05 242.03784Q82.05 240.50659 82.3625 239.58472Q82.675 238.64722 83.28438 238.14722Q83.90938 237.64722 84.84688 237.64722Q85.53438 237.64722 86.05 237.92847Q86.58125 238.20972 86.925 238.74097Q87.26875 239.25659 87.45625 240.00659Q87.64375 240.75659 87.64375 242.03784Q87.64375 243.55347 87.33125 244.47534Q87.03438 245.39722 86.40938 245.91284Q85.8 246.41284 84.84688 246.41284Q83.6125 246.41284 82.89375 245.52222Q82.05 244.45972 82.05 242.03784ZM83.12813 242.03784Q83.12813 244.14722 83.62813 244.85034Q84.12813 245.55347 84.84688 245.55347Q85.58125 245.55347 86.06563 244.85034Q86.56563 244.14722 86.56563 242.03784Q86.56563 239.91284 86.06563 239.22534Q85.58125 238.52222 84.83125 238.52222Q84.1125 238.52222 83.675 239.13159Q83.12813 239.91284 83.12813 242.03784Z" fill-rule="nonzero"/><path fill="#000000" d="M54.425 156.09445L54.425 154.03195L50.70625 154.03195L50.70625 153.0632L54.628124 147.5007L55.4875 147.5007L55.4875 153.0632L56.64375 153.0632L56.64375 154.03195L55.4875 154.03195L55.4875 156.09445L54.425 156.09445ZM54.425 153.0632L54.425 149.20383L51.7375 153.0632L54.425 153.0632ZM58.05 151.86008Q58.05 150.32883 58.3625 149.40695Q58.675 148.46945 59.284374 147.96945Q59.909374 147.46945 60.846874 147.46945Q61.534374 147.46945 62.05 147.7507Q62.58125 148.03195 62.925 148.5632Q63.26875 149.07883 63.45625 149.82883Q63.64375 150.57883 63.64375 151.86008Q63.64375 153.3757 63.33125 154.29758Q63.034374 155.21945 62.409374 155.73508Q61.8 156.23508 60.846874 156.23508Q59.6125 156.23508 58.89375 155.34445Q58.05 154.28195 58.05 151.86008ZM59.128124 151.86008Q59.128124 153.96945 59.628124 154.67258Q60.128124 155.3757 60.846874 155.3757Q61.58125 155.3757 62.065624 154.67258Q62.565624 153.96945 62.565624 151.86008Q62.565624 149.73508 62.065624 149.04758Q61.58125 148.34445 60.83125 148.34445Q60.1125 148.34445 59.675 148.95383Q59.128124 149.73508 59.128124 151.86008ZM65.05 151.86008Q65.05 150.32883 65.3625 149.40695Q65.675 148.46945 66.28438 147.96945Q66.90938 147.46945 67.84688 147.46945Q68.53438 147.46945 69.05 147.7507Q69.58125 148.03195 69.925 148.5632Q70.26875 149.07883 70.45625 149.82883Q70.64375 150.57883 70.64375 151.86008Q70.64375 153.3757 70.33125 154.29758Q70.03438 155.21945 69.40938 155.73508Q68.8 156.23508 67.84688 156.23508Q66.6125 156.23508 65.89375 155.34445Q65.05 154.28195 65.05 151.86008ZM66.12813 151.86008Q66.12813 153.96945 66.62813 154.67258Q67.12813 155.3757 67.84688 155.3757Q68.58125 155.3757 69.06563 154.67258Q69.56563 153.96945 69.56563 151.86008Q69.56563 149.73508 69.06563 149.04758Q68.58125 148.34445 67.83125 148.34445Q67.1125 148.34445 66.675 148.95383Q66.12813 149.73508 66.12813 151.86008ZM72.64375 156.09445L72.64375 154.89133L73.84688 154.89133L73.84688 156.09445L72.64375 156.09445ZM75.05 151.86008Q75.05 150.32883 75.3625 149.40695Q75.675 148.46945 76.28438 147.96945Q76.90938 147.46945 77.84688 147.46945Q78.53438 147.46945 79.05 147.7507Q79.58125 148.03195 79.925 148.5632Q80.26875 149.07883 80.45625 149.82883Q80.64375 150.57883 80.64375 151.86008Q80.64375 153.3757 80.33125 154.29758Q80.03438 155.21945 79.40938 155.73508Q78.8 156.23508 77.84688 156.23508Q76.6125 156.23508 75.89375 155.34445Q75.05 154.28195 75.05 151.86008ZM76.12813 151.86008Q76.12813 153.96945 76.62813 154.67258Q77.12813 155.3757 77.84688 155.3757Q78.58125 155.3757 79.06563 154.67258Q79.56563 153.96945 79.56563 151.86008Q79.56563 149.73508 79.06563 149.04758Q78.58125 148.34445 77.83125 148.34445Q77.1125 148.34445 76.675 148.95383Q76.12813 149.73508 76.12813 151.86008ZM82.05 151.86008Q82.05 150.32883 82.3625 149.40695Q82.675 148.46945 83.28438 147.96945Q83.90938 147.46945 84.84688 147.46945Q85.53438 147.46945 86.05 147.7507Q86.58125 148.03195 86.925 148.5632Q87.26875 149.07883 87.45625 149.82883Q87.64375 150.57883 87.64375 151.86008Q87.64375 153.3757 87.33125 154.29758Q87.03438 155.21945 86.40938 155.73508Q85.8 156.23508 84.84688 156.23508Q83.6125 156.23508 82.89375 155.34445Q82.05 154.28195 82.05 151.86008ZM83.12813 151.86008Q83.12813 153.96945 83.62813 154.67258Q84.12813 155.3757 84.84688 155.3757Q85.58125 155.3757 86.06563 154.67258Q86.56563 153.96945 86.56563 151.86008Q86.56563 149.73508 86.06563 149.04758Q85.58125 148.34445 84.83125 148.34445Q84.1125 148.34445 83.675 148.95383Q83.12813 149.73508 83.12813 151.86008Z" fill-rule="nonzero"/><path fill="#000000" d="M56.51875 59.43229L55.471874 59.510414Q55.33125 58.885414 55.08125 58.604164Q54.64375 58.15104 54.01875 58.15104Q53.51875 58.15104 53.128124 58.43229Q52.64375 58.80729 52.346874 59.510414Q52.065624 60.197914 52.05 61.479164Q52.425 60.90104 52.971874 60.61979Q53.534374 60.33854 54.14375 60.33854Q55.190624 60.33854 55.925 61.11979Q56.675 61.90104 56.675 63.11979Q56.675 63.93229 56.315624 64.635414Q55.971874 65.322914 55.3625 65.697914Q54.753124 66.05729 53.9875 66.05729Q52.659374 66.05729 51.83125 65.08854Q51.003124 64.11979 51.003124 61.90104Q51.003124 59.40104 51.925 58.27604Q52.721874 57.291664 54.08125 57.291664Q55.096874 57.291664 55.7375 57.86979Q56.39375 58.43229 56.51875 59.43229ZM52.221874 63.135414Q52.221874 63.68229 52.440624 64.18229Q52.675 64.666664 53.08125 64.93229Q53.503124 65.197914 53.971874 65.197914Q54.628124 65.197914 55.1125 64.666664Q55.596874 64.11979 55.596874 63.197914Q55.596874 62.30729 55.1125 61.791664Q54.64375 61.27604 53.925 61.27604Q53.20625 61.27604 52.70625 61.791664Q52.221874 62.30729 52.221874 63.135414ZM58.05 61.68229Q58.05 60.15104 58.3625 59.229164Q58.675 58.291664 59.284374 57.791664Q59.909374 57.291664 60.846874 57.291664Q61.534374 57.291664 62.05 57.572914Q62.58125 57.854164 62.925 58.385414Q63.26875 58.90104 63.45625 59.65104Q63.64375 60.40104 63.64375 61.68229Q63.64375 63.197914 63.33125 64.11979Q63.034374 65.041664 62.409374 65.55729Q61.8 66.05729 60.846874 66.05729Q59.6125 66.05729 58.89375 65.166664Q58.05 64.104164 58.05 61.68229ZM59.128124 61.68229Q59.128124 63.791664 59.628124 64.49479Q60.128124 65.197914 60.846874 65.197914Q61.58125 65.197914 62.065624 64.49479Q62.565624 63.791664 62.565624 61.68229Q62.565624 59.55729 62.065624 58.86979Q61.58125 58.166664 60.83125 58.166664Q60.1125 58.166664 59.675 58.77604Q59.128124 59.55729 59.128124 61.68229ZM65.05 61.68229Q65.05 60.15104 65.3625 59.229164Q65.675 58.291664 66.28438 57.791664Q66.90938 57.291664 67.84688 57.291664Q68.53438 57.291664 69.05 57.572914Q69.58125 57.854164 69.925 58.385414Q70.26875 58.90104 70.45625 59.65104Q70.64375 60.40104 70.64375 61.68229Q70.64375 63.197914 70.33125 64.11979Q70.03438 65.041664 69.40938 65.55729Q68.8 66.05729 67.84688 66.05729Q66.6125 66.05729 65.89375 65.166664Q65.05 64.104164 65.05 61.68229ZM66.12813 61.68229Q66.12813 63.791664 66.62813 64.49479Q67.12813 65.197914 67.84688 65.197914Q68.58125 65.197914 69.06563 64.49479Q69.56563 63.791664 69.56563 61.68229Q69.56563 59.55729 69.06563 58.86979Q68.58125 58.166664 67.83125 58.166664Q67.1125 58.166664 66.675 58.77604Q66.12813 59.55729 66.12813 61.68229ZM72.64375 65.916664L72.64375 64.71354L73.84688 64.71354L73.84688 65.916664L72.64375 65.916664ZM75.05 61.68229Q75.05 60.15104 75.3625 59.229164Q75.675 58.291664 76.28438 57.791664Q76.90938 57.291664 77.84688 57.291664Q78.53438 57.291664 79.05 57.572914Q79.58125 57.854164 79.925 58.385414Q80.26875 58.90104 80.45625 59.65104Q80.64375 60.40104 80.64375 61.68229Q80.64375 63.197914 80.33125 64.11979Q80.03438 65.041664 79.40938 65.55729Q78.8 66.05729 77.84688 66.05729Q76.6125 66.05729 75.89375 65.166664Q75.05 64.104164 75.05 61.68229ZM76.12813 61.68229Q76.12813 63.791664 76.62813 64.49479Q77.12813 65.197914 77.84688 65.197914Q78.58125 65.197914 79.06563 64.49479Q79.56563 63.791664 79.56563 61.68229Q79.56563 59.55729 79.06563 58.86979Q78.58125 58.166664 77.83125 58.166664Q77.1125 58.166664 76.675 58.77604Q76.12813 59.55729 76.12813 61.68229ZM82.05 61.68229Q82.05 60.15104 82.3625 59.229164Q82.675 58.291664 83.28438 57.791664Q83.90938 57.291664 84.84688 57.291664Q85.53438 57.291664 86.05 57.572914Q86.58125 57.854164 86.925 58.385414Q87.26875 58.90104 87.45625 59.65104Q87.64375 60.40104 87.64375 61.68229Q87.64375 63.197914 87.33125 64.11979Q87.03438 65.041664 86.40938 65.55729Q85.8 66.05729 84.84688 66.05729Q83.6125 66.05729 82.89375 65.166664Q82.05 64.104164 82.05 61.68229ZM83.12813 61.68229Q83.12813 63.791664 83.62813 64.49479Q84.12813 65.197914 84.84688 65.197914Q85.58125 65.197914 86.06563 64.49479Q86.56563 63.791664 86.56563 61.68229Q86.56563 59.55729 86.06563 58.86979Q85.58125 58.166664 84.83125 58.166664Q84.1125 58.166664 83.675 58.77604Q83.12813 59.55729 83.12813 61.68229Z" fill-rule="nonzero"/><path fill="#000000" d="M174.38863 349.45L177.6855 340.85626L178.90425 340.85626L182.41988 349.45L181.13863 349.45L180.123 346.84064L176.54488 346.84064L175.59175 349.45L174.38863 349.45ZM176.873 345.91876L179.77925 345.91876L178.88863 343.54376Q178.46675 342.46564 178.27925 341.7625Q178.10738 342.59064 177.8105 343.40314L176.873 345.91876ZM182.1855 349.45L182.1855 343.23126L183.13863 343.23126L183.13863 344.16876Q183.498 343.5125 183.79488 343.3094Q184.10738 343.09064 184.48238 343.09064Q185.01363 343.09064 185.5605 343.41876L185.20113 344.40314Q184.8105 344.16876 184.4355 344.16876Q184.07613 344.16876 183.79488 344.3875Q183.52925 344.59064 183.41988 344.96564Q183.23238 345.52814 183.23238 346.1844L183.23238 349.45L182.1855 349.45ZM188.498 348.5125L188.65425 349.4344Q188.20113 349.52814 187.85738 349.52814Q187.27925 349.52814 186.96675 349.35626Q186.65425 349.16876 186.51363 348.8719Q186.38863 348.575 186.38863 347.6219L186.38863 344.04376L185.623 344.04376L185.623 343.23126L186.38863 343.23126L186.38863 341.6844L187.4355 341.0594L187.4355 343.23126L188.498 343.23126L188.498 344.04376L187.4355 344.04376L187.4355 347.6844Q187.4355 348.1375 187.48238 348.2625Q187.54488 348.3875 187.66988 348.46564Q187.79488 348.54376 188.02925 348.54376Q188.21675 348.54376 188.498 348.5125ZM193.45113 347.45L194.54488 347.575Q194.29488 348.52814 193.59175 349.0594Q192.88863 349.59064 191.8105 349.59064Q190.45113 349.59064 189.63863 348.7469Q188.84175 347.90314 188.84175 346.3875Q188.84175 344.825 189.65425 343.96564Q190.46675 343.09064 191.748 343.09064Q192.998 343.09064 193.77925 343.9344Q194.57613 344.77814 194.57613 346.325Q194.57613 346.41876 194.57613 346.60626L189.9355 346.60626Q189.998 347.6375 190.51363 348.1844Q191.02925 348.71564 191.8105 348.71564Q192.38863 348.71564 192.79488 348.41876Q193.21675 348.10626 193.45113 347.45ZM189.998 345.7469L193.46675 345.7469Q193.40425 344.95 193.07613 344.5594Q192.5605 343.95 191.76363 343.95Q191.02925 343.95 190.52925 344.4344Q190.04488 344.91876 189.998 345.7469ZM196.20113 349.45L196.20113 343.23126L197.13863 343.23126L197.13863 344.10626Q197.4355 343.6375 197.91988 343.3719Q198.40425 343.09064 199.02925 343.09064Q199.71675 343.09064 200.15425 343.3719Q200.60738 343.65314 200.77925 344.16876Q201.52925 343.09064 202.70113 343.09064Q203.63863 343.09064 204.123 343.60626Q204.623 344.10626 204.623 345.1844L204.623 349.45L203.57613 349.45L203.57613 345.52814Q203.57613 344.90314 203.46675 344.6219Q203.373 344.34064 203.10738 344.16876Q202.84175 343.9969 202.46675 343.9969Q201.8105 343.9969 201.373 344.4344Q200.95113 344.8719 200.95113 345.84064L200.95113 349.45L199.88863 349.45L199.88863 345.40314Q199.88863 344.7 199.623 344.35626Q199.373 343.9969 198.79488 343.9969Q198.34175 343.9969 197.96675 344.23126Q197.59175 344.46564 197.41988 344.91876Q197.248 345.3719 197.248 346.21564L197.248 349.45L196.20113 349.45ZM207.20113 342.075L207.20113 340.85626L208.26363 340.85626L208.26363 342.075L207.20113 342.075ZM207.20113 349.45L207.20113 343.23126L208.26363 343.23126L208.26363 349.45L207.20113 349.45ZM209.77925 347.59064L210.8105 347.4344Q210.90425 348.0594 211.29488 348.3875Q211.70113 348.71564 212.4355 348.71564Q213.15425 348.71564 213.498 348.4344Q213.85738 348.1375 213.85738 347.73126Q213.85738 347.3719 213.54488 347.16876Q213.32613 347.02814 212.46675 346.8094Q211.3105 346.5125 210.85738 346.3094Q210.41988 346.09064 210.1855 345.71564Q209.95113 345.34064 209.95113 344.8719Q209.95113 344.46564 210.13863 344.10626Q210.32613 343.7469 210.65425 343.5125Q210.90425 343.34064 211.32613 343.21564Q211.748 343.09064 212.248 343.09064Q212.96675 343.09064 213.51363 343.3094Q214.07613 343.5125 214.34175 343.8719Q214.60738 344.23126 214.70113 344.825L213.66988 344.96564Q213.60738 344.4969 213.26363 344.23126Q212.9355 343.95 212.3105 343.95Q211.59175 343.95 211.27925 344.2Q210.96675 344.4344 210.96675 344.7625Q210.96675 344.96564 211.09175 345.1219Q211.23238 345.29376 211.498 345.40314Q211.65425 345.46564 212.4355 345.66876Q213.5605 345.98126 213.998 346.16876Q214.4355 346.35626 214.6855 346.71564Q214.9355 347.075 214.9355 347.6219Q214.9355 348.15314 214.623 348.6219Q214.32613 349.075 213.748 349.34064Q213.16988 349.59064 212.4355 349.59064Q211.21675 349.59064 210.57613 349.09064Q209.95113 348.575 209.77925 347.59064ZM217.32613 349.45L217.32613 340.85626L218.48238 340.85626L222.998 347.60626L222.998 340.85626L224.09175 340.85626L224.09175 349.45L222.91988 349.45L218.40425 342.7L218.40425 349.45L217.32613 349.45ZM230.45113 347.45L231.54488 347.575Q231.29488 348.52814 230.59175 349.0594Q229.88863 349.59064 228.8105 349.59064Q227.45113 349.59064 226.63863 348.7469Q225.84175 347.90314 225.84175 346.3875Q225.84175 344.825 226.65425 343.96564Q227.46675 343.09064 228.748 343.09064Q229.998 343.09064 230.77925 343.9344Q231.57613 344.77814 231.57613 346.325Q231.57613 346.41876 231.57613 346.60626L226.9355 346.60626Q226.998 347.6375 227.51363 348.1844Q228.02925 348.71564 228.8105 348.71564Q229.38863 348.71564 229.79488 348.41876Q230.21675 348.10626 230.45113 347.45ZM226.998 345.7469L230.46675 345.7469Q230.40425 344.95 230.07613 344.5594Q229.5605 343.95 228.76363 343.95Q228.02925 343.95 227.52925 344.4344Q227.04488 344.91876 226.998 345.7469ZM235.498 348.5125L235.65425 349.4344Q235.20113 349.52814 234.85738 349.52814Q234.27925 349.52814 233.96675 349.35626Q233.65425 349.16876 233.51363 348.8719Q233.38863 348.575 233.38863 347.6219L233.38863 344.04376L232.623 344.04376L232.623 343.23126L233.38863 343.23126L233.38863 341.6844L234.4355 341.0594L234.4355 343.23126L235.498 343.23126L235.498 344.04376L234.4355 344.04376L234.4355 347.6844Q234.4355 348.1375 234.48238 348.2625Q234.54488 348.3875 234.66988 348.46564Q234.79488 348.54376 235.02925 348.54376Q235.21675 348.54376 235.498 348.5125ZM242.46675 346.4344L243.59175 346.73126Q243.23238 348.1219 242.3105 348.85626Q241.38863 349.59064 240.04488 349.59064Q238.65425 349.59064 237.77925 349.02814Q236.90425 348.46564 236.45113 347.40314Q235.998 346.325 235.998 345.09064Q235.998 343.7469 236.51363 342.7469Q237.02925 341.7469 237.96675 341.23126Q238.91988 340.71564 240.0605 340.71564Q241.34175 340.71564 242.21675 341.3719Q243.10738 342.02814 243.45113 343.21564L242.32613 343.48126Q242.02925 342.54376 241.45113 342.1219Q240.88863 341.6844 240.02925 341.6844Q239.04488 341.6844 238.373 342.16876Q237.71675 342.6375 237.4355 343.4344Q237.16988 344.23126 237.16988 345.09064Q237.16988 346.1844 237.48238 346.9969Q237.8105 347.8094 238.48238 348.21564Q239.15425 348.6219 239.95113 348.6219Q240.90425 348.6219 241.5605 348.075Q242.23238 347.52814 242.46675 346.4344ZM244.8105 346.34064Q244.8105 344.60626 245.76363 343.77814Q246.5605 343.09064 247.71675 343.09064Q248.998 343.09064 249.8105 343.9344Q250.63863 344.7625 250.63863 346.2469Q250.63863 347.45 250.27925 348.1375Q249.91988 348.825 249.21675 349.21564Q248.52925 349.59064 247.71675 349.59064Q246.41988 349.59064 245.60738 348.7625Q244.8105 347.91876 244.8105 346.34064ZM245.88863 346.34064Q245.88863 347.52814 246.40425 348.1219Q246.9355 348.71564 247.71675 348.71564Q248.51363 348.71564 249.02925 348.1219Q249.54488 347.52814 249.54488 346.3094Q249.54488 345.15314 249.01363 344.5594Q248.498 343.96564 247.71675 343.96564Q246.9355 343.96564 246.40425 344.5594Q245.88863 345.1375 245.88863 346.34064ZM252.1855 349.45L252.1855 343.23126L253.13863 343.23126L253.13863 344.16876Q253.498 343.5125 253.79488 343.3094Q254.10738 343.09064 254.48238 343.09064Q255.01363 343.09064 255.5605 343.41876L255.20113 344.40314Q254.8105 344.16876 254.4355 344.16876Q254.07613 344.16876 253.79488 344.3875Q253.52925 344.59064 253.41988 344.96564Q253.23238 345.52814 253.23238 346.1844L253.23238 349.45L252.1855 349.45ZM260.4511 347.45L261.54486 347.575Q261.29486 348.52814 260.59174 349.0594Q259.8886 349.59064 258.8105 349.59064Q257.4511 349.59064 256.6386 348.7469Q255.84175 347.90314 255.84175 346.3875Q255.84175 344.825 256.65424 343.96564Q257.46674 343.09064 258.748 343.09064Q259.998 343.09064 260.77924 343.9344Q261.5761 344.77814 261.5761 346.325Q261.5761 346.41876 261.5761 346.60626L256.9355 346.60626Q256.998 347.6375 257.5136 348.1844Q258.02924 348.71564 258.8105 348.71564Q259.3886 348.71564 259.79486 348.41876Q260.21674 348.10626 260.4511 347.45ZM256.998 345.7469L260.46674 345.7469Q260.40424 344.95 260.0761 344.5594Q259.5605 343.95 258.7636 343.95Q258.02924 343.95 257.52924 344.4344Q257.04486 344.91876 256.998 345.7469ZM269.46674 346.4344L270.59174 346.73126Q270.23236 348.1219 269.3105 348.85626Q268.3886 349.59064 267.04486 349.59064Q265.65424 349.59064 264.77924 349.02814Q263.90424 348.46564 263.4511 347.40314Q262.998 346.325 262.998 345.09064Q262.998 343.7469 263.5136 342.7469Q264.02924 341.7469 264.96674 341.23126Q265.91986 340.71564 267.0605 340.71564Q268.34174 340.71564 269.21674 341.3719Q270.10736 342.02814 270.4511 343.21564L269.3261 343.48126Q269.02924 342.54376 268.4511 342.1219Q267.8886 341.6844 267.02924 341.6844Q266.04486 341.6844 265.373 342.16876Q264.71674 342.6375 264.4355 343.4344Q264.16986 344.23126 264.16986 345.09064Q264.16986 346.1844 264.48236 346.9969Q264.8105 347.8094 265.48236 348.21564Q266.15424 348.6219 266.9511 348.6219Q267.90424 348.6219 268.5605 348.075Q269.23236 347.52814 269.46674 346.4344ZM272.16986 349.45L272.16986 340.85626L273.23236 340.85626L273.23236 349.45L272.16986 349.45ZM275.2011 342.075L275.2011 340.85626L276.2636 340.85626L276.2636 342.075L275.2011 342.075ZM275.2011 349.45L275.2011 343.23126L276.2636 343.23126L276.2636 349.45L275.2011 349.45ZM282.4511 347.45L283.54486 347.575Q283.29486 348.52814 282.59174 349.0594Q281.8886 349.59064 280.8105 349.59064Q279.4511 349.59064 278.6386 348.7469Q277.84174 347.90314 277.84174 346.3875Q277.84174 344.825 278.65424 343.96564Q279.46674 343.09064 280.748 343.09064Q281.998 343.09064 282.77924 343.9344Q283.5761 344.77814 283.5761 346.325Q283.5761 346.41876 283.5761 346.60626L278.9355 346.60626Q278.998 347.6375 279.5136 348.1844Q280.02924 348.71564 280.8105 348.71564Q281.3886 348.71564 281.79486 348.41876Q282.21674 348.10626 282.4511 347.45ZM278.998 345.7469L282.46674 345.7469Q282.40424 344.95 282.0761 344.5594Q281.5605 343.95 280.7636 343.95Q280.02924 343.95 279.52924 344.4344Q279.04486 344.91876 278.998 345.7469ZM285.2011 349.45L285.2011 343.23126L286.1386 343.23126L286.1386 344.10626Q286.8261 343.09064 288.123 343.09064Q288.6855 343.09064 289.15424 343.29376Q289.6386 343.4969 289.873 343.825Q290.10736 344.15314 290.2011 344.59064Q290.248 344.8875 290.248 345.6219L290.248 349.45L289.2011 349.45L289.2011 345.66876Q289.2011 345.0125 289.0761 344.7Q288.9511 344.3875 288.6386 344.2Q288.3261 343.9969 287.90424 343.9969Q287.23236 343.9969 286.73236 344.4344Q286.248 344.85626 286.248 346.04376L286.248 349.45L285.2011 349.45ZM294.498 348.5125L294.65424 349.4344Q294.2011 349.52814 293.85736 349.52814Q293.27924 349.52814 292.96674 349.35626Q292.65424 349.16876 292.5136 348.8719Q292.3886 348.575 292.3886 347.6219L292.3886 344.04376L291.623 344.04376L291.623 343.23126L292.3886 343.23126L292.3886 341.6844L293.4355 341.0594L293.4355 343.23126L294.498 343.23126L294.498 344.04376L293.4355 344.04376L293.4355 347.6844Q293.4355 348.1375 293.48236 348.2625Q293.54486 348.3875 293.66986 348.46564Q293.79486 348.54376 294.02924 348.54376Q294.21674 348.54376 294.498 348.5125Z" fill-rule="nonzero"/><path fill="#000000" d="M411.5176 349.45L411.5176 340.85626L412.67386 340.85626L417.18948 347.60626L417.18948 340.85626L418.28323 340.85626L418.28323 349.45L417.11136 349.45L412.59573 342.7L412.59573 349.45L411.5176 349.45ZM420.48636 349.45L420.48636 340.85626L422.2051 340.85626L424.23636 346.9344Q424.5176 347.79376 424.6426 348.21564Q424.78323 347.7469 425.09573 346.84064L427.15823 340.85626L428.68948 340.85626L428.68948 349.45L427.59573 349.45L427.59573 342.2625L425.09573 349.45L424.06448 349.45L421.5801 342.1375L421.5801 349.45L420.48636 349.45ZM429.1426 346.6844L430.2051 346.59064Q430.28323 347.2469 430.56448 347.65314Q430.84573 348.0594 431.42386 348.325Q432.0176 348.575 432.75198 348.575Q433.3926 348.575 433.8926 348.3875Q434.3926 348.1844 434.62698 347.85626Q434.87698 347.5125 434.87698 347.1219Q434.87698 346.71564 434.6426 346.41876Q434.40823 346.10626 433.87698 345.90314Q433.5176 345.7625 432.3301 345.48126Q431.15823 345.2 430.68948 344.95Q430.06448 344.6219 429.7676 344.15314Q429.47073 343.66876 429.47073 343.075Q429.47073 342.4344 429.8301 341.8719Q430.2051 341.29376 430.90823 341.0125Q431.62698 340.71564 432.48636 340.71564Q433.43948 340.71564 434.17386 341.02814Q434.90823 341.325 435.29886 341.9344Q435.68948 342.52814 435.72073 343.27814L434.62698 343.35626Q434.53323 342.54376 434.0176 342.1375Q433.5176 341.71564 432.53323 341.71564Q431.50198 341.71564 431.03323 342.09064Q430.56448 342.46564 430.56448 342.9969Q430.56448 343.46564 430.8926 343.7625Q431.22073 344.0594 432.59573 344.3719Q433.98636 344.6844 434.50198 344.91876Q435.25198 345.27814 435.61136 345.8094Q435.97073 346.325 435.97073 347.02814Q435.97073 347.71564 435.5801 348.325Q435.18948 348.91876 434.4551 349.2625Q433.72073 349.59064 432.79886 349.59064Q431.62698 349.59064 430.8301 349.2625Q430.04886 348.91876 429.59573 348.23126Q429.15823 347.54376 429.1426 346.6844ZM437.68948 349.45L437.68948 348.2469L438.8926 348.2469L438.8926 349.45L437.68948 349.45ZM439.5801 349.45L442.87698 340.85626L444.09573 340.85626L447.61136 349.45L446.3301 349.45L445.31448 346.84064L441.73636 346.84064L440.78323 349.45L439.5801 349.45ZM442.06448 345.91876L444.97073 345.91876L444.0801 343.54376Q443.65823 342.46564 443.47073 341.7625Q443.29886 342.59064 443.00198 343.40314L442.06448 345.91876ZM447.48636 349.45L447.48636 340.85626L449.2051 340.85626L451.23636 346.9344Q451.5176 347.79376 451.6426 348.21564Q451.78323 347.7469 452.09573 346.84064L454.15823 340.85626L455.68948 340.85626L455.68948 349.45L454.59573 349.45L454.59573 342.2625L452.09573 349.45L451.06448 349.45L448.5801 342.1375L448.5801 349.45L447.48636 349.45ZM463.03323 348.52814Q463.8301 349.075 464.48636 349.325L464.15823 350.1219Q463.23636 349.77814 462.31448 349.0594Q461.36136 349.59064 460.2051 349.59064Q459.03323 349.59064 458.0801 349.02814Q457.1426 348.46564 456.62698 347.45Q456.11136 346.4344 456.11136 345.15314Q456.11136 343.8875 456.62698 342.84064Q457.1426 341.79376 458.09573 341.2469Q459.04886 340.7 460.22073 340.7Q461.40823 340.7 462.36136 341.27814Q463.3301 341.84064 463.8301 342.85626Q464.3301 343.8719 464.3301 345.15314Q464.3301 346.21564 464.00198 347.0594Q463.68948 347.90314 463.03323 348.52814ZM460.53323 347.075Q461.5176 347.35626 462.15823 347.90314Q463.15823 346.98126 463.15823 345.15314Q463.15823 344.10626 462.79886 343.325Q462.43948 342.54376 461.75198 342.1219Q461.0801 341.6844 460.23636 341.6844Q458.9551 341.6844 458.11136 342.5594Q457.28323 343.41876 457.28323 345.15314Q457.28323 346.825 458.11136 347.73126Q458.93948 348.6219 460.23636 348.6219Q460.84573 348.6219 461.37698 348.3875Q460.84573 348.04376 460.25198 347.90314L460.53323 347.075ZM465.5176 349.45L465.5176 340.85626L468.7676 340.85626Q469.61136 340.85626 470.06448 340.9344Q470.7051 341.04376 471.12698 341.34064Q471.56448 341.6375 471.81448 342.16876Q472.0801 342.7 472.0801 343.34064Q472.0801 344.4344 471.37698 345.2Q470.68948 345.95 468.86136 345.95L466.65823 345.95L466.65823 349.45L465.5176 349.45ZM466.65823 344.95L468.87698 344.95Q469.98636 344.95 470.43948 344.54376Q470.90823 344.1219 470.90823 343.3719Q470.90823 342.84064 470.62698 342.46564Q470.36136 342.075 469.92386 341.95Q469.62698 341.8719 468.86136 341.8719L466.65823 341.8719L466.65823 344.95Z" fill-rule="nonzero"/><path fill="#757575" d="M22.01875 37.55L22.01875 23.2375L23.909374 23.2375L23.909374 35.8625L30.95625 35.8625L30.95625 37.55L22.01875 37.55ZM39.64375 36.26875Q38.659374 37.096874 37.753124 37.440624Q36.846874 37.784374 35.815624 37.784374Q34.1125 37.784374 33.190624 36.95625Q32.26875 36.1125 32.26875 34.815624Q32.26875 34.05 32.6125 33.425Q32.971874 32.8 33.534374 32.425Q34.096874 32.034374 34.8 31.83125Q35.315624 31.70625 36.3625 31.565624Q38.4875 31.315624 39.4875 30.971874Q39.503124 30.6125 39.503124 30.503124Q39.503124 29.440624 39.003124 28.9875Q38.33125 28.39375 37.003124 28.39375Q35.753124 28.39375 35.159374 28.83125Q34.58125 29.26875 34.3 30.378124L32.58125 30.14375Q32.815624 29.034374 33.346874 28.3625Q33.878124 27.675 34.89375 27.315624Q35.909374 26.940624 37.253124 26.940624Q38.58125 26.940624 39.409374 27.253124Q40.2375 27.565624 40.628124 28.05Q41.01875 28.51875 41.175 29.2375Q41.26875 29.690624 41.26875 30.8625L41.26875 33.20625Q41.26875 35.659374 41.378124 36.315624Q41.4875 36.95625 41.83125 37.55L39.9875 37.55Q39.721874 37.003124 39.64375 36.26875ZM39.4875 32.346874Q38.534374 32.7375 36.6125 33.003124Q35.534374 33.159374 35.08125 33.3625Q34.64375 33.55 34.39375 33.925Q34.14375 34.3 34.14375 34.76875Q34.14375 35.471874 34.675 35.940624Q35.20625 36.409374 36.2375 36.409374Q37.253124 36.409374 38.034374 35.971874Q38.83125 35.51875 39.20625 34.753124Q39.4875 34.14375 39.4875 32.9875L39.4875 32.346874ZM47.70625 35.971874L47.95625 37.534374Q47.221874 37.690624 46.628124 37.690624Q45.675 37.690624 45.14375 37.39375Q44.628124 37.08125 44.409374 36.596874Q44.190624 36.096874 44.190624 34.51875L44.190624 28.55L42.909374 28.55L42.909374 27.175L44.190624 27.175L44.190624 24.6125L45.940624 23.55L45.940624 27.175L47.70625 27.175L47.70625 28.55L45.940624 28.55L45.940624 34.6125Q45.940624 35.3625 46.034374 35.58125Q46.128124 35.784374 46.33125 35.925Q46.55 36.05 46.940624 36.05Q47.221874 36.05 47.70625 35.971874ZM56.971874 34.20625L58.784374 34.440624Q58.3625 36.01875 57.190624 36.909374Q56.034374 37.784374 54.221874 37.784374Q51.95625 37.784374 50.6125 36.39375Q49.284374 34.9875 49.284374 32.45625Q49.284374 29.83125 50.628124 28.39375Q51.971874 26.940624 54.128124 26.940624Q56.20625 26.940624 57.51875 28.3625Q58.846874 29.76875 58.846874 32.346874Q58.846874 32.503124 58.83125 32.815624L51.096874 32.815624Q51.190624 34.51875 52.065624 35.425Q52.940624 36.33125 54.2375 36.33125Q55.20625 36.33125 55.878124 35.83125Q56.565624 35.315624 56.971874 34.20625ZM51.190624 31.3625L56.9875 31.3625Q56.878124 30.065624 56.33125 29.409374Q55.4875 28.39375 54.14375 28.39375Q52.940624 28.39375 52.1125 29.20625Q51.284374 30.003124 51.190624 31.3625ZM60.8625 37.55L60.8625 27.175L62.45625 27.175L62.45625 28.659374Q63.596874 26.940624 65.75313 26.940624Q66.69063 26.940624 67.47188 27.284374Q68.26875 27.6125 68.65938 28.159374Q69.05 28.70625 69.20625 29.45625Q69.3 29.95625 69.3 31.175L69.3 37.55L67.53438 37.55L67.53438 31.2375Q67.53438 30.159374 67.33125 29.628124Q67.12813 29.096874 66.59688 28.784374Q66.08125 28.471874 65.37813 28.471874Q64.25313 28.471874 63.440624 29.190624Q62.628124 29.89375 62.628124 31.878124L62.628124 37.55L60.8625 37.55ZM77.64375 33.753124L79.3625 33.971874Q79.08125 35.76875 77.90938 36.784374Q76.75313 37.784374 75.05 37.784374Q72.925 37.784374 71.62813 36.39375Q70.33125 35.003124 70.33125 32.409374Q70.33125 30.721874 70.87813 29.471874Q71.44063 28.20625 72.58125 27.58125Q73.72188 26.940624 75.06563 26.940624Q76.75313 26.940624 77.81563 27.8Q78.89375 28.659374 79.20625 30.221874L77.4875 30.4875Q77.25313 29.440624 76.62813 28.925Q76.00313 28.39375 75.12813 28.39375Q73.8 28.39375 72.97188 29.346874Q72.14375 30.3 72.14375 32.346874Q72.14375 34.440624 72.94063 35.39375Q73.7375 36.33125 75.03438 36.33125Q76.06563 36.33125 76.75313 35.70625Q77.45625 35.065624 77.64375 33.753124ZM80.78438 41.55L80.59688 39.89375Q81.175 40.05 81.59688 40.05Q82.19063 40.05 82.53438 39.846874Q82.89375 39.659374 83.1125 39.315624Q83.28438 39.05 83.65938 38.003124Q83.70625 37.846874 83.81563 37.565624L79.87813 27.175L81.76875 27.175L83.925 33.190624Q84.34688 34.33125 84.675 35.58125Q84.9875 34.378124 85.39375 33.221874L87.6125 27.175L89.37813 27.175L85.425 37.721874Q84.8 39.440624 84.44063 40.08125Q83.97188 40.95625 83.3625 41.346874Q82.76875 41.753124 81.925 41.753124Q81.40938 41.753124 80.78438 41.55ZM100.22188 41.753124Q98.76875 39.925 97.76875 37.471874Q96.76875 35.003124 96.76875 32.3625Q96.76875 30.034374 97.51875 27.909374Q98.39375 25.440624 100.22188 22.9875L101.4875 22.9875Q100.3 25.01875 99.925 25.89375Q99.33125 27.2375 98.9875 28.70625Q98.56563 30.534374 98.56563 32.378124Q98.56563 37.065624 101.4875 41.753124L100.22188 41.753124ZM103.83125 37.55L103.83125 23.2375L105.58125 23.2375L105.58125 37.55L103.83125 37.55ZM114.97188 34.20625L116.78438 34.440624Q116.3625 36.01875 115.19063 36.909374Q114.03438 37.784374 112.22188 37.784374Q109.95625 37.784374 108.6125 36.39375Q107.28438 34.9875 107.28438 32.45625Q107.28438 29.83125 108.62813 28.39375Q109.97188 26.940624 112.12813 26.940624Q114.20625 26.940624 115.51875 28.3625Q116.84688 29.76875 116.84688 32.346874Q116.84688 32.503124 116.83125 32.815624L109.09688 32.815624Q109.19063 34.51875 110.06563 35.425Q110.94063 36.33125 112.2375 36.33125Q113.20625 36.33125 113.87813 35.83125Q114.56563 35.315624 114.97188 34.20625ZM109.19063 31.3625L114.9875 31.3625Q114.87813 30.065624 114.33125 29.409374Q113.4875 28.39375 112.14375 28.39375Q110.94063 28.39375 110.1125 29.20625Q109.28438 30.003124 109.19063 31.3625ZM118.15938 34.45625L119.90938 34.175Q120.05 35.221874 120.72188 35.784374Q121.39375 36.33125 122.59688 36.33125Q123.8 36.33125 124.37813 35.846874Q124.97188 35.346874 124.97188 34.690624Q124.97188 34.096874 124.45625 33.753124Q124.09688 33.51875 122.65938 33.159374Q120.72188 32.659374 119.97188 32.315624Q119.2375 31.95625 118.84688 31.33125Q118.45625 30.690624 118.45625 29.925Q118.45625 29.2375 118.76875 28.64375Q119.09688 28.05 119.64375 27.659374Q120.05 27.3625 120.75313 27.159374Q121.47188 26.940624 122.28438 26.940624Q123.50313 26.940624 124.425 27.3Q125.34688 27.64375 125.78438 28.253124Q126.22188 28.846874 126.39375 29.846874L124.675 30.08125Q124.55 29.284374 123.9875 28.846874Q123.425 28.39375 122.40938 28.39375Q121.19063 28.39375 120.675 28.8Q120.15938 29.190624 120.15938 29.721874Q120.15938 30.065624 120.37813 30.346874Q120.58125 30.628124 121.05 30.815624Q121.31563 30.909374 122.59688 31.253124Q124.47188 31.753124 125.20625 32.08125Q125.94063 32.39375 126.3625 33.003124Q126.78438 33.596874 126.78438 34.503124Q126.78438 35.378124 126.26875 36.159374Q125.75313 36.940624 124.78438 37.3625Q123.81563 37.784374 122.59688 37.784374Q120.58125 37.784374 119.51875 36.940624Q118.45625 36.096874 118.15938 34.45625ZM128.15938 34.45625L129.90938 34.175Q130.05 35.221874 130.72188 35.784374Q131.39375 36.33125 132.59688 36.33125Q133.8 36.33125 134.37813 35.846874Q134.97188 35.346874 134.97188 34.690624Q134.97188 34.096874 134.45625 33.753124Q134.09688 33.51875 132.65938 33.159374Q130.72188 32.659374 129.97188 32.315624Q129.2375 31.95625 128.84688 31.33125Q128.45625 30.690624 128.45625 29.925Q128.45625 29.2375 128.76875 28.64375Q129.09688 28.05 129.64375 27.659374Q130.05 27.3625 130.75313 27.159374Q131.47188 26.940624 132.28438 26.940624Q133.50313 26.940624 134.425 27.3Q135.34688 27.64375 135.78438 28.253124Q136.22188 28.846874 136.39375 29.846874L134.675 30.08125Q134.55 29.284374 133.9875 28.846874Q133.425 28.39375 132.40938 28.39375Q131.19063 28.39375 130.675 28.8Q130.15938 29.190624 130.15938 29.721874Q130.15938 30.065624 130.37813 30.346874Q130.58125 30.628124 131.05 30.815624Q131.31563 30.909374 132.59688 31.253124Q134.47188 31.753124 135.20625 32.08125Q135.94063 32.39375 136.3625 33.003124Q136.78438 33.596874 136.78438 34.503124Q136.78438 35.378124 136.26875 36.159374Q135.75313 36.940624 134.78438 37.3625Q133.81563 37.784374 132.59688 37.784374Q130.58125 37.784374 129.51875 36.940624Q128.45625 36.096874 128.15938 34.45625ZM145.97188 34.20625L147.78438 34.440624Q147.3625 36.01875 146.19063 36.909374Q145.03438 37.784374 143.22188 37.784374Q140.95625 37.784374 139.6125 36.39375Q138.28438 34.9875 138.28438 32.45625Q138.28438 29.83125 139.62813 28.39375Q140.97188 26.940624 143.12813 26.940624Q145.20625 26.940624 146.51875 28.3625Q147.84688 29.76875 147.84688 32.346874Q147.84688 32.503124 147.83125 32.815624L140.09688 32.815624Q140.19063 34.51875 141.06563 35.425Q141.94063 36.33125 143.2375 36.33125Q144.20625 36.33125 144.87813 35.83125Q145.56563 35.315624 145.97188 34.20625ZM140.19063 31.3625L145.9875 31.3625Q145.87813 30.065624 145.33125 29.409374Q144.4875 28.39375 143.14375 28.39375Q141.94063 28.39375 141.1125 29.20625Q140.28438 30.003124 140.19063 31.3625ZM149.84688 37.55L149.84688 27.175L151.425 27.175L151.425 28.753124Q152.03438 27.64375 152.55 27.3Q153.06563 26.940624 153.675 26.940624Q154.56563 26.940624 155.4875 27.503124L154.87813 29.14375Q154.2375 28.753124 153.59688 28.753124Q153.01875 28.753124 152.55 29.1125Q152.09688 29.45625 151.89375 30.065624Q151.6125 31.003124 151.6125 32.1125L151.6125 37.55L149.84688 37.55ZM156.19063 33.253124L156.19063 31.4875L161.58125 31.4875L161.58125 33.253124L156.19063 33.253124ZM165.4875 37.55L163.8625 37.55L163.8625 23.2375L165.6125 23.2375L165.6125 28.346874Q166.7375 26.940624 168.45625 26.940624Q169.40938 26.940624 170.26875 27.33125Q171.12813 27.721874 171.675 28.425Q172.22188 29.1125 172.53438 30.096874Q172.84688 31.08125 172.84688 32.20625Q172.84688 34.878124 171.53438 36.33125Q170.22188 37.784374 168.37813 37.784374Q166.53438 37.784374 165.4875 36.253124L165.4875 37.55ZM165.47188 32.284374Q165.47188 34.14375 165.97188 34.9875Q166.81563 36.33125 168.22188 36.33125Q169.37813 36.33125 170.20625 35.33125Q171.05 34.33125 171.05 32.346874Q171.05 30.315624 170.2375 29.3625Q169.44063 28.39375 168.3 28.39375Q167.14375 28.39375 166.3 29.39375Q165.47188 30.39375 165.47188 32.284374ZM181.97188 34.20625L183.78438 34.440624Q183.3625 36.01875 182.19063 36.909374Q181.03438 37.784374 179.22188 37.784374Q176.95625 37.784374 175.6125 36.39375Q174.28438 34.9875 174.28438 32.45625Q174.28438 29.83125 175.62813 28.39375Q176.97188 26.940624 179.12813 26.940624Q181.20625 26.940624 182.51875 28.3625Q183.84688 29.76875 183.84688 32.346874Q183.84688 32.503124 183.83125 32.815624L176.09688 32.815624Q176.19063 34.51875 177.06563 35.425Q177.94063 36.33125 179.2375 36.33125Q180.20625 36.33125 180.87813 35.83125Q181.56563 35.315624 181.97188 34.20625ZM176.19063 31.3625L181.9875 31.3625Q181.87813 30.065624 181.33125 29.409374Q180.4875 28.39375 179.14375 28.39375Q177.94063 28.39375 177.1125 29.20625Q176.28438 30.003124 176.19063 31.3625ZM189.70625 35.971874L189.95625 37.534374Q189.22188 37.690624 188.62813 37.690624Q187.675 37.690624 187.14375 37.39375Q186.62813 37.08125 186.40938 36.596874Q186.19063 36.096874 186.19063 34.51875L186.19063 28.55L184.90938 28.55L184.90938 27.175L186.19063 27.175L186.19063 24.6125L187.94063 23.55L187.94063 27.175L189.70625 27.175L189.70625 28.55L187.94063 28.55L187.94063 34.6125Q187.94063 35.3625 188.03438 35.58125Q188.12813 35.784374 188.33125 35.925Q188.55 36.05 188.94063 36.05Q189.22188 36.05 189.70625 35.971874ZM195.70625 35.971874L195.95625 37.534374Q195.22188 37.690624 194.62813 37.690624Q193.675 37.690624 193.14375 37.39375Q192.62813 37.08125 192.40938 36.596874Q192.19063 36.096874 192.19063 34.51875L192.19063 28.55L190.90938 28.55L190.90938 27.175L192.19063 27.175L192.19063 24.6125L193.94063 23.55L193.94063 27.175L195.70625 27.175L195.70625 28.55L193.94063 28.55L193.94063 34.6125Q193.94063 35.3625 194.03438 35.58125Q194.12813 35.784374 194.33125 35.925Q194.55 36.05 194.94063 36.05Q195.22188 36.05 195.70625 35.971874ZM204.97188 34.20625L206.78438 34.440624Q206.3625 36.01875 205.19063 36.909374Q204.03438 37.784374 202.22188 37.784374Q199.95625 37.784374 198.6125 36.39375Q197.28438 34.9875 197.28438 32.45625Q197.28438 29.83125 198.62813 28.39375Q199.97188 26.940624 202.12813 26.940624Q204.20625 26.940624 205.51875 28.3625Q206.84688 29.76875 206.84688 32.346874Q206.84688 32.503124 206.83125 32.815624L199.09688 32.815624Q199.19063 34.51875 200.06563 35.425Q200.94063 36.33125 202.2375 36.33125Q203.20625 36.33125 203.87813 35.83125Q204.56563 35.315624 204.97188 34.20625ZM199.19063 31.3625L204.9875 31.3625Q204.87813 30.065624 204.33125 29.409374Q203.4875 28.39375 202.14375 28.39375Q200.94063 28.39375 200.1125 29.20625Q199.28438 30.003124 199.19063 31.3625ZM208.84688 37.55L208.84688 27.175L210.425 27.175L210.425 28.753124Q211.03438 27.64375 211.55 27.3Q212.06563 26.940624 212.675 26.940624Q213.56563 26.940624 214.4875 27.503124L213.87813 29.14375Q213.2375 28.753124 212.59688 28.753124Q212.01875 28.753124 211.55 29.1125Q211.09688 29.45625 210.89375 30.065624Q210.6125 31.003124 210.6125 32.1125L210.6125 37.55L208.84688 37.55ZM217.01875 41.753124L215.76875 41.753124Q218.675 37.065624 218.675 32.378124Q218.675 30.534374 218.26875 28.7375Q217.925 27.26875 217.33125 25.925Q216.95625 25.034374 215.76875 22.9875L217.01875 22.9875Q218.8625 25.440624 219.7375 27.909374Q220.4875 30.034374 220.4875 32.3625Q220.4875 35.003124 219.47188 37.471874Q218.47188 39.925 217.01875 41.753124Z" fill-rule="nonzero"/></svg>