<svg version="1.1" viewBox="0.0 0.0 600.0 371.0" fill="none" stroke="none" stroke-linecap="square" stroke-miterlimit="10" width="600" height="371" xmlns:xlink="http://www.w3.org/1999/xlink" xmlns="http://www.w3.org/2000/svg"><path fill="#ffffff" d="M0 0L600.0 0L600.0 371.0L0 371.0L0 0Z" fill-rule="nonzero"/><path stroke="#333333" stroke-width="1.0" stroke-linecap="butt" d="M62.5 332.5L581.5 332.5" fill-rule="nonzero"/><path stroke="#cccccc" stroke-width="1.0" stroke-linecap="butt" d="M62.5 242.5L581.5 242.5" fill-rule="nonzero"/><path stroke="#cccccc" stroke-width="1.0" stroke-linecap="butt" d="M62.5 152.5L581.5 152.5" fill-rule="nonzero"/><path stroke="#cccccc" stroke-width="1.0" stroke-linecap="butt" d="M62.5 61.5L581.5 61.5" fill-rule="nonzero"/><clipPath id="id_0"><path d="M62.55 61.916668L581.45 61.916668L581.45 332.45L62.55 332.45L62.55 61.916668Z" clip-rule="nonzero"/></clipPath><path stroke="#000000" stroke-width="2.0" stroke-linecap="butt" stroke-opacity="0.0" clip-path="url(#id_0)" d="M284.0 332.0L140.0 332.0L140.0 98.0C140.0 96.89543 140.89543 96.0 142.0 96.0L282.0 96.0C283.10458 96.0 284.0 96.89543 284.0 98.0Z" fill-rule="nonzero"/><path fill="#4285f4" clip-path="url(#id_0)" d="M284.0 332.0L140.0 332.0L140.0 98.0C140.0 96.89543 140.89543 96.0 142.0 96.0L282.0 96.0C283.10458 96.0 284.0 96.89543 284.0 98.0Z" fill-rule="nonzero"/><path stroke="#000000" stroke-width="2.0" stroke-linecap="butt" stroke-opacity="0.0" clip-path="url(#id_0)" d="M504.0 332.0L360.0 332.0L360.0 85.0C360.0 83.89543 360.89542 83.0 362.0 83.0L502.0 83.0C503.10458 83.0 504.0 83.89543 504.0 85.0Z" fill-rule="nonzero"/><path fill="#4285f4" clip-path="url(#id_0)" d="M504.0 332.0L360.0 332.0L360.0 85.0C360.0 83.89543 360.89542 83.0 362.0 83.0L502.0 83.0C503.10458 83.0 504.0 83.89543 504.0 85.0Z" fill-rule="nonzero"/><path stroke="#4285f4" stroke-width="3.0" stroke-linejoin="round" stroke-linecap="round" d="M194.20312 108.5641L194.64062 104.3141L199.01562 104.3141L199.01562 105.3141L195.5625 105.3141L195.29688 107.64223Q195.9375 107.26723 196.73438 107.26723Q197.89062 107.26723 198.57812 108.04848Q199.26562 108.8141 199.26562 110.1266Q199.26562 111.4391 198.54688 112.20473Q197.84375 112.97035 196.5625 112.97035Q195.4375 112.97035 194.71875 112.34535Q194.0 111.70473 193.90625 110.59535L194.92188 110.59535Q195.03125 111.32973 195.45312 111.70473Q195.875 112.07973 196.5625 112.07973Q197.3125 112.07973 197.75 111.5641Q198.1875 111.04848 198.1875 110.14223Q198.1875 109.28285 197.71875 108.76723Q197.25 108.2516 196.46875 108.2516Q195.76562 108.2516 195.35938 108.54848L195.07812 108.78285L194.20312 108.5641ZM206.29688 112.84535L200.70312 112.84535L200.70312 112.0641L203.65625 108.78285Q204.3125 108.03285 204.5625 107.57973Q204.8125 107.11098 204.8125 106.61098Q204.8125 105.9391 204.40625 105.51723Q204.01562 105.07973 203.32812 105.07973Q202.53125 105.07973 202.07812 105.54848Q201.625 106.0016 201.625 106.82973L200.54688 106.82973Q200.54688 105.64223 201.29688 104.92348Q202.0625 104.1891 203.32812 104.1891Q204.53125 104.1891 205.21875 104.8141Q205.90625 105.4391 205.90625 106.48598Q205.90625 107.73598 204.29688 109.48598L202.01562 111.95473L206.29688 111.95473L206.29688 112.84535ZM212.28125 109.98598L213.46875 109.98598L213.46875 110.86098L212.28125 110.86098L212.28125 112.84535L211.20312 112.84535L211.20312 110.86098L207.3125 110.86098L207.3125 110.22035L211.125 104.3141L212.28125 104.3141L212.28125 109.98598ZM208.54688 109.98598L211.20312 109.98598L211.20312 105.79848L211.0625 106.03285L208.54688 109.98598ZM214.84375 112.28285Q214.84375 112.0016 215.0 111.8141Q215.17188 111.6266 215.5 111.6266Q215.84375 111.6266 216.01562 111.8141Q216.1875 112.0016 216.1875 112.28285Q216.1875 112.54848 216.01562 112.73598Q215.84375 112.90785 215.5 112.90785Q215.17188 112.90785 215.0 112.73598Q214.84375 112.54848 214.84375 112.28285ZM219.28125 108.04848L220.09375 108.04848Q220.875 108.03285 221.3125 107.64223Q221.75 107.2516 221.75 106.57973Q221.75 105.07973 220.25 105.07973Q219.54688 105.07973 219.125 105.48598Q218.71875 105.89223 218.71875 106.54848L217.625 106.54848Q217.625 105.53285 218.35938 104.86098Q219.10938 104.1891 220.25 104.1891Q221.45312 104.1891 222.14062 104.82973Q222.82812 105.47035 222.82812 106.61098Q222.82812 107.17348 222.46875 107.6891Q222.10938 108.20473 221.48438 108.47035Q222.1875 108.6891 222.5625 109.20473Q222.95312 109.72035 222.95312 110.47035Q222.95312 111.61098 222.20312 112.29848Q221.45312 112.97035 220.25 112.97035Q219.0625 112.97035 218.29688 112.3141Q217.54688 111.65785 217.54688 110.59535L218.64062 110.59535Q218.64062 111.26723 219.07812 111.67348Q219.51562 112.07973 220.26562 112.07973Q221.04688 112.07973 221.45312 111.67348Q221.875 111.2516 221.875 110.48598Q221.875 109.7516 221.42188 109.36098Q220.96875 108.95473 220.09375 108.9391L219.28125 108.9391L219.28125 108.04848ZM228.26562 112.84535L227.1875 112.84535L227.1875 105.6266L225.0 106.42348L225.0 105.4391L228.10938 104.26723L228.26562 104.26723L228.26562 112.84535Z" fill-rule="nonzero"/><path fill="#ffffff" d="M194.20312 108.5641L194.64062 104.3141L199.01562 104.3141L199.01562 105.3141L195.5625 105.3141L195.29688 107.64223Q195.9375 107.26723 196.73438 107.26723Q197.89062 107.26723 198.57812 108.04848Q199.26562 108.8141 199.26562 110.1266Q199.26562 111.4391 198.54688 112.20473Q197.84375 112.97035 196.5625 112.97035Q195.4375 112.97035 194.71875 112.34535Q194.0 111.70473 193.90625 110.59535L194.92188 110.59535Q195.03125 111.32973 195.45312 111.70473Q195.875 112.07973 196.5625 112.07973Q197.3125 112.07973 197.75 111.5641Q198.1875 111.04848 198.1875 110.14223Q198.1875 109.28285 197.71875 108.76723Q197.25 108.2516 196.46875 108.2516Q195.76562 108.2516 195.35938 108.54848L195.07812 108.78285L194.20312 108.5641ZM206.29688 112.84535L200.70312 112.84535L200.70312 112.0641L203.65625 108.78285Q204.3125 108.03285 204.5625 107.57973Q204.8125 107.11098 204.8125 106.61098Q204.8125 105.9391 204.40625 105.51723Q204.01562 105.07973 203.32812 105.07973Q202.53125 105.07973 202.07812 105.54848Q201.625 106.0016 201.625 106.82973L200.54688 106.82973Q200.54688 105.64223 201.29688 104.92348Q202.0625 104.1891 203.32812 104.1891Q204.53125 104.1891 205.21875 104.8141Q205.90625 105.4391 205.90625 106.48598Q205.90625 107.73598 204.29688 109.48598L202.01562 111.95473L206.29688 111.95473L206.29688 112.84535ZM212.28125 109.98598L213.46875 109.98598L213.46875 110.86098L212.28125 110.86098L212.28125 112.84535L211.20312 112.84535L211.20312 110.86098L207.3125 110.86098L207.3125 110.22035L211.125 104.3141L212.28125 104.3141L212.28125 109.98598ZM208.54688 109.98598L211.20312 109.98598L211.20312 105.79848L211.0625 106.03285L208.54688 109.98598ZM214.84375 112.28285Q214.84375 112.0016 215.0 111.8141Q215.17188 111.6266 215.5 111.6266Q215.84375 111.6266 216.01562 111.8141Q216.1875 112.0016 216.1875 112.28285Q216.1875 112.54848 216.01562 112.73598Q215.84375 112.90785 215.5 112.90785Q215.17188 112.90785 215.0 112.73598Q214.84375 112.54848 214.84375 112.28285ZM219.28125 108.04848L220.09375 108.04848Q220.875 108.03285 221.3125 107.64223Q221.75 107.2516 221.75 106.57973Q221.75 105.07973 220.25 105.07973Q219.54688 105.07973 219.125 105.48598Q218.71875 105.89223 218.71875 106.54848L217.625 106.54848Q217.625 105.53285 218.35938 104.86098Q219.10938 104.1891 220.25 104.1891Q221.45312 104.1891 222.14062 104.82973Q222.82812 105.47035 222.82812 106.61098Q222.82812 107.17348 222.46875 107.6891Q222.10938 108.20473 221.48438 108.47035Q222.1875 108.6891 222.5625 109.20473Q222.95312 109.72035 222.95312 110.47035Q222.95312 111.61098 222.20312 112.29848Q221.45312 112.97035 220.25 112.97035Q219.0625 112.97035 218.29688 112.3141Q217.54688 111.65785 217.54688 110.59535L218.64062 110.59535Q218.64062 111.26723 219.07812 111.67348Q219.51562 112.07973 220.26562 112.07973Q221.04688 112.07973 221.45312 111.67348Q221.875 111.2516 221.875 110.48598Q221.875 109.7516 221.42188 109.36098Q220.96875 108.95473 220.09375 108.9391L219.28125 108.9391L219.28125 108.04848ZM228.26562 112.84535L227.1875 112.84535L227.1875 105.6266L225.0 106.42348L225.0 105.4391L228.10938 104.26723L228.26562 104.26723L228.26562 112.84535Z" fill-rule="nonzero"/><path stroke="#4285f4" stroke-width="3.0" stroke-linejoin="round" stroke-linecap="round" d="M414.20312 95.85895L414.64062 91.60895L419.01562 91.60895L419.01562 92.60895L415.5625 92.60895L415.29688 94.93707Q415.9375 94.56207 416.73438 94.56207Q417.89062 94.56207 418.57812 95.34332Q419.26562 96.10895 419.26562 97.42145Q419.26562 98.73395 418.54688 99.49957Q417.84375 100.2652 416.5625 100.2652Q415.4375 100.2652 414.71875 99.6402Q414.0 98.99957 413.90625 97.8902L414.92188 97.8902Q415.03125 98.62457 415.45312 98.99957Q415.875 99.37457 416.5625 99.37457Q417.3125 99.37457 417.75 98.85895Q418.1875 98.34332 418.1875 97.43707Q418.1875 96.5777 417.71875 96.06207Q417.25 95.54645 416.46875 95.54645Q415.76562 95.54645 415.35938 95.84332L415.07812 96.0777L414.20312 95.85895ZM421.20312 95.85895L421.64062 91.60895L426.01562 91.60895L426.01562 92.60895L422.5625 92.60895L422.29688 94.93707Q422.9375 94.56207 423.73438 94.56207Q424.89062 94.56207 425.57812 95.34332Q426.26562 96.10895 426.26562 97.42145Q426.26562 98.73395 425.54688 99.49957Q424.84375 100.2652 423.5625 100.2652Q422.4375 100.2652 421.71875 99.6402Q421.0 98.99957 420.90625 97.8902L421.92188 97.8902Q422.03125 98.62457 422.45312 98.99957Q422.875 99.37457 423.5625 99.37457Q424.3125 99.37457 424.75 98.85895Q425.1875 98.34332 425.1875 97.43707Q425.1875 96.5777 424.71875 96.06207Q424.25 95.54645 423.46875 95.54645Q422.76562 95.54645 422.35938 95.84332L422.07812 96.0777L421.20312 95.85895ZM433.29688 100.1402L427.70312 100.1402L427.70312 99.35895L430.65625 96.0777Q431.3125 95.3277 431.5625 94.87457Q431.8125 94.40582 431.8125 93.90582Q431.8125 93.23395 431.40625 92.81207Q431.01562 92.37457 430.32812 92.37457Q429.53125 92.37457 429.07812 92.84332Q428.625 93.29645 428.625 94.12457L427.54688 94.12457Q427.54688 92.93707 428.29688 92.21832Q429.0625 91.48395 430.32812 91.48395Q431.53125 91.48395 432.21875 92.10895Q432.90625 92.73395 432.90625 93.78082Q432.90625 95.03082 431.29688 96.78082L429.01562 99.24957L433.29688 99.24957L433.29688 100.1402ZM434.84375 99.5777Q434.84375 99.29645 435.0 99.10895Q435.17188 98.92145 435.5 98.92145Q435.84375 98.92145 436.01562 99.10895Q436.1875 99.29645 436.1875 99.5777Q436.1875 99.84332 436.01562 100.03082Q435.84375 100.2027 435.5 100.2027Q435.17188 100.2027 435.0 100.03082Q434.84375 99.84332 434.84375 99.5777ZM442.28125 97.28082L443.46875 97.28082L443.46875 98.15582L442.28125 98.15582L442.28125 100.1402L441.20312 100.1402L441.20312 98.15582L437.3125 98.15582L437.3125 97.5152L441.125 91.60895L442.28125 91.60895L442.28125 97.28082ZM438.54688 97.28082L441.20312 97.28082L441.20312 93.09332L441.0625 93.3277L438.54688 97.28082ZM448.85938 96.3902Q448.53125 96.79645 448.04688 97.04645Q447.57812 97.28082 447.01562 97.28082Q446.28125 97.28082 445.73438 96.92145Q445.1875 96.56207 444.89062 95.90582Q444.59375 95.23395 444.59375 94.43707Q444.59375 93.59332 444.90625 92.90582Q445.23438 92.21832 445.82812 91.85895Q446.4375 91.48395 447.23438 91.48395Q448.5 91.48395 449.21875 92.43707Q449.95312 93.3902 449.95312 95.0152L449.95312 95.3277Q449.95312 97.8277 448.96875 98.96832Q447.98438 100.10895 446.0 100.1402L445.78125 100.1402L445.78125 99.23395L446.01562 99.23395Q447.35938 99.2027 448.07812 98.53082Q448.79688 97.85895 448.85938 96.3902ZM447.1875 96.3902Q447.73438 96.3902 448.1875 96.06207Q448.65625 95.71832 448.875 95.23395L448.875 94.79645Q448.875 93.73395 448.40625 93.06207Q447.9375 92.3902 447.23438 92.3902Q446.51562 92.3902 446.07812 92.93707Q445.65625 93.48395 445.65625 94.3902Q445.65625 95.2652 446.0625 95.8277Q446.48438 96.3902 447.1875 96.3902Z" fill-rule="nonzero"/><path fill="#ffffff" d="M414.20312 95.85895L414.64062 91.60895L419.01562 91.60895L419.01562 92.60895L415.5625 92.60895L415.29688 94.93707Q415.9375 94.56207 416.73438 94.56207Q417.89062 94.56207 418.57812 95.34332Q419.26562 96.10895 419.26562 97.42145Q419.26562 98.73395 418.54688 99.49957Q417.84375 100.2652 416.5625 100.2652Q415.4375 100.2652 414.71875 99.6402Q414.0 98.99957 413.90625 97.8902L414.92188 97.8902Q415.03125 98.62457 415.45312 98.99957Q415.875 99.37457 416.5625 99.37457Q417.3125 99.37457 417.75 98.85895Q418.1875 98.34332 418.1875 97.43707Q418.1875 96.5777 417.71875 96.06207Q417.25 95.54645 416.46875 95.54645Q415.76562 95.54645 415.35938 95.84332L415.07812 96.0777L414.20312 95.85895ZM421.20312 95.85895L421.64062 91.60895L426.01562 91.60895L426.01562 92.60895L422.5625 92.60895L422.29688 94.93707Q422.9375 94.56207 423.73438 94.56207Q424.89062 94.56207 425.57812 95.34332Q426.26562 96.10895 426.26562 97.42145Q426.26562 98.73395 425.54688 99.49957Q424.84375 100.2652 423.5625 100.2652Q422.4375 100.2652 421.71875 99.6402Q421.0 98.99957 420.90625 97.8902L421.92188 97.8902Q422.03125 98.62457 422.45312 98.99957Q422.875 99.37457 423.5625 99.37457Q424.3125 99.37457 424.75 98.85895Q425.1875 98.34332 425.1875 97.43707Q425.1875 96.5777 424.71875 96.06207Q424.25 95.54645 423.46875 95.54645Q422.76562 95.54645 422.35938 95.84332L422.07812 96.0777L421.20312 95.85895ZM433.29688 100.1402L427.70312 100.1402L427.70312 99.35895L430.65625 96.0777Q431.3125 95.3277 431.5625 94.87457Q431.8125 94.40582 431.8125 93.90582Q431.8125 93.23395 431.40625 92.81207Q431.01562 92.37457 430.32812 92.37457Q429.53125 92.37457 429.07812 92.84332Q428.625 93.29645 428.625 94.12457L427.54688 94.12457Q427.54688 92.93707 428.29688 92.21832Q429.0625 91.48395 430.32812 91.48395Q431.53125 91.48395 432.21875 92.10895Q432.90625 92.73395 432.90625 93.78082Q432.90625 95.03082 431.29688 96.78082L429.01562 99.24957L433.29688 99.24957L433.29688 100.1402ZM434.84375 99.5777Q434.84375 99.29645 435.0 99.10895Q435.17188 98.92145 435.5 98.92145Q435.84375 98.92145 436.01562 99.10895Q436.1875 99.29645 436.1875 99.5777Q436.1875 99.84332 436.01562 100.03082Q435.84375 100.2027 435.5 100.2027Q435.17188 100.2027 435.0 100.03082Q434.84375 99.84332 434.84375 99.5777ZM442.28125 97.28082L443.46875 97.28082L443.46875 98.15582L442.28125 98.15582L442.28125 100.1402L441.20312 100.1402L441.20312 98.15582L437.3125 98.15582L437.3125 97.5152L441.125 91.60895L442.28125 91.60895L442.28125 97.28082ZM438.54688 97.28082L441.20312 97.28082L441.20312 93.09332L441.0625 93.3277L438.54688 97.28082ZM448.85938 96.3902Q448.53125 96.79645 448.04688 97.04645Q447.57812 97.28082 447.01562 97.28082Q446.28125 97.28082 445.73438 96.92145Q445.1875 96.56207 444.89062 95.90582Q444.59375 95.23395 444.59375 94.43707Q444.59375 93.59332 444.90625 92.90582Q445.23438 92.21832 445.82812 91.85895Q446.4375 91.48395 447.23438 91.48395Q448.5 91.48395 449.21875 92.43707Q449.95312 93.3902 449.95312 95.0152L449.95312 95.3277Q449.95312 97.8277 448.96875 98.96832Q447.98438 100.10895 446.0 100.1402L445.78125 100.1402L445.78125 99.23395L446.01562 99.23395Q447.35938 99.2027 448.07812 98.53082Q448.79688 97.85895 448.85938 96.3902ZM447.1875 96.3902Q447.73438 96.3902 448.1875 96.06207Q448.65625 95.71832 448.875 95.23395L448.875 94.79645Q448.875 93.73395 448.40625 93.06207Q447.9375 92.3902 447.23438 92.3902Q446.51562 92.3902 446.07812 92.93707Q445.65625 93.48395 445.65625 94.3902Q445.65625 95.2652 446.0625 95.8277Q446.48438 96.3902 447.1875 96.3902Z" fill-rule="nonzero"/><path fill="#000000" d="M33.05 332.21564Q33.05 330.6844 33.3625 329.7625Q33.675 328.825 34.284374 328.325Q34.909374 327.825 35.846874 327.825Q36.534374 327.825 37.05 328.10626Q37.58125 328.3875 37.925 328.91876Q38.26875 329.4344 38.45625 330.1844Q38.64375 330.9344 38.64375 332.21564Q38.64375 333.73126 38.33125 334.65314Q38.034374 335.575 37.409374 336.09064Q36.8 336.59064 35.846874 336.59064Q34.6125 336.59064 33.89375 335.7Q33.05 334.6375 33.05 332.21564ZM34.128124 332.21564Q34.128124 334.325 34.628124 335.02814Q35.128124 335.73126 35.846874 335.73126Q36.58125 335.73126 37.065624 335.02814Q37.565624 334.325 37.565624 332.21564Q37.565624 330.09064 37.065624 329.40314Q36.58125 328.7 35.83125 328.7Q35.1125 328.7 34.675 329.3094Q34.128124 330.09064 34.128124 332.21564ZM40.64375 336.45L40.64375 335.2469L41.846874 335.2469L41.846874 336.45L40.64375 336.45ZM43.05 332.21564Q43.05 330.6844 43.3625 329.7625Q43.675 328.825 44.284374 328.325Q44.909374 327.825 45.846874 327.825Q46.534374 327.825 47.05 328.10626Q47.58125 328.3875 47.925 328.91876Q48.26875 329.4344 48.45625 330.1844Q48.64375 330.9344 48.64375 332.21564Q48.64375 333.73126 48.33125 334.65314Q48.034374 335.575 47.409374 336.09064Q46.8 336.59064 45.846874 336.59064Q44.6125 336.59064 43.89375 335.7Q43.05 334.6375 43.05 332.21564ZM44.128124 332.21564Q44.128124 334.325 44.628124 335.02814Q45.128124 335.73126 45.846874 335.73126Q46.58125 335.73126 47.065624 335.02814Q47.565624 334.325 47.565624 332.21564Q47.565624 330.09064 47.065624 329.40314Q46.58125 328.7 45.83125 328.7Q45.1125 328.7 44.675 329.3094Q44.128124 330.09064 44.128124 332.21564ZM50.05 332.21564Q50.05 330.6844 50.3625 329.7625Q50.675 328.825 51.284374 328.325Q51.909374 327.825 52.846874 327.825Q53.534374 327.825 54.05 328.10626Q54.58125 328.3875 54.925 328.91876Q55.26875 329.4344 55.45625 330.1844Q55.64375 330.9344 55.64375 332.21564Q55.64375 333.73126 55.33125 334.65314Q55.034374 335.575 54.409374 336.09064Q53.8 336.59064 52.846874 336.59064Q51.6125 336.59064 50.89375 335.7Q50.05 334.6375 50.05 332.21564ZM51.128124 332.21564Q51.128124 334.325 51.628124 335.02814Q52.128124 335.73126 52.846874 335.73126Q53.58125 335.73126 54.065624 335.02814Q54.565624 334.325 54.565624 332.21564Q54.565624 330.09064 54.065624 329.40314Q53.58125 328.7 52.83125 328.7Q52.1125 328.7 51.675 329.3094Q51.128124 330.09064 51.128124 332.21564Z" fill-rule="nonzero"/><path fill="#000000" d="M24.596874 245.25659L24.596874 246.27222L18.909374 246.27222Q18.909374 245.89722 19.034374 245.53784Q19.253124 244.95972 19.721874 244.39722Q20.20625 243.83472 21.1125 243.10034Q22.51875 241.94409 23.003124 241.27222Q23.503124 240.60034 23.503124 240.00659Q23.503124 239.38159 23.05 238.95972Q22.596874 238.52222 21.878124 238.52222Q21.1125 238.52222 20.659374 238.97534Q20.20625 239.42847 20.190624 240.24097L19.1125 240.13159Q19.221874 238.91284 19.940624 238.28784Q20.675 237.64722 21.909374 237.64722Q23.14375 237.64722 23.8625 238.33472Q24.58125 239.02222 24.58125 240.03784Q24.58125 240.55347 24.3625 241.05347Q24.159374 241.53784 23.659374 242.10034Q23.175 242.64722 22.05 243.60034Q21.096874 244.39722 20.815624 244.69409Q20.55 244.97534 20.378124 245.25659L24.596874 245.25659ZM26.05 242.03784Q26.05 240.50659 26.3625 239.58472Q26.675 238.64722 27.284374 238.14722Q27.909374 237.64722 28.846874 237.64722Q29.534374 237.64722 30.05 237.92847Q30.58125 238.20972 30.925 238.74097Q31.26875 239.25659 31.45625 240.00659Q31.64375 240.75659 31.64375 242.03784Q31.64375 243.55347 31.33125 244.47534Q31.034374 245.39722 30.409374 245.91284Q29.8 246.41284 28.846874 246.41284Q27.6125 246.41284 26.89375 245.52222Q26.05 244.45972 26.05 242.03784ZM27.128124 242.03784Q27.128124 244.14722 27.628124 244.85034Q28.128124 245.55347 28.846874 245.55347Q29.58125 245.55347 30.065624 244.85034Q30.565624 244.14722 30.565624 242.03784Q30.565624 239.91284 30.065624 239.22534Q29.58125 238.52222 28.83125 238.52222Q28.1125 238.52222 27.675 239.13159Q27.128124 239.91284 27.128124 242.03784ZM33.05 242.03784Q33.05 240.50659 33.3625 239.58472Q33.675 238.64722 34.284374 238.14722Q34.909374 237.64722 35.846874 237.64722Q36.534374 237.64722 37.05 237.92847Q37.58125 238.20972 37.925 238.74097Q38.26875 239.25659 38.45625 240.00659Q38.64375 240.75659 38.64375 242.03784Q38.64375 243.55347 38.33125 244.47534Q38.034374 245.39722 37.409374 245.91284Q36.8 246.41284 35.846874 246.41284Q34.6125 246.41284 33.89375 245.52222Q33.05 244.45972 33.05 242.03784ZM34.128124 242.03784Q34.128124 244.14722 34.628124 244.85034Q35.128124 245.55347 35.846874 245.55347Q36.58125 245.55347 37.065624 244.85034Q37.565624 244.14722 37.565624 242.03784Q37.565624 239.91284 37.065624 239.22534Q36.58125 238.52222 35.83125 238.52222Q35.1125 238.52222 34.675 239.13159Q34.128124 239.91284 34.128124 242.03784ZM40.64375 246.27222L40.64375 245.06909L41.846874 245.06909L41.846874 246.27222L40.64375 246.27222ZM43.05 242.03784Q43.05 240.50659 43.3625 239.58472Q43.675 238.64722 44.284374 238.14722Q44.909374 237.64722 45.846874 237.64722Q46.534374 237.64722 47.05 237.92847Q47.58125 238.20972 47.925 238.74097Q48.26875 239.25659 48.45625 240.00659Q48.64375 240.75659 48.64375 242.03784Q48.64375 243.55347 48.33125 244.47534Q48.034374 245.39722 47.409374 245.91284Q46.8 246.41284 45.846874 246.41284Q44.6125 246.41284 43.89375 245.52222Q43.05 244.45972 43.05 242.03784ZM44.128124 242.03784Q44.128124 244.14722 44.628124 244.85034Q45.128124 245.55347 45.846874 245.55347Q46.58125 245.55347 47.065624 244.85034Q47.565624 244.14722 47.565624 242.03784Q47.565624 239.91284 47.065624 239.22534Q46.58125 238.52222 45.83125 238.52222Q45.1125 238.52222 44.675 239.13159Q44.128124 239.91284 44.128124 242.03784ZM50.05 242.03784Q50.05 240.50659 50.3625 239.58472Q50.675 238.64722 51.284374 238.14722Q51.909374 237.64722 52.846874 237.64722Q53.534374 237.64722 54.05 237.92847Q54.58125 238.20972 54.925 238.74097Q55.26875 239.25659 55.45625 240.00659Q55.64375 240.75659 55.64375 242.03784Q55.64375 243.55347 55.33125 244.47534Q55.034374 245.39722 54.409374 245.91284Q53.8 246.41284 52.846874 246.41284Q51.6125 246.41284 50.89375 245.52222Q50.05 244.45972 50.05 242.03784ZM51.128124 242.03784Q51.128124 244.14722 51.628124 244.85034Q52.128124 245.55347 52.846874 245.55347Q53.58125 245.55347 54.065624 244.85034Q54.565624 244.14722 54.565624 242.03784Q54.565624 239.91284 54.065624 239.22534Q53.58125 238.52222 52.83125 238.52222Q52.1125 238.52222 51.675 239.13159Q51.128124 239.91284 51.128124 242.03784Z" fill-rule="nonzero"/><path fill="#000000" d="M22.425 156.09445L22.425 154.03195L18.70625 154.03195L18.70625 153.0632L22.628124 147.5007L23.4875 147.5007L23.4875 153.0632L24.64375 153.0632L24.64375 154.03195L23.4875 154.03195L23.4875 156.09445L22.425 156.09445ZM22.425 153.0632L22.425 149.20383L19.7375 153.0632L22.425 153.0632ZM26.05 151.86008Q26.05 150.32883 26.3625 149.40695Q26.675 148.46945 27.284374 147.96945Q27.909374 147.46945 28.846874 147.46945Q29.534374 147.46945 30.05 147.7507Q30.58125 148.03195 30.925 148.5632Q31.26875 149.07883 31.45625 149.82883Q31.64375 150.57883 31.64375 151.86008Q31.64375 153.3757 31.33125 154.29758Q31.034374 155.21945 30.409374 155.73508Q29.8 156.23508 28.846874 156.23508Q27.6125 156.23508 26.89375 155.34445Q26.05 154.28195 26.05 151.86008ZM27.128124 151.86008Q27.128124 153.96945 27.628124 154.67258Q28.128124 155.3757 28.846874 155.3757Q29.58125 155.3757 30.065624 154.67258Q30.565624 153.96945 30.565624 151.86008Q30.565624 149.73508 30.065624 149.04758Q29.58125 148.34445 28.83125 148.34445Q28.1125 148.34445 27.675 148.95383Q27.128124 149.73508 27.128124 151.86008ZM33.05 151.86008Q33.05 150.32883 33.3625 149.40695Q33.675 148.46945 34.284374 147.96945Q34.909374 147.46945 35.846874 147.46945Q36.534374 147.46945 37.05 147.7507Q37.58125 148.03195 37.925 148.5632Q38.26875 149.07883 38.45625 149.82883Q38.64375 150.57883 38.64375 151.86008Q38.64375 153.3757 38.33125 154.29758Q38.034374 155.21945 37.409374 155.73508Q36.8 156.23508 35.846874 156.23508Q34.6125 156.23508 33.89375 155.34445Q33.05 154.28195 33.05 151.86008ZM34.128124 151.86008Q34.128124 153.96945 34.628124 154.67258Q35.128124 155.3757 35.846874 155.3757Q36.58125 155.3757 37.065624 154.67258Q37.565624 153.96945 37.565624 151.86008Q37.565624 149.73508 37.065624 149.04758Q36.58125 148.34445 35.83125 148.34445Q35.1125 148.34445 34.675 148.95383Q34.128124 149.73508 34.128124 151.86008ZM40.64375 156.09445L40.64375 154.89133L41.846874 154.89133L41.846874 156.09445L40.64375 156.09445ZM43.05 151.86008Q43.05 150.32883 43.3625 149.40695Q43.675 148.46945 44.284374 147.96945Q44.909374 147.46945 45.846874 147.46945Q46.534374 147.46945 47.05 147.7507Q47.58125 148.03195 47.925 148.5632Q48.26875 149.07883 48.45625 149.82883Q48.64375 150.57883 48.64375 151.86008Q48.64375 153.3757 48.33125 154.29758Q48.034374 155.21945 47.409374 155.73508Q46.8 156.23508 45.846874 156.23508Q44.6125 156.23508 43.89375 155.34445Q43.05 154.28195 43.05 151.86008ZM44.128124 151.86008Q44.128124 153.96945 44.628124 154.67258Q45.128124 155.3757 45.846874 155.3757Q46.58125 155.3757 47.065624 154.67258Q47.565624 153.96945 47.565624 151.86008Q47.565624 149.73508 47.065624 149.04758Q46.58125 148.34445 45.83125 148.34445Q45.1125 148.34445 44.675 148.95383Q44.128124 149.73508 44.128124 151.86008ZM50.05 151.86008Q50.05 150.32883 50.3625 149.40695Q50.675 148.46945 51.284374 147.96945Q51.909374 147.46945 52.846874 147.46945Q53.534374 147.46945 54.05 147.7507Q54.58125 148.03195 54.925 148.5632Q55.26875 149.07883 55.45625 149.82883Q55.64375 150.57883 55.64375 151.86008Q55.64375 153.3757 55.33125 154.29758Q55.034374 155.21945 54.409374 155.73508Q53.8 156.23508 52.846874 156.23508Q51.6125 156.23508 50.89375 155.34445Q50.05 154.28195 50.05 151.86008ZM51.128124 151.86008Q51.128124 153.96945 51.628124 154.67258Q52.128124 155.3757 52.846874 155.3757Q53.58125 155.3757 54.065624 154.67258Q54.565624 153.96945 54.565624 151.86008Q54.565624 149.73508 54.065624 149.04758Q53.58125 148.34445 52.83125 148.34445Q52.1125 148.34445 51.675 148.95383Q51.128124 149.73508 51.128124 151.86008Z" fill-rule="nonzero"/><path fill="#000000" d="M24.51875 59.43229L23.471874 59.510414Q23.33125 58.885414 23.08125 58.604164Q22.64375 58.15104 22.01875 58.15104Q21.51875 58.15104 21.128124 58.43229Q20.64375 58.80729 20.346874 59.510414Q20.065624 60.197914 20.05 61.479164Q20.425 60.90104 20.971874 60.61979Q21.534374 60.33854 22.14375 60.33854Q23.190624 60.33854 23.925 61.11979Q24.675 61.90104 24.675 63.11979Q24.675 63.93229 24.315624 64.635414Q23.971874 65.322914 23.3625 65.697914Q22.753124 66.05729 21.9875 66.05729Q20.659374 66.05729 19.83125 65.08854Q19.003124 64.11979 19.003124 61.90104Q19.003124 59.40104 19.925 58.27604Q20.721874 57.291664 22.08125 57.291664Q23.096874 57.291664 23.7375 57.86979Q24.39375 58.43229 24.51875 59.43229ZM20.221874 63.135414Q20.221874 63.68229 20.440624 64.18229Q20.675 64.666664 21.08125 64.93229Q21.503124 65.197914 21.971874 65.197914Q22.628124 65.197914 23.1125 64.666664Q23.596874 64.11979 23.596874 63.197914Q23.596874 62.30729 23.1125 61.791664Q22.64375 61.27604 21.925 61.27604Q21.20625 61.27604 20.70625 61.791664Q20.221874 62.30729 20.221874 63.135414ZM26.05 61.68229Q26.05 60.15104 26.3625 59.229164Q26.675 58.291664 27.284374 57.791664Q27.909374 57.291664 28.846874 57.291664Q29.534374 57.291664 30.05 57.572914Q30.58125 57.854164 30.925 58.385414Q31.26875 58.90104 31.45625 59.65104Q31.64375 60.40104 31.64375 61.68229Q31.64375 63.197914 31.33125 64.11979Q31.034374 65.041664 30.409374 65.55729Q29.8 66.05729 28.846874 66.05729Q27.6125 66.05729 26.89375 65.166664Q26.05 64.104164 26.05 61.68229ZM27.128124 61.68229Q27.128124 63.791664 27.628124 64.49479Q28.128124 65.197914 28.846874 65.197914Q29.58125 65.197914 30.065624 64.49479Q30.565624 63.791664 30.565624 61.68229Q30.565624 59.55729 30.065624 58.86979Q29.58125 58.166664 28.83125 58.166664Q28.1125 58.166664 27.675 58.77604Q27.128124 59.55729 27.128124 61.68229ZM33.05 61.68229Q33.05 60.15104 33.3625 59.229164Q33.675 58.291664 34.284374 57.791664Q34.909374 57.291664 35.846874 57.291664Q36.534374 57.291664 37.05 57.572914Q37.58125 57.854164 37.925 58.385414Q38.26875 58.90104 38.45625 59.65104Q38.64375 60.40104 38.64375 61.68229Q38.64375 63.197914 38.33125 64.11979Q38.034374 65.041664 37.409374 65.55729Q36.8 66.05729 35.846874 66.05729Q34.6125 66.05729 33.89375 65.166664Q33.05 64.104164 33.05 61.68229ZM34.128124 61.68229Q34.128124 63.791664 34.628124 64.49479Q35.128124 65.197914 35.846874 65.197914Q36.58125 65.197914 37.065624 64.49479Q37.565624 63.791664 37.565624 61.68229Q37.565624 59.55729 37.065624 58.86979Q36.58125 58.166664 35.83125 58.166664Q35.1125 58.166664 34.675 58.77604Q34.128124 59.55729 34.128124 61.68229ZM40.64375 65.916664L40.64375 64.71354L41.846874 64.71354L41.846874 65.916664L40.64375 65.916664ZM43.05 61.68229Q43.05 60.15104 43.3625 59.229164Q43.675 58.291664 44.284374 57.791664Q44.909374 57.291664 45.846874 57.291664Q46.534374 57.291664 47.05 57.572914Q47.58125 57.854164 47.925 58.385414Q48.26875 58.90104 48.45625 59.65104Q48.64375 60.40104 48.64375 61.68229Q48.64375 63.197914 48.33125 64.11979Q48.034374 65.041664 47.409374 65.55729Q46.8 66.05729 45.846874 66.05729Q44.6125 66.05729 43.89375 65.166664Q43.05 64.104164 43.05 61.68229ZM44.128124 61.68229Q44.128124 63.791664 44.628124 64.49479Q45.128124 65.197914 45.846874 65.197914Q46.58125 65.197914 47.065624 64.49479Q47.565624 63.791664 47.565624 61.68229Q47.565624 59.55729 47.065624 58.86979Q46.58125 58.166664 45.83125 58.166664Q45.1125 58.166664 44.675 58.77604Q44.128124 59.55729 44.128124 61.68229ZM50.05 61.68229Q50.05 60.15104 50.3625 59.229164Q50.675 58.291664 51.284374 57.791664Q51.909374 57.291664 52.846874 57.291664Q53.534374 57.291664 54.05 57.572914Q54.58125 57.854164 54.925 58.385414Q55.26875 58.90104 55.45625 59.65104Q55.64375 60.40104 55.64375 61.68229Q55.64375 63.197914 55.33125 64.11979Q55.034374 65.041664 54.409374 65.55729Q53.8 66.05729 52.846874 66.05729Q51.6125 66.05729 50.89375 65.166664Q50.05 64.104164 50.05 61.68229ZM51.128124 61.68229Q51.128124 63.791664 51.628124 64.49479Q52.128124 65.197914 52.846874 65.197914Q53.58125 65.197914 54.065624 64.49479Q54.565624 63.791664 54.565624 61.68229Q54.565624 59.55729 54.065624 58.86979Q53.58125 58.166664 52.83125 58.166664Q52.1125 58.166664 51.675 58.77604Q51.128124 59.55729 51.128124 61.68229Z" fill-rule="nonzero"/><path fill="#000000" d="M151.58012 349.45L154.877 340.85626L156.09575 340.85626L159.61137 349.45L158.33012 349.45L157.3145 346.84064L153.73637 346.84064L152.78325 349.45L151.58012 349.45ZM154.0645 345.91876L156.97075 345.91876L156.08012 343.54376Q155.65825 342.46564 155.47075 341.7625Q155.29887 342.59064 155.002 343.40314L154.0645 345.91876ZM159.377 349.45L159.377 343.23126L160.33012 343.23126L160.33012 344.16876Q160.6895 343.5125 160.98637 343.3094Q161.29887 343.09064 161.67387 343.09064Q162.20512 343.09064 162.752 343.41876L162.39262 344.40314Q162.002 344.16876 161.627 344.16876Q161.26762 344.16876 160.98637 344.3875Q160.72075 344.59064 160.61137 344.96564Q160.42387 345.52814 160.42387 346.1844L160.42387 349.45L159.377 349.45ZM165.6895 348.5125L165.84575 349.4344Q165.39262 349.52814 165.04887 349.52814Q164.47075 349.52814 164.15825 349.35626Q163.84575 349.16876 163.70512 348.8719Q163.58012 348.575 163.58012 347.6219L163.58012 344.04376L162.8145 344.04376L162.8145 343.23126L163.58012 343.23126L163.58012 341.6844L164.627 341.0594L164.627 343.23126L165.6895 343.23126L165.6895 344.04376L164.627 344.04376L164.627 347.6844Q164.627 348.1375 164.67387 348.2625Q164.73637 348.3875 164.86137 348.46564Q164.98637 348.54376 165.22075 348.54376Q165.40825 348.54376 165.6895 348.5125ZM170.64262 347.45L171.73637 347.575Q171.48637 348.52814 170.78325 349.0594Q170.08012 349.59064 169.002 349.59064Q167.64262 349.59064 166.83012 348.7469Q166.03325 347.90314 166.03325 346.3875Q166.03325 344.825 166.84575 343.96564Q167.65825 343.09064 168.9395 343.09064Q170.1895 343.09064 170.97075 343.9344Q171.76762 344.77814 171.76762 346.325Q171.76762 346.41876 171.76762 346.60626L167.127 346.60626Q167.1895 347.6375 167.70512 348.1844Q168.22075 348.71564 169.002 348.71564Q169.58012 348.71564 169.98637 348.41876Q170.40825 348.10626 170.64262 347.45ZM167.1895 345.7469L170.65825 345.7469Q170.59575 344.95 170.26762 344.5594Q169.752 343.95 168.95512 343.95Q168.22075 343.95 167.72075 344.4344Q167.23637 344.91876 167.1895 345.7469ZM173.39262 349.45L173.39262 343.23126L174.33012 343.23126L174.33012 344.10626Q174.627 343.6375 175.11137 343.3719Q175.59575 343.09064 176.22075 343.09064Q176.90825 343.09064 177.34575 343.3719Q177.79887 343.65314 177.97075 344.16876Q178.72075 343.09064 179.89262 343.09064Q180.83012 343.09064 181.3145 343.60626Q181.8145 344.10626 181.8145 345.1844L181.8145 349.45L180.76762 349.45L180.76762 345.52814Q180.76762 344.90314 180.65825 344.6219Q180.5645 344.34064 180.29887 344.16876Q180.03325 343.9969 179.65825 343.9969Q179.002 343.9969 178.5645 344.4344Q178.14262 344.8719 178.14262 345.84064L178.14262 349.45L177.08012 349.45L177.08012 345.40314Q177.08012 344.7 176.8145 344.35626Q176.5645 343.9969 175.98637 343.9969Q175.53325 343.9969 175.15825 344.23126Q174.78325 344.46564 174.61137 344.91876Q174.4395 345.3719 174.4395 346.21564L174.4395 349.45L173.39262 349.45ZM184.39262 342.075L184.39262 340.85626L185.45512 340.85626L185.45512 342.075L184.39262 342.075ZM184.39262 349.45L184.39262 343.23126L185.45512 343.23126L185.45512 349.45L184.39262 349.45ZM186.97075 347.59064L188.002 347.4344Q188.09575 348.0594 188.48637 348.3875Q188.89262 348.71564 189.627 348.71564Q190.34575 348.71564 190.6895 348.4344Q191.04887 348.1375 191.04887 347.73126Q191.04887 347.3719 190.73637 347.16876Q190.51762 347.02814 189.65825 346.8094Q188.502 346.5125 188.04887 346.3094Q187.61137 346.09064 187.377 345.71564Q187.14262 345.34064 187.14262 344.8719Q187.14262 344.46564 187.33012 344.10626Q187.51762 343.7469 187.84575 343.5125Q188.09575 343.34064 188.51762 343.21564Q188.9395 343.09064 189.4395 343.09064Q190.15825 343.09064 190.70512 343.3094Q191.26762 343.5125 191.53325 343.8719Q191.79887 344.23126 191.89262 344.825L190.86137 344.96564Q190.79887 344.4969 190.45512 344.23126Q190.127 343.95 189.502 343.95Q188.78325 343.95 188.47075 344.2Q188.15825 344.4344 188.15825 344.7625Q188.15825 344.96564 188.28325 345.1219Q188.42387 345.29376 188.6895 345.40314Q188.84575 345.46564 189.627 345.66876Q190.752 345.98126 191.1895 346.16876Q191.627 346.35626 191.877 346.71564Q192.127 347.075 192.127 347.6219Q192.127 348.15314 191.8145 348.6219Q191.51762 349.075 190.9395 349.34064Q190.36137 349.59064 189.627 349.59064Q188.40825 349.59064 187.76762 349.09064Q187.14262 348.575 186.97075 347.59064ZM194.51762 349.45L194.51762 340.85626L195.67387 340.85626L200.1895 347.60626L200.1895 340.85626L201.28325 340.85626L201.28325 349.45L200.11137 349.45L195.59575 342.7L195.59575 349.45L194.51762 349.45ZM207.64262 347.45L208.73637 347.575Q208.48637 348.52814 207.78325 349.0594Q207.08012 349.59064 206.002 349.59064Q204.64262 349.59064 203.83012 348.7469Q203.03325 347.90314 203.03325 346.3875Q203.03325 344.825 203.84575 343.96564Q204.65825 343.09064 205.9395 343.09064Q207.1895 343.09064 207.97075 343.9344Q208.76762 344.77814 208.76762 346.325Q208.76762 346.41876 208.76762 346.60626L204.127 346.60626Q204.1895 347.6375 204.70512 348.1844Q205.22075 348.71564 206.002 348.71564Q206.58012 348.71564 206.98637 348.41876Q207.40825 348.10626 207.64262 347.45ZM204.1895 345.7469L207.65825 345.7469Q207.59575 344.95 207.26762 344.5594Q206.752 343.95 205.95512 343.95Q205.22075 343.95 204.72075 344.4344Q204.23637 344.91876 204.1895 345.7469ZM212.6895 348.5125L212.84575 349.4344Q212.39262 349.52814 212.04887 349.52814Q211.47075 349.52814 211.15825 349.35626Q210.84575 349.16876 210.70512 348.8719Q210.58012 348.575 210.58012 347.6219L210.58012 344.04376L209.8145 344.04376L209.8145 343.23126L210.58012 343.23126L210.58012 341.6844L211.627 341.0594L211.627 343.23126L212.6895 343.23126L212.6895 344.04376L211.627 344.04376L211.627 347.6844Q211.627 348.1375 211.67387 348.2625Q211.73637 348.3875 211.86137 348.46564Q211.98637 348.54376 212.22075 348.54376Q212.40825 348.54376 212.6895 348.5125ZM219.65825 346.4344L220.78325 346.73126Q220.42387 348.1219 219.502 348.85626Q218.58012 349.59064 217.23637 349.59064Q215.84575 349.59064 214.97075 349.02814Q214.09575 348.46564 213.64262 347.40314Q213.1895 346.325 213.1895 345.09064Q213.1895 343.7469 213.70512 342.7469Q214.22075 341.7469 215.15825 341.23126Q216.11137 340.71564 217.252 340.71564Q218.53325 340.71564 219.40825 341.3719Q220.29887 342.02814 220.64262 343.21564L219.51762 343.48126Q219.22075 342.54376 218.64262 342.1219Q218.08012 341.6844 217.22075 341.6844Q216.23637 341.6844 215.5645 342.16876Q214.90825 342.6375 214.627 343.4344Q214.36137 344.23126 214.36137 345.09064Q214.36137 346.1844 214.67387 346.9969Q215.002 347.8094 215.67387 348.21564Q216.34575 348.6219 217.14262 348.6219Q218.09575 348.6219 218.752 348.075Q219.42387 347.52814 219.65825 346.4344ZM222.002 346.34064Q222.002 344.60626 222.95512 343.77814Q223.752 343.09064 224.90825 343.09064Q226.1895 343.09064 227.002 343.9344Q227.83012 344.7625 227.83012 346.2469Q227.83012 347.45 227.47075 348.1375Q227.11137 348.825 226.40825 349.21564Q225.72075 349.59064 224.90825 349.59064Q223.61137 349.59064 222.79887 348.7625Q222.002 347.91876 222.002 346.34064ZM223.08012 346.34064Q223.08012 347.52814 223.59575 348.1219Q224.127 348.71564 224.90825 348.71564Q225.70512 348.71564 226.22075 348.1219Q226.73637 347.52814 226.73637 346.3094Q226.73637 345.15314 226.20512 344.5594Q225.6895 343.96564 224.90825 343.96564Q224.127 343.96564 223.59575 344.5594Q223.08012 345.1375 223.08012 346.34064ZM229.377 349.45L229.377 343.23126L230.33012 343.23126L230.33012 344.16876Q230.6895 343.5125 230.98637 343.3094Q231.29887 343.09064 231.67387 343.09064Q232.20512 343.09064 232.752 343.41876L232.39262 344.40314Q232.002 344.16876 231.627 344.16876Q231.26762 344.16876 230.98637 344.3875Q230.72075 344.59064 230.61137 344.96564Q230.42387 345.52814 230.42387 346.1844L230.42387 349.45L229.377 349.45ZM237.64262 347.45L238.73637 347.575Q238.48637 348.52814 237.78325 349.0594Q237.08012 349.59064 236.002 349.59064Q234.64262 349.59064 233.83012 348.7469Q233.03325 347.90314 233.03325 346.3875Q233.03325 344.825 233.84575 343.96564Q234.65825 343.09064 235.9395 343.09064Q237.1895 343.09064 237.97075 343.9344Q238.76762 344.77814 238.76762 346.325Q238.76762 346.41876 238.76762 346.60626L234.127 346.60626Q234.1895 347.6375 234.70512 348.1844Q235.22075 348.71564 236.002 348.71564Q236.58012 348.71564 236.98637 348.41876Q237.40825 348.10626 237.64262 347.45ZM234.1895 345.7469L237.65825 345.7469Q237.59575 344.95 237.26762 344.5594Q236.752 343.95 235.95512 343.95Q235.22075 343.95 234.72075 344.4344Q234.23637 344.91876 234.1895 345.7469ZM246.65825 346.4344L247.78325 346.73126Q247.42387 348.1219 246.502 348.85626Q245.58012 349.59064 244.23637 349.59064Q242.84575 349.59064 241.97075 349.02814Q241.09575 348.46564 240.64262 347.40314Q240.1895 346.325 240.1895 345.09064Q240.1895 343.7469 240.70512 342.7469Q241.22075 341.7469 242.15825 341.23126Q243.11137 340.71564 244.252 340.71564Q245.53325 340.71564 246.40825 341.3719Q247.29887 342.02814 247.64262 343.21564L246.51762 343.48126Q246.22075 342.54376 245.64262 342.1219Q245.08012 341.6844 244.22075 341.6844Q243.23637 341.6844 242.5645 342.16876Q241.90825 342.6375 241.627 343.4344Q241.36137 344.23126 241.36137 345.09064Q241.36137 346.1844 241.67387 346.9969Q242.002 347.8094 242.67387 348.21564Q243.34575 348.6219 244.14262 348.6219Q245.09575 348.6219 245.752 348.075Q246.42387 347.52814 246.65825 346.4344ZM249.36137 349.45L249.36137 340.85626L250.42387 340.85626L250.42387 349.45L249.36137 349.45ZM252.39262 342.075L252.39262 340.85626L253.45512 340.85626L253.45512 342.075L252.39262 342.075ZM252.39262 349.45L252.39262 343.23126L253.45512 343.23126L253.45512 349.45L252.39262 349.45ZM259.64264 347.45L260.7364 347.575Q260.4864 348.52814 259.78326 349.0594Q259.08014 349.59064 258.002 349.59064Q256.64264 349.59064 255.83012 348.7469Q255.03325 347.90314 255.03325 346.3875Q255.03325 344.825 255.84575 343.96564Q256.65826 343.09064 257.9395 343.09064Q259.1895 343.09064 259.97076 343.9344Q260.76764 344.77814 260.76764 346.325Q260.76764 346.41876 260.76764 346.60626L256.127 346.60626Q256.1895 347.6375 256.70514 348.1844Q257.22076 348.71564 258.002 348.71564Q258.58014 348.71564 258.9864 348.41876Q259.40826 348.10626 259.64264 347.45ZM256.1895 345.7469L259.65826 345.7469Q259.59576 344.95 259.26764 344.5594Q258.752 343.95 257.95514 343.95Q257.22076 343.95 256.72076 344.4344Q256.2364 344.91876 256.1895 345.7469ZM262.39264 349.45L262.39264 343.23126L263.33014 343.23126L263.33014 344.10626Q264.01764 343.09064 265.3145 343.09064Q265.877 343.09064 266.34576 343.29376Q266.83014 343.4969 267.0645 343.825Q267.2989 344.15314 267.39264 344.59064Q267.4395 344.8875 267.4395 345.6219L267.4395 349.45L266.39264 349.45L266.39264 345.66876Q266.39264 345.0125 266.26764 344.7Q266.14264 344.3875 265.83014 344.2Q265.51764 343.9969 265.09576 343.9969Q264.4239 343.9969 263.9239 344.4344Q263.4395 344.85626 263.4395 346.04376L263.4395 349.45L262.39264 349.45ZM271.6895 348.5125L271.84576 349.4344Q271.39264 349.52814 271.0489 349.52814Q270.47076 349.52814 270.15826 349.35626Q269.84576 349.16876 269.70514 348.8719Q269.58014 348.575 269.58014 347.6219L269.58014 344.04376L268.8145 344.04376L268.8145 343.23126L269.58014 343.23126L269.58014 341.6844L270.627 341.0594L270.627 343.23126L271.6895 343.23126L271.6895 344.04376L270.627 344.04376L270.627 347.6844Q270.627 348.1375 270.6739 348.2625Q270.7364 348.3875 270.8614 348.46564Q270.9864 348.54376 271.22076 348.54376Q271.40826 348.54376 271.6895 348.5125Z" fill-rule="nonzero"/><path fill="#000000" d="M402.32614 349.45L402.32614 340.85626L403.4824 340.85626L407.99802 347.60626L407.99802 340.85626L409.09177 340.85626L409.09177 349.45L407.9199 349.45L403.40427 342.7L403.40427 349.45L402.32614 349.45ZM411.2949 349.45L411.2949 340.85626L413.01364 340.85626L415.0449 346.9344Q415.32614 347.79376 415.45114 348.21564Q415.59177 347.7469 415.90427 346.84064L417.96677 340.85626L419.49802 340.85626L419.49802 349.45L418.40427 349.45L418.40427 342.2625L415.90427 349.45L414.87302 349.45L412.38864 342.1375L412.38864 349.45L411.2949 349.45ZM419.95114 346.6844L421.01364 346.59064Q421.09177 347.2469 421.37302 347.65314Q421.65427 348.0594 422.2324 348.325Q422.82614 348.575 423.56052 348.575Q424.20114 348.575 424.70114 348.3875Q425.20114 348.1844 425.43552 347.85626Q425.68552 347.5125 425.68552 347.1219Q425.68552 346.71564 425.45114 346.41876Q425.21677 346.10626 424.68552 345.90314Q424.32614 345.7625 423.13864 345.48126Q421.96677 345.2 421.49802 344.95Q420.87302 344.6219 420.57614 344.15314Q420.27927 343.66876 420.27927 343.075Q420.27927 342.4344 420.63864 341.8719Q421.01364 341.29376 421.71677 341.0125Q422.43552 340.71564 423.2949 340.71564Q424.24802 340.71564 424.9824 341.02814Q425.71677 341.325 426.1074 341.9344Q426.49802 342.52814 426.52927 343.27814L425.43552 343.35626Q425.34177 342.54376 424.82614 342.1375Q424.32614 341.71564 423.34177 341.71564Q422.31052 341.71564 421.84177 342.09064Q421.37302 342.46564 421.37302 342.9969Q421.37302 343.46564 421.70114 343.7625Q422.02927 344.0594 423.40427 344.3719Q424.7949 344.6844 425.31052 344.91876Q426.06052 345.27814 426.4199 345.8094Q426.77927 346.325 426.77927 347.02814Q426.77927 347.71564 426.38864 348.325Q425.99802 348.91876 425.26364 349.2625Q424.52927 349.59064 423.6074 349.59064Q422.43552 349.59064 421.63864 349.2625Q420.8574 348.91876 420.40427 348.23126Q419.96677 347.54376 419.95114 346.6844ZM428.49802 349.45L428.49802 348.2469L429.70114 348.2469L429.70114 349.45L428.49802 349.45ZM430.38864 349.45L433.68552 340.85626L434.90427 340.85626L438.4199 349.45L437.13864 349.45L436.12302 346.84064L432.5449 346.84064L431.59177 349.45L430.38864 349.45ZM432.87302 345.91876L435.77927 345.91876L434.88864 343.54376Q434.46677 342.46564 434.27927 341.7625Q434.1074 342.59064 433.81052 343.40314L432.87302 345.91876ZM438.2949 349.45L438.2949 340.85626L440.01364 340.85626L442.0449 346.9344Q442.32614 347.79376 442.45114 348.21564Q442.59177 347.7469 442.90427 346.84064L444.96677 340.85626L446.49802 340.85626L446.49802 349.45L445.40427 349.45L445.40427 342.2625L442.90427 349.45L441.87302 349.45L439.38864 342.1375L439.38864 349.45L438.2949 349.45ZM453.84177 348.52814Q454.63864 349.075 455.2949 349.325L454.96677 350.1219Q454.0449 349.77814 453.12302 349.0594Q452.1699 349.59064 451.01364 349.59064Q449.84177 349.59064 448.88864 349.02814Q447.95114 348.46564 447.43552 347.45Q446.9199 346.4344 446.9199 345.15314Q446.9199 343.8875 447.43552 342.84064Q447.95114 341.79376 448.90427 341.2469Q449.8574 340.7 451.02927 340.7Q452.21677 340.7 453.1699 341.27814Q454.13864 341.84064 454.63864 342.85626Q455.13864 343.8719 455.13864 345.15314Q455.13864 346.21564 454.81052 347.0594Q454.49802 347.90314 453.84177 348.52814ZM451.34177 347.075Q452.32614 347.35626 452.96677 347.90314Q453.96677 346.98126 453.96677 345.15314Q453.96677 344.10626 453.6074 343.325Q453.24802 342.54376 452.56052 342.1219Q451.88864 341.6844 451.0449 341.6844Q449.76364 341.6844 448.9199 342.5594Q448.09177 343.41876 448.09177 345.15314Q448.09177 346.825 448.9199 347.73126Q449.74802 348.6219 451.0449 348.6219Q451.65427 348.6219 452.18552 348.3875Q451.65427 348.04376 451.06052 347.90314L451.34177 347.075ZM456.32614 349.45L456.32614 340.85626L459.57614 340.85626Q460.4199 340.85626 460.87302 340.9344Q461.51364 341.04376 461.93552 341.34064Q462.37302 341.6375 462.62302 342.16876Q462.88864 342.7 462.88864 343.34064Q462.88864 344.4344 462.18552 345.2Q461.49802 345.95 459.6699 345.95L457.46677 345.95L457.46677 349.45L456.32614 349.45ZM457.46677 344.95L459.68552 344.95Q460.7949 344.95 461.24802 344.54376Q461.71677 344.1219 461.71677 343.3719Q461.71677 342.84064 461.43552 342.46564Q461.1699 342.075 460.7324 341.95Q460.43552 341.8719 459.6699 341.8719L457.46677 341.8719L457.46677 344.95Z" fill-rule="nonzero"/><path fill="#757575" d="M22.01875 37.55L22.01875 23.2375L23.909374 23.2375L23.909374 35.8625L30.95625 35.8625L30.95625 37.55L22.01875 37.55ZM39.64375 36.26875Q38.659374 37.096874 37.753124 37.440624Q36.846874 37.784374 35.815624 37.784374Q34.1125 37.784374 33.190624 36.95625Q32.26875 36.1125 32.26875 34.815624Q32.26875 34.05 32.6125 33.425Q32.971874 32.8 33.534374 32.425Q34.096874 32.034374 34.8 31.83125Q35.315624 31.70625 36.3625 31.565624Q38.4875 31.315624 39.4875 30.971874Q39.503124 30.6125 39.503124 30.503124Q39.503124 29.440624 39.003124 28.9875Q38.33125 28.39375 37.003124 28.39375Q35.753124 28.39375 35.159374 28.83125Q34.58125 29.26875 34.3 30.378124L32.58125 30.14375Q32.815624 29.034374 33.346874 28.3625Q33.878124 27.675 34.89375 27.315624Q35.909374 26.940624 37.253124 26.940624Q38.58125 26.940624 39.409374 27.253124Q40.2375 27.565624 40.628124 28.05Q41.01875 28.51875 41.175 29.2375Q41.26875 29.690624 41.26875 30.8625L41.26875 33.20625Q41.26875 35.659374 41.378124 36.315624Q41.4875 36.95625 41.83125 37.55L39.9875 37.55Q39.721874 37.003124 39.64375 36.26875ZM39.4875 32.346874Q38.534374 32.7375 36.6125 33.003124Q35.534374 33.159374 35.08125 33.3625Q34.64375 33.55 34.39375 33.925Q34.14375 34.3 34.14375 34.76875Q34.14375 35.471874 34.675 35.940624Q35.20625 36.409374 36.2375 36.409374Q37.253124 36.409374 38.034374 35.971874Q38.83125 35.51875 39.20625 34.753124Q39.4875 34.14375 39.4875 32.9875L39.4875 32.346874ZM47.70625 35.971874L47.95625 37.534374Q47.221874 37.690624 46.628124 37.690624Q45.675 37.690624 45.14375 37.39375Q44.628124 37.08125 44.409374 36.596874Q44.190624 36.096874 44.190624 34.51875L44.190624 28.55L42.909374 28.55L42.909374 27.175L44.190624 27.175L44.190624 24.6125L45.940624 23.55L45.940624 27.175L47.70625 27.175L47.70625 28.55L45.940624 28.55L45.940624 34.6125Q45.940624 35.3625 46.034374 35.58125Q46.128124 35.784374 46.33125 35.925Q46.55 36.05 46.940624 36.05Q47.221874 36.05 47.70625 35.971874ZM56.971874 34.20625L58.784374 34.440624Q58.3625 36.01875 57.190624 36.909374Q56.034374 37.784374 54.221874 37.784374Q51.95625 37.784374 50.6125 36.39375Q49.284374 34.9875 49.284374 32.45625Q49.284374 29.83125 50.628124 28.39375Q51.971874 26.940624 54.128124 26.940624Q56.20625 26.940624 57.51875 28.3625Q58.846874 29.76875 58.846874 32.346874Q58.846874 32.503124 58.83125 32.815624L51.096874 32.815624Q51.190624 34.51875 52.065624 35.425Q52.940624 36.33125 54.2375 36.33125Q55.20625 36.33125 55.878124 35.83125Q56.565624 35.315624 56.971874 34.20625ZM51.190624 31.3625L56.9875 31.3625Q56.878124 30.065624 56.33125 29.409374Q55.4875 28.39375 54.14375 28.39375Q52.940624 28.39375 52.1125 29.20625Q51.284374 30.003124 51.190624 31.3625ZM60.8625 37.55L60.8625 27.175L62.45625 27.175L62.45625 28.659374Q63.596874 26.940624 65.75313 26.940624Q66.69063 26.940624 67.47188 27.284374Q68.26875 27.6125 68.65938 28.159374Q69.05 28.70625 69.20625 29.45625Q69.3 29.95625 69.3 31.175L69.3 37.55L67.53438 37.55L67.53438 31.2375Q67.53438 30.159374 67.33125 29.628124Q67.12813 29.096874 66.59688 28.784374Q66.08125 28.471874 65.37813 28.471874Q64.25313 28.471874 63.440624 29.190624Q62.628124 29.89375 62.628124 31.878124L62.628124 37.55L60.8625 37.55ZM77.64375 33.753124L79.3625 33.971874Q79.08125 35.76875 77.90938 36.784374Q76.75313 37.784374 75.05 37.784374Q72.925 37.784374 71.62813 36.39375Q70.33125 35.003124 70.33125 32.409374Q70.33125 30.721874 70.87813 29.471874Q71.44063 28.20625 72.58125 27.58125Q73.72188 26.940624 75.06563 26.940624Q76.75313 26.940624 77.81563 27.8Q78.89375 28.659374 79.20625 30.221874L77.4875 30.4875Q77.25313 29.440624 76.62813 28.925Q76.00313 28.39375 75.12813 28.39375Q73.8 28.39375 72.97188 29.346874Q72.14375 30.3 72.14375 32.346874Q72.14375 34.440624 72.94063 35.39375Q73.7375 36.33125 75.03438 36.33125Q76.06563 36.33125 76.75313 35.70625Q77.45625 35.065624 77.64375 33.753124ZM80.78438 41.55L80.59688 39.89375Q81.175 40.05 81.59688 40.05Q82.19063 40.05 82.53438 39.846874Q82.89375 39.659374 83.1125 39.315624Q83.28438 39.05 83.65938 38.003124Q83.70625 37.846874 83.81563 37.565624L79.87813 27.175L81.76875 27.175L83.925 33.190624Q84.34688 34.33125 84.675 35.58125Q84.9875 34.378124 85.39375 33.221874L87.6125 27.175L89.37813 27.175L85.425 37.721874Q84.8 39.440624 84.44063 40.08125Q83.97188 40.95625 83.3625 41.346874Q82.76875 41.753124 81.925 41.753124Q81.40938 41.753124 80.78438 41.55ZM100.22188 41.753124Q98.76875 39.925 97.76875 37.471874Q96.76875 35.003124 96.76875 32.3625Q96.76875 30.034374 97.51875 27.909374Q98.39375 25.440624 100.22188 22.9875L101.4875 22.9875Q100.3 25.01875 99.925 25.89375Q99.33125 27.2375 98.9875 28.70625Q98.56563 30.534374 98.56563 32.378124Q98.56563 37.065624 101.4875 41.753124L100.22188 41.753124ZM103.83125 37.55L103.83125 23.2375L105.58125 23.2375L105.58125 37.55L103.83125 37.55ZM107.22188 32.3625Q107.22188 29.4875 108.81563 28.096874Q110.15938 26.940624 112.08125 26.940624Q114.22188 26.940624 115.56563 28.346874Q116.925 29.753124 116.925 32.221874Q116.925 34.221874 116.33125 35.378124Q115.7375 36.51875 114.58125 37.159374Q113.44063 37.784374 112.08125 37.784374Q109.89375 37.784374 108.55 36.39375Q107.22188 34.9875 107.22188 32.3625ZM109.01875 32.3625Q109.01875 34.3625 109.87813 35.346874Q110.75313 36.33125 112.08125 36.33125Q113.39375 36.33125 114.25313 35.346874Q115.12813 34.346874 115.12813 32.3Q115.12813 30.378124 114.25313 29.39375Q113.37813 28.39375 112.08125 28.39375Q110.75313 28.39375 109.87813 29.39375Q109.01875 30.378124 109.01875 32.3625ZM120.78438 37.55L117.6125 27.175L119.425 27.175L121.08125 33.159374L121.69063 35.39375Q121.7375 35.221874 122.22188 33.253124L123.87813 27.175L125.69063 27.175L127.2375 33.190624L127.75313 35.175L128.34688 33.175L130.12813 27.175L131.83125 27.175L128.59688 37.55L126.76875 37.55L125.1125 31.33125L124.72188 29.565624L122.6125 37.55L120.78438 37.55ZM140.97188 34.20625L142.78438 34.440624Q142.3625 36.01875 141.19063 36.909374Q140.03438 37.784374 138.22188 37.784374Q135.95625 37.784374 134.6125 36.39375Q133.28438 34.9875 133.28438 32.45625Q133.28438 29.83125 134.62813 28.39375Q135.97188 26.940624 138.12813 26.940624Q140.20625 26.940624 141.51875 28.3625Q142.84688 29.76875 142.84688 32.346874Q142.84688 32.503124 142.83125 32.815624L135.09688 32.815624Q135.19063 34.51875 136.06563 35.425Q136.94063 36.33125 138.2375 36.33125Q139.20625 36.33125 139.87813 35.83125Q140.56563 35.315624 140.97188 34.20625ZM135.19063 31.3625L140.9875 31.3625Q140.87813 30.065624 140.33125 29.409374Q139.4875 28.39375 138.14375 28.39375Q136.94063 28.39375 136.1125 29.20625Q135.28438 30.003124 135.19063 31.3625ZM144.84688 37.55L144.84688 27.175L146.425 27.175L146.425 28.753124Q147.03438 27.64375 147.55 27.3Q148.06563 26.940624 148.675 26.940624Q149.56563 26.940624 150.4875 27.503124L149.87813 29.14375Q149.2375 28.753124 148.59688 28.753124Q148.01875 28.753124 147.55 29.1125Q147.09688 29.45625 146.89375 30.065624Q146.6125 31.003124 146.6125 32.1125L146.6125 37.55L144.84688 37.55ZM151.19063 33.253124L151.19063 31.4875L156.58125 31.4875L156.58125 33.253124L151.19063 33.253124ZM160.4875 37.55L158.8625 37.55L158.8625 23.2375L160.6125 23.2375L160.6125 28.346874Q161.7375 26.940624 163.45625 26.940624Q164.40938 26.940624 165.26875 27.33125Q166.12813 27.721874 166.675 28.425Q167.22188 29.1125 167.53438 30.096874Q167.84688 31.08125 167.84688 32.20625Q167.84688 34.878124 166.53438 36.33125Q165.22188 37.784374 163.37813 37.784374Q161.53438 37.784374 160.4875 36.253124L160.4875 37.55ZM160.47188 32.284374Q160.47188 34.14375 160.97188 34.9875Q161.81563 36.33125 163.22188 36.33125Q164.37813 36.33125 165.20625 35.33125Q166.05 34.33125 166.05 32.346874Q166.05 30.315624 165.2375 29.3625Q164.44063 28.39375 163.3 28.39375Q162.14375 28.39375 161.3 29.39375Q160.47188 30.39375 160.47188 32.284374ZM176.97188 34.20625L178.78438 34.440624Q178.3625 36.01875 177.19063 36.909374Q176.03438 37.784374 174.22188 37.784374Q171.95625 37.784374 170.6125 36.39375Q169.28438 34.9875 169.28438 32.45625Q169.28438 29.83125 170.62813 28.39375Q171.97188 26.940624 174.12813 26.940624Q176.20625 26.940624 177.51875 28.3625Q178.84688 29.76875 178.84688 32.346874Q178.84688 32.503124 178.83125 32.815624L171.09688 32.815624Q171.19063 34.51875 172.06563 35.425Q172.94063 36.33125 174.2375 36.33125Q175.20625 36.33125 175.87813 35.83125Q176.56563 35.315624 176.97188 34.20625ZM171.19063 31.3625L176.9875 31.3625Q176.87813 30.065624 176.33125 29.409374Q175.4875 28.39375 174.14375 28.39375Q172.94063 28.39375 172.1125 29.20625Q171.28438 30.003124 171.19063 31.3625ZM184.70625 35.971874L184.95625 37.534374Q184.22188 37.690624 183.62813 37.690624Q182.675 37.690624 182.14375 37.39375Q181.62813 37.08125 181.40938 36.596874Q181.19063 36.096874 181.19063 34.51875L181.19063 28.55L179.90938 28.55L179.90938 27.175L181.19063 27.175L181.19063 24.6125L182.94063 23.55L182.94063 27.175L184.70625 27.175L184.70625 28.55L182.94063 28.55L182.94063 34.6125Q182.94063 35.3625 183.03438 35.58125Q183.12813 35.784374 183.33125 35.925Q183.55 36.05 183.94063 36.05Q184.22188 36.05 184.70625 35.971874ZM190.70625 35.971874L190.95625 37.534374Q190.22188 37.690624 189.62813 37.690624Q188.675 37.690624 188.14375 37.39375Q187.62813 37.08125 187.40938 36.596874Q187.19063 36.096874 187.19063 34.51875L187.19063 28.55L185.90938 28.55L185.90938 27.175L187.19063 27.175L187.19063 24.6125L188.94063 23.55L188.94063 27.175L190.70625 27.175L190.70625 28.55L188.94063 28.55L188.94063 34.6125Q188.94063 35.3625 189.03438 35.58125Q189.12813 35.784374 189.33125 35.925Q189.55 36.05 189.94063 36.05Q190.22188 36.05 190.70625 35.971874ZM199.97188 34.20625L201.78438 34.440624Q201.3625 36.01875 200.19063 36.909374Q199.03438 37.784374 197.22188 37.784374Q194.95625 37.784374 193.6125 36.39375Q192.28438 34.9875 192.28438 32.45625Q192.28438 29.83125 193.62813 28.39375Q194.97188 26.940624 197.12813 26.940624Q199.20625 26.940624 200.51875 28.3625Q201.84688 29.76875 201.84688 32.346874Q201.84688 32.503124 201.83125 32.815624L194.09688 32.815624Q194.19063 34.51875 195.06563 35.425Q195.94063 36.33125 197.2375 36.33125Q198.20625 36.33125 198.87813 35.83125Q199.56563 35.315624 199.97188 34.20625ZM194.19063 31.3625L199.9875 31.3625Q199.87813 30.065624 199.33125 29.409374Q198.4875 28.39375 197.14375 28.39375Q195.94063 28.39375 195.1125 29.20625Q194.28438 30.003124 194.19063 31.3625ZM203.84688 37.55L203.84688 27.175L205.425 27.175L205.425 28.753124Q206.03438 27.64375 206.55 27.3Q207.06563 26.940624 207.675 26.940624Q208.56563 26.940624 209.4875 27.503124L208.87813 29.14375Q208.2375 28.753124 207.59688 28.753124Q207.01875 28.753124 206.55 29.1125Q206.09688 29.45625 205.89375 30.065624Q205.6125 31.003124 205.6125 32.1125L205.6125 37.55L203.84688 37.55ZM212.01875 41.753124L210.76875 41.753124Q213.675 37.065624 213.675 32.378124Q213.675 30.534374 213.26875 28.7375Q212.925 27.26875 212.33125 25.925Q211.95625 25.034374 210.76875 22.9875L212.01875 22.9875Q213.8625 25.440624 214.7375 27.909374Q215.4875 30.034374 215.4875 32.3625Q215.4875 35.003124 214.47188 37.471874Q213.47188 39.925 212.01875 41.753124Z" fill-rule="nonzero"/></svg>