<svg version="1.1" viewBox="0.0 0.0 600.0 371.0" fill="none" stroke="none" stroke-linecap="square" stroke-miterlimit="10" width="600" height="371" xmlns:xlink="http://www.w3.org/1999/xlink" xmlns="http://www.w3.org/2000/svg"><path fill="#ffffff" d="M0 0L600.0 0L600.0 371.0L0 371.0L0 0Z" fill-rule="nonzero"/><path stroke="#333333" stroke-width="1.0" stroke-linecap="butt" d="M52.5 332.5L581.5 332.5" fill-rule="nonzero"/><path stroke="#cccccc" stroke-width="1.0" stroke-linecap="butt" d="M52.5 264.5L581.5 264.5" fill-rule="nonzero"/><path stroke="#cccccc" stroke-width="1.0" stroke-linecap="butt" d="M52.5 197.5L581.5 197.5" fill-rule="nonzero"/><path stroke="#cccccc" stroke-width="1.0" stroke-linecap="butt" d="M52.5 129.5L581.5 129.5" fill-rule="nonzero"/><path stroke="#cccccc" stroke-width="1.0" stroke-linecap="butt" d="M52.5 61.5L581.5 61.5" fill-rule="nonzero"/><path stroke="#000000" stroke-width="1.0" stroke-linecap="butt" stroke-opacity="0.0" d="M52.5 309.5L581.5 309.5" fill-rule="nonzero"/><path stroke="#000000" stroke-width="1.0" stroke-linecap="butt" stroke-opacity="0.0" d="M52.5 287.5L581.5 287.5" fill-rule="nonzero"/><path stroke="#000000" stroke-width="1.0" stroke-linecap="butt" stroke-opacity="0.0" d="M52.5 242.5L581.5 242.5" fill-rule="nonzero"/><path stroke="#000000" stroke-width="1.0" stroke-linecap="butt" stroke-opacity="0.0" d="M52.5 219.5L581.5 219.5" fill-rule="nonzero"/><path stroke="#000000" stroke-width="1.0" stroke-linecap="butt" stroke-opacity="0.0" d="M52.5 174.5L581.5 174.5" fill-rule="nonzero"/><path stroke="#000000" stroke-width="1.0" stroke-linecap="butt" stroke-opacity="0.0" d="M52.5 152.5L581.5 152.5" fill-rule="nonzero"/><path stroke="#000000" stroke-width="1.0" stroke-linecap="butt" stroke-opacity="0.0" d="M52.5 107.5L581.5 107.5" fill-rule="nonzero"/><path stroke="#000000" stroke-width="1.0" stroke-linecap="butt" stroke-opacity="0.0" d="M52.5 84.5L581.5 84.5" fill-rule="nonzero"/><clipPath id="id_0"><path d="M52.55 61.916668L581.45 61.916668L581.45 332.45L52.55 332.45L52.55 61.916668Z" clip-rule="nonzero"/></clipPath><path stroke="#000000" stroke-width="2.0" stroke-linecap="butt" stroke-opacity="0.0" clip-path="url(#id_0)" d="M277.0 332.0L131.0 332.0L131.0 65.0C131.0 63.89543 131.89543 63.0 133.0 63.0L275.0 63.0C276.10458 63.0 277.0 63.89543 277.0 65.0Z" fill-rule="nonzero"/><path fill="#4285f4" clip-path="url(#id_0)" d="M277.0 332.0L131.0 332.0L131.0 65.0C131.0 63.89543 131.89543 63.0 133.0 63.0L275.0 63.0C276.10458 63.0 277.0 63.89543 277.0 65.0Z" fill-rule="nonzero"/><path stroke="#000000" stroke-width="2.0" stroke-linecap="butt" stroke-opacity="0.0" clip-path="url(#id_0)" d="M503.0 332.0L357.0 332.0L357.0 206.0C357.0 204.89543 357.89542 204.0 359.0 204.0L501.0 204.0C502.10458 204.0 503.0 204.89543 503.0 206.0Z" fill-rule="nonzero"/><path fill="#4285f4" clip-path="url(#id_0)" d="M503.0 332.0L357.0 332.0L357.0 206.0C357.0 204.89543 357.89542 204.0 359.0 204.0L501.0 204.0C502.10458 204.0 503.0 204.89543 503.0 206.0Z" fill-rule="nonzero"/><path fill="#000000" d="M40.05 332.21564Q40.05 330.6844 40.3625 329.7625Q40.675 328.825 41.284374 328.325Q41.909374 327.825 42.846874 327.825Q43.534374 327.825 44.05 328.10626Q44.58125 328.3875 44.925 328.91876Q45.26875 329.4344 45.45625 330.1844Q45.64375 330.9344 45.64375 332.21564Q45.64375 333.73126 45.33125 334.65314Q45.034374 335.575 44.409374 336.09064Q43.8 336.59064 42.846874 336.59064Q41.6125 336.59064 40.89375 335.7Q40.05 334.6375 40.05 332.21564ZM41.128124 332.21564Q41.128124 334.325 41.628124 335.02814Q42.128124 335.73126 42.846874 335.73126Q43.58125 335.73126 44.065624 335.02814Q44.565624 334.325 44.565624 332.21564Q44.565624 330.09064 44.065624 329.40314Q43.58125 328.7 42.83125 328.7Q42.1125 328.7 41.675 329.3094Q41.128124 330.09064 41.128124 332.21564Z" fill-rule="nonzero"/><path fill="#000000" d="M26.05 266.56668L27.159374 266.47293Q27.284374 267.28543 27.721874 267.69168Q28.175 268.09793 28.815624 268.09793Q29.565624 268.09793 30.096874 267.5198Q30.628124 266.94168 30.628124 266.00418Q30.628124 265.09793 30.1125 264.5823Q29.6125 264.05106 28.784374 264.05106Q28.284374 264.05106 27.8625 264.28543Q27.45625 264.5198 27.221874 264.87918L26.2375 264.75418L27.065624 260.34793L31.346874 260.34793L31.346874 261.34793L27.909374 261.34793L27.45625 263.66043Q28.221874 263.11356 29.065624 263.11356Q30.190624 263.11356 30.95625 263.8948Q31.7375 264.67606 31.7375 265.91043Q31.7375 267.06668 31.065624 267.92606Q30.2375 268.9573 28.815624 268.9573Q27.64375 268.9573 26.89375 268.30106Q26.159374 267.6448 26.05 266.56668ZM33.05 264.5823Q33.05 263.05106 33.3625 262.12918Q33.675 261.19168 34.284374 260.69168Q34.909374 260.19168 35.846874 260.19168Q36.534374 260.19168 37.05 260.47293Q37.58125 260.75418 37.925 261.28543Q38.26875 261.80106 38.45625 262.55106Q38.64375 263.30106 38.64375 264.5823Q38.64375 266.09793 38.33125 267.0198Q38.034374 267.94168 37.409374 268.4573Q36.8 268.9573 35.846874 268.9573Q34.6125 268.9573 33.89375 268.06668Q33.05 267.00418 33.05 264.5823ZM34.128124 264.5823Q34.128124 266.69168 34.628124 267.3948Q35.128124 268.09793 35.846874 268.09793Q36.58125 268.09793 37.065624 267.3948Q37.565624 266.69168 37.565624 264.5823Q37.565624 262.4573 37.065624 261.7698Q36.58125 261.06668 35.83125 261.06668Q35.1125 261.06668 34.675 261.67606Q34.128124 262.4573 34.128124 264.5823ZM40.05 264.5823Q40.05 263.05106 40.3625 262.12918Q40.675 261.19168 41.284374 260.69168Q41.909374 260.19168 42.846874 260.19168Q43.534374 260.19168 44.05 260.47293Q44.58125 260.75418 44.925 261.28543Q45.26875 261.80106 45.45625 262.55106Q45.64375 263.30106 45.64375 264.5823Q45.64375 266.09793 45.33125 267.0198Q45.034374 267.94168 44.409374 268.4573Q43.8 268.9573 42.846874 268.9573Q41.6125 268.9573 40.89375 268.06668Q40.05 267.00418 40.05 264.5823ZM41.128124 264.5823Q41.128124 266.69168 41.628124 267.3948Q42.128124 268.09793 42.846874 268.09793Q43.58125 268.09793 44.065624 267.3948Q44.565624 266.69168 44.565624 264.5823Q44.565624 262.4573 44.065624 261.7698Q43.58125 261.06668 42.83125 261.06668Q42.1125 261.06668 41.675 261.67606Q41.128124 262.4573 41.128124 264.5823Z" fill-rule="nonzero"/><path fill="#000000" d="M23.01875 201.18333L21.971874 201.18333L21.971874 194.46458Q21.58125 194.82396 20.95625 195.19896Q20.346874 195.55833 19.8625 195.73021L19.8625 194.71458Q20.7375 194.29271 21.39375 193.71458Q22.065624 193.12083 22.346874 192.55833L23.01875 192.55833L23.01875 201.18333ZM26.05 196.94896Q26.05 195.41771 26.3625 194.49583Q26.675 193.55833 27.284374 193.05833Q27.909374 192.55833 28.846874 192.55833Q29.534374 192.55833 30.05 192.83958Q30.58125 193.12083 30.925 193.65208Q31.26875 194.16771 31.45625 194.91771Q31.64375 195.66771 31.64375 196.94896Q31.64375 198.46458 31.33125 199.38646Q31.034374 200.30833 30.409374 200.82396Q29.8 201.32396 28.846874 201.32396Q27.6125 201.32396 26.89375 200.43333Q26.05 199.37083 26.05 196.94896ZM27.128124 196.94896Q27.128124 199.05833 27.628124 199.76146Q28.128124 200.46458 28.846874 200.46458Q29.58125 200.46458 30.065624 199.76146Q30.565624 199.05833 30.565624 196.94896Q30.565624 194.82396 30.065624 194.13646Q29.58125 193.43333 28.83125 193.43333Q28.1125 193.43333 27.675 194.04271Q27.128124 194.82396 27.128124 196.94896ZM33.05 196.94896Q33.05 195.41771 33.3625 194.49583Q33.675 193.55833 34.284374 193.05833Q34.909374 192.55833 35.846874 192.55833Q36.534374 192.55833 37.05 192.83958Q37.58125 193.12083 37.925 193.65208Q38.26875 194.16771 38.45625 194.91771Q38.64375 195.66771 38.64375 196.94896Q38.64375 198.46458 38.33125 199.38646Q38.034374 200.30833 37.409374 200.82396Q36.8 201.32396 35.846874 201.32396Q34.6125 201.32396 33.89375 200.43333Q33.05 199.37083 33.05 196.94896ZM34.128124 196.94896Q34.128124 199.05833 34.628124 199.76146Q35.128124 200.46458 35.846874 200.46458Q36.58125 200.46458 37.065624 199.76146Q37.565624 199.05833 37.565624 196.94896Q37.565624 194.82396 37.065624 194.13646Q36.58125 193.43333 35.83125 193.43333Q35.1125 193.43333 34.675 194.04271Q34.128124 194.82396 34.128124 196.94896ZM40.05 196.94896Q40.05 195.41771 40.3625 194.49583Q40.675 193.55833 41.284374 193.05833Q41.909374 192.55833 42.846874 192.55833Q43.534374 192.55833 44.05 192.83958Q44.58125 193.12083 44.925 193.65208Q45.26875 194.16771 45.45625 194.91771Q45.64375 195.66771 45.64375 196.94896Q45.64375 198.46458 45.33125 199.38646Q45.034374 200.30833 44.409374 200.82396Q43.8 201.32396 42.846874 201.32396Q41.6125 201.32396 40.89375 200.43333Q40.05 199.37083 40.05 196.94896ZM41.128124 196.94896Q41.128124 199.05833 41.628124 199.76146Q42.128124 200.46458 42.846874 200.46458Q43.58125 200.46458 44.065624 199.76146Q44.565624 199.05833 44.565624 196.94896Q44.565624 194.82396 44.065624 194.13646Q43.58125 193.43333 42.83125 193.43333Q42.1125 193.43333 41.675 194.04271Q41.128124 194.82396 41.128124 196.94896Z" fill-rule="nonzero"/><path fill="#000000" d="M23.01875 133.55L21.971874 133.55L21.971874 126.83125Q21.58125 127.19063 20.95625 127.56563Q20.346874 127.925 19.8625 128.09688L19.8625 127.08125Q20.7375 126.65938 21.39375 126.08125Q22.065624 125.4875 22.346874 124.925L23.01875 124.925L23.01875 133.55ZM26.05 131.3L27.159374 131.20625Q27.284374 132.01875 27.721874 132.425Q28.175 132.83125 28.815624 132.83125Q29.565624 132.83125 30.096874 132.25313Q30.628124 131.675 30.628124 130.7375Q30.628124 129.83125 30.1125 129.31563Q29.6125 128.78438 28.784374 128.78438Q28.284374 128.78438 27.8625 129.01875Q27.45625 129.25313 27.221874 129.6125L26.2375 129.4875L27.065624 125.08125L31.346874 125.08125L31.346874 126.08125L27.909374 126.08125L27.45625 128.39375Q28.221874 127.84688 29.065624 127.84688Q30.190624 127.84688 30.95625 128.62813Q31.7375 129.40938 31.7375 130.64375Q31.7375 131.8 31.065624 132.65938Q30.2375 133.69063 28.815624 133.69063Q27.64375 133.69063 26.89375 133.03438Q26.159374 132.37813 26.05 131.3ZM33.05 129.31563Q33.05 127.78438 33.3625 126.8625Q33.675 125.925 34.284374 125.425Q34.909374 124.925 35.846874 124.925Q36.534374 124.925 37.05 125.20625Q37.58125 125.4875 37.925 126.01875Q38.26875 126.53438 38.45625 127.28438Q38.64375 128.03438 38.64375 129.31563Q38.64375 130.83125 38.33125 131.75313Q38.034374 132.675 37.409374 133.19063Q36.8 133.69063 35.846874 133.69063Q34.6125 133.69063 33.89375 132.8Q33.05 131.7375 33.05 129.31563ZM34.128124 129.31563Q34.128124 131.425 34.628124 132.12813Q35.128124 132.83125 35.846874 132.83125Q36.58125 132.83125 37.065624 132.12813Q37.565624 131.425 37.565624 129.31563Q37.565624 127.19063 37.065624 126.50313Q36.58125 125.8 35.83125 125.8Q35.1125 125.8 34.675 126.40938Q34.128124 127.19063 34.128124 129.31563ZM40.05 129.31563Q40.05 127.78438 40.3625 126.8625Q40.675 125.925 41.284374 125.425Q41.909374 124.925 42.846874 124.925Q43.534374 124.925 44.05 125.20625Q44.58125 125.4875 44.925 126.01875Q45.26875 126.53438 45.45625 127.28438Q45.64375 128.03438 45.64375 129.31563Q45.64375 130.83125 45.33125 131.75313Q45.034374 132.675 44.409374 133.19063Q43.8 133.69063 42.846874 133.69063Q41.6125 133.69063 40.89375 132.8Q40.05 131.7375 40.05 129.31563ZM41.128124 129.31563Q41.128124 131.425 41.628124 132.12813Q42.128124 132.83125 42.846874 132.83125Q43.58125 132.83125 44.065624 132.12813Q44.565624 131.425 44.565624 129.31563Q44.565624 127.19063 44.065624 126.50313Q43.58125 125.8 42.83125 125.8Q42.1125 125.8 41.675 126.40938Q41.128124 127.19063 41.128124 129.31563Z" fill-rule="nonzero"/><path fill="#000000" d="M24.596874 64.90104L24.596874 65.916664L18.909374 65.916664Q18.909374 65.541664 19.034374 65.18229Q19.253124 64.604164 19.721874 64.041664Q20.20625 63.479164 21.1125 62.74479Q22.51875 61.58854 23.003124 60.916664Q23.503124 60.24479 23.503124 59.65104Q23.503124 59.02604 23.05 58.604164Q22.596874 58.166664 21.878124 58.166664Q21.1125 58.166664 20.659374 58.61979Q20.20625 59.072914 20.190624 59.885414L19.1125 59.77604Q19.221874 58.55729 19.940624 57.93229Q20.675 57.291664 21.909374 57.291664Q23.14375 57.291664 23.8625 57.979164Q24.58125 58.666664 24.58125 59.68229Q24.58125 60.197914 24.3625 60.697914Q24.159374 61.18229 23.659374 61.74479Q23.175 62.291664 22.05 63.24479Q21.096874 64.041664 20.815624 64.33854Q20.55 64.61979 20.378124 64.90104L24.596874 64.90104ZM26.05 61.68229Q26.05 60.15104 26.3625 59.229164Q26.675 58.291664 27.284374 57.791664Q27.909374 57.291664 28.846874 57.291664Q29.534374 57.291664 30.05 57.572914Q30.58125 57.854164 30.925 58.385414Q31.26875 58.90104 31.45625 59.65104Q31.64375 60.40104 31.64375 61.68229Q31.64375 63.197914 31.33125 64.11979Q31.034374 65.041664 30.409374 65.55729Q29.8 66.05729 28.846874 66.05729Q27.6125 66.05729 26.89375 65.166664Q26.05 64.104164 26.05 61.68229ZM27.128124 61.68229Q27.128124 63.791664 27.628124 64.49479Q28.128124 65.197914 28.846874 65.197914Q29.58125 65.197914 30.065624 64.49479Q30.565624 63.791664 30.565624 61.68229Q30.565624 59.55729 30.065624 58.86979Q29.58125 58.166664 28.83125 58.166664Q28.1125 58.166664 27.675 58.77604Q27.128124 59.55729 27.128124 61.68229ZM33.05 61.68229Q33.05 60.15104 33.3625 59.229164Q33.675 58.291664 34.284374 57.791664Q34.909374 57.291664 35.846874 57.291664Q36.534374 57.291664 37.05 57.572914Q37.58125 57.854164 37.925 58.385414Q38.26875 58.90104 38.45625 59.65104Q38.64375 60.40104 38.64375 61.68229Q38.64375 63.197914 38.33125 64.11979Q38.034374 65.041664 37.409374 65.55729Q36.8 66.05729 35.846874 66.05729Q34.6125 66.05729 33.89375 65.166664Q33.05 64.104164 33.05 61.68229ZM34.128124 61.68229Q34.128124 63.791664 34.628124 64.49479Q35.128124 65.197914 35.846874 65.197914Q36.58125 65.197914 37.065624 64.49479Q37.565624 63.791664 37.565624 61.68229Q37.565624 59.55729 37.065624 58.86979Q36.58125 58.166664 35.83125 58.166664Q35.1125 58.166664 34.675 58.77604Q34.128124 59.55729 34.128124 61.68229ZM40.05 61.68229Q40.05 60.15104 40.3625 59.229164Q40.675 58.291664 41.284374 57.791664Q41.909374 57.291664 42.846874 57.291664Q43.534374 57.291664 44.05 57.572914Q44.58125 57.854164 44.925 58.385414Q45.26875 58.90104 45.45625 59.65104Q45.64375 60.40104 45.64375 61.68229Q45.64375 63.197914 45.33125 64.11979Q45.034374 65.041664 44.409374 65.55729Q43.8 66.05729 42.846874 66.05729Q41.6125 66.05729 40.89375 65.166664Q40.05 64.104164 40.05 61.68229ZM41.128124 61.68229Q41.128124 63.791664 41.628124 64.49479Q42.128124 65.197914 42.846874 65.197914Q43.58125 65.197914 44.065624 64.49479Q44.565624 63.791664 44.565624 61.68229Q44.565624 59.55729 44.065624 58.86979Q43.58125 58.166664 42.83125 58.166664Q42.1125 58.166664 41.675 58.77604Q41.128124 59.55729 41.128124 61.68229Z" fill-rule="nonzero"/><path fill="#000000" d="M144.45245 349.45L147.74933 340.85626L148.96808 340.85626L152.4837 349.45L151.20245 349.45L150.18683 346.84064L146.6087 346.84064L145.65558 349.45L144.45245 349.45ZM146.93683 345.91876L149.84308 345.91876L148.95245 343.54376Q148.53058 342.46564 148.34308 341.7625Q148.1712 342.59064 147.87433 343.40314L146.93683 345.91876ZM152.24933 349.45L152.24933 343.23126L153.20245 343.23126L153.20245 344.16876Q153.56183 343.5125 153.8587 343.3094Q154.1712 343.09064 154.5462 343.09064Q155.07745 343.09064 155.62433 343.41876L155.26495 344.40314Q154.87433 344.16876 154.49933 344.16876Q154.13995 344.16876 153.8587 344.3875Q153.59308 344.59064 153.4837 344.96564Q153.2962 345.52814 153.2962 346.1844L153.2962 349.45L152.24933 349.45ZM158.56183 348.5125L158.71808 349.4344Q158.26495 349.52814 157.9212 349.52814Q157.34308 349.52814 157.03058 349.35626Q156.71808 349.16876 156.57745 348.8719Q156.45245 348.575 156.45245 347.6219L156.45245 344.04376L155.68683 344.04376L155.68683 343.23126L156.45245 343.23126L156.45245 341.6844L157.49933 341.0594L157.49933 343.23126L158.56183 343.23126L158.56183 344.04376L157.49933 344.04376L157.49933 347.6844Q157.49933 348.1375 157.5462 348.2625Q157.6087 348.3875 157.7337 348.46564Q157.8587 348.54376 158.09308 348.54376Q158.28058 348.54376 158.56183 348.5125ZM163.51495 347.45L164.6087 347.575Q164.3587 348.52814 163.65558 349.0594Q162.95245 349.59064 161.87433 349.59064Q160.51495 349.59064 159.70245 348.7469Q158.90558 347.90314 158.90558 346.3875Q158.90558 344.825 159.71808 343.96564Q160.53058 343.09064 161.81183 343.09064Q163.06183 343.09064 163.84308 343.9344Q164.63995 344.77814 164.63995 346.325Q164.63995 346.41876 164.63995 346.60626L159.99933 346.60626Q160.06183 347.6375 160.57745 348.1844Q161.09308 348.71564 161.87433 348.71564Q162.45245 348.71564 162.8587 348.41876Q163.28058 348.10626 163.51495 347.45ZM160.06183 345.7469L163.53058 345.7469Q163.46808 344.95 163.13995 344.5594Q162.62433 343.95 161.82745 343.95Q161.09308 343.95 160.59308 344.4344Q160.1087 344.91876 160.06183 345.7469ZM166.26495 349.45L166.26495 343.23126L167.20245 343.23126L167.20245 344.10626Q167.49933 343.6375 167.9837 343.3719Q168.46808 343.09064 169.09308 343.09064Q169.78058 343.09064 170.21808 343.3719Q170.6712 343.65314 170.84308 344.16876Q171.59308 343.09064 172.76495 343.09064Q173.70245 343.09064 174.18683 343.60626Q174.68683 344.10626 174.68683 345.1844L174.68683 349.45L173.63995 349.45L173.63995 345.52814Q173.63995 344.90314 173.53058 344.6219Q173.43683 344.34064 173.1712 344.16876Q172.90558 343.9969 172.53058 343.9969Q171.87433 343.9969 171.43683 344.4344Q171.01495 344.8719 171.01495 345.84064L171.01495 349.45L169.95245 349.45L169.95245 345.40314Q169.95245 344.7 169.68683 344.35626Q169.43683 343.9969 168.8587 343.9969Q168.40558 343.9969 168.03058 344.23126Q167.65558 344.46564 167.4837 344.91876Q167.31183 345.3719 167.31183 346.21564L167.31183 349.45L166.26495 349.45ZM177.26495 342.075L177.26495 340.85626L178.32745 340.85626L178.32745 342.075L177.26495 342.075ZM177.26495 349.45L177.26495 343.23126L178.32745 343.23126L178.32745 349.45L177.26495 349.45ZM179.84308 347.59064L180.87433 347.4344Q180.96808 348.0594 181.3587 348.3875Q181.76495 348.71564 182.49933 348.71564Q183.21808 348.71564 183.56183 348.4344Q183.9212 348.1375 183.9212 347.73126Q183.9212 347.3719 183.6087 347.16876Q183.38995 347.02814 182.53058 346.8094Q181.37433 346.5125 180.9212 346.3094Q180.4837 346.09064 180.24933 345.71564Q180.01495 345.34064 180.01495 344.8719Q180.01495 344.46564 180.20245 344.10626Q180.38995 343.7469 180.71808 343.5125Q180.96808 343.34064 181.38995 343.21564Q181.81183 343.09064 182.31183 343.09064Q183.03058 343.09064 183.57745 343.3094Q184.13995 343.5125 184.40558 343.8719Q184.6712 344.23126 184.76495 344.825L183.7337 344.96564Q183.6712 344.4969 183.32745 344.23126Q182.99933 343.95 182.37433 343.95Q181.65558 343.95 181.34308 344.2Q181.03058 344.4344 181.03058 344.7625Q181.03058 344.96564 181.15558 345.1219Q181.2962 345.29376 181.56183 345.40314Q181.71808 345.46564 182.49933 345.66876Q183.62433 345.98126 184.06183 346.16876Q184.49933 346.35626 184.74933 346.71564Q184.99933 347.075 184.99933 347.6219Q184.99933 348.15314 184.68683 348.6219Q184.38995 349.075 183.81183 349.34064Q183.2337 349.59064 182.49933 349.59064Q181.28058 349.59064 180.63995 349.09064Q180.01495 348.575 179.84308 347.59064ZM187.38995 349.45L187.38995 340.85626L188.5462 340.85626L193.06183 347.60626L193.06183 340.85626L194.15558 340.85626L194.15558 349.45L192.9837 349.45L188.46808 342.7L188.46808 349.45L187.38995 349.45ZM200.51495 347.45L201.6087 347.575Q201.3587 348.52814 200.65558 349.0594Q199.95245 349.59064 198.87433 349.59064Q197.51495 349.59064 196.70245 348.7469Q195.90558 347.90314 195.90558 346.3875Q195.90558 344.825 196.71808 343.96564Q197.53058 343.09064 198.81183 343.09064Q200.06183 343.09064 200.84308 343.9344Q201.63995 344.77814 201.63995 346.325Q201.63995 346.41876 201.63995 346.60626L196.99933 346.60626Q197.06183 347.6375 197.57745 348.1844Q198.09308 348.71564 198.87433 348.71564Q199.45245 348.71564 199.8587 348.41876Q200.28058 348.10626 200.51495 347.45ZM197.06183 345.7469L200.53058 345.7469Q200.46808 344.95 200.13995 344.5594Q199.62433 343.95 198.82745 343.95Q198.09308 343.95 197.59308 344.4344Q197.1087 344.91876 197.06183 345.7469ZM205.56183 348.5125L205.71808 349.4344Q205.26495 349.52814 204.9212 349.52814Q204.34308 349.52814 204.03058 349.35626Q203.71808 349.16876 203.57745 348.8719Q203.45245 348.575 203.45245 347.6219L203.45245 344.04376L202.68683 344.04376L202.68683 343.23126L203.45245 343.23126L203.45245 341.6844L204.49933 341.0594L204.49933 343.23126L205.56183 343.23126L205.56183 344.04376L204.49933 344.04376L204.49933 347.6844Q204.49933 348.1375 204.5462 348.2625Q204.6087 348.3875 204.7337 348.46564Q204.8587 348.54376 205.09308 348.54376Q205.28058 348.54376 205.56183 348.5125ZM212.53058 346.4344L213.65558 346.73126Q213.2962 348.1219 212.37433 348.85626Q211.45245 349.59064 210.1087 349.59064Q208.71808 349.59064 207.84308 349.02814Q206.96808 348.46564 206.51495 347.40314Q206.06183 346.325 206.06183 345.09064Q206.06183 343.7469 206.57745 342.7469Q207.09308 341.7469 208.03058 341.23126Q208.9837 340.71564 210.12433 340.71564Q211.40558 340.71564 212.28058 341.3719Q213.1712 342.02814 213.51495 343.21564L212.38995 343.48126Q212.09308 342.54376 211.51495 342.1219Q210.95245 341.6844 210.09308 341.6844Q209.1087 341.6844 208.43683 342.16876Q207.78058 342.6375 207.49933 343.4344Q207.2337 344.23126 207.2337 345.09064Q207.2337 346.1844 207.5462 346.9969Q207.87433 347.8094 208.5462 348.21564Q209.21808 348.6219 210.01495 348.6219Q210.96808 348.6219 211.62433 348.075Q212.2962 347.52814 212.53058 346.4344ZM214.87433 346.34064Q214.87433 344.60626 215.82745 343.77814Q216.62433 343.09064 217.78058 343.09064Q219.06183 343.09064 219.87433 343.9344Q220.70245 344.7625 220.70245 346.2469Q220.70245 347.45 220.34308 348.1375Q219.9837 348.825 219.28058 349.21564Q218.59308 349.59064 217.78058 349.59064Q216.4837 349.59064 215.6712 348.7625Q214.87433 347.91876 214.87433 346.34064ZM215.95245 346.34064Q215.95245 347.52814 216.46808 348.1219Q216.99933 348.71564 217.78058 348.71564Q218.57745 348.71564 219.09308 348.1219Q219.6087 347.52814 219.6087 346.3094Q219.6087 345.15314 219.07745 344.5594Q218.56183 343.96564 217.78058 343.96564Q216.99933 343.96564 216.46808 344.5594Q215.95245 345.1375 215.95245 346.34064ZM222.24933 349.45L222.24933 343.23126L223.20245 343.23126L223.20245 344.16876Q223.56183 343.5125 223.8587 343.3094Q224.1712 343.09064 224.5462 343.09064Q225.07745 343.09064 225.62433 343.41876L225.26495 344.40314Q224.87433 344.16876 224.49933 344.16876Q224.13995 344.16876 223.8587 344.3875Q223.59308 344.59064 223.4837 344.96564Q223.2962 345.52814 223.2962 346.1844L223.2962 349.45L222.24933 349.45ZM230.51495 347.45L231.6087 347.575Q231.3587 348.52814 230.65558 349.0594Q229.95245 349.59064 228.87433 349.59064Q227.51495 349.59064 226.70245 348.7469Q225.90558 347.90314 225.90558 346.3875Q225.90558 344.825 226.71808 343.96564Q227.53058 343.09064 228.81183 343.09064Q230.06183 343.09064 230.84308 343.9344Q231.63995 344.77814 231.63995 346.325Q231.63995 346.41876 231.63995 346.60626L226.99933 346.60626Q227.06183 347.6375 227.57745 348.1844Q228.09308 348.71564 228.87433 348.71564Q229.45245 348.71564 229.8587 348.41876Q230.28058 348.10626 230.51495 347.45ZM227.06183 345.7469L230.53058 345.7469Q230.46808 344.95 230.13995 344.5594Q229.62433 343.95 228.82745 343.95Q228.09308 343.95 227.59308 344.4344Q227.1087 344.91876 227.06183 345.7469ZM239.53058 346.4344L240.65558 346.73126Q240.2962 348.1219 239.37433 348.85626Q238.45245 349.59064 237.1087 349.59064Q235.71808 349.59064 234.84308 349.02814Q233.96808 348.46564 233.51495 347.40314Q233.06183 346.325 233.06183 345.09064Q233.06183 343.7469 233.57745 342.7469Q234.09308 341.7469 235.03058 341.23126Q235.9837 340.71564 237.12433 340.71564Q238.40558 340.71564 239.28058 341.3719Q240.1712 342.02814 240.51495 343.21564L239.38995 343.48126Q239.09308 342.54376 238.51495 342.1219Q237.95245 341.6844 237.09308 341.6844Q236.1087 341.6844 235.43683 342.16876Q234.78058 342.6375 234.49933 343.4344Q234.2337 344.23126 234.2337 345.09064Q234.2337 346.1844 234.5462 346.9969Q234.87433 347.8094 235.5462 348.21564Q236.21808 348.6219 237.01495 348.6219Q237.96808 348.6219 238.62433 348.075Q239.2962 347.52814 239.53058 346.4344ZM242.2337 349.45L242.2337 340.85626L243.2962 340.85626L243.2962 349.45L242.2337 349.45ZM245.26495 342.075L245.26495 340.85626L246.32745 340.85626L246.32745 342.075L245.26495 342.075ZM245.26495 349.45L245.26495 343.23126L246.32745 343.23126L246.32745 349.45L245.26495 349.45ZM252.51495 347.45L253.6087 347.575Q253.3587 348.52814 252.65558 349.0594Q251.95245 349.59064 250.87433 349.59064Q249.51495 349.59064 248.70245 348.7469Q247.90558 347.90314 247.90558 346.3875Q247.90558 344.825 248.71808 343.96564Q249.53058 343.09064 250.81183 343.09064Q252.06183 343.09064 252.84308 343.9344Q253.63995 344.77814 253.63995 346.325Q253.63995 346.41876 253.63995 346.60626L248.99933 346.60626Q249.06183 347.6375 249.57745 348.1844Q250.09308 348.71564 250.87433 348.71564Q251.45245 348.71564 251.8587 348.41876Q252.28058 348.10626 252.51495 347.45ZM249.06183 345.7469L252.53058 345.7469Q252.46808 344.95 252.13995 344.5594Q251.62433 343.95 250.82745 343.95Q250.09308 343.95 249.59308 344.4344Q249.1087 344.91876 249.06183 345.7469ZM255.26495 349.45L255.26495 343.23126L256.20245 343.23126L256.20245 344.10626Q256.88995 343.09064 258.18683 343.09064Q258.74933 343.09064 259.21808 343.29376Q259.70245 343.4969 259.93683 343.825Q260.1712 344.15314 260.26495 344.59064Q260.31183 344.8875 260.31183 345.6219L260.31183 349.45L259.26495 349.45L259.26495 345.66876Q259.26495 345.0125 259.13995 344.7Q259.01495 344.3875 258.70245 344.2Q258.38995 343.9969 257.96808 343.9969Q257.2962 343.9969 256.7962 344.4344Q256.31183 344.85626 256.31183 346.04376L256.31183 349.45L255.26495 349.45ZM264.56183 348.5125L264.71808 349.4344Q264.26495 349.52814 263.9212 349.52814Q263.34308 349.52814 263.03058 349.35626Q262.71808 349.16876 262.57745 348.8719Q262.45245 348.575 262.45245 347.6219L262.45245 344.04376L261.68683 344.04376L261.68683 343.23126L262.45245 343.23126L262.45245 341.6844L263.49933 341.0594L263.49933 343.23126L264.56183 343.23126L264.56183 344.04376L263.49933 344.04376L263.49933 347.6844Q263.49933 348.1375 263.5462 348.2625Q263.6087 348.3875 263.7337 348.46564Q263.8587 348.54376 264.09308 348.54376Q264.28058 348.54376 264.56183 348.5125Z" fill-rule="nonzero"/><path fill="#000000" d="M399.4538 349.45L399.4538 340.85626L400.61005 340.85626L405.12567 347.60626L405.12567 340.85626L406.21942 340.85626L406.21942 349.45L405.04755 349.45L400.53192 342.7L400.53192 349.45L399.4538 349.45ZM408.42255 349.45L408.42255 340.85626L410.1413 340.85626L412.17255 346.9344Q412.4538 347.79376 412.5788 348.21564Q412.71942 347.7469 413.03192 346.84064L415.09442 340.85626L416.62567 340.85626L416.62567 349.45L415.53192 349.45L415.53192 342.2625L413.03192 349.45L412.00067 349.45L409.5163 342.1375L409.5163 349.45L408.42255 349.45ZM417.0788 346.6844L418.1413 346.59064Q418.21942 347.2469 418.50067 347.65314Q418.78192 348.0594 419.36005 348.325Q419.9538 348.575 420.68817 348.575Q421.3288 348.575 421.8288 348.3875Q422.3288 348.1844 422.56317 347.85626Q422.81317 347.5125 422.81317 347.1219Q422.81317 346.71564 422.5788 346.41876Q422.34442 346.10626 421.81317 345.90314Q421.4538 345.7625 420.2663 345.48126Q419.09442 345.2 418.62567 344.95Q418.00067 344.6219 417.7038 344.15314Q417.40692 343.66876 417.40692 343.075Q417.40692 342.4344 417.7663 341.8719Q418.1413 341.29376 418.84442 341.0125Q419.56317 340.71564 420.42255 340.71564Q421.37567 340.71564 422.11005 341.02814Q422.84442 341.325 423.23505 341.9344Q423.62567 342.52814 423.65692 343.27814L422.56317 343.35626Q422.46942 342.54376 421.9538 342.1375Q421.4538 341.71564 420.46942 341.71564Q419.43817 341.71564 418.96942 342.09064Q418.50067 342.46564 418.50067 342.9969Q418.50067 343.46564 418.8288 343.7625Q419.15692 344.0594 420.53192 344.3719Q421.92255 344.6844 422.43817 344.91876Q423.18817 345.27814 423.54755 345.8094Q423.90692 346.325 423.90692 347.02814Q423.90692 347.71564 423.5163 348.325Q423.12567 348.91876 422.3913 349.2625Q421.65692 349.59064 420.73505 349.59064Q419.56317 349.59064 418.7663 349.2625Q417.98505 348.91876 417.53192 348.23126Q417.09442 347.54376 417.0788 346.6844ZM425.62567 349.45L425.62567 348.2469L426.8288 348.2469L426.8288 349.45L425.62567 349.45ZM427.5163 349.45L430.81317 340.85626L432.03192 340.85626L435.54755 349.45L434.2663 349.45L433.25067 346.84064L429.67255 346.84064L428.71942 349.45L427.5163 349.45ZM430.00067 345.91876L432.90692 345.91876L432.0163 343.54376Q431.59442 342.46564 431.40692 341.7625Q431.23505 342.59064 430.93817 343.40314L430.00067 345.91876ZM435.42255 349.45L435.42255 340.85626L437.1413 340.85626L439.17255 346.9344Q439.4538 347.79376 439.5788 348.21564Q439.71942 347.7469 440.03192 346.84064L442.09442 340.85626L443.62567 340.85626L443.62567 349.45L442.53192 349.45L442.53192 342.2625L440.03192 349.45L439.00067 349.45L436.5163 342.1375L436.5163 349.45L435.42255 349.45ZM450.96942 348.52814Q451.7663 349.075 452.42255 349.325L452.09442 350.1219Q451.17255 349.77814 450.25067 349.0594Q449.29755 349.59064 448.1413 349.59064Q446.96942 349.59064 446.0163 349.02814Q445.0788 348.46564 444.56317 347.45Q444.04755 346.4344 444.04755 345.15314Q444.04755 343.8875 444.56317 342.84064Q445.0788 341.79376 446.03192 341.2469Q446.98505 340.7 448.15692 340.7Q449.34442 340.7 450.29755 341.27814Q451.2663 341.84064 451.7663 342.85626Q452.2663 343.8719 452.2663 345.15314Q452.2663 346.21564 451.93817 347.0594Q451.62567 347.90314 450.96942 348.52814ZM448.46942 347.075Q449.4538 347.35626 450.09442 347.90314Q451.09442 346.98126 451.09442 345.15314Q451.09442 344.10626 450.73505 343.325Q450.37567 342.54376 449.68817 342.1219Q449.0163 341.6844 448.17255 341.6844Q446.8913 341.6844 446.04755 342.5594Q445.21942 343.41876 445.21942 345.15314Q445.21942 346.825 446.04755 347.73126Q446.87567 348.6219 448.17255 348.6219Q448.78192 348.6219 449.31317 348.3875Q448.78192 348.04376 448.18817 347.90314L448.46942 347.075ZM453.4538 349.45L453.4538 340.85626L456.7038 340.85626Q457.54755 340.85626 458.00067 340.9344Q458.6413 341.04376 459.06317 341.34064Q459.50067 341.6375 459.75067 342.16876Q460.0163 342.7 460.0163 343.34064Q460.0163 344.4344 459.31317 345.2Q458.62567 345.95 456.79755 345.95L454.59442 345.95L454.59442 349.45L453.4538 349.45ZM454.59442 344.95L456.81317 344.95Q457.92255 344.95 458.37567 344.54376Q458.84442 344.1219 458.84442 343.3719Q458.84442 342.84064 458.56317 342.46564Q458.29755 342.075 457.86005 341.95Q457.56317 341.8719 456.79755 341.8719L454.59442 341.8719L454.59442 344.95Z" fill-rule="nonzero"/><path fill="#757575" d="M20.128124 37.55L20.128124 23.2375L26.471874 23.2375Q28.378124 23.2375 29.378124 23.628124Q30.378124 24.003124 30.971874 24.9875Q31.565624 25.95625 31.565624 27.14375Q31.565624 28.659374 30.58125 29.70625Q29.596874 30.753124 27.534374 31.034374Q28.284374 31.39375 28.675 31.753124Q29.503124 32.503124 30.253124 33.659374L32.7375 37.55L30.3625 37.55L28.45625 34.565624Q27.628124 33.284374 27.096874 32.596874Q26.565624 31.909374 26.128124 31.64375Q25.70625 31.3625 25.26875 31.253124Q24.940624 31.190624 24.221874 31.190624L22.01875 31.190624L22.01875 37.55L20.128124 37.55ZM22.01875 29.55L26.096874 29.55Q27.39375 29.55 28.1125 29.284374Q28.846874 29.01875 29.221874 28.425Q29.6125 27.83125 29.6125 27.14375Q29.6125 26.128124 28.878124 25.471874Q28.14375 24.815624 26.55 24.815624L22.01875 24.815624L22.01875 29.55ZM33.221874 32.3625Q33.221874 29.4875 34.815624 28.096874Q36.159374 26.940624 38.08125 26.940624Q40.221874 26.940624 41.565624 28.346874Q42.925 29.753124 42.925 32.221874Q42.925 34.221874 42.33125 35.378124Q41.7375 36.51875 40.58125 37.159374Q39.440624 37.784374 38.08125 37.784374Q35.89375 37.784374 34.55 36.39375Q33.221874 34.9875 33.221874 32.3625ZM35.01875 32.3625Q35.01875 34.3625 35.878124 35.346874Q36.753124 36.33125 38.08125 36.33125Q39.39375 36.33125 40.253124 35.346874Q41.128124 34.346874 41.128124 32.3Q41.128124 30.378124 40.253124 29.39375Q39.378124 28.39375 38.08125 28.39375Q36.753124 28.39375 35.878124 29.39375Q35.01875 30.378124 35.01875 32.3625ZM51.659374 37.55L51.659374 36.01875Q50.45625 37.784374 48.378124 37.784374Q47.45625 37.784374 46.659374 37.440624Q45.8625 37.08125 45.471874 36.55Q45.096874 36.01875 44.940624 35.2375Q44.83125 34.721874 44.83125 33.596874L44.83125 27.175L46.58125 27.175L46.58125 32.925Q46.58125 34.3 46.690624 34.784374Q46.8625 35.471874 47.39375 35.878124Q47.940624 36.26875 48.721874 36.26875Q49.51875 36.26875 50.20625 35.8625Q50.909374 35.45625 51.190624 34.76875Q51.4875 34.065624 51.4875 32.7375L51.4875 27.175L53.2375 27.175L53.2375 37.55L51.659374 37.55ZM54.8625 37.55L54.8625 27.175L56.45625 27.175L56.45625 28.659374Q57.596874 26.940624 59.753124 26.940624Q60.690624 26.940624 61.471874 27.284374Q62.26875 27.6125 62.659374 28.159374Q63.05 28.70625 63.20625 29.45625Q63.3 29.95625 63.3 31.175L63.3 37.55L61.534374 37.55L61.534374 31.2375Q61.534374 30.159374 61.33125 29.628124Q61.128124 29.096874 60.596874 28.784374Q60.08125 28.471874 59.378124 28.471874Q58.253124 28.471874 57.440624 29.190624Q56.628124 29.89375 56.628124 31.878124L56.628124 37.55L54.8625 37.55ZM71.59688 37.55L71.59688 36.2375Q70.6125 37.784374 68.69063 37.784374Q67.45625 37.784374 66.40938 37.096874Q65.37813 36.409374 64.8 35.190624Q64.2375 33.971874 64.2375 32.378124Q64.2375 30.815624 64.75313 29.55Q65.26875 28.284374 66.3 27.6125Q67.34688 26.940624 68.6125 26.940624Q69.55 26.940624 70.28438 27.346874Q71.01875 27.7375 71.4875 28.3625L71.4875 23.2375L73.22188 23.2375L73.22188 37.55L71.59688 37.55ZM66.03438 32.378124Q66.03438 34.3625 66.87813 35.346874Q67.72188 36.33125 68.8625 36.33125Q70.01875 36.33125 70.81563 35.39375Q71.62813 34.45625 71.62813 32.51875Q71.62813 30.39375 70.8 29.39375Q69.9875 28.39375 68.78438 28.39375Q67.6125 28.39375 66.81563 29.3625Q66.03438 30.315624 66.03438 32.378124ZM75.19063 33.253124L75.19063 31.4875L80.58125 31.4875L80.58125 33.253124L75.19063 33.253124ZM86.70625 35.971874L86.95625 37.534374Q86.22188 37.690624 85.62813 37.690624Q84.675 37.690624 84.14375 37.39375Q83.62813 37.08125 83.40938 36.596874Q83.19063 36.096874 83.19063 34.51875L83.19063 28.55L81.90938 28.55L81.90938 27.175L83.19063 27.175L83.19063 24.6125L84.94063 23.55L84.94063 27.175L86.70625 27.175L86.70625 28.55L84.94063 28.55L84.94063 34.6125Q84.94063 35.3625 85.03438 35.58125Q85.12813 35.784374 85.33125 35.925Q85.55 36.05 85.94063 36.05Q86.22188 36.05 86.70625 35.971874ZM88.84688 37.55L88.84688 27.175L90.425 27.175L90.425 28.753124Q91.03438 27.64375 91.55 27.3Q92.06563 26.940624 92.675 26.940624Q93.56563 26.940624 94.4875 27.503124L93.87813 29.14375Q93.2375 28.753124 92.59688 28.753124Q92.01875 28.753124 91.55 29.1125Q91.09688 29.45625 90.89375 30.065624Q90.6125 31.003124 90.6125 32.1125L90.6125 37.55L88.84688 37.55ZM95.87813 25.253124L95.87813 23.2375L97.64375 23.2375L97.64375 25.253124L95.87813 25.253124ZM95.87813 37.55L95.87813 27.175L97.64375 27.175L97.64375 37.55L95.87813 37.55ZM99.8625 41.51875L99.8625 27.175L101.47188 27.175L101.47188 28.51875Q102.03438 27.7375 102.7375 27.346874Q103.45625 26.940624 104.47188 26.940624Q105.8 26.940624 106.81563 27.628124Q107.83125 28.315624 108.34688 29.565624Q108.87813 30.8 108.87813 32.284374Q108.87813 33.878124 108.3 35.159374Q107.7375 36.425 106.64375 37.1125Q105.55 37.784374 104.34688 37.784374Q103.47188 37.784374 102.76875 37.409374Q102.08125 37.034374 101.62813 36.471874L101.62813 41.51875L99.8625 41.51875ZM101.45625 32.425Q101.45625 34.425 102.26875 35.378124Q103.08125 36.33125 104.2375 36.33125Q105.40938 36.33125 106.2375 35.346874Q107.08125 34.3625 107.08125 32.26875Q107.08125 30.3 106.25313 29.315624Q105.44063 28.315624 104.31563 28.315624Q103.19063 28.315624 102.31563 29.378124Q101.45625 30.425 101.45625 32.425ZM110.15938 34.45625L111.90938 34.175Q112.05 35.221874 112.72188 35.784374Q113.39375 36.33125 114.59688 36.33125Q115.8 36.33125 116.37813 35.846874Q116.97188 35.346874 116.97188 34.690624Q116.97188 34.096874 116.45625 33.753124Q116.09688 33.51875 114.65938 33.159374Q112.72188 32.659374 111.97188 32.315624Q111.2375 31.95625 110.84688 31.33125Q110.45625 30.690624 110.45625 29.925Q110.45625 29.2375 110.76875 28.64375Q111.09688 28.05 111.64375 27.659374Q112.05 27.3625 112.75313 27.159374Q113.47188 26.940624 114.28438 26.940624Q115.50313 26.940624 116.425 27.3Q117.34688 27.64375 117.78438 28.253124Q118.22188 28.846874 118.39375 29.846874L116.675 30.08125Q116.55 29.284374 115.9875 28.846874Q115.425 28.39375 114.40938 28.39375Q113.19063 28.39375 112.675 28.8Q112.15938 29.190624 112.15938 29.721874Q112.15938 30.065624 112.37813 30.346874Q112.58125 30.628124 113.05 30.815624Q113.31563 30.909374 114.59688 31.253124Q116.47188 31.753124 117.20625 32.08125Q117.94063 32.39375 118.3625 33.003124Q118.78438 33.596874 118.78438 34.503124Q118.78438 35.378124 118.26875 36.159374Q117.75313 36.940624 116.78438 37.3625Q115.81563 37.784374 114.59688 37.784374Q112.58125 37.784374 111.51875 36.940624Q110.45625 36.096874 110.15938 34.45625ZM126.8625 41.51875L126.8625 27.175L128.47188 27.175L128.47188 28.51875Q129.03438 27.7375 129.7375 27.346874Q130.45625 26.940624 131.47188 26.940624Q132.8 26.940624 133.81563 27.628124Q134.83125 28.315624 135.34688 29.565624Q135.87813 30.8 135.87813 32.284374Q135.87813 33.878124 135.3 35.159374Q134.7375 36.425 133.64375 37.1125Q132.55 37.784374 131.34688 37.784374Q130.47188 37.784374 129.76875 37.409374Q129.08125 37.034374 128.62813 36.471874L128.62813 41.51875L126.8625 41.51875ZM128.45625 32.425Q128.45625 34.425 129.26875 35.378124Q130.08125 36.33125 131.2375 36.33125Q132.40938 36.33125 133.2375 35.346874Q134.08125 34.3625 134.08125 32.26875Q134.08125 30.3 133.25313 29.315624Q132.44063 28.315624 131.31563 28.315624Q130.19063 28.315624 129.31563 29.378124Q128.45625 30.425 128.45625 32.425ZM144.97188 34.20625L146.78438 34.440624Q146.3625 36.01875 145.19063 36.909374Q144.03438 37.784374 142.22188 37.784374Q139.95625 37.784374 138.6125 36.39375Q137.28438 34.9875 137.28438 32.45625Q137.28438 29.83125 138.62813 28.39375Q139.97188 26.940624 142.12813 26.940624Q144.20625 26.940624 145.51875 28.3625Q146.84688 29.76875 146.84688 32.346874Q146.84688 32.503124 146.83125 32.815624L139.09688 32.815624Q139.19063 34.51875 140.06563 35.425Q140.94063 36.33125 142.2375 36.33125Q143.20625 36.33125 143.87813 35.83125Q144.56563 35.315624 144.97188 34.20625ZM139.19063 31.3625L144.9875 31.3625Q144.87813 30.065624 144.33125 29.409374Q143.4875 28.39375 142.14375 28.39375Q140.94063 28.39375 140.1125 29.20625Q139.28438 30.003124 139.19063 31.3625ZM148.84688 37.55L148.84688 27.175L150.425 27.175L150.425 28.753124Q151.03438 27.64375 151.55 27.3Q152.06563 26.940624 152.675 26.940624Q153.56563 26.940624 154.4875 27.503124L153.87813 29.14375Q153.2375 28.753124 152.59688 28.753124Q152.01875 28.753124 151.55 29.1125Q151.09688 29.45625 150.89375 30.065624Q150.6125 31.003124 150.6125 32.1125L150.6125 37.55L148.84688 37.55ZM161.15938 34.45625L162.90938 34.175Q163.05 35.221874 163.72188 35.784374Q164.39375 36.33125 165.59688 36.33125Q166.8 36.33125 167.37813 35.846874Q167.97188 35.346874 167.97188 34.690624Q167.97188 34.096874 167.45625 33.753124Q167.09688 33.51875 165.65938 33.159374Q163.72188 32.659374 162.97188 32.315624Q162.2375 31.95625 161.84688 31.33125Q161.45625 30.690624 161.45625 29.925Q161.45625 29.2375 161.76875 28.64375Q162.09688 28.05 162.64375 27.659374Q163.05 27.3625 163.75313 27.159374Q164.47188 26.940624 165.28438 26.940624Q166.50313 26.940624 167.425 27.3Q168.34688 27.64375 168.78438 28.253124Q169.22188 28.846874 169.39375 29.846874L167.675 30.08125Q167.55 29.284374 166.9875 28.846874Q166.425 28.39375 165.40938 28.39375Q164.19063 28.39375 163.675 28.8Q163.15938 29.190624 163.15938 29.721874Q163.15938 30.065624 163.37813 30.346874Q163.58125 30.628124 164.05 30.815624Q164.31563 30.909374 165.59688 31.253124Q167.47188 31.753124 168.20625 32.08125Q168.94063 32.39375 169.3625 33.003124Q169.78438 33.596874 169.78438 34.503124Q169.78438 35.378124 169.26875 36.159374Q168.75313 36.940624 167.78438 37.3625Q166.81563 37.784374 165.59688 37.784374Q163.58125 37.784374 162.51875 36.940624Q161.45625 36.096874 161.15938 34.45625ZM178.97188 34.20625L180.78438 34.440624Q180.3625 36.01875 179.19063 36.909374Q178.03438 37.784374 176.22188 37.784374Q173.95625 37.784374 172.6125 36.39375Q171.28438 34.9875 171.28438 32.45625Q171.28438 29.83125 172.62813 28.39375Q173.97188 26.940624 176.12813 26.940624Q178.20625 26.940624 179.51875 28.3625Q180.84688 29.76875 180.84688 32.346874Q180.84688 32.503124 180.83125 32.815624L173.09688 32.815624Q173.19063 34.51875 174.06563 35.425Q174.94063 36.33125 176.2375 36.33125Q177.20625 36.33125 177.87813 35.83125Q178.56563 35.315624 178.97188 34.20625ZM173.19063 31.3625L178.9875 31.3625Q178.87813 30.065624 178.33125 29.409374Q177.4875 28.39375 176.14375 28.39375Q174.94063 28.39375 174.1125 29.20625Q173.28438 30.003124 173.19063 31.3625ZM189.64375 33.753124L191.3625 33.971874Q191.08125 35.76875 189.90938 36.784374Q188.75313 37.784374 187.05 37.784374Q184.925 37.784374 183.62813 36.39375Q182.33125 35.003124 182.33125 32.409374Q182.33125 30.721874 182.87813 29.471874Q183.44063 28.20625 184.58125 27.58125Q185.72188 26.940624 187.06563 26.940624Q188.75313 26.940624 189.81563 27.8Q190.89375 28.659374 191.20625 30.221874L189.4875 30.4875Q189.25313 29.440624 188.62813 28.925Q188.00313 28.39375 187.12813 28.39375Q185.8 28.39375 184.97188 29.346874Q184.14375 30.3 184.14375 32.346874Q184.14375 34.440624 184.94063 35.39375Q185.7375 36.33125 187.03438 36.33125Q188.06563 36.33125 188.75313 35.70625Q189.45625 35.065624 189.64375 33.753124ZM192.22188 32.3625Q192.22188 29.4875 193.81563 28.096874Q195.15938 26.940624 197.08125 26.940624Q199.22188 26.940624 200.56563 28.346874Q201.925 29.753124 201.925 32.221874Q201.925 34.221874 201.33125 35.378124Q200.7375 36.51875 199.58125 37.159374Q198.44063 37.784374 197.08125 37.784374Q194.89375 37.784374 193.55 36.39375Q192.22188 34.9875 192.22188 32.3625ZM194.01875 32.3625Q194.01875 34.3625 194.87813 35.346874Q195.75313 36.33125 197.08125 36.33125Q198.39375 36.33125 199.25313 35.346874Q200.12813 34.346874 200.12813 32.3Q200.12813 30.378124 199.25313 29.39375Q198.37813 28.39375 197.08125 28.39375Q195.75313 28.39375 194.87813 29.39375Q194.01875 30.378124 194.01875 32.3625ZM203.8625 37.55L203.8625 27.175L205.45625 27.175L205.45625 28.659374Q206.59688 26.940624 208.75313 26.940624Q209.69063 26.940624 210.47188 27.284374Q211.26875 27.6125 211.65938 28.159374Q212.05 28.70625 212.20625 29.45625Q212.3 29.95625 212.3 31.175L212.3 37.55L210.53438 37.55L210.53438 31.2375Q210.53438 30.159374 210.33125 29.628124Q210.12813 29.096874 209.59688 28.784374Q209.08125 28.471874 208.37813 28.471874Q207.25313 28.471874 206.44063 29.190624Q205.62813 29.89375 205.62813 31.878124L205.62813 37.55L203.8625 37.55ZM220.59688 37.55L220.59688 36.2375Q219.6125 37.784374 217.69063 37.784374Q216.45625 37.784374 215.40938 37.096874Q214.37813 36.409374 213.8 35.190624Q213.2375 33.971874 213.2375 32.378124Q213.2375 30.815624 213.75313 29.55Q214.26875 28.284374 215.3 27.6125Q216.34688 26.940624 217.6125 26.940624Q218.55 26.940624 219.28438 27.346874Q220.01875 27.7375 220.4875 28.3625L220.4875 23.2375L222.22188 23.2375L222.22188 37.55L220.59688 37.55ZM215.03438 32.378124Q215.03438 34.3625 215.87813 35.346874Q216.72188 36.33125 217.8625 36.33125Q219.01875 36.33125 219.81563 35.39375Q220.62813 34.45625 220.62813 32.51875Q220.62813 30.39375 219.8 29.39375Q218.9875 28.39375 217.78438 28.39375Q216.6125 28.39375 215.81563 29.3625Q215.03438 30.315624 215.03438 32.378124ZM234.22188 41.753124Q232.76875 39.925 231.76875 37.471874Q230.76875 35.003124 230.76875 32.3625Q230.76875 30.034374 231.51875 27.909374Q232.39375 25.440624 234.22188 22.9875L235.4875 22.9875Q234.3 25.01875 233.925 25.89375Q233.33125 27.2375 232.9875 28.70625Q232.56563 30.534374 232.56563 32.378124Q232.56563 37.065624 235.4875 41.753124L234.22188 41.753124ZM237.55 38.409374L239.25313 38.659374Q239.3625 39.45625 239.84688 39.815624Q240.50313 40.3 241.64375 40.3Q242.8625 40.3 243.51875 39.815624Q244.19063 39.33125 244.425 38.45625Q244.56563 37.909374 244.55 36.190624Q243.39375 37.55 241.675 37.55Q239.53438 37.55 238.3625 36.003124Q237.19063 34.45625 237.19063 32.3Q237.19063 30.815624 237.72188 29.565624Q238.26875 28.315624 239.28438 27.628124Q240.31563 26.940624 241.69063 26.940624Q243.51875 26.940624 244.72188 28.425L244.72188 27.175L246.33125 27.175L246.33125 36.14375Q246.33125 38.565624 245.83125 39.565624Q245.34688 40.58125 244.26875 41.159374Q243.20625 41.753124 241.64375 41.753124Q239.8 41.753124 238.64375 40.925Q237.50313 40.096874 237.55 38.409374ZM239.00313 32.175Q239.00313 34.221874 239.81563 35.159374Q240.62813 36.096874 241.84688 36.096874Q243.05 36.096874 243.8625 35.159374Q244.69063 34.221874 244.69063 32.2375Q244.69063 30.33125 243.84688 29.3625Q243.00313 28.39375 241.81563 28.39375Q240.64375 28.39375 239.81563 29.346874Q239.00313 30.3 239.00313 32.175ZM248.84688 37.55L248.84688 27.175L250.425 27.175L250.425 28.753124Q251.03438 27.64375 251.55 27.3Q252.06563 26.940624 252.675 26.940624Q253.56563 26.940624 254.4875 27.503124L253.87813 29.14375Q253.2375 28.753124 252.59688 28.753124Q252.01875 28.753124 251.55 29.1125Q251.09688 29.45625 250.89375 30.065624Q250.6125 31.003124 250.6125 32.1125L250.6125 37.55L248.84688 37.55ZM262.97186 34.20625L264.78436 34.440624Q264.3625 36.01875 263.1906 36.909374Q262.03436 37.784374 260.22186 37.784374Q257.95624 37.784374 256.6125 36.39375Q255.28438 34.9875 255.28438 32.45625Q255.28438 29.83125 256.6281 28.39375Q257.97186 26.940624 260.1281 26.940624Q262.20624 26.940624 263.51874 28.3625Q264.84686 29.76875 264.84686 32.346874Q264.84686 32.503124 264.83124 32.815624L257.09686 32.815624Q257.1906 34.51875 258.0656 35.425Q258.9406 36.33125 260.2375 36.33125Q261.20624 36.33125 261.8781 35.83125Q262.5656 35.315624 262.97186 34.20625ZM257.1906 31.3625L262.9875 31.3625Q262.8781 30.065624 262.33124 29.409374Q261.4875 28.39375 260.14374 28.39375Q258.9406 28.39375 258.1125 29.20625Q257.28436 30.003124 257.1906 31.3625ZM273.64374 36.26875Q272.65936 37.096874 271.7531 37.440624Q270.84686 37.784374 269.8156 37.784374Q268.1125 37.784374 267.1906 36.95625Q266.26874 36.1125 266.26874 34.815624Q266.26874 34.05 266.6125 33.425Q266.97186 32.8 267.53436 32.425Q268.09686 32.034374 268.8 31.83125Q269.3156 31.70625 270.3625 31.565624Q272.4875 31.315624 273.4875 30.971874Q273.5031 30.6125 273.5031 30.503124Q273.5031 29.440624 273.0031 28.9875Q272.33124 28.39375 271.0031 28.39375Q269.7531 28.39375 269.15936 28.83125Q268.58124 29.26875 268.3 30.378124L266.58124 30.14375Q266.8156 29.034374 267.34686 28.3625Q267.8781 27.675 268.89374 27.315624Q269.90936 26.940624 271.2531 26.940624Q272.58124 26.940624 273.40936 27.253124Q274.2375 27.565624 274.6281 28.05Q275.01874 28.51875 275.175 29.2375Q275.26874 29.690624 275.26874 30.8625L275.26874 33.20625Q275.26874 35.659374 275.3781 36.315624Q275.4875 36.95625 275.83124 37.55L273.9875 37.55Q273.72186 37.003124 273.64374 36.26875ZM273.4875 32.346874Q272.53436 32.7375 270.6125 33.003124Q269.53436 33.159374 269.08124 33.3625Q268.64374 33.55 268.39374 33.925Q268.14374 34.3 268.14374 34.76875Q268.14374 35.471874 268.675 35.940624Q269.20624 36.409374 270.2375 36.409374Q271.2531 36.409374 272.03436 35.971874Q272.83124 35.51875 273.20624 34.753124Q273.4875 34.14375 273.4875 32.9875L273.4875 32.346874ZM281.70624 35.971874L281.95624 37.534374Q281.22186 37.690624 280.6281 37.690624Q279.675 37.690624 279.14374 37.39375Q278.6281 37.08125 278.40936 36.596874Q278.1906 36.096874 278.1906 34.51875L278.1906 28.55L276.90936 28.55L276.90936 27.175L278.1906 27.175L278.1906 24.6125L279.9406 23.55L279.9406 27.175L281.70624 27.175L281.70624 28.55L279.9406 28.55L279.9406 34.6125Q279.9406 35.3625 280.03436 35.58125Q280.1281 35.784374 280.33124 35.925Q280.55 36.05 280.9406 36.05Q281.22186 36.05 281.70624 35.971874ZM290.97186 34.20625L292.78436 34.440624Q292.3625 36.01875 291.1906 36.909374Q290.03436 37.784374 288.22186 37.784374Q285.95624 37.784374 284.6125 36.39375Q283.28436 34.9875 283.28436 32.45625Q283.28436 29.83125 284.6281 28.39375Q285.97186 26.940624 288.1281 26.940624Q290.20624 26.940624 291.51874 28.3625Q292.84686 29.76875 292.84686 32.346874Q292.84686 32.503124 292.83124 32.815624L285.09686 32.815624Q285.1906 34.51875 286.0656 35.425Q286.9406 36.33125 288.2375 36.33125Q289.20624 36.33125 289.8781 35.83125Q290.5656 35.315624 290.97186 34.20625ZM285.1906 31.3625L290.9875 31.3625Q290.8781 30.065624 290.33124 29.409374Q289.4875 28.39375 288.14374 28.39375Q286.9406 28.39375 286.1125 29.20625Q285.28436 30.003124 285.1906 31.3625ZM294.84686 37.55L294.84686 27.175L296.425 27.175L296.425 28.753124Q297.03436 27.64375 297.55 27.3Q298.0656 26.940624 298.675 26.940624Q299.5656 26.940624 300.4875 27.503124L299.8781 29.14375Q299.2375 28.753124 298.59686 28.753124Q298.01874 28.753124 297.55 29.1125Q297.09686 29.45625 296.89374 30.065624Q296.6125 31.003124 296.6125 32.1125L296.6125 37.55L294.84686 37.55ZM301.1906 33.253124L301.1906 31.4875L306.58124 31.4875L306.58124 33.253124L301.1906 33.253124ZM310.4875 37.55L308.8625 37.55L308.8625 23.2375L310.6125 23.2375L310.6125 28.346874Q311.7375 26.940624 313.45624 26.940624Q314.40936 26.940624 315.26874 27.33125Q316.1281 27.721874 316.675 28.425Q317.22186 29.1125 317.53436 30.096874Q317.84686 31.08125 317.84686 32.20625Q317.84686 34.878124 316.53436 36.33125Q315.22186 37.784374 313.3781 37.784374Q311.53436 37.784374 310.4875 36.253124L310.4875 37.55ZM310.47186 32.284374Q310.47186 34.14375 310.97186 34.9875Q311.8156 36.33125 313.22186 36.33125Q314.3781 36.33125 315.20624 35.33125Q316.05 34.33125 316.05 32.346874Q316.05 30.315624 315.2375 29.3625Q314.4406 28.39375 313.3 28.39375Q312.14374 28.39375 311.3 29.39375Q310.47186 30.39375 310.47186 32.284374ZM326.97186 34.20625L328.78436 34.440624Q328.3625 36.01875 327.1906 36.909374Q326.03436 37.784374 324.22186 37.784374Q321.95624 37.784374 320.6125 36.39375Q319.28436 34.9875 319.28436 32.45625Q319.28436 29.83125 320.6281 28.39375Q321.97186 26.940624 324.1281 26.940624Q326.20624 26.940624 327.51874 28.3625Q328.84686 29.76875 328.84686 32.346874Q328.84686 32.503124 328.83124 32.815624L321.09686 32.815624Q321.1906 34.51875 322.0656 35.425Q322.9406 36.33125 324.2375 36.33125Q325.20624 36.33125 325.8781 35.83125Q326.5656 35.315624 326.97186 34.20625ZM321.1906 31.3625L326.9875 31.3625Q326.8781 30.065624 326.33124 29.409374Q325.4875 28.39375 324.14374 28.39375Q322.9406 28.39375 322.1125 29.20625Q321.28436 30.003124 321.1906 31.3625ZM334.70624 35.971874L334.95624 37.534374Q334.22186 37.690624 333.6281 37.690624Q332.675 37.690624 332.14374 37.39375Q331.6281 37.08125 331.40936 36.596874Q331.1906 36.096874 331.1906 34.51875L331.1906 28.55L329.90936 28.55L329.90936 27.175L331.1906 27.175L331.1906 24.6125L332.9406 23.55L332.9406 27.175L334.70624 27.175L334.70624 28.55L332.9406 28.55L332.9406 34.6125Q332.9406 35.3625 333.03436 35.58125Q333.1281 35.784374 333.33124 35.925Q333.55 36.05 333.9406 36.05Q334.22186 36.05 334.70624 35.971874ZM340.70624 35.971874L340.95624 37.534374Q340.22186 37.690624 339.6281 37.690624Q338.675 37.690624 338.14374 37.39375Q337.6281 37.08125 337.40936 36.596874Q337.1906 36.096874 337.1906 34.51875L337.1906 28.55L335.90936 28.55L335.90936 27.175L337.1906 27.175L337.1906 24.6125L338.9406 23.55L338.9406 27.175L340.70624 27.175L340.70624 28.55L338.9406 28.55L338.9406 34.6125Q338.9406 35.3625 339.03436 35.58125Q339.1281 35.784374 339.33124 35.925Q339.55 36.05 339.9406 36.05Q340.22186 36.05 340.70624 35.971874ZM349.97186 34.20625L351.78436 34.440624Q351.3625 36.01875 350.1906 36.909374Q349.03436 37.784374 347.22186 37.784374Q344.95624 37.784374 343.6125 36.39375Q342.28436 34.9875 342.28436 32.45625Q342.28436 29.83125 343.6281 28.39375Q344.97186 26.940624 347.1281 26.940624Q349.20624 26.940624 350.51874 28.3625Q351.84686 29.76875 351.84686 32.346874Q351.84686 32.503124 351.83124 32.815624L344.09686 32.815624Q344.1906 34.51875 345.0656 35.425Q345.9406 36.33125 347.2375 36.33125Q348.20624 36.33125 348.8781 35.83125Q349.5656 35.315624 349.97186 34.20625ZM344.1906 31.3625L349.9875 31.3625Q349.8781 30.065624 349.33124 29.409374Q348.4875 28.39375 347.14374 28.39375Q345.9406 28.39375 345.1125 29.20625Q344.28436 30.003124 344.1906 31.3625ZM353.84686 37.55L353.84686 27.175L355.425 27.175L355.425 28.753124Q356.03436 27.64375 356.55 27.3Q357.0656 26.940624 357.675 26.940624Q358.5656 26.940624 359.4875 27.503124L358.8781 29.14375Q358.2375 28.753124 357.59686 28.753124Q357.01874 28.753124 356.55 29.1125Q356.09686 29.45625 355.89374 30.065624Q355.6125 31.003124 355.6125 32.1125L355.6125 37.55L353.84686 37.55ZM362.01874 41.753124L360.76874 41.753124Q363.675 37.065624 363.675 32.378124Q363.675 30.534374 363.26874 28.7375Q362.925 27.26875 362.33124 25.925Q361.95624 25.034374 360.76874 22.9875L362.01874 22.9875Q363.8625 25.440624 364.7375 27.909374Q365.4875 30.034374 365.4875 32.3625Q365.4875 35.003124 364.47186 37.471874Q363.47186 39.925 362.01874 41.753124Z" fill-rule="nonzero"/></svg>