<svg version="1.1" viewBox="0.0 0.0 600.0 371.0" fill="none" stroke="none" stroke-linecap="square" stroke-miterlimit="10" width="600" height="371" xmlns:xlink="http://www.w3.org/1999/xlink" xmlns="http://www.w3.org/2000/svg"><path fill="#ffffff" d="M0 0L600.0 0L600.0 371.0L0 371.0L0 0Z" fill-rule="nonzero"/><path stroke="#333333" stroke-width="1.0" stroke-linecap="butt" d="M72.5 332.5L581.5 332.5" fill-rule="nonzero"/><path stroke="#cccccc" stroke-width="1.0" stroke-linecap="butt" d="M72.5 278.5L581.5 278.5" fill-rule="nonzero"/><path stroke="#cccccc" stroke-width="1.0" stroke-linecap="butt" d="M72.5 224.5L581.5 224.5" fill-rule="nonzero"/><path stroke="#cccccc" stroke-width="1.0" stroke-linecap="butt" d="M72.5 170.5L581.5 170.5" fill-rule="nonzero"/><path stroke="#cccccc" stroke-width="1.0" stroke-linecap="butt" d="M72.5 116.5L581.5 116.5" fill-rule="nonzero"/><path stroke="#cccccc" stroke-width="1.0" stroke-linecap="butt" d="M72.5 61.5L581.5 61.5" fill-rule="nonzero"/><path stroke="#000000" stroke-width="1.0" stroke-linecap="butt" stroke-opacity="0.0" d="M72.5 314.5L581.5 314.5" fill-rule="nonzero"/><path stroke="#000000" stroke-width="1.0" stroke-linecap="butt" stroke-opacity="0.0" d="M72.5 296.5L581.5 296.5" fill-rule="nonzero"/><path stroke="#000000" stroke-width="1.0" stroke-linecap="butt" stroke-opacity="0.0" d="M72.5 260.5L581.5 260.5" fill-rule="nonzero"/><path stroke="#000000" stroke-width="1.0" stroke-linecap="butt" stroke-opacity="0.0" d="M72.5 242.5L581.5 242.5" fill-rule="nonzero"/><path stroke="#000000" stroke-width="1.0" stroke-linecap="butt" stroke-opacity="0.0" d="M72.5 206.5L581.5 206.5" fill-rule="nonzero"/><path stroke="#000000" stroke-width="1.0" stroke-linecap="butt" stroke-opacity="0.0" d="M72.5 188.5L581.5 188.5" fill-rule="nonzero"/><path stroke="#000000" stroke-width="1.0" stroke-linecap="butt" stroke-opacity="0.0" d="M72.5 152.5L581.5 152.5" fill-rule="nonzero"/><path stroke="#000000" stroke-width="1.0" stroke-linecap="butt" stroke-opacity="0.0" d="M72.5 134.5L581.5 134.5" fill-rule="nonzero"/><path stroke="#000000" stroke-width="1.0" stroke-linecap="butt" stroke-opacity="0.0" d="M72.5 97.5L581.5 97.5" fill-rule="nonzero"/><path stroke="#000000" stroke-width="1.0" stroke-linecap="butt" stroke-opacity="0.0" d="M72.5 79.5L581.5 79.5" fill-rule="nonzero"/><clipPath id="id_0"><path d="M72.55 61.916668L581.45 61.916668L581.45 332.45L72.55 332.45L72.55 61.916668Z" clip-rule="nonzero"/></clipPath><path stroke="#000000" stroke-width="2.0" stroke-linecap="butt" stroke-opacity="0.0" clip-path="url(#id_0)" d="M290.0 332.0L149.0 332.0L149.0 96.0C149.0 94.89543 149.89543 94.0 151.0 94.0L288.0 94.0C289.10458 94.0 290.0 94.89543 290.0 96.0Z" fill-rule="nonzero"/><path fill="#4285f4" clip-path="url(#id_0)" d="M290.0 332.0L149.0 332.0L149.0 96.0C149.0 94.89543 149.89543 94.0 151.0 94.0L288.0 94.0C289.10458 94.0 290.0 94.89543 290.0 96.0Z" fill-rule="nonzero"/><path stroke="#000000" stroke-width="2.0" stroke-linecap="butt" stroke-opacity="0.0" clip-path="url(#id_0)" d="M506.0 332.0L365.0 332.0L365.0 236.0C365.0 234.89543 365.89542 234.0 367.0 234.0L504.0 234.0C505.10458 234.0 506.0 234.89543 506.0 236.0Z" fill-rule="nonzero"/><path fill="#4285f4" clip-path="url(#id_0)" d="M506.0 332.0L365.0 332.0L365.0 236.0C365.0 234.89543 365.89542 234.0 367.0 234.0L504.0 234.0C505.10458 234.0 506.0 234.89543 506.0 236.0Z" fill-rule="nonzero"/><path stroke="#4285f4" stroke-width="3.0" stroke-linejoin="round" stroke-linecap="round" d="M201.79688 110.546646L196.20312 110.546646L196.20312 109.765396L199.15625 106.484146Q199.8125 105.734146 200.0625 105.28102Q200.3125 104.81227 200.3125 104.31227Q200.3125 103.640396 199.90625 103.21852Q199.51562 102.78102 198.82812 102.78102Q198.03125 102.78102 197.57812 103.24977Q197.125 103.702896 197.125 104.53102L196.04688 104.53102Q196.04688 103.34352 196.79688 102.62477Q197.5625 101.890396 198.82812 101.890396Q200.03125 101.890396 200.71875 102.515396Q201.40625 103.140396 201.40625 104.18727Q201.40625 105.43727 199.79688 107.18727L197.51562 109.65602L201.79688 109.65602L201.79688 110.546646ZM203.28125 112.24977L202.67188 111.827896Q203.21875 111.06227 203.25 110.234146L203.25 109.265396L204.3125 109.265396L204.3125 110.109146Q204.3125 110.702896 204.01562 111.296646Q203.71875 111.890396 203.28125 112.24977ZM210.79688 110.546646L205.20312 110.546646L205.20312 109.765396L208.15625 106.484146Q208.8125 105.734146 209.0625 105.28102Q209.3125 104.81227 209.3125 104.31227Q209.3125 103.640396 208.90625 103.21852Q208.51562 102.78102 207.82812 102.78102Q207.03125 102.78102 206.57812 103.24977Q206.125 103.702896 206.125 104.53102L205.04688 104.53102Q205.04688 103.34352 205.79688 102.62477Q206.5625 101.890396 207.82812 101.890396Q209.03125 101.890396 209.71875 102.515396Q210.40625 103.140396 210.40625 104.18727Q210.40625 105.43727 208.79688 107.18727L206.51562 109.65602L210.79688 109.65602L210.79688 110.546646ZM217.5625 106.90602Q217.5625 108.81227 216.90625 109.74977Q216.26562 110.671646 214.875 110.671646Q213.51562 110.671646 212.85938 109.765396Q212.20312 108.859146 212.17188 107.046646L212.17188 105.609146Q212.17188 103.71852 212.8125 102.81227Q213.46875 101.890396 214.85938 101.890396Q216.23438 101.890396 216.89062 102.78102Q217.54688 103.65602 217.5625 105.49977L217.5625 106.90602ZM216.46875 105.421646Q216.46875 104.046646 216.07812 103.421646Q215.70312 102.78102 214.85938 102.78102Q214.03125 102.78102 213.64062 103.421646Q213.26562 104.046646 213.26562 105.34352L213.26562 107.077896Q213.26562 108.452896 213.65625 109.12477Q214.0625 109.78102 214.875 109.78102Q215.67188 109.78102 216.0625 109.15602Q216.45312 108.53102 216.46875 107.202896L216.46875 105.421646ZM219.70312 106.265396L220.14062 102.015396L224.51562 102.015396L224.51562 103.015396L221.0625 103.015396L220.79688 105.34352Q221.4375 104.96852 222.23438 104.96852Q223.39062 104.96852 224.07812 105.74977Q224.76562 106.515396 224.76562 107.827896Q224.76562 109.140396 224.04688 109.90602Q223.34375 110.671646 222.0625 110.671646Q220.9375 110.671646 220.21875 110.046646Q219.5 109.40602 219.40625 108.296646L220.42188 108.296646Q220.53125 109.03102 220.95312 109.40602Q221.375 109.78102 222.0625 109.78102Q222.8125 109.78102 223.25 109.265396Q223.6875 108.74977 223.6875 107.84352Q223.6875 106.984146 223.21875 106.46852Q222.75 105.952896 221.96875 105.952896Q221.26562 105.952896 220.85938 106.24977L220.57812 106.484146L219.70312 106.265396ZM226.34375 109.984146Q226.34375 109.702896 226.5 109.515396Q226.67188 109.327896 227.0 109.327896Q227.34375 109.327896 227.51562 109.515396Q227.6875 109.702896 227.6875 109.984146Q227.6875 110.24977 227.51562 110.43727Q227.34375 110.609146 227.0 110.609146Q226.67188 110.609146 226.5 110.43727Q226.34375 110.24977 226.34375 109.984146ZM234.39062 104.234146Q234.39062 104.87477 234.04688 105.37477Q233.70312 105.87477 233.14062 106.15602Q233.79688 106.43727 234.1875 106.99977Q234.57812 107.546646 234.57812 108.24977Q234.57812 109.34352 233.82812 110.015396Q233.09375 110.671646 231.875 110.671646Q230.64062 110.671646 229.89062 110.015396Q229.15625 109.34352 229.15625 108.24977Q229.15625 107.546646 229.53125 106.99977Q229.90625 106.43727 230.57812 106.15602Q230.01562 105.87477 229.6875 105.37477Q229.35938 104.87477 229.35938 104.234146Q229.35938 103.15602 230.04688 102.53102Q230.73438 101.890396 231.875 101.890396Q233.0 101.890396 233.6875 102.53102Q234.39062 103.15602 234.39062 104.234146ZM233.5 108.21852Q233.5 107.49977 233.04688 107.06227Q232.59375 106.609146 231.85938 106.609146Q231.125 106.609146 230.67188 107.06227Q230.23438 107.49977 230.23438 108.234146Q230.23438 108.952896 230.67188 109.37477Q231.10938 109.78102 231.875 109.78102Q232.625 109.78102 233.0625 109.359146Q233.5 108.93727 233.5 108.21852ZM231.875 102.78102Q231.23438 102.78102 230.82812 103.18727Q230.4375 103.577896 230.4375 104.265396Q230.4375 104.90602 230.82812 105.31227Q231.21875 105.71852 231.85938 105.71852Q232.51562 105.71852 232.90625 105.31227Q233.29688 104.90602 233.29688 104.265396Q233.29688 103.609146 232.89062 103.202896Q232.48438 102.78102 231.875 102.78102ZM240.46875 102.015396L240.46875 102.921646L240.26562 102.921646Q239.0 102.952896 238.25 103.68727Q237.5 104.40602 237.375 105.71852Q238.0625 104.952896 239.21875 104.952896Q240.32812 104.952896 241.0 105.734146Q241.67188 106.515396 241.67188 107.765396Q241.67188 109.077896 240.95312 109.87477Q240.23438 110.671646 239.01562 110.671646Q237.79688 110.671646 237.03125 109.734146Q236.28125 108.78102 236.28125 107.296646L236.28125 106.890396Q236.28125 104.53102 237.28125 103.28102Q238.28125 102.03102 240.26562 102.015396L240.46875 102.015396ZM239.04688 105.859146Q238.48438 105.859146 238.01562 106.18727Q237.54688 106.515396 237.35938 107.03102L237.35938 107.421646Q237.35938 108.484146 237.82812 109.12477Q238.3125 109.765396 239.01562 109.765396Q239.75 109.765396 240.17188 109.234146Q240.59375 108.68727 240.59375 107.81227Q240.59375 106.93727 240.17188 106.40602Q239.75 105.859146 239.04688 105.859146Z" fill-rule="nonzero"/><path fill="#ffffff" d="M201.79688 110.546646L196.20312 110.546646L196.20312 109.765396L199.15625 106.484146Q199.8125 105.734146 200.0625 105.28102Q200.3125 104.81227 200.3125 104.31227Q200.3125 103.640396 199.90625 103.21852Q199.51562 102.78102 198.82812 102.78102Q198.03125 102.78102 197.57812 103.24977Q197.125 103.702896 197.125 104.53102L196.04688 104.53102Q196.04688 103.34352 196.79688 102.62477Q197.5625 101.890396 198.82812 101.890396Q200.03125 101.890396 200.71875 102.515396Q201.40625 103.140396 201.40625 104.18727Q201.40625 105.43727 199.79688 107.18727L197.51562 109.65602L201.79688 109.65602L201.79688 110.546646ZM203.28125 112.24977L202.67188 111.827896Q203.21875 111.06227 203.25 110.234146L203.25 109.265396L204.3125 109.265396L204.3125 110.109146Q204.3125 110.702896 204.01562 111.296646Q203.71875 111.890396 203.28125 112.24977ZM210.79688 110.546646L205.20312 110.546646L205.20312 109.765396L208.15625 106.484146Q208.8125 105.734146 209.0625 105.28102Q209.3125 104.81227 209.3125 104.31227Q209.3125 103.640396 208.90625 103.21852Q208.51562 102.78102 207.82812 102.78102Q207.03125 102.78102 206.57812 103.24977Q206.125 103.702896 206.125 104.53102L205.04688 104.53102Q205.04688 103.34352 205.79688 102.62477Q206.5625 101.890396 207.82812 101.890396Q209.03125 101.890396 209.71875 102.515396Q210.40625 103.140396 210.40625 104.18727Q210.40625 105.43727 208.79688 107.18727L206.51562 109.65602L210.79688 109.65602L210.79688 110.546646ZM217.5625 106.90602Q217.5625 108.81227 216.90625 109.74977Q216.26562 110.671646 214.875 110.671646Q213.51562 110.671646 212.85938 109.765396Q212.20312 108.859146 212.17188 107.046646L212.17188 105.609146Q212.17188 103.71852 212.8125 102.81227Q213.46875 101.890396 214.85938 101.890396Q216.23438 101.890396 216.89062 102.78102Q217.54688 103.65602 217.5625 105.49977L217.5625 106.90602ZM216.46875 105.421646Q216.46875 104.046646 216.07812 103.421646Q215.70312 102.78102 214.85938 102.78102Q214.03125 102.78102 213.64062 103.421646Q213.26562 104.046646 213.26562 105.34352L213.26562 107.077896Q213.26562 108.452896 213.65625 109.12477Q214.0625 109.78102 214.875 109.78102Q215.67188 109.78102 216.0625 109.15602Q216.45312 108.53102 216.46875 107.202896L216.46875 105.421646ZM219.70312 106.265396L220.14062 102.015396L224.51562 102.015396L224.51562 103.015396L221.0625 103.015396L220.79688 105.34352Q221.4375 104.96852 222.23438 104.96852Q223.39062 104.96852 224.07812 105.74977Q224.76562 106.515396 224.76562 107.827896Q224.76562 109.140396 224.04688 109.90602Q223.34375 110.671646 222.0625 110.671646Q220.9375 110.671646 220.21875 110.046646Q219.5 109.40602 219.40625 108.296646L220.42188 108.296646Q220.53125 109.03102 220.95312 109.40602Q221.375 109.78102 222.0625 109.78102Q222.8125 109.78102 223.25 109.265396Q223.6875 108.74977 223.6875 107.84352Q223.6875 106.984146 223.21875 106.46852Q222.75 105.952896 221.96875 105.952896Q221.26562 105.952896 220.85938 106.24977L220.57812 106.484146L219.70312 106.265396ZM226.34375 109.984146Q226.34375 109.702896 226.5 109.515396Q226.67188 109.327896 227.0 109.327896Q227.34375 109.327896 227.51562 109.515396Q227.6875 109.702896 227.6875 109.984146Q227.6875 110.24977 227.51562 110.43727Q227.34375 110.609146 227.0 110.609146Q226.67188 110.609146 226.5 110.43727Q226.34375 110.24977 226.34375 109.984146ZM234.39062 104.234146Q234.39062 104.87477 234.04688 105.37477Q233.70312 105.87477 233.14062 106.15602Q233.79688 106.43727 234.1875 106.99977Q234.57812 107.546646 234.57812 108.24977Q234.57812 109.34352 233.82812 110.015396Q233.09375 110.671646 231.875 110.671646Q230.64062 110.671646 229.89062 110.015396Q229.15625 109.34352 229.15625 108.24977Q229.15625 107.546646 229.53125 106.99977Q229.90625 106.43727 230.57812 106.15602Q230.01562 105.87477 229.6875 105.37477Q229.35938 104.87477 229.35938 104.234146Q229.35938 103.15602 230.04688 102.53102Q230.73438 101.890396 231.875 101.890396Q233.0 101.890396 233.6875 102.53102Q234.39062 103.15602 234.39062 104.234146ZM233.5 108.21852Q233.5 107.49977 233.04688 107.06227Q232.59375 106.609146 231.85938 106.609146Q231.125 106.609146 230.67188 107.06227Q230.23438 107.49977 230.23438 108.234146Q230.23438 108.952896 230.67188 109.37477Q231.10938 109.78102 231.875 109.78102Q232.625 109.78102 233.0625 109.359146Q233.5 108.93727 233.5 108.21852ZM231.875 102.78102Q231.23438 102.78102 230.82812 103.18727Q230.4375 103.577896 230.4375 104.265396Q230.4375 104.90602 230.82812 105.31227Q231.21875 105.71852 231.85938 105.71852Q232.51562 105.71852 232.90625 105.31227Q233.29688 104.90602 233.29688 104.265396Q233.29688 103.609146 232.89062 103.202896Q232.48438 102.78102 231.875 102.78102ZM240.46875 102.015396L240.46875 102.921646L240.26562 102.921646Q239.0 102.952896 238.25 103.68727Q237.5 104.40602 237.375 105.71852Q238.0625 104.952896 239.21875 104.952896Q240.32812 104.952896 241.0 105.734146Q241.67188 106.515396 241.67188 107.765396Q241.67188 109.077896 240.95312 109.87477Q240.23438 110.671646 239.01562 110.671646Q237.79688 110.671646 237.03125 109.734146Q236.28125 108.78102 236.28125 107.296646L236.28125 106.890396Q236.28125 104.53102 237.28125 103.28102Q238.28125 102.03102 240.26562 102.015396L240.46875 102.015396ZM239.04688 105.859146Q238.48438 105.859146 238.01562 106.18727Q237.54688 106.515396 237.35938 107.03102L237.35938 107.421646Q237.35938 108.484146 237.82812 109.12477Q238.3125 109.765396 239.01562 109.765396Q239.75 109.765396 240.17188 109.234146Q240.59375 108.68727 240.59375 107.81227Q240.59375 106.93727 240.17188 106.40602Q239.75 105.859146 239.04688 105.859146Z" fill-rule="nonzero"/><path stroke="#4285f4" stroke-width="3.0" stroke-linejoin="round" stroke-linecap="round" d="M420.85938 247.5072Q420.53125 247.91345 420.04688 248.16345Q419.57812 248.39783 419.01562 248.39783Q418.28125 248.39783 417.73438 248.03845Q417.1875 247.67908 416.89062 247.02283Q416.59375 246.35095 416.59375 245.55408Q416.59375 244.71033 416.90625 244.02283Q417.23438 243.33533 417.82812 242.97595Q418.4375 242.60095 419.23438 242.60095Q420.5 242.60095 421.21875 243.55408Q421.95312 244.5072 421.95312 246.1322L421.95312 246.4447Q421.95312 248.9447 420.96875 250.08533Q419.98438 251.22595 418.0 251.2572L417.78125 251.2572L417.78125 250.35095L418.01562 250.35095Q419.35938 250.3197 420.07812 249.64783Q420.79688 248.97595 420.85938 247.5072ZM419.1875 247.5072Q419.73438 247.5072 420.1875 247.17908Q420.65625 246.83533 420.875 246.35095L420.875 245.91345Q420.875 244.85095 420.40625 244.17908Q419.9375 243.5072 419.23438 243.5072Q418.51562 243.5072 418.07812 244.05408Q417.65625 244.60095 417.65625 245.5072Q417.65625 246.3822 418.0625 246.9447Q418.48438 247.5072 419.1875 247.5072ZM429.0625 247.61658Q429.0625 249.52283 428.40625 250.46033Q427.76562 251.3822 426.375 251.3822Q425.01562 251.3822 424.35938 250.47595Q423.70312 249.5697 423.67188 247.7572L423.67188 246.3197Q423.67188 244.42908 424.3125 243.52283Q424.96875 242.60095 426.35938 242.60095Q427.73438 242.60095 428.39062 243.49158Q429.04688 244.36658 429.0625 246.21033L429.0625 247.61658ZM427.96875 246.1322Q427.96875 244.7572 427.57812 244.1322Q427.20312 243.49158 426.35938 243.49158Q425.53125 243.49158 425.14062 244.1322Q424.76562 244.7572 424.76562 246.05408L424.76562 247.78845Q424.76562 249.16345 425.15625 249.83533Q425.5625 250.49158 426.375 250.49158Q427.17188 250.49158 427.5625 249.86658Q427.95312 249.24158 427.96875 247.91345L427.96875 246.1322ZM431.20312 246.97595L431.64062 242.72595L436.01562 242.72595L436.01562 243.72595L432.5625 243.72595L432.29688 246.05408Q432.9375 245.67908 433.73438 245.67908Q434.89062 245.67908 435.57812 246.46033Q436.26562 247.22595 436.26562 248.53845Q436.26562 249.85095 435.54688 250.61658Q434.84375 251.3822 433.5625 251.3822Q432.4375 251.3822 431.71875 250.7572Q431.0 250.11658 430.90625 249.0072L431.92188 249.0072Q432.03125 249.74158 432.45312 250.11658Q432.875 250.49158 433.5625 250.49158Q434.3125 250.49158 434.75 249.97595Q435.1875 249.46033 435.1875 248.55408Q435.1875 247.6947 434.71875 247.17908Q434.25 246.66345 433.46875 246.66345Q432.76562 246.66345 432.35938 246.96033L432.07812 247.1947L431.20312 246.97595ZM437.84375 250.6947Q437.84375 250.41345 438.0 250.22595Q438.17188 250.03845 438.5 250.03845Q438.84375 250.03845 439.01562 250.22595Q439.1875 250.41345 439.1875 250.6947Q439.1875 250.96033 439.01562 251.14783Q438.84375 251.3197 438.5 251.3197Q438.17188 251.3197 438.0 251.14783Q437.84375 250.96033 437.84375 250.6947ZM441.20312 246.97595L441.64062 242.72595L446.01562 242.72595L446.01562 243.72595L442.5625 243.72595L442.29688 246.05408Q442.9375 245.67908 443.73438 245.67908Q444.89062 245.67908 445.57812 246.46033Q446.26562 247.22595 446.26562 248.53845Q446.26562 249.85095 445.54688 250.61658Q444.84375 251.3822 443.5625 251.3822Q442.4375 251.3822 441.71875 250.7572Q441.0 250.11658 440.90625 249.0072L441.92188 249.0072Q442.03125 249.74158 442.45312 250.11658Q442.875 250.49158 443.5625 250.49158Q444.3125 250.49158 444.75 249.97595Q445.1875 249.46033 445.1875 248.55408Q445.1875 247.6947 444.71875 247.17908Q444.25 246.66345 443.46875 246.66345Q442.76562 246.66345 442.35938 246.96033L442.07812 247.1947L441.20312 246.97595ZM448.20312 246.97595L448.64062 242.72595L453.01562 242.72595L453.01562 243.72595L449.5625 243.72595L449.29688 246.05408Q449.9375 245.67908 450.73438 245.67908Q451.89062 245.67908 452.57812 246.46033Q453.26562 247.22595 453.26562 248.53845Q453.26562 249.85095 452.54688 250.61658Q451.84375 251.3822 450.5625 251.3822Q449.4375 251.3822 448.71875 250.7572Q448.0 250.11658 447.90625 249.0072L448.92188 249.0072Q449.03125 249.74158 449.45312 250.11658Q449.875 250.49158 450.5625 250.49158Q451.3125 250.49158 451.75 249.97595Q452.1875 249.46033 452.1875 248.55408Q452.1875 247.6947 451.71875 247.17908Q451.25 246.66345 450.46875 246.66345Q449.76562 246.66345 449.35938 246.96033L449.07812 247.1947L448.20312 246.97595Z" fill-rule="nonzero"/><path fill="#ffffff" d="M420.85938 247.5072Q420.53125 247.91345 420.04688 248.16345Q419.57812 248.39783 419.01562 248.39783Q418.28125 248.39783 417.73438 248.03845Q417.1875 247.67908 416.89062 247.02283Q416.59375 246.35095 416.59375 245.55408Q416.59375 244.71033 416.90625 244.02283Q417.23438 243.33533 417.82812 242.97595Q418.4375 242.60095 419.23438 242.60095Q420.5 242.60095 421.21875 243.55408Q421.95312 244.5072 421.95312 246.1322L421.95312 246.4447Q421.95312 248.9447 420.96875 250.08533Q419.98438 251.22595 418.0 251.2572L417.78125 251.2572L417.78125 250.35095L418.01562 250.35095Q419.35938 250.3197 420.07812 249.64783Q420.79688 248.97595 420.85938 247.5072ZM419.1875 247.5072Q419.73438 247.5072 420.1875 247.17908Q420.65625 246.83533 420.875 246.35095L420.875 245.91345Q420.875 244.85095 420.40625 244.17908Q419.9375 243.5072 419.23438 243.5072Q418.51562 243.5072 418.07812 244.05408Q417.65625 244.60095 417.65625 245.5072Q417.65625 246.3822 418.0625 246.9447Q418.48438 247.5072 419.1875 247.5072ZM429.0625 247.61658Q429.0625 249.52283 428.40625 250.46033Q427.76562 251.3822 426.375 251.3822Q425.01562 251.3822 424.35938 250.47595Q423.70312 249.5697 423.67188 247.7572L423.67188 246.3197Q423.67188 244.42908 424.3125 243.52283Q424.96875 242.60095 426.35938 242.60095Q427.73438 242.60095 428.39062 243.49158Q429.04688 244.36658 429.0625 246.21033L429.0625 247.61658ZM427.96875 246.1322Q427.96875 244.7572 427.57812 244.1322Q427.20312 243.49158 426.35938 243.49158Q425.53125 243.49158 425.14062 244.1322Q424.76562 244.7572 424.76562 246.05408L424.76562 247.78845Q424.76562 249.16345 425.15625 249.83533Q425.5625 250.49158 426.375 250.49158Q427.17188 250.49158 427.5625 249.86658Q427.95312 249.24158 427.96875 247.91345L427.96875 246.1322ZM431.20312 246.97595L431.64062 242.72595L436.01562 242.72595L436.01562 243.72595L432.5625 243.72595L432.29688 246.05408Q432.9375 245.67908 433.73438 245.67908Q434.89062 245.67908 435.57812 246.46033Q436.26562 247.22595 436.26562 248.53845Q436.26562 249.85095 435.54688 250.61658Q434.84375 251.3822 433.5625 251.3822Q432.4375 251.3822 431.71875 250.7572Q431.0 250.11658 430.90625 249.0072L431.92188 249.0072Q432.03125 249.74158 432.45312 250.11658Q432.875 250.49158 433.5625 250.49158Q434.3125 250.49158 434.75 249.97595Q435.1875 249.46033 435.1875 248.55408Q435.1875 247.6947 434.71875 247.17908Q434.25 246.66345 433.46875 246.66345Q432.76562 246.66345 432.35938 246.96033L432.07812 247.1947L431.20312 246.97595ZM437.84375 250.6947Q437.84375 250.41345 438.0 250.22595Q438.17188 250.03845 438.5 250.03845Q438.84375 250.03845 439.01562 250.22595Q439.1875 250.41345 439.1875 250.6947Q439.1875 250.96033 439.01562 251.14783Q438.84375 251.3197 438.5 251.3197Q438.17188 251.3197 438.0 251.14783Q437.84375 250.96033 437.84375 250.6947ZM441.20312 246.97595L441.64062 242.72595L446.01562 242.72595L446.01562 243.72595L442.5625 243.72595L442.29688 246.05408Q442.9375 245.67908 443.73438 245.67908Q444.89062 245.67908 445.57812 246.46033Q446.26562 247.22595 446.26562 248.53845Q446.26562 249.85095 445.54688 250.61658Q444.84375 251.3822 443.5625 251.3822Q442.4375 251.3822 441.71875 250.7572Q441.0 250.11658 440.90625 249.0072L441.92188 249.0072Q442.03125 249.74158 442.45312 250.11658Q442.875 250.49158 443.5625 250.49158Q444.3125 250.49158 444.75 249.97595Q445.1875 249.46033 445.1875 248.55408Q445.1875 247.6947 444.71875 247.17908Q444.25 246.66345 443.46875 246.66345Q442.76562 246.66345 442.35938 246.96033L442.07812 247.1947L441.20312 246.97595ZM448.20312 246.97595L448.64062 242.72595L453.01562 242.72595L453.01562 243.72595L449.5625 243.72595L449.29688 246.05408Q449.9375 245.67908 450.73438 245.67908Q451.89062 245.67908 452.57812 246.46033Q453.26562 247.22595 453.26562 248.53845Q453.26562 249.85095 452.54688 250.61658Q451.84375 251.3822 450.5625 251.3822Q449.4375 251.3822 448.71875 250.7572Q448.0 250.11658 447.90625 249.0072L448.92188 249.0072Q449.03125 249.74158 449.45312 250.11658Q449.875 250.49158 450.5625 250.49158Q451.3125 250.49158 451.75 249.97595Q452.1875 249.46033 452.1875 248.55408Q452.1875 247.6947 451.71875 247.17908Q451.25 246.66345 450.46875 246.66345Q449.76562 246.66345 449.35938 246.96033L449.07812 247.1947L448.20312 246.97595Z" fill-rule="nonzero"/><path fill="#000000" d="M43.05 332.21564Q43.05 330.6844 43.3625 329.7625Q43.675 328.825 44.284374 328.325Q44.909374 327.825 45.846874 327.825Q46.534374 327.825 47.05 328.10626Q47.58125 328.3875 47.925 328.91876Q48.26875 329.4344 48.45625 330.1844Q48.64375 330.9344 48.64375 332.21564Q48.64375 333.73126 48.33125 334.65314Q48.034374 335.575 47.409374 336.09064Q46.8 336.59064 45.846874 336.59064Q44.6125 336.59064 43.89375 335.7Q43.05 334.6375 43.05 332.21564ZM44.128124 332.21564Q44.128124 334.325 44.628124 335.02814Q45.128124 335.73126 45.846874 335.73126Q46.58125 335.73126 47.065624 335.02814Q47.565624 334.325 47.565624 332.21564Q47.565624 330.09064 47.065624 329.40314Q46.58125 328.7 45.83125 328.7Q45.1125 328.7 44.675 329.3094Q44.128124 330.09064 44.128124 332.21564ZM50.64375 336.45L50.64375 335.2469L51.846874 335.2469L51.846874 336.45L50.64375 336.45ZM53.05 332.21564Q53.05 330.6844 53.3625 329.7625Q53.675 328.825 54.284374 328.325Q54.909374 327.825 55.846874 327.825Q56.534374 327.825 57.05 328.10626Q57.58125 328.3875 57.925 328.91876Q58.26875 329.4344 58.45625 330.1844Q58.64375 330.9344 58.64375 332.21564Q58.64375 333.73126 58.33125 334.65314Q58.034374 335.575 57.409374 336.09064Q56.8 336.59064 55.846874 336.59064Q54.6125 336.59064 53.89375 335.7Q53.05 334.6375 53.05 332.21564ZM54.128124 332.21564Q54.128124 334.325 54.628124 335.02814Q55.128124 335.73126 55.846874 335.73126Q56.58125 335.73126 57.065624 335.02814Q57.565624 334.325 57.565624 332.21564Q57.565624 330.09064 57.065624 329.40314Q56.58125 328.7 55.83125 328.7Q55.1125 328.7 54.675 329.3094Q54.128124 330.09064 54.128124 332.21564ZM60.05 332.21564Q60.05 330.6844 60.3625 329.7625Q60.675 328.825 61.284374 328.325Q61.909374 327.825 62.846874 327.825Q63.534374 327.825 64.05 328.10626Q64.58125 328.3875 64.925 328.91876Q65.26875 329.4344 65.45625 330.1844Q65.64375 330.9344 65.64375 332.21564Q65.64375 333.73126 65.33125 334.65314Q65.03438 335.575 64.40938 336.09064Q63.8 336.59064 62.846874 336.59064Q61.6125 336.59064 60.89375 335.7Q60.05 334.6375 60.05 332.21564ZM61.128124 332.21564Q61.128124 334.325 61.628124 335.02814Q62.128124 335.73126 62.846874 335.73126Q63.58125 335.73126 64.06563 335.02814Q64.56563 334.325 64.56563 332.21564Q64.56563 330.09064 64.06563 329.40314Q63.58125 328.7 62.83125 328.7Q62.1125 328.7 61.675 329.3094Q61.128124 330.09064 61.128124 332.21564Z" fill-rule="nonzero"/><path fill="#000000" d="M29.05 280.09332L30.159374 279.99957Q30.284374 280.81207 30.721874 281.21832Q31.175 281.62457 31.815624 281.62457Q32.565624 281.62457 33.096874 281.04645Q33.628124 280.46832 33.628124 279.53082Q33.628124 278.62457 33.1125 278.10895Q32.6125 277.5777 31.784374 277.5777Q31.284374 277.5777 30.8625 277.81207Q30.45625 278.04645 30.221874 278.40582L29.2375 278.28082L30.065624 273.87457L34.346874 273.87457L34.346874 274.87457L30.909374 274.87457L30.45625 277.18707Q31.221874 276.6402 32.065624 276.6402Q33.190624 276.6402 33.95625 277.42145Q34.7375 278.2027 34.7375 279.43707Q34.7375 280.59332 34.065624 281.4527Q33.2375 282.48395 31.815624 282.48395Q30.64375 282.48395 29.89375 281.8277Q29.159374 281.17145 29.05 280.09332ZM36.05 278.10895Q36.05 276.5777 36.3625 275.65582Q36.675 274.71832 37.284374 274.21832Q37.909374 273.71832 38.846874 273.71832Q39.534374 273.71832 40.05 273.99957Q40.58125 274.28082 40.925 274.81207Q41.26875 275.3277 41.45625 276.0777Q41.64375 276.8277 41.64375 278.10895Q41.64375 279.62457 41.33125 280.54645Q41.034374 281.46832 40.409374 281.98395Q39.8 282.48395 38.846874 282.48395Q37.6125 282.48395 36.89375 281.59332Q36.05 280.53082 36.05 278.10895ZM37.128124 278.10895Q37.128124 280.21832 37.628124 280.92145Q38.128124 281.62457 38.846874 281.62457Q39.58125 281.62457 40.065624 280.92145Q40.565624 280.21832 40.565624 278.10895Q40.565624 275.98395 40.065624 275.29645Q39.58125 274.59332 38.83125 274.59332Q38.1125 274.59332 37.675 275.2027Q37.128124 275.98395 37.128124 278.10895ZM43.05 278.10895Q43.05 276.5777 43.3625 275.65582Q43.675 274.71832 44.284374 274.21832Q44.909374 273.71832 45.846874 273.71832Q46.534374 273.71832 47.05 273.99957Q47.58125 274.28082 47.925 274.81207Q48.26875 275.3277 48.45625 276.0777Q48.64375 276.8277 48.64375 278.10895Q48.64375 279.62457 48.33125 280.54645Q48.034374 281.46832 47.409374 281.98395Q46.8 282.48395 45.846874 282.48395Q44.6125 282.48395 43.89375 281.59332Q43.05 280.53082 43.05 278.10895ZM44.128124 278.10895Q44.128124 280.21832 44.628124 280.92145Q45.128124 281.62457 45.846874 281.62457Q46.58125 281.62457 47.065624 280.92145Q47.565624 280.21832 47.565624 278.10895Q47.565624 275.98395 47.065624 275.29645Q46.58125 274.59332 45.83125 274.59332Q45.1125 274.59332 44.675 275.2027Q44.128124 275.98395 44.128124 278.10895ZM50.64375 282.34332L50.64375 281.1402L51.846874 281.1402L51.846874 282.34332L50.64375 282.34332ZM53.05 278.10895Q53.05 276.5777 53.3625 275.65582Q53.675 274.71832 54.284374 274.21832Q54.909374 273.71832 55.846874 273.71832Q56.534374 273.71832 57.05 273.99957Q57.58125 274.28082 57.925 274.81207Q58.26875 275.3277 58.45625 276.0777Q58.64375 276.8277 58.64375 278.10895Q58.64375 279.62457 58.33125 280.54645Q58.034374 281.46832 57.409374 281.98395Q56.8 282.48395 55.846874 282.48395Q54.6125 282.48395 53.89375 281.59332Q53.05 280.53082 53.05 278.10895ZM54.128124 278.10895Q54.128124 280.21832 54.628124 280.92145Q55.128124 281.62457 55.846874 281.62457Q56.58125 281.62457 57.065624 280.92145Q57.565624 280.21832 57.565624 278.10895Q57.565624 275.98395 57.065624 275.29645Q56.58125 274.59332 55.83125 274.59332Q55.1125 274.59332 54.675 275.2027Q54.128124 275.98395 54.128124 278.10895ZM60.05 278.10895Q60.05 276.5777 60.3625 275.65582Q60.675 274.71832 61.284374 274.21832Q61.909374 273.71832 62.846874 273.71832Q63.534374 273.71832 64.05 273.99957Q64.58125 274.28082 64.925 274.81207Q65.26875 275.3277 65.45625 276.0777Q65.64375 276.8277 65.64375 278.10895Q65.64375 279.62457 65.33125 280.54645Q65.03438 281.46832 64.40938 281.98395Q63.8 282.48395 62.846874 282.48395Q61.6125 282.48395 60.89375 281.59332Q60.05 280.53082 60.05 278.10895ZM61.128124 278.10895Q61.128124 280.21832 61.628124 280.92145Q62.128124 281.62457 62.846874 281.62457Q63.58125 281.62457 64.06563 280.92145Q64.56563 280.21832 64.56563 278.10895Q64.56563 275.98395 64.06563 275.29645Q63.58125 274.59332 62.83125 274.59332Q62.1125 274.59332 61.675 275.2027Q61.128124 275.98395 61.128124 278.10895Z" fill-rule="nonzero"/><path fill="#000000" d="M23.01875 228.23666L21.971874 228.23666L21.971874 221.51791Q21.58125 221.87729 20.95625 222.25229Q20.346874 222.61166 19.8625 222.78354L19.8625 221.76791Q20.7375 221.34604 21.39375 220.76791Q22.065624 220.17416 22.346874 219.61166L23.01875 219.61166L23.01875 228.23666ZM26.6125 228.23666L26.6125 227.03354L27.815624 227.03354L27.815624 228.23666Q27.815624 228.89291 27.58125 229.29916Q27.346874 229.72104 26.846874 229.93979L26.55 229.48666Q26.878124 229.34604 27.034374 229.04916Q27.190624 228.76791 27.221874 228.23666L26.6125 228.23666ZM29.05 224.00229Q29.05 222.47104 29.3625 221.54916Q29.675 220.61166 30.284374 220.11166Q30.909374 219.61166 31.846874 219.61166Q32.534374 219.61166 33.05 219.89291Q33.58125 220.17416 33.925 220.70541Q34.26875 221.22104 34.45625 221.97104Q34.64375 222.72104 34.64375 224.00229Q34.64375 225.51791 34.33125 226.43979Q34.034374 227.36166 33.409374 227.87729Q32.8 228.37729 31.846874 228.37729Q30.6125 228.37729 29.89375 227.48666Q29.05 226.42416 29.05 224.00229ZM30.128124 224.00229Q30.128124 226.11166 30.628124 226.81479Q31.128124 227.51791 31.846874 227.51791Q32.58125 227.51791 33.065624 226.81479Q33.565624 226.11166 33.565624 224.00229Q33.565624 221.87729 33.065624 221.18979Q32.58125 220.48666 31.83125 220.48666Q31.1125 220.48666 30.675 221.09604Q30.128124 221.87729 30.128124 224.00229ZM36.05 224.00229Q36.05 222.47104 36.3625 221.54916Q36.675 220.61166 37.284374 220.11166Q37.909374 219.61166 38.846874 219.61166Q39.534374 219.61166 40.05 219.89291Q40.58125 220.17416 40.925 220.70541Q41.26875 221.22104 41.45625 221.97104Q41.64375 222.72104 41.64375 224.00229Q41.64375 225.51791 41.33125 226.43979Q41.034374 227.36166 40.409374 227.87729Q39.8 228.37729 38.846874 228.37729Q37.6125 228.37729 36.89375 227.48666Q36.05 226.42416 36.05 224.00229ZM37.128124 224.00229Q37.128124 226.11166 37.628124 226.81479Q38.128124 227.51791 38.846874 227.51791Q39.58125 227.51791 40.065624 226.81479Q40.565624 226.11166 40.565624 224.00229Q40.565624 221.87729 40.065624 221.18979Q39.58125 220.48666 38.83125 220.48666Q38.1125 220.48666 37.675 221.09604Q37.128124 221.87729 37.128124 224.00229ZM43.05 224.00229Q43.05 222.47104 43.3625 221.54916Q43.675 220.61166 44.284374 220.11166Q44.909374 219.61166 45.846874 219.61166Q46.534374 219.61166 47.05 219.89291Q47.58125 220.17416 47.925 220.70541Q48.26875 221.22104 48.45625 221.97104Q48.64375 222.72104 48.64375 224.00229Q48.64375 225.51791 48.33125 226.43979Q48.034374 227.36166 47.409374 227.87729Q46.8 228.37729 45.846874 228.37729Q44.6125 228.37729 43.89375 227.48666Q43.05 226.42416 43.05 224.00229ZM44.128124 224.00229Q44.128124 226.11166 44.628124 226.81479Q45.128124 227.51791 45.846874 227.51791Q46.58125 227.51791 47.065624 226.81479Q47.565624 226.11166 47.565624 224.00229Q47.565624 221.87729 47.065624 221.18979Q46.58125 220.48666 45.83125 220.48666Q45.1125 220.48666 44.675 221.09604Q44.128124 221.87729 44.128124 224.00229ZM50.64375 228.23666L50.64375 227.03354L51.846874 227.03354L51.846874 228.23666L50.64375 228.23666ZM53.05 224.00229Q53.05 222.47104 53.3625 221.54916Q53.675 220.61166 54.284374 220.11166Q54.909374 219.61166 55.846874 219.61166Q56.534374 219.61166 57.05 219.89291Q57.58125 220.17416 57.925 220.70541Q58.26875 221.22104 58.45625 221.97104Q58.64375 222.72104 58.64375 224.00229Q58.64375 225.51791 58.33125 226.43979Q58.034374 227.36166 57.409374 227.87729Q56.8 228.37729 55.846874 228.37729Q54.6125 228.37729 53.89375 227.48666Q53.05 226.42416 53.05 224.00229ZM54.128124 224.00229Q54.128124 226.11166 54.628124 226.81479Q55.128124 227.51791 55.846874 227.51791Q56.58125 227.51791 57.065624 226.81479Q57.565624 226.11166 57.565624 224.00229Q57.565624 221.87729 57.065624 221.18979Q56.58125 220.48666 55.83125 220.48666Q55.1125 220.48666 54.675 221.09604Q54.128124 221.87729 54.128124 224.00229ZM60.05 224.00229Q60.05 222.47104 60.3625 221.54916Q60.675 220.61166 61.284374 220.11166Q61.909374 219.61166 62.846874 219.61166Q63.534374 219.61166 64.05 219.89291Q64.58125 220.17416 64.925 220.70541Q65.26875 221.22104 65.45625 221.97104Q65.64375 222.72104 65.64375 224.00229Q65.64375 225.51791 65.33125 226.43979Q65.03438 227.36166 64.40938 227.87729Q63.8 228.37729 62.846874 228.37729Q61.6125 228.37729 60.89375 227.48666Q60.05 226.42416 60.05 224.00229ZM61.128124 224.00229Q61.128124 226.11166 61.628124 226.81479Q62.128124 227.51791 62.846874 227.51791Q63.58125 227.51791 64.06563 226.81479Q64.56563 226.11166 64.56563 224.00229Q64.56563 221.87729 64.06563 221.18979Q63.58125 220.48666 62.83125 220.48666Q62.1125 220.48666 61.675 221.09604Q61.128124 221.87729 61.128124 224.00229Z" fill-rule="nonzero"/><path fill="#000000" d="M23.01875 174.13L21.971874 174.13L21.971874 167.41125Q21.58125 167.77063 20.95625 168.14563Q20.346874 168.505 19.8625 168.67688L19.8625 167.66125Q20.7375 167.23938 21.39375 166.66125Q22.065624 166.0675 22.346874 165.505L23.01875 165.505L23.01875 174.13ZM26.6125 174.13L26.6125 172.92688L27.815624 172.92688L27.815624 174.13Q27.815624 174.78625 27.58125 175.1925Q27.346874 175.61438 26.846874 175.83313L26.55 175.38Q26.878124 175.23938 27.034374 174.9425Q27.190624 174.66125 27.221874 174.13L26.6125 174.13ZM29.05 171.88L30.159374 171.78625Q30.284374 172.59875 30.721874 173.005Q31.175 173.41125 31.815624 173.41125Q32.565624 173.41125 33.096874 172.83313Q33.628124 172.255 33.628124 171.3175Q33.628124 170.41125 33.1125 169.89563Q32.6125 169.36438 31.784374 169.36438Q31.284374 169.36438 30.8625 169.59875Q30.45625 169.83313 30.221874 170.1925L29.2375 170.0675L30.065624 165.66125L34.346874 165.66125L34.346874 166.66125L30.909374 166.66125L30.45625 168.97375Q31.221874 168.42688 32.065624 168.42688Q33.190624 168.42688 33.95625 169.20813Q34.7375 169.98938 34.7375 171.22375Q34.7375 172.38 34.065624 173.23938Q33.2375 174.27063 31.815624 174.27063Q30.64375 174.27063 29.89375 173.61438Q29.159374 172.95813 29.05 171.88ZM36.05 169.89563Q36.05 168.36438 36.3625 167.4425Q36.675 166.505 37.284374 166.005Q37.909374 165.505 38.846874 165.505Q39.534374 165.505 40.05 165.78625Q40.58125 166.0675 40.925 166.59875Q41.26875 167.11438 41.45625 167.86438Q41.64375 168.61438 41.64375 169.89563Q41.64375 171.41125 41.33125 172.33313Q41.034374 173.255 40.409374 173.77063Q39.8 174.27063 38.846874 174.27063Q37.6125 174.27063 36.89375 173.38Q36.05 172.3175 36.05 169.89563ZM37.128124 169.89563Q37.128124 172.005 37.628124 172.70813Q38.128124 173.41125 38.846874 173.41125Q39.58125 173.41125 40.065624 172.70813Q40.565624 172.005 40.565624 169.89563Q40.565624 167.77063 40.065624 167.08313Q39.58125 166.38 38.83125 166.38Q38.1125 166.38 37.675 166.98938Q37.128124 167.77063 37.128124 169.89563ZM43.05 169.89563Q43.05 168.36438 43.3625 167.4425Q43.675 166.505 44.284374 166.005Q44.909374 165.505 45.846874 165.505Q46.534374 165.505 47.05 165.78625Q47.58125 166.0675 47.925 166.59875Q48.26875 167.11438 48.45625 167.86438Q48.64375 168.61438 48.64375 169.89563Q48.64375 171.41125 48.33125 172.33313Q48.034374 173.255 47.409374 173.77063Q46.8 174.27063 45.846874 174.27063Q44.6125 174.27063 43.89375 173.38Q43.05 172.3175 43.05 169.89563ZM44.128124 169.89563Q44.128124 172.005 44.628124 172.70813Q45.128124 173.41125 45.846874 173.41125Q46.58125 173.41125 47.065624 172.70813Q47.565624 172.005 47.565624 169.89563Q47.565624 167.77063 47.065624 167.08313Q46.58125 166.38 45.83125 166.38Q45.1125 166.38 44.675 166.98938Q44.128124 167.77063 44.128124 169.89563ZM50.64375 174.13L50.64375 172.92688L51.846874 172.92688L51.846874 174.13L50.64375 174.13ZM53.05 169.89563Q53.05 168.36438 53.3625 167.4425Q53.675 166.505 54.284374 166.005Q54.909374 165.505 55.846874 165.505Q56.534374 165.505 57.05 165.78625Q57.58125 166.0675 57.925 166.59875Q58.26875 167.11438 58.45625 167.86438Q58.64375 168.61438 58.64375 169.89563Q58.64375 171.41125 58.33125 172.33313Q58.034374 173.255 57.409374 173.77063Q56.8 174.27063 55.846874 174.27063Q54.6125 174.27063 53.89375 173.38Q53.05 172.3175 53.05 169.89563ZM54.128124 169.89563Q54.128124 172.005 54.628124 172.70813Q55.128124 173.41125 55.846874 173.41125Q56.58125 173.41125 57.065624 172.70813Q57.565624 172.005 57.565624 169.89563Q57.565624 167.77063 57.065624 167.08313Q56.58125 166.38 55.83125 166.38Q55.1125 166.38 54.675 166.98938Q54.128124 167.77063 54.128124 169.89563ZM60.05 169.89563Q60.05 168.36438 60.3625 167.4425Q60.675 166.505 61.284374 166.005Q61.909374 165.505 62.846874 165.505Q63.534374 165.505 64.05 165.78625Q64.58125 166.0675 64.925 166.59875Q65.26875 167.11438 65.45625 167.86438Q65.64375 168.61438 65.64375 169.89563Q65.64375 171.41125 65.33125 172.33313Q65.03438 173.255 64.40938 173.77063Q63.8 174.27063 62.846874 174.27063Q61.6125 174.27063 60.89375 173.38Q60.05 172.3175 60.05 169.89563ZM61.128124 169.89563Q61.128124 172.005 61.628124 172.70813Q62.128124 173.41125 62.846874 173.41125Q63.58125 173.41125 64.06563 172.70813Q64.56563 172.005 64.56563 169.89563Q64.56563 167.77063 64.06563 167.08313Q63.58125 166.38 62.83125 166.38Q62.1125 166.38 61.675 166.98938Q61.128124 167.77063 61.128124 169.89563Z" fill-rule="nonzero"/><path fill="#000000" d="M24.596874 119.007706L24.596874 120.02333L18.909374 120.02333Q18.909374 119.64833 19.034374 119.288956Q19.253124 118.71083 19.721874 118.14833Q20.20625 117.58583 21.1125 116.851456Q22.51875 115.695206 23.003124 115.02333Q23.503124 114.351456 23.503124 113.757706Q23.503124 113.132706 23.05 112.71083Q22.596874 112.27333 21.878124 112.27333Q21.1125 112.27333 20.659374 112.726456Q20.20625 113.17958 20.190624 113.99208L19.1125 113.882706Q19.221874 112.663956 19.940624 112.038956Q20.675 111.39833 21.909374 111.39833Q23.14375 111.39833 23.8625 112.08583Q24.58125 112.77333 24.58125 113.788956Q24.58125 114.30458 24.3625 114.80458Q24.159374 115.288956 23.659374 115.851456Q23.175 116.39833 22.05 117.351456Q21.096874 118.14833 20.815624 118.445206Q20.55 118.726456 20.378124 119.007706L24.596874 119.007706ZM26.6125 120.02333L26.6125 118.820206L27.815624 118.820206L27.815624 120.02333Q27.815624 120.67958 27.58125 121.08583Q27.346874 121.507706 26.846874 121.726456L26.55 121.27333Q26.878124 121.132706 27.034374 120.83583Q27.190624 120.55458 27.221874 120.02333L26.6125 120.02333ZM29.05 115.788956Q29.05 114.257706 29.3625 113.33583Q29.675 112.39833 30.284374 111.89833Q30.909374 111.39833 31.846874 111.39833Q32.534374 111.39833 33.05 111.67958Q33.58125 111.96083 33.925 112.49208Q34.26875 113.007706 34.45625 113.757706Q34.64375 114.507706 34.64375 115.788956Q34.64375 117.30458 34.33125 118.226456Q34.034374 119.14833 33.409374 119.663956Q32.8 120.163956 31.846874 120.163956Q30.6125 120.163956 29.89375 119.27333Q29.05 118.21083 29.05 115.788956ZM30.128124 115.788956Q30.128124 117.89833 30.628124 118.601456Q31.128124 119.30458 31.846874 119.30458Q32.58125 119.30458 33.065624 118.601456Q33.565624 117.89833 33.565624 115.788956Q33.565624 113.663956 33.065624 112.976456Q32.58125 112.27333 31.83125 112.27333Q31.1125 112.27333 30.675 112.882706Q30.128124 113.663956 30.128124 115.788956ZM36.05 115.788956Q36.05 114.257706 36.3625 113.33583Q36.675 112.39833 37.284374 111.89833Q37.909374 111.39833 38.846874 111.39833Q39.534374 111.39833 40.05 111.67958Q40.58125 111.96083 40.925 112.49208Q41.26875 113.007706 41.45625 113.757706Q41.64375 114.507706 41.64375 115.788956Q41.64375 117.30458 41.33125 118.226456Q41.034374 119.14833 40.409374 119.663956Q39.8 120.163956 38.846874 120.163956Q37.6125 120.163956 36.89375 119.27333Q36.05 118.21083 36.05 115.788956ZM37.128124 115.788956Q37.128124 117.89833 37.628124 118.601456Q38.128124 119.30458 38.846874 119.30458Q39.58125 119.30458 40.065624 118.601456Q40.565624 117.89833 40.565624 115.788956Q40.565624 113.663956 40.065624 112.976456Q39.58125 112.27333 38.83125 112.27333Q38.1125 112.27333 37.675 112.882706Q37.128124 113.663956 37.128124 115.788956ZM43.05 115.788956Q43.05 114.257706 43.3625 113.33583Q43.675 112.39833 44.284374 111.89833Q44.909374 111.39833 45.846874 111.39833Q46.534374 111.39833 47.05 111.67958Q47.58125 111.96083 47.925 112.49208Q48.26875 113.007706 48.45625 113.757706Q48.64375 114.507706 48.64375 115.788956Q48.64375 117.30458 48.33125 118.226456Q48.034374 119.14833 47.409374 119.663956Q46.8 120.163956 45.846874 120.163956Q44.6125 120.163956 43.89375 119.27333Q43.05 118.21083 43.05 115.788956ZM44.128124 115.788956Q44.128124 117.89833 44.628124 118.601456Q45.128124 119.30458 45.846874 119.30458Q46.58125 119.30458 47.065624 118.601456Q47.565624 117.89833 47.565624 115.788956Q47.565624 113.663956 47.065624 112.976456Q46.58125 112.27333 45.83125 112.27333Q45.1125 112.27333 44.675 112.882706Q44.128124 113.663956 44.128124 115.788956ZM50.64375 120.02333L50.64375 118.820206L51.846874 118.820206L51.846874 120.02333L50.64375 120.02333ZM53.05 115.788956Q53.05 114.257706 53.3625 113.33583Q53.675 112.39833 54.284374 111.89833Q54.909374 111.39833 55.846874 111.39833Q56.534374 111.39833 57.05 111.67958Q57.58125 111.96083 57.925 112.49208Q58.26875 113.007706 58.45625 113.757706Q58.64375 114.507706 58.64375 115.788956Q58.64375 117.30458 58.33125 118.226456Q58.034374 119.14833 57.409374 119.663956Q56.8 120.163956 55.846874 120.163956Q54.6125 120.163956 53.89375 119.27333Q53.05 118.21083 53.05 115.788956ZM54.128124 115.788956Q54.128124 117.89833 54.628124 118.601456Q55.128124 119.30458 55.846874 119.30458Q56.58125 119.30458 57.065624 118.601456Q57.565624 117.89833 57.565624 115.788956Q57.565624 113.663956 57.065624 112.976456Q56.58125 112.27333 55.83125 112.27333Q55.1125 112.27333 54.675 112.882706Q54.128124 113.663956 54.128124 115.788956ZM60.05 115.788956Q60.05 114.257706 60.3625 113.33583Q60.675 112.39833 61.284374 111.89833Q61.909374 111.39833 62.846874 111.39833Q63.534374 111.39833 64.05 111.67958Q64.58125 111.96083 64.925 112.49208Q65.26875 113.007706 65.45625 113.757706Q65.64375 114.507706 65.64375 115.788956Q65.64375 117.30458 65.33125 118.226456Q65.03438 119.14833 64.40938 119.663956Q63.8 120.163956 62.846874 120.163956Q61.6125 120.163956 60.89375 119.27333Q60.05 118.21083 60.05 115.788956ZM61.128124 115.788956Q61.128124 117.89833 61.628124 118.601456Q62.128124 119.30458 62.846874 119.30458Q63.58125 119.30458 64.06563 118.601456Q64.56563 117.89833 64.56563 115.788956Q64.56563 113.663956 64.06563 112.976456Q63.58125 112.27333 62.83125 112.27333Q62.1125 112.27333 61.675 112.882706Q61.128124 113.663956 61.128124 115.788956Z" fill-rule="nonzero"/><path fill="#000000" d="M24.596874 64.90104L24.596874 65.916664L18.909374 65.916664Q18.909374 65.541664 19.034374 65.18229Q19.253124 64.604164 19.721874 64.041664Q20.20625 63.479164 21.1125 62.74479Q22.51875 61.58854 23.003124 60.916664Q23.503124 60.24479 23.503124 59.65104Q23.503124 59.02604 23.05 58.604164Q22.596874 58.166664 21.878124 58.166664Q21.1125 58.166664 20.659374 58.61979Q20.20625 59.072914 20.190624 59.885414L19.1125 59.77604Q19.221874 58.55729 19.940624 57.93229Q20.675 57.291664 21.909374 57.291664Q23.14375 57.291664 23.8625 57.979164Q24.58125 58.666664 24.58125 59.68229Q24.58125 60.197914 24.3625 60.697914Q24.159374 61.18229 23.659374 61.74479Q23.175 62.291664 22.05 63.24479Q21.096874 64.041664 20.815624 64.33854Q20.55 64.61979 20.378124 64.90104L24.596874 64.90104ZM26.6125 65.916664L26.6125 64.71354L27.815624 64.71354L27.815624 65.916664Q27.815624 66.572914 27.58125 66.979164Q27.346874 67.40104 26.846874 67.61979L26.55 67.166664Q26.878124 67.02604 27.034374 66.729164Q27.190624 66.447914 27.221874 65.916664L26.6125 65.916664ZM29.05 63.666664L30.159374 63.572914Q30.284374 64.385414 30.721874 64.791664Q31.175 65.197914 31.815624 65.197914Q32.565624 65.197914 33.096874 64.61979Q33.628124 64.041664 33.628124 63.104164Q33.628124 62.197914 33.1125 61.68229Q32.6125 61.15104 31.784374 61.15104Q31.284374 61.15104 30.8625 61.385414Q30.45625 61.61979 30.221874 61.979164L29.2375 61.854164L30.065624 57.447914L34.346874 57.447914L34.346874 58.447914L30.909374 58.447914L30.45625 60.760414Q31.221874 60.21354 32.065624 60.21354Q33.190624 60.21354 33.95625 60.99479Q34.7375 61.77604 34.7375 63.010414Q34.7375 64.166664 34.065624 65.02604Q33.2375 66.05729 31.815624 66.05729Q30.64375 66.05729 29.89375 65.40104Q29.159374 64.74479 29.05 63.666664ZM36.05 61.68229Q36.05 60.15104 36.3625 59.229164Q36.675 58.291664 37.284374 57.791664Q37.909374 57.291664 38.846874 57.291664Q39.534374 57.291664 40.05 57.572914Q40.58125 57.854164 40.925 58.385414Q41.26875 58.90104 41.45625 59.65104Q41.64375 60.40104 41.64375 61.68229Q41.64375 63.197914 41.33125 64.11979Q41.034374 65.041664 40.409374 65.55729Q39.8 66.05729 38.846874 66.05729Q37.6125 66.05729 36.89375 65.166664Q36.05 64.104164 36.05 61.68229ZM37.128124 61.68229Q37.128124 63.791664 37.628124 64.49479Q38.128124 65.197914 38.846874 65.197914Q39.58125 65.197914 40.065624 64.49479Q40.565624 63.791664 40.565624 61.68229Q40.565624 59.55729 40.065624 58.86979Q39.58125 58.166664 38.83125 58.166664Q38.1125 58.166664 37.675 58.77604Q37.128124 59.55729 37.128124 61.68229ZM43.05 61.68229Q43.05 60.15104 43.3625 59.229164Q43.675 58.291664 44.284374 57.791664Q44.909374 57.291664 45.846874 57.291664Q46.534374 57.291664 47.05 57.572914Q47.58125 57.854164 47.925 58.385414Q48.26875 58.90104 48.45625 59.65104Q48.64375 60.40104 48.64375 61.68229Q48.64375 63.197914 48.33125 64.11979Q48.034374 65.041664 47.409374 65.55729Q46.8 66.05729 45.846874 66.05729Q44.6125 66.05729 43.89375 65.166664Q43.05 64.104164 43.05 61.68229ZM44.128124 61.68229Q44.128124 63.791664 44.628124 64.49479Q45.128124 65.197914 45.846874 65.197914Q46.58125 65.197914 47.065624 64.49479Q47.565624 63.791664 47.565624 61.68229Q47.565624 59.55729 47.065624 58.86979Q46.58125 58.166664 45.83125 58.166664Q45.1125 58.166664 44.675 58.77604Q44.128124 59.55729 44.128124 61.68229ZM50.64375 65.916664L50.64375 64.71354L51.846874 64.71354L51.846874 65.916664L50.64375 65.916664ZM53.05 61.68229Q53.05 60.15104 53.3625 59.229164Q53.675 58.291664 54.284374 57.791664Q54.909374 57.291664 55.846874 57.291664Q56.534374 57.291664 57.05 57.572914Q57.58125 57.854164 57.925 58.385414Q58.26875 58.90104 58.45625 59.65104Q58.64375 60.40104 58.64375 61.68229Q58.64375 63.197914 58.33125 64.11979Q58.034374 65.041664 57.409374 65.55729Q56.8 66.05729 55.846874 66.05729Q54.6125 66.05729 53.89375 65.166664Q53.05 64.104164 53.05 61.68229ZM54.128124 61.68229Q54.128124 63.791664 54.628124 64.49479Q55.128124 65.197914 55.846874 65.197914Q56.58125 65.197914 57.065624 64.49479Q57.565624 63.791664 57.565624 61.68229Q57.565624 59.55729 57.065624 58.86979Q56.58125 58.166664 55.83125 58.166664Q55.1125 58.166664 54.675 58.77604Q54.128124 59.55729 54.128124 61.68229ZM60.05 61.68229Q60.05 60.15104 60.3625 59.229164Q60.675 58.291664 61.284374 57.791664Q61.909374 57.291664 62.846874 57.291664Q63.534374 57.291664 64.05 57.572914Q64.58125 57.854164 64.925 58.385414Q65.26875 58.90104 65.45625 59.65104Q65.64375 60.40104 65.64375 61.68229Q65.64375 63.197914 65.33125 64.11979Q65.03438 65.041664 64.40938 65.55729Q63.8 66.05729 62.846874 66.05729Q61.6125 66.05729 60.89375 65.166664Q60.05 64.104164 60.05 61.68229ZM61.128124 61.68229Q61.128124 63.791664 61.628124 64.49479Q62.128124 65.197914 62.846874 65.197914Q63.58125 65.197914 64.06563 64.49479Q64.56563 63.791664 64.56563 61.68229Q64.56563 59.55729 64.06563 58.86979Q63.58125 58.166664 62.83125 58.166664Q62.1125 58.166664 61.675 58.77604Q61.128124 59.55729 61.128124 61.68229Z" fill-rule="nonzero"/><path fill="#000000" d="M158.70778 349.45L162.00465 340.85626L163.2234 340.85626L166.73903 349.45L165.45778 349.45L164.44215 346.84064L160.86403 346.84064L159.9109 349.45L158.70778 349.45ZM161.19215 345.91876L164.0984 345.91876L163.20778 343.54376Q162.7859 342.46564 162.5984 341.7625Q162.42653 342.59064 162.12965 343.40314L161.19215 345.91876ZM166.50465 349.45L166.50465 343.23126L167.45778 343.23126L167.45778 344.16876Q167.81715 343.5125 168.11403 343.3094Q168.42653 343.09064 168.80153 343.09064Q169.33278 343.09064 169.87965 343.41876L169.52028 344.40314Q169.12965 344.16876 168.75465 344.16876Q168.39528 344.16876 168.11403 344.3875Q167.8484 344.59064 167.73903 344.96564Q167.55153 345.52814 167.55153 346.1844L167.55153 349.45L166.50465 349.45ZM172.81715 348.5125L172.9734 349.4344Q172.52028 349.52814 172.17653 349.52814Q171.5984 349.52814 171.2859 349.35626Q170.9734 349.16876 170.83278 348.8719Q170.70778 348.575 170.70778 347.6219L170.70778 344.04376L169.94215 344.04376L169.94215 343.23126L170.70778 343.23126L170.70778 341.6844L171.75465 341.0594L171.75465 343.23126L172.81715 343.23126L172.81715 344.04376L171.75465 344.04376L171.75465 347.6844Q171.75465 348.1375 171.80153 348.2625Q171.86403 348.3875 171.98903 348.46564Q172.11403 348.54376 172.3484 348.54376Q172.5359 348.54376 172.81715 348.5125ZM177.77028 347.45L178.86403 347.575Q178.61403 348.52814 177.9109 349.0594Q177.20778 349.59064 176.12965 349.59064Q174.77028 349.59064 173.95778 348.7469Q173.1609 347.90314 173.1609 346.3875Q173.1609 344.825 173.9734 343.96564Q174.7859 343.09064 176.06715 343.09064Q177.31715 343.09064 178.0984 343.9344Q178.89528 344.77814 178.89528 346.325Q178.89528 346.41876 178.89528 346.60626L174.25465 346.60626Q174.31715 347.6375 174.83278 348.1844Q175.3484 348.71564 176.12965 348.71564Q176.70778 348.71564 177.11403 348.41876Q177.5359 348.10626 177.77028 347.45ZM174.31715 345.7469L177.7859 345.7469Q177.7234 344.95 177.39528 344.5594Q176.87965 343.95 176.08278 343.95Q175.3484 343.95 174.8484 344.4344Q174.36403 344.91876 174.31715 345.7469ZM180.52028 349.45L180.52028 343.23126L181.45778 343.23126L181.45778 344.10626Q181.75465 343.6375 182.23903 343.3719Q182.7234 343.09064 183.3484 343.09064Q184.0359 343.09064 184.4734 343.3719Q184.92653 343.65314 185.0984 344.16876Q185.8484 343.09064 187.02028 343.09064Q187.95778 343.09064 188.44215 343.60626Q188.94215 344.10626 188.94215 345.1844L188.94215 349.45L187.89528 349.45L187.89528 345.52814Q187.89528 344.90314 187.7859 344.6219Q187.69215 344.34064 187.42653 344.16876Q187.1609 343.9969 186.7859 343.9969Q186.12965 343.9969 185.69215 344.4344Q185.27028 344.8719 185.27028 345.84064L185.27028 349.45L184.20778 349.45L184.20778 345.40314Q184.20778 344.7 183.94215 344.35626Q183.69215 343.9969 183.11403 343.9969Q182.6609 343.9969 182.2859 344.23126Q181.9109 344.46564 181.73903 344.91876Q181.56715 345.3719 181.56715 346.21564L181.56715 349.45L180.52028 349.45ZM191.52028 342.075L191.52028 340.85626L192.58278 340.85626L192.58278 342.075L191.52028 342.075ZM191.52028 349.45L191.52028 343.23126L192.58278 343.23126L192.58278 349.45L191.52028 349.45ZM194.0984 347.59064L195.12965 347.4344Q195.2234 348.0594 195.61403 348.3875Q196.02028 348.71564 196.75465 348.71564Q197.4734 348.71564 197.81715 348.4344Q198.17653 348.1375 198.17653 347.73126Q198.17653 347.3719 197.86403 347.16876Q197.64528 347.02814 196.7859 346.8094Q195.62965 346.5125 195.17653 346.3094Q194.73903 346.09064 194.50465 345.71564Q194.27028 345.34064 194.27028 344.8719Q194.27028 344.46564 194.45778 344.10626Q194.64528 343.7469 194.9734 343.5125Q195.2234 343.34064 195.64528 343.21564Q196.06715 343.09064 196.56715 343.09064Q197.2859 343.09064 197.83278 343.3094Q198.39528 343.5125 198.6609 343.8719Q198.92653 344.23126 199.02028 344.825L197.98903 344.96564Q197.92653 344.4969 197.58278 344.23126Q197.25465 343.95 196.62965 343.95Q195.9109 343.95 195.5984 344.2Q195.2859 344.4344 195.2859 344.7625Q195.2859 344.96564 195.4109 345.1219Q195.55153 345.29376 195.81715 345.40314Q195.9734 345.46564 196.75465 345.66876Q197.87965 345.98126 198.31715 346.16876Q198.75465 346.35626 199.00465 346.71564Q199.25465 347.075 199.25465 347.6219Q199.25465 348.15314 198.94215 348.6219Q198.64528 349.075 198.06715 349.34064Q197.48903 349.59064 196.75465 349.59064Q195.5359 349.59064 194.89528 349.09064Q194.27028 348.575 194.0984 347.59064ZM201.64528 349.45L201.64528 340.85626L202.80153 340.85626L207.31715 347.60626L207.31715 340.85626L208.4109 340.85626L208.4109 349.45L207.23903 349.45L202.7234 342.7L202.7234 349.45L201.64528 349.45ZM214.77028 347.45L215.86403 347.575Q215.61403 348.52814 214.9109 349.0594Q214.20778 349.59064 213.12965 349.59064Q211.77028 349.59064 210.95778 348.7469Q210.1609 347.90314 210.1609 346.3875Q210.1609 344.825 210.9734 343.96564Q211.7859 343.09064 213.06715 343.09064Q214.31715 343.09064 215.0984 343.9344Q215.89528 344.77814 215.89528 346.325Q215.89528 346.41876 215.89528 346.60626L211.25465 346.60626Q211.31715 347.6375 211.83278 348.1844Q212.3484 348.71564 213.12965 348.71564Q213.70778 348.71564 214.11403 348.41876Q214.5359 348.10626 214.77028 347.45ZM211.31715 345.7469L214.7859 345.7469Q214.7234 344.95 214.39528 344.5594Q213.87965 343.95 213.08278 343.95Q212.3484 343.95 211.8484 344.4344Q211.36403 344.91876 211.31715 345.7469ZM219.81715 348.5125L219.9734 349.4344Q219.52028 349.52814 219.17653 349.52814Q218.5984 349.52814 218.2859 349.35626Q217.9734 349.16876 217.83278 348.8719Q217.70778 348.575 217.70778 347.6219L217.70778 344.04376L216.94215 344.04376L216.94215 343.23126L217.70778 343.23126L217.70778 341.6844L218.75465 341.0594L218.75465 343.23126L219.81715 343.23126L219.81715 344.04376L218.75465 344.04376L218.75465 347.6844Q218.75465 348.1375 218.80153 348.2625Q218.86403 348.3875 218.98903 348.46564Q219.11403 348.54376 219.3484 348.54376Q219.5359 348.54376 219.81715 348.5125ZM226.7859 346.4344L227.9109 346.73126Q227.55153 348.1219 226.62965 348.85626Q225.70778 349.59064 224.36403 349.59064Q222.9734 349.59064 222.0984 349.02814Q221.2234 348.46564 220.77028 347.40314Q220.31715 346.325 220.31715 345.09064Q220.31715 343.7469 220.83278 342.7469Q221.3484 341.7469 222.2859 341.23126Q223.23903 340.71564 224.37965 340.71564Q225.6609 340.71564 226.5359 341.3719Q227.42653 342.02814 227.77028 343.21564L226.64528 343.48126Q226.3484 342.54376 225.77028 342.1219Q225.20778 341.6844 224.3484 341.6844Q223.36403 341.6844 222.69215 342.16876Q222.0359 342.6375 221.75465 343.4344Q221.48903 344.23126 221.48903 345.09064Q221.48903 346.1844 221.80153 346.9969Q222.12965 347.8094 222.80153 348.21564Q223.4734 348.6219 224.27028 348.6219Q225.2234 348.6219 225.87965 348.075Q226.55153 347.52814 226.7859 346.4344ZM229.12965 346.34064Q229.12965 344.60626 230.08278 343.77814Q230.87965 343.09064 232.0359 343.09064Q233.31715 343.09064 234.12965 343.9344Q234.95778 344.7625 234.95778 346.2469Q234.95778 347.45 234.5984 348.1375Q234.23903 348.825 233.5359 349.21564Q232.8484 349.59064 232.0359 349.59064Q230.73903 349.59064 229.92653 348.7625Q229.12965 347.91876 229.12965 346.34064ZM230.20778 346.34064Q230.20778 347.52814 230.7234 348.1219Q231.25465 348.71564 232.0359 348.71564Q232.83278 348.71564 233.3484 348.1219Q233.86403 347.52814 233.86403 346.3094Q233.86403 345.15314 233.33278 344.5594Q232.81715 343.96564 232.0359 343.96564Q231.25465 343.96564 230.7234 344.5594Q230.20778 345.1375 230.20778 346.34064ZM236.50465 349.45L236.50465 343.23126L237.45778 343.23126L237.45778 344.16876Q237.81715 343.5125 238.11403 343.3094Q238.42653 343.09064 238.80153 343.09064Q239.33278 343.09064 239.87965 343.41876L239.52028 344.40314Q239.12965 344.16876 238.75465 344.16876Q238.39528 344.16876 238.11403 344.3875Q237.8484 344.59064 237.73903 344.96564Q237.55153 345.52814 237.55153 346.1844L237.55153 349.45L236.50465 349.45ZM244.77028 347.45L245.86403 347.575Q245.61403 348.52814 244.9109 349.0594Q244.20778 349.59064 243.12965 349.59064Q241.77028 349.59064 240.95778 348.7469Q240.1609 347.90314 240.1609 346.3875Q240.1609 344.825 240.9734 343.96564Q241.7859 343.09064 243.06715 343.09064Q244.31715 343.09064 245.0984 343.9344Q245.89528 344.77814 245.89528 346.325Q245.89528 346.41876 245.89528 346.60626L241.25465 346.60626Q241.31715 347.6375 241.83278 348.1844Q242.3484 348.71564 243.12965 348.71564Q243.70778 348.71564 244.11403 348.41876Q244.5359 348.10626 244.77028 347.45ZM241.31715 345.7469L244.7859 345.7469Q244.7234 344.95 244.39528 344.5594Q243.87965 343.95 243.08278 343.95Q242.3484 343.95 241.8484 344.4344Q241.36403 344.91876 241.31715 345.7469ZM253.7859 346.4344L254.9109 346.73126Q254.55153 348.1219 253.62965 348.85626Q252.70778 349.59064 251.36403 349.59064Q249.9734 349.59064 249.0984 349.02814Q248.2234 348.46564 247.77028 347.40314Q247.31715 346.325 247.31715 345.09064Q247.31715 343.7469 247.83278 342.7469Q248.3484 341.7469 249.2859 341.23126Q250.23903 340.71564 251.37965 340.71564Q252.6609 340.71564 253.5359 341.3719Q254.42653 342.02814 254.77028 343.21564L253.64528 343.48126Q253.3484 342.54376 252.77028 342.1219Q252.20778 341.6844 251.3484 341.6844Q250.36403 341.6844 249.69215 342.16876Q249.0359 342.6375 248.75465 343.4344Q248.48903 344.23126 248.48903 345.09064Q248.48903 346.1844 248.80153 346.9969Q249.12965 347.8094 249.80153 348.21564Q250.4734 348.6219 251.27028 348.6219Q252.2234 348.6219 252.87965 348.075Q253.55153 347.52814 253.7859 346.4344ZM256.489 349.45L256.489 340.85626L257.5515 340.85626L257.5515 349.45L256.489 349.45ZM259.52026 342.075L259.52026 340.85626L260.58276 340.85626L260.58276 342.075L259.52026 342.075ZM259.52026 349.45L259.52026 343.23126L260.58276 343.23126L260.58276 349.45L259.52026 349.45ZM266.77026 347.45L267.864 347.575Q267.614 348.52814 266.9109 349.0594Q266.20776 349.59064 265.12964 349.59064Q263.77026 349.59064 262.95776 348.7469Q262.1609 347.90314 262.1609 346.3875Q262.1609 344.825 262.9734 343.96564Q263.7859 343.09064 265.06714 343.09064Q266.31714 343.09064 267.0984 343.9344Q267.89526 344.77814 267.89526 346.325Q267.89526 346.41876 267.89526 346.60626L263.25464 346.60626Q263.31714 347.6375 263.83276 348.1844Q264.3484 348.71564 265.12964 348.71564Q265.70776 348.71564 266.114 348.41876Q266.5359 348.10626 266.77026 347.45ZM263.31714 345.7469L266.7859 345.7469Q266.7234 344.95 266.39526 344.5594Q265.87964 343.95 265.08276 343.95Q264.3484 343.95 263.8484 344.4344Q263.364 344.91876 263.31714 345.7469ZM269.52026 349.45L269.52026 343.23126L270.45776 343.23126L270.45776 344.10626Q271.14526 343.09064 272.44214 343.09064Q273.00464 343.09064 273.4734 343.29376Q273.95776 343.4969 274.19214 343.825Q274.4265 344.15314 274.52026 344.59064Q274.56714 344.8875 274.56714 345.6219L274.56714 349.45L273.52026 349.45L273.52026 345.66876Q273.52026 345.0125 273.39526 344.7Q273.27026 344.3875 272.95776 344.2Q272.64526 343.9969 272.2234 343.9969Q271.5515 343.9969 271.0515 344.4344Q270.56714 344.85626 270.56714 346.04376L270.56714 349.45L269.52026 349.45ZM278.81714 348.5125L278.9734 349.4344Q278.52026 349.52814 278.1765 349.52814Q277.5984 349.52814 277.2859 349.35626Q276.9734 349.16876 276.83276 348.8719Q276.70776 348.575 276.70776 347.6219L276.70776 344.04376L275.94214 344.04376L275.94214 343.23126L276.70776 343.23126L276.70776 341.6844L277.75464 341.0594L277.75464 343.23126L278.81714 343.23126L278.81714 344.04376L277.75464 344.04376L277.75464 347.6844Q277.75464 348.1375 277.8015 348.2625Q277.864 348.3875 277.989 348.46564Q278.114 348.54376 278.3484 348.54376Q278.5359 348.54376 278.81714 348.5125Z" fill-rule="nonzero"/><path fill="#000000" d="M405.19846 349.45L405.19846 340.85626L406.3547 340.85626L410.87033 347.60626L410.87033 340.85626L411.96408 340.85626L411.96408 349.45L410.7922 349.45L406.27658 342.7L406.27658 349.45L405.19846 349.45ZM414.1672 349.45L414.1672 340.85626L415.88596 340.85626L417.9172 346.9344Q418.19846 347.79376 418.32346 348.21564Q418.46408 347.7469 418.77658 346.84064L420.83908 340.85626L422.37033 340.85626L422.37033 349.45L421.27658 349.45L421.27658 342.2625L418.77658 349.45L417.74533 349.45L415.26096 342.1375L415.26096 349.45L414.1672 349.45ZM422.82346 346.6844L423.88596 346.59064Q423.96408 347.2469 424.24533 347.65314Q424.52658 348.0594 425.1047 348.325Q425.69846 348.575 426.43283 348.575Q427.07346 348.575 427.57346 348.3875Q428.07346 348.1844 428.30783 347.85626Q428.55783 347.5125 428.55783 347.1219Q428.55783 346.71564 428.32346 346.41876Q428.08908 346.10626 427.55783 345.90314Q427.19846 345.7625 426.01096 345.48126Q424.83908 345.2 424.37033 344.95Q423.74533 344.6219 423.44846 344.15314Q423.15158 343.66876 423.15158 343.075Q423.15158 342.4344 423.51096 341.8719Q423.88596 341.29376 424.58908 341.0125Q425.30783 340.71564 426.1672 340.71564Q427.12033 340.71564 427.8547 341.02814Q428.58908 341.325 428.9797 341.9344Q429.37033 342.52814 429.40158 343.27814L428.30783 343.35626Q428.21408 342.54376 427.69846 342.1375Q427.19846 341.71564 426.21408 341.71564Q425.18283 341.71564 424.71408 342.09064Q424.24533 342.46564 424.24533 342.9969Q424.24533 343.46564 424.57346 343.7625Q424.90158 344.0594 426.27658 344.3719Q427.6672 344.6844 428.18283 344.91876Q428.93283 345.27814 429.2922 345.8094Q429.65158 346.325 429.65158 347.02814Q429.65158 347.71564 429.26096 348.325Q428.87033 348.91876 428.13596 349.2625Q427.40158 349.59064 426.4797 349.59064Q425.30783 349.59064 424.51096 349.2625Q423.7297 348.91876 423.27658 348.23126Q422.83908 347.54376 422.82346 346.6844ZM431.37033 349.45L431.37033 348.2469L432.57346 348.2469L432.57346 349.45L431.37033 349.45ZM433.26096 349.45L436.55783 340.85626L437.77658 340.85626L441.2922 349.45L440.01096 349.45L438.99533 346.84064L435.4172 346.84064L434.46408 349.45L433.26096 349.45ZM435.74533 345.91876L438.65158 345.91876L437.76096 343.54376Q437.33908 342.46564 437.15158 341.7625Q436.9797 342.59064 436.68283 343.40314L435.74533 345.91876ZM441.1672 349.45L441.1672 340.85626L442.88596 340.85626L444.9172 346.9344Q445.19846 347.79376 445.32346 348.21564Q445.46408 347.7469 445.77658 346.84064L447.83908 340.85626L449.37033 340.85626L449.37033 349.45L448.27658 349.45L448.27658 342.2625L445.77658 349.45L444.74533 349.45L442.26096 342.1375L442.26096 349.45L441.1672 349.45ZM456.71408 348.52814Q457.51096 349.075 458.1672 349.325L457.83908 350.1219Q456.9172 349.77814 455.99533 349.0594Q455.0422 349.59064 453.88596 349.59064Q452.71408 349.59064 451.76096 349.02814Q450.82346 348.46564 450.30783 347.45Q449.7922 346.4344 449.7922 345.15314Q449.7922 343.8875 450.30783 342.84064Q450.82346 341.79376 451.77658 341.2469Q452.7297 340.7 453.90158 340.7Q455.08908 340.7 456.0422 341.27814Q457.01096 341.84064 457.51096 342.85626Q458.01096 343.8719 458.01096 345.15314Q458.01096 346.21564 457.68283 347.0594Q457.37033 347.90314 456.71408 348.52814ZM454.21408 347.075Q455.19846 347.35626 455.83908 347.90314Q456.83908 346.98126 456.83908 345.15314Q456.83908 344.10626 456.4797 343.325Q456.12033 342.54376 455.43283 342.1219Q454.76096 341.6844 453.9172 341.6844Q452.63596 341.6844 451.7922 342.5594Q450.96408 343.41876 450.96408 345.15314Q450.96408 346.825 451.7922 347.73126Q452.62033 348.6219 453.9172 348.6219Q454.52658 348.6219 455.05783 348.3875Q454.52658 348.04376 453.93283 347.90314L454.21408 347.075ZM459.19846 349.45L459.19846 340.85626L462.44846 340.85626Q463.2922 340.85626 463.74533 340.9344Q464.38596 341.04376 464.80783 341.34064Q465.24533 341.6375 465.49533 342.16876Q465.76096 342.7 465.76096 343.34064Q465.76096 344.4344 465.05783 345.2Q464.37033 345.95 462.5422 345.95L460.33908 345.95L460.33908 349.45L459.19846 349.45ZM460.33908 344.95L462.55783 344.95Q463.6672 344.95 464.12033 344.54376Q464.58908 344.1219 464.58908 343.3719Q464.58908 342.84064 464.30783 342.46564Q464.0422 342.075 463.6047 341.95Q463.30783 341.8719 462.5422 341.8719L460.33908 341.8719L460.33908 344.95Z" fill-rule="nonzero"/><path fill="#757575" d="M20.128124 37.55L20.128124 23.2375L26.471874 23.2375Q28.378124 23.2375 29.378124 23.628124Q30.378124 24.003124 30.971874 24.9875Q31.565624 25.95625 31.565624 27.14375Q31.565624 28.659374 30.58125 29.70625Q29.596874 30.753124 27.534374 31.034374Q28.284374 31.39375 28.675 31.753124Q29.503124 32.503124 30.253124 33.659374L32.7375 37.55L30.3625 37.55L28.45625 34.565624Q27.628124 33.284374 27.096874 32.596874Q26.565624 31.909374 26.128124 31.64375Q25.70625 31.3625 25.26875 31.253124Q24.940624 31.190624 24.221874 31.190624L22.01875 31.190624L22.01875 37.55L20.128124 37.55ZM22.01875 29.55L26.096874 29.55Q27.39375 29.55 28.1125 29.284374Q28.846874 29.01875 29.221874 28.425Q29.6125 27.83125 29.6125 27.14375Q29.6125 26.128124 28.878124 25.471874Q28.14375 24.815624 26.55 24.815624L22.01875 24.815624L22.01875 29.55ZM33.221874 32.3625Q33.221874 29.4875 34.815624 28.096874Q36.159374 26.940624 38.08125 26.940624Q40.221874 26.940624 41.565624 28.346874Q42.925 29.753124 42.925 32.221874Q42.925 34.221874 42.33125 35.378124Q41.7375 36.51875 40.58125 37.159374Q39.440624 37.784374 38.08125 37.784374Q35.89375 37.784374 34.55 36.39375Q33.221874 34.9875 33.221874 32.3625ZM35.01875 32.3625Q35.01875 34.3625 35.878124 35.346874Q36.753124 36.33125 38.08125 36.33125Q39.39375 36.33125 40.253124 35.346874Q41.128124 34.346874 41.128124 32.3Q41.128124 30.378124 40.253124 29.39375Q39.378124 28.39375 38.08125 28.39375Q36.753124 28.39375 35.878124 29.39375Q35.01875 30.378124 35.01875 32.3625ZM51.659374 37.55L51.659374 36.01875Q50.45625 37.784374 48.378124 37.784374Q47.45625 37.784374 46.659374 37.440624Q45.8625 37.08125 45.471874 36.55Q45.096874 36.01875 44.940624 35.2375Q44.83125 34.721874 44.83125 33.596874L44.83125 27.175L46.58125 27.175L46.58125 32.925Q46.58125 34.3 46.690624 34.784374Q46.8625 35.471874 47.39375 35.878124Q47.940624 36.26875 48.721874 36.26875Q49.51875 36.26875 50.20625 35.8625Q50.909374 35.45625 51.190624 34.76875Q51.4875 34.065624 51.4875 32.7375L51.4875 27.175L53.2375 27.175L53.2375 37.55L51.659374 37.55ZM54.8625 37.55L54.8625 27.175L56.45625 27.175L56.45625 28.659374Q57.596874 26.940624 59.753124 26.940624Q60.690624 26.940624 61.471874 27.284374Q62.26875 27.6125 62.659374 28.159374Q63.05 28.70625 63.20625 29.45625Q63.3 29.95625 63.3 31.175L63.3 37.55L61.534374 37.55L61.534374 31.2375Q61.534374 30.159374 61.33125 29.628124Q61.128124 29.096874 60.596874 28.784374Q60.08125 28.471874 59.378124 28.471874Q58.253124 28.471874 57.440624 29.190624Q56.628124 29.89375 56.628124 31.878124L56.628124 37.55L54.8625 37.55ZM71.59688 37.55L71.59688 36.2375Q70.6125 37.784374 68.69063 37.784374Q67.45625 37.784374 66.40938 37.096874Q65.37813 36.409374 64.8 35.190624Q64.2375 33.971874 64.2375 32.378124Q64.2375 30.815624 64.75313 29.55Q65.26875 28.284374 66.3 27.6125Q67.34688 26.940624 68.6125 26.940624Q69.55 26.940624 70.28438 27.346874Q71.01875 27.7375 71.4875 28.3625L71.4875 23.2375L73.22188 23.2375L73.22188 37.55L71.59688 37.55ZM66.03438 32.378124Q66.03438 34.3625 66.87813 35.346874Q67.72188 36.33125 68.8625 36.33125Q70.01875 36.33125 70.81563 35.39375Q71.62813 34.45625 71.62813 32.51875Q71.62813 30.39375 70.8 29.39375Q69.9875 28.39375 68.78438 28.39375Q67.6125 28.39375 66.81563 29.3625Q66.03438 30.315624 66.03438 32.378124ZM75.19063 33.253124L75.19063 31.4875L80.58125 31.4875L80.58125 33.253124L75.19063 33.253124ZM86.70625 35.971874L86.95625 37.534374Q86.22188 37.690624 85.62813 37.690624Q84.675 37.690624 84.14375 37.39375Q83.62813 37.08125 83.40938 36.596874Q83.19063 36.096874 83.19063 34.51875L83.19063 28.55L81.90938 28.55L81.90938 27.175L83.19063 27.175L83.19063 24.6125L84.94063 23.55L84.94063 27.175L86.70625 27.175L86.70625 28.55L84.94063 28.55L84.94063 34.6125Q84.94063 35.3625 85.03438 35.58125Q85.12813 35.784374 85.33125 35.925Q85.55 36.05 85.94063 36.05Q86.22188 36.05 86.70625 35.971874ZM88.84688 37.55L88.84688 27.175L90.425 27.175L90.425 28.753124Q91.03438 27.64375 91.55 27.3Q92.06563 26.940624 92.675 26.940624Q93.56563 26.940624 94.4875 27.503124L93.87813 29.14375Q93.2375 28.753124 92.59688 28.753124Q92.01875 28.753124 91.55 29.1125Q91.09688 29.45625 90.89375 30.065624Q90.6125 31.003124 90.6125 32.1125L90.6125 37.55L88.84688 37.55ZM95.87813 25.253124L95.87813 23.2375L97.64375 23.2375L97.64375 25.253124L95.87813 25.253124ZM95.87813 37.55L95.87813 27.175L97.64375 27.175L97.64375 37.55L95.87813 37.55ZM99.8625 41.51875L99.8625 27.175L101.47188 27.175L101.47188 28.51875Q102.03438 27.7375 102.7375 27.346874Q103.45625 26.940624 104.47188 26.940624Q105.8 26.940624 106.81563 27.628124Q107.83125 28.315624 108.34688 29.565624Q108.87813 30.8 108.87813 32.284374Q108.87813 33.878124 108.3 35.159374Q107.7375 36.425 106.64375 37.1125Q105.55 37.784374 104.34688 37.784374Q103.47188 37.784374 102.76875 37.409374Q102.08125 37.034374 101.62813 36.471874L101.62813 41.51875L99.8625 41.51875ZM101.45625 32.425Q101.45625 34.425 102.26875 35.378124Q103.08125 36.33125 104.2375 36.33125Q105.40938 36.33125 106.2375 35.346874Q107.08125 34.3625 107.08125 32.26875Q107.08125 30.3 106.25313 29.315624Q105.44063 28.315624 104.31563 28.315624Q103.19063 28.315624 102.31563 29.378124Q101.45625 30.425 101.45625 32.425ZM110.15938 34.45625L111.90938 34.175Q112.05 35.221874 112.72188 35.784374Q113.39375 36.33125 114.59688 36.33125Q115.8 36.33125 116.37813 35.846874Q116.97188 35.346874 116.97188 34.690624Q116.97188 34.096874 116.45625 33.753124Q116.09688 33.51875 114.65938 33.159374Q112.72188 32.659374 111.97188 32.315624Q111.2375 31.95625 110.84688 31.33125Q110.45625 30.690624 110.45625 29.925Q110.45625 29.2375 110.76875 28.64375Q111.09688 28.05 111.64375 27.659374Q112.05 27.3625 112.75313 27.159374Q113.47188 26.940624 114.28438 26.940624Q115.50313 26.940624 116.425 27.3Q117.34688 27.64375 117.78438 28.253124Q118.22188 28.846874 118.39375 29.846874L116.675 30.08125Q116.55 29.284374 115.9875 28.846874Q115.425 28.39375 114.40938 28.39375Q113.19063 28.39375 112.675 28.8Q112.15938 29.190624 112.15938 29.721874Q112.15938 30.065624 112.37813 30.346874Q112.58125 30.628124 113.05 30.815624Q113.31563 30.909374 114.59688 31.253124Q116.47188 31.753124 117.20625 32.08125Q117.94063 32.39375 118.3625 33.003124Q118.78438 33.596874 118.78438 34.503124Q118.78438 35.378124 118.26875 36.159374Q117.75313 36.940624 116.78438 37.3625Q115.81563 37.784374 114.59688 37.784374Q112.58125 37.784374 111.51875 36.940624Q110.45625 36.096874 110.15938 34.45625ZM126.8625 41.51875L126.8625 27.175L128.47188 27.175L128.47188 28.51875Q129.03438 27.7375 129.7375 27.346874Q130.45625 26.940624 131.47188 26.940624Q132.8 26.940624 133.81563 27.628124Q134.83125 28.315624 135.34688 29.565624Q135.87813 30.8 135.87813 32.284374Q135.87813 33.878124 135.3 35.159374Q134.7375 36.425 133.64375 37.1125Q132.55 37.784374 131.34688 37.784374Q130.47188 37.784374 129.76875 37.409374Q129.08125 37.034374 128.62813 36.471874L128.62813 41.51875L126.8625 41.51875ZM128.45625 32.425Q128.45625 34.425 129.26875 35.378124Q130.08125 36.33125 131.2375 36.33125Q132.40938 36.33125 133.2375 35.346874Q134.08125 34.3625 134.08125 32.26875Q134.08125 30.3 133.25313 29.315624Q132.44063 28.315624 131.31563 28.315624Q130.19063 28.315624 129.31563 29.378124Q128.45625 30.425 128.45625 32.425ZM144.97188 34.20625L146.78438 34.440624Q146.3625 36.01875 145.19063 36.909374Q144.03438 37.784374 142.22188 37.784374Q139.95625 37.784374 138.6125 36.39375Q137.28438 34.9875 137.28438 32.45625Q137.28438 29.83125 138.62813 28.39375Q139.97188 26.940624 142.12813 26.940624Q144.20625 26.940624 145.51875 28.3625Q146.84688 29.76875 146.84688 32.346874Q146.84688 32.503124 146.83125 32.815624L139.09688 32.815624Q139.19063 34.51875 140.06563 35.425Q140.94063 36.33125 142.2375 36.33125Q143.20625 36.33125 143.87813 35.83125Q144.56563 35.315624 144.97188 34.20625ZM139.19063 31.3625L144.9875 31.3625Q144.87813 30.065624 144.33125 29.409374Q143.4875 28.39375 142.14375 28.39375Q140.94063 28.39375 140.1125 29.20625Q139.28438 30.003124 139.19063 31.3625ZM148.84688 37.55L148.84688 27.175L150.425 27.175L150.425 28.753124Q151.03438 27.64375 151.55 27.3Q152.06563 26.940624 152.675 26.940624Q153.56563 26.940624 154.4875 27.503124L153.87813 29.14375Q153.2375 28.753124 152.59688 28.753124Q152.01875 28.753124 151.55 29.1125Q151.09688 29.45625 150.89375 30.065624Q150.6125 31.003124 150.6125 32.1125L150.6125 37.55L148.84688 37.55ZM161.15938 34.45625L162.90938 34.175Q163.05 35.221874 163.72188 35.784374Q164.39375 36.33125 165.59688 36.33125Q166.8 36.33125 167.37813 35.846874Q167.97188 35.346874 167.97188 34.690624Q167.97188 34.096874 167.45625 33.753124Q167.09688 33.51875 165.65938 33.159374Q163.72188 32.659374 162.97188 32.315624Q162.2375 31.95625 161.84688 31.33125Q161.45625 30.690624 161.45625 29.925Q161.45625 29.2375 161.76875 28.64375Q162.09688 28.05 162.64375 27.659374Q163.05 27.3625 163.75313 27.159374Q164.47188 26.940624 165.28438 26.940624Q166.50313 26.940624 167.425 27.3Q168.34688 27.64375 168.78438 28.253124Q169.22188 28.846874 169.39375 29.846874L167.675 30.08125Q167.55 29.284374 166.9875 28.846874Q166.425 28.39375 165.40938 28.39375Q164.19063 28.39375 163.675 28.8Q163.15938 29.190624 163.15938 29.721874Q163.15938 30.065624 163.37813 30.346874Q163.58125 30.628124 164.05 30.815624Q164.31563 30.909374 165.59688 31.253124Q167.47188 31.753124 168.20625 32.08125Q168.94063 32.39375 169.3625 33.003124Q169.78438 33.596874 169.78438 34.503124Q169.78438 35.378124 169.26875 36.159374Q168.75313 36.940624 167.78438 37.3625Q166.81563 37.784374 165.59688 37.784374Q163.58125 37.784374 162.51875 36.940624Q161.45625 36.096874 161.15938 34.45625ZM178.97188 34.20625L180.78438 34.440624Q180.3625 36.01875 179.19063 36.909374Q178.03438 37.784374 176.22188 37.784374Q173.95625 37.784374 172.6125 36.39375Q171.28438 34.9875 171.28438 32.45625Q171.28438 29.83125 172.62813 28.39375Q173.97188 26.940624 176.12813 26.940624Q178.20625 26.940624 179.51875 28.3625Q180.84688 29.76875 180.84688 32.346874Q180.84688 32.503124 180.83125 32.815624L173.09688 32.815624Q173.19063 34.51875 174.06563 35.425Q174.94063 36.33125 176.2375 36.33125Q177.20625 36.33125 177.87813 35.83125Q178.56563 35.315624 178.97188 34.20625ZM173.19063 31.3625L178.9875 31.3625Q178.87813 30.065624 178.33125 29.409374Q177.4875 28.39375 176.14375 28.39375Q174.94063 28.39375 174.1125 29.20625Q173.28438 30.003124 173.19063 31.3625ZM189.64375 33.753124L191.3625 33.971874Q191.08125 35.76875 189.90938 36.784374Q188.75313 37.784374 187.05 37.784374Q184.925 37.784374 183.62813 36.39375Q182.33125 35.003124 182.33125 32.409374Q182.33125 30.721874 182.87813 29.471874Q183.44063 28.20625 184.58125 27.58125Q185.72188 26.940624 187.06563 26.940624Q188.75313 26.940624 189.81563 27.8Q190.89375 28.659374 191.20625 30.221874L189.4875 30.4875Q189.25313 29.440624 188.62813 28.925Q188.00313 28.39375 187.12813 28.39375Q185.8 28.39375 184.97188 29.346874Q184.14375 30.3 184.14375 32.346874Q184.14375 34.440624 184.94063 35.39375Q185.7375 36.33125 187.03438 36.33125Q188.06563 36.33125 188.75313 35.70625Q189.45625 35.065624 189.64375 33.753124ZM192.22188 32.3625Q192.22188 29.4875 193.81563 28.096874Q195.15938 26.940624 197.08125 26.940624Q199.22188 26.940624 200.56563 28.346874Q201.925 29.753124 201.925 32.221874Q201.925 34.221874 201.33125 35.378124Q200.7375 36.51875 199.58125 37.159374Q198.44063 37.784374 197.08125 37.784374Q194.89375 37.784374 193.55 36.39375Q192.22188 34.9875 192.22188 32.3625ZM194.01875 32.3625Q194.01875 34.3625 194.87813 35.346874Q195.75313 36.33125 197.08125 36.33125Q198.39375 36.33125 199.25313 35.346874Q200.12813 34.346874 200.12813 32.3Q200.12813 30.378124 199.25313 29.39375Q198.37813 28.39375 197.08125 28.39375Q195.75313 28.39375 194.87813 29.39375Q194.01875 30.378124 194.01875 32.3625ZM203.8625 37.55L203.8625 27.175L205.45625 27.175L205.45625 28.659374Q206.59688 26.940624 208.75313 26.940624Q209.69063 26.940624 210.47188 27.284374Q211.26875 27.6125 211.65938 28.159374Q212.05 28.70625 212.20625 29.45625Q212.3 29.95625 212.3 31.175L212.3 37.55L210.53438 37.55L210.53438 31.2375Q210.53438 30.159374 210.33125 29.628124Q210.12813 29.096874 209.59688 28.784374Q209.08125 28.471874 208.37813 28.471874Q207.25313 28.471874 206.44063 29.190624Q205.62813 29.89375 205.62813 31.878124L205.62813 37.55L203.8625 37.55ZM220.59688 37.55L220.59688 36.2375Q219.6125 37.784374 217.69063 37.784374Q216.45625 37.784374 215.40938 37.096874Q214.37813 36.409374 213.8 35.190624Q213.2375 33.971874 213.2375 32.378124Q213.2375 30.815624 213.75313 29.55Q214.26875 28.284374 215.3 27.6125Q216.34688 26.940624 217.6125 26.940624Q218.55 26.940624 219.28438 27.346874Q220.01875 27.7375 220.4875 28.3625L220.4875 23.2375L222.22188 23.2375L222.22188 37.55L220.59688 37.55ZM215.03438 32.378124Q215.03438 34.3625 215.87813 35.346874Q216.72188 36.33125 217.8625 36.33125Q219.01875 36.33125 219.81563 35.39375Q220.62813 34.45625 220.62813 32.51875Q220.62813 30.39375 219.8 29.39375Q218.9875 28.39375 217.78438 28.39375Q216.6125 28.39375 215.81563 29.3625Q215.03438 30.315624 215.03438 32.378124ZM234.22188 41.753124Q232.76875 39.925 231.76875 37.471874Q230.76875 35.003124 230.76875 32.3625Q230.76875 30.034374 231.51875 27.909374Q232.39375 25.440624 234.22188 22.9875L235.4875 22.9875Q234.3 25.01875 233.925 25.89375Q233.33125 27.2375 232.9875 28.70625Q232.56563 30.534374 232.56563 32.378124Q232.56563 37.065624 235.4875 41.753124L234.22188 41.753124ZM237.55 38.409374L239.25313 38.659374Q239.3625 39.45625 239.84688 39.815624Q240.50313 40.3 241.64375 40.3Q242.8625 40.3 243.51875 39.815624Q244.19063 39.33125 244.425 38.45625Q244.56563 37.909374 244.55 36.190624Q243.39375 37.55 241.675 37.55Q239.53438 37.55 238.3625 36.003124Q237.19063 34.45625 237.19063 32.3Q237.19063 30.815624 237.72188 29.565624Q238.26875 28.315624 239.28438 27.628124Q240.31563 26.940624 241.69063 26.940624Q243.51875 26.940624 244.72188 28.425L244.72188 27.175L246.33125 27.175L246.33125 36.14375Q246.33125 38.565624 245.83125 39.565624Q245.34688 40.58125 244.26875 41.159374Q243.20625 41.753124 241.64375 41.753124Q239.8 41.753124 238.64375 40.925Q237.50313 40.096874 237.55 38.409374ZM239.00313 32.175Q239.00313 34.221874 239.81563 35.159374Q240.62813 36.096874 241.84688 36.096874Q243.05 36.096874 243.8625 35.159374Q244.69063 34.221874 244.69063 32.2375Q244.69063 30.33125 243.84688 29.3625Q243.00313 28.39375 241.81563 28.39375Q240.64375 28.39375 239.81563 29.346874Q239.00313 30.3 239.00313 32.175ZM248.84688 37.55L248.84688 27.175L250.425 27.175L250.425 28.753124Q251.03438 27.64375 251.55 27.3Q252.06563 26.940624 252.675 26.940624Q253.56563 26.940624 254.4875 27.503124L253.87813 29.14375Q253.2375 28.753124 252.59688 28.753124Q252.01875 28.753124 251.55 29.1125Q251.09688 29.45625 250.89375 30.065624Q250.6125 31.003124 250.6125 32.1125L250.6125 37.55L248.84688 37.55ZM262.97186 34.20625L264.78436 34.440624Q264.3625 36.01875 263.1906 36.909374Q262.03436 37.784374 260.22186 37.784374Q257.95624 37.784374 256.6125 36.39375Q255.28438 34.9875 255.28438 32.45625Q255.28438 29.83125 256.6281 28.39375Q257.97186 26.940624 260.1281 26.940624Q262.20624 26.940624 263.51874 28.3625Q264.84686 29.76875 264.84686 32.346874Q264.84686 32.503124 264.83124 32.815624L257.09686 32.815624Q257.1906 34.51875 258.0656 35.425Q258.9406 36.33125 260.2375 36.33125Q261.20624 36.33125 261.8781 35.83125Q262.5656 35.315624 262.97186 34.20625ZM257.1906 31.3625L262.9875 31.3625Q262.8781 30.065624 262.33124 29.409374Q261.4875 28.39375 260.14374 28.39375Q258.9406 28.39375 258.1125 29.20625Q257.28436 30.003124 257.1906 31.3625ZM273.64374 36.26875Q272.65936 37.096874 271.7531 37.440624Q270.84686 37.784374 269.8156 37.784374Q268.1125 37.784374 267.1906 36.95625Q266.26874 36.1125 266.26874 34.815624Q266.26874 34.05 266.6125 33.425Q266.97186 32.8 267.53436 32.425Q268.09686 32.034374 268.8 31.83125Q269.3156 31.70625 270.3625 31.565624Q272.4875 31.315624 273.4875 30.971874Q273.5031 30.6125 273.5031 30.503124Q273.5031 29.440624 273.0031 28.9875Q272.33124 28.39375 271.0031 28.39375Q269.7531 28.39375 269.15936 28.83125Q268.58124 29.26875 268.3 30.378124L266.58124 30.14375Q266.8156 29.034374 267.34686 28.3625Q267.8781 27.675 268.89374 27.315624Q269.90936 26.940624 271.2531 26.940624Q272.58124 26.940624 273.40936 27.253124Q274.2375 27.565624 274.6281 28.05Q275.01874 28.51875 275.175 29.2375Q275.26874 29.690624 275.26874 30.8625L275.26874 33.20625Q275.26874 35.659374 275.3781 36.315624Q275.4875 36.95625 275.83124 37.55L273.9875 37.55Q273.72186 37.003124 273.64374 36.26875ZM273.4875 32.346874Q272.53436 32.7375 270.6125 33.003124Q269.53436 33.159374 269.08124 33.3625Q268.64374 33.55 268.39374 33.925Q268.14374 34.3 268.14374 34.76875Q268.14374 35.471874 268.675 35.940624Q269.20624 36.409374 270.2375 36.409374Q271.2531 36.409374 272.03436 35.971874Q272.83124 35.51875 273.20624 34.753124Q273.4875 34.14375 273.4875 32.9875L273.4875 32.346874ZM281.70624 35.971874L281.95624 37.534374Q281.22186 37.690624 280.6281 37.690624Q279.675 37.690624 279.14374 37.39375Q278.6281 37.08125 278.40936 36.596874Q278.1906 36.096874 278.1906 34.51875L278.1906 28.55L276.90936 28.55L276.90936 27.175L278.1906 27.175L278.1906 24.6125L279.9406 23.55L279.9406 27.175L281.70624 27.175L281.70624 28.55L279.9406 28.55L279.9406 34.6125Q279.9406 35.3625 280.03436 35.58125Q280.1281 35.784374 280.33124 35.925Q280.55 36.05 280.9406 36.05Q281.22186 36.05 281.70624 35.971874ZM290.97186 34.20625L292.78436 34.440624Q292.3625 36.01875 291.1906 36.909374Q290.03436 37.784374 288.22186 37.784374Q285.95624 37.784374 284.6125 36.39375Q283.28436 34.9875 283.28436 32.45625Q283.28436 29.83125 284.6281 28.39375Q285.97186 26.940624 288.1281 26.940624Q290.20624 26.940624 291.51874 28.3625Q292.84686 29.76875 292.84686 32.346874Q292.84686 32.503124 292.83124 32.815624L285.09686 32.815624Q285.1906 34.51875 286.0656 35.425Q286.9406 36.33125 288.2375 36.33125Q289.20624 36.33125 289.8781 35.83125Q290.5656 35.315624 290.97186 34.20625ZM285.1906 31.3625L290.9875 31.3625Q290.8781 30.065624 290.33124 29.409374Q289.4875 28.39375 288.14374 28.39375Q286.9406 28.39375 286.1125 29.20625Q285.28436 30.003124 285.1906 31.3625ZM294.84686 37.55L294.84686 27.175L296.425 27.175L296.425 28.753124Q297.03436 27.64375 297.55 27.3Q298.0656 26.940624 298.675 26.940624Q299.5656 26.940624 300.4875 27.503124L299.8781 29.14375Q299.2375 28.753124 298.59686 28.753124Q298.01874 28.753124 297.55 29.1125Q297.09686 29.45625 296.89374 30.065624Q296.6125 31.003124 296.6125 32.1125L296.6125 37.55L294.84686 37.55ZM301.1906 33.253124L301.1906 31.4875L306.58124 31.4875L306.58124 33.253124L301.1906 33.253124ZM310.4875 37.55L308.8625 37.55L308.8625 23.2375L310.6125 23.2375L310.6125 28.346874Q311.7375 26.940624 313.45624 26.940624Q314.40936 26.940624 315.26874 27.33125Q316.1281 27.721874 316.675 28.425Q317.22186 29.1125 317.53436 30.096874Q317.84686 31.08125 317.84686 32.20625Q317.84686 34.878124 316.53436 36.33125Q315.22186 37.784374 313.3781 37.784374Q311.53436 37.784374 310.4875 36.253124L310.4875 37.55ZM310.47186 32.284374Q310.47186 34.14375 310.97186 34.9875Q311.8156 36.33125 313.22186 36.33125Q314.3781 36.33125 315.20624 35.33125Q316.05 34.33125 316.05 32.346874Q316.05 30.315624 315.2375 29.3625Q314.4406 28.39375 313.3 28.39375Q312.14374 28.39375 311.3 29.39375Q310.47186 30.39375 310.47186 32.284374ZM326.97186 34.20625L328.78436 34.440624Q328.3625 36.01875 327.1906 36.909374Q326.03436 37.784374 324.22186 37.784374Q321.95624 37.784374 320.6125 36.39375Q319.28436 34.9875 319.28436 32.45625Q319.28436 29.83125 320.6281 28.39375Q321.97186 26.940624 324.1281 26.940624Q326.20624 26.940624 327.51874 28.3625Q328.84686 29.76875 328.84686 32.346874Q328.84686 32.503124 328.83124 32.815624L321.09686 32.815624Q321.1906 34.51875 322.0656 35.425Q322.9406 36.33125 324.2375 36.33125Q325.20624 36.33125 325.8781 35.83125Q326.5656 35.315624 326.97186 34.20625ZM321.1906 31.3625L326.9875 31.3625Q326.8781 30.065624 326.33124 29.409374Q325.4875 28.39375 324.14374 28.39375Q322.9406 28.39375 322.1125 29.20625Q321.28436 30.003124 321.1906 31.3625ZM334.70624 35.971874L334.95624 37.534374Q334.22186 37.690624 333.6281 37.690624Q332.675 37.690624 332.14374 37.39375Q331.6281 37.08125 331.40936 36.596874Q331.1906 36.096874 331.1906 34.51875L331.1906 28.55L329.90936 28.55L329.90936 27.175L331.1906 27.175L331.1906 24.6125L332.9406 23.55L332.9406 27.175L334.70624 27.175L334.70624 28.55L332.9406 28.55L332.9406 34.6125Q332.9406 35.3625 333.03436 35.58125Q333.1281 35.784374 333.33124 35.925Q333.55 36.05 333.9406 36.05Q334.22186 36.05 334.70624 35.971874ZM340.70624 35.971874L340.95624 37.534374Q340.22186 37.690624 339.6281 37.690624Q338.675 37.690624 338.14374 37.39375Q337.6281 37.08125 337.40936 36.596874Q337.1906 36.096874 337.1906 34.51875L337.1906 28.55L335.90936 28.55L335.90936 27.175L337.1906 27.175L337.1906 24.6125L338.9406 23.55L338.9406 27.175L340.70624 27.175L340.70624 28.55L338.9406 28.55L338.9406 34.6125Q338.9406 35.3625 339.03436 35.58125Q339.1281 35.784374 339.33124 35.925Q339.55 36.05 339.9406 36.05Q340.22186 36.05 340.70624 35.971874ZM349.97186 34.20625L351.78436 34.440624Q351.3625 36.01875 350.1906 36.909374Q349.03436 37.784374 347.22186 37.784374Q344.95624 37.784374 343.6125 36.39375Q342.28436 34.9875 342.28436 32.45625Q342.28436 29.83125 343.6281 28.39375Q344.97186 26.940624 347.1281 26.940624Q349.20624 26.940624 350.51874 28.3625Q351.84686 29.76875 351.84686 32.346874Q351.84686 32.503124 351.83124 32.815624L344.09686 32.815624Q344.1906 34.51875 345.0656 35.425Q345.9406 36.33125 347.2375 36.33125Q348.20624 36.33125 348.8781 35.83125Q349.5656 35.315624 349.97186 34.20625ZM344.1906 31.3625L349.9875 31.3625Q349.8781 30.065624 349.33124 29.409374Q348.4875 28.39375 347.14374 28.39375Q345.9406 28.39375 345.1125 29.20625Q344.28436 30.003124 344.1906 31.3625ZM353.84686 37.55L353.84686 27.175L355.425 27.175L355.425 28.753124Q356.03436 27.64375 356.55 27.3Q357.0656 26.940624 357.675 26.940624Q358.5656 26.940624 359.4875 27.503124L358.8781 29.14375Q358.2375 28.753124 357.59686 28.753124Q357.01874 28.753124 356.55 29.1125Q356.09686 29.45625 355.89374 30.065624Q355.6125 31.003124 355.6125 32.1125L355.6125 37.55L353.84686 37.55ZM362.01874 41.753124L360.76874 41.753124Q363.675 37.065624 363.675 32.378124Q363.675 30.534374 363.26874 28.7375Q362.925 27.26875 362.33124 25.925Q361.95624 25.034374 360.76874 22.9875L362.01874 22.9875Q363.8625 25.440624 364.7375 27.909374Q365.4875 30.034374 365.4875 32.3625Q365.4875 35.003124 364.47186 37.471874Q363.47186 39.925 362.01874 41.753124Z" fill-rule="nonzero"/></svg>