<svg version="1.1" viewBox="0.0 0.0 600.0 371.0" fill="none" stroke="none" stroke-linecap="square" stroke-miterlimit="10" width="600" height="371" xmlns:xlink="http://www.w3.org/1999/xlink" xmlns="http://www.w3.org/2000/svg"><path fill="#ffffff" d="M0 0L600.0 0L600.0 371.0L0 371.0L0 0Z" fill-rule="nonzero"/><path stroke="#333333" stroke-width="1.0" stroke-linecap="butt" d="M52.5 332.5L581.5 332.5" fill-rule="nonzero"/><path stroke="#cccccc" stroke-width="1.0" stroke-linecap="butt" d="M52.5 264.5L581.5 264.5" fill-rule="nonzero"/><path stroke="#cccccc" stroke-width="1.0" stroke-linecap="butt" d="M52.5 197.5L581.5 197.5" fill-rule="nonzero"/><path stroke="#cccccc" stroke-width="1.0" stroke-linecap="butt" d="M52.5 129.5L581.5 129.5" fill-rule="nonzero"/><path stroke="#cccccc" stroke-width="1.0" stroke-linecap="butt" d="M52.5 61.5L581.5 61.5" fill-rule="nonzero"/><path stroke="#000000" stroke-width="1.0" stroke-linecap="butt" stroke-opacity="0.0" d="M52.5 309.5L581.5 309.5" fill-rule="nonzero"/><path stroke="#000000" stroke-width="1.0" stroke-linecap="butt" stroke-opacity="0.0" d="M52.5 287.5L581.5 287.5" fill-rule="nonzero"/><path stroke="#000000" stroke-width="1.0" stroke-linecap="butt" stroke-opacity="0.0" d="M52.5 242.5L581.5 242.5" fill-rule="nonzero"/><path stroke="#000000" stroke-width="1.0" stroke-linecap="butt" stroke-opacity="0.0" d="M52.5 219.5L581.5 219.5" fill-rule="nonzero"/><path stroke="#000000" stroke-width="1.0" stroke-linecap="butt" stroke-opacity="0.0" d="M52.5 174.5L581.5 174.5" fill-rule="nonzero"/><path stroke="#000000" stroke-width="1.0" stroke-linecap="butt" stroke-opacity="0.0" d="M52.5 152.5L581.5 152.5" fill-rule="nonzero"/><path stroke="#000000" stroke-width="1.0" stroke-linecap="butt" stroke-opacity="0.0" d="M52.5 107.5L581.5 107.5" fill-rule="nonzero"/><path stroke="#000000" stroke-width="1.0" stroke-linecap="butt" stroke-opacity="0.0" d="M52.5 84.5L581.5 84.5" fill-rule="nonzero"/><clipPath id="id_0"><path d="M52.55 61.916668L581.45 61.916668L581.45 332.45L52.55 332.45L52.55 61.916668Z" clip-rule="nonzero"/></clipPath><path stroke="#000000" stroke-width="2.0" stroke-linecap="butt" stroke-opacity="0.0" clip-path="url(#id_0)" d="M277.0 332.0L131.0 332.0L131.0 65.0C131.0 63.89543 131.89543 63.0 133.0 63.0L275.0 63.0C276.10458 63.0 277.0 63.89543 277.0 65.0Z" fill-rule="nonzero"/><path fill="#4285f4" clip-path="url(#id_0)" d="M277.0 332.0L131.0 332.0L131.0 65.0C131.0 63.89543 131.89543 63.0 133.0 63.0L275.0 63.0C276.10458 63.0 277.0 63.89543 277.0 65.0Z" fill-rule="nonzero"/><path stroke="#000000" stroke-width="2.0" stroke-linecap="butt" stroke-opacity="0.0" clip-path="url(#id_0)" d="M503.0 332.0L357.0 332.0L357.0 206.0C357.0 204.89543 357.89542 204.0 359.0 204.0L501.0 204.0C502.10458 204.0 503.0 204.89543 503.0 206.0Z" fill-rule="nonzero"/><path fill="#4285f4" clip-path="url(#id_0)" d="M503.0 332.0L357.0 332.0L357.0 206.0C357.0 204.89543 357.89542 204.0 359.0 204.0L501.0 204.0C502.10458 204.0 503.0 204.89543 503.0 206.0Z" fill-rule="nonzero"/><path fill="#000000" d="M40.05 332.21564Q40.05 330.6844 40.3625 329.7625Q40.675 328.825 41.284374 328.325Q41.909374 327.825 42.846874 327.825Q43.534374 327.825 44.05 328.10626Q44.58125 328.3875 44.925 328.91876Q45.26875 329.4344 45.45625 330.1844Q45.64375 330.9344 45.64375 332.21564Q45.64375 333.73126 45.33125 334.65314Q45.034374 335.575 44.409374 336.09064Q43.8 336.59064 42.846874 336.59064Q41.6125 336.59064 40.89375 335.7Q40.05 334.6375 40.05 332.21564ZM41.128124 332.21564Q41.128124 334.325 41.628124 335.02814Q42.128124 335.73126 42.846874 335.73126Q43.58125 335.73126 44.065624 335.02814Q44.565624 334.325 44.565624 332.21564Q44.565624 330.09064 44.065624 329.40314Q43.58125 328.7 42.83125 328.7Q42.1125 328.7 41.675 329.3094Q41.128124 330.09064 41.128124 332.21564Z" fill-rule="nonzero"/><path fill="#000000" d="M26.05 266.56668L27.159374 266.47293Q27.284374 267.28543 27.721874 267.69168Q28.175 268.09793 28.815624 268.09793Q29.565624 268.09793 30.096874 267.5198Q30.628124 266.94168 30.628124 266.00418Q30.628124 265.09793 30.1125 264.5823Q29.6125 264.05106 28.784374 264.05106Q28.284374 264.05106 27.8625 264.28543Q27.45625 264.5198 27.221874 264.87918L26.2375 264.75418L27.065624 260.34793L31.346874 260.34793L31.346874 261.34793L27.909374 261.34793L27.45625 263.66043Q28.221874 263.11356 29.065624 263.11356Q30.190624 263.11356 30.95625 263.8948Q31.7375 264.67606 31.7375 265.91043Q31.7375 267.06668 31.065624 267.92606Q30.2375 268.9573 28.815624 268.9573Q27.64375 268.9573 26.89375 268.30106Q26.159374 267.6448 26.05 266.56668ZM33.05 264.5823Q33.05 263.05106 33.3625 262.12918Q33.675 261.19168 34.284374 260.69168Q34.909374 260.19168 35.846874 260.19168Q36.534374 260.19168 37.05 260.47293Q37.58125 260.75418 37.925 261.28543Q38.26875 261.80106 38.45625 262.55106Q38.64375 263.30106 38.64375 264.5823Q38.64375 266.09793 38.33125 267.0198Q38.034374 267.94168 37.409374 268.4573Q36.8 268.9573 35.846874 268.9573Q34.6125 268.9573 33.89375 268.06668Q33.05 267.00418 33.05 264.5823ZM34.128124 264.5823Q34.128124 266.69168 34.628124 267.3948Q35.128124 268.09793 35.846874 268.09793Q36.58125 268.09793 37.065624 267.3948Q37.565624 266.69168 37.565624 264.5823Q37.565624 262.4573 37.065624 261.7698Q36.58125 261.06668 35.83125 261.06668Q35.1125 261.06668 34.675 261.67606Q34.128124 262.4573 34.128124 264.5823ZM40.05 264.5823Q40.05 263.05106 40.3625 262.12918Q40.675 261.19168 41.284374 260.69168Q41.909374 260.19168 42.846874 260.19168Q43.534374 260.19168 44.05 260.47293Q44.58125 260.75418 44.925 261.28543Q45.26875 261.80106 45.45625 262.55106Q45.64375 263.30106 45.64375 264.5823Q45.64375 266.09793 45.33125 267.0198Q45.034374 267.94168 44.409374 268.4573Q43.8 268.9573 42.846874 268.9573Q41.6125 268.9573 40.89375 268.06668Q40.05 267.00418 40.05 264.5823ZM41.128124 264.5823Q41.128124 266.69168 41.628124 267.3948Q42.128124 268.09793 42.846874 268.09793Q43.58125 268.09793 44.065624 267.3948Q44.565624 266.69168 44.565624 264.5823Q44.565624 262.4573 44.065624 261.7698Q43.58125 261.06668 42.83125 261.06668Q42.1125 261.06668 41.675 261.67606Q41.128124 262.4573 41.128124 264.5823Z" fill-rule="nonzero"/><path fill="#000000" d="M23.01875 201.18333L21.971874 201.18333L21.971874 194.46458Q21.58125 194.82396 20.95625 195.19896Q20.346874 195.55833 19.8625 195.73021L19.8625 194.71458Q20.7375 194.29271 21.39375 193.71458Q22.065624 193.12083 22.346874 192.55833L23.01875 192.55833L23.01875 201.18333ZM26.05 196.94896Q26.05 195.41771 26.3625 194.49583Q26.675 193.55833 27.284374 193.05833Q27.909374 192.55833 28.846874 192.55833Q29.534374 192.55833 30.05 192.83958Q30.58125 193.12083 30.925 193.65208Q31.26875 194.16771 31.45625 194.91771Q31.64375 195.66771 31.64375 196.94896Q31.64375 198.46458 31.33125 199.38646Q31.034374 200.30833 30.409374 200.82396Q29.8 201.32396 28.846874 201.32396Q27.6125 201.32396 26.89375 200.43333Q26.05 199.37083 26.05 196.94896ZM27.128124 196.94896Q27.128124 199.05833 27.628124 199.76146Q28.128124 200.46458 28.846874 200.46458Q29.58125 200.46458 30.065624 199.76146Q30.565624 199.05833 30.565624 196.94896Q30.565624 194.82396 30.065624 194.13646Q29.58125 193.43333 28.83125 193.43333Q28.1125 193.43333 27.675 194.04271Q27.128124 194.82396 27.128124 196.94896ZM33.05 196.94896Q33.05 195.41771 33.3625 194.49583Q33.675 193.55833 34.284374 193.05833Q34.909374 192.55833 35.846874 192.55833Q36.534374 192.55833 37.05 192.83958Q37.58125 193.12083 37.925 193.65208Q38.26875 194.16771 38.45625 194.91771Q38.64375 195.66771 38.64375 196.94896Q38.64375 198.46458 38.33125 199.38646Q38.034374 200.30833 37.409374 200.82396Q36.8 201.32396 35.846874 201.32396Q34.6125 201.32396 33.89375 200.43333Q33.05 199.37083 33.05 196.94896ZM34.128124 196.94896Q34.128124 199.05833 34.628124 199.76146Q35.128124 200.46458 35.846874 200.46458Q36.58125 200.46458 37.065624 199.76146Q37.565624 199.05833 37.565624 196.94896Q37.565624 194.82396 37.065624 194.13646Q36.58125 193.43333 35.83125 193.43333Q35.1125 193.43333 34.675 194.04271Q34.128124 194.82396 34.128124 196.94896ZM40.05 196.94896Q40.05 195.41771 40.3625 194.49583Q40.675 193.55833 41.284374 193.05833Q41.909374 192.55833 42.846874 192.55833Q43.534374 192.55833 44.05 192.83958Q44.58125 193.12083 44.925 193.65208Q45.26875 194.16771 45.45625 194.91771Q45.64375 195.66771 45.64375 196.94896Q45.64375 198.46458 45.33125 199.38646Q45.034374 200.30833 44.409374 200.82396Q43.8 201.32396 42.846874 201.32396Q41.6125 201.32396 40.89375 200.43333Q40.05 199.37083 40.05 196.94896ZM41.128124 196.94896Q41.128124 199.05833 41.628124 199.76146Q42.128124 200.46458 42.846874 200.46458Q43.58125 200.46458 44.065624 199.76146Q44.565624 199.05833 44.565624 196.94896Q44.565624 194.82396 44.065624 194.13646Q43.58125 193.43333 42.83125 193.43333Q42.1125 193.43333 41.675 194.04271Q41.128124 194.82396 41.128124 196.94896Z" fill-rule="nonzero"/><path fill="#000000" d="M23.01875 133.55L21.971874 133.55L21.971874 126.83125Q21.58125 127.19063 20.95625 127.56563Q20.346874 127.925 19.8625 128.09688L19.8625 127.08125Q20.7375 126.65938 21.39375 126.08125Q22.065624 125.4875 22.346874 124.925L23.01875 124.925L23.01875 133.55ZM26.05 131.3L27.159374 131.20625Q27.284374 132.01875 27.721874 132.425Q28.175 132.83125 28.815624 132.83125Q29.565624 132.83125 30.096874 132.25313Q30.628124 131.675 30.628124 130.7375Q30.628124 129.83125 30.1125 129.31563Q29.6125 128.78438 28.784374 128.78438Q28.284374 128.78438 27.8625 129.01875Q27.45625 129.25313 27.221874 129.6125L26.2375 129.4875L27.065624 125.08125L31.346874 125.08125L31.346874 126.08125L27.909374 126.08125L27.45625 128.39375Q28.221874 127.84688 29.065624 127.84688Q30.190624 127.84688 30.95625 128.62813Q31.7375 129.40938 31.7375 130.64375Q31.7375 131.8 31.065624 132.65938Q30.2375 133.69063 28.815624 133.69063Q27.64375 133.69063 26.89375 133.03438Q26.159374 132.37813 26.05 131.3ZM33.05 129.31563Q33.05 127.78438 33.3625 126.8625Q33.675 125.925 34.284374 125.425Q34.909374 124.925 35.846874 124.925Q36.534374 124.925 37.05 125.20625Q37.58125 125.4875 37.925 126.01875Q38.26875 126.53438 38.45625 127.28438Q38.64375 128.03438 38.64375 129.31563Q38.64375 130.83125 38.33125 131.75313Q38.034374 132.675 37.409374 133.19063Q36.8 133.69063 35.846874 133.69063Q34.6125 133.69063 33.89375 132.8Q33.05 131.7375 33.05 129.31563ZM34.128124 129.31563Q34.128124 131.425 34.628124 132.12813Q35.128124 132.83125 35.846874 132.83125Q36.58125 132.83125 37.065624 132.12813Q37.565624 131.425 37.565624 129.31563Q37.565624 127.19063 37.065624 126.50313Q36.58125 125.8 35.83125 125.8Q35.1125 125.8 34.675 126.40938Q34.128124 127.19063 34.128124 129.31563ZM40.05 129.31563Q40.05 127.78438 40.3625 126.8625Q40.675 125.925 41.284374 125.425Q41.909374 124.925 42.846874 124.925Q43.534374 124.925 44.05 125.20625Q44.58125 125.4875 44.925 126.01875Q45.26875 126.53438 45.45625 127.28438Q45.64375 128.03438 45.64375 129.31563Q45.64375 130.83125 45.33125 131.75313Q45.034374 132.675 44.409374 133.19063Q43.8 133.69063 42.846874 133.69063Q41.6125 133.69063 40.89375 132.8Q40.05 131.7375 40.05 129.31563ZM41.128124 129.31563Q41.128124 131.425 41.628124 132.12813Q42.128124 132.83125 42.846874 132.83125Q43.58125 132.83125 44.065624 132.12813Q44.565624 131.425 44.565624 129.31563Q44.565624 127.19063 44.065624 126.50313Q43.58125 125.8 42.83125 125.8Q42.1125 125.8 41.675 126.40938Q41.128124 127.19063 41.128124 129.31563Z" fill-rule="nonzero"/><path fill="#000000" d="M24.596874 64.90104L24.596874 65.916664L18.909374 65.916664Q18.909374 65.541664 19.034374 65.18229Q19.253124 64.604164 19.721874 64.041664Q20.20625 63.479164 21.1125 62.74479Q22.51875 61.58854 23.003124 60.916664Q23.503124 60.24479 23.503124 59.65104Q23.503124 59.02604 23.05 58.604164Q22.596874 58.166664 21.878124 58.166664Q21.1125 58.166664 20.659374 58.61979Q20.20625 59.072914 20.190624 59.885414L19.1125 59.77604Q19.221874 58.55729 19.940624 57.93229Q20.675 57.291664 21.909374 57.291664Q23.14375 57.291664 23.8625 57.979164Q24.58125 58.666664 24.58125 59.68229Q24.58125 60.197914 24.3625 60.697914Q24.159374 61.18229 23.659374 61.74479Q23.175 62.291664 22.05 63.24479Q21.096874 64.041664 20.815624 64.33854Q20.55 64.61979 20.378124 64.90104L24.596874 64.90104ZM26.05 61.68229Q26.05 60.15104 26.3625 59.229164Q26.675 58.291664 27.284374 57.791664Q27.909374 57.291664 28.846874 57.291664Q29.534374 57.291664 30.05 57.572914Q30.58125 57.854164 30.925 58.385414Q31.26875 58.90104 31.45625 59.65104Q31.64375 60.40104 31.64375 61.68229Q31.64375 63.197914 31.33125 64.11979Q31.034374 65.041664 30.409374 65.55729Q29.8 66.05729 28.846874 66.05729Q27.6125 66.05729 26.89375 65.166664Q26.05 64.104164 26.05 61.68229ZM27.128124 61.68229Q27.128124 63.791664 27.628124 64.49479Q28.128124 65.197914 28.846874 65.197914Q29.58125 65.197914 30.065624 64.49479Q30.565624 63.791664 30.565624 61.68229Q30.565624 59.55729 30.065624 58.86979Q29.58125 58.166664 28.83125 58.166664Q28.1125 58.166664 27.675 58.77604Q27.128124 59.55729 27.128124 61.68229ZM33.05 61.68229Q33.05 60.15104 33.3625 59.229164Q33.675 58.291664 34.284374 57.791664Q34.909374 57.291664 35.846874 57.291664Q36.534374 57.291664 37.05 57.572914Q37.58125 57.854164 37.925 58.385414Q38.26875 58.90104 38.45625 59.65104Q38.64375 60.40104 38.64375 61.68229Q38.64375 63.197914 38.33125 64.11979Q38.034374 65.041664 37.409374 65.55729Q36.8 66.05729 35.846874 66.05729Q34.6125 66.05729 33.89375 65.166664Q33.05 64.104164 33.05 61.68229ZM34.128124 61.68229Q34.128124 63.791664 34.628124 64.49479Q35.128124 65.197914 35.846874 65.197914Q36.58125 65.197914 37.065624 64.49479Q37.565624 63.791664 37.565624 61.68229Q37.565624 59.55729 37.065624 58.86979Q36.58125 58.166664 35.83125 58.166664Q35.1125 58.166664 34.675 58.77604Q34.128124 59.55729 34.128124 61.68229ZM40.05 61.68229Q40.05 60.15104 40.3625 59.229164Q40.675 58.291664 41.284374 57.791664Q41.909374 57.291664 42.846874 57.291664Q43.534374 57.291664 44.05 57.572914Q44.58125 57.854164 44.925 58.385414Q45.26875 58.90104 45.45625 59.65104Q45.64375 60.40104 45.64375 61.68229Q45.64375 63.197914 45.33125 64.11979Q45.034374 65.041664 44.409374 65.55729Q43.8 66.05729 42.846874 66.05729Q41.6125 66.05729 40.89375 65.166664Q40.05 64.104164 40.05 61.68229ZM41.128124 61.68229Q41.128124 63.791664 41.628124 64.49479Q42.128124 65.197914 42.846874 65.197914Q43.58125 65.197914 44.065624 64.49479Q44.565624 63.791664 44.565624 61.68229Q44.565624 59.55729 44.065624 58.86979Q43.58125 58.166664 42.83125 58.166664Q42.1125 58.166664 41.675 58.77604Q41.128124 59.55729 41.128124 61.68229Z" fill-rule="nonzero"/><path fill="#000000" d="M144.45245 349.45L147.74933 340.85626L148.96808 340.85626L152.4837 349.45L151.20245 349.45L150.18683 346.84064L146.6087 346.84064L145.65558 349.45L144.45245 349.45ZM146.93683 345.91876L149.84308 345.91876L148.95245 343.54376Q148.53058 342.46564 148.34308 341.7625Q148.1712 342.59064 147.87433 343.40314L146.93683 345.91876ZM152.24933 349.45L152.24933 343.23126L153.20245 343.23126L153.20245 344.16876Q153.56183 343.5125 153.8587 343.3094Q154.1712 343.09064 154.5462 343.09064Q155.07745 343.09064 155.62433 343.41876L155.26495 344.40314Q154.87433 344.16876 154.49933 344.16876Q154.13995 344.16876 153.8587 344.3875Q153.59308 344.59064 153.4837 344.96564Q153.2962 345.52814 153.2962 346.1844L153.2962 349.45L152.24933 349.45ZM158.56183 348.5125L158.71808 349.4344Q158.26495 349.52814 157.9212 349.52814Q157.34308 349.52814 157.03058 349.35626Q156.71808 349.16876 156.57745 348.8719Q156.45245 348.575 156.45245 347.6219L156.45245 344.04376L155.68683 344.04376L155.68683 343.23126L156.45245 343.23126L156.45245 341.6844L157.49933 341.0594L157.49933 343.23126L158.56183 343.23126L158.56183 344.04376L157.49933 344.04376L157.49933 347.6844Q157.49933 348.1375 157.5462 348.2625Q157.6087 348.3875 157.7337 348.46564Q157.8587 348.54376 158.09308 348.54376Q158.28058 348.54376 158.56183 348.5125ZM163.51495 347.45L164.6087 347.575Q164.3587 348.52814 163.65558 349.0594Q162.95245 349.59064 161.87433 349.59064Q160.51495 349.59064 159.70245 348.7469Q158.90558 347.90314 158.90558 346.3875Q158.90558 344.825 159.71808 343.96564Q160.53058 343.09064 161.81183 343.09064Q163.06183 343.09064 163.84308 343.9344Q164.63995 344.77814 164.63995 346.325Q164.63995 346.41876 164.63995 346.60626L159.99933 346.60626Q160.06183 347.6375 160.57745 348.1844Q161.09308 348.71564 161.87433 348.71564Q162.45245 348.71564 162.8587 348.41876Q163.28058 348.10626 163.51495 347.45ZM160.06183 345.7469L163.53058 345.7469Q163.46808 344.95 163.13995 344.5594Q162.62433 343.95 161.82745 343.95Q161.09308 343.95 160.59308 344.4344Q160.1087 344.91876 160.06183 345.7469ZM166.26495 349.45L166.26495 343.23126L167.20245 343.23126L167.20245 344.10626Q167.49933 343.6375 167.9837 343.3719Q168.46808 343.09064 169.09308 343.09064Q169.78058 343.09064 170.21808 343.3719Q170.6712 343.65314 170.84308 344.16876Q171.59308 343.09064 172.76495 343.09064Q173.70245 343.09064 174.18683 343.60626Q174.68683 344.10626 174.68683 345.1844L174.68683 349.45L173.63995 349.45L173.63995 345.52814Q173.63995 344.90314 173.53058 344.6219Q173.43683 344.34064 173.1712 344.16876Q172.90558 343.9969 172.53058 343.9969Q171.87433 343.9969 171.43683 344.4344Q171.01495 344.8719 171.01495 345.84064L171.01495 349.45L169.95245 349.45L169.95245 345.40314Q169.95245 344.7 169.68683 344.35626Q169.43683 343.9969 168.8587 343.9969Q168.40558 343.9969 168.03058 344.23126Q167.65558 344.46564 167.4837 344.91876Q167.31183 345.3719 167.31183 346.21564L167.31183 349.45L166.26495 349.45ZM177.26495 342.075L177.26495 340.85626L178.32745 340.85626L178.32745 342.075L177.26495 342.075ZM177.26495 349.45L177.26495 343.23126L178.32745 343.23126L178.32745 349.45L177.26495 349.45ZM179.84308 347.59064L180.87433 347.4344Q180.96808 348.0594 181.3587 348.3875Q181.76495 348.71564 182.49933 348.71564Q183.21808 348.71564 183.56183 348.4344Q183.9212 348.1375 183.9212 347.73126Q183.9212 347.3719 183.6087 347.16876Q183.38995 347.02814 182.53058 346.8094Q181.37433 346.5125 180.9212 346.3094Q180.4837 346.09064 180.24933 345.71564Q180.01495 345.34064 180.01495 344.8719Q180.01495 344.46564 180.20245 344.10626Q180.38995 343.7469 180.71808 343.5125Q180.96808 343.34064 181.38995 343.21564Q181.81183 343.09064 182.31183 343.09064Q183.03058 343.09064 183.57745 343.3094Q184.13995 343.5125 184.40558 343.8719Q184.6712 344.23126 184.76495 344.825L183.7337 344.96564Q183.6712 344.4969 183.32745 344.23126Q182.99933 343.95 182.37433 343.95Q181.65558 343.95 181.34308 344.2Q181.03058 344.4344 181.03058 344.7625Q181.03058 344.96564 181.15558 345.1219Q181.2962 345.29376 181.56183 345.40314Q181.71808 345.46564 182.49933 345.66876Q183.62433 345.98126 184.06183 346.16876Q184.49933 346.35626 184.74933 346.71564Q184.99933 347.075 184.99933 347.6219Q184.99933 348.15314 184.68683 348.6219Q184.38995 349.075 183.81183 349.34064Q183.2337 349.59064 182.49933 349.59064Q181.28058 349.59064 180.63995 349.09064Q180.01495 348.575 179.84308 347.59064ZM187.38995 349.45L187.38995 340.85626L188.5462 340.85626L193.06183 347.60626L193.06183 340.85626L194.15558 340.85626L194.15558 349.45L192.9837 349.45L188.46808 342.7L188.46808 349.45L187.38995 349.45ZM200.51495 347.45L201.6087 347.575Q201.3587 348.52814 200.65558 349.0594Q199.95245 349.59064 198.87433 349.59064Q197.51495 349.59064 196.70245 348.7469Q195.90558 347.90314 195.90558 346.3875Q195.90558 344.825 196.71808 343.96564Q197.53058 343.09064 198.81183 343.09064Q200.06183 343.09064 200.84308 343.9344Q201.63995 344.77814 201.63995 346.325Q201.63995 346.41876 201.63995 346.60626L196.99933 346.60626Q197.06183 347.6375 197.57745 348.1844Q198.09308 348.71564 198.87433 348.71564Q199.45245 348.71564 199.8587 348.41876Q200.28058 348.10626 200.51495 347.45ZM197.06183 345.7469L200.53058 345.7469Q200.46808 344.95 200.13995 344.5594Q199.62433 343.95 198.82745 343.95Q198.09308 343.95 197.59308 344.4344Q197.1087 344.91876 197.06183 345.7469ZM205.56183 348.5125L205.71808 349.4344Q205.26495 349.52814 204.9212 349.52814Q204.34308 349.52814 204.03058 349.35626Q203.71808 349.16876 203.57745 348.8719Q203.45245 348.575 203.45245 347.6219L203.45245 344.04376L202.68683 344.04376L202.68683 343.23126L203.45245 343.23126L203.45245 341.6844L204.49933 341.0594L204.49933 343.23126L205.56183 343.23126L205.56183 344.04376L204.49933 344.04376L204.49933 347.6844Q204.49933 348.1375 204.5462 348.2625Q204.6087 348.3875 204.7337 348.46564Q204.8587 348.54376 205.09308 348.54376Q205.28058 348.54376 205.56183 348.5125ZM212.53058 346.4344L213.65558 346.73126Q213.2962 348.1219 212.37433 348.85626Q211.45245 349.59064 210.1087 349.59064Q208.71808 349.59064 207.84308 349.02814Q206.96808 348.46564 206.51495 347.40314Q206.06183 346.325 206.06183 345.09064Q206.06183 343.7469 206.57745 342.7469Q207.09308 341.7469 208.03058 341.23126Q208.9837 340.71564 210.12433 340.71564Q211.40558 340.71564 212.28058 341.3719Q213.1712 342.02814 213.51495 343.21564L212.38995 343.48126Q212.09308 342.54376 211.51495 342.1219Q210.95245 341.6844 210.09308 341.6844Q209.1087 341.6844 208.43683 342.16876Q207.78058 342.6375 207.49933 343.4344Q207.2337 344.23126 207.2337 345.09064Q207.2337 346.1844 207.5462 346.9969Q207.87433 347.8094 208.5462 348.21564Q209.21808 348.6219 210.01495 348.6219Q210.96808 348.6219 211.62433 348.075Q212.2962 347.52814 212.53058 346.4344ZM214.87433 346.34064Q214.87433 344.60626 215.82745 343.77814Q216.62433 343.09064 217.78058 343.09064Q219.06183 343.09064 219.87433 343.9344Q220.70245 344.7625 220.70245 346.2469Q220.70245 347.45 220.34308 348.1375Q219.9837 348.825 219.28058 349.21564Q218.59308 349.59064 217.78058 349.59064Q216.4837 349.59064 215.6712 348.7625Q214.87433 347.91876 214.87433 346.34064ZM215.95245 346.34064Q215.95245 347.52814 216.46808 348.1219Q216.99933 348.71564 217.78058 348.71564Q218.57745 348.71564 219.09308 348.1219Q219.6087 347.52814 219.6087 346.3094Q219.6087 345.15314 219.07745 344.5594Q218.56183 343.96564 217.78058 343.96564Q216.99933 343.96564 216.46808 344.5594Q215.95245 345.1375 215.95245 346.34064ZM222.24933 349.45L222.24933 343.23126L223.20245 343.23126L223.20245 344.16876Q223.56183 343.5125 223.8587 343.3094Q224.1712 343.09064 224.5462 343.09064Q225.07745 343.09064 225.62433 343.41876L225.26495 344.40314Q224.87433 344.16876 224.49933 344.16876Q224.13995 344.16876 223.8587 344.3875Q223.59308 344.59064 223.4837 344.96564Q223.2962 345.52814 223.2962 346.1844L223.2962 349.45L222.24933 349.45ZM230.51495 347.45L231.6087 347.575Q231.3587 348.52814 230.65558 349.0594Q229.95245 349.59064 228.87433 349.59064Q227.51495 349.59064 226.70245 348.7469Q225.90558 347.90314 225.90558 346.3875Q225.90558 344.825 226.71808 343.96564Q227.53058 343.09064 228.81183 343.09064Q230.06183 343.09064 230.84308 343.9344Q231.63995 344.77814 231.63995 346.325Q231.63995 346.41876 231.63995 346.60626L226.99933 346.60626Q227.06183 347.6375 227.57745 348.1844Q228.09308 348.71564 228.87433 348.71564Q229.45245 348.71564 229.8587 348.41876Q230.28058 348.10626 230.51495 347.45ZM227.06183 345.7469L230.53058 345.7469Q230.46808 344.95 230.13995 344.5594Q229.62433 343.95 228.82745 343.95Q228.09308 343.95 227.59308 344.4344Q227.1087 344.91876 227.06183 345.7469ZM239.53058 346.4344L240.65558 346.73126Q240.2962 348.1219 239.37433 348.85626Q238.45245 349.59064 237.1087 349.59064Q235.71808 349.59064 234.84308 349.02814Q233.96808 348.46564 233.51495 347.40314Q233.06183 346.325 233.06183 345.09064Q233.06183 343.7469 233.57745 342.7469Q234.09308 341.7469 235.03058 341.23126Q235.9837 340.71564 237.12433 340.71564Q238.40558 340.71564 239.28058 341.3719Q240.1712 342.02814 240.51495 343.21564L239.38995 343.48126Q239.09308 342.54376 238.51495 342.1219Q237.95245 341.6844 237.09308 341.6844Q236.1087 341.6844 235.43683 342.16876Q234.78058 342.6375 234.49933 343.4344Q234.2337 344.23126 234.2337 345.09064Q234.2337 346.1844 234.5462 346.9969Q234.87433 347.8094 235.5462 348.21564Q236.21808 348.6219 237.01495 348.6219Q237.96808 348.6219 238.62433 348.075Q239.2962 347.52814 239.53058 346.4344ZM242.2337 349.45L242.2337 340.85626L243.2962 340.85626L243.2962 349.45L242.2337 349.45ZM245.26495 342.075L245.26495 340.85626L246.32745 340.85626L246.32745 342.075L245.26495 342.075ZM245.26495 349.45L245.26495 343.23126L246.32745 343.23126L246.32745 349.45L245.26495 349.45ZM252.51495 347.45L253.6087 347.575Q253.3587 348.52814 252.65558 349.0594Q251.95245 349.59064 250.87433 349.59064Q249.51495 349.59064 248.70245 348.7469Q247.90558 347.90314 247.90558 346.3875Q247.90558 344.825 248.71808 343.96564Q249.53058 343.09064 250.81183 343.09064Q252.06183 343.09064 252.84308 343.9344Q253.63995 344.77814 253.63995 346.325Q253.63995 346.41876 253.63995 346.60626L248.99933 346.60626Q249.06183 347.6375 249.57745 348.1844Q250.09308 348.71564 250.87433 348.71564Q251.45245 348.71564 251.8587 348.41876Q252.28058 348.10626 252.51495 347.45ZM249.06183 345.7469L252.53058 345.7469Q252.46808 344.95 252.13995 344.5594Q251.62433 343.95 250.82745 343.95Q250.09308 343.95 249.59308 344.4344Q249.1087 344.91876 249.06183 345.7469ZM255.26495 349.45L255.26495 343.23126L256.20245 343.23126L256.20245 344.10626Q256.88995 343.09064 258.18683 343.09064Q258.74933 343.09064 259.21808 343.29376Q259.70245 343.4969 259.93683 343.825Q260.1712 344.15314 260.26495 344.59064Q260.31183 344.8875 260.31183 345.6219L260.31183 349.45L259.26495 349.45L259.26495 345.66876Q259.26495 345.0125 259.13995 344.7Q259.01495 344.3875 258.70245 344.2Q258.38995 343.9969 257.96808 343.9969Q257.2962 343.9969 256.7962 344.4344Q256.31183 344.85626 256.31183 346.04376L256.31183 349.45L255.26495 349.45ZM264.56183 348.5125L264.71808 349.4344Q264.26495 349.52814 263.9212 349.52814Q263.34308 349.52814 263.03058 349.35626Q262.71808 349.16876 262.57745 348.8719Q262.45245 348.575 262.45245 347.6219L262.45245 344.04376L261.68683 344.04376L261.68683 343.23126L262.45245 343.23126L262.45245 341.6844L263.49933 341.0594L263.49933 343.23126L264.56183 343.23126L264.56183 344.04376L263.49933 344.04376L263.49933 347.6844Q263.49933 348.1375 263.5462 348.2625Q263.6087 348.3875 263.7337 348.46564Q263.8587 348.54376 264.09308 348.54376Q264.28058 348.54376 264.56183 348.5125Z" fill-rule="nonzero"/><path fill="#000000" d="M399.4538 349.45L399.4538 340.85626L400.61005 340.85626L405.12567 347.60626L405.12567 340.85626L406.21942 340.85626L406.21942 349.45L405.04755 349.45L400.53192 342.7L400.53192 349.45L399.4538 349.45ZM408.42255 349.45L408.42255 340.85626L410.1413 340.85626L412.17255 346.9344Q412.4538 347.79376 412.5788 348.21564Q412.71942 347.7469 413.03192 346.84064L415.09442 340.85626L416.62567 340.85626L416.62567 349.45L415.53192 349.45L415.53192 342.2625L413.03192 349.45L412.00067 349.45L409.5163 342.1375L409.5163 349.45L408.42255 349.45ZM417.0788 346.6844L418.1413 346.59064Q418.21942 347.2469 418.50067 347.65314Q418.78192 348.0594 419.36005 348.325Q419.9538 348.575 420.68817 348.575Q421.3288 348.575 421.8288 348.3875Q422.3288 348.1844 422.56317 347.85626Q422.81317 347.5125 422.81317 347.1219Q422.81317 346.71564 422.5788 346.41876Q422.34442 346.10626 421.81317 345.90314Q421.4538 345.7625 420.2663 345.48126Q419.09442 345.2 418.62567 344.95Q418.00067 344.6219 417.7038 344.15314Q417.40692 343.66876 417.40692 343.075Q417.40692 342.4344 417.7663 341.8719Q418.1413 341.29376 418.84442 341.0125Q419.56317 340.71564 420.42255 340.71564Q421.37567 340.71564 422.11005 341.02814Q422.84442 341.325 423.23505 341.9344Q423.62567 342.52814 423.65692 343.27814L422.56317 343.35626Q422.46942 342.54376 421.9538 342.1375Q421.4538 341.71564 420.46942 341.71564Q419.43817 341.71564 418.96942 342.09064Q418.50067 342.46564 418.50067 342.9969Q418.50067 343.46564 418.8288 343.7625Q419.15692 344.0594 420.53192 344.3719Q421.92255 344.6844 422.43817 344.91876Q423.18817 345.27814 423.54755 345.8094Q423.90692 346.325 423.90692 347.02814Q423.90692 347.71564 423.5163 348.325Q423.12567 348.91876 422.3913 349.2625Q421.65692 349.59064 420.73505 349.59064Q419.56317 349.59064 418.7663 349.2625Q417.98505 348.91876 417.53192 348.23126Q417.09442 347.54376 417.0788 346.6844ZM425.62567 349.45L425.62567 348.2469L426.8288 348.2469L426.8288 349.45L425.62567 349.45ZM427.5163 349.45L430.81317 340.85626L432.03192 340.85626L435.54755 349.45L434.2663 349.45L433.25067 346.84064L429.67255 346.84064L428.71942 349.45L427.5163 349.45ZM430.00067 345.91876L432.90692 345.91876L432.0163 343.54376Q431.59442 342.46564 431.40692 341.7625Q431.23505 342.59064 430.93817 343.40314L430.00067 345.91876ZM435.42255 349.45L435.42255 340.85626L437.1413 340.85626L439.17255 346.9344Q439.4538 347.79376 439.5788 348.21564Q439.71942 347.7469 440.03192 346.84064L442.09442 340.85626L443.62567 340.85626L443.62567 349.45L442.53192 349.45L442.53192 342.2625L440.03192 349.45L439.00067 349.45L436.5163 342.1375L436.5163 349.45L435.42255 349.45ZM450.96942 348.52814Q451.7663 349.075 452.42255 349.325L452.09442 350.1219Q451.17255 349.77814 450.25067 349.0594Q449.29755 349.59064 448.1413 349.59064Q446.96942 349.59064 446.0163 349.02814Q445.0788 348.46564 444.56317 347.45Q444.04755 346.4344 444.04755 345.15314Q444.04755 343.8875 444.56317 342.84064Q445.0788 341.79376 446.03192 341.2469Q446.98505 340.7 448.15692 340.7Q449.34442 340.7 450.29755 341.27814Q451.2663 341.84064 451.7663 342.85626Q452.2663 343.8719 452.2663 345.15314Q452.2663 346.21564 451.93817 347.0594Q451.62567 347.90314 450.96942 348.52814ZM448.46942 347.075Q449.4538 347.35626 450.09442 347.90314Q451.09442 346.98126 451.09442 345.15314Q451.09442 344.10626 450.73505 343.325Q450.37567 342.54376 449.68817 342.1219Q449.0163 341.6844 448.17255 341.6844Q446.8913 341.6844 446.04755 342.5594Q445.21942 343.41876 445.21942 345.15314Q445.21942 346.825 446.04755 347.73126Q446.87567 348.6219 448.17255 348.6219Q448.78192 348.6219 449.31317 348.3875Q448.78192 348.04376 448.18817 347.90314L448.46942 347.075ZM453.4538 349.45L453.4538 340.85626L456.7038 340.85626Q457.54755 340.85626 458.00067 340.9344Q458.6413 341.04376 459.06317 341.34064Q459.50067 341.6375 459.75067 342.16876Q460.0163 342.7 460.0163 343.34064Q460.0163 344.4344 459.31317 345.2Q458.62567 345.95 456.79755 345.95L454.59442 345.95L454.59442 349.45L453.4538 349.45ZM454.59442 344.95L456.81317 344.95Q457.92255 344.95 458.37567 344.54376Q458.84442 344.1219 458.84442 343.3719Q458.84442 342.84064 458.56317 342.46564Q458.29755 342.075 457.86005 341.95Q457.56317 341.8719 456.79755 341.8719L454.59442 341.8719L454.59442 344.95Z" fill-rule="nonzero"/><path fill="#757575" d="M20.128124 37.55L20.128124 23.2375L26.471874 23.2375Q28.378124 23.2375 29.378124 23.628124Q30.378124 24.003124 30.971874 24.9875Q31.565624 25.95625 31.565624 27.14375Q31.565624 28.659374 30.58125 29.70625Q29.596874 30.753124 27.534374 31.034374Q28.284374 31.39375 28.675 31.753124Q29.503124 32.503124 30.253124 33.659374L32.7375 37.55L30.3625 37.55L28.45625 34.565624Q27.628124 33.284374 27.096874 32.596874Q26.565624 31.909374 26.128124 31.64375Q25.70625 31.3625 25.26875 31.253124Q24.940624 31.190624 24.221874 31.190624L22.01875 31.190624L22.01875 37.55L20.128124 37.55ZM22.01875 29.55L26.096874 29.55Q27.39375 29.55 28.1125 29.284374Q28.846874 29.01875 29.221874 28.425Q29.6125 27.83125 29.6125 27.14375Q29.6125 26.128124 28.878124 25.471874Q28.14375 24.815624 26.55 24.815624L22.01875 24.815624L22.01875 29.55ZM40.971874 34.20625L42.784374 34.440624Q42.3625 36.01875 41.190624 36.909374Q40.034374 37.784374 38.221874 37.784374Q35.95625 37.784374 34.6125 36.39375Q33.284374 34.9875 33.284374 32.45625Q33.284374 29.83125 34.628124 28.39375Q35.971874 26.940624 38.128124 26.940624Q40.20625 26.940624 41.51875 28.3625Q42.846874 29.76875 42.846874 32.346874Q42.846874 32.503124 42.83125 32.815624L35.096874 32.815624Q35.190624 34.51875 36.065624 35.425Q36.940624 36.33125 38.2375 36.33125Q39.20625 36.33125 39.878124 35.83125Q40.565624 35.315624 40.971874 34.20625ZM35.190624 31.3625L40.9875 31.3625Q40.878124 30.065624 40.33125 29.409374Q39.4875 28.39375 38.14375 28.39375Q36.940624 28.39375 36.1125 29.20625Q35.284374 30.003124 35.190624 31.3625ZM51.4875 41.51875L51.4875 36.440624Q51.065624 37.01875 50.33125 37.409374Q49.596874 37.784374 48.76875 37.784374Q46.925 37.784374 45.58125 36.315624Q44.253124 34.83125 44.253124 32.26875Q44.253124 30.70625 44.784374 29.471874Q45.33125 28.221874 46.3625 27.58125Q47.39375 26.940624 48.628124 26.940624Q50.55 26.940624 51.659374 28.565624L51.659374 27.175L53.2375 27.175L53.2375 41.51875L51.4875 41.51875ZM46.065624 32.33125Q46.065624 34.33125 46.89375 35.33125Q47.7375 36.33125 48.909374 36.33125Q50.034374 36.33125 50.846874 35.39375Q51.659374 34.440624 51.659374 32.4875Q51.659374 30.425 50.8 29.378124Q49.940624 28.33125 48.8 28.33125Q47.659374 28.33125 46.8625 29.3Q46.065624 30.26875 46.065624 32.33125ZM62.659374 37.55L62.659374 36.01875Q61.45625 37.784374 59.378124 37.784374Q58.45625 37.784374 57.659374 37.440624Q56.8625 37.08125 56.471874 36.55Q56.096874 36.01875 55.940624 35.2375Q55.83125 34.721874 55.83125 33.596874L55.83125 27.175L57.58125 27.175L57.58125 32.925Q57.58125 34.3 57.690624 34.784374Q57.8625 35.471874 58.39375 35.878124Q58.940624 36.26875 59.721874 36.26875Q60.51875 36.26875 61.20625 35.8625Q61.909374 35.45625 62.190624 34.76875Q62.4875 34.065624 62.4875 32.7375L62.4875 27.175L64.2375 27.175L64.2375 37.55L62.659374 37.55ZM72.97188 34.20625L74.78438 34.440624Q74.3625 36.01875 73.19063 36.909374Q72.03438 37.784374 70.22188 37.784374Q67.95625 37.784374 66.6125 36.39375Q65.28438 34.9875 65.28438 32.45625Q65.28438 29.83125 66.62813 28.39375Q67.97188 26.940624 70.12813 26.940624Q72.20625 26.940624 73.51875 28.3625Q74.84688 29.76875 74.84688 32.346874Q74.84688 32.503124 74.83125 32.815624L67.09688 32.815624Q67.19063 34.51875 68.06563 35.425Q68.94063 36.33125 70.2375 36.33125Q71.20625 36.33125 71.87813 35.83125Q72.56563 35.315624 72.97188 34.20625ZM67.19063 31.3625L72.9875 31.3625Q72.87813 30.065624 72.33125 29.409374Q71.4875 28.39375 70.14375 28.39375Q68.94063 28.39375 68.1125 29.20625Q67.28438 30.003124 67.19063 31.3625ZM76.15938 34.45625L77.90938 34.175Q78.05 35.221874 78.72188 35.784374Q79.39375 36.33125 80.59688 36.33125Q81.8 36.33125 82.37813 35.846874Q82.97188 35.346874 82.97188 34.690624Q82.97188 34.096874 82.45625 33.753124Q82.09688 33.51875 80.65938 33.159374Q78.72188 32.659374 77.97188 32.315624Q77.2375 31.95625 76.84688 31.33125Q76.45625 30.690624 76.45625 29.925Q76.45625 29.2375 76.76875 28.64375Q77.09688 28.05 77.64375 27.659374Q78.05 27.3625 78.75313 27.159374Q79.47188 26.940624 80.28438 26.940624Q81.50313 26.940624 82.425 27.3Q83.34688 27.64375 83.78438 28.253124Q84.22188 28.846874 84.39375 29.846874L82.675 30.08125Q82.55 29.284374 81.9875 28.846874Q81.425 28.39375 80.40938 28.39375Q79.19063 28.39375 78.675 28.8Q78.15938 29.190624 78.15938 29.721874Q78.15938 30.065624 78.37813 30.346874Q78.58125 30.628124 79.05 30.815624Q79.31563 30.909374 80.59688 31.253124Q82.47188 31.753124 83.20625 32.08125Q83.94063 32.39375 84.3625 33.003124Q84.78438 33.596874 84.78438 34.503124Q84.78438 35.378124 84.26875 36.159374Q83.75313 36.940624 82.78438 37.3625Q81.81563 37.784374 80.59688 37.784374Q78.58125 37.784374 77.51875 36.940624Q76.45625 36.096874 76.15938 34.45625ZM90.70625 35.971874L90.95625 37.534374Q90.22188 37.690624 89.62813 37.690624Q88.675 37.690624 88.14375 37.39375Q87.62813 37.08125 87.40938 36.596874Q87.19063 36.096874 87.19063 34.51875L87.19063 28.55L85.90938 28.55L85.90938 27.175L87.19063 27.175L87.19063 24.6125L88.94063 23.55L88.94063 27.175L90.70625 27.175L90.70625 28.55L88.94063 28.55L88.94063 34.6125Q88.94063 35.3625 89.03438 35.58125Q89.12813 35.784374 89.33125 35.925Q89.55 36.05 89.94063 36.05Q90.22188 36.05 90.70625 35.971874ZM92.15938 34.45625L93.90938 34.175Q94.05 35.221874 94.72188 35.784374Q95.39375 36.33125 96.59688 36.33125Q97.8 36.33125 98.37813 35.846874Q98.97188 35.346874 98.97188 34.690624Q98.97188 34.096874 98.45625 33.753124Q98.09688 33.51875 96.65938 33.159374Q94.72188 32.659374 93.97188 32.315624Q93.2375 31.95625 92.84688 31.33125Q92.45625 30.690624 92.45625 29.925Q92.45625 29.2375 92.76875 28.64375Q93.09688 28.05 93.64375 27.659374Q94.05 27.3625 94.75313 27.159374Q95.47188 26.940624 96.28438 26.940624Q97.50313 26.940624 98.425 27.3Q99.34688 27.64375 99.78438 28.253124Q100.22188 28.846874 100.39375 29.846874L98.675 30.08125Q98.55 29.284374 97.9875 28.846874Q97.425 28.39375 96.40938 28.39375Q95.19063 28.39375 94.675 28.8Q94.15938 29.190624 94.15938 29.721874Q94.15938 30.065624 94.37813 30.346874Q94.58125 30.628124 95.05 30.815624Q95.31563 30.909374 96.59688 31.253124Q98.47188 31.753124 99.20625 32.08125Q99.94063 32.39375 100.3625 33.003124Q100.78438 33.596874 100.78438 34.503124Q100.78438 35.378124 100.26875 36.159374Q99.75313 36.940624 98.78438 37.3625Q97.81563 37.784374 96.59688 37.784374Q94.58125 37.784374 93.51875 36.940624Q92.45625 36.096874 92.15938 34.45625ZM109.09688 37.55L109.09688 23.2375L114.4875 23.2375Q115.925 23.2375 116.675 23.3625Q117.72188 23.55 118.44063 24.05Q119.15938 24.534374 119.58125 25.425Q120.01875 26.315624 120.01875 27.378124Q120.01875 29.20625 118.84688 30.471874Q117.69063 31.721874 114.65938 31.721874L110.9875 31.721874L110.9875 37.55L109.09688 37.55ZM110.9875 30.034374L114.69063 30.034374Q116.51875 30.034374 117.28438 29.3625Q118.06563 28.675 118.06563 27.425Q118.06563 26.534374 117.6125 25.89375Q117.15938 25.253124 116.425 25.05Q115.94063 24.925 114.64375 24.925L110.9875 24.925L110.9875 30.034374ZM128.97188 34.20625L130.78438 34.440624Q130.3625 36.01875 129.19063 36.909374Q128.03438 37.784374 126.22188 37.784374Q123.95625 37.784374 122.6125 36.39375Q121.28438 34.9875 121.28438 32.45625Q121.28438 29.83125 122.62813 28.39375Q123.97188 26.940624 126.12813 26.940624Q128.20625 26.940624 129.51875 28.3625Q130.84688 29.76875 130.84688 32.346874Q130.84688 32.503124 130.83125 32.815624L123.09688 32.815624Q123.19063 34.51875 124.06563 35.425Q124.94063 36.33125 126.2375 36.33125Q127.20625 36.33125 127.87813 35.83125Q128.56563 35.315624 128.97188 34.20625ZM123.19063 31.3625L128.9875 31.3625Q128.87813 30.065624 128.33125 29.409374Q127.4875 28.39375 126.14375 28.39375Q124.94063 28.39375 124.1125 29.20625Q123.28438 30.003124 123.19063 31.3625ZM132.84688 37.55L132.84688 27.175L134.425 27.175L134.425 28.753124Q135.03438 27.64375 135.55 27.3Q136.06563 26.940624 136.675 26.940624Q137.56563 26.940624 138.4875 27.503124L137.87813 29.14375Q137.2375 28.753124 136.59688 28.753124Q136.01875 28.753124 135.55 29.1125Q135.09688 29.45625 134.89375 30.065624Q134.6125 31.003124 134.6125 32.1125L134.6125 37.55L132.84688 37.55ZM145.45625 32.95625L147.2375 32.8Q147.3625 33.8625 147.81563 34.55Q148.28438 35.2375 149.25313 35.675Q150.2375 36.096874 151.47188 36.096874Q152.55 36.096874 153.37813 35.784374Q154.20625 35.45625 154.6125 34.89375Q155.01875 34.33125 155.01875 33.659374Q155.01875 32.9875 154.62813 32.4875Q154.2375 31.9875 153.34688 31.64375Q152.76875 31.409374 150.78438 30.940624Q148.81563 30.471874 148.03438 30.05Q147.00313 29.51875 146.50313 28.721874Q146.00313 27.925 146.00313 26.940624Q146.00313 25.846874 146.6125 24.909374Q147.22188 23.971874 148.40938 23.4875Q149.59688 22.9875 151.03438 22.9875Q152.62813 22.9875 153.84688 23.503124Q155.06563 24.01875 155.70625 25.01875Q156.3625 26.003124 156.40938 27.26875L154.59688 27.409374Q154.45625 26.05 153.6125 25.3625Q152.76875 24.659374 151.1125 24.659374Q149.39375 24.659374 148.59688 25.3Q147.81563 25.925 147.81563 26.8Q147.81563 27.58125 148.37813 28.08125Q148.925 28.58125 151.2375 29.096874Q153.55 29.6125 154.40938 30.003124Q155.65938 30.58125 156.25313 31.471874Q156.84688 32.346874 156.84688 33.503124Q156.84688 34.64375 156.19063 35.659374Q155.53438 36.675 154.3 37.2375Q153.08125 37.8 151.55 37.8Q149.6125 37.8 148.3 37.2375Q146.9875 36.659374 146.2375 35.51875Q145.4875 34.378124 145.45625 32.95625ZM165.97188 34.20625L167.78438 34.440624Q167.3625 36.01875 166.19063 36.909374Q165.03438 37.784374 163.22188 37.784374Q160.95625 37.784374 159.6125 36.39375Q158.28438 34.9875 158.28438 32.45625Q158.28438 29.83125 159.62813 28.39375Q160.97188 26.940624 163.12813 26.940624Q165.20625 26.940624 166.51875 28.3625Q167.84688 29.76875 167.84688 32.346874Q167.84688 32.503124 167.83125 32.815624L160.09688 32.815624Q160.19063 34.51875 161.06563 35.425Q161.94063 36.33125 163.2375 36.33125Q164.20625 36.33125 164.87813 35.83125Q165.56563 35.315624 165.97188 34.20625ZM160.19063 31.3625L165.9875 31.3625Q165.87813 30.065624 165.33125 29.409374Q164.4875 28.39375 163.14375 28.39375Q161.94063 28.39375 161.1125 29.20625Q160.28438 30.003124 160.19063 31.3625ZM176.64375 33.753124L178.3625 33.971874Q178.08125 35.76875 176.90938 36.784374Q175.75313 37.784374 174.05 37.784374Q171.925 37.784374 170.62813 36.39375Q169.33125 35.003124 169.33125 32.409374Q169.33125 30.721874 169.87813 29.471874Q170.44063 28.20625 171.58125 27.58125Q172.72188 26.940624 174.06563 26.940624Q175.75313 26.940624 176.81563 27.8Q177.89375 28.659374 178.20625 30.221874L176.4875 30.4875Q176.25313 29.440624 175.62813 28.925Q175.00313 28.39375 174.12813 28.39375Q172.8 28.39375 171.97188 29.346874Q171.14375 30.3 171.14375 32.346874Q171.14375 34.440624 171.94063 35.39375Q172.7375 36.33125 174.03438 36.33125Q175.06563 36.33125 175.75313 35.70625Q176.45625 35.065624 176.64375 33.753124ZM179.22188 32.3625Q179.22188 29.4875 180.81563 28.096874Q182.15938 26.940624 184.08125 26.940624Q186.22188 26.940624 187.56563 28.346874Q188.925 29.753124 188.925 32.221874Q188.925 34.221874 188.33125 35.378124Q187.7375 36.51875 186.58125 37.159374Q185.44063 37.784374 184.08125 37.784374Q181.89375 37.784374 180.55 36.39375Q179.22188 34.9875 179.22188 32.3625ZM181.01875 32.3625Q181.01875 34.3625 181.87813 35.346874Q182.75313 36.33125 184.08125 36.33125Q185.39375 36.33125 186.25313 35.346874Q187.12813 34.346874 187.12813 32.3Q187.12813 30.378124 186.25313 29.39375Q185.37813 28.39375 184.08125 28.39375Q182.75313 28.39375 181.87813 29.39375Q181.01875 30.378124 181.01875 32.3625ZM190.8625 37.55L190.8625 27.175L192.45625 27.175L192.45625 28.659374Q193.59688 26.940624 195.75313 26.940624Q196.69063 26.940624 197.47188 27.284374Q198.26875 27.6125 198.65938 28.159374Q199.05 28.70625 199.20625 29.45625Q199.3 29.95625 199.3 31.175L199.3 37.55L197.53438 37.55L197.53438 31.2375Q197.53438 30.159374 197.33125 29.628124Q197.12813 29.096874 196.59688 28.784374Q196.08125 28.471874 195.37813 28.471874Q194.25313 28.471874 193.44063 29.190624Q192.62813 29.89375 192.62813 31.878124L192.62813 37.55L190.8625 37.55ZM207.59688 37.55L207.59688 36.2375Q206.6125 37.784374 204.69063 37.784374Q203.45625 37.784374 202.40938 37.096874Q201.37813 36.409374 200.8 35.190624Q200.2375 33.971874 200.2375 32.378124Q200.2375 30.815624 200.75313 29.55Q201.26875 28.284374 202.3 27.6125Q203.34688 26.940624 204.6125 26.940624Q205.55 26.940624 206.28438 27.346874Q207.01875 27.7375 207.4875 28.3625L207.4875 23.2375L209.22188 23.2375L209.22188 37.55L207.59688 37.55ZM202.03438 32.378124Q202.03438 34.3625 202.87813 35.346874Q203.72188 36.33125 204.8625 36.33125Q206.01875 36.33125 206.81563 35.39375Q207.62813 34.45625 207.62813 32.51875Q207.62813 30.39375 206.8 29.39375Q205.9875 28.39375 204.78438 28.39375Q203.6125 28.39375 202.81563 29.3625Q202.03438 30.315624 202.03438 32.378124ZM221.22188 41.753124Q219.76875 39.925 218.76875 37.471874Q217.76875 35.003124 217.76875 32.3625Q217.76875 30.034374 218.51875 27.909374Q219.39375 25.440624 221.22188 22.9875L222.4875 22.9875Q221.3 25.01875 220.925 25.89375Q220.33125 27.2375 219.9875 28.70625Q219.56563 30.534374 219.56563 32.378124Q219.56563 37.065624 222.4875 41.753124L221.22188 41.753124ZM225.03438 37.55L225.03438 23.2375L227.89375 23.2375L231.26875 33.3625Q231.7375 34.784374 231.95625 35.4875Q232.20625 34.70625 232.72188 33.190624L236.14375 23.2375L238.69063 23.2375L238.69063 37.55L236.87813 37.55L236.87813 25.565624L232.70625 37.55L231.00313 37.55L226.8625 25.3625L226.8625 37.55L225.03438 37.55ZM248.97188 34.20625L250.78438 34.440624Q250.3625 36.01875 249.19063 36.909374Q248.03438 37.784374 246.22188 37.784374Q243.95625 37.784374 242.6125 36.39375Q241.28438 34.9875 241.28438 32.45625Q241.28438 29.83125 242.62813 28.39375Q243.97188 26.940624 246.12813 26.940624Q248.20625 26.940624 249.51875 28.3625Q250.84688 29.76875 250.84688 32.346874Q250.84688 32.503124 250.83125 32.815624L243.09688 32.815624Q243.19063 34.51875 244.06563 35.425Q244.94063 36.33125 246.2375 36.33125Q247.20625 36.33125 247.87813 35.83125Q248.56563 35.315624 248.97188 34.20625ZM243.19063 31.3625L248.9875 31.3625Q248.87813 30.065624 248.33125 29.409374Q247.4875 28.39375 246.14375 28.39375Q244.94063 28.39375 244.1125 29.20625Q243.28438 30.003124 243.19063 31.3625ZM259.64374 36.26875Q258.65936 37.096874 257.7531 37.440624Q256.84686 37.784374 255.81563 37.784374Q254.1125 37.784374 253.19063 36.95625Q252.26875 36.1125 252.26875 34.815624Q252.26875 34.05 252.6125 33.425Q252.97188 32.8 253.53438 32.425Q254.09688 32.034374 254.8 31.83125Q255.31563 31.70625 256.3625 31.565624Q258.4875 31.315624 259.4875 30.971874Q259.5031 30.6125 259.5031 30.503124Q259.5031 29.440624 259.0031 28.9875Q258.33124 28.39375 257.0031 28.39375Q255.75313 28.39375 255.15938 28.83125Q254.58125 29.26875 254.3 30.378124L252.58125 30.14375Q252.81563 29.034374 253.34688 28.3625Q253.87813 27.675 254.89375 27.315624Q255.90938 26.940624 257.2531 26.940624Q258.58124 26.940624 259.40936 27.253124Q260.2375 27.565624 260.6281 28.05Q261.01874 28.51875 261.175 29.2375Q261.26874 29.690624 261.26874 30.8625L261.26874 33.20625Q261.26874 35.659374 261.3781 36.315624Q261.4875 36.95625 261.83124 37.55L259.9875 37.55Q259.72186 37.003124 259.64374 36.26875ZM259.4875 32.346874Q258.53436 32.7375 256.6125 33.003124Q255.53438 33.159374 255.08125 33.3625Q254.64375 33.55 254.39375 33.925Q254.14375 34.3 254.14375 34.76875Q254.14375 35.471874 254.675 35.940624Q255.20625 36.409374 256.2375 36.409374Q257.2531 36.409374 258.03436 35.971874Q258.83124 35.51875 259.20624 34.753124Q259.4875 34.14375 259.4875 32.9875L259.4875 32.346874ZM263.8625 37.55L263.8625 27.175L265.45624 27.175L265.45624 28.659374Q266.59686 26.940624 268.7531 26.940624Q269.6906 26.940624 270.47186 27.284374Q271.26874 27.6125 271.65936 28.159374Q272.05 28.70625 272.20624 29.45625Q272.3 29.95625 272.3 31.175L272.3 37.55L270.53436 37.55L270.53436 31.2375Q270.53436 30.159374 270.33124 29.628124Q270.1281 29.096874 269.59686 28.784374Q269.08124 28.471874 268.3781 28.471874Q267.2531 28.471874 266.4406 29.190624Q265.6281 29.89375 265.6281 31.878124L265.6281 37.55L263.8625 37.55ZM275.01874 41.753124L273.76874 41.753124Q276.675 37.065624 276.675 32.378124Q276.675 30.534374 276.26874 28.7375Q275.925 27.26875 275.33124 25.925Q274.95624 25.034374 273.76874 22.9875L275.01874 22.9875Q276.8625 25.440624 277.7375 27.909374Q278.4875 30.034374 278.4875 32.3625Q278.4875 35.003124 277.47186 37.471874Q276.47186 39.925 275.01874 41.753124Z" fill-rule="nonzero"/></svg>