<svg version="1.1" viewBox="0.0 0.0 600.0 371.0" fill="none" stroke="none" stroke-linecap="square" stroke-miterlimit="10" width="600" height="371" xmlns:xlink="http://www.w3.org/1999/xlink" xmlns="http://www.w3.org/2000/svg"><path fill="#ffffff" d="M0 0L600.0 0L600.0 371.0L0 371.0L0 0Z" fill-rule="nonzero"/><path stroke="#333333" stroke-width="1.0" stroke-linecap="butt" d="M86.5 332.5L581.5 332.5" fill-rule="nonzero"/><path stroke="#cccccc" stroke-width="1.0" stroke-linecap="butt" d="M86.5 242.5L581.5 242.5" fill-rule="nonzero"/><path stroke="#cccccc" stroke-width="1.0" stroke-linecap="butt" d="M86.5 152.5L581.5 152.5" fill-rule="nonzero"/><path stroke="#cccccc" stroke-width="1.0" stroke-linecap="butt" d="M86.5 61.5L581.5 61.5" fill-rule="nonzero"/><clipPath id="id_0"><path d="M86.55 61.916668L581.45 61.916668L581.45 332.45L86.55 332.45L86.55 61.916668Z" clip-rule="nonzero"/></clipPath><path stroke="#000000" stroke-width="2.0" stroke-linecap="butt" stroke-opacity="0.0" clip-path="url(#id_0)" d="M298.0 332.0L161.0 332.0L161.0 85.0C161.0 83.89543 161.89543 83.0 163.0 83.0L296.0 83.0C297.10458 83.0 298.0 83.89543 298.0 85.0Z" fill-rule="nonzero"/><path fill="#4285f4" clip-path="url(#id_0)" d="M298.0 332.0L161.0 332.0L161.0 85.0C161.0 83.89543 161.89543 83.0 163.0 83.0L296.0 83.0C297.10458 83.0 298.0 83.89543 298.0 85.0Z" fill-rule="nonzero"/><path stroke="#000000" stroke-width="2.0" stroke-linecap="butt" stroke-opacity="0.0" clip-path="url(#id_0)" d="M508.0 332.0L371.0 332.0L371.0 216.0C371.0 214.89543 371.89542 214.0 373.0 214.0L506.0 214.0C507.10458 214.0 508.0 214.89543 508.0 216.0Z" fill-rule="nonzero"/><path fill="#4285f4" clip-path="url(#id_0)" d="M508.0 332.0L371.0 332.0L371.0 216.0C371.0 214.89543 371.89542 214.0 373.0 214.0L506.0 214.0C507.10458 214.0 508.0 214.89543 508.0 216.0Z" fill-rule="nonzero"/><path stroke="#4285f4" stroke-width="3.0" stroke-linejoin="round" stroke-linecap="round" d="M202.76562 100.27333L201.6875 100.27333L201.6875 93.05458L199.5 93.851456L199.5 92.86708L202.60938 91.695206L202.76562 91.695206L202.76562 100.27333ZM207.78125 95.476456L208.59375 95.476456Q209.375 95.46083 209.8125 95.070206Q210.25 94.67958 210.25 94.007706Q210.25 92.507706 208.75 92.507706Q208.04688 92.507706 207.625 92.913956Q207.21875 93.320206 207.21875 93.976456L206.125 93.976456Q206.125 92.96083 206.85938 92.288956Q207.60938 91.61708 208.75 91.61708Q209.95312 91.61708 210.64062 92.257706Q211.32812 92.89833 211.32812 94.038956Q211.32812 94.601456 210.96875 95.11708Q210.60938 95.632706 209.98438 95.89833Q210.6875 96.11708 211.0625 96.632706Q211.45312 97.14833 211.45312 97.89833Q211.45312 99.038956 210.70312 99.726456Q209.95312 100.39833 208.75 100.39833Q207.5625 100.39833 206.79688 99.74208Q206.04688 99.08583 206.04688 98.02333L207.14062 98.02333Q207.14062 98.695206 207.57812 99.101456Q208.01562 99.507706 208.76562 99.507706Q209.54688 99.507706 209.95312 99.101456Q210.375 98.67958 210.375 97.913956Q210.375 97.17958 209.92188 96.788956Q209.46875 96.382706 208.59375 96.36708L207.78125 96.36708L207.78125 95.476456ZM218.39062 93.96083Q218.39062 94.601456 218.04688 95.101456Q217.70312 95.601456 217.14062 95.882706Q217.79688 96.163956 218.1875 96.726456Q218.57812 97.27333 218.57812 97.976456Q218.57812 99.070206 217.82812 99.74208Q217.09375 100.39833 215.875 100.39833Q214.64062 100.39833 213.89062 99.74208Q213.15625 99.070206 213.15625 97.976456Q213.15625 97.27333 213.53125 96.726456Q213.90625 96.163956 214.57812 95.882706Q214.01562 95.601456 213.6875 95.101456Q213.35938 94.601456 213.35938 93.96083Q213.35938 92.882706 214.04688 92.257706Q214.73438 91.61708 215.875 91.61708Q217.0 91.61708 217.6875 92.257706Q218.39062 92.882706 218.39062 93.96083ZM217.5 97.945206Q217.5 97.226456 217.04688 96.788956Q216.59375 96.33583 215.85938 96.33583Q215.125 96.33583 214.67188 96.788956Q214.23438 97.226456 214.23438 97.96083Q214.23438 98.67958 214.67188 99.101456Q215.10938 99.507706 215.875 99.507706Q216.625 99.507706 217.0625 99.08583Q217.5 98.663956 217.5 97.945206ZM215.875 92.507706Q215.23438 92.507706 214.82812 92.913956Q214.4375 93.30458 214.4375 93.99208Q214.4375 94.632706 214.82812 95.038956Q215.21875 95.445206 215.85938 95.445206Q216.51562 95.445206 216.90625 95.038956Q217.29688 94.632706 217.29688 93.99208Q217.29688 93.33583 216.89062 92.92958Q216.48438 92.507706 215.875 92.507706ZM220.28125 101.976456L219.67188 101.55458Q220.21875 100.788956 220.25 99.96083L220.25 98.99208L221.3125 98.99208L221.3125 99.83583Q221.3125 100.42958 221.01562 101.02333Q220.71875 101.61708 220.28125 101.976456ZM227.5625 96.632706Q227.5625 98.538956 226.90625 99.476456Q226.26562 100.39833 224.875 100.39833Q223.51562 100.39833 222.85938 99.49208Q222.20312 98.58583 222.17188 96.77333L222.17188 95.33583Q222.17188 93.445206 222.8125 92.538956Q223.46875 91.61708 224.85938 91.61708Q226.23438 91.61708 226.89062 92.507706Q227.54688 93.382706 227.5625 95.226456L227.5625 96.632706ZM226.46875 95.14833Q226.46875 93.77333 226.07812 93.14833Q225.70312 92.507706 224.85938 92.507706Q224.03125 92.507706 223.64062 93.14833Q223.26562 93.77333 223.26562 95.070206L223.26562 96.80458Q223.26562 98.17958 223.65625 98.851456Q224.0625 99.507706 224.875 99.507706Q225.67188 99.507706 226.0625 98.882706Q226.45312 98.257706 226.46875 96.92958L226.46875 95.14833ZM233.78125 97.413956L234.96875 97.413956L234.96875 98.288956L233.78125 98.288956L233.78125 100.27333L232.70312 100.27333L232.70312 98.288956L228.8125 98.288956L228.8125 97.64833L232.625 91.74208L233.78125 91.74208L233.78125 97.413956ZM230.04688 97.413956L232.70312 97.413956L232.70312 93.226456L232.5625 93.46083L230.04688 97.413956ZM241.71875 92.351456L238.1875 100.27333L237.04688 100.27333L240.5625 92.632706L235.95312 92.632706L235.95312 91.74208L241.71875 91.74208L241.71875 92.351456ZM243.34375 99.71083Q243.34375 99.42958 243.5 99.24208Q243.67188 99.05458 244.0 99.05458Q244.34375 99.05458 244.51562 99.24208Q244.6875 99.42958 244.6875 99.71083Q244.6875 99.976456 244.51562 100.163956Q244.34375 100.33583 244.0 100.33583Q243.67188 100.33583 243.5 100.163956Q243.34375 99.976456 243.34375 99.71083ZM250.46875 91.74208L250.46875 92.64833L250.26562 92.64833Q249.0 92.67958 248.25 93.413956Q247.5 94.132706 247.375 95.445206Q248.0625 94.67958 249.21875 94.67958Q250.32812 94.67958 251.0 95.46083Q251.67188 96.24208 251.67188 97.49208Q251.67188 98.80458 250.95312 99.601456Q250.23438 100.39833 249.01562 100.39833Q247.79688 100.39833 247.03125 99.46083Q246.28125 98.507706 246.28125 97.02333L246.28125 96.61708Q246.28125 94.257706 247.28125 93.007706Q248.28125 91.757706 250.26562 91.74208L250.46875 91.74208ZM249.04688 95.58583Q248.48438 95.58583 248.01562 95.913956Q247.54688 96.24208 247.35938 96.757706L247.35938 97.14833Q247.35938 98.21083 247.82812 98.851456Q248.3125 99.49208 249.01562 99.49208Q249.75 99.49208 250.17188 98.96083Q250.59375 98.413956 250.59375 97.538956Q250.59375 96.663956 250.17188 96.132706Q249.75 95.58583 249.04688 95.58583ZM257.35938 96.52333Q257.03125 96.92958 256.54688 97.17958Q256.07812 97.413956 255.51562 97.413956Q254.78125 97.413956 254.23438 97.05458Q253.6875 96.695206 253.39062 96.038956Q253.09375 95.36708 253.09375 94.570206Q253.09375 93.726456 253.40625 93.038956Q253.73438 92.351456 254.32812 91.99208Q254.9375 91.61708 255.73438 91.61708Q257.0 91.61708 257.71875 92.570206Q258.45312 93.52333 258.45312 95.14833L258.45312 95.46083Q258.45312 97.96083 257.46875 99.101456Q256.48438 100.24208 254.5 100.27333L254.28125 100.27333L254.28125 99.36708L254.51562 99.36708Q255.85938 99.33583 256.57812 98.663956Q257.29688 97.99208 257.35938 96.52333ZM255.6875 96.52333Q256.23438 96.52333 256.6875 96.195206Q257.15625 95.851456 257.375 95.36708L257.375 94.92958Q257.375 93.86708 256.90625 93.195206Q256.4375 92.52333 255.73438 92.52333Q255.01562 92.52333 254.57812 93.070206Q254.15625 93.61708 254.15625 94.52333Q254.15625 95.39833 254.5625 95.96083Q254.98438 96.52333 255.6875 96.52333Z" fill-rule="nonzero"/><path fill="#ffffff" d="M202.76562 100.27333L201.6875 100.27333L201.6875 93.05458L199.5 93.851456L199.5 92.86708L202.60938 91.695206L202.76562 91.695206L202.76562 100.27333ZM207.78125 95.476456L208.59375 95.476456Q209.375 95.46083 209.8125 95.070206Q210.25 94.67958 210.25 94.007706Q210.25 92.507706 208.75 92.507706Q208.04688 92.507706 207.625 92.913956Q207.21875 93.320206 207.21875 93.976456L206.125 93.976456Q206.125 92.96083 206.85938 92.288956Q207.60938 91.61708 208.75 91.61708Q209.95312 91.61708 210.64062 92.257706Q211.32812 92.89833 211.32812 94.038956Q211.32812 94.601456 210.96875 95.11708Q210.60938 95.632706 209.98438 95.89833Q210.6875 96.11708 211.0625 96.632706Q211.45312 97.14833 211.45312 97.89833Q211.45312 99.038956 210.70312 99.726456Q209.95312 100.39833 208.75 100.39833Q207.5625 100.39833 206.79688 99.74208Q206.04688 99.08583 206.04688 98.02333L207.14062 98.02333Q207.14062 98.695206 207.57812 99.101456Q208.01562 99.507706 208.76562 99.507706Q209.54688 99.507706 209.95312 99.101456Q210.375 98.67958 210.375 97.913956Q210.375 97.17958 209.92188 96.788956Q209.46875 96.382706 208.59375 96.36708L207.78125 96.36708L207.78125 95.476456ZM218.39062 93.96083Q218.39062 94.601456 218.04688 95.101456Q217.70312 95.601456 217.14062 95.882706Q217.79688 96.163956 218.1875 96.726456Q218.57812 97.27333 218.57812 97.976456Q218.57812 99.070206 217.82812 99.74208Q217.09375 100.39833 215.875 100.39833Q214.64062 100.39833 213.89062 99.74208Q213.15625 99.070206 213.15625 97.976456Q213.15625 97.27333 213.53125 96.726456Q213.90625 96.163956 214.57812 95.882706Q214.01562 95.601456 213.6875 95.101456Q213.35938 94.601456 213.35938 93.96083Q213.35938 92.882706 214.04688 92.257706Q214.73438 91.61708 215.875 91.61708Q217.0 91.61708 217.6875 92.257706Q218.39062 92.882706 218.39062 93.96083ZM217.5 97.945206Q217.5 97.226456 217.04688 96.788956Q216.59375 96.33583 215.85938 96.33583Q215.125 96.33583 214.67188 96.788956Q214.23438 97.226456 214.23438 97.96083Q214.23438 98.67958 214.67188 99.101456Q215.10938 99.507706 215.875 99.507706Q216.625 99.507706 217.0625 99.08583Q217.5 98.663956 217.5 97.945206ZM215.875 92.507706Q215.23438 92.507706 214.82812 92.913956Q214.4375 93.30458 214.4375 93.99208Q214.4375 94.632706 214.82812 95.038956Q215.21875 95.445206 215.85938 95.445206Q216.51562 95.445206 216.90625 95.038956Q217.29688 94.632706 217.29688 93.99208Q217.29688 93.33583 216.89062 92.92958Q216.48438 92.507706 215.875 92.507706ZM220.28125 101.976456L219.67188 101.55458Q220.21875 100.788956 220.25 99.96083L220.25 98.99208L221.3125 98.99208L221.3125 99.83583Q221.3125 100.42958 221.01562 101.02333Q220.71875 101.61708 220.28125 101.976456ZM227.5625 96.632706Q227.5625 98.538956 226.90625 99.476456Q226.26562 100.39833 224.875 100.39833Q223.51562 100.39833 222.85938 99.49208Q222.20312 98.58583 222.17188 96.77333L222.17188 95.33583Q222.17188 93.445206 222.8125 92.538956Q223.46875 91.61708 224.85938 91.61708Q226.23438 91.61708 226.89062 92.507706Q227.54688 93.382706 227.5625 95.226456L227.5625 96.632706ZM226.46875 95.14833Q226.46875 93.77333 226.07812 93.14833Q225.70312 92.507706 224.85938 92.507706Q224.03125 92.507706 223.64062 93.14833Q223.26562 93.77333 223.26562 95.070206L223.26562 96.80458Q223.26562 98.17958 223.65625 98.851456Q224.0625 99.507706 224.875 99.507706Q225.67188 99.507706 226.0625 98.882706Q226.45312 98.257706 226.46875 96.92958L226.46875 95.14833ZM233.78125 97.413956L234.96875 97.413956L234.96875 98.288956L233.78125 98.288956L233.78125 100.27333L232.70312 100.27333L232.70312 98.288956L228.8125 98.288956L228.8125 97.64833L232.625 91.74208L233.78125 91.74208L233.78125 97.413956ZM230.04688 97.413956L232.70312 97.413956L232.70312 93.226456L232.5625 93.46083L230.04688 97.413956ZM241.71875 92.351456L238.1875 100.27333L237.04688 100.27333L240.5625 92.632706L235.95312 92.632706L235.95312 91.74208L241.71875 91.74208L241.71875 92.351456ZM243.34375 99.71083Q243.34375 99.42958 243.5 99.24208Q243.67188 99.05458 244.0 99.05458Q244.34375 99.05458 244.51562 99.24208Q244.6875 99.42958 244.6875 99.71083Q244.6875 99.976456 244.51562 100.163956Q244.34375 100.33583 244.0 100.33583Q243.67188 100.33583 243.5 100.163956Q243.34375 99.976456 243.34375 99.71083ZM250.46875 91.74208L250.46875 92.64833L250.26562 92.64833Q249.0 92.67958 248.25 93.413956Q247.5 94.132706 247.375 95.445206Q248.0625 94.67958 249.21875 94.67958Q250.32812 94.67958 251.0 95.46083Q251.67188 96.24208 251.67188 97.49208Q251.67188 98.80458 250.95312 99.601456Q250.23438 100.39833 249.01562 100.39833Q247.79688 100.39833 247.03125 99.46083Q246.28125 98.507706 246.28125 97.02333L246.28125 96.61708Q246.28125 94.257706 247.28125 93.007706Q248.28125 91.757706 250.26562 91.74208L250.46875 91.74208ZM249.04688 95.58583Q248.48438 95.58583 248.01562 95.913956Q247.54688 96.24208 247.35938 96.757706L247.35938 97.14833Q247.35938 98.21083 247.82812 98.851456Q248.3125 99.49208 249.01562 99.49208Q249.75 99.49208 250.17188 98.96083Q250.59375 98.413956 250.59375 97.538956Q250.59375 96.663956 250.17188 96.132706Q249.75 95.58583 249.04688 95.58583ZM257.35938 96.52333Q257.03125 96.92958 256.54688 97.17958Q256.07812 97.413956 255.51562 97.413956Q254.78125 97.413956 254.23438 97.05458Q253.6875 96.695206 253.39062 96.038956Q253.09375 95.36708 253.09375 94.570206Q253.09375 93.726456 253.40625 93.038956Q253.73438 92.351456 254.32812 91.99208Q254.9375 91.61708 255.73438 91.61708Q257.0 91.61708 257.71875 92.570206Q258.45312 93.52333 258.45312 95.14833L258.45312 95.46083Q258.45312 97.96083 257.46875 99.101456Q256.48438 100.24208 254.5 100.27333L254.28125 100.27333L254.28125 99.36708L254.51562 99.36708Q255.85938 99.33583 256.57812 98.663956Q257.29688 97.99208 257.35938 96.52333ZM255.6875 96.52333Q256.23438 96.52333 256.6875 96.195206Q257.15625 95.851456 257.375 95.36708L257.375 94.92958Q257.375 93.86708 256.90625 93.195206Q256.4375 92.52333 255.73438 92.52333Q255.01562 92.52333 254.57812 93.070206Q254.15625 93.61708 254.15625 94.52333Q254.15625 95.39833 254.5625 95.96083Q254.98438 96.52333 255.6875 96.52333Z" fill-rule="nonzero"/><path stroke="#4285f4" stroke-width="3.0" stroke-linejoin="round" stroke-linecap="round" d="M416.96875 221.97469L416.96875 222.88094L416.76562 222.88094Q415.5 222.91219 414.75 223.64656Q414.0 224.36531 413.875 225.67781Q414.5625 224.91219 415.71875 224.91219Q416.82812 224.91219 417.5 225.69344Q418.17188 226.47469 418.17188 227.72469Q418.17188 229.03719 417.45312 229.83406Q416.73438 230.63094 415.51562 230.63094Q414.29688 230.63094 413.53125 229.69344Q412.78125 228.74031 412.78125 227.25594L412.78125 226.84969Q412.78125 224.49031 413.78125 223.24031Q414.78125 221.99031 416.76562 221.97469L416.96875 221.97469ZM415.54688 225.81844Q414.98438 225.81844 414.51562 226.14656Q414.04688 226.47469 413.85938 226.99031L413.85938 227.38094Q413.85938 228.44344 414.32812 229.08406Q414.8125 229.72469 415.51562 229.72469Q416.25 229.72469 416.67188 229.19344Q417.09375 228.64656 417.09375 227.77156Q417.09375 226.89656 416.67188 226.36531Q416.25 225.81844 415.54688 225.81844ZM420.20312 226.22469L420.64062 221.97469L425.01562 221.97469L425.01562 222.97469L421.5625 222.97469L421.29688 225.30281Q421.9375 224.92781 422.73438 224.92781Q423.89062 224.92781 424.57812 225.70906Q425.26562 226.47469 425.26562 227.78719Q425.26562 229.09969 424.54688 229.86531Q423.84375 230.63094 422.5625 230.63094Q421.4375 230.63094 420.71875 230.00594Q420.0 229.36531 419.90625 228.25594L420.92188 228.25594Q421.03125 228.99031 421.45312 229.36531Q421.875 229.74031 422.5625 229.74031Q423.3125 229.74031 423.75 229.22469Q424.1875 228.70906 424.1875 227.80281Q424.1875 226.94344 423.71875 226.42781Q423.25 225.91219 422.46875 225.91219Q421.76562 225.91219 421.35938 226.20906L421.07812 226.44344L420.20312 226.22469ZM426.78125 232.20906L426.17188 231.78719Q426.71875 231.02156 426.75 230.19344L426.75 229.22469L427.8125 229.22469L427.8125 230.06844Q427.8125 230.66219 427.51562 231.25594Q427.21875 231.84969 426.78125 232.20906ZM433.89062 224.19344Q433.89062 224.83406 433.54688 225.33406Q433.20312 225.83406 432.64062 226.11531Q433.29688 226.39656 433.6875 226.95906Q434.07812 227.50594 434.07812 228.20906Q434.07812 229.30281 433.32812 229.97469Q432.59375 230.63094 431.375 230.63094Q430.14062 230.63094 429.39062 229.97469Q428.65625 229.30281 428.65625 228.20906Q428.65625 227.50594 429.03125 226.95906Q429.40625 226.39656 430.07812 226.11531Q429.51562 225.83406 429.1875 225.33406Q428.85938 224.83406 428.85938 224.19344Q428.85938 223.11531 429.54688 222.49031Q430.23438 221.84969 431.375 221.84969Q432.5 221.84969 433.1875 222.49031Q433.89062 223.11531 433.89062 224.19344ZM433.0 228.17781Q433.0 227.45906 432.54688 227.02156Q432.09375 226.56844 431.35938 226.56844Q430.625 226.56844 430.17188 227.02156Q429.73438 227.45906 429.73438 228.19344Q429.73438 228.91219 430.17188 229.33406Q430.60938 229.74031 431.375 229.74031Q432.125 229.74031 432.5625 229.31844Q433.0 228.89656 433.0 228.17781ZM431.375 222.74031Q430.73438 222.74031 430.32812 223.14656Q429.9375 223.53719 429.9375 224.22469Q429.9375 224.86531 430.32812 225.27156Q430.71875 225.67781 431.35938 225.67781Q432.01562 225.67781 432.40625 225.27156Q432.79688 224.86531 432.79688 224.22469Q432.79688 223.56844 432.39062 223.16219Q431.98438 222.74031 431.375 222.74031ZM437.28125 225.70906L438.09375 225.70906Q438.875 225.69344 439.3125 225.30281Q439.75 224.91219 439.75 224.24031Q439.75 222.74031 438.25 222.74031Q437.54688 222.74031 437.125 223.14656Q436.71875 223.55281 436.71875 224.20906L435.625 224.20906Q435.625 223.19344 436.35938 222.52156Q437.10938 221.84969 438.25 221.84969Q439.45312 221.84969 440.14062 222.49031Q440.82812 223.13094 440.82812 224.27156Q440.82812 224.83406 440.46875 225.34969Q440.10938 225.86531 439.48438 226.13094Q440.1875 226.34969 440.5625 226.86531Q440.95312 227.38094 440.95312 228.13094Q440.95312 229.27156 440.20312 229.95906Q439.45312 230.63094 438.25 230.63094Q437.0625 230.63094 436.29688 229.97469Q435.54688 229.31844 435.54688 228.25594L436.64062 228.25594Q436.64062 228.92781 437.07812 229.33406Q437.51562 229.74031 438.26562 229.74031Q439.04688 229.74031 439.45312 229.33406Q439.875 228.91219 439.875 228.14656Q439.875 227.41219 439.42188 227.02156Q438.96875 226.61531 438.09375 226.59969L437.28125 226.59969L437.28125 225.70906ZM447.89062 224.19344Q447.89062 224.83406 447.54688 225.33406Q447.20312 225.83406 446.64062 226.11531Q447.29688 226.39656 447.6875 226.95906Q448.07812 227.50594 448.07812 228.20906Q448.07812 229.30281 447.32812 229.97469Q446.59375 230.63094 445.375 230.63094Q444.14062 230.63094 443.39062 229.97469Q442.65625 229.30281 442.65625 228.20906Q442.65625 227.50594 443.03125 226.95906Q443.40625 226.39656 444.07812 226.11531Q443.51562 225.83406 443.1875 225.33406Q442.85938 224.83406 442.85938 224.19344Q442.85938 223.11531 443.54688 222.49031Q444.23438 221.84969 445.375 221.84969Q446.5 221.84969 447.1875 222.49031Q447.89062 223.11531 447.89062 224.19344ZM447.0 228.17781Q447.0 227.45906 446.54688 227.02156Q446.09375 226.56844 445.35938 226.56844Q444.625 226.56844 444.17188 227.02156Q443.73438 227.45906 443.73438 228.19344Q443.73438 228.91219 444.17188 229.33406Q444.60938 229.74031 445.375 229.74031Q446.125 229.74031 446.5625 229.31844Q447.0 228.89656 447.0 228.17781ZM445.375 222.74031Q444.73438 222.74031 444.32812 223.14656Q443.9375 223.53719 443.9375 224.22469Q443.9375 224.86531 444.32812 225.27156Q444.71875 225.67781 445.35938 225.67781Q446.01562 225.67781 446.40625 225.27156Q446.79688 224.86531 446.79688 224.22469Q446.79688 223.56844 446.39062 223.16219Q445.98438 222.74031 445.375 222.74031ZM449.84375 229.94344Q449.84375 229.66219 450.0 229.47469Q450.17188 229.28719 450.5 229.28719Q450.84375 229.28719 451.01562 229.47469Q451.1875 229.66219 451.1875 229.94344Q451.1875 230.20906 451.01562 230.39656Q450.84375 230.56844 450.5 230.56844Q450.17188 230.56844 450.0 230.39656Q449.84375 230.20906 449.84375 229.94344ZM457.89062 224.19344Q457.89062 224.83406 457.54688 225.33406Q457.20312 225.83406 456.64062 226.11531Q457.29688 226.39656 457.6875 226.95906Q458.07812 227.50594 458.07812 228.20906Q458.07812 229.30281 457.32812 229.97469Q456.59375 230.63094 455.375 230.63094Q454.14062 230.63094 453.39062 229.97469Q452.65625 229.30281 452.65625 228.20906Q452.65625 227.50594 453.03125 226.95906Q453.40625 226.39656 454.07812 226.11531Q453.51562 225.83406 453.1875 225.33406Q452.85938 224.83406 452.85938 224.19344Q452.85938 223.11531 453.54688 222.49031Q454.23438 221.84969 455.375 221.84969Q456.5 221.84969 457.1875 222.49031Q457.89062 223.11531 457.89062 224.19344ZM457.0 228.17781Q457.0 227.45906 456.54688 227.02156Q456.09375 226.56844 455.35938 226.56844Q454.625 226.56844 454.17188 227.02156Q453.73438 227.45906 453.73438 228.19344Q453.73438 228.91219 454.17188 229.33406Q454.60938 229.74031 455.375 229.74031Q456.125 229.74031 456.5625 229.31844Q457.0 228.89656 457.0 228.17781ZM455.375 222.74031Q454.73438 222.74031 454.32812 223.14656Q453.9375 223.53719 453.9375 224.22469Q453.9375 224.86531 454.32812 225.27156Q454.71875 225.67781 455.35938 225.67781Q456.01562 225.67781 456.40625 225.27156Q456.79688 224.86531 456.79688 224.22469Q456.79688 223.56844 456.39062 223.16219Q455.98438 222.74031 455.375 222.74031ZM464.89062 224.19344Q464.89062 224.83406 464.54688 225.33406Q464.20312 225.83406 463.64062 226.11531Q464.29688 226.39656 464.6875 226.95906Q465.07812 227.50594 465.07812 228.20906Q465.07812 229.30281 464.32812 229.97469Q463.59375 230.63094 462.375 230.63094Q461.14062 230.63094 460.39062 229.97469Q459.65625 229.30281 459.65625 228.20906Q459.65625 227.50594 460.03125 226.95906Q460.40625 226.39656 461.07812 226.11531Q460.51562 225.83406 460.1875 225.33406Q459.85938 224.83406 459.85938 224.19344Q459.85938 223.11531 460.54688 222.49031Q461.23438 221.84969 462.375 221.84969Q463.5 221.84969 464.1875 222.49031Q464.89062 223.11531 464.89062 224.19344ZM464.0 228.17781Q464.0 227.45906 463.54688 227.02156Q463.09375 226.56844 462.35938 226.56844Q461.625 226.56844 461.17188 227.02156Q460.73438 227.45906 460.73438 228.19344Q460.73438 228.91219 461.17188 229.33406Q461.60938 229.74031 462.375 229.74031Q463.125 229.74031 463.5625 229.31844Q464.0 228.89656 464.0 228.17781ZM462.375 222.74031Q461.73438 222.74031 461.32812 223.14656Q460.9375 223.53719 460.9375 224.22469Q460.9375 224.86531 461.32812 225.27156Q461.71875 225.67781 462.35938 225.67781Q463.01562 225.67781 463.40625 225.27156Q463.79688 224.86531 463.79688 224.22469Q463.79688 223.56844 463.39062 223.16219Q462.98438 222.74031 462.375 222.74031Z" fill-rule="nonzero"/><path fill="#ffffff" d="M416.96875 221.97469L416.96875 222.88094L416.76562 222.88094Q415.5 222.91219 414.75 223.64656Q414.0 224.36531 413.875 225.67781Q414.5625 224.91219 415.71875 224.91219Q416.82812 224.91219 417.5 225.69344Q418.17188 226.47469 418.17188 227.72469Q418.17188 229.03719 417.45312 229.83406Q416.73438 230.63094 415.51562 230.63094Q414.29688 230.63094 413.53125 229.69344Q412.78125 228.74031 412.78125 227.25594L412.78125 226.84969Q412.78125 224.49031 413.78125 223.24031Q414.78125 221.99031 416.76562 221.97469L416.96875 221.97469ZM415.54688 225.81844Q414.98438 225.81844 414.51562 226.14656Q414.04688 226.47469 413.85938 226.99031L413.85938 227.38094Q413.85938 228.44344 414.32812 229.08406Q414.8125 229.72469 415.51562 229.72469Q416.25 229.72469 416.67188 229.19344Q417.09375 228.64656 417.09375 227.77156Q417.09375 226.89656 416.67188 226.36531Q416.25 225.81844 415.54688 225.81844ZM420.20312 226.22469L420.64062 221.97469L425.01562 221.97469L425.01562 222.97469L421.5625 222.97469L421.29688 225.30281Q421.9375 224.92781 422.73438 224.92781Q423.89062 224.92781 424.57812 225.70906Q425.26562 226.47469 425.26562 227.78719Q425.26562 229.09969 424.54688 229.86531Q423.84375 230.63094 422.5625 230.63094Q421.4375 230.63094 420.71875 230.00594Q420.0 229.36531 419.90625 228.25594L420.92188 228.25594Q421.03125 228.99031 421.45312 229.36531Q421.875 229.74031 422.5625 229.74031Q423.3125 229.74031 423.75 229.22469Q424.1875 228.70906 424.1875 227.80281Q424.1875 226.94344 423.71875 226.42781Q423.25 225.91219 422.46875 225.91219Q421.76562 225.91219 421.35938 226.20906L421.07812 226.44344L420.20312 226.22469ZM426.78125 232.20906L426.17188 231.78719Q426.71875 231.02156 426.75 230.19344L426.75 229.22469L427.8125 229.22469L427.8125 230.06844Q427.8125 230.66219 427.51562 231.25594Q427.21875 231.84969 426.78125 232.20906ZM433.89062 224.19344Q433.89062 224.83406 433.54688 225.33406Q433.20312 225.83406 432.64062 226.11531Q433.29688 226.39656 433.6875 226.95906Q434.07812 227.50594 434.07812 228.20906Q434.07812 229.30281 433.32812 229.97469Q432.59375 230.63094 431.375 230.63094Q430.14062 230.63094 429.39062 229.97469Q428.65625 229.30281 428.65625 228.20906Q428.65625 227.50594 429.03125 226.95906Q429.40625 226.39656 430.07812 226.11531Q429.51562 225.83406 429.1875 225.33406Q428.85938 224.83406 428.85938 224.19344Q428.85938 223.11531 429.54688 222.49031Q430.23438 221.84969 431.375 221.84969Q432.5 221.84969 433.1875 222.49031Q433.89062 223.11531 433.89062 224.19344ZM433.0 228.17781Q433.0 227.45906 432.54688 227.02156Q432.09375 226.56844 431.35938 226.56844Q430.625 226.56844 430.17188 227.02156Q429.73438 227.45906 429.73438 228.19344Q429.73438 228.91219 430.17188 229.33406Q430.60938 229.74031 431.375 229.74031Q432.125 229.74031 432.5625 229.31844Q433.0 228.89656 433.0 228.17781ZM431.375 222.74031Q430.73438 222.74031 430.32812 223.14656Q429.9375 223.53719 429.9375 224.22469Q429.9375 224.86531 430.32812 225.27156Q430.71875 225.67781 431.35938 225.67781Q432.01562 225.67781 432.40625 225.27156Q432.79688 224.86531 432.79688 224.22469Q432.79688 223.56844 432.39062 223.16219Q431.98438 222.74031 431.375 222.74031ZM437.28125 225.70906L438.09375 225.70906Q438.875 225.69344 439.3125 225.30281Q439.75 224.91219 439.75 224.24031Q439.75 222.74031 438.25 222.74031Q437.54688 222.74031 437.125 223.14656Q436.71875 223.55281 436.71875 224.20906L435.625 224.20906Q435.625 223.19344 436.35938 222.52156Q437.10938 221.84969 438.25 221.84969Q439.45312 221.84969 440.14062 222.49031Q440.82812 223.13094 440.82812 224.27156Q440.82812 224.83406 440.46875 225.34969Q440.10938 225.86531 439.48438 226.13094Q440.1875 226.34969 440.5625 226.86531Q440.95312 227.38094 440.95312 228.13094Q440.95312 229.27156 440.20312 229.95906Q439.45312 230.63094 438.25 230.63094Q437.0625 230.63094 436.29688 229.97469Q435.54688 229.31844 435.54688 228.25594L436.64062 228.25594Q436.64062 228.92781 437.07812 229.33406Q437.51562 229.74031 438.26562 229.74031Q439.04688 229.74031 439.45312 229.33406Q439.875 228.91219 439.875 228.14656Q439.875 227.41219 439.42188 227.02156Q438.96875 226.61531 438.09375 226.59969L437.28125 226.59969L437.28125 225.70906ZM447.89062 224.19344Q447.89062 224.83406 447.54688 225.33406Q447.20312 225.83406 446.64062 226.11531Q447.29688 226.39656 447.6875 226.95906Q448.07812 227.50594 448.07812 228.20906Q448.07812 229.30281 447.32812 229.97469Q446.59375 230.63094 445.375 230.63094Q444.14062 230.63094 443.39062 229.97469Q442.65625 229.30281 442.65625 228.20906Q442.65625 227.50594 443.03125 226.95906Q443.40625 226.39656 444.07812 226.11531Q443.51562 225.83406 443.1875 225.33406Q442.85938 224.83406 442.85938 224.19344Q442.85938 223.11531 443.54688 222.49031Q444.23438 221.84969 445.375 221.84969Q446.5 221.84969 447.1875 222.49031Q447.89062 223.11531 447.89062 224.19344ZM447.0 228.17781Q447.0 227.45906 446.54688 227.02156Q446.09375 226.56844 445.35938 226.56844Q444.625 226.56844 444.17188 227.02156Q443.73438 227.45906 443.73438 228.19344Q443.73438 228.91219 444.17188 229.33406Q444.60938 229.74031 445.375 229.74031Q446.125 229.74031 446.5625 229.31844Q447.0 228.89656 447.0 228.17781ZM445.375 222.74031Q444.73438 222.74031 444.32812 223.14656Q443.9375 223.53719 443.9375 224.22469Q443.9375 224.86531 444.32812 225.27156Q444.71875 225.67781 445.35938 225.67781Q446.01562 225.67781 446.40625 225.27156Q446.79688 224.86531 446.79688 224.22469Q446.79688 223.56844 446.39062 223.16219Q445.98438 222.74031 445.375 222.74031ZM449.84375 229.94344Q449.84375 229.66219 450.0 229.47469Q450.17188 229.28719 450.5 229.28719Q450.84375 229.28719 451.01562 229.47469Q451.1875 229.66219 451.1875 229.94344Q451.1875 230.20906 451.01562 230.39656Q450.84375 230.56844 450.5 230.56844Q450.17188 230.56844 450.0 230.39656Q449.84375 230.20906 449.84375 229.94344ZM457.89062 224.19344Q457.89062 224.83406 457.54688 225.33406Q457.20312 225.83406 456.64062 226.11531Q457.29688 226.39656 457.6875 226.95906Q458.07812 227.50594 458.07812 228.20906Q458.07812 229.30281 457.32812 229.97469Q456.59375 230.63094 455.375 230.63094Q454.14062 230.63094 453.39062 229.97469Q452.65625 229.30281 452.65625 228.20906Q452.65625 227.50594 453.03125 226.95906Q453.40625 226.39656 454.07812 226.11531Q453.51562 225.83406 453.1875 225.33406Q452.85938 224.83406 452.85938 224.19344Q452.85938 223.11531 453.54688 222.49031Q454.23438 221.84969 455.375 221.84969Q456.5 221.84969 457.1875 222.49031Q457.89062 223.11531 457.89062 224.19344ZM457.0 228.17781Q457.0 227.45906 456.54688 227.02156Q456.09375 226.56844 455.35938 226.56844Q454.625 226.56844 454.17188 227.02156Q453.73438 227.45906 453.73438 228.19344Q453.73438 228.91219 454.17188 229.33406Q454.60938 229.74031 455.375 229.74031Q456.125 229.74031 456.5625 229.31844Q457.0 228.89656 457.0 228.17781ZM455.375 222.74031Q454.73438 222.74031 454.32812 223.14656Q453.9375 223.53719 453.9375 224.22469Q453.9375 224.86531 454.32812 225.27156Q454.71875 225.67781 455.35938 225.67781Q456.01562 225.67781 456.40625 225.27156Q456.79688 224.86531 456.79688 224.22469Q456.79688 223.56844 456.39062 223.16219Q455.98438 222.74031 455.375 222.74031ZM464.89062 224.19344Q464.89062 224.83406 464.54688 225.33406Q464.20312 225.83406 463.64062 226.11531Q464.29688 226.39656 464.6875 226.95906Q465.07812 227.50594 465.07812 228.20906Q465.07812 229.30281 464.32812 229.97469Q463.59375 230.63094 462.375 230.63094Q461.14062 230.63094 460.39062 229.97469Q459.65625 229.30281 459.65625 228.20906Q459.65625 227.50594 460.03125 226.95906Q460.40625 226.39656 461.07812 226.11531Q460.51562 225.83406 460.1875 225.33406Q459.85938 224.83406 459.85938 224.19344Q459.85938 223.11531 460.54688 222.49031Q461.23438 221.84969 462.375 221.84969Q463.5 221.84969 464.1875 222.49031Q464.89062 223.11531 464.89062 224.19344ZM464.0 228.17781Q464.0 227.45906 463.54688 227.02156Q463.09375 226.56844 462.35938 226.56844Q461.625 226.56844 461.17188 227.02156Q460.73438 227.45906 460.73438 228.19344Q460.73438 228.91219 461.17188 229.33406Q461.60938 229.74031 462.375 229.74031Q463.125 229.74031 463.5625 229.31844Q464.0 228.89656 464.0 228.17781ZM462.375 222.74031Q461.73438 222.74031 461.32812 223.14656Q460.9375 223.53719 460.9375 224.22469Q460.9375 224.86531 461.32812 225.27156Q461.71875 225.67781 462.35938 225.67781Q463.01562 225.67781 463.40625 225.27156Q463.79688 224.86531 463.79688 224.22469Q463.79688 223.56844 463.39062 223.16219Q462.98438 222.74031 462.375 222.74031Z" fill-rule="nonzero"/><path fill="#000000" d="M57.05 332.21564Q57.05 330.6844 57.3625 329.7625Q57.675 328.825 58.284374 328.325Q58.909374 327.825 59.846874 327.825Q60.534374 327.825 61.05 328.10626Q61.58125 328.3875 61.925 328.91876Q62.26875 329.4344 62.45625 330.1844Q62.64375 330.9344 62.64375 332.21564Q62.64375 333.73126 62.33125 334.65314Q62.034374 335.575 61.409374 336.09064Q60.8 336.59064 59.846874 336.59064Q58.6125 336.59064 57.89375 335.7Q57.05 334.6375 57.05 332.21564ZM58.128124 332.21564Q58.128124 334.325 58.628124 335.02814Q59.128124 335.73126 59.846874 335.73126Q60.58125 335.73126 61.065624 335.02814Q61.565624 334.325 61.565624 332.21564Q61.565624 330.09064 61.065624 329.40314Q60.58125 328.7 59.83125 328.7Q59.1125 328.7 58.675 329.3094Q58.128124 330.09064 58.128124 332.21564ZM64.64375 336.45L64.64375 335.2469L65.84688 335.2469L65.84688 336.45L64.64375 336.45ZM67.05 332.21564Q67.05 330.6844 67.3625 329.7625Q67.675 328.825 68.28438 328.325Q68.90938 327.825 69.84688 327.825Q70.53438 327.825 71.05 328.10626Q71.58125 328.3875 71.925 328.91876Q72.26875 329.4344 72.45625 330.1844Q72.64375 330.9344 72.64375 332.21564Q72.64375 333.73126 72.33125 334.65314Q72.03438 335.575 71.40938 336.09064Q70.8 336.59064 69.84688 336.59064Q68.6125 336.59064 67.89375 335.7Q67.05 334.6375 67.05 332.21564ZM68.12813 332.21564Q68.12813 334.325 68.62813 335.02814Q69.12813 335.73126 69.84688 335.73126Q70.58125 335.73126 71.06563 335.02814Q71.56563 334.325 71.56563 332.21564Q71.56563 330.09064 71.06563 329.40314Q70.58125 328.7 69.83125 328.7Q69.1125 328.7 68.675 329.3094Q68.12813 330.09064 68.12813 332.21564ZM74.05 332.21564Q74.05 330.6844 74.3625 329.7625Q74.675 328.825 75.28438 328.325Q75.90938 327.825 76.84688 327.825Q77.53438 327.825 78.05 328.10626Q78.58125 328.3875 78.925 328.91876Q79.26875 329.4344 79.45625 330.1844Q79.64375 330.9344 79.64375 332.21564Q79.64375 333.73126 79.33125 334.65314Q79.03438 335.575 78.40938 336.09064Q77.8 336.59064 76.84688 336.59064Q75.6125 336.59064 74.89375 335.7Q74.05 334.6375 74.05 332.21564ZM75.12813 332.21564Q75.12813 334.325 75.62813 335.02814Q76.12813 335.73126 76.84688 335.73126Q77.58125 335.73126 78.06563 335.02814Q78.56563 334.325 78.56563 332.21564Q78.56563 330.09064 78.06563 329.40314Q77.58125 328.7 76.83125 328.7Q76.1125 328.7 75.675 329.3094Q75.12813 330.09064 75.12813 332.21564Z" fill-rule="nonzero"/><path fill="#000000" d="M26.05 244.02222L27.159374 243.92847Q27.284374 244.74097 27.721874 245.14722Q28.175 245.55347 28.815624 245.55347Q29.565624 245.55347 30.096874 244.97534Q30.628124 244.39722 30.628124 243.45972Q30.628124 242.55347 30.1125 242.03784Q29.6125 241.50659 28.784374 241.50659Q28.284374 241.50659 27.8625 241.74097Q27.45625 241.97534 27.221874 242.33472L26.2375 242.20972L27.065624 237.80347L31.346874 237.80347L31.346874 238.80347L27.909374 238.80347L27.45625 241.11597Q28.221874 240.56909 29.065624 240.56909Q30.190624 240.56909 30.95625 241.35034Q31.7375 242.13159 31.7375 243.36597Q31.7375 244.52222 31.065624 245.38159Q30.2375 246.41284 28.815624 246.41284Q27.64375 246.41284 26.89375 245.75659Q26.159374 245.10034 26.05 244.02222ZM33.05 242.03784Q33.05 240.50659 33.3625 239.58472Q33.675 238.64722 34.284374 238.14722Q34.909374 237.64722 35.846874 237.64722Q36.534374 237.64722 37.05 237.92847Q37.58125 238.20972 37.925 238.74097Q38.26875 239.25659 38.45625 240.00659Q38.64375 240.75659 38.64375 242.03784Q38.64375 243.55347 38.33125 244.47534Q38.034374 245.39722 37.409374 245.91284Q36.8 246.41284 35.846874 246.41284Q34.6125 246.41284 33.89375 245.52222Q33.05 244.45972 33.05 242.03784ZM34.128124 242.03784Q34.128124 244.14722 34.628124 244.85034Q35.128124 245.55347 35.846874 245.55347Q36.58125 245.55347 37.065624 244.85034Q37.565624 244.14722 37.565624 242.03784Q37.565624 239.91284 37.065624 239.22534Q36.58125 238.52222 35.83125 238.52222Q35.1125 238.52222 34.675 239.13159Q34.128124 239.91284 34.128124 242.03784ZM40.6125 246.27222L40.6125 245.06909L41.815624 245.06909L41.815624 246.27222Q41.815624 246.92847 41.58125 247.33472Q41.346874 247.75659 40.846874 247.97534L40.55 247.52222Q40.878124 247.38159 41.034374 247.08472Q41.190624 246.80347 41.221874 246.27222L40.6125 246.27222ZM43.05 242.03784Q43.05 240.50659 43.3625 239.58472Q43.675 238.64722 44.284374 238.14722Q44.909374 237.64722 45.846874 237.64722Q46.534374 237.64722 47.05 237.92847Q47.58125 238.20972 47.925 238.74097Q48.26875 239.25659 48.45625 240.00659Q48.64375 240.75659 48.64375 242.03784Q48.64375 243.55347 48.33125 244.47534Q48.034374 245.39722 47.409374 245.91284Q46.8 246.41284 45.846874 246.41284Q44.6125 246.41284 43.89375 245.52222Q43.05 244.45972 43.05 242.03784ZM44.128124 242.03784Q44.128124 244.14722 44.628124 244.85034Q45.128124 245.55347 45.846874 245.55347Q46.58125 245.55347 47.065624 244.85034Q47.565624 244.14722 47.565624 242.03784Q47.565624 239.91284 47.065624 239.22534Q46.58125 238.52222 45.83125 238.52222Q45.1125 238.52222 44.675 239.13159Q44.128124 239.91284 44.128124 242.03784ZM50.05 242.03784Q50.05 240.50659 50.3625 239.58472Q50.675 238.64722 51.284374 238.14722Q51.909374 237.64722 52.846874 237.64722Q53.534374 237.64722 54.05 237.92847Q54.58125 238.20972 54.925 238.74097Q55.26875 239.25659 55.45625 240.00659Q55.64375 240.75659 55.64375 242.03784Q55.64375 243.55347 55.33125 244.47534Q55.034374 245.39722 54.409374 245.91284Q53.8 246.41284 52.846874 246.41284Q51.6125 246.41284 50.89375 245.52222Q50.05 244.45972 50.05 242.03784ZM51.128124 242.03784Q51.128124 244.14722 51.628124 244.85034Q52.128124 245.55347 52.846874 245.55347Q53.58125 245.55347 54.065624 244.85034Q54.565624 244.14722 54.565624 242.03784Q54.565624 239.91284 54.065624 239.22534Q53.58125 238.52222 52.83125 238.52222Q52.1125 238.52222 51.675 239.13159Q51.128124 239.91284 51.128124 242.03784ZM57.05 242.03784Q57.05 240.50659 57.3625 239.58472Q57.675 238.64722 58.284374 238.14722Q58.909374 237.64722 59.846874 237.64722Q60.534374 237.64722 61.05 237.92847Q61.58125 238.20972 61.925 238.74097Q62.26875 239.25659 62.45625 240.00659Q62.64375 240.75659 62.64375 242.03784Q62.64375 243.55347 62.33125 244.47534Q62.034374 245.39722 61.409374 245.91284Q60.8 246.41284 59.846874 246.41284Q58.6125 246.41284 57.89375 245.52222Q57.05 244.45972 57.05 242.03784ZM58.128124 242.03784Q58.128124 244.14722 58.628124 244.85034Q59.128124 245.55347 59.846874 245.55347Q60.58125 245.55347 61.065624 244.85034Q61.565624 244.14722 61.565624 242.03784Q61.565624 239.91284 61.065624 239.22534Q60.58125 238.52222 59.83125 238.52222Q59.1125 238.52222 58.675 239.13159Q58.128124 239.91284 58.128124 242.03784ZM64.64375 246.27222L64.64375 245.06909L65.84688 245.06909L65.84688 246.27222L64.64375 246.27222ZM67.05 242.03784Q67.05 240.50659 67.3625 239.58472Q67.675 238.64722 68.28438 238.14722Q68.90938 237.64722 69.84688 237.64722Q70.53438 237.64722 71.05 237.92847Q71.58125 238.20972 71.925 238.74097Q72.26875 239.25659 72.45625 240.00659Q72.64375 240.75659 72.64375 242.03784Q72.64375 243.55347 72.33125 244.47534Q72.03438 245.39722 71.40938 245.91284Q70.8 246.41284 69.84688 246.41284Q68.6125 246.41284 67.89375 245.52222Q67.05 244.45972 67.05 242.03784ZM68.12813 242.03784Q68.12813 244.14722 68.62813 244.85034Q69.12813 245.55347 69.84688 245.55347Q70.58125 245.55347 71.06563 244.85034Q71.56563 244.14722 71.56563 242.03784Q71.56563 239.91284 71.06563 239.22534Q70.58125 238.52222 69.83125 238.52222Q69.1125 238.52222 68.675 239.13159Q68.12813 239.91284 68.12813 242.03784ZM74.05 242.03784Q74.05 240.50659 74.3625 239.58472Q74.675 238.64722 75.28438 238.14722Q75.90938 237.64722 76.84688 237.64722Q77.53438 237.64722 78.05 237.92847Q78.58125 238.20972 78.925 238.74097Q79.26875 239.25659 79.45625 240.00659Q79.64375 240.75659 79.64375 242.03784Q79.64375 243.55347 79.33125 244.47534Q79.03438 245.39722 78.40938 245.91284Q77.8 246.41284 76.84688 246.41284Q75.6125 246.41284 74.89375 245.52222Q74.05 244.45972 74.05 242.03784ZM75.12813 242.03784Q75.12813 244.14722 75.62813 244.85034Q76.12813 245.55347 76.84688 245.55347Q77.58125 245.55347 78.06563 244.85034Q78.56563 244.14722 78.56563 242.03784Q78.56563 239.91284 78.06563 239.22534Q77.58125 238.52222 76.83125 238.52222Q76.1125 238.52222 75.675 239.13159Q75.12813 239.91284 75.12813 242.03784Z" fill-rule="nonzero"/><path fill="#000000" d="M23.01875 156.09445L21.971874 156.09445L21.971874 149.3757Q21.58125 149.73508 20.95625 150.11008Q20.346874 150.46945 19.8625 150.64133L19.8625 149.6257Q20.7375 149.20383 21.39375 148.6257Q22.065624 148.03195 22.346874 147.46945L23.01875 147.46945L23.01875 156.09445ZM26.05 151.86008Q26.05 150.32883 26.3625 149.40695Q26.675 148.46945 27.284374 147.96945Q27.909374 147.46945 28.846874 147.46945Q29.534374 147.46945 30.05 147.7507Q30.58125 148.03195 30.925 148.5632Q31.26875 149.07883 31.45625 149.82883Q31.64375 150.57883 31.64375 151.86008Q31.64375 153.3757 31.33125 154.29758Q31.034374 155.21945 30.409374 155.73508Q29.8 156.23508 28.846874 156.23508Q27.6125 156.23508 26.89375 155.34445Q26.05 154.28195 26.05 151.86008ZM27.128124 151.86008Q27.128124 153.96945 27.628124 154.67258Q28.128124 155.3757 28.846874 155.3757Q29.58125 155.3757 30.065624 154.67258Q30.565624 153.96945 30.565624 151.86008Q30.565624 149.73508 30.065624 149.04758Q29.58125 148.34445 28.83125 148.34445Q28.1125 148.34445 27.675 148.95383Q27.128124 149.73508 27.128124 151.86008ZM33.05 151.86008Q33.05 150.32883 33.3625 149.40695Q33.675 148.46945 34.284374 147.96945Q34.909374 147.46945 35.846874 147.46945Q36.534374 147.46945 37.05 147.7507Q37.58125 148.03195 37.925 148.5632Q38.26875 149.07883 38.45625 149.82883Q38.64375 150.57883 38.64375 151.86008Q38.64375 153.3757 38.33125 154.29758Q38.034374 155.21945 37.409374 155.73508Q36.8 156.23508 35.846874 156.23508Q34.6125 156.23508 33.89375 155.34445Q33.05 154.28195 33.05 151.86008ZM34.128124 151.86008Q34.128124 153.96945 34.628124 154.67258Q35.128124 155.3757 35.846874 155.3757Q36.58125 155.3757 37.065624 154.67258Q37.565624 153.96945 37.565624 151.86008Q37.565624 149.73508 37.065624 149.04758Q36.58125 148.34445 35.83125 148.34445Q35.1125 148.34445 34.675 148.95383Q34.128124 149.73508 34.128124 151.86008ZM40.6125 156.09445L40.6125 154.89133L41.815624 154.89133L41.815624 156.09445Q41.815624 156.7507 41.58125 157.15695Q41.346874 157.57883 40.846874 157.79758L40.55 157.34445Q40.878124 157.20383 41.034374 156.90695Q41.190624 156.6257 41.221874 156.09445L40.6125 156.09445ZM43.05 151.86008Q43.05 150.32883 43.3625 149.40695Q43.675 148.46945 44.284374 147.96945Q44.909374 147.46945 45.846874 147.46945Q46.534374 147.46945 47.05 147.7507Q47.58125 148.03195 47.925 148.5632Q48.26875 149.07883 48.45625 149.82883Q48.64375 150.57883 48.64375 151.86008Q48.64375 153.3757 48.33125 154.29758Q48.034374 155.21945 47.409374 155.73508Q46.8 156.23508 45.846874 156.23508Q44.6125 156.23508 43.89375 155.34445Q43.05 154.28195 43.05 151.86008ZM44.128124 151.86008Q44.128124 153.96945 44.628124 154.67258Q45.128124 155.3757 45.846874 155.3757Q46.58125 155.3757 47.065624 154.67258Q47.565624 153.96945 47.565624 151.86008Q47.565624 149.73508 47.065624 149.04758Q46.58125 148.34445 45.83125 148.34445Q45.1125 148.34445 44.675 148.95383Q44.128124 149.73508 44.128124 151.86008ZM50.05 151.86008Q50.05 150.32883 50.3625 149.40695Q50.675 148.46945 51.284374 147.96945Q51.909374 147.46945 52.846874 147.46945Q53.534374 147.46945 54.05 147.7507Q54.58125 148.03195 54.925 148.5632Q55.26875 149.07883 55.45625 149.82883Q55.64375 150.57883 55.64375 151.86008Q55.64375 153.3757 55.33125 154.29758Q55.034374 155.21945 54.409374 155.73508Q53.8 156.23508 52.846874 156.23508Q51.6125 156.23508 50.89375 155.34445Q50.05 154.28195 50.05 151.86008ZM51.128124 151.86008Q51.128124 153.96945 51.628124 154.67258Q52.128124 155.3757 52.846874 155.3757Q53.58125 155.3757 54.065624 154.67258Q54.565624 153.96945 54.565624 151.86008Q54.565624 149.73508 54.065624 149.04758Q53.58125 148.34445 52.83125 148.34445Q52.1125 148.34445 51.675 148.95383Q51.128124 149.73508 51.128124 151.86008ZM57.05 151.86008Q57.05 150.32883 57.3625 149.40695Q57.675 148.46945 58.284374 147.96945Q58.909374 147.46945 59.846874 147.46945Q60.534374 147.46945 61.05 147.7507Q61.58125 148.03195 61.925 148.5632Q62.26875 149.07883 62.45625 149.82883Q62.64375 150.57883 62.64375 151.86008Q62.64375 153.3757 62.33125 154.29758Q62.034374 155.21945 61.409374 155.73508Q60.8 156.23508 59.846874 156.23508Q58.6125 156.23508 57.89375 155.34445Q57.05 154.28195 57.05 151.86008ZM58.128124 151.86008Q58.128124 153.96945 58.628124 154.67258Q59.128124 155.3757 59.846874 155.3757Q60.58125 155.3757 61.065624 154.67258Q61.565624 153.96945 61.565624 151.86008Q61.565624 149.73508 61.065624 149.04758Q60.58125 148.34445 59.83125 148.34445Q59.1125 148.34445 58.675 148.95383Q58.128124 149.73508 58.128124 151.86008ZM64.64375 156.09445L64.64375 154.89133L65.84688 154.89133L65.84688 156.09445L64.64375 156.09445ZM67.05 151.86008Q67.05 150.32883 67.3625 149.40695Q67.675 148.46945 68.28438 147.96945Q68.90938 147.46945 69.84688 147.46945Q70.53438 147.46945 71.05 147.7507Q71.58125 148.03195 71.925 148.5632Q72.26875 149.07883 72.45625 149.82883Q72.64375 150.57883 72.64375 151.86008Q72.64375 153.3757 72.33125 154.29758Q72.03438 155.21945 71.40938 155.73508Q70.8 156.23508 69.84688 156.23508Q68.6125 156.23508 67.89375 155.34445Q67.05 154.28195 67.05 151.86008ZM68.12813 151.86008Q68.12813 153.96945 68.62813 154.67258Q69.12813 155.3757 69.84688 155.3757Q70.58125 155.3757 71.06563 154.67258Q71.56563 153.96945 71.56563 151.86008Q71.56563 149.73508 71.06563 149.04758Q70.58125 148.34445 69.83125 148.34445Q69.1125 148.34445 68.675 148.95383Q68.12813 149.73508 68.12813 151.86008ZM74.05 151.86008Q74.05 150.32883 74.3625 149.40695Q74.675 148.46945 75.28438 147.96945Q75.90938 147.46945 76.84688 147.46945Q77.53438 147.46945 78.05 147.7507Q78.58125 148.03195 78.925 148.5632Q79.26875 149.07883 79.45625 149.82883Q79.64375 150.57883 79.64375 151.86008Q79.64375 153.3757 79.33125 154.29758Q79.03438 155.21945 78.40938 155.73508Q77.8 156.23508 76.84688 156.23508Q75.6125 156.23508 74.89375 155.34445Q74.05 154.28195 74.05 151.86008ZM75.12813 151.86008Q75.12813 153.96945 75.62813 154.67258Q76.12813 155.3757 76.84688 155.3757Q77.58125 155.3757 78.06563 154.67258Q78.56563 153.96945 78.56563 151.86008Q78.56563 149.73508 78.06563 149.04758Q77.58125 148.34445 76.83125 148.34445Q76.1125 148.34445 75.675 148.95383Q75.12813 149.73508 75.12813 151.86008Z" fill-rule="nonzero"/><path fill="#000000" d="M23.01875 65.916664L21.971874 65.916664L21.971874 59.197914Q21.58125 59.55729 20.95625 59.93229Q20.346874 60.291664 19.8625 60.46354L19.8625 59.447914Q20.7375 59.02604 21.39375 58.447914Q22.065624 57.854164 22.346874 57.291664L23.01875 57.291664L23.01875 65.916664ZM26.05 63.666664L27.159374 63.572914Q27.284374 64.385414 27.721874 64.791664Q28.175 65.197914 28.815624 65.197914Q29.565624 65.197914 30.096874 64.61979Q30.628124 64.041664 30.628124 63.104164Q30.628124 62.197914 30.1125 61.68229Q29.6125 61.15104 28.784374 61.15104Q28.284374 61.15104 27.8625 61.385414Q27.45625 61.61979 27.221874 61.979164L26.2375 61.854164L27.065624 57.447914L31.346874 57.447914L31.346874 58.447914L27.909374 58.447914L27.45625 60.760414Q28.221874 60.21354 29.065624 60.21354Q30.190624 60.21354 30.95625 60.99479Q31.7375 61.77604 31.7375 63.010414Q31.7375 64.166664 31.065624 65.02604Q30.2375 66.05729 28.815624 66.05729Q27.64375 66.05729 26.89375 65.40104Q26.159374 64.74479 26.05 63.666664ZM33.05 61.68229Q33.05 60.15104 33.3625 59.229164Q33.675 58.291664 34.284374 57.791664Q34.909374 57.291664 35.846874 57.291664Q36.534374 57.291664 37.05 57.572914Q37.58125 57.854164 37.925 58.385414Q38.26875 58.90104 38.45625 59.65104Q38.64375 60.40104 38.64375 61.68229Q38.64375 63.197914 38.33125 64.11979Q38.034374 65.041664 37.409374 65.55729Q36.8 66.05729 35.846874 66.05729Q34.6125 66.05729 33.89375 65.166664Q33.05 64.104164 33.05 61.68229ZM34.128124 61.68229Q34.128124 63.791664 34.628124 64.49479Q35.128124 65.197914 35.846874 65.197914Q36.58125 65.197914 37.065624 64.49479Q37.565624 63.791664 37.565624 61.68229Q37.565624 59.55729 37.065624 58.86979Q36.58125 58.166664 35.83125 58.166664Q35.1125 58.166664 34.675 58.77604Q34.128124 59.55729 34.128124 61.68229ZM40.6125 65.916664L40.6125 64.71354L41.815624 64.71354L41.815624 65.916664Q41.815624 66.572914 41.58125 66.979164Q41.346874 67.40104 40.846874 67.61979L40.55 67.166664Q40.878124 67.02604 41.034374 66.729164Q41.190624 66.447914 41.221874 65.916664L40.6125 65.916664ZM43.05 61.68229Q43.05 60.15104 43.3625 59.229164Q43.675 58.291664 44.284374 57.791664Q44.909374 57.291664 45.846874 57.291664Q46.534374 57.291664 47.05 57.572914Q47.58125 57.854164 47.925 58.385414Q48.26875 58.90104 48.45625 59.65104Q48.64375 60.40104 48.64375 61.68229Q48.64375 63.197914 48.33125 64.11979Q48.034374 65.041664 47.409374 65.55729Q46.8 66.05729 45.846874 66.05729Q44.6125 66.05729 43.89375 65.166664Q43.05 64.104164 43.05 61.68229ZM44.128124 61.68229Q44.128124 63.791664 44.628124 64.49479Q45.128124 65.197914 45.846874 65.197914Q46.58125 65.197914 47.065624 64.49479Q47.565624 63.791664 47.565624 61.68229Q47.565624 59.55729 47.065624 58.86979Q46.58125 58.166664 45.83125 58.166664Q45.1125 58.166664 44.675 58.77604Q44.128124 59.55729 44.128124 61.68229ZM50.05 61.68229Q50.05 60.15104 50.3625 59.229164Q50.675 58.291664 51.284374 57.791664Q51.909374 57.291664 52.846874 57.291664Q53.534374 57.291664 54.05 57.572914Q54.58125 57.854164 54.925 58.385414Q55.26875 58.90104 55.45625 59.65104Q55.64375 60.40104 55.64375 61.68229Q55.64375 63.197914 55.33125 64.11979Q55.034374 65.041664 54.409374 65.55729Q53.8 66.05729 52.846874 66.05729Q51.6125 66.05729 50.89375 65.166664Q50.05 64.104164 50.05 61.68229ZM51.128124 61.68229Q51.128124 63.791664 51.628124 64.49479Q52.128124 65.197914 52.846874 65.197914Q53.58125 65.197914 54.065624 64.49479Q54.565624 63.791664 54.565624 61.68229Q54.565624 59.55729 54.065624 58.86979Q53.58125 58.166664 52.83125 58.166664Q52.1125 58.166664 51.675 58.77604Q51.128124 59.55729 51.128124 61.68229ZM57.05 61.68229Q57.05 60.15104 57.3625 59.229164Q57.675 58.291664 58.284374 57.791664Q58.909374 57.291664 59.846874 57.291664Q60.534374 57.291664 61.05 57.572914Q61.58125 57.854164 61.925 58.385414Q62.26875 58.90104 62.45625 59.65104Q62.64375 60.40104 62.64375 61.68229Q62.64375 63.197914 62.33125 64.11979Q62.034374 65.041664 61.409374 65.55729Q60.8 66.05729 59.846874 66.05729Q58.6125 66.05729 57.89375 65.166664Q57.05 64.104164 57.05 61.68229ZM58.128124 61.68229Q58.128124 63.791664 58.628124 64.49479Q59.128124 65.197914 59.846874 65.197914Q60.58125 65.197914 61.065624 64.49479Q61.565624 63.791664 61.565624 61.68229Q61.565624 59.55729 61.065624 58.86979Q60.58125 58.166664 59.83125 58.166664Q59.1125 58.166664 58.675 58.77604Q58.128124 59.55729 58.128124 61.68229ZM64.64375 65.916664L64.64375 64.71354L65.84688 64.71354L65.84688 65.916664L64.64375 65.916664ZM67.05 61.68229Q67.05 60.15104 67.3625 59.229164Q67.675 58.291664 68.28438 57.791664Q68.90938 57.291664 69.84688 57.291664Q70.53438 57.291664 71.05 57.572914Q71.58125 57.854164 71.925 58.385414Q72.26875 58.90104 72.45625 59.65104Q72.64375 60.40104 72.64375 61.68229Q72.64375 63.197914 72.33125 64.11979Q72.03438 65.041664 71.40938 65.55729Q70.8 66.05729 69.84688 66.05729Q68.6125 66.05729 67.89375 65.166664Q67.05 64.104164 67.05 61.68229ZM68.12813 61.68229Q68.12813 63.791664 68.62813 64.49479Q69.12813 65.197914 69.84688 65.197914Q70.58125 65.197914 71.06563 64.49479Q71.56563 63.791664 71.56563 61.68229Q71.56563 59.55729 71.06563 58.86979Q70.58125 58.166664 69.83125 58.166664Q69.1125 58.166664 68.675 58.77604Q68.12813 59.55729 68.12813 61.68229ZM74.05 61.68229Q74.05 60.15104 74.3625 59.229164Q74.675 58.291664 75.28438 57.791664Q75.90938 57.291664 76.84688 57.291664Q77.53438 57.291664 78.05 57.572914Q78.58125 57.854164 78.925 58.385414Q79.26875 58.90104 79.45625 59.65104Q79.64375 60.40104 79.64375 61.68229Q79.64375 63.197914 79.33125 64.11979Q79.03438 65.041664 78.40938 65.55729Q77.8 66.05729 76.84688 66.05729Q75.6125 66.05729 74.89375 65.166664Q74.05 64.104164 74.05 61.68229ZM75.12813 61.68229Q75.12813 63.791664 75.62813 64.49479Q76.12813 65.197914 76.84688 65.197914Q77.58125 65.197914 78.06563 64.49479Q78.56563 63.791664 78.56563 61.68229Q78.56563 59.55729 78.06563 58.86979Q77.58125 58.166664 76.83125 58.166664Q76.1125 58.166664 75.675 58.77604Q75.12813 59.55729 75.12813 61.68229Z" fill-rule="nonzero"/><path fill="#000000" d="M168.68651 349.45L171.98338 340.85626L173.20213 340.85626L176.71776 349.45L175.43651 349.45L174.42088 346.84064L170.84276 346.84064L169.88963 349.45L168.68651 349.45ZM171.17088 345.91876L174.07713 345.91876L173.18651 343.54376Q172.76463 342.46564 172.57713 341.7625Q172.40526 342.59064 172.10838 343.40314L171.17088 345.91876ZM176.48338 349.45L176.48338 343.23126L177.43651 343.23126L177.43651 344.16876Q177.79588 343.5125 178.09276 343.3094Q178.40526 343.09064 178.78026 343.09064Q179.31151 343.09064 179.85838 343.41876L179.49901 344.40314Q179.10838 344.16876 178.73338 344.16876Q178.37401 344.16876 178.09276 344.3875Q177.82713 344.59064 177.71776 344.96564Q177.53026 345.52814 177.53026 346.1844L177.53026 349.45L176.48338 349.45ZM182.79588 348.5125L182.95213 349.4344Q182.49901 349.52814 182.15526 349.52814Q181.57713 349.52814 181.26463 349.35626Q180.95213 349.16876 180.81151 348.8719Q180.68651 348.575 180.68651 347.6219L180.68651 344.04376L179.92088 344.04376L179.92088 343.23126L180.68651 343.23126L180.68651 341.6844L181.73338 341.0594L181.73338 343.23126L182.79588 343.23126L182.79588 344.04376L181.73338 344.04376L181.73338 347.6844Q181.73338 348.1375 181.78026 348.2625Q181.84276 348.3875 181.96776 348.46564Q182.09276 348.54376 182.32713 348.54376Q182.51463 348.54376 182.79588 348.5125ZM187.74901 347.45L188.84276 347.575Q188.59276 348.52814 187.88963 349.0594Q187.18651 349.59064 186.10838 349.59064Q184.74901 349.59064 183.93651 348.7469Q183.13963 347.90314 183.13963 346.3875Q183.13963 344.825 183.95213 343.96564Q184.76463 343.09064 186.04588 343.09064Q187.29588 343.09064 188.07713 343.9344Q188.87401 344.77814 188.87401 346.325Q188.87401 346.41876 188.87401 346.60626L184.23338 346.60626Q184.29588 347.6375 184.81151 348.1844Q185.32713 348.71564 186.10838 348.71564Q186.68651 348.71564 187.09276 348.41876Q187.51463 348.10626 187.74901 347.45ZM184.29588 345.7469L187.76463 345.7469Q187.70213 344.95 187.37401 344.5594Q186.85838 343.95 186.06151 343.95Q185.32713 343.95 184.82713 344.4344Q184.34276 344.91876 184.29588 345.7469ZM190.49901 349.45L190.49901 343.23126L191.43651 343.23126L191.43651 344.10626Q191.73338 343.6375 192.21776 343.3719Q192.70213 343.09064 193.32713 343.09064Q194.01463 343.09064 194.45213 343.3719Q194.90526 343.65314 195.07713 344.16876Q195.82713 343.09064 196.99901 343.09064Q197.93651 343.09064 198.42088 343.60626Q198.92088 344.10626 198.92088 345.1844L198.92088 349.45L197.87401 349.45L197.87401 345.52814Q197.87401 344.90314 197.76463 344.6219Q197.67088 344.34064 197.40526 344.16876Q197.13963 343.9969 196.76463 343.9969Q196.10838 343.9969 195.67088 344.4344Q195.24901 344.8719 195.24901 345.84064L195.24901 349.45L194.18651 349.45L194.18651 345.40314Q194.18651 344.7 193.92088 344.35626Q193.67088 343.9969 193.09276 343.9969Q192.63963 343.9969 192.26463 344.23126Q191.88963 344.46564 191.71776 344.91876Q191.54588 345.3719 191.54588 346.21564L191.54588 349.45L190.49901 349.45ZM201.49901 342.075L201.49901 340.85626L202.56151 340.85626L202.56151 342.075L201.49901 342.075ZM201.49901 349.45L201.49901 343.23126L202.56151 343.23126L202.56151 349.45L201.49901 349.45ZM204.07713 347.59064L205.10838 347.4344Q205.20213 348.0594 205.59276 348.3875Q205.99901 348.71564 206.73338 348.71564Q207.45213 348.71564 207.79588 348.4344Q208.15526 348.1375 208.15526 347.73126Q208.15526 347.3719 207.84276 347.16876Q207.62401 347.02814 206.76463 346.8094Q205.60838 346.5125 205.15526 346.3094Q204.71776 346.09064 204.48338 345.71564Q204.24901 345.34064 204.24901 344.8719Q204.24901 344.46564 204.43651 344.10626Q204.62401 343.7469 204.95213 343.5125Q205.20213 343.34064 205.62401 343.21564Q206.04588 343.09064 206.54588 343.09064Q207.26463 343.09064 207.81151 343.3094Q208.37401 343.5125 208.63963 343.8719Q208.90526 344.23126 208.99901 344.825L207.96776 344.96564Q207.90526 344.4969 207.56151 344.23126Q207.23338 343.95 206.60838 343.95Q205.88963 343.95 205.57713 344.2Q205.26463 344.4344 205.26463 344.7625Q205.26463 344.96564 205.38963 345.1219Q205.53026 345.29376 205.79588 345.40314Q205.95213 345.46564 206.73338 345.66876Q207.85838 345.98126 208.29588 346.16876Q208.73338 346.35626 208.98338 346.71564Q209.23338 347.075 209.23338 347.6219Q209.23338 348.15314 208.92088 348.6219Q208.62401 349.075 208.04588 349.34064Q207.46776 349.59064 206.73338 349.59064Q205.51463 349.59064 204.87401 349.09064Q204.24901 348.575 204.07713 347.59064ZM211.62401 349.45L211.62401 340.85626L212.78026 340.85626L217.29588 347.60626L217.29588 340.85626L218.38963 340.85626L218.38963 349.45L217.21776 349.45L212.70213 342.7L212.70213 349.45L211.62401 349.45ZM224.74901 347.45L225.84276 347.575Q225.59276 348.52814 224.88963 349.0594Q224.18651 349.59064 223.10838 349.59064Q221.74901 349.59064 220.93651 348.7469Q220.13963 347.90314 220.13963 346.3875Q220.13963 344.825 220.95213 343.96564Q221.76463 343.09064 223.04588 343.09064Q224.29588 343.09064 225.07713 343.9344Q225.87401 344.77814 225.87401 346.325Q225.87401 346.41876 225.87401 346.60626L221.23338 346.60626Q221.29588 347.6375 221.81151 348.1844Q222.32713 348.71564 223.10838 348.71564Q223.68651 348.71564 224.09276 348.41876Q224.51463 348.10626 224.74901 347.45ZM221.29588 345.7469L224.76463 345.7469Q224.70213 344.95 224.37401 344.5594Q223.85838 343.95 223.06151 343.95Q222.32713 343.95 221.82713 344.4344Q221.34276 344.91876 221.29588 345.7469ZM229.79588 348.5125L229.95213 349.4344Q229.49901 349.52814 229.15526 349.52814Q228.57713 349.52814 228.26463 349.35626Q227.95213 349.16876 227.81151 348.8719Q227.68651 348.575 227.68651 347.6219L227.68651 344.04376L226.92088 344.04376L226.92088 343.23126L227.68651 343.23126L227.68651 341.6844L228.73338 341.0594L228.73338 343.23126L229.79588 343.23126L229.79588 344.04376L228.73338 344.04376L228.73338 347.6844Q228.73338 348.1375 228.78026 348.2625Q228.84276 348.3875 228.96776 348.46564Q229.09276 348.54376 229.32713 348.54376Q229.51463 348.54376 229.79588 348.5125ZM236.76463 346.4344L237.88963 346.73126Q237.53026 348.1219 236.60838 348.85626Q235.68651 349.59064 234.34276 349.59064Q232.95213 349.59064 232.07713 349.02814Q231.20213 348.46564 230.74901 347.40314Q230.29588 346.325 230.29588 345.09064Q230.29588 343.7469 230.81151 342.7469Q231.32713 341.7469 232.26463 341.23126Q233.21776 340.71564 234.35838 340.71564Q235.63963 340.71564 236.51463 341.3719Q237.40526 342.02814 237.74901 343.21564L236.62401 343.48126Q236.32713 342.54376 235.74901 342.1219Q235.18651 341.6844 234.32713 341.6844Q233.34276 341.6844 232.67088 342.16876Q232.01463 342.6375 231.73338 343.4344Q231.46776 344.23126 231.46776 345.09064Q231.46776 346.1844 231.78026 346.9969Q232.10838 347.8094 232.78026 348.21564Q233.45213 348.6219 234.24901 348.6219Q235.20213 348.6219 235.85838 348.075Q236.53026 347.52814 236.76463 346.4344ZM239.10838 346.34064Q239.10838 344.60626 240.06151 343.77814Q240.85838 343.09064 242.01463 343.09064Q243.29588 343.09064 244.10838 343.9344Q244.93651 344.7625 244.93651 346.2469Q244.93651 347.45 244.57713 348.1375Q244.21776 348.825 243.51463 349.21564Q242.82713 349.59064 242.01463 349.59064Q240.71776 349.59064 239.90526 348.7625Q239.10838 347.91876 239.10838 346.34064ZM240.18651 346.34064Q240.18651 347.52814 240.70213 348.1219Q241.23338 348.71564 242.01463 348.71564Q242.81151 348.71564 243.32713 348.1219Q243.84276 347.52814 243.84276 346.3094Q243.84276 345.15314 243.31151 344.5594Q242.79588 343.96564 242.01463 343.96564Q241.23338 343.96564 240.70213 344.5594Q240.18651 345.1375 240.18651 346.34064ZM246.48338 349.45L246.48338 343.23126L247.43651 343.23126L247.43651 344.16876Q247.79588 343.5125 248.09276 343.3094Q248.40526 343.09064 248.78026 343.09064Q249.31151 343.09064 249.85838 343.41876L249.49901 344.40314Q249.10838 344.16876 248.73338 344.16876Q248.37401 344.16876 248.09276 344.3875Q247.82713 344.59064 247.71776 344.96564Q247.53026 345.52814 247.53026 346.1844L247.53026 349.45L246.48338 349.45ZM254.74901 347.45L255.84276 347.575Q255.59276 348.52814 254.88963 349.0594Q254.18651 349.59064 253.10838 349.59064Q251.74901 349.59064 250.93651 348.7469Q250.13963 347.90314 250.13963 346.3875Q250.13963 344.825 250.95213 343.96564Q251.76463 343.09064 253.04588 343.09064Q254.29588 343.09064 255.07713 343.9344Q255.87401 344.77814 255.87401 346.325Q255.87401 346.41876 255.87401 346.60626L251.23338 346.60626Q251.29588 347.6375 251.81151 348.1844Q252.32713 348.71564 253.10838 348.71564Q253.68651 348.71564 254.09276 348.41876Q254.51463 348.10626 254.74901 347.45ZM251.29588 345.7469L254.76463 345.7469Q254.70213 344.95 254.37401 344.5594Q253.85838 343.95 253.06151 343.95Q252.32713 343.95 251.82713 344.4344Q251.34276 344.91876 251.29588 345.7469ZM263.76465 346.4344L264.88965 346.73126Q264.53027 348.1219 263.6084 348.85626Q262.68652 349.59064 261.34277 349.59064Q259.95215 349.59064 259.07715 349.02814Q258.20215 348.46564 257.74902 347.40314Q257.2959 346.325 257.2959 345.09064Q257.2959 343.7469 257.81152 342.7469Q258.32715 341.7469 259.26465 341.23126Q260.21777 340.71564 261.3584 340.71564Q262.63965 340.71564 263.51465 341.3719Q264.40527 342.02814 264.74902 343.21564L263.62402 343.48126Q263.32715 342.54376 262.74902 342.1219Q262.18652 341.6844 261.32715 341.6844Q260.34277 341.6844 259.6709 342.16876Q259.01465 342.6375 258.7334 343.4344Q258.46777 344.23126 258.46777 345.09064Q258.46777 346.1844 258.78027 346.9969Q259.1084 347.8094 259.78027 348.21564Q260.45215 348.6219 261.24902 348.6219Q262.20215 348.6219 262.8584 348.075Q263.53027 347.52814 263.76465 346.4344ZM266.46777 349.45L266.46777 340.85626L267.53027 340.85626L267.53027 349.45L266.46777 349.45ZM269.49902 342.075L269.49902 340.85626L270.56152 340.85626L270.56152 342.075L269.49902 342.075ZM269.49902 349.45L269.49902 343.23126L270.56152 343.23126L270.56152 349.45L269.49902 349.45ZM276.74902 347.45L277.84277 347.575Q277.59277 348.52814 276.88965 349.0594Q276.18652 349.59064 275.1084 349.59064Q273.74902 349.59064 272.93652 348.7469Q272.13965 347.90314 272.13965 346.3875Q272.13965 344.825 272.95215 343.96564Q273.76465 343.09064 275.0459 343.09064Q276.2959 343.09064 277.07715 343.9344Q277.87402 344.77814 277.87402 346.325Q277.87402 346.41876 277.87402 346.60626L273.2334 346.60626Q273.2959 347.6375 273.81152 348.1844Q274.32715 348.71564 275.1084 348.71564Q275.68652 348.71564 276.09277 348.41876Q276.51465 348.10626 276.74902 347.45ZM273.2959 345.7469L276.76465 345.7469Q276.70215 344.95 276.37402 344.5594Q275.8584 343.95 275.06152 343.95Q274.32715 343.95 273.82715 344.4344Q273.34277 344.91876 273.2959 345.7469ZM279.49902 349.45L279.49902 343.23126L280.43652 343.23126L280.43652 344.10626Q281.12402 343.09064 282.4209 343.09064Q282.9834 343.09064 283.45215 343.29376Q283.93652 343.4969 284.1709 343.825Q284.40527 344.15314 284.49902 344.59064Q284.5459 344.8875 284.5459 345.6219L284.5459 349.45L283.49902 349.45L283.49902 345.66876Q283.49902 345.0125 283.37402 344.7Q283.24902 344.3875 282.93652 344.2Q282.62402 343.9969 282.20215 343.9969Q281.53027 343.9969 281.03027 344.4344Q280.5459 344.85626 280.5459 346.04376L280.5459 349.45L279.49902 349.45ZM288.7959 348.5125L288.95215 349.4344Q288.49902 349.52814 288.15527 349.52814Q287.57715 349.52814 287.26465 349.35626Q286.95215 349.16876 286.81152 348.8719Q286.68652 348.575 286.68652 347.6219L286.68652 344.04376L285.9209 344.04376L285.9209 343.23126L286.68652 343.23126L286.68652 341.6844L287.7334 341.0594L287.7334 343.23126L288.7959 343.23126L288.7959 344.04376L287.7334 344.04376L287.7334 347.6844Q287.7334 348.1375 287.78027 348.2625Q287.84277 348.3875 287.96777 348.46564Q288.09277 348.54376 288.32715 348.54376Q288.51465 348.54376 288.7959 348.5125Z" fill-rule="nonzero"/><path fill="#000000" d="M409.21976 349.45L409.21976 340.85626L410.376 340.85626L414.89163 347.60626L414.89163 340.85626L415.98538 340.85626L415.98538 349.45L414.8135 349.45L410.29788 342.7L410.29788 349.45L409.21976 349.45ZM418.1885 349.45L418.1885 340.85626L419.90726 340.85626L421.9385 346.9344Q422.21976 347.79376 422.34476 348.21564Q422.48538 347.7469 422.79788 346.84064L424.86038 340.85626L426.39163 340.85626L426.39163 349.45L425.29788 349.45L425.29788 342.2625L422.79788 349.45L421.76663 349.45L419.28226 342.1375L419.28226 349.45L418.1885 349.45ZM426.84476 346.6844L427.90726 346.59064Q427.98538 347.2469 428.26663 347.65314Q428.54788 348.0594 429.126 348.325Q429.71976 348.575 430.45413 348.575Q431.09476 348.575 431.59476 348.3875Q432.09476 348.1844 432.32913 347.85626Q432.57913 347.5125 432.57913 347.1219Q432.57913 346.71564 432.34476 346.41876Q432.11038 346.10626 431.57913 345.90314Q431.21976 345.7625 430.03226 345.48126Q428.86038 345.2 428.39163 344.95Q427.76663 344.6219 427.46976 344.15314Q427.17288 343.66876 427.17288 343.075Q427.17288 342.4344 427.53226 341.8719Q427.90726 341.29376 428.61038 341.0125Q429.32913 340.71564 430.1885 340.71564Q431.14163 340.71564 431.876 341.02814Q432.61038 341.325 433.001 341.9344Q433.39163 342.52814 433.42288 343.27814L432.32913 343.35626Q432.23538 342.54376 431.71976 342.1375Q431.21976 341.71564 430.23538 341.71564Q429.20413 341.71564 428.73538 342.09064Q428.26663 342.46564 428.26663 342.9969Q428.26663 343.46564 428.59476 343.7625Q428.92288 344.0594 430.29788 344.3719Q431.6885 344.6844 432.20413 344.91876Q432.95413 345.27814 433.3135 345.8094Q433.67288 346.325 433.67288 347.02814Q433.67288 347.71564 433.28226 348.325Q432.89163 348.91876 432.15726 349.2625Q431.42288 349.59064 430.501 349.59064Q429.32913 349.59064 428.53226 349.2625Q427.751 348.91876 427.29788 348.23126Q426.86038 347.54376 426.84476 346.6844ZM435.39163 349.45L435.39163 348.2469L436.59476 348.2469L436.59476 349.45L435.39163 349.45ZM437.28226 349.45L440.57913 340.85626L441.79788 340.85626L445.3135 349.45L444.03226 349.45L443.01663 346.84064L439.4385 346.84064L438.48538 349.45L437.28226 349.45ZM439.76663 345.91876L442.67288 345.91876L441.78226 343.54376Q441.36038 342.46564 441.17288 341.7625Q441.001 342.59064 440.70413 343.40314L439.76663 345.91876ZM445.1885 349.45L445.1885 340.85626L446.90726 340.85626L448.9385 346.9344Q449.21976 347.79376 449.34476 348.21564Q449.48538 347.7469 449.79788 346.84064L451.86038 340.85626L453.39163 340.85626L453.39163 349.45L452.29788 349.45L452.29788 342.2625L449.79788 349.45L448.76663 349.45L446.28226 342.1375L446.28226 349.45L445.1885 349.45ZM460.73538 348.52814Q461.53226 349.075 462.1885 349.325L461.86038 350.1219Q460.9385 349.77814 460.01663 349.0594Q459.0635 349.59064 457.90726 349.59064Q456.73538 349.59064 455.78226 349.02814Q454.84476 348.46564 454.32913 347.45Q453.8135 346.4344 453.8135 345.15314Q453.8135 343.8875 454.32913 342.84064Q454.84476 341.79376 455.79788 341.2469Q456.751 340.7 457.92288 340.7Q459.11038 340.7 460.0635 341.27814Q461.03226 341.84064 461.53226 342.85626Q462.03226 343.8719 462.03226 345.15314Q462.03226 346.21564 461.70413 347.0594Q461.39163 347.90314 460.73538 348.52814ZM458.23538 347.075Q459.21976 347.35626 459.86038 347.90314Q460.86038 346.98126 460.86038 345.15314Q460.86038 344.10626 460.501 343.325Q460.14163 342.54376 459.45413 342.1219Q458.78226 341.6844 457.9385 341.6844Q456.65726 341.6844 455.8135 342.5594Q454.98538 343.41876 454.98538 345.15314Q454.98538 346.825 455.8135 347.73126Q456.64163 348.6219 457.9385 348.6219Q458.54788 348.6219 459.07913 348.3875Q458.54788 348.04376 457.95413 347.90314L458.23538 347.075ZM463.21976 349.45L463.21976 340.85626L466.46976 340.85626Q467.3135 340.85626 467.76663 340.9344Q468.40726 341.04376 468.82913 341.34064Q469.26663 341.6375 469.51663 342.16876Q469.78226 342.7 469.78226 343.34064Q469.78226 344.4344 469.07913 345.2Q468.39163 345.95 466.5635 345.95L464.36038 345.95L464.36038 349.45L463.21976 349.45ZM464.36038 344.95L466.57913 344.95Q467.6885 344.95 468.14163 344.54376Q468.61038 344.1219 468.61038 343.3719Q468.61038 342.84064 468.32913 342.46564Q468.0635 342.075 467.626 341.95Q467.32913 341.8719 466.5635 341.8719L464.36038 341.8719L464.36038 344.95Z" fill-rule="nonzero"/><path fill="#757575" d="M30.315624 32.534374L32.20625 33.003124Q31.6125 35.346874 30.065624 36.58125Q28.51875 37.8 26.26875 37.8Q23.95625 37.8 22.503124 36.8625Q21.065624 35.909374 20.3 34.128124Q19.55 32.33125 19.55 30.284374Q19.55 28.05 20.39375 26.39375Q21.253124 24.721874 22.83125 23.8625Q24.409374 22.9875 26.3 22.9875Q28.45625 22.9875 29.909374 24.08125Q31.378124 25.175 31.95625 27.159374L30.096874 27.596874Q29.596874 26.034374 28.64375 25.33125Q27.70625 24.6125 26.26875 24.6125Q24.6125 24.6125 23.503124 25.409374Q22.39375 26.190624 21.940624 27.534374Q21.503124 28.8625 21.503124 30.26875Q21.503124 32.096874 22.034374 33.471874Q22.565624 34.83125 23.690624 35.503124Q24.815624 36.175 26.1125 36.175Q27.70625 36.175 28.815624 35.253124Q29.925 34.33125 30.315624 32.534374ZM33.221874 32.3625Q33.221874 29.4875 34.815624 28.096874Q36.159374 26.940624 38.08125 26.940624Q40.221874 26.940624 41.565624 28.346874Q42.925 29.753124 42.925 32.221874Q42.925 34.221874 42.33125 35.378124Q41.7375 36.51875 40.58125 37.159374Q39.440624 37.784374 38.08125 37.784374Q35.89375 37.784374 34.55 36.39375Q33.221874 34.9875 33.221874 32.3625ZM35.01875 32.3625Q35.01875 34.3625 35.878124 35.346874Q36.753124 36.33125 38.08125 36.33125Q39.39375 36.33125 40.253124 35.346874Q41.128124 34.346874 41.128124 32.3Q41.128124 30.378124 40.253124 29.39375Q39.378124 28.39375 38.08125 28.39375Q36.753124 28.39375 35.878124 29.39375Q35.01875 30.378124 35.01875 32.3625ZM44.8625 37.55L44.8625 27.175L46.45625 27.175L46.45625 28.659374Q47.596874 26.940624 49.753124 26.940624Q50.690624 26.940624 51.471874 27.284374Q52.26875 27.6125 52.659374 28.159374Q53.05 28.70625 53.20625 29.45625Q53.3 29.95625 53.3 31.175L53.3 37.55L51.534374 37.55L51.534374 31.2375Q51.534374 30.159374 51.33125 29.628124Q51.128124 29.096874 50.596874 28.784374Q50.08125 28.471874 49.378124 28.471874Q48.253124 28.471874 47.440624 29.190624Q46.628124 29.89375 46.628124 31.878124L46.628124 37.55L44.8625 37.55ZM54.159374 34.45625L55.909374 34.175Q56.05 35.221874 56.721874 35.784374Q57.39375 36.33125 58.596874 36.33125Q59.8 36.33125 60.378124 35.846874Q60.971874 35.346874 60.971874 34.690624Q60.971874 34.096874 60.45625 33.753124Q60.096874 33.51875 58.659374 33.159374Q56.721874 32.659374 55.971874 32.315624Q55.2375 31.95625 54.846874 31.33125Q54.45625 30.690624 54.45625 29.925Q54.45625 29.2375 54.76875 28.64375Q55.096874 28.05 55.64375 27.659374Q56.05 27.3625 56.753124 27.159374Q57.471874 26.940624 58.284374 26.940624Q59.503124 26.940624 60.425 27.3Q61.346874 27.64375 61.784374 28.253124Q62.221874 28.846874 62.39375 29.846874L60.675 30.08125Q60.55 29.284374 59.9875 28.846874Q59.425 28.39375 58.409374 28.39375Q57.190624 28.39375 56.675 28.8Q56.159374 29.190624 56.159374 29.721874Q56.159374 30.065624 56.378124 30.346874Q56.58125 30.628124 57.05 30.815624Q57.315624 30.909374 58.596874 31.253124Q60.471874 31.753124 61.20625 32.08125Q61.940624 32.39375 62.3625 33.003124Q62.784374 33.596874 62.784374 34.503124Q62.784374 35.378124 62.26875 36.159374Q61.753124 36.940624 60.784374 37.3625Q59.815624 37.784374 58.596874 37.784374Q56.58125 37.784374 55.51875 36.940624Q54.45625 36.096874 54.159374 34.45625ZM71.65938 37.55L71.65938 36.01875Q70.45625 37.784374 68.37813 37.784374Q67.45625 37.784374 66.65938 37.440624Q65.8625 37.08125 65.47188 36.55Q65.09688 36.01875 64.94063 35.2375Q64.83125 34.721874 64.83125 33.596874L64.83125 27.175L66.58125 27.175L66.58125 32.925Q66.58125 34.3 66.69063 34.784374Q66.8625 35.471874 67.39375 35.878124Q67.94063 36.26875 68.72188 36.26875Q69.51875 36.26875 70.20625 35.8625Q70.90938 35.45625 71.19063 34.76875Q71.4875 34.065624 71.4875 32.7375L71.4875 27.175L73.2375 27.175L73.2375 37.55L71.65938 37.55ZM74.8625 37.55L74.8625 27.175L76.44063 27.175L76.44063 28.628124Q76.925 27.878124 77.7375 27.409374Q78.55 26.940624 79.58125 26.940624Q80.7375 26.940624 81.47188 27.425Q82.20625 27.89375 82.51875 28.753124Q83.75313 26.940624 85.72188 26.940624Q87.26875 26.940624 88.09688 27.8Q88.925 28.659374 88.925 30.425L88.925 37.55L87.175 37.55L87.175 31.01875Q87.175 29.95625 87.00313 29.503124Q86.83125 29.034374 86.37813 28.753124Q85.94063 28.471874 85.33125 28.471874Q84.2375 28.471874 83.50313 29.20625Q82.78438 29.925 82.78438 31.51875L82.78438 37.55L81.03438 37.55L81.03438 30.815624Q81.03438 29.64375 80.59688 29.065624Q80.175 28.471874 79.19063 28.471874Q78.45625 28.471874 77.81563 28.8625Q77.19063 29.253124 76.90938 30.003124Q76.62813 30.753124 76.62813 32.175L76.62813 37.55L74.8625 37.55ZM90.87813 25.253124L90.87813 23.2375L92.64375 23.2375L92.64375 25.253124L90.87813 25.253124ZM90.87813 37.55L90.87813 27.175L92.64375 27.175L92.64375 37.55L90.87813 37.55ZM94.8625 37.55L94.8625 27.175L96.45625 27.175L96.45625 28.659374Q97.59688 26.940624 99.75313 26.940624Q100.69063 26.940624 101.47188 27.284374Q102.26875 27.6125 102.65938 28.159374Q103.05 28.70625 103.20625 29.45625Q103.3 29.95625 103.3 31.175L103.3 37.55L101.53438 37.55L101.53438 31.2375Q101.53438 30.159374 101.33125 29.628124Q101.12813 29.096874 100.59688 28.784374Q100.08125 28.471874 99.37813 28.471874Q98.25313 28.471874 97.44063 29.190624Q96.62813 29.89375 96.62813 31.878124L96.62813 37.55L94.8625 37.55ZM104.55 38.409374L106.25313 38.659374Q106.3625 39.45625 106.84688 39.815624Q107.50313 40.3 108.64375 40.3Q109.8625 40.3 110.51875 39.815624Q111.19063 39.33125 111.425 38.45625Q111.56563 37.909374 111.55 36.190624Q110.39375 37.55 108.675 37.55Q106.53438 37.55 105.3625 36.003124Q104.19063 34.45625 104.19063 32.3Q104.19063 30.815624 104.72188 29.565624Q105.26875 28.315624 106.28438 27.628124Q107.31563 26.940624 108.69063 26.940624Q110.51875 26.940624 111.72188 28.425L111.72188 27.175L113.33125 27.175L113.33125 36.14375Q113.33125 38.565624 112.83125 39.565624Q112.34688 40.58125 111.26875 41.159374Q110.20625 41.753124 108.64375 41.753124Q106.8 41.753124 105.64375 40.925Q104.50313 40.096874 104.55 38.409374ZM106.00313 32.175Q106.00313 34.221874 106.81563 35.159374Q107.62813 36.096874 108.84688 36.096874Q110.05 36.096874 110.8625 35.159374Q111.69063 34.221874 111.69063 32.2375Q111.69063 30.33125 110.84688 29.3625Q110.00313 28.39375 108.81563 28.39375Q107.64375 28.39375 106.81563 29.346874Q106.00313 30.3 106.00313 32.175ZM121.8625 37.55L121.8625 27.175L123.44063 27.175L123.44063 28.628124Q123.925 27.878124 124.7375 27.409374Q125.55 26.940624 126.58125 26.940624Q127.7375 26.940624 128.47188 27.425Q129.20625 27.89375 129.51875 28.753124Q130.75313 26.940624 132.72188 26.940624Q134.26875 26.940624 135.09688 27.8Q135.925 28.659374 135.925 30.425L135.925 37.55L134.175 37.55L134.175 31.01875Q134.175 29.95625 134.00313 29.503124Q133.83125 29.034374 133.37813 28.753124Q132.94063 28.471874 132.33125 28.471874Q131.2375 28.471874 130.50313 29.20625Q129.78438 29.925 129.78438 31.51875L129.78438 37.55L128.03438 37.55L128.03438 30.815624Q128.03438 29.64375 127.59688 29.065624Q127.175 28.471874 126.19063 28.471874Q125.45625 28.471874 124.81563 28.8625Q124.19063 29.253124 123.90938 30.003124Q123.62813 30.753124 123.62813 32.175L123.62813 37.55L121.8625 37.55ZM137.15938 34.45625L138.90938 34.175Q139.05 35.221874 139.72188 35.784374Q140.39375 36.33125 141.59688 36.33125Q142.8 36.33125 143.37813 35.846874Q143.97188 35.346874 143.97188 34.690624Q143.97188 34.096874 143.45625 33.753124Q143.09688 33.51875 141.65938 33.159374Q139.72188 32.659374 138.97188 32.315624Q138.2375 31.95625 137.84688 31.33125Q137.45625 30.690624 137.45625 29.925Q137.45625 29.2375 137.76875 28.64375Q138.09688 28.05 138.64375 27.659374Q139.05 27.3625 139.75313 27.159374Q140.47188 26.940624 141.28438 26.940624Q142.50313 26.940624 143.425 27.3Q144.34688 27.64375 144.78438 28.253124Q145.22188 28.846874 145.39375 29.846874L143.675 30.08125Q143.55 29.284374 142.9875 28.846874Q142.425 28.39375 141.40938 28.39375Q140.19063 28.39375 139.675 28.8Q139.15938 29.190624 139.15938 29.721874Q139.15938 30.065624 139.37813 30.346874Q139.58125 30.628124 140.05 30.815624Q140.31563 30.909374 141.59688 31.253124Q143.47188 31.753124 144.20625 32.08125Q144.94063 32.39375 145.3625 33.003124Q145.78438 33.596874 145.78438 34.503124Q145.78438 35.378124 145.26875 36.159374Q144.75313 36.940624 143.78438 37.3625Q142.81563 37.784374 141.59688 37.784374Q139.58125 37.784374 138.51875 36.940624Q137.45625 36.096874 137.15938 34.45625ZM147.55 38.409374L149.25313 38.659374Q149.3625 39.45625 149.84688 39.815624Q150.50313 40.3 151.64375 40.3Q152.8625 40.3 153.51875 39.815624Q154.19063 39.33125 154.425 38.45625Q154.56563 37.909374 154.55 36.190624Q153.39375 37.55 151.675 37.55Q149.53438 37.55 148.3625 36.003124Q147.19063 34.45625 147.19063 32.3Q147.19063 30.815624 147.72188 29.565624Q148.26875 28.315624 149.28438 27.628124Q150.31563 26.940624 151.69063 26.940624Q153.51875 26.940624 154.72188 28.425L154.72188 27.175L156.33125 27.175L156.33125 36.14375Q156.33125 38.565624 155.83125 39.565624Q155.34688 40.58125 154.26875 41.159374Q153.20625 41.753124 151.64375 41.753124Q149.8 41.753124 148.64375 40.925Q147.50313 40.096874 147.55 38.409374ZM149.00313 32.175Q149.00313 34.221874 149.81563 35.159374Q150.62813 36.096874 151.84688 36.096874Q153.05 36.096874 153.8625 35.159374Q154.69063 34.221874 154.69063 32.2375Q154.69063 30.33125 153.84688 29.3625Q153.00313 28.39375 151.81563 28.39375Q150.64375 28.39375 149.81563 29.346874Q149.00313 30.3 149.00313 32.175ZM158.15938 34.45625L159.90938 34.175Q160.05 35.221874 160.72188 35.784374Q161.39375 36.33125 162.59688 36.33125Q163.8 36.33125 164.37813 35.846874Q164.97188 35.346874 164.97188 34.690624Q164.97188 34.096874 164.45625 33.753124Q164.09688 33.51875 162.65938 33.159374Q160.72188 32.659374 159.97188 32.315624Q159.2375 31.95625 158.84688 31.33125Q158.45625 30.690624 158.45625 29.925Q158.45625 29.2375 158.76875 28.64375Q159.09688 28.05 159.64375 27.659374Q160.05 27.3625 160.75313 27.159374Q161.47188 26.940624 162.28438 26.940624Q163.50313 26.940624 164.425 27.3Q165.34688 27.64375 165.78438 28.253124Q166.22188 28.846874 166.39375 29.846874L164.675 30.08125Q164.55 29.284374 163.9875 28.846874Q163.425 28.39375 162.40938 28.39375Q161.19063 28.39375 160.675 28.8Q160.15938 29.190624 160.15938 29.721874Q160.15938 30.065624 160.37813 30.346874Q160.58125 30.628124 161.05 30.815624Q161.31563 30.909374 162.59688 31.253124Q164.47188 31.753124 165.20625 32.08125Q165.94063 32.39375 166.3625 33.003124Q166.78438 33.596874 166.78438 34.503124Q166.78438 35.378124 166.26875 36.159374Q165.75313 36.940624 164.78438 37.3625Q163.81563 37.784374 162.59688 37.784374Q160.58125 37.784374 159.51875 36.940624Q158.45625 36.096874 158.15938 34.45625ZM167.55 37.8L171.70625 22.9875L173.1125 22.9875L168.97188 37.8L167.55 37.8ZM174.15938 34.45625L175.90938 34.175Q176.05 35.221874 176.72188 35.784374Q177.39375 36.33125 178.59688 36.33125Q179.8 36.33125 180.37813 35.846874Q180.97188 35.346874 180.97188 34.690624Q180.97188 34.096874 180.45625 33.753124Q180.09688 33.51875 178.65938 33.159374Q176.72188 32.659374 175.97188 32.315624Q175.2375 31.95625 174.84688 31.33125Q174.45625 30.690624 174.45625 29.925Q174.45625 29.2375 174.76875 28.64375Q175.09688 28.05 175.64375 27.659374Q176.05 27.3625 176.75313 27.159374Q177.47188 26.940624 178.28438 26.940624Q179.50313 26.940624 180.425 27.3Q181.34688 27.64375 181.78438 28.253124Q182.22188 28.846874 182.39375 29.846874L180.675 30.08125Q180.55 29.284374 179.9875 28.846874Q179.425 28.39375 178.40938 28.39375Q177.19063 28.39375 176.675 28.8Q176.15938 29.190624 176.15938 29.721874Q176.15938 30.065624 176.37813 30.346874Q176.58125 30.628124 177.05 30.815624Q177.31563 30.909374 178.59688 31.253124Q180.47188 31.753124 181.20625 32.08125Q181.94063 32.39375 182.3625 33.003124Q182.78438 33.596874 182.78438 34.503124Q182.78438 35.378124 182.26875 36.159374Q181.75313 36.940624 180.78438 37.3625Q179.81563 37.784374 178.59688 37.784374Q176.58125 37.784374 175.51875 36.940624Q174.45625 36.096874 174.15938 34.45625ZM194.22188 41.753124Q192.76875 39.925 191.76875 37.471874Q190.76875 35.003124 190.76875 32.3625Q190.76875 30.034374 191.51875 27.909374Q192.39375 25.440624 194.22188 22.9875L195.4875 22.9875Q194.3 25.01875 193.925 25.89375Q193.33125 27.2375 192.9875 28.70625Q192.56563 30.534374 192.56563 32.378124Q192.56563 37.065624 195.4875 41.753124L194.22188 41.753124ZM197.55 38.409374L199.25313 38.659374Q199.3625 39.45625 199.84688 39.815624Q200.50313 40.3 201.64375 40.3Q202.8625 40.3 203.51875 39.815624Q204.19063 39.33125 204.425 38.45625Q204.56563 37.909374 204.55 36.190624Q203.39375 37.55 201.675 37.55Q199.53438 37.55 198.3625 36.003124Q197.19063 34.45625 197.19063 32.3Q197.19063 30.815624 197.72188 29.565624Q198.26875 28.315624 199.28438 27.628124Q200.31563 26.940624 201.69063 26.940624Q203.51875 26.940624 204.72188 28.425L204.72188 27.175L206.33125 27.175L206.33125 36.14375Q206.33125 38.565624 205.83125 39.565624Q205.34688 40.58125 204.26875 41.159374Q203.20625 41.753124 201.64375 41.753124Q199.8 41.753124 198.64375 40.925Q197.50313 40.096874 197.55 38.409374ZM199.00313 32.175Q199.00313 34.221874 199.81563 35.159374Q200.62813 36.096874 201.84688 36.096874Q203.05 36.096874 203.8625 35.159374Q204.69063 34.221874 204.69063 32.2375Q204.69063 30.33125 203.84688 29.3625Q203.00313 28.39375 201.81563 28.39375Q200.64375 28.39375 199.81563 29.346874Q199.00313 30.3 199.00313 32.175ZM208.84688 37.55L208.84688 27.175L210.425 27.175L210.425 28.753124Q211.03438 27.64375 211.55 27.3Q212.06563 26.940624 212.675 26.940624Q213.56563 26.940624 214.4875 27.503124L213.87813 29.14375Q213.2375 28.753124 212.59688 28.753124Q212.01875 28.753124 211.55 29.1125Q211.09688 29.45625 210.89375 30.065624Q210.6125 31.003124 210.6125 32.1125L210.6125 37.55L208.84688 37.55ZM222.97188 34.20625L224.78438 34.440624Q224.3625 36.01875 223.19063 36.909374Q222.03438 37.784374 220.22188 37.784374Q217.95625 37.784374 216.6125 36.39375Q215.28438 34.9875 215.28438 32.45625Q215.28438 29.83125 216.62813 28.39375Q217.97188 26.940624 220.12813 26.940624Q222.20625 26.940624 223.51875 28.3625Q224.84688 29.76875 224.84688 32.346874Q224.84688 32.503124 224.83125 32.815624L217.09688 32.815624Q217.19063 34.51875 218.06563 35.425Q218.94063 36.33125 220.2375 36.33125Q221.20625 36.33125 221.87813 35.83125Q222.56563 35.315624 222.97188 34.20625ZM217.19063 31.3625L222.9875 31.3625Q222.87813 30.065624 222.33125 29.409374Q221.4875 28.39375 220.14375 28.39375Q218.94063 28.39375 218.1125 29.20625Q217.28438 30.003124 217.19063 31.3625ZM233.64375 36.26875Q232.65938 37.096874 231.75313 37.440624Q230.84688 37.784374 229.81563 37.784374Q228.1125 37.784374 227.19063 36.95625Q226.26875 36.1125 226.26875 34.815624Q226.26875 34.05 226.6125 33.425Q226.97188 32.8 227.53438 32.425Q228.09688 32.034374 228.8 31.83125Q229.31563 31.70625 230.3625 31.565624Q232.4875 31.315624 233.4875 30.971874Q233.50313 30.6125 233.50313 30.503124Q233.50313 29.440624 233.00313 28.9875Q232.33125 28.39375 231.00313 28.39375Q229.75313 28.39375 229.15938 28.83125Q228.58125 29.26875 228.3 30.378124L226.58125 30.14375Q226.81563 29.034374 227.34688 28.3625Q227.87813 27.675 228.89375 27.315624Q229.90938 26.940624 231.25313 26.940624Q232.58125 26.940624 233.40938 27.253124Q234.2375 27.565624 234.62813 28.05Q235.01875 28.51875 235.175 29.2375Q235.26875 29.690624 235.26875 30.8625L235.26875 33.20625Q235.26875 35.659374 235.37813 36.315624Q235.4875 36.95625 235.83125 37.55L233.9875 37.55Q233.72188 37.003124 233.64375 36.26875ZM233.4875 32.346874Q232.53438 32.7375 230.6125 33.003124Q229.53438 33.159374 229.08125 33.3625Q228.64375 33.55 228.39375 33.925Q228.14375 34.3 228.14375 34.76875Q228.14375 35.471874 228.675 35.940624Q229.20625 36.409374 230.2375 36.409374Q231.25313 36.409374 232.03438 35.971874Q232.83125 35.51875 233.20625 34.753124Q233.4875 34.14375 233.4875 32.9875L233.4875 32.346874ZM241.70625 35.971874L241.95625 37.534374Q241.22188 37.690624 240.62813 37.690624Q239.675 37.690624 239.14375 37.39375Q238.62813 37.08125 238.40938 36.596874Q238.19063 36.096874 238.19063 34.51875L238.19063 28.55L236.90938 28.55L236.90938 27.175L238.19063 27.175L238.19063 24.6125L239.94063 23.55L239.94063 27.175L241.70625 27.175L241.70625 28.55L239.94063 28.55L239.94063 34.6125Q239.94063 35.3625 240.03438 35.58125Q240.12813 35.784374 240.33125 35.925Q240.55 36.05 240.94063 36.05Q241.22188 36.05 241.70625 35.971874ZM250.97188 34.20625L252.78438 34.440624Q252.3625 36.01875 251.19063 36.909374Q250.03438 37.784374 248.22188 37.784374Q245.95625 37.784374 244.6125 36.39375Q243.28438 34.9875 243.28438 32.45625Q243.28438 29.83125 244.62813 28.39375Q245.97188 26.940624 248.12813 26.940624Q250.20625 26.940624 251.51875 28.3625Q252.84688 29.76875 252.84688 32.346874Q252.84688 32.503124 252.83125 32.815624L245.09688 32.815624Q245.19063 34.51875 246.06563 35.425Q246.94063 36.33125 248.2375 36.33125Q249.20625 36.33125 249.87813 35.83125Q250.56563 35.315624 250.97188 34.20625ZM245.19063 31.3625L250.9875 31.3625Q250.87813 30.065624 250.33125 29.409374Q249.4875 28.39375 248.14375 28.39375Q246.94063 28.39375 246.1125 29.20625Q245.28438 30.003124 245.19063 31.3625ZM254.84688 37.55L254.84688 27.175L256.425 27.175L256.425 28.753124Q257.03436 27.64375 257.55 27.3Q258.0656 26.940624 258.675 26.940624Q259.5656 26.940624 260.4875 27.503124L259.8781 29.14375Q259.2375 28.753124 258.59686 28.753124Q258.01874 28.753124 257.55 29.1125Q257.09686 29.45625 256.89374 30.065624Q256.6125 31.003124 256.6125 32.1125L256.6125 37.55L254.84688 37.55ZM261.1906 33.253124L261.1906 31.4875L266.58124 31.4875L266.58124 33.253124L261.1906 33.253124ZM270.4875 37.55L268.8625 37.55L268.8625 23.2375L270.6125 23.2375L270.6125 28.346874Q271.7375 26.940624 273.45624 26.940624Q274.40936 26.940624 275.26874 27.33125Q276.1281 27.721874 276.675 28.425Q277.22186 29.1125 277.53436 30.096874Q277.84686 31.08125 277.84686 32.20625Q277.84686 34.878124 276.53436 36.33125Q275.22186 37.784374 273.3781 37.784374Q271.53436 37.784374 270.4875 36.253124L270.4875 37.55ZM270.47186 32.284374Q270.47186 34.14375 270.97186 34.9875Q271.8156 36.33125 273.22186 36.33125Q274.3781 36.33125 275.20624 35.33125Q276.05 34.33125 276.05 32.346874Q276.05 30.315624 275.2375 29.3625Q274.4406 28.39375 273.3 28.39375Q272.14374 28.39375 271.3 29.39375Q270.47186 30.39375 270.47186 32.284374ZM286.97186 34.20625L288.78436 34.440624Q288.3625 36.01875 287.1906 36.909374Q286.03436 37.784374 284.22186 37.784374Q281.95624 37.784374 280.6125 36.39375Q279.28436 34.9875 279.28436 32.45625Q279.28436 29.83125 280.6281 28.39375Q281.97186 26.940624 284.1281 26.940624Q286.20624 26.940624 287.51874 28.3625Q288.84686 29.76875 288.84686 32.346874Q288.84686 32.503124 288.83124 32.815624L281.09686 32.815624Q281.1906 34.51875 282.0656 35.425Q282.9406 36.33125 284.2375 36.33125Q285.20624 36.33125 285.8781 35.83125Q286.5656 35.315624 286.97186 34.20625ZM281.1906 31.3625L286.9875 31.3625Q286.8781 30.065624 286.33124 29.409374Q285.4875 28.39375 284.14374 28.39375Q282.9406 28.39375 282.1125 29.20625Q281.28436 30.003124 281.1906 31.3625ZM294.70624 35.971874L294.95624 37.534374Q294.22186 37.690624 293.6281 37.690624Q292.675 37.690624 292.14374 37.39375Q291.6281 37.08125 291.40936 36.596874Q291.1906 36.096874 291.1906 34.51875L291.1906 28.55L289.90936 28.55L289.90936 27.175L291.1906 27.175L291.1906 24.6125L292.9406 23.55L292.9406 27.175L294.70624 27.175L294.70624 28.55L292.9406 28.55L292.9406 34.6125Q292.9406 35.3625 293.03436 35.58125Q293.1281 35.784374 293.33124 35.925Q293.55 36.05 293.9406 36.05Q294.22186 36.05 294.70624 35.971874ZM300.70624 35.971874L300.95624 37.534374Q300.22186 37.690624 299.6281 37.690624Q298.675 37.690624 298.14374 37.39375Q297.6281 37.08125 297.40936 36.596874Q297.1906 36.096874 297.1906 34.51875L297.1906 28.55L295.90936 28.55L295.90936 27.175L297.1906 27.175L297.1906 24.6125L298.9406 23.55L298.9406 27.175L300.70624 27.175L300.70624 28.55L298.9406 28.55L298.9406 34.6125Q298.9406 35.3625 299.03436 35.58125Q299.1281 35.784374 299.33124 35.925Q299.55 36.05 299.9406 36.05Q300.22186 36.05 300.70624 35.971874ZM309.97186 34.20625L311.78436 34.440624Q311.3625 36.01875 310.1906 36.909374Q309.03436 37.784374 307.22186 37.784374Q304.95624 37.784374 303.6125 36.39375Q302.28436 34.9875 302.28436 32.45625Q302.28436 29.83125 303.6281 28.39375Q304.97186 26.940624 307.1281 26.940624Q309.20624 26.940624 310.51874 28.3625Q311.84686 29.76875 311.84686 32.346874Q311.84686 32.503124 311.83124 32.815624L304.09686 32.815624Q304.1906 34.51875 305.0656 35.425Q305.9406 36.33125 307.2375 36.33125Q308.20624 36.33125 308.8781 35.83125Q309.5656 35.315624 309.97186 34.20625ZM304.1906 31.3625L309.9875 31.3625Q309.8781 30.065624 309.33124 29.409374Q308.4875 28.39375 307.14374 28.39375Q305.9406 28.39375 305.1125 29.20625Q304.28436 30.003124 304.1906 31.3625ZM313.84686 37.55L313.84686 27.175L315.425 27.175L315.425 28.753124Q316.03436 27.64375 316.55 27.3Q317.0656 26.940624 317.675 26.940624Q318.5656 26.940624 319.4875 27.503124L318.8781 29.14375Q318.2375 28.753124 317.59686 28.753124Q317.01874 28.753124 316.55 29.1125Q316.09686 29.45625 315.89374 30.065624Q315.6125 31.003124 315.6125 32.1125L315.6125 37.55L313.84686 37.55ZM322.01874 41.753124L320.76874 41.753124Q323.675 37.065624 323.675 32.378124Q323.675 30.534374 323.26874 28.7375Q322.925 27.26875 322.33124 25.925Q321.95624 25.034374 320.76874 22.9875L322.01874 22.9875Q323.8625 25.440624 324.7375 27.909374Q325.4875 30.034374 325.4875 32.3625Q325.4875 35.003124 324.47186 37.471874Q323.47186 39.925 322.01874 41.753124Z" fill-rule="nonzero"/></svg>