<svg version="1.1" viewBox="0.0 0.0 600.0 371.0" fill="none" stroke="none" stroke-linecap="square" stroke-miterlimit="10" width="600" height="371" xmlns:xlink="http://www.w3.org/1999/xlink" xmlns="http://www.w3.org/2000/svg"><path fill="#ffffff" d="M0 0L600.0 0L600.0 371.0L0 371.0L0 0Z" fill-rule="nonzero"/><path stroke="#333333" stroke-width="1.0" stroke-linecap="butt" d="M86.5 332.5L581.5 332.5" fill-rule="nonzero"/><path stroke="#cccccc" stroke-width="1.0" stroke-linecap="butt" d="M86.5 242.5L581.5 242.5" fill-rule="nonzero"/><path stroke="#cccccc" stroke-width="1.0" stroke-linecap="butt" d="M86.5 152.5L581.5 152.5" fill-rule="nonzero"/><path stroke="#cccccc" stroke-width="1.0" stroke-linecap="butt" d="M86.5 61.5L581.5 61.5" fill-rule="nonzero"/><clipPath id="id_0"><path d="M86.55 61.916668L581.45 61.916668L581.45 332.45L86.55 332.45L86.55 61.916668Z" clip-rule="nonzero"/></clipPath><path stroke="#000000" stroke-width="2.0" stroke-linecap="butt" stroke-opacity="0.0" clip-path="url(#id_0)" d="M298.0 332.0L161.0 332.0L161.0 90.0C161.0 88.89543 161.89543 88.0 163.0 88.0L296.0 88.0C297.10458 88.0 298.0 88.89543 298.0 90.0Z" fill-rule="nonzero"/><path fill="#4285f4" clip-path="url(#id_0)" d="M298.0 332.0L161.0 332.0L161.0 90.0C161.0 88.89543 161.89543 88.0 163.0 88.0L296.0 88.0C297.10458 88.0 298.0 88.89543 298.0 90.0Z" fill-rule="nonzero"/><path stroke="#000000" stroke-width="2.0" stroke-linecap="butt" stroke-opacity="0.0" clip-path="url(#id_0)" d="M508.0 332.0L371.0 332.0L371.0 212.0C371.0 210.89543 371.89542 210.0 373.0 210.0L506.0 210.0C507.10458 210.0 508.0 210.89543 508.0 212.0Z" fill-rule="nonzero"/><path fill="#4285f4" clip-path="url(#id_0)" d="M508.0 332.0L371.0 332.0L371.0 212.0C371.0 210.89543 371.89542 210.0 373.0 210.0L506.0 210.0C507.10458 210.0 508.0 210.89543 508.0 212.0Z" fill-rule="nonzero"/><path stroke="#4285f4" stroke-width="3.0" stroke-linejoin="round" stroke-linecap="round" d="M202.76562 104.77686L201.6875 104.77686L201.6875 97.55811L199.5 98.35499L199.5 97.37061L202.60938 96.19874L202.76562 96.19874L202.76562 104.77686ZM207.78125 99.97999L208.59375 99.97999Q209.375 99.96436 209.8125 99.57374Q210.25 99.18311 210.25 98.51124Q210.25 97.01124 208.75 97.01124Q208.04688 97.01124 207.625 97.41749Q207.21875 97.82374 207.21875 98.47999L206.125 98.47999Q206.125 97.46436 206.85938 96.79249Q207.60938 96.12061 208.75 96.12061Q209.95312 96.12061 210.64062 96.76124Q211.32812 97.40186 211.32812 98.54249Q211.32812 99.10499 210.96875 99.62061Q210.60938 100.13624 209.98438 100.40186Q210.6875 100.62061 211.0625 101.13624Q211.45312 101.65186 211.45312 102.40186Q211.45312 103.54249 210.70312 104.22999Q209.95312 104.90186 208.75 104.90186Q207.5625 104.90186 206.79688 104.24561Q206.04688 103.58936 206.04688 102.52686L207.14062 102.52686Q207.14062 103.19874 207.57812 103.60499Q208.01562 104.01124 208.76562 104.01124Q209.54688 104.01124 209.95312 103.60499Q210.375 103.18311 210.375 102.41749Q210.375 101.68311 209.92188 101.29249Q209.46875 100.88624 208.59375 100.87061L207.78125 100.87061L207.78125 99.97999ZM213.70312 100.49561L214.14062 96.24561L218.51562 96.24561L218.51562 97.24561L215.0625 97.24561L214.79688 99.57374Q215.4375 99.19874 216.23438 99.19874Q217.39062 99.19874 218.07812 99.97999Q218.76562 100.74561 218.76562 102.05811Q218.76562 103.37061 218.04688 104.13624Q217.34375 104.90186 216.0625 104.90186Q214.9375 104.90186 214.21875 104.27686Q213.5 103.63624 213.40625 102.52686L214.42188 102.52686Q214.53125 103.26124 214.95312 103.63624Q215.375 104.01124 216.0625 104.01124Q216.8125 104.01124 217.25 103.49561Q217.6875 102.97999 217.6875 102.07374Q217.6875 101.21436 217.21875 100.69874Q216.75 100.18311 215.96875 100.18311Q215.26562 100.18311 214.85938 100.47999L214.57812 100.71436L213.70312 100.49561ZM220.28125 106.47999L219.67188 106.05811Q220.21875 105.29249 220.25 104.46436L220.25 103.49561L221.3125 103.49561L221.3125 104.33936Q221.3125 104.93311 221.01562 105.52686Q220.71875 106.12061 220.28125 106.47999ZM222.70312 100.49561L223.14062 96.24561L227.51562 96.24561L227.51562 97.24561L224.0625 97.24561L223.79688 99.57374Q224.4375 99.19874 225.23438 99.19874Q226.39062 99.19874 227.07812 99.97999Q227.76562 100.74561 227.76562 102.05811Q227.76562 103.37061 227.04688 104.13624Q226.34375 104.90186 225.0625 104.90186Q223.9375 104.90186 223.21875 104.27686Q222.5 103.63624 222.40625 102.52686L223.42188 102.52686Q223.53125 103.26124 223.95312 103.63624Q224.375 104.01124 225.0625 104.01124Q225.8125 104.01124 226.25 103.49561Q226.6875 102.97999 226.6875 102.07374Q226.6875 101.21436 226.21875 100.69874Q225.75 100.18311 224.96875 100.18311Q224.26562 100.18311 223.85938 100.47999L223.57812 100.71436L222.70312 100.49561ZM229.70312 100.49561L230.14062 96.24561L234.51562 96.24561L234.51562 97.24561L231.0625 97.24561L230.79688 99.57374Q231.4375 99.19874 232.23438 99.19874Q233.39062 99.19874 234.07812 99.97999Q234.76562 100.74561 234.76562 102.05811Q234.76562 103.37061 234.04688 104.13624Q233.34375 104.90186 232.0625 104.90186Q230.9375 104.90186 230.21875 104.27686Q229.5 103.63624 229.40625 102.52686L230.42188 102.52686Q230.53125 103.26124 230.95312 103.63624Q231.375 104.01124 232.0625 104.01124Q232.8125 104.01124 233.25 103.49561Q233.6875 102.97999 233.6875 102.07374Q233.6875 101.21436 233.21875 100.69874Q232.75 100.18311 231.96875 100.18311Q231.26562 100.18311 230.85938 100.47999L230.57812 100.71436L229.70312 100.49561ZM241.5625 101.13624Q241.5625 103.04249 240.90625 103.97999Q240.26562 104.90186 238.875 104.90186Q237.51562 104.90186 236.85938 103.99561Q236.20312 103.08936 236.17188 101.27686L236.17188 99.83936Q236.17188 97.94874 236.8125 97.04249Q237.46875 96.12061 238.85938 96.12061Q240.23438 96.12061 240.89062 97.01124Q241.54688 97.88624 241.5625 99.72999L241.5625 101.13624ZM240.46875 99.65186Q240.46875 98.27686 240.07812 97.65186Q239.70312 97.01124 238.85938 97.01124Q238.03125 97.01124 237.64062 97.65186Q237.26562 98.27686 237.26562 99.57374L237.26562 101.30811Q237.26562 102.68311 237.65625 103.35499Q238.0625 104.01124 238.875 104.01124Q239.67188 104.01124 240.0625 103.38624Q240.45312 102.76124 240.46875 101.43311L240.46875 99.65186ZM243.34375 104.21436Q243.34375 103.93311 243.5 103.74561Q243.67188 103.55811 244.0 103.55811Q244.34375 103.55811 244.51562 103.74561Q244.6875 103.93311 244.6875 104.21436Q244.6875 104.47999 244.51562 104.66749Q244.34375 104.83936 244.0 104.83936Q243.67188 104.83936 243.5 104.66749Q243.34375 104.47999 243.34375 104.21436ZM250.46875 96.24561L250.46875 97.15186L250.26562 97.15186Q249.0 97.18311 248.25 97.91749Q247.5 98.63624 247.375 99.94874Q248.0625 99.18311 249.21875 99.18311Q250.32812 99.18311 251.0 99.96436Q251.67188 100.74561 251.67188 101.99561Q251.67188 103.30811 250.95312 104.10499Q250.23438 104.90186 249.01562 104.90186Q247.79688 104.90186 247.03125 103.96436Q246.28125 103.01124 246.28125 101.52686L246.28125 101.12061Q246.28125 98.76124 247.28125 97.51124Q248.28125 96.26124 250.26562 96.24561L250.46875 96.24561ZM249.04688 100.08936Q248.48438 100.08936 248.01562 100.41749Q247.54688 100.74561 247.35938 101.26124L247.35938 101.65186Q247.35938 102.71436 247.82812 103.35499Q248.3125 103.99561 249.01562 103.99561Q249.75 103.99561 250.17188 103.46436Q250.59375 102.91749 250.59375 102.04249Q250.59375 101.16749 250.17188 100.63624Q249.75 100.08936 249.04688 100.08936ZM253.70312 100.49561L254.14062 96.24561L258.51562 96.24561L258.51562 97.24561L255.0625 97.24561L254.79688 99.57374Q255.4375 99.19874 256.23438 99.19874Q257.39062 99.19874 258.07812 99.97999Q258.76562 100.74561 258.76562 102.05811Q258.76562 103.37061 258.04688 104.13624Q257.34375 104.90186 256.0625 104.90186Q254.9375 104.90186 254.21875 104.27686Q253.5 103.63624 253.40625 102.52686L254.42188 102.52686Q254.53125 103.26124 254.95312 103.63624Q255.375 104.01124 256.0625 104.01124Q256.8125 104.01124 257.25 103.49561Q257.6875 102.97999 257.6875 102.07374Q257.6875 101.21436 257.21875 100.69874Q256.75 100.18311 255.96875 100.18311Q255.26562 100.18311 254.85938 100.47999L254.57812 100.71436L253.70312 100.49561Z" fill-rule="nonzero"/><path fill="#ffffff" d="M202.76562 104.77686L201.6875 104.77686L201.6875 97.55811L199.5 98.35499L199.5 97.37061L202.60938 96.19874L202.76562 96.19874L202.76562 104.77686ZM207.78125 99.97999L208.59375 99.97999Q209.375 99.96436 209.8125 99.57374Q210.25 99.18311 210.25 98.51124Q210.25 97.01124 208.75 97.01124Q208.04688 97.01124 207.625 97.41749Q207.21875 97.82374 207.21875 98.47999L206.125 98.47999Q206.125 97.46436 206.85938 96.79249Q207.60938 96.12061 208.75 96.12061Q209.95312 96.12061 210.64062 96.76124Q211.32812 97.40186 211.32812 98.54249Q211.32812 99.10499 210.96875 99.62061Q210.60938 100.13624 209.98438 100.40186Q210.6875 100.62061 211.0625 101.13624Q211.45312 101.65186 211.45312 102.40186Q211.45312 103.54249 210.70312 104.22999Q209.95312 104.90186 208.75 104.90186Q207.5625 104.90186 206.79688 104.24561Q206.04688 103.58936 206.04688 102.52686L207.14062 102.52686Q207.14062 103.19874 207.57812 103.60499Q208.01562 104.01124 208.76562 104.01124Q209.54688 104.01124 209.95312 103.60499Q210.375 103.18311 210.375 102.41749Q210.375 101.68311 209.92188 101.29249Q209.46875 100.88624 208.59375 100.87061L207.78125 100.87061L207.78125 99.97999ZM213.70312 100.49561L214.14062 96.24561L218.51562 96.24561L218.51562 97.24561L215.0625 97.24561L214.79688 99.57374Q215.4375 99.19874 216.23438 99.19874Q217.39062 99.19874 218.07812 99.97999Q218.76562 100.74561 218.76562 102.05811Q218.76562 103.37061 218.04688 104.13624Q217.34375 104.90186 216.0625 104.90186Q214.9375 104.90186 214.21875 104.27686Q213.5 103.63624 213.40625 102.52686L214.42188 102.52686Q214.53125 103.26124 214.95312 103.63624Q215.375 104.01124 216.0625 104.01124Q216.8125 104.01124 217.25 103.49561Q217.6875 102.97999 217.6875 102.07374Q217.6875 101.21436 217.21875 100.69874Q216.75 100.18311 215.96875 100.18311Q215.26562 100.18311 214.85938 100.47999L214.57812 100.71436L213.70312 100.49561ZM220.28125 106.47999L219.67188 106.05811Q220.21875 105.29249 220.25 104.46436L220.25 103.49561L221.3125 103.49561L221.3125 104.33936Q221.3125 104.93311 221.01562 105.52686Q220.71875 106.12061 220.28125 106.47999ZM222.70312 100.49561L223.14062 96.24561L227.51562 96.24561L227.51562 97.24561L224.0625 97.24561L223.79688 99.57374Q224.4375 99.19874 225.23438 99.19874Q226.39062 99.19874 227.07812 99.97999Q227.76562 100.74561 227.76562 102.05811Q227.76562 103.37061 227.04688 104.13624Q226.34375 104.90186 225.0625 104.90186Q223.9375 104.90186 223.21875 104.27686Q222.5 103.63624 222.40625 102.52686L223.42188 102.52686Q223.53125 103.26124 223.95312 103.63624Q224.375 104.01124 225.0625 104.01124Q225.8125 104.01124 226.25 103.49561Q226.6875 102.97999 226.6875 102.07374Q226.6875 101.21436 226.21875 100.69874Q225.75 100.18311 224.96875 100.18311Q224.26562 100.18311 223.85938 100.47999L223.57812 100.71436L222.70312 100.49561ZM229.70312 100.49561L230.14062 96.24561L234.51562 96.24561L234.51562 97.24561L231.0625 97.24561L230.79688 99.57374Q231.4375 99.19874 232.23438 99.19874Q233.39062 99.19874 234.07812 99.97999Q234.76562 100.74561 234.76562 102.05811Q234.76562 103.37061 234.04688 104.13624Q233.34375 104.90186 232.0625 104.90186Q230.9375 104.90186 230.21875 104.27686Q229.5 103.63624 229.40625 102.52686L230.42188 102.52686Q230.53125 103.26124 230.95312 103.63624Q231.375 104.01124 232.0625 104.01124Q232.8125 104.01124 233.25 103.49561Q233.6875 102.97999 233.6875 102.07374Q233.6875 101.21436 233.21875 100.69874Q232.75 100.18311 231.96875 100.18311Q231.26562 100.18311 230.85938 100.47999L230.57812 100.71436L229.70312 100.49561ZM241.5625 101.13624Q241.5625 103.04249 240.90625 103.97999Q240.26562 104.90186 238.875 104.90186Q237.51562 104.90186 236.85938 103.99561Q236.20312 103.08936 236.17188 101.27686L236.17188 99.83936Q236.17188 97.94874 236.8125 97.04249Q237.46875 96.12061 238.85938 96.12061Q240.23438 96.12061 240.89062 97.01124Q241.54688 97.88624 241.5625 99.72999L241.5625 101.13624ZM240.46875 99.65186Q240.46875 98.27686 240.07812 97.65186Q239.70312 97.01124 238.85938 97.01124Q238.03125 97.01124 237.64062 97.65186Q237.26562 98.27686 237.26562 99.57374L237.26562 101.30811Q237.26562 102.68311 237.65625 103.35499Q238.0625 104.01124 238.875 104.01124Q239.67188 104.01124 240.0625 103.38624Q240.45312 102.76124 240.46875 101.43311L240.46875 99.65186ZM243.34375 104.21436Q243.34375 103.93311 243.5 103.74561Q243.67188 103.55811 244.0 103.55811Q244.34375 103.55811 244.51562 103.74561Q244.6875 103.93311 244.6875 104.21436Q244.6875 104.47999 244.51562 104.66749Q244.34375 104.83936 244.0 104.83936Q243.67188 104.83936 243.5 104.66749Q243.34375 104.47999 243.34375 104.21436ZM250.46875 96.24561L250.46875 97.15186L250.26562 97.15186Q249.0 97.18311 248.25 97.91749Q247.5 98.63624 247.375 99.94874Q248.0625 99.18311 249.21875 99.18311Q250.32812 99.18311 251.0 99.96436Q251.67188 100.74561 251.67188 101.99561Q251.67188 103.30811 250.95312 104.10499Q250.23438 104.90186 249.01562 104.90186Q247.79688 104.90186 247.03125 103.96436Q246.28125 103.01124 246.28125 101.52686L246.28125 101.12061Q246.28125 98.76124 247.28125 97.51124Q248.28125 96.26124 250.26562 96.24561L250.46875 96.24561ZM249.04688 100.08936Q248.48438 100.08936 248.01562 100.41749Q247.54688 100.74561 247.35938 101.26124L247.35938 101.65186Q247.35938 102.71436 247.82812 103.35499Q248.3125 103.99561 249.01562 103.99561Q249.75 103.99561 250.17188 103.46436Q250.59375 102.91749 250.59375 102.04249Q250.59375 101.16749 250.17188 100.63624Q249.75 100.08936 249.04688 100.08936ZM253.70312 100.49561L254.14062 96.24561L258.51562 96.24561L258.51562 97.24561L255.0625 97.24561L254.79688 99.57374Q255.4375 99.19874 256.23438 99.19874Q257.39062 99.19874 258.07812 99.97999Q258.76562 100.74561 258.76562 102.05811Q258.76562 103.37061 258.04688 104.13624Q257.34375 104.90186 256.0625 104.90186Q254.9375 104.90186 254.21875 104.27686Q253.5 103.63624 253.40625 102.52686L254.42188 102.52686Q254.53125 103.26124 254.95312 103.63624Q255.375 104.01124 256.0625 104.01124Q256.8125 104.01124 257.25 103.49561Q257.6875 102.97999 257.6875 102.07374Q257.6875 101.21436 257.21875 100.69874Q256.75 100.18311 255.96875 100.18311Q255.26562 100.18311 254.85938 100.47999L254.57812 100.71436L253.70312 100.49561Z" fill-rule="nonzero"/><path stroke="#4285f4" stroke-width="3.0" stroke-linejoin="round" stroke-linecap="round" d="M416.96875 218.18942L416.96875 219.09567L416.76562 219.09567Q415.5 219.12692 414.75 219.8613Q414.0 220.58005 413.875 221.89255Q414.5625 221.12692 415.71875 221.12692Q416.82812 221.12692 417.5 221.90817Q418.17188 222.68942 418.17188 223.93942Q418.17188 225.25192 417.45312 226.0488Q416.73438 226.84567 415.51562 226.84567Q414.29688 226.84567 413.53125 225.90817Q412.78125 224.95505 412.78125 223.47067L412.78125 223.06442Q412.78125 220.70505 413.78125 219.45505Q414.78125 218.20505 416.76562 218.18942L416.96875 218.18942ZM415.54688 222.03317Q414.98438 222.03317 414.51562 222.3613Q414.04688 222.68942 413.85938 223.20505L413.85938 223.59567Q413.85938 224.65817 414.32812 225.2988Q414.8125 225.93942 415.51562 225.93942Q416.25 225.93942 416.67188 225.40817Q417.09375 224.8613 417.09375 223.9863Q417.09375 223.1113 416.67188 222.58005Q416.25 222.03317 415.54688 222.03317ZM425.21875 218.7988L421.6875 226.72067L420.54688 226.72067L424.0625 219.08005L419.45312 219.08005L419.45312 218.18942L425.21875 218.18942L425.21875 218.7988ZM426.78125 228.4238L426.17188 228.00192Q426.71875 227.2363 426.75 226.40817L426.75 225.43942L427.8125 225.43942L427.8125 226.28317Q427.8125 226.87692 427.51562 227.47067Q427.21875 228.06442 426.78125 228.4238ZM432.85938 222.97067Q432.53125 223.37692 432.04688 223.62692Q431.57812 223.8613 431.01562 223.8613Q430.28125 223.8613 429.73438 223.50192Q429.1875 223.14255 428.89062 222.4863Q428.59375 221.81442 428.59375 221.01755Q428.59375 220.1738 428.90625 219.4863Q429.23438 218.7988 429.82812 218.43942Q430.4375 218.06442 431.23438 218.06442Q432.5 218.06442 433.21875 219.01755Q433.95312 219.97067 433.95312 221.59567L433.95312 221.90817Q433.95312 224.40817 432.96875 225.5488Q431.98438 226.68942 430.0 226.72067L429.78125 226.72067L429.78125 225.81442L430.01562 225.81442Q431.35938 225.78317 432.07812 225.1113Q432.79688 224.43942 432.85938 222.97067ZM431.1875 222.97067Q431.73438 222.97067 432.1875 222.64255Q432.65625 222.2988 432.875 221.81442L432.875 221.37692Q432.875 220.31442 432.40625 219.64255Q431.9375 218.97067 431.23438 218.97067Q430.51562 218.97067 430.07812 219.51755Q429.65625 220.06442 429.65625 220.97067Q429.65625 221.84567 430.0625 222.40817Q430.48438 222.97067 431.1875 222.97067ZM437.28125 221.9238L438.09375 221.9238Q438.875 221.90817 439.3125 221.51755Q439.75 221.12692 439.75 220.45505Q439.75 218.95505 438.25 218.95505Q437.54688 218.95505 437.125 219.3613Q436.71875 219.76755 436.71875 220.4238L435.625 220.4238Q435.625 219.40817 436.35938 218.7363Q437.10938 218.06442 438.25 218.06442Q439.45312 218.06442 440.14062 218.70505Q440.82812 219.34567 440.82812 220.4863Q440.82812 221.0488 440.46875 221.56442Q440.10938 222.08005 439.48438 222.34567Q440.1875 222.56442 440.5625 223.08005Q440.95312 223.59567 440.95312 224.34567Q440.95312 225.4863 440.20312 226.1738Q439.45312 226.84567 438.25 226.84567Q437.0625 226.84567 436.29688 226.18942Q435.54688 225.53317 435.54688 224.47067L436.64062 224.47067Q436.64062 225.14255 437.07812 225.5488Q437.51562 225.95505 438.26562 225.95505Q439.04688 225.95505 439.45312 225.5488Q439.875 225.12692 439.875 224.3613Q439.875 223.62692 439.42188 223.2363Q438.96875 222.83005 438.09375 222.81442L437.28125 222.81442L437.28125 221.9238ZM448.21875 218.7988L444.6875 226.72067L443.54688 226.72067L447.0625 219.08005L442.45312 219.08005L442.45312 218.18942L448.21875 218.18942L448.21875 218.7988ZM449.84375 226.15817Q449.84375 225.87692 450.0 225.68942Q450.17188 225.50192 450.5 225.50192Q450.84375 225.50192 451.01562 225.68942Q451.1875 225.87692 451.1875 226.15817Q451.1875 226.4238 451.01562 226.6113Q450.84375 226.78317 450.5 226.78317Q450.17188 226.78317 450.0 226.6113Q449.84375 226.4238 449.84375 226.15817ZM456.96875 218.18942L456.96875 219.09567L456.76562 219.09567Q455.5 219.12692 454.75 219.8613Q454.0 220.58005 453.875 221.89255Q454.5625 221.12692 455.71875 221.12692Q456.82812 221.12692 457.5 221.90817Q458.17188 222.68942 458.17188 223.93942Q458.17188 225.25192 457.45312 226.0488Q456.73438 226.84567 455.51562 226.84567Q454.29688 226.84567 453.53125 225.90817Q452.78125 224.95505 452.78125 223.47067L452.78125 223.06442Q452.78125 220.70505 453.78125 219.45505Q454.78125 218.20505 456.76562 218.18942L456.96875 218.18942ZM455.54688 222.03317Q454.98438 222.03317 454.51562 222.3613Q454.04688 222.68942 453.85938 223.20505L453.85938 223.59567Q453.85938 224.65817 454.32812 225.2988Q454.8125 225.93942 455.51562 225.93942Q456.25 225.93942 456.67188 225.40817Q457.09375 224.8613 457.09375 223.9863Q457.09375 223.1113 456.67188 222.58005Q456.25 222.03317 455.54688 222.03317ZM460.20312 222.43942L460.64062 218.18942L465.01562 218.18942L465.01562 219.18942L461.5625 219.18942L461.29688 221.51755Q461.9375 221.14255 462.73438 221.14255Q463.89062 221.14255 464.57812 221.9238Q465.26562 222.68942 465.26562 224.00192Q465.26562 225.31442 464.54688 226.08005Q463.84375 226.84567 462.5625 226.84567Q461.4375 226.84567 460.71875 226.22067Q460.0 225.58005 459.90625 224.47067L460.92188 224.47067Q461.03125 225.20505 461.45312 225.58005Q461.875 225.95505 462.5625 225.95505Q463.3125 225.95505 463.75 225.43942Q464.1875 224.9238 464.1875 224.01755Q464.1875 223.15817 463.71875 222.64255Q463.25 222.12692 462.46875 222.12692Q461.76562 222.12692 461.35938 222.4238L461.07812 222.65817L460.20312 222.43942Z" fill-rule="nonzero"/><path fill="#ffffff" d="M416.96875 218.18942L416.96875 219.09567L416.76562 219.09567Q415.5 219.12692 414.75 219.8613Q414.0 220.58005 413.875 221.89255Q414.5625 221.12692 415.71875 221.12692Q416.82812 221.12692 417.5 221.90817Q418.17188 222.68942 418.17188 223.93942Q418.17188 225.25192 417.45312 226.0488Q416.73438 226.84567 415.51562 226.84567Q414.29688 226.84567 413.53125 225.90817Q412.78125 224.95505 412.78125 223.47067L412.78125 223.06442Q412.78125 220.70505 413.78125 219.45505Q414.78125 218.20505 416.76562 218.18942L416.96875 218.18942ZM415.54688 222.03317Q414.98438 222.03317 414.51562 222.3613Q414.04688 222.68942 413.85938 223.20505L413.85938 223.59567Q413.85938 224.65817 414.32812 225.2988Q414.8125 225.93942 415.51562 225.93942Q416.25 225.93942 416.67188 225.40817Q417.09375 224.8613 417.09375 223.9863Q417.09375 223.1113 416.67188 222.58005Q416.25 222.03317 415.54688 222.03317ZM425.21875 218.7988L421.6875 226.72067L420.54688 226.72067L424.0625 219.08005L419.45312 219.08005L419.45312 218.18942L425.21875 218.18942L425.21875 218.7988ZM426.78125 228.4238L426.17188 228.00192Q426.71875 227.2363 426.75 226.40817L426.75 225.43942L427.8125 225.43942L427.8125 226.28317Q427.8125 226.87692 427.51562 227.47067Q427.21875 228.06442 426.78125 228.4238ZM432.85938 222.97067Q432.53125 223.37692 432.04688 223.62692Q431.57812 223.8613 431.01562 223.8613Q430.28125 223.8613 429.73438 223.50192Q429.1875 223.14255 428.89062 222.4863Q428.59375 221.81442 428.59375 221.01755Q428.59375 220.1738 428.90625 219.4863Q429.23438 218.7988 429.82812 218.43942Q430.4375 218.06442 431.23438 218.06442Q432.5 218.06442 433.21875 219.01755Q433.95312 219.97067 433.95312 221.59567L433.95312 221.90817Q433.95312 224.40817 432.96875 225.5488Q431.98438 226.68942 430.0 226.72067L429.78125 226.72067L429.78125 225.81442L430.01562 225.81442Q431.35938 225.78317 432.07812 225.1113Q432.79688 224.43942 432.85938 222.97067ZM431.1875 222.97067Q431.73438 222.97067 432.1875 222.64255Q432.65625 222.2988 432.875 221.81442L432.875 221.37692Q432.875 220.31442 432.40625 219.64255Q431.9375 218.97067 431.23438 218.97067Q430.51562 218.97067 430.07812 219.51755Q429.65625 220.06442 429.65625 220.97067Q429.65625 221.84567 430.0625 222.40817Q430.48438 222.97067 431.1875 222.97067ZM437.28125 221.9238L438.09375 221.9238Q438.875 221.90817 439.3125 221.51755Q439.75 221.12692 439.75 220.45505Q439.75 218.95505 438.25 218.95505Q437.54688 218.95505 437.125 219.3613Q436.71875 219.76755 436.71875 220.4238L435.625 220.4238Q435.625 219.40817 436.35938 218.7363Q437.10938 218.06442 438.25 218.06442Q439.45312 218.06442 440.14062 218.70505Q440.82812 219.34567 440.82812 220.4863Q440.82812 221.0488 440.46875 221.56442Q440.10938 222.08005 439.48438 222.34567Q440.1875 222.56442 440.5625 223.08005Q440.95312 223.59567 440.95312 224.34567Q440.95312 225.4863 440.20312 226.1738Q439.45312 226.84567 438.25 226.84567Q437.0625 226.84567 436.29688 226.18942Q435.54688 225.53317 435.54688 224.47067L436.64062 224.47067Q436.64062 225.14255 437.07812 225.5488Q437.51562 225.95505 438.26562 225.95505Q439.04688 225.95505 439.45312 225.5488Q439.875 225.12692 439.875 224.3613Q439.875 223.62692 439.42188 223.2363Q438.96875 222.83005 438.09375 222.81442L437.28125 222.81442L437.28125 221.9238ZM448.21875 218.7988L444.6875 226.72067L443.54688 226.72067L447.0625 219.08005L442.45312 219.08005L442.45312 218.18942L448.21875 218.18942L448.21875 218.7988ZM449.84375 226.15817Q449.84375 225.87692 450.0 225.68942Q450.17188 225.50192 450.5 225.50192Q450.84375 225.50192 451.01562 225.68942Q451.1875 225.87692 451.1875 226.15817Q451.1875 226.4238 451.01562 226.6113Q450.84375 226.78317 450.5 226.78317Q450.17188 226.78317 450.0 226.6113Q449.84375 226.4238 449.84375 226.15817ZM456.96875 218.18942L456.96875 219.09567L456.76562 219.09567Q455.5 219.12692 454.75 219.8613Q454.0 220.58005 453.875 221.89255Q454.5625 221.12692 455.71875 221.12692Q456.82812 221.12692 457.5 221.90817Q458.17188 222.68942 458.17188 223.93942Q458.17188 225.25192 457.45312 226.0488Q456.73438 226.84567 455.51562 226.84567Q454.29688 226.84567 453.53125 225.90817Q452.78125 224.95505 452.78125 223.47067L452.78125 223.06442Q452.78125 220.70505 453.78125 219.45505Q454.78125 218.20505 456.76562 218.18942L456.96875 218.18942ZM455.54688 222.03317Q454.98438 222.03317 454.51562 222.3613Q454.04688 222.68942 453.85938 223.20505L453.85938 223.59567Q453.85938 224.65817 454.32812 225.2988Q454.8125 225.93942 455.51562 225.93942Q456.25 225.93942 456.67188 225.40817Q457.09375 224.8613 457.09375 223.9863Q457.09375 223.1113 456.67188 222.58005Q456.25 222.03317 455.54688 222.03317ZM460.20312 222.43942L460.64062 218.18942L465.01562 218.18942L465.01562 219.18942L461.5625 219.18942L461.29688 221.51755Q461.9375 221.14255 462.73438 221.14255Q463.89062 221.14255 464.57812 221.9238Q465.26562 222.68942 465.26562 224.00192Q465.26562 225.31442 464.54688 226.08005Q463.84375 226.84567 462.5625 226.84567Q461.4375 226.84567 460.71875 226.22067Q460.0 225.58005 459.90625 224.47067L460.92188 224.47067Q461.03125 225.20505 461.45312 225.58005Q461.875 225.95505 462.5625 225.95505Q463.3125 225.95505 463.75 225.43942Q464.1875 224.9238 464.1875 224.01755Q464.1875 223.15817 463.71875 222.64255Q463.25 222.12692 462.46875 222.12692Q461.76562 222.12692 461.35938 222.4238L461.07812 222.65817L460.20312 222.43942Z" fill-rule="nonzero"/><path fill="#000000" d="M57.05 332.21564Q57.05 330.6844 57.3625 329.7625Q57.675 328.825 58.284374 328.325Q58.909374 327.825 59.846874 327.825Q60.534374 327.825 61.05 328.10626Q61.58125 328.3875 61.925 328.91876Q62.26875 329.4344 62.45625 330.1844Q62.64375 330.9344 62.64375 332.21564Q62.64375 333.73126 62.33125 334.65314Q62.034374 335.575 61.409374 336.09064Q60.8 336.59064 59.846874 336.59064Q58.6125 336.59064 57.89375 335.7Q57.05 334.6375 57.05 332.21564ZM58.128124 332.21564Q58.128124 334.325 58.628124 335.02814Q59.128124 335.73126 59.846874 335.73126Q60.58125 335.73126 61.065624 335.02814Q61.565624 334.325 61.565624 332.21564Q61.565624 330.09064 61.065624 329.40314Q60.58125 328.7 59.83125 328.7Q59.1125 328.7 58.675 329.3094Q58.128124 330.09064 58.128124 332.21564ZM64.64375 336.45L64.64375 335.2469L65.84688 335.2469L65.84688 336.45L64.64375 336.45ZM67.05 332.21564Q67.05 330.6844 67.3625 329.7625Q67.675 328.825 68.28438 328.325Q68.90938 327.825 69.84688 327.825Q70.53438 327.825 71.05 328.10626Q71.58125 328.3875 71.925 328.91876Q72.26875 329.4344 72.45625 330.1844Q72.64375 330.9344 72.64375 332.21564Q72.64375 333.73126 72.33125 334.65314Q72.03438 335.575 71.40938 336.09064Q70.8 336.59064 69.84688 336.59064Q68.6125 336.59064 67.89375 335.7Q67.05 334.6375 67.05 332.21564ZM68.12813 332.21564Q68.12813 334.325 68.62813 335.02814Q69.12813 335.73126 69.84688 335.73126Q70.58125 335.73126 71.06563 335.02814Q71.56563 334.325 71.56563 332.21564Q71.56563 330.09064 71.06563 329.40314Q70.58125 328.7 69.83125 328.7Q69.1125 328.7 68.675 329.3094Q68.12813 330.09064 68.12813 332.21564ZM74.05 332.21564Q74.05 330.6844 74.3625 329.7625Q74.675 328.825 75.28438 328.325Q75.90938 327.825 76.84688 327.825Q77.53438 327.825 78.05 328.10626Q78.58125 328.3875 78.925 328.91876Q79.26875 329.4344 79.45625 330.1844Q79.64375 330.9344 79.64375 332.21564Q79.64375 333.73126 79.33125 334.65314Q79.03438 335.575 78.40938 336.09064Q77.8 336.59064 76.84688 336.59064Q75.6125 336.59064 74.89375 335.7Q74.05 334.6375 74.05 332.21564ZM75.12813 332.21564Q75.12813 334.325 75.62813 335.02814Q76.12813 335.73126 76.84688 335.73126Q77.58125 335.73126 78.06563 335.02814Q78.56563 334.325 78.56563 332.21564Q78.56563 330.09064 78.06563 329.40314Q77.58125 328.7 76.83125 328.7Q76.1125 328.7 75.675 329.3094Q75.12813 330.09064 75.12813 332.21564Z" fill-rule="nonzero"/><path fill="#000000" d="M26.05 244.02222L27.159374 243.92847Q27.284374 244.74097 27.721874 245.14722Q28.175 245.55347 28.815624 245.55347Q29.565624 245.55347 30.096874 244.97534Q30.628124 244.39722 30.628124 243.45972Q30.628124 242.55347 30.1125 242.03784Q29.6125 241.50659 28.784374 241.50659Q28.284374 241.50659 27.8625 241.74097Q27.45625 241.97534 27.221874 242.33472L26.2375 242.20972L27.065624 237.80347L31.346874 237.80347L31.346874 238.80347L27.909374 238.80347L27.45625 241.11597Q28.221874 240.56909 29.065624 240.56909Q30.190624 240.56909 30.95625 241.35034Q31.7375 242.13159 31.7375 243.36597Q31.7375 244.52222 31.065624 245.38159Q30.2375 246.41284 28.815624 246.41284Q27.64375 246.41284 26.89375 245.75659Q26.159374 245.10034 26.05 244.02222ZM33.05 242.03784Q33.05 240.50659 33.3625 239.58472Q33.675 238.64722 34.284374 238.14722Q34.909374 237.64722 35.846874 237.64722Q36.534374 237.64722 37.05 237.92847Q37.58125 238.20972 37.925 238.74097Q38.26875 239.25659 38.45625 240.00659Q38.64375 240.75659 38.64375 242.03784Q38.64375 243.55347 38.33125 244.47534Q38.034374 245.39722 37.409374 245.91284Q36.8 246.41284 35.846874 246.41284Q34.6125 246.41284 33.89375 245.52222Q33.05 244.45972 33.05 242.03784ZM34.128124 242.03784Q34.128124 244.14722 34.628124 244.85034Q35.128124 245.55347 35.846874 245.55347Q36.58125 245.55347 37.065624 244.85034Q37.565624 244.14722 37.565624 242.03784Q37.565624 239.91284 37.065624 239.22534Q36.58125 238.52222 35.83125 238.52222Q35.1125 238.52222 34.675 239.13159Q34.128124 239.91284 34.128124 242.03784ZM40.6125 246.27222L40.6125 245.06909L41.815624 245.06909L41.815624 246.27222Q41.815624 246.92847 41.58125 247.33472Q41.346874 247.75659 40.846874 247.97534L40.55 247.52222Q40.878124 247.38159 41.034374 247.08472Q41.190624 246.80347 41.221874 246.27222L40.6125 246.27222ZM43.05 242.03784Q43.05 240.50659 43.3625 239.58472Q43.675 238.64722 44.284374 238.14722Q44.909374 237.64722 45.846874 237.64722Q46.534374 237.64722 47.05 237.92847Q47.58125 238.20972 47.925 238.74097Q48.26875 239.25659 48.45625 240.00659Q48.64375 240.75659 48.64375 242.03784Q48.64375 243.55347 48.33125 244.47534Q48.034374 245.39722 47.409374 245.91284Q46.8 246.41284 45.846874 246.41284Q44.6125 246.41284 43.89375 245.52222Q43.05 244.45972 43.05 242.03784ZM44.128124 242.03784Q44.128124 244.14722 44.628124 244.85034Q45.128124 245.55347 45.846874 245.55347Q46.58125 245.55347 47.065624 244.85034Q47.565624 244.14722 47.565624 242.03784Q47.565624 239.91284 47.065624 239.22534Q46.58125 238.52222 45.83125 238.52222Q45.1125 238.52222 44.675 239.13159Q44.128124 239.91284 44.128124 242.03784ZM50.05 242.03784Q50.05 240.50659 50.3625 239.58472Q50.675 238.64722 51.284374 238.14722Q51.909374 237.64722 52.846874 237.64722Q53.534374 237.64722 54.05 237.92847Q54.58125 238.20972 54.925 238.74097Q55.26875 239.25659 55.45625 240.00659Q55.64375 240.75659 55.64375 242.03784Q55.64375 243.55347 55.33125 244.47534Q55.034374 245.39722 54.409374 245.91284Q53.8 246.41284 52.846874 246.41284Q51.6125 246.41284 50.89375 245.52222Q50.05 244.45972 50.05 242.03784ZM51.128124 242.03784Q51.128124 244.14722 51.628124 244.85034Q52.128124 245.55347 52.846874 245.55347Q53.58125 245.55347 54.065624 244.85034Q54.565624 244.14722 54.565624 242.03784Q54.565624 239.91284 54.065624 239.22534Q53.58125 238.52222 52.83125 238.52222Q52.1125 238.52222 51.675 239.13159Q51.128124 239.91284 51.128124 242.03784ZM57.05 242.03784Q57.05 240.50659 57.3625 239.58472Q57.675 238.64722 58.284374 238.14722Q58.909374 237.64722 59.846874 237.64722Q60.534374 237.64722 61.05 237.92847Q61.58125 238.20972 61.925 238.74097Q62.26875 239.25659 62.45625 240.00659Q62.64375 240.75659 62.64375 242.03784Q62.64375 243.55347 62.33125 244.47534Q62.034374 245.39722 61.409374 245.91284Q60.8 246.41284 59.846874 246.41284Q58.6125 246.41284 57.89375 245.52222Q57.05 244.45972 57.05 242.03784ZM58.128124 242.03784Q58.128124 244.14722 58.628124 244.85034Q59.128124 245.55347 59.846874 245.55347Q60.58125 245.55347 61.065624 244.85034Q61.565624 244.14722 61.565624 242.03784Q61.565624 239.91284 61.065624 239.22534Q60.58125 238.52222 59.83125 238.52222Q59.1125 238.52222 58.675 239.13159Q58.128124 239.91284 58.128124 242.03784ZM64.64375 246.27222L64.64375 245.06909L65.84688 245.06909L65.84688 246.27222L64.64375 246.27222ZM67.05 242.03784Q67.05 240.50659 67.3625 239.58472Q67.675 238.64722 68.28438 238.14722Q68.90938 237.64722 69.84688 237.64722Q70.53438 237.64722 71.05 237.92847Q71.58125 238.20972 71.925 238.74097Q72.26875 239.25659 72.45625 240.00659Q72.64375 240.75659 72.64375 242.03784Q72.64375 243.55347 72.33125 244.47534Q72.03438 245.39722 71.40938 245.91284Q70.8 246.41284 69.84688 246.41284Q68.6125 246.41284 67.89375 245.52222Q67.05 244.45972 67.05 242.03784ZM68.12813 242.03784Q68.12813 244.14722 68.62813 244.85034Q69.12813 245.55347 69.84688 245.55347Q70.58125 245.55347 71.06563 244.85034Q71.56563 244.14722 71.56563 242.03784Q71.56563 239.91284 71.06563 239.22534Q70.58125 238.52222 69.83125 238.52222Q69.1125 238.52222 68.675 239.13159Q68.12813 239.91284 68.12813 242.03784ZM74.05 242.03784Q74.05 240.50659 74.3625 239.58472Q74.675 238.64722 75.28438 238.14722Q75.90938 237.64722 76.84688 237.64722Q77.53438 237.64722 78.05 237.92847Q78.58125 238.20972 78.925 238.74097Q79.26875 239.25659 79.45625 240.00659Q79.64375 240.75659 79.64375 242.03784Q79.64375 243.55347 79.33125 244.47534Q79.03438 245.39722 78.40938 245.91284Q77.8 246.41284 76.84688 246.41284Q75.6125 246.41284 74.89375 245.52222Q74.05 244.45972 74.05 242.03784ZM75.12813 242.03784Q75.12813 244.14722 75.62813 244.85034Q76.12813 245.55347 76.84688 245.55347Q77.58125 245.55347 78.06563 244.85034Q78.56563 244.14722 78.56563 242.03784Q78.56563 239.91284 78.06563 239.22534Q77.58125 238.52222 76.83125 238.52222Q76.1125 238.52222 75.675 239.13159Q75.12813 239.91284 75.12813 242.03784Z" fill-rule="nonzero"/><path fill="#000000" d="M23.01875 156.09445L21.971874 156.09445L21.971874 149.3757Q21.58125 149.73508 20.95625 150.11008Q20.346874 150.46945 19.8625 150.64133L19.8625 149.6257Q20.7375 149.20383 21.39375 148.6257Q22.065624 148.03195 22.346874 147.46945L23.01875 147.46945L23.01875 156.09445ZM26.05 151.86008Q26.05 150.32883 26.3625 149.40695Q26.675 148.46945 27.284374 147.96945Q27.909374 147.46945 28.846874 147.46945Q29.534374 147.46945 30.05 147.7507Q30.58125 148.03195 30.925 148.5632Q31.26875 149.07883 31.45625 149.82883Q31.64375 150.57883 31.64375 151.86008Q31.64375 153.3757 31.33125 154.29758Q31.034374 155.21945 30.409374 155.73508Q29.8 156.23508 28.846874 156.23508Q27.6125 156.23508 26.89375 155.34445Q26.05 154.28195 26.05 151.86008ZM27.128124 151.86008Q27.128124 153.96945 27.628124 154.67258Q28.128124 155.3757 28.846874 155.3757Q29.58125 155.3757 30.065624 154.67258Q30.565624 153.96945 30.565624 151.86008Q30.565624 149.73508 30.065624 149.04758Q29.58125 148.34445 28.83125 148.34445Q28.1125 148.34445 27.675 148.95383Q27.128124 149.73508 27.128124 151.86008ZM33.05 151.86008Q33.05 150.32883 33.3625 149.40695Q33.675 148.46945 34.284374 147.96945Q34.909374 147.46945 35.846874 147.46945Q36.534374 147.46945 37.05 147.7507Q37.58125 148.03195 37.925 148.5632Q38.26875 149.07883 38.45625 149.82883Q38.64375 150.57883 38.64375 151.86008Q38.64375 153.3757 38.33125 154.29758Q38.034374 155.21945 37.409374 155.73508Q36.8 156.23508 35.846874 156.23508Q34.6125 156.23508 33.89375 155.34445Q33.05 154.28195 33.05 151.86008ZM34.128124 151.86008Q34.128124 153.96945 34.628124 154.67258Q35.128124 155.3757 35.846874 155.3757Q36.58125 155.3757 37.065624 154.67258Q37.565624 153.96945 37.565624 151.86008Q37.565624 149.73508 37.065624 149.04758Q36.58125 148.34445 35.83125 148.34445Q35.1125 148.34445 34.675 148.95383Q34.128124 149.73508 34.128124 151.86008ZM40.6125 156.09445L40.6125 154.89133L41.815624 154.89133L41.815624 156.09445Q41.815624 156.7507 41.58125 157.15695Q41.346874 157.57883 40.846874 157.79758L40.55 157.34445Q40.878124 157.20383 41.034374 156.90695Q41.190624 156.6257 41.221874 156.09445L40.6125 156.09445ZM43.05 151.86008Q43.05 150.32883 43.3625 149.40695Q43.675 148.46945 44.284374 147.96945Q44.909374 147.46945 45.846874 147.46945Q46.534374 147.46945 47.05 147.7507Q47.58125 148.03195 47.925 148.5632Q48.26875 149.07883 48.45625 149.82883Q48.64375 150.57883 48.64375 151.86008Q48.64375 153.3757 48.33125 154.29758Q48.034374 155.21945 47.409374 155.73508Q46.8 156.23508 45.846874 156.23508Q44.6125 156.23508 43.89375 155.34445Q43.05 154.28195 43.05 151.86008ZM44.128124 151.86008Q44.128124 153.96945 44.628124 154.67258Q45.128124 155.3757 45.846874 155.3757Q46.58125 155.3757 47.065624 154.67258Q47.565624 153.96945 47.565624 151.86008Q47.565624 149.73508 47.065624 149.04758Q46.58125 148.34445 45.83125 148.34445Q45.1125 148.34445 44.675 148.95383Q44.128124 149.73508 44.128124 151.86008ZM50.05 151.86008Q50.05 150.32883 50.3625 149.40695Q50.675 148.46945 51.284374 147.96945Q51.909374 147.46945 52.846874 147.46945Q53.534374 147.46945 54.05 147.7507Q54.58125 148.03195 54.925 148.5632Q55.26875 149.07883 55.45625 149.82883Q55.64375 150.57883 55.64375 151.86008Q55.64375 153.3757 55.33125 154.29758Q55.034374 155.21945 54.409374 155.73508Q53.8 156.23508 52.846874 156.23508Q51.6125 156.23508 50.89375 155.34445Q50.05 154.28195 50.05 151.86008ZM51.128124 151.86008Q51.128124 153.96945 51.628124 154.67258Q52.128124 155.3757 52.846874 155.3757Q53.58125 155.3757 54.065624 154.67258Q54.565624 153.96945 54.565624 151.86008Q54.565624 149.73508 54.065624 149.04758Q53.58125 148.34445 52.83125 148.34445Q52.1125 148.34445 51.675 148.95383Q51.128124 149.73508 51.128124 151.86008ZM57.05 151.86008Q57.05 150.32883 57.3625 149.40695Q57.675 148.46945 58.284374 147.96945Q58.909374 147.46945 59.846874 147.46945Q60.534374 147.46945 61.05 147.7507Q61.58125 148.03195 61.925 148.5632Q62.26875 149.07883 62.45625 149.82883Q62.64375 150.57883 62.64375 151.86008Q62.64375 153.3757 62.33125 154.29758Q62.034374 155.21945 61.409374 155.73508Q60.8 156.23508 59.846874 156.23508Q58.6125 156.23508 57.89375 155.34445Q57.05 154.28195 57.05 151.86008ZM58.128124 151.86008Q58.128124 153.96945 58.628124 154.67258Q59.128124 155.3757 59.846874 155.3757Q60.58125 155.3757 61.065624 154.67258Q61.565624 153.96945 61.565624 151.86008Q61.565624 149.73508 61.065624 149.04758Q60.58125 148.34445 59.83125 148.34445Q59.1125 148.34445 58.675 148.95383Q58.128124 149.73508 58.128124 151.86008ZM64.64375 156.09445L64.64375 154.89133L65.84688 154.89133L65.84688 156.09445L64.64375 156.09445ZM67.05 151.86008Q67.05 150.32883 67.3625 149.40695Q67.675 148.46945 68.28438 147.96945Q68.90938 147.46945 69.84688 147.46945Q70.53438 147.46945 71.05 147.7507Q71.58125 148.03195 71.925 148.5632Q72.26875 149.07883 72.45625 149.82883Q72.64375 150.57883 72.64375 151.86008Q72.64375 153.3757 72.33125 154.29758Q72.03438 155.21945 71.40938 155.73508Q70.8 156.23508 69.84688 156.23508Q68.6125 156.23508 67.89375 155.34445Q67.05 154.28195 67.05 151.86008ZM68.12813 151.86008Q68.12813 153.96945 68.62813 154.67258Q69.12813 155.3757 69.84688 155.3757Q70.58125 155.3757 71.06563 154.67258Q71.56563 153.96945 71.56563 151.86008Q71.56563 149.73508 71.06563 149.04758Q70.58125 148.34445 69.83125 148.34445Q69.1125 148.34445 68.675 148.95383Q68.12813 149.73508 68.12813 151.86008ZM74.05 151.86008Q74.05 150.32883 74.3625 149.40695Q74.675 148.46945 75.28438 147.96945Q75.90938 147.46945 76.84688 147.46945Q77.53438 147.46945 78.05 147.7507Q78.58125 148.03195 78.925 148.5632Q79.26875 149.07883 79.45625 149.82883Q79.64375 150.57883 79.64375 151.86008Q79.64375 153.3757 79.33125 154.29758Q79.03438 155.21945 78.40938 155.73508Q77.8 156.23508 76.84688 156.23508Q75.6125 156.23508 74.89375 155.34445Q74.05 154.28195 74.05 151.86008ZM75.12813 151.86008Q75.12813 153.96945 75.62813 154.67258Q76.12813 155.3757 76.84688 155.3757Q77.58125 155.3757 78.06563 154.67258Q78.56563 153.96945 78.56563 151.86008Q78.56563 149.73508 78.06563 149.04758Q77.58125 148.34445 76.83125 148.34445Q76.1125 148.34445 75.675 148.95383Q75.12813 149.73508 75.12813 151.86008Z" fill-rule="nonzero"/><path fill="#000000" d="M23.01875 65.916664L21.971874 65.916664L21.971874 59.197914Q21.58125 59.55729 20.95625 59.93229Q20.346874 60.291664 19.8625 60.46354L19.8625 59.447914Q20.7375 59.02604 21.39375 58.447914Q22.065624 57.854164 22.346874 57.291664L23.01875 57.291664L23.01875 65.916664ZM26.05 63.666664L27.159374 63.572914Q27.284374 64.385414 27.721874 64.791664Q28.175 65.197914 28.815624 65.197914Q29.565624 65.197914 30.096874 64.61979Q30.628124 64.041664 30.628124 63.104164Q30.628124 62.197914 30.1125 61.68229Q29.6125 61.15104 28.784374 61.15104Q28.284374 61.15104 27.8625 61.385414Q27.45625 61.61979 27.221874 61.979164L26.2375 61.854164L27.065624 57.447914L31.346874 57.447914L31.346874 58.447914L27.909374 58.447914L27.45625 60.760414Q28.221874 60.21354 29.065624 60.21354Q30.190624 60.21354 30.95625 60.99479Q31.7375 61.77604 31.7375 63.010414Q31.7375 64.166664 31.065624 65.02604Q30.2375 66.05729 28.815624 66.05729Q27.64375 66.05729 26.89375 65.40104Q26.159374 64.74479 26.05 63.666664ZM33.05 61.68229Q33.05 60.15104 33.3625 59.229164Q33.675 58.291664 34.284374 57.791664Q34.909374 57.291664 35.846874 57.291664Q36.534374 57.291664 37.05 57.572914Q37.58125 57.854164 37.925 58.385414Q38.26875 58.90104 38.45625 59.65104Q38.64375 60.40104 38.64375 61.68229Q38.64375 63.197914 38.33125 64.11979Q38.034374 65.041664 37.409374 65.55729Q36.8 66.05729 35.846874 66.05729Q34.6125 66.05729 33.89375 65.166664Q33.05 64.104164 33.05 61.68229ZM34.128124 61.68229Q34.128124 63.791664 34.628124 64.49479Q35.128124 65.197914 35.846874 65.197914Q36.58125 65.197914 37.065624 64.49479Q37.565624 63.791664 37.565624 61.68229Q37.565624 59.55729 37.065624 58.86979Q36.58125 58.166664 35.83125 58.166664Q35.1125 58.166664 34.675 58.77604Q34.128124 59.55729 34.128124 61.68229ZM40.6125 65.916664L40.6125 64.71354L41.815624 64.71354L41.815624 65.916664Q41.815624 66.572914 41.58125 66.979164Q41.346874 67.40104 40.846874 67.61979L40.55 67.166664Q40.878124 67.02604 41.034374 66.729164Q41.190624 66.447914 41.221874 65.916664L40.6125 65.916664ZM43.05 61.68229Q43.05 60.15104 43.3625 59.229164Q43.675 58.291664 44.284374 57.791664Q44.909374 57.291664 45.846874 57.291664Q46.534374 57.291664 47.05 57.572914Q47.58125 57.854164 47.925 58.385414Q48.26875 58.90104 48.45625 59.65104Q48.64375 60.40104 48.64375 61.68229Q48.64375 63.197914 48.33125 64.11979Q48.034374 65.041664 47.409374 65.55729Q46.8 66.05729 45.846874 66.05729Q44.6125 66.05729 43.89375 65.166664Q43.05 64.104164 43.05 61.68229ZM44.128124 61.68229Q44.128124 63.791664 44.628124 64.49479Q45.128124 65.197914 45.846874 65.197914Q46.58125 65.197914 47.065624 64.49479Q47.565624 63.791664 47.565624 61.68229Q47.565624 59.55729 47.065624 58.86979Q46.58125 58.166664 45.83125 58.166664Q45.1125 58.166664 44.675 58.77604Q44.128124 59.55729 44.128124 61.68229ZM50.05 61.68229Q50.05 60.15104 50.3625 59.229164Q50.675 58.291664 51.284374 57.791664Q51.909374 57.291664 52.846874 57.291664Q53.534374 57.291664 54.05 57.572914Q54.58125 57.854164 54.925 58.385414Q55.26875 58.90104 55.45625 59.65104Q55.64375 60.40104 55.64375 61.68229Q55.64375 63.197914 55.33125 64.11979Q55.034374 65.041664 54.409374 65.55729Q53.8 66.05729 52.846874 66.05729Q51.6125 66.05729 50.89375 65.166664Q50.05 64.104164 50.05 61.68229ZM51.128124 61.68229Q51.128124 63.791664 51.628124 64.49479Q52.128124 65.197914 52.846874 65.197914Q53.58125 65.197914 54.065624 64.49479Q54.565624 63.791664 54.565624 61.68229Q54.565624 59.55729 54.065624 58.86979Q53.58125 58.166664 52.83125 58.166664Q52.1125 58.166664 51.675 58.77604Q51.128124 59.55729 51.128124 61.68229ZM57.05 61.68229Q57.05 60.15104 57.3625 59.229164Q57.675 58.291664 58.284374 57.791664Q58.909374 57.291664 59.846874 57.291664Q60.534374 57.291664 61.05 57.572914Q61.58125 57.854164 61.925 58.385414Q62.26875 58.90104 62.45625 59.65104Q62.64375 60.40104 62.64375 61.68229Q62.64375 63.197914 62.33125 64.11979Q62.034374 65.041664 61.409374 65.55729Q60.8 66.05729 59.846874 66.05729Q58.6125 66.05729 57.89375 65.166664Q57.05 64.104164 57.05 61.68229ZM58.128124 61.68229Q58.128124 63.791664 58.628124 64.49479Q59.128124 65.197914 59.846874 65.197914Q60.58125 65.197914 61.065624 64.49479Q61.565624 63.791664 61.565624 61.68229Q61.565624 59.55729 61.065624 58.86979Q60.58125 58.166664 59.83125 58.166664Q59.1125 58.166664 58.675 58.77604Q58.128124 59.55729 58.128124 61.68229ZM64.64375 65.916664L64.64375 64.71354L65.84688 64.71354L65.84688 65.916664L64.64375 65.916664ZM67.05 61.68229Q67.05 60.15104 67.3625 59.229164Q67.675 58.291664 68.28438 57.791664Q68.90938 57.291664 69.84688 57.291664Q70.53438 57.291664 71.05 57.572914Q71.58125 57.854164 71.925 58.385414Q72.26875 58.90104 72.45625 59.65104Q72.64375 60.40104 72.64375 61.68229Q72.64375 63.197914 72.33125 64.11979Q72.03438 65.041664 71.40938 65.55729Q70.8 66.05729 69.84688 66.05729Q68.6125 66.05729 67.89375 65.166664Q67.05 64.104164 67.05 61.68229ZM68.12813 61.68229Q68.12813 63.791664 68.62813 64.49479Q69.12813 65.197914 69.84688 65.197914Q70.58125 65.197914 71.06563 64.49479Q71.56563 63.791664 71.56563 61.68229Q71.56563 59.55729 71.06563 58.86979Q70.58125 58.166664 69.83125 58.166664Q69.1125 58.166664 68.675 58.77604Q68.12813 59.55729 68.12813 61.68229ZM74.05 61.68229Q74.05 60.15104 74.3625 59.229164Q74.675 58.291664 75.28438 57.791664Q75.90938 57.291664 76.84688 57.291664Q77.53438 57.291664 78.05 57.572914Q78.58125 57.854164 78.925 58.385414Q79.26875 58.90104 79.45625 59.65104Q79.64375 60.40104 79.64375 61.68229Q79.64375 63.197914 79.33125 64.11979Q79.03438 65.041664 78.40938 65.55729Q77.8 66.05729 76.84688 66.05729Q75.6125 66.05729 74.89375 65.166664Q74.05 64.104164 74.05 61.68229ZM75.12813 61.68229Q75.12813 63.791664 75.62813 64.49479Q76.12813 65.197914 76.84688 65.197914Q77.58125 65.197914 78.06563 64.49479Q78.56563 63.791664 78.56563 61.68229Q78.56563 59.55729 78.06563 58.86979Q77.58125 58.166664 76.83125 58.166664Q76.1125 58.166664 75.675 58.77604Q75.12813 59.55729 75.12813 61.68229Z" fill-rule="nonzero"/><path fill="#000000" d="M168.68651 349.45L171.98338 340.85626L173.20213 340.85626L176.71776 349.45L175.43651 349.45L174.42088 346.84064L170.84276 346.84064L169.88963 349.45L168.68651 349.45ZM171.17088 345.91876L174.07713 345.91876L173.18651 343.54376Q172.76463 342.46564 172.57713 341.7625Q172.40526 342.59064 172.10838 343.40314L171.17088 345.91876ZM176.48338 349.45L176.48338 343.23126L177.43651 343.23126L177.43651 344.16876Q177.79588 343.5125 178.09276 343.3094Q178.40526 343.09064 178.78026 343.09064Q179.31151 343.09064 179.85838 343.41876L179.49901 344.40314Q179.10838 344.16876 178.73338 344.16876Q178.37401 344.16876 178.09276 344.3875Q177.82713 344.59064 177.71776 344.96564Q177.53026 345.52814 177.53026 346.1844L177.53026 349.45L176.48338 349.45ZM182.79588 348.5125L182.95213 349.4344Q182.49901 349.52814 182.15526 349.52814Q181.57713 349.52814 181.26463 349.35626Q180.95213 349.16876 180.81151 348.8719Q180.68651 348.575 180.68651 347.6219L180.68651 344.04376L179.92088 344.04376L179.92088 343.23126L180.68651 343.23126L180.68651 341.6844L181.73338 341.0594L181.73338 343.23126L182.79588 343.23126L182.79588 344.04376L181.73338 344.04376L181.73338 347.6844Q181.73338 348.1375 181.78026 348.2625Q181.84276 348.3875 181.96776 348.46564Q182.09276 348.54376 182.32713 348.54376Q182.51463 348.54376 182.79588 348.5125ZM187.74901 347.45L188.84276 347.575Q188.59276 348.52814 187.88963 349.0594Q187.18651 349.59064 186.10838 349.59064Q184.74901 349.59064 183.93651 348.7469Q183.13963 347.90314 183.13963 346.3875Q183.13963 344.825 183.95213 343.96564Q184.76463 343.09064 186.04588 343.09064Q187.29588 343.09064 188.07713 343.9344Q188.87401 344.77814 188.87401 346.325Q188.87401 346.41876 188.87401 346.60626L184.23338 346.60626Q184.29588 347.6375 184.81151 348.1844Q185.32713 348.71564 186.10838 348.71564Q186.68651 348.71564 187.09276 348.41876Q187.51463 348.10626 187.74901 347.45ZM184.29588 345.7469L187.76463 345.7469Q187.70213 344.95 187.37401 344.5594Q186.85838 343.95 186.06151 343.95Q185.32713 343.95 184.82713 344.4344Q184.34276 344.91876 184.29588 345.7469ZM190.49901 349.45L190.49901 343.23126L191.43651 343.23126L191.43651 344.10626Q191.73338 343.6375 192.21776 343.3719Q192.70213 343.09064 193.32713 343.09064Q194.01463 343.09064 194.45213 343.3719Q194.90526 343.65314 195.07713 344.16876Q195.82713 343.09064 196.99901 343.09064Q197.93651 343.09064 198.42088 343.60626Q198.92088 344.10626 198.92088 345.1844L198.92088 349.45L197.87401 349.45L197.87401 345.52814Q197.87401 344.90314 197.76463 344.6219Q197.67088 344.34064 197.40526 344.16876Q197.13963 343.9969 196.76463 343.9969Q196.10838 343.9969 195.67088 344.4344Q195.24901 344.8719 195.24901 345.84064L195.24901 349.45L194.18651 349.45L194.18651 345.40314Q194.18651 344.7 193.92088 344.35626Q193.67088 343.9969 193.09276 343.9969Q192.63963 343.9969 192.26463 344.23126Q191.88963 344.46564 191.71776 344.91876Q191.54588 345.3719 191.54588 346.21564L191.54588 349.45L190.49901 349.45ZM201.49901 342.075L201.49901 340.85626L202.56151 340.85626L202.56151 342.075L201.49901 342.075ZM201.49901 349.45L201.49901 343.23126L202.56151 343.23126L202.56151 349.45L201.49901 349.45ZM204.07713 347.59064L205.10838 347.4344Q205.20213 348.0594 205.59276 348.3875Q205.99901 348.71564 206.73338 348.71564Q207.45213 348.71564 207.79588 348.4344Q208.15526 348.1375 208.15526 347.73126Q208.15526 347.3719 207.84276 347.16876Q207.62401 347.02814 206.76463 346.8094Q205.60838 346.5125 205.15526 346.3094Q204.71776 346.09064 204.48338 345.71564Q204.24901 345.34064 204.24901 344.8719Q204.24901 344.46564 204.43651 344.10626Q204.62401 343.7469 204.95213 343.5125Q205.20213 343.34064 205.62401 343.21564Q206.04588 343.09064 206.54588 343.09064Q207.26463 343.09064 207.81151 343.3094Q208.37401 343.5125 208.63963 343.8719Q208.90526 344.23126 208.99901 344.825L207.96776 344.96564Q207.90526 344.4969 207.56151 344.23126Q207.23338 343.95 206.60838 343.95Q205.88963 343.95 205.57713 344.2Q205.26463 344.4344 205.26463 344.7625Q205.26463 344.96564 205.38963 345.1219Q205.53026 345.29376 205.79588 345.40314Q205.95213 345.46564 206.73338 345.66876Q207.85838 345.98126 208.29588 346.16876Q208.73338 346.35626 208.98338 346.71564Q209.23338 347.075 209.23338 347.6219Q209.23338 348.15314 208.92088 348.6219Q208.62401 349.075 208.04588 349.34064Q207.46776 349.59064 206.73338 349.59064Q205.51463 349.59064 204.87401 349.09064Q204.24901 348.575 204.07713 347.59064ZM211.62401 349.45L211.62401 340.85626L212.78026 340.85626L217.29588 347.60626L217.29588 340.85626L218.38963 340.85626L218.38963 349.45L217.21776 349.45L212.70213 342.7L212.70213 349.45L211.62401 349.45ZM224.74901 347.45L225.84276 347.575Q225.59276 348.52814 224.88963 349.0594Q224.18651 349.59064 223.10838 349.59064Q221.74901 349.59064 220.93651 348.7469Q220.13963 347.90314 220.13963 346.3875Q220.13963 344.825 220.95213 343.96564Q221.76463 343.09064 223.04588 343.09064Q224.29588 343.09064 225.07713 343.9344Q225.87401 344.77814 225.87401 346.325Q225.87401 346.41876 225.87401 346.60626L221.23338 346.60626Q221.29588 347.6375 221.81151 348.1844Q222.32713 348.71564 223.10838 348.71564Q223.68651 348.71564 224.09276 348.41876Q224.51463 348.10626 224.74901 347.45ZM221.29588 345.7469L224.76463 345.7469Q224.70213 344.95 224.37401 344.5594Q223.85838 343.95 223.06151 343.95Q222.32713 343.95 221.82713 344.4344Q221.34276 344.91876 221.29588 345.7469ZM229.79588 348.5125L229.95213 349.4344Q229.49901 349.52814 229.15526 349.52814Q228.57713 349.52814 228.26463 349.35626Q227.95213 349.16876 227.81151 348.8719Q227.68651 348.575 227.68651 347.6219L227.68651 344.04376L226.92088 344.04376L226.92088 343.23126L227.68651 343.23126L227.68651 341.6844L228.73338 341.0594L228.73338 343.23126L229.79588 343.23126L229.79588 344.04376L228.73338 344.04376L228.73338 347.6844Q228.73338 348.1375 228.78026 348.2625Q228.84276 348.3875 228.96776 348.46564Q229.09276 348.54376 229.32713 348.54376Q229.51463 348.54376 229.79588 348.5125ZM236.76463 346.4344L237.88963 346.73126Q237.53026 348.1219 236.60838 348.85626Q235.68651 349.59064 234.34276 349.59064Q232.95213 349.59064 232.07713 349.02814Q231.20213 348.46564 230.74901 347.40314Q230.29588 346.325 230.29588 345.09064Q230.29588 343.7469 230.81151 342.7469Q231.32713 341.7469 232.26463 341.23126Q233.21776 340.71564 234.35838 340.71564Q235.63963 340.71564 236.51463 341.3719Q237.40526 342.02814 237.74901 343.21564L236.62401 343.48126Q236.32713 342.54376 235.74901 342.1219Q235.18651 341.6844 234.32713 341.6844Q233.34276 341.6844 232.67088 342.16876Q232.01463 342.6375 231.73338 343.4344Q231.46776 344.23126 231.46776 345.09064Q231.46776 346.1844 231.78026 346.9969Q232.10838 347.8094 232.78026 348.21564Q233.45213 348.6219 234.24901 348.6219Q235.20213 348.6219 235.85838 348.075Q236.53026 347.52814 236.76463 346.4344ZM239.10838 346.34064Q239.10838 344.60626 240.06151 343.77814Q240.85838 343.09064 242.01463 343.09064Q243.29588 343.09064 244.10838 343.9344Q244.93651 344.7625 244.93651 346.2469Q244.93651 347.45 244.57713 348.1375Q244.21776 348.825 243.51463 349.21564Q242.82713 349.59064 242.01463 349.59064Q240.71776 349.59064 239.90526 348.7625Q239.10838 347.91876 239.10838 346.34064ZM240.18651 346.34064Q240.18651 347.52814 240.70213 348.1219Q241.23338 348.71564 242.01463 348.71564Q242.81151 348.71564 243.32713 348.1219Q243.84276 347.52814 243.84276 346.3094Q243.84276 345.15314 243.31151 344.5594Q242.79588 343.96564 242.01463 343.96564Q241.23338 343.96564 240.70213 344.5594Q240.18651 345.1375 240.18651 346.34064ZM246.48338 349.45L246.48338 343.23126L247.43651 343.23126L247.43651 344.16876Q247.79588 343.5125 248.09276 343.3094Q248.40526 343.09064 248.78026 343.09064Q249.31151 343.09064 249.85838 343.41876L249.49901 344.40314Q249.10838 344.16876 248.73338 344.16876Q248.37401 344.16876 248.09276 344.3875Q247.82713 344.59064 247.71776 344.96564Q247.53026 345.52814 247.53026 346.1844L247.53026 349.45L246.48338 349.45ZM254.74901 347.45L255.84276 347.575Q255.59276 348.52814 254.88963 349.0594Q254.18651 349.59064 253.10838 349.59064Q251.74901 349.59064 250.93651 348.7469Q250.13963 347.90314 250.13963 346.3875Q250.13963 344.825 250.95213 343.96564Q251.76463 343.09064 253.04588 343.09064Q254.29588 343.09064 255.07713 343.9344Q255.87401 344.77814 255.87401 346.325Q255.87401 346.41876 255.87401 346.60626L251.23338 346.60626Q251.29588 347.6375 251.81151 348.1844Q252.32713 348.71564 253.10838 348.71564Q253.68651 348.71564 254.09276 348.41876Q254.51463 348.10626 254.74901 347.45ZM251.29588 345.7469L254.76463 345.7469Q254.70213 344.95 254.37401 344.5594Q253.85838 343.95 253.06151 343.95Q252.32713 343.95 251.82713 344.4344Q251.34276 344.91876 251.29588 345.7469ZM263.76465 346.4344L264.88965 346.73126Q264.53027 348.1219 263.6084 348.85626Q262.68652 349.59064 261.34277 349.59064Q259.95215 349.59064 259.07715 349.02814Q258.20215 348.46564 257.74902 347.40314Q257.2959 346.325 257.2959 345.09064Q257.2959 343.7469 257.81152 342.7469Q258.32715 341.7469 259.26465 341.23126Q260.21777 340.71564 261.3584 340.71564Q262.63965 340.71564 263.51465 341.3719Q264.40527 342.02814 264.74902 343.21564L263.62402 343.48126Q263.32715 342.54376 262.74902 342.1219Q262.18652 341.6844 261.32715 341.6844Q260.34277 341.6844 259.6709 342.16876Q259.01465 342.6375 258.7334 343.4344Q258.46777 344.23126 258.46777 345.09064Q258.46777 346.1844 258.78027 346.9969Q259.1084 347.8094 259.78027 348.21564Q260.45215 348.6219 261.24902 348.6219Q262.20215 348.6219 262.8584 348.075Q263.53027 347.52814 263.76465 346.4344ZM266.46777 349.45L266.46777 340.85626L267.53027 340.85626L267.53027 349.45L266.46777 349.45ZM269.49902 342.075L269.49902 340.85626L270.56152 340.85626L270.56152 342.075L269.49902 342.075ZM269.49902 349.45L269.49902 343.23126L270.56152 343.23126L270.56152 349.45L269.49902 349.45ZM276.74902 347.45L277.84277 347.575Q277.59277 348.52814 276.88965 349.0594Q276.18652 349.59064 275.1084 349.59064Q273.74902 349.59064 272.93652 348.7469Q272.13965 347.90314 272.13965 346.3875Q272.13965 344.825 272.95215 343.96564Q273.76465 343.09064 275.0459 343.09064Q276.2959 343.09064 277.07715 343.9344Q277.87402 344.77814 277.87402 346.325Q277.87402 346.41876 277.87402 346.60626L273.2334 346.60626Q273.2959 347.6375 273.81152 348.1844Q274.32715 348.71564 275.1084 348.71564Q275.68652 348.71564 276.09277 348.41876Q276.51465 348.10626 276.74902 347.45ZM273.2959 345.7469L276.76465 345.7469Q276.70215 344.95 276.37402 344.5594Q275.8584 343.95 275.06152 343.95Q274.32715 343.95 273.82715 344.4344Q273.34277 344.91876 273.2959 345.7469ZM279.49902 349.45L279.49902 343.23126L280.43652 343.23126L280.43652 344.10626Q281.12402 343.09064 282.4209 343.09064Q282.9834 343.09064 283.45215 343.29376Q283.93652 343.4969 284.1709 343.825Q284.40527 344.15314 284.49902 344.59064Q284.5459 344.8875 284.5459 345.6219L284.5459 349.45L283.49902 349.45L283.49902 345.66876Q283.49902 345.0125 283.37402 344.7Q283.24902 344.3875 282.93652 344.2Q282.62402 343.9969 282.20215 343.9969Q281.53027 343.9969 281.03027 344.4344Q280.5459 344.85626 280.5459 346.04376L280.5459 349.45L279.49902 349.45ZM288.7959 348.5125L288.95215 349.4344Q288.49902 349.52814 288.15527 349.52814Q287.57715 349.52814 287.26465 349.35626Q286.95215 349.16876 286.81152 348.8719Q286.68652 348.575 286.68652 347.6219L286.68652 344.04376L285.9209 344.04376L285.9209 343.23126L286.68652 343.23126L286.68652 341.6844L287.7334 341.0594L287.7334 343.23126L288.7959 343.23126L288.7959 344.04376L287.7334 344.04376L287.7334 347.6844Q287.7334 348.1375 287.78027 348.2625Q287.84277 348.3875 287.96777 348.46564Q288.09277 348.54376 288.32715 348.54376Q288.51465 348.54376 288.7959 348.5125Z" fill-rule="nonzero"/><path fill="#000000" d="M409.21976 349.45L409.21976 340.85626L410.376 340.85626L414.89163 347.60626L414.89163 340.85626L415.98538 340.85626L415.98538 349.45L414.8135 349.45L410.29788 342.7L410.29788 349.45L409.21976 349.45ZM418.1885 349.45L418.1885 340.85626L419.90726 340.85626L421.9385 346.9344Q422.21976 347.79376 422.34476 348.21564Q422.48538 347.7469 422.79788 346.84064L424.86038 340.85626L426.39163 340.85626L426.39163 349.45L425.29788 349.45L425.29788 342.2625L422.79788 349.45L421.76663 349.45L419.28226 342.1375L419.28226 349.45L418.1885 349.45ZM426.84476 346.6844L427.90726 346.59064Q427.98538 347.2469 428.26663 347.65314Q428.54788 348.0594 429.126 348.325Q429.71976 348.575 430.45413 348.575Q431.09476 348.575 431.59476 348.3875Q432.09476 348.1844 432.32913 347.85626Q432.57913 347.5125 432.57913 347.1219Q432.57913 346.71564 432.34476 346.41876Q432.11038 346.10626 431.57913 345.90314Q431.21976 345.7625 430.03226 345.48126Q428.86038 345.2 428.39163 344.95Q427.76663 344.6219 427.46976 344.15314Q427.17288 343.66876 427.17288 343.075Q427.17288 342.4344 427.53226 341.8719Q427.90726 341.29376 428.61038 341.0125Q429.32913 340.71564 430.1885 340.71564Q431.14163 340.71564 431.876 341.02814Q432.61038 341.325 433.001 341.9344Q433.39163 342.52814 433.42288 343.27814L432.32913 343.35626Q432.23538 342.54376 431.71976 342.1375Q431.21976 341.71564 430.23538 341.71564Q429.20413 341.71564 428.73538 342.09064Q428.26663 342.46564 428.26663 342.9969Q428.26663 343.46564 428.59476 343.7625Q428.92288 344.0594 430.29788 344.3719Q431.6885 344.6844 432.20413 344.91876Q432.95413 345.27814 433.3135 345.8094Q433.67288 346.325 433.67288 347.02814Q433.67288 347.71564 433.28226 348.325Q432.89163 348.91876 432.15726 349.2625Q431.42288 349.59064 430.501 349.59064Q429.32913 349.59064 428.53226 349.2625Q427.751 348.91876 427.29788 348.23126Q426.86038 347.54376 426.84476 346.6844ZM435.39163 349.45L435.39163 348.2469L436.59476 348.2469L436.59476 349.45L435.39163 349.45ZM437.28226 349.45L440.57913 340.85626L441.79788 340.85626L445.3135 349.45L444.03226 349.45L443.01663 346.84064L439.4385 346.84064L438.48538 349.45L437.28226 349.45ZM439.76663 345.91876L442.67288 345.91876L441.78226 343.54376Q441.36038 342.46564 441.17288 341.7625Q441.001 342.59064 440.70413 343.40314L439.76663 345.91876ZM445.1885 349.45L445.1885 340.85626L446.90726 340.85626L448.9385 346.9344Q449.21976 347.79376 449.34476 348.21564Q449.48538 347.7469 449.79788 346.84064L451.86038 340.85626L453.39163 340.85626L453.39163 349.45L452.29788 349.45L452.29788 342.2625L449.79788 349.45L448.76663 349.45L446.28226 342.1375L446.28226 349.45L445.1885 349.45ZM460.73538 348.52814Q461.53226 349.075 462.1885 349.325L461.86038 350.1219Q460.9385 349.77814 460.01663 349.0594Q459.0635 349.59064 457.90726 349.59064Q456.73538 349.59064 455.78226 349.02814Q454.84476 348.46564 454.32913 347.45Q453.8135 346.4344 453.8135 345.15314Q453.8135 343.8875 454.32913 342.84064Q454.84476 341.79376 455.79788 341.2469Q456.751 340.7 457.92288 340.7Q459.11038 340.7 460.0635 341.27814Q461.03226 341.84064 461.53226 342.85626Q462.03226 343.8719 462.03226 345.15314Q462.03226 346.21564 461.70413 347.0594Q461.39163 347.90314 460.73538 348.52814ZM458.23538 347.075Q459.21976 347.35626 459.86038 347.90314Q460.86038 346.98126 460.86038 345.15314Q460.86038 344.10626 460.501 343.325Q460.14163 342.54376 459.45413 342.1219Q458.78226 341.6844 457.9385 341.6844Q456.65726 341.6844 455.8135 342.5594Q454.98538 343.41876 454.98538 345.15314Q454.98538 346.825 455.8135 347.73126Q456.64163 348.6219 457.9385 348.6219Q458.54788 348.6219 459.07913 348.3875Q458.54788 348.04376 457.95413 347.90314L458.23538 347.075ZM463.21976 349.45L463.21976 340.85626L466.46976 340.85626Q467.3135 340.85626 467.76663 340.9344Q468.40726 341.04376 468.82913 341.34064Q469.26663 341.6375 469.51663 342.16876Q469.78226 342.7 469.78226 343.34064Q469.78226 344.4344 469.07913 345.2Q468.39163 345.95 466.5635 345.95L464.36038 345.95L464.36038 349.45L463.21976 349.45ZM464.36038 344.95L466.57913 344.95Q467.6885 344.95 468.14163 344.54376Q468.61038 344.1219 468.61038 343.3719Q468.61038 342.84064 468.32913 342.46564Q468.0635 342.075 467.626 341.95Q467.32913 341.8719 466.5635 341.8719L464.36038 341.8719L464.36038 344.95Z" fill-rule="nonzero"/><path fill="#757575" d="M21.45625 32.95625L23.2375 32.8Q23.3625 33.8625 23.815624 34.55Q24.284374 35.2375 25.253124 35.675Q26.2375 36.096874 27.471874 36.096874Q28.55 36.096874 29.378124 35.784374Q30.20625 35.45625 30.6125 34.89375Q31.01875 34.33125 31.01875 33.659374Q31.01875 32.9875 30.628124 32.4875Q30.2375 31.9875 29.346874 31.64375Q28.76875 31.409374 26.784374 30.940624Q24.815624 30.471874 24.034374 30.05Q23.003124 29.51875 22.503124 28.721874Q22.003124 27.925 22.003124 26.940624Q22.003124 25.846874 22.6125 24.909374Q23.221874 23.971874 24.409374 23.4875Q25.596874 22.9875 27.034374 22.9875Q28.628124 22.9875 29.846874 23.503124Q31.065624 24.01875 31.70625 25.01875Q32.3625 26.003124 32.409374 27.26875L30.596874 27.409374Q30.45625 26.05 29.6125 25.3625Q28.76875 24.659374 27.1125 24.659374Q25.39375 24.659374 24.596874 25.3Q23.815624 25.925 23.815624 26.8Q23.815624 27.58125 24.378124 28.08125Q24.925 28.58125 27.2375 29.096874Q29.55 29.6125 30.409374 30.003124Q31.659374 30.58125 32.253124 31.471874Q32.846874 32.346874 32.846874 33.503124Q32.846874 34.64375 32.190624 35.659374Q31.534374 36.675 30.3 37.2375Q29.08125 37.8 27.55 37.8Q25.6125 37.8 24.3 37.2375Q22.9875 36.659374 22.2375 35.51875Q21.4875 34.378124 21.45625 32.95625ZM41.971874 34.20625L43.784374 34.440624Q43.3625 36.01875 42.190624 36.909374Q41.034374 37.784374 39.221874 37.784374Q36.95625 37.784374 35.6125 36.39375Q34.284374 34.9875 34.284374 32.45625Q34.284374 29.83125 35.628124 28.39375Q36.971874 26.940624 39.128124 26.940624Q41.20625 26.940624 42.51875 28.3625Q43.846874 29.76875 43.846874 32.346874Q43.846874 32.503124 43.83125 32.815624L36.096874 32.815624Q36.190624 34.51875 37.065624 35.425Q37.940624 36.33125 39.2375 36.33125Q40.20625 36.33125 40.878124 35.83125Q41.565624 35.315624 41.971874 34.20625ZM36.190624 31.3625L41.9875 31.3625Q41.878124 30.065624 41.33125 29.409374Q40.4875 28.39375 39.14375 28.39375Q37.940624 28.39375 37.1125 29.20625Q36.284374 30.003124 36.190624 31.3625ZM45.8625 37.55L45.8625 27.175L47.45625 27.175L47.45625 28.659374Q48.596874 26.940624 50.753124 26.940624Q51.690624 26.940624 52.471874 27.284374Q53.26875 27.6125 53.659374 28.159374Q54.05 28.70625 54.20625 29.45625Q54.3 29.95625 54.3 31.175L54.3 37.55L52.534374 37.55L52.534374 31.2375Q52.534374 30.159374 52.33125 29.628124Q52.128124 29.096874 51.596874 28.784374Q51.08125 28.471874 50.378124 28.471874Q49.253124 28.471874 48.440624 29.190624Q47.628124 29.89375 47.628124 31.878124L47.628124 37.55L45.8625 37.55ZM62.596874 37.55L62.596874 36.2375Q61.6125 37.784374 59.690624 37.784374Q58.45625 37.784374 57.409374 37.096874Q56.378124 36.409374 55.8 35.190624Q55.2375 33.971874 55.2375 32.378124Q55.2375 30.815624 55.753124 29.55Q56.26875 28.284374 57.3 27.6125Q58.346874 26.940624 59.6125 26.940624Q60.55 26.940624 61.284374 27.346874Q62.01875 27.7375 62.4875 28.3625L62.4875 23.2375L64.22188 23.2375L64.22188 37.55L62.596874 37.55ZM57.034374 32.378124Q57.034374 34.3625 57.878124 35.346874Q58.721874 36.33125 59.8625 36.33125Q61.01875 36.33125 61.815624 35.39375Q62.628124 34.45625 62.628124 32.51875Q62.628124 30.39375 61.8 29.39375Q60.9875 28.39375 59.784374 28.39375Q58.6125 28.39375 57.815624 29.3625Q57.034374 30.315624 57.034374 32.378124ZM66.87813 25.253124L66.87813 23.2375L68.64375 23.2375L68.64375 25.253124L66.87813 25.253124ZM66.87813 37.55L66.87813 27.175L68.64375 27.175L68.64375 37.55L66.87813 37.55ZM70.8625 37.55L70.8625 27.175L72.45625 27.175L72.45625 28.659374Q73.59688 26.940624 75.75313 26.940624Q76.69063 26.940624 77.47188 27.284374Q78.26875 27.6125 78.65938 28.159374Q79.05 28.70625 79.20625 29.45625Q79.3 29.95625 79.3 31.175L79.3 37.55L77.53438 37.55L77.53438 31.2375Q77.53438 30.159374 77.33125 29.628124Q77.12813 29.096874 76.59688 28.784374Q76.08125 28.471874 75.37813 28.471874Q74.25313 28.471874 73.44063 29.190624Q72.62813 29.89375 72.62813 31.878124L72.62813 37.55L70.8625 37.55ZM80.55 38.409374L82.25313 38.659374Q82.3625 39.45625 82.84688 39.815624Q83.50313 40.3 84.64375 40.3Q85.8625 40.3 86.51875 39.815624Q87.19063 39.33125 87.425 38.45625Q87.56563 37.909374 87.55 36.190624Q86.39375 37.55 84.675 37.55Q82.53438 37.55 81.3625 36.003124Q80.19063 34.45625 80.19063 32.3Q80.19063 30.815624 80.72188 29.565624Q81.26875 28.315624 82.28438 27.628124Q83.31563 26.940624 84.69063 26.940624Q86.51875 26.940624 87.72188 28.425L87.72188 27.175L89.33125 27.175L89.33125 36.14375Q89.33125 38.565624 88.83125 39.565624Q88.34688 40.58125 87.26875 41.159374Q86.20625 41.753124 84.64375 41.753124Q82.8 41.753124 81.64375 40.925Q80.50313 40.096874 80.55 38.409374ZM82.00313 32.175Q82.00313 34.221874 82.81563 35.159374Q83.62813 36.096874 84.84688 36.096874Q86.05 36.096874 86.8625 35.159374Q87.69063 34.221874 87.69063 32.2375Q87.69063 30.33125 86.84688 29.3625Q86.00313 28.39375 84.81563 28.39375Q83.64375 28.39375 82.81563 29.346874Q82.00313 30.3 82.00313 32.175ZM97.8625 37.55L97.8625 27.175L99.44063 27.175L99.44063 28.628124Q99.925 27.878124 100.7375 27.409374Q101.55 26.940624 102.58125 26.940624Q103.7375 26.940624 104.47188 27.425Q105.20625 27.89375 105.51875 28.753124Q106.75313 26.940624 108.72188 26.940624Q110.26875 26.940624 111.09688 27.8Q111.925 28.659374 111.925 30.425L111.925 37.55L110.175 37.55L110.175 31.01875Q110.175 29.95625 110.00313 29.503124Q109.83125 29.034374 109.37813 28.753124Q108.94063 28.471874 108.33125 28.471874Q107.2375 28.471874 106.50313 29.20625Q105.78438 29.925 105.78438 31.51875L105.78438 37.55L104.03438 37.55L104.03438 30.815624Q104.03438 29.64375 103.59688 29.065624Q103.175 28.471874 102.19063 28.471874Q101.45625 28.471874 100.81563 28.8625Q100.19063 29.253124 99.90938 30.003124Q99.62813 30.753124 99.62813 32.175L99.62813 37.55L97.8625 37.55ZM113.15938 34.45625L114.90938 34.175Q115.05 35.221874 115.72188 35.784374Q116.39375 36.33125 117.59688 36.33125Q118.8 36.33125 119.37813 35.846874Q119.97188 35.346874 119.97188 34.690624Q119.97188 34.096874 119.45625 33.753124Q119.09688 33.51875 117.65938 33.159374Q115.72188 32.659374 114.97188 32.315624Q114.2375 31.95625 113.84688 31.33125Q113.45625 30.690624 113.45625 29.925Q113.45625 29.2375 113.76875 28.64375Q114.09688 28.05 114.64375 27.659374Q115.05 27.3625 115.75313 27.159374Q116.47188 26.940624 117.28438 26.940624Q118.50313 26.940624 119.425 27.3Q120.34688 27.64375 120.78438 28.253124Q121.22188 28.846874 121.39375 29.846874L119.675 30.08125Q119.55 29.284374 118.9875 28.846874Q118.425 28.39375 117.40938 28.39375Q116.19063 28.39375 115.675 28.8Q115.15938 29.190624 115.15938 29.721874Q115.15938 30.065624 115.37813 30.346874Q115.58125 30.628124 116.05 30.815624Q116.31563 30.909374 117.59688 31.253124Q119.47188 31.753124 120.20625 32.08125Q120.94063 32.39375 121.3625 33.003124Q121.78438 33.596874 121.78438 34.503124Q121.78438 35.378124 121.26875 36.159374Q120.75313 36.940624 119.78438 37.3625Q118.81563 37.784374 117.59688 37.784374Q115.58125 37.784374 114.51875 36.940624Q113.45625 36.096874 113.15938 34.45625ZM123.55 38.409374L125.25313 38.659374Q125.3625 39.45625 125.84688 39.815624Q126.50313 40.3 127.64375 40.3Q128.8625 40.3 129.51875 39.815624Q130.19063 39.33125 130.425 38.45625Q130.56563 37.909374 130.55 36.190624Q129.39375 37.55 127.675 37.55Q125.53438 37.55 124.3625 36.003124Q123.19063 34.45625 123.19063 32.3Q123.19063 30.815624 123.72188 29.565624Q124.26875 28.315624 125.28438 27.628124Q126.31563 26.940624 127.69063 26.940624Q129.51875 26.940624 130.72188 28.425L130.72188 27.175L132.33125 27.175L132.33125 36.14375Q132.33125 38.565624 131.83125 39.565624Q131.34688 40.58125 130.26875 41.159374Q129.20625 41.753124 127.64375 41.753124Q125.8 41.753124 124.64375 40.925Q123.50313 40.096874 123.55 38.409374ZM125.00313 32.175Q125.00313 34.221874 125.81563 35.159374Q126.62813 36.096874 127.84688 36.096874Q129.05 36.096874 129.8625 35.159374Q130.69063 34.221874 130.69063 32.2375Q130.69063 30.33125 129.84688 29.3625Q129.00313 28.39375 127.81563 28.39375Q126.64375 28.39375 125.81563 29.346874Q125.00313 30.3 125.00313 32.175ZM134.15938 34.45625L135.90938 34.175Q136.05 35.221874 136.72188 35.784374Q137.39375 36.33125 138.59688 36.33125Q139.8 36.33125 140.37813 35.846874Q140.97188 35.346874 140.97188 34.690624Q140.97188 34.096874 140.45625 33.753124Q140.09688 33.51875 138.65938 33.159374Q136.72188 32.659374 135.97188 32.315624Q135.2375 31.95625 134.84688 31.33125Q134.45625 30.690624 134.45625 29.925Q134.45625 29.2375 134.76875 28.64375Q135.09688 28.05 135.64375 27.659374Q136.05 27.3625 136.75313 27.159374Q137.47188 26.940624 138.28438 26.940624Q139.50313 26.940624 140.425 27.3Q141.34688 27.64375 141.78438 28.253124Q142.22188 28.846874 142.39375 29.846874L140.675 30.08125Q140.55 29.284374 139.9875 28.846874Q139.425 28.39375 138.40938 28.39375Q137.19063 28.39375 136.675 28.8Q136.15938 29.190624 136.15938 29.721874Q136.15938 30.065624 136.37813 30.346874Q136.58125 30.628124 137.05 30.815624Q137.31563 30.909374 138.59688 31.253124Q140.47188 31.753124 141.20625 32.08125Q141.94063 32.39375 142.3625 33.003124Q142.78438 33.596874 142.78438 34.503124Q142.78438 35.378124 142.26875 36.159374Q141.75313 36.940624 140.78438 37.3625Q139.81563 37.784374 138.59688 37.784374Q136.58125 37.784374 135.51875 36.940624Q134.45625 36.096874 134.15938 34.45625ZM143.55 37.8L147.70625 22.9875L149.1125 22.9875L144.97188 37.8L143.55 37.8ZM150.15938 34.45625L151.90938 34.175Q152.05 35.221874 152.72188 35.784374Q153.39375 36.33125 154.59688 36.33125Q155.8 36.33125 156.37813 35.846874Q156.97188 35.346874 156.97188 34.690624Q156.97188 34.096874 156.45625 33.753124Q156.09688 33.51875 154.65938 33.159374Q152.72188 32.659374 151.97188 32.315624Q151.2375 31.95625 150.84688 31.33125Q150.45625 30.690624 150.45625 29.925Q150.45625 29.2375 150.76875 28.64375Q151.09688 28.05 151.64375 27.659374Q152.05 27.3625 152.75313 27.159374Q153.47188 26.940624 154.28438 26.940624Q155.50313 26.940624 156.425 27.3Q157.34688 27.64375 157.78438 28.253124Q158.22188 28.846874 158.39375 29.846874L156.675 30.08125Q156.55 29.284374 155.9875 28.846874Q155.425 28.39375 154.40938 28.39375Q153.19063 28.39375 152.675 28.8Q152.15938 29.190624 152.15938 29.721874Q152.15938 30.065624 152.37813 30.346874Q152.58125 30.628124 153.05 30.815624Q153.31563 30.909374 154.59688 31.253124Q156.47188 31.753124 157.20625 32.08125Q157.94063 32.39375 158.3625 33.003124Q158.78438 33.596874 158.78438 34.503124Q158.78438 35.378124 158.26875 36.159374Q157.75313 36.940624 156.78438 37.3625Q155.81563 37.784374 154.59688 37.784374Q152.58125 37.784374 151.51875 36.940624Q150.45625 36.096874 150.15938 34.45625ZM170.22188 41.753124Q168.76875 39.925 167.76875 37.471874Q166.76875 35.003124 166.76875 32.3625Q166.76875 30.034374 167.51875 27.909374Q168.39375 25.440624 170.22188 22.9875L171.4875 22.9875Q170.3 25.01875 169.925 25.89375Q169.33125 27.2375 168.9875 28.70625Q168.56563 30.534374 168.56563 32.378124Q168.56563 37.065624 171.4875 41.753124L170.22188 41.753124ZM173.8625 37.55L173.8625 23.2375L175.62813 23.2375L175.62813 28.3625Q176.8625 26.940624 178.7375 26.940624Q179.87813 26.940624 180.72188 27.39375Q181.58125 27.846874 181.94063 28.659374Q182.31563 29.45625 182.31563 30.971874L182.31563 37.55L180.56563 37.55L180.56563 30.971874Q180.56563 29.659374 179.9875 29.065624Q179.40938 28.45625 178.37813 28.45625Q177.59688 28.45625 176.89375 28.8625Q176.20625 29.26875 175.90938 29.971874Q175.62813 30.659374 175.62813 31.878124L175.62813 37.55L173.8625 37.55ZM183.87813 25.253124L183.87813 23.2375L185.64375 23.2375L185.64375 25.253124L183.87813 25.253124ZM183.87813 37.55L183.87813 27.175L185.64375 27.175L185.64375 37.55L183.87813 37.55ZM187.55 38.409374L189.25313 38.659374Q189.3625 39.45625 189.84688 39.815624Q190.50313 40.3 191.64375 40.3Q192.8625 40.3 193.51875 39.815624Q194.19063 39.33125 194.425 38.45625Q194.56563 37.909374 194.55 36.190624Q193.39375 37.55 191.675 37.55Q189.53438 37.55 188.3625 36.003124Q187.19063 34.45625 187.19063 32.3Q187.19063 30.815624 187.72188 29.565624Q188.26875 28.315624 189.28438 27.628124Q190.31563 26.940624 191.69063 26.940624Q193.51875 26.940624 194.72188 28.425L194.72188 27.175L196.33125 27.175L196.33125 36.14375Q196.33125 38.565624 195.83125 39.565624Q195.34688 40.58125 194.26875 41.159374Q193.20625 41.753124 191.64375 41.753124Q189.8 41.753124 188.64375 40.925Q187.50313 40.096874 187.55 38.409374ZM189.00313 32.175Q189.00313 34.221874 189.81563 35.159374Q190.62813 36.096874 191.84688 36.096874Q193.05 36.096874 193.8625 35.159374Q194.69063 34.221874 194.69063 32.2375Q194.69063 30.33125 193.84688 29.3625Q193.00313 28.39375 191.81563 28.39375Q190.64375 28.39375 189.81563 29.346874Q189.00313 30.3 189.00313 32.175ZM198.8625 37.55L198.8625 23.2375L200.62813 23.2375L200.62813 28.3625Q201.8625 26.940624 203.7375 26.940624Q204.87813 26.940624 205.72188 27.39375Q206.58125 27.846874 206.94063 28.659374Q207.31563 29.45625 207.31563 30.971874L207.31563 37.55L205.56563 37.55L205.56563 30.971874Q205.56563 29.659374 204.9875 29.065624Q204.40938 28.45625 203.37813 28.45625Q202.59688 28.45625 201.89375 28.8625Q201.20625 29.26875 200.90938 29.971874Q200.62813 30.659374 200.62813 31.878124L200.62813 37.55L198.8625 37.55ZM215.97188 34.20625L217.78438 34.440624Q217.3625 36.01875 216.19063 36.909374Q215.03438 37.784374 213.22188 37.784374Q210.95625 37.784374 209.6125 36.39375Q208.28438 34.9875 208.28438 32.45625Q208.28438 29.83125 209.62813 28.39375Q210.97188 26.940624 213.12813 26.940624Q215.20625 26.940624 216.51875 28.3625Q217.84688 29.76875 217.84688 32.346874Q217.84688 32.503124 217.83125 32.815624L210.09688 32.815624Q210.19063 34.51875 211.06563 35.425Q211.94063 36.33125 213.2375 36.33125Q214.20625 36.33125 214.87813 35.83125Q215.56563 35.315624 215.97188 34.20625ZM210.19063 31.3625L215.9875 31.3625Q215.87813 30.065624 215.33125 29.409374Q214.4875 28.39375 213.14375 28.39375Q211.94063 28.39375 211.1125 29.20625Q210.28438 30.003124 210.19063 31.3625ZM219.84688 37.55L219.84688 27.175L221.425 27.175L221.425 28.753124Q222.03438 27.64375 222.55 27.3Q223.06563 26.940624 223.675 26.940624Q224.56563 26.940624 225.4875 27.503124L224.87813 29.14375Q224.2375 28.753124 223.59688 28.753124Q223.01875 28.753124 222.55 29.1125Q222.09688 29.45625 221.89375 30.065624Q221.6125 31.003124 221.6125 32.1125L221.6125 37.55L219.84688 37.55ZM226.19063 33.253124L226.19063 31.4875L231.58125 31.4875L231.58125 33.253124L226.19063 33.253124ZM235.4875 37.55L233.8625 37.55L233.8625 23.2375L235.6125 23.2375L235.6125 28.346874Q236.7375 26.940624 238.45625 26.940624Q239.40938 26.940624 240.26875 27.33125Q241.12813 27.721874 241.675 28.425Q242.22188 29.1125 242.53438 30.096874Q242.84688 31.08125 242.84688 32.20625Q242.84688 34.878124 241.53438 36.33125Q240.22188 37.784374 238.37813 37.784374Q236.53438 37.784374 235.4875 36.253124L235.4875 37.55ZM235.47188 32.284374Q235.47188 34.14375 235.97188 34.9875Q236.81563 36.33125 238.22188 36.33125Q239.37813 36.33125 240.20625 35.33125Q241.05 34.33125 241.05 32.346874Q241.05 30.315624 240.2375 29.3625Q239.44063 28.39375 238.3 28.39375Q237.14375 28.39375 236.3 29.39375Q235.47188 30.39375 235.47188 32.284374ZM251.97188 34.20625L253.78438 34.440624Q253.3625 36.01875 252.19063 36.909374Q251.03438 37.784374 249.22188 37.784374Q246.95625 37.784374 245.6125 36.39375Q244.28438 34.9875 244.28438 32.45625Q244.28438 29.83125 245.62813 28.39375Q246.97188 26.940624 249.12813 26.940624Q251.20625 26.940624 252.51875 28.3625Q253.84688 29.76875 253.84688 32.346874Q253.84688 32.503124 253.83125 32.815624L246.09688 32.815624Q246.19063 34.51875 247.06563 35.425Q247.94063 36.33125 249.2375 36.33125Q250.20625 36.33125 250.87813 35.83125Q251.56563 35.315624 251.97188 34.20625ZM246.19063 31.3625L251.9875 31.3625Q251.87813 30.065624 251.33125 29.409374Q250.4875 28.39375 249.14375 28.39375Q247.94063 28.39375 247.1125 29.20625Q246.28438 30.003124 246.19063 31.3625ZM259.70624 35.971874L259.95624 37.534374Q259.22186 37.690624 258.6281 37.690624Q257.675 37.690624 257.14374 37.39375Q256.6281 37.08125 256.40936 36.596874Q256.1906 36.096874 256.1906 34.51875L256.1906 28.55L254.90938 28.55L254.90938 27.175L256.1906 27.175L256.1906 24.6125L257.9406 23.55L257.9406 27.175L259.70624 27.175L259.70624 28.55L257.9406 28.55L257.9406 34.6125Q257.9406 35.3625 258.03436 35.58125Q258.1281 35.784374 258.33124 35.925Q258.55 36.05 258.9406 36.05Q259.22186 36.05 259.70624 35.971874ZM265.70624 35.971874L265.95624 37.534374Q265.22186 37.690624 264.6281 37.690624Q263.675 37.690624 263.14374 37.39375Q262.6281 37.08125 262.40936 36.596874Q262.1906 36.096874 262.1906 34.51875L262.1906 28.55L260.90936 28.55L260.90936 27.175L262.1906 27.175L262.1906 24.6125L263.9406 23.55L263.9406 27.175L265.70624 27.175L265.70624 28.55L263.9406 28.55L263.9406 34.6125Q263.9406 35.3625 264.03436 35.58125Q264.1281 35.784374 264.33124 35.925Q264.55 36.05 264.9406 36.05Q265.22186 36.05 265.70624 35.971874ZM274.97186 34.20625L276.78436 34.440624Q276.3625 36.01875 275.1906 36.909374Q274.03436 37.784374 272.22186 37.784374Q269.95624 37.784374 268.6125 36.39375Q267.28436 34.9875 267.28436 32.45625Q267.28436 29.83125 268.6281 28.39375Q269.97186 26.940624 272.1281 26.940624Q274.20624 26.940624 275.51874 28.3625Q276.84686 29.76875 276.84686 32.346874Q276.84686 32.503124 276.83124 32.815624L269.09686 32.815624Q269.1906 34.51875 270.0656 35.425Q270.9406 36.33125 272.2375 36.33125Q273.20624 36.33125 273.8781 35.83125Q274.5656 35.315624 274.97186 34.20625ZM269.1906 31.3625L274.9875 31.3625Q274.8781 30.065624 274.33124 29.409374Q273.4875 28.39375 272.14374 28.39375Q270.9406 28.39375 270.1125 29.20625Q269.28436 30.003124 269.1906 31.3625ZM278.84686 37.55L278.84686 27.175L280.425 27.175L280.425 28.753124Q281.03436 27.64375 281.55 27.3Q282.0656 26.940624 282.675 26.940624Q283.5656 26.940624 284.4875 27.503124L283.8781 29.14375Q283.2375 28.753124 282.59686 28.753124Q282.01874 28.753124 281.55 29.1125Q281.09686 29.45625 280.89374 30.065624Q280.6125 31.003124 280.6125 32.1125L280.6125 37.55L278.84686 37.55ZM287.01874 41.753124L285.76874 41.753124Q288.675 37.065624 288.675 32.378124Q288.675 30.534374 288.26874 28.7375Q287.925 27.26875 287.33124 25.925Q286.95624 25.034374 285.76874 22.9875L287.01874 22.9875Q288.8625 25.440624 289.7375 27.909374Q290.4875 30.034374 290.4875 32.3625Q290.4875 35.003124 289.47186 37.471874Q288.47186 39.925 287.01874 41.753124Z" fill-rule="nonzero"/></svg>