<svg version="1.1" viewBox="0.0 0.0 600.0 371.0" fill="none" stroke="none" stroke-linecap="square" stroke-miterlimit="10" width="600" height="371" xmlns:xlink="http://www.w3.org/1999/xlink" xmlns="http://www.w3.org/2000/svg"><path fill="#ffffff" d="M0 0L600.0 0L600.0 371.0L0 371.0L0 0Z" fill-rule="nonzero"/><path stroke="#333333" stroke-width="1.0" stroke-linecap="butt" d="M84.5 332.5L581.5 332.5" fill-rule="nonzero"/><path stroke="#cccccc" stroke-width="1.0" stroke-linecap="butt" d="M84.5 242.5L581.5 242.5" fill-rule="nonzero"/><path stroke="#cccccc" stroke-width="1.0" stroke-linecap="butt" d="M84.5 152.5L581.5 152.5" fill-rule="nonzero"/><path stroke="#cccccc" stroke-width="1.0" stroke-linecap="butt" d="M84.5 61.5L581.5 61.5" fill-rule="nonzero"/><clipPath id="id_0"><path d="M84.55 61.916668L581.45 61.916668L581.45 332.45L84.55 332.45L84.55 61.916668Z" clip-rule="nonzero"/></clipPath><path stroke="#000000" stroke-width="2.0" stroke-linecap="butt" stroke-opacity="0.0" clip-path="url(#id_0)" d="M296.0 332.0L159.0 332.0L159.0 91.0C159.0 89.89543 159.89543 89.0 161.0 89.0L294.0 89.0C295.10458 89.0 296.0 89.89543 296.0 91.0Z" fill-rule="nonzero"/><path fill="#4285f4" clip-path="url(#id_0)" d="M296.0 332.0L159.0 332.0L159.0 91.0C159.0 89.89543 159.89543 89.0 161.0 89.0L294.0 89.0C295.10458 89.0 296.0 89.89543 296.0 91.0Z" fill-rule="nonzero"/><path stroke="#000000" stroke-width="2.0" stroke-linecap="butt" stroke-opacity="0.0" clip-path="url(#id_0)" d="M508.0 332.0L371.0 332.0L371.0 214.0C371.0 212.89543 371.89542 212.0 373.0 212.0L506.0 212.0C507.10458 212.0 508.0 212.89543 508.0 214.0Z" fill-rule="nonzero"/><path fill="#4285f4" clip-path="url(#id_0)" d="M508.0 332.0L371.0 332.0L371.0 214.0C371.0 212.89543 371.89542 212.0 373.0 212.0L506.0 212.0C507.10458 212.0 508.0 212.89543 508.0 214.0Z" fill-rule="nonzero"/><path fill="#000000" d="M26.784388 248.63646L26.690638 247.57396Q27.346888 247.49583 27.753138 247.21458Q28.159388 246.93333 28.425013 246.35521Q28.675013 245.76146 28.675013 245.02708Q28.675013 244.38646 28.487513 243.88646Q28.284388 243.38646 27.956263 243.15208Q27.612513 242.90208 27.221888 242.90208Q26.815638 242.90208 26.518763 243.13646Q26.206263 243.37083 26.003138 243.90208Q25.862513 244.26146 25.581263 245.44896Q25.300013 246.62083 25.050013 247.08958Q24.721888 247.71458 24.253138 248.01146Q23.768763 248.30833 23.175013 248.30833Q22.534388 248.30833 21.971888 247.94896Q21.393763 247.57396 21.112513 246.87083Q20.815638 246.15208 20.815638 245.29271Q20.815638 244.33958 21.128138 243.60521Q21.425013 242.87083 22.034388 242.48021Q22.628138 242.08958 23.378138 242.05833L23.456263 243.15208Q22.643763 243.24583 22.237513 243.76146Q21.815638 244.26146 21.815638 245.24583Q21.815638 246.27708 22.190638 246.74583Q22.565638 247.21458 23.096888 247.21458Q23.565638 247.21458 23.862513 246.88646Q24.159388 246.55833 24.471888 245.18333Q24.784388 243.79271 25.018763 243.27708Q25.378138 242.52708 25.909388 242.16771Q26.425013 241.80833 27.128138 241.80833Q27.815638 241.80833 28.425013 242.19896Q29.018763 242.58958 29.362513 243.32396Q29.690638 244.05833 29.690638 244.98021Q29.690638 246.15208 29.362513 246.94896Q29.018763 247.73021 28.331263 248.18333Q27.643763 248.62083 26.784388 248.63646ZM27.550013 236.13646L27.675013 235.04271Q28.628138 235.29271 29.159388 235.99583Q29.690638 236.69896 29.690638 237.77708Q29.690638 239.13646 28.846888 239.94896Q28.003138 240.74583 26.487513 240.74583Q24.925013 240.74583 24.065638 239.93333Q23.190638 239.12083 23.190638 237.83958Q23.190638 236.58958 24.034388 235.80833Q24.878138 235.01146 26.425013 235.01146Q26.518763 235.01146 26.706263 235.01146L26.706263 239.65208Q27.737513 239.58958 28.284388 239.07396Q28.815638 238.55833 28.815638 237.77708Q28.815638 237.19896 28.518763 236.79271Q28.206263 236.37083 27.550013 236.13646ZM25.846888 239.58958L25.846888 236.12083Q25.050013 236.18333 24.659388 236.51146Q24.050013 237.02708 24.050013 237.82396Q24.050013 238.55833 24.534388 239.05833Q25.018763 239.54271 25.846888 239.58958ZM29.550013 233.38646L23.331263 233.38646L23.331263 232.44896L24.206263 232.44896Q23.190638 231.76146 23.190638 230.46458Q23.190638 229.90208 23.393763 229.43333Q23.596888 228.94896 23.925013 228.71458Q24.253138 228.48021 24.690638 228.38646Q24.987513 228.33958 25.721888 228.33958L29.550013 228.33958L29.550013 229.38646L25.768763 229.38646Q25.112513 229.38646 24.800013 229.51146Q24.487513 229.63646 24.300013 229.94896Q24.096888 230.26146 24.096888 230.68333Q24.096888 231.35521 24.534388 231.85521Q24.956263 232.33958 26.143763 232.33958L29.550013 232.33958L29.550013 233.38646ZM29.550013 222.35521L28.768763 222.35521Q29.690638 222.94896 29.690638 224.08958Q29.690638 224.83958 29.284388 225.46458Q28.862513 226.08958 28.128138 226.43333Q27.393763 226.77708 26.440638 226.77708Q25.518763 226.77708 24.753138 226.46458Q23.987513 226.15208 23.596888 225.52708Q23.190638 224.90208 23.190638 224.13646Q23.190638 223.57396 23.425013 223.13646Q23.659388 222.69896 24.034388 222.41771L20.956263 222.41771L20.956263 221.37083L29.550013 221.37083L29.550013 222.35521ZM26.440638 225.68333Q27.643763 225.68333 28.237513 225.18333Q28.815638 224.68333 28.815638 223.99583Q28.815638 223.30833 28.253138 222.82396Q27.690638 222.33958 26.534388 222.33958Q25.253138 222.33958 24.659388 222.83958Q24.065638 223.32396 24.065638 224.04271Q24.065638 224.74583 24.643763 225.21458Q25.206263 225.68333 26.440638 225.68333ZM22.175013 219.38646L20.956263 219.38646L20.956263 218.32396L22.175013 218.32396L22.175013 219.38646ZM29.550013 219.38646L23.331263 219.38646L23.331263 218.32396L29.550013 218.32396L29.550013 219.38646ZM29.550013 216.38646L23.331263 216.38646L23.331263 215.44896L24.206263 215.44896Q23.190638 214.76146 23.190638 213.46458Q23.190638 212.90208 23.393763 212.43333Q23.596888 211.94896 23.925013 211.71458Q24.253138 211.48021 24.690638 211.38646Q24.987513 211.33958 25.721888 211.33958L29.550013 211.33958L29.550013 212.38646L25.768763 212.38646Q25.112513 212.38646 24.800013 212.51146Q24.487513 212.63646 24.300013 212.94896Q24.096888 213.26146 24.096888 213.68333Q24.096888 214.35521 24.534388 214.85521Q24.956263 215.33958 26.143763 215.33958L29.550013 215.33958L29.550013 216.38646ZM30.065638 209.58958L30.221888 208.55833Q30.690638 208.49583 30.909388 208.19896Q31.206263 207.80833 31.206263 207.13646Q31.206263 206.40208 30.909388 206.01146Q30.612513 205.60521 30.096888 205.46458Q29.768763 205.37083 28.737513 205.38646Q29.550013 206.07396 29.550013 207.10521Q29.550013 208.38646 28.628138 209.08958Q27.690638 209.79271 26.409388 209.79271Q25.518763 209.79271 24.768763 209.48021Q24.003138 209.15208 23.596888 208.54271Q23.190638 207.93333 23.190638 207.10521Q23.190638 205.99583 24.081263 205.27708L23.331263 205.27708L23.331263 204.30833L28.706263 204.30833Q30.159388 204.30833 30.768763 204.60521Q31.378138 204.90208 31.721888 205.54271Q32.08126 206.18333 32.08126 207.12083Q32.08126 208.23021 31.581263 208.91771Q31.081263 209.60521 30.065638 209.58958ZM26.331263 208.71458Q27.550013 208.71458 28.112513 208.23021Q28.675013 207.74583 28.675013 207.01146Q28.675013 206.27708 28.112513 205.79271Q27.550013 205.29271 26.362513 205.29271Q25.221888 205.29271 24.643763 205.80833Q24.065638 206.30833 24.065638 207.02708Q24.065638 207.73021 24.643763 208.23021Q25.206263 208.71458 26.331263 208.71458ZM29.550013 199.38646L23.331263 199.38646L23.331263 198.44896L24.206263 198.44896Q23.737513 198.15208 23.471888 197.66771Q23.190638 197.18333 23.190638 196.55833Q23.190638 195.87083 23.471888 195.43333Q23.753138 194.98021 24.268763 194.80833Q23.190638 194.05833 23.190638 192.88646Q23.190638 191.94896 23.706263 191.46458Q24.206263 190.96458 25.284388 190.96458L29.550013 190.96458L29.550013 192.01146L25.628138 192.01146Q25.003138 192.01146 24.721888 192.12083Q24.440638 192.21458 24.268763 192.48021Q24.096888 192.74583 24.096888 193.12083Q24.096888 193.77708 24.534388 194.21458Q24.971888 194.63646 25.940638 194.63646L29.550013 194.63646L29.550013 195.69896L25.503138 195.69896Q24.800013 195.69896 24.456263 195.96458Q24.096888 196.21458 24.096888 196.79271Q24.096888 197.24583 24.331263 197.62083Q24.565638 197.99583 25.018763 198.16771Q25.471888 198.33958 26.315638 198.33958L29.550013 198.33958L29.550013 199.38646ZM27.690638 188.80833L27.534388 187.77708Q28.159388 187.68333 28.487513 187.29271Q28.815638 186.88646 28.815638 186.15208Q28.815638 185.43333 28.534388 185.08958Q28.237513 184.73021 27.831263 184.73021Q27.471888 184.73021 27.268763 185.04271Q27.128138 185.26146 26.909388 186.12083Q26.612513 187.27708 26.409388 187.73021Q26.190638 188.16771 25.815638 188.40208Q25.440638 188.63646 24.971888 188.63646Q24.565638 188.63646 24.206263 188.44896Q23.846888 188.26146 23.612513 187.93333Q23.440638 187.68333 23.315638 187.26146Q23.190638 186.83958 23.190638 186.33958Q23.190638 185.62083 23.409388 185.07396Q23.612513 184.51146 23.971888 184.24583Q24.331263 183.98021 24.925013 183.88646L25.065638 184.91771Q24.596888 184.98021 24.331263 185.32396Q24.050013 185.65208 24.050013 186.27708Q24.050013 186.99583 24.300013 187.30833Q24.534388 187.62083 24.862513 187.62083Q25.065638 187.62083 25.221888 187.49583Q25.393763 187.35521 25.503138 187.08958Q25.565638 186.93333 25.768763 186.15208Q26.081263 185.02708 26.268763 184.58958Q26.456263 184.15208 26.815638 183.90208Q27.175013 183.65208 27.721888 183.65208Q28.253138 183.65208 28.721888 183.96458Q29.175013 184.26146 29.440638 184.83958Q29.690638 185.41771 29.690638 186.15208Q29.690638 187.37083 29.190638 188.01146Q28.675013 188.63646 27.690638 188.80833ZM30.065638 181.58958L30.221888 180.55833Q30.690638 180.49583 30.909388 180.19896Q31.206263 179.80833 31.206263 179.13646Q31.206263 178.40208 30.909388 178.01146Q30.612513 177.60521 30.096888 177.46458Q29.768763 177.37083 28.737513 177.38646Q29.550013 178.07396 29.550013 179.10521Q29.550013 180.38646 28.628138 181.08958Q27.690638 181.79271 26.409388 181.79271Q25.518763 181.79271 24.768763 181.48021Q24.003138 181.15208 23.596888 180.54271Q23.190638 179.93333 23.190638 179.10521Q23.190638 177.99583 24.081263 177.27708L23.331263 177.27708L23.331263 176.30833L28.706263 176.30833Q30.159388 176.30833 30.768763 176.60521Q31.378138 176.90208 31.721888 177.54271Q32.08126 178.18333 32.08126 179.12083Q32.08126 180.23021 31.581263 180.91771Q31.081263 181.60521 30.065638 181.58958ZM26.331263 180.71458Q27.550013 180.71458 28.112513 180.23021Q28.675013 179.74583 28.675013 179.01146Q28.675013 178.27708 28.112513 177.79271Q27.550013 177.29271 26.362513 177.29271Q25.221888 177.29271 24.643763 177.80833Q24.065638 178.30833 24.065638 179.02708Q24.065638 179.73021 24.643763 180.23021Q25.206263 180.71458 26.331263 180.71458ZM27.690638 174.80833L27.534388 173.77708Q28.159388 173.68333 28.487513 173.29271Q28.815638 172.88646 28.815638 172.15208Q28.815638 171.43333 28.534388 171.08958Q28.237513 170.73021 27.831263 170.73021Q27.471888 170.73021 27.268763 171.04271Q27.128138 171.26146 26.909388 172.12083Q26.612513 173.27708 26.409388 173.73021Q26.190638 174.16771 25.815638 174.40208Q25.440638 174.63646 24.971888 174.63646Q24.565638 174.63646 24.206263 174.44896Q23.846888 174.26146 23.612513 173.93333Q23.440638 173.68333 23.315638 173.26146Q23.190638 172.83958 23.190638 172.33958Q23.190638 171.62083 23.409388 171.07396Q23.612513 170.51146 23.971888 170.24583Q24.331263 169.98021 24.925013 169.88646L25.065638 170.91771Q24.596888 170.98021 24.331263 171.32396Q24.050013 171.65208 24.050013 172.27708Q24.050013 172.99583 24.300013 173.30833Q24.534388 173.62083 24.862513 173.62083Q25.065638 173.62083 25.221888 173.49583Q25.393763 173.35521 25.503138 173.08958Q25.565638 172.93333 25.768763 172.15208Q26.081263 171.02708 26.268763 170.58958Q26.456263 170.15208 26.815638 169.90208Q27.175013 169.65208 27.721888 169.65208Q28.253138 169.65208 28.721888 169.96458Q29.175013 170.26146 29.440638 170.83958Q29.690638 171.41771 29.690638 172.15208Q29.690638 173.37083 29.190638 174.01146Q28.675013 174.63646 27.690638 174.80833ZM29.690638 168.18333L20.815638 165.69896L20.815638 164.85521L29.690638 167.33958L29.690638 168.18333ZM27.690638 164.80833L27.534388 163.77708Q28.159388 163.68333 28.487513 163.29271Q28.815638 162.88646 28.815638 162.15208Q28.815638 161.43333 28.534388 161.08958Q28.237513 160.73021 27.831263 160.73021Q27.471888 160.73021 27.268763 161.04271Q27.128138 161.26146 26.909388 162.12083Q26.612513 163.27708 26.409388 163.73021Q26.190638 164.16771 25.815638 164.40208Q25.440638 164.63646 24.971888 164.63646Q24.565638 164.63646 24.206263 164.44896Q23.846888 164.26146 23.612513 163.93333Q23.440638 163.68333 23.315638 163.26146Q23.190638 162.83958 23.190638 162.33958Q23.190638 161.62083 23.409388 161.07396Q23.612513 160.51146 23.971888 160.24583Q24.331263 159.98021 24.925013 159.88646L25.065638 160.91771Q24.596888 160.98021 24.331263 161.32396Q24.050013 161.65208 24.050013 162.27708Q24.050013 162.99583 24.300013 163.30833Q24.534388 163.62083 24.862513 163.62083Q25.065638 163.62083 25.221888 163.49583Q25.393763 163.35521 25.503138 163.08958Q25.565638 162.93333 25.768763 162.15208Q26.081263 161.02708 26.268763 160.58958Q26.456263 160.15208 26.815638 159.90208Q27.175013 159.65208 27.721888 159.65208Q28.253138 159.65208 28.721888 159.96458Q29.175013 160.26146 29.440638 160.83958Q29.690638 161.41771 29.690638 162.15208Q29.690638 163.37083 29.190638 164.01146Q28.675013 164.63646 27.690638 164.80833Z" fill-rule="nonzero"/><path fill="#000000" d="M72.05 332.21564Q72.05 330.6844 72.3625 329.7625Q72.675 328.825 73.28438 328.325Q73.90938 327.825 74.84688 327.825Q75.53438 327.825 76.05 328.10626Q76.58125 328.3875 76.925 328.91876Q77.26875 329.4344 77.45625 330.1844Q77.64375 330.9344 77.64375 332.21564Q77.64375 333.73126 77.33125 334.65314Q77.03438 335.575 76.40938 336.09064Q75.8 336.59064 74.84688 336.59064Q73.6125 336.59064 72.89375 335.7Q72.05 334.6375 72.05 332.21564ZM73.12813 332.21564Q73.12813 334.325 73.62813 335.02814Q74.12813 335.73126 74.84688 335.73126Q75.58125 335.73126 76.06563 335.02814Q76.56563 334.325 76.56563 332.21564Q76.56563 330.09064 76.06563 329.40314Q75.58125 328.7 74.83125 328.7Q74.1125 328.7 73.675 329.3094Q73.12813 330.09064 73.12813 332.21564Z" fill-rule="nonzero"/><path fill="#000000" d="M56.596874 245.25659L56.596874 246.27222L50.909374 246.27222Q50.909374 245.89722 51.034374 245.53784Q51.253124 244.95972 51.721874 244.39722Q52.20625 243.83472 53.1125 243.10034Q54.51875 241.94409 55.003124 241.27222Q55.503124 240.60034 55.503124 240.00659Q55.503124 239.38159 55.05 238.95972Q54.596874 238.52222 53.878124 238.52222Q53.1125 238.52222 52.659374 238.97534Q52.20625 239.42847 52.190624 240.24097L51.1125 240.13159Q51.221874 238.91284 51.940624 238.28784Q52.675 237.64722 53.909374 237.64722Q55.14375 237.64722 55.8625 238.33472Q56.58125 239.02222 56.58125 240.03784Q56.58125 240.55347 56.3625 241.05347Q56.159374 241.53784 55.659374 242.10034Q55.175 242.64722 54.05 243.60034Q53.096874 244.39722 52.815624 244.69409Q52.55 244.97534 52.378124 245.25659L56.596874 245.25659ZM58.05 242.03784Q58.05 240.50659 58.3625 239.58472Q58.675 238.64722 59.284374 238.14722Q59.909374 237.64722 60.846874 237.64722Q61.534374 237.64722 62.05 237.92847Q62.58125 238.20972 62.925 238.74097Q63.26875 239.25659 63.45625 240.00659Q63.64375 240.75659 63.64375 242.03784Q63.64375 243.55347 63.33125 244.47534Q63.034374 245.39722 62.409374 245.91284Q61.8 246.41284 60.846874 246.41284Q59.6125 246.41284 58.89375 245.52222Q58.05 244.45972 58.05 242.03784ZM59.128124 242.03784Q59.128124 244.14722 59.628124 244.85034Q60.128124 245.55347 60.846874 245.55347Q61.58125 245.55347 62.065624 244.85034Q62.565624 244.14722 62.565624 242.03784Q62.565624 239.91284 62.065624 239.22534Q61.58125 238.52222 60.83125 238.52222Q60.1125 238.52222 59.675 239.13159Q59.128124 239.91284 59.128124 242.03784ZM65.05 242.03784Q65.05 240.50659 65.3625 239.58472Q65.675 238.64722 66.28438 238.14722Q66.90938 237.64722 67.84688 237.64722Q68.53438 237.64722 69.05 237.92847Q69.58125 238.20972 69.925 238.74097Q70.26875 239.25659 70.45625 240.00659Q70.64375 240.75659 70.64375 242.03784Q70.64375 243.55347 70.33125 244.47534Q70.03438 245.39722 69.40938 245.91284Q68.8 246.41284 67.84688 246.41284Q66.6125 246.41284 65.89375 245.52222Q65.05 244.45972 65.05 242.03784ZM66.12813 242.03784Q66.12813 244.14722 66.62813 244.85034Q67.12813 245.55347 67.84688 245.55347Q68.58125 245.55347 69.06563 244.85034Q69.56563 244.14722 69.56563 242.03784Q69.56563 239.91284 69.06563 239.22534Q68.58125 238.52222 67.83125 238.52222Q67.1125 238.52222 66.675 239.13159Q66.12813 239.91284 66.12813 242.03784ZM72.05 242.03784Q72.05 240.50659 72.3625 239.58472Q72.675 238.64722 73.28438 238.14722Q73.90938 237.64722 74.84688 237.64722Q75.53438 237.64722 76.05 237.92847Q76.58125 238.20972 76.925 238.74097Q77.26875 239.25659 77.45625 240.00659Q77.64375 240.75659 77.64375 242.03784Q77.64375 243.55347 77.33125 244.47534Q77.03438 245.39722 76.40938 245.91284Q75.8 246.41284 74.84688 246.41284Q73.6125 246.41284 72.89375 245.52222Q72.05 244.45972 72.05 242.03784ZM73.12813 242.03784Q73.12813 244.14722 73.62813 244.85034Q74.12813 245.55347 74.84688 245.55347Q75.58125 245.55347 76.06563 244.85034Q76.56563 244.14722 76.56563 242.03784Q76.56563 239.91284 76.06563 239.22534Q75.58125 238.52222 74.83125 238.52222Q74.1125 238.52222 73.675 239.13159Q73.12813 239.91284 73.12813 242.03784Z" fill-rule="nonzero"/><path fill="#000000" d="M54.425 156.09445L54.425 154.03195L50.70625 154.03195L50.70625 153.0632L54.628124 147.5007L55.4875 147.5007L55.4875 153.0632L56.64375 153.0632L56.64375 154.03195L55.4875 154.03195L55.4875 156.09445L54.425 156.09445ZM54.425 153.0632L54.425 149.20383L51.7375 153.0632L54.425 153.0632ZM58.05 151.86008Q58.05 150.32883 58.3625 149.40695Q58.675 148.46945 59.284374 147.96945Q59.909374 147.46945 60.846874 147.46945Q61.534374 147.46945 62.05 147.7507Q62.58125 148.03195 62.925 148.5632Q63.26875 149.07883 63.45625 149.82883Q63.64375 150.57883 63.64375 151.86008Q63.64375 153.3757 63.33125 154.29758Q63.034374 155.21945 62.409374 155.73508Q61.8 156.23508 60.846874 156.23508Q59.6125 156.23508 58.89375 155.34445Q58.05 154.28195 58.05 151.86008ZM59.128124 151.86008Q59.128124 153.96945 59.628124 154.67258Q60.128124 155.3757 60.846874 155.3757Q61.58125 155.3757 62.065624 154.67258Q62.565624 153.96945 62.565624 151.86008Q62.565624 149.73508 62.065624 149.04758Q61.58125 148.34445 60.83125 148.34445Q60.1125 148.34445 59.675 148.95383Q59.128124 149.73508 59.128124 151.86008ZM65.05 151.86008Q65.05 150.32883 65.3625 149.40695Q65.675 148.46945 66.28438 147.96945Q66.90938 147.46945 67.84688 147.46945Q68.53438 147.46945 69.05 147.7507Q69.58125 148.03195 69.925 148.5632Q70.26875 149.07883 70.45625 149.82883Q70.64375 150.57883 70.64375 151.86008Q70.64375 153.3757 70.33125 154.29758Q70.03438 155.21945 69.40938 155.73508Q68.8 156.23508 67.84688 156.23508Q66.6125 156.23508 65.89375 155.34445Q65.05 154.28195 65.05 151.86008ZM66.12813 151.86008Q66.12813 153.96945 66.62813 154.67258Q67.12813 155.3757 67.84688 155.3757Q68.58125 155.3757 69.06563 154.67258Q69.56563 153.96945 69.56563 151.86008Q69.56563 149.73508 69.06563 149.04758Q68.58125 148.34445 67.83125 148.34445Q67.1125 148.34445 66.675 148.95383Q66.12813 149.73508 66.12813 151.86008ZM72.05 151.86008Q72.05 150.32883 72.3625 149.40695Q72.675 148.46945 73.28438 147.96945Q73.90938 147.46945 74.84688 147.46945Q75.53438 147.46945 76.05 147.7507Q76.58125 148.03195 76.925 148.5632Q77.26875 149.07883 77.45625 149.82883Q77.64375 150.57883 77.64375 151.86008Q77.64375 153.3757 77.33125 154.29758Q77.03438 155.21945 76.40938 155.73508Q75.8 156.23508 74.84688 156.23508Q73.6125 156.23508 72.89375 155.34445Q72.05 154.28195 72.05 151.86008ZM73.12813 151.86008Q73.12813 153.96945 73.62813 154.67258Q74.12813 155.3757 74.84688 155.3757Q75.58125 155.3757 76.06563 154.67258Q76.56563 153.96945 76.56563 151.86008Q76.56563 149.73508 76.06563 149.04758Q75.58125 148.34445 74.83125 148.34445Q74.1125 148.34445 73.675 148.95383Q73.12813 149.73508 73.12813 151.86008Z" fill-rule="nonzero"/><path fill="#000000" d="M56.51875 59.43229L55.471874 59.510414Q55.33125 58.885414 55.08125 58.604164Q54.64375 58.15104 54.01875 58.15104Q53.51875 58.15104 53.128124 58.43229Q52.64375 58.80729 52.346874 59.510414Q52.065624 60.197914 52.05 61.479164Q52.425 60.90104 52.971874 60.61979Q53.534374 60.33854 54.14375 60.33854Q55.190624 60.33854 55.925 61.11979Q56.675 61.90104 56.675 63.11979Q56.675 63.93229 56.315624 64.635414Q55.971874 65.322914 55.3625 65.697914Q54.753124 66.05729 53.9875 66.05729Q52.659374 66.05729 51.83125 65.08854Q51.003124 64.11979 51.003124 61.90104Q51.003124 59.40104 51.925 58.27604Q52.721874 57.291664 54.08125 57.291664Q55.096874 57.291664 55.7375 57.86979Q56.39375 58.43229 56.51875 59.43229ZM52.221874 63.135414Q52.221874 63.68229 52.440624 64.18229Q52.675 64.666664 53.08125 64.93229Q53.503124 65.197914 53.971874 65.197914Q54.628124 65.197914 55.1125 64.666664Q55.596874 64.11979 55.596874 63.197914Q55.596874 62.30729 55.1125 61.791664Q54.64375 61.27604 53.925 61.27604Q53.20625 61.27604 52.70625 61.791664Q52.221874 62.30729 52.221874 63.135414ZM58.05 61.68229Q58.05 60.15104 58.3625 59.229164Q58.675 58.291664 59.284374 57.791664Q59.909374 57.291664 60.846874 57.291664Q61.534374 57.291664 62.05 57.572914Q62.58125 57.854164 62.925 58.385414Q63.26875 58.90104 63.45625 59.65104Q63.64375 60.40104 63.64375 61.68229Q63.64375 63.197914 63.33125 64.11979Q63.034374 65.041664 62.409374 65.55729Q61.8 66.05729 60.846874 66.05729Q59.6125 66.05729 58.89375 65.166664Q58.05 64.104164 58.05 61.68229ZM59.128124 61.68229Q59.128124 63.791664 59.628124 64.49479Q60.128124 65.197914 60.846874 65.197914Q61.58125 65.197914 62.065624 64.49479Q62.565624 63.791664 62.565624 61.68229Q62.565624 59.55729 62.065624 58.86979Q61.58125 58.166664 60.83125 58.166664Q60.1125 58.166664 59.675 58.77604Q59.128124 59.55729 59.128124 61.68229ZM65.05 61.68229Q65.05 60.15104 65.3625 59.229164Q65.675 58.291664 66.28438 57.791664Q66.90938 57.291664 67.84688 57.291664Q68.53438 57.291664 69.05 57.572914Q69.58125 57.854164 69.925 58.385414Q70.26875 58.90104 70.45625 59.65104Q70.64375 60.40104 70.64375 61.68229Q70.64375 63.197914 70.33125 64.11979Q70.03438 65.041664 69.40938 65.55729Q68.8 66.05729 67.84688 66.05729Q66.6125 66.05729 65.89375 65.166664Q65.05 64.104164 65.05 61.68229ZM66.12813 61.68229Q66.12813 63.791664 66.62813 64.49479Q67.12813 65.197914 67.84688 65.197914Q68.58125 65.197914 69.06563 64.49479Q69.56563 63.791664 69.56563 61.68229Q69.56563 59.55729 69.06563 58.86979Q68.58125 58.166664 67.83125 58.166664Q67.1125 58.166664 66.675 58.77604Q66.12813 59.55729 66.12813 61.68229ZM72.05 61.68229Q72.05 60.15104 72.3625 59.229164Q72.675 58.291664 73.28438 57.791664Q73.90938 57.291664 74.84688 57.291664Q75.53438 57.291664 76.05 57.572914Q76.58125 57.854164 76.925 58.385414Q77.26875 58.90104 77.45625 59.65104Q77.64375 60.40104 77.64375 61.68229Q77.64375 63.197914 77.33125 64.11979Q77.03438 65.041664 76.40938 65.55729Q75.8 66.05729 74.84688 66.05729Q73.6125 66.05729 72.89375 65.166664Q72.05 64.104164 72.05 61.68229ZM73.12813 61.68229Q73.12813 63.791664 73.62813 64.49479Q74.12813 65.197914 74.84688 65.197914Q75.58125 65.197914 76.06563 64.49479Q76.56563 63.791664 76.56563 61.68229Q76.56563 59.55729 76.06563 58.86979Q75.58125 58.166664 74.83125 58.166664Q74.1125 58.166664 73.675 58.77604Q73.12813 59.55729 73.12813 61.68229Z" fill-rule="nonzero"/><path fill="#000000" d="M167.26097 349.45L170.55785 340.85626L171.7766 340.85626L175.29222 349.45L174.01097 349.45L172.99535 346.84064L169.41722 346.84064L168.4641 349.45L167.26097 349.45ZM169.74535 345.91876L172.6516 345.91876L171.76097 343.54376Q171.3391 342.46564 171.1516 341.7625Q170.97972 342.59064 170.68285 343.40314L169.74535 345.91876ZM175.05785 349.45L175.05785 343.23126L176.01097 343.23126L176.01097 344.16876Q176.37035 343.5125 176.66722 343.3094Q176.97972 343.09064 177.35472 343.09064Q177.88597 343.09064 178.43285 343.41876L178.07347 344.40314Q177.68285 344.16876 177.30785 344.16876Q176.94847 344.16876 176.66722 344.3875Q176.4016 344.59064 176.29222 344.96564Q176.10472 345.52814 176.10472 346.1844L176.10472 349.45L175.05785 349.45ZM181.37035 348.5125L181.5266 349.4344Q181.07347 349.52814 180.72972 349.52814Q180.1516 349.52814 179.8391 349.35626Q179.5266 349.16876 179.38597 348.8719Q179.26097 348.575 179.26097 347.6219L179.26097 344.04376L178.49535 344.04376L178.49535 343.23126L179.26097 343.23126L179.26097 341.6844L180.30785 341.0594L180.30785 343.23126L181.37035 343.23126L181.37035 344.04376L180.30785 344.04376L180.30785 347.6844Q180.30785 348.1375 180.35472 348.2625Q180.41722 348.3875 180.54222 348.46564Q180.66722 348.54376 180.9016 348.54376Q181.0891 348.54376 181.37035 348.5125ZM186.32347 347.45L187.41722 347.575Q187.16722 348.52814 186.4641 349.0594Q185.76097 349.59064 184.68285 349.59064Q183.32347 349.59064 182.51097 348.7469Q181.7141 347.90314 181.7141 346.3875Q181.7141 344.825 182.5266 343.96564Q183.3391 343.09064 184.62035 343.09064Q185.87035 343.09064 186.6516 343.9344Q187.44847 344.77814 187.44847 346.325Q187.44847 346.41876 187.44847 346.60626L182.80785 346.60626Q182.87035 347.6375 183.38597 348.1844Q183.9016 348.71564 184.68285 348.71564Q185.26097 348.71564 185.66722 348.41876Q186.0891 348.10626 186.32347 347.45ZM182.87035 345.7469L186.3391 345.7469Q186.2766 344.95 185.94847 344.5594Q185.43285 343.95 184.63597 343.95Q183.9016 343.95 183.4016 344.4344Q182.91722 344.91876 182.87035 345.7469ZM189.07347 349.45L189.07347 343.23126L190.01097 343.23126L190.01097 344.10626Q190.30785 343.6375 190.79222 343.3719Q191.2766 343.09064 191.9016 343.09064Q192.5891 343.09064 193.0266 343.3719Q193.47972 343.65314 193.6516 344.16876Q194.4016 343.09064 195.57347 343.09064Q196.51097 343.09064 196.99535 343.60626Q197.49535 344.10626 197.49535 345.1844L197.49535 349.45L196.44847 349.45L196.44847 345.52814Q196.44847 344.90314 196.3391 344.6219Q196.24535 344.34064 195.97972 344.16876Q195.7141 343.9969 195.3391 343.9969Q194.68285 343.9969 194.24535 344.4344Q193.82347 344.8719 193.82347 345.84064L193.82347 349.45L192.76097 349.45L192.76097 345.40314Q192.76097 344.7 192.49535 344.35626Q192.24535 343.9969 191.66722 343.9969Q191.2141 343.9969 190.8391 344.23126Q190.4641 344.46564 190.29222 344.91876Q190.12035 345.3719 190.12035 346.21564L190.12035 349.45L189.07347 349.45ZM200.07347 342.075L200.07347 340.85626L201.13597 340.85626L201.13597 342.075L200.07347 342.075ZM200.07347 349.45L200.07347 343.23126L201.13597 343.23126L201.13597 349.45L200.07347 349.45ZM202.6516 347.59064L203.68285 347.4344Q203.7766 348.0594 204.16722 348.3875Q204.57347 348.71564 205.30785 348.71564Q206.0266 348.71564 206.37035 348.4344Q206.72972 348.1375 206.72972 347.73126Q206.72972 347.3719 206.41722 347.16876Q206.19847 347.02814 205.3391 346.8094Q204.18285 346.5125 203.72972 346.3094Q203.29222 346.09064 203.05785 345.71564Q202.82347 345.34064 202.82347 344.8719Q202.82347 344.46564 203.01097 344.10626Q203.19847 343.7469 203.5266 343.5125Q203.7766 343.34064 204.19847 343.21564Q204.62035 343.09064 205.12035 343.09064Q205.8391 343.09064 206.38597 343.3094Q206.94847 343.5125 207.2141 343.8719Q207.47972 344.23126 207.57347 344.825L206.54222 344.96564Q206.47972 344.4969 206.13597 344.23126Q205.80785 343.95 205.18285 343.95Q204.4641 343.95 204.1516 344.2Q203.8391 344.4344 203.8391 344.7625Q203.8391 344.96564 203.9641 345.1219Q204.10472 345.29376 204.37035 345.40314Q204.5266 345.46564 205.30785 345.66876Q206.43285 345.98126 206.87035 346.16876Q207.30785 346.35626 207.55785 346.71564Q207.80785 347.075 207.80785 347.6219Q207.80785 348.15314 207.49535 348.6219Q207.19847 349.075 206.62035 349.34064Q206.04222 349.59064 205.30785 349.59064Q204.0891 349.59064 203.44847 349.09064Q202.82347 348.575 202.6516 347.59064ZM210.19847 349.45L210.19847 340.85626L211.35472 340.85626L215.87035 347.60626L215.87035 340.85626L216.9641 340.85626L216.9641 349.45L215.79222 349.45L211.2766 342.7L211.2766 349.45L210.19847 349.45ZM223.32347 347.45L224.41722 347.575Q224.16722 348.52814 223.4641 349.0594Q222.76097 349.59064 221.68285 349.59064Q220.32347 349.59064 219.51097 348.7469Q218.7141 347.90314 218.7141 346.3875Q218.7141 344.825 219.5266 343.96564Q220.3391 343.09064 221.62035 343.09064Q222.87035 343.09064 223.6516 343.9344Q224.44847 344.77814 224.44847 346.325Q224.44847 346.41876 224.44847 346.60626L219.80785 346.60626Q219.87035 347.6375 220.38597 348.1844Q220.9016 348.71564 221.68285 348.71564Q222.26097 348.71564 222.66722 348.41876Q223.0891 348.10626 223.32347 347.45ZM219.87035 345.7469L223.3391 345.7469Q223.2766 344.95 222.94847 344.5594Q222.43285 343.95 221.63597 343.95Q220.9016 343.95 220.4016 344.4344Q219.91722 344.91876 219.87035 345.7469ZM228.37035 348.5125L228.5266 349.4344Q228.07347 349.52814 227.72972 349.52814Q227.1516 349.52814 226.8391 349.35626Q226.5266 349.16876 226.38597 348.8719Q226.26097 348.575 226.26097 347.6219L226.26097 344.04376L225.49535 344.04376L225.49535 343.23126L226.26097 343.23126L226.26097 341.6844L227.30785 341.0594L227.30785 343.23126L228.37035 343.23126L228.37035 344.04376L227.30785 344.04376L227.30785 347.6844Q227.30785 348.1375 227.35472 348.2625Q227.41722 348.3875 227.54222 348.46564Q227.66722 348.54376 227.9016 348.54376Q228.0891 348.54376 228.37035 348.5125ZM235.3391 346.4344L236.4641 346.73126Q236.10472 348.1219 235.18285 348.85626Q234.26097 349.59064 232.91722 349.59064Q231.5266 349.59064 230.6516 349.02814Q229.7766 348.46564 229.32347 347.40314Q228.87035 346.325 228.87035 345.09064Q228.87035 343.7469 229.38597 342.7469Q229.9016 341.7469 230.8391 341.23126Q231.79222 340.71564 232.93285 340.71564Q234.2141 340.71564 235.0891 341.3719Q235.97972 342.02814 236.32347 343.21564L235.19847 343.48126Q234.9016 342.54376 234.32347 342.1219Q233.76097 341.6844 232.9016 341.6844Q231.91722 341.6844 231.24535 342.16876Q230.5891 342.6375 230.30785 343.4344Q230.04222 344.23126 230.04222 345.09064Q230.04222 346.1844 230.35472 346.9969Q230.68285 347.8094 231.35472 348.21564Q232.0266 348.6219 232.82347 348.6219Q233.7766 348.6219 234.43285 348.075Q235.10472 347.52814 235.3391 346.4344ZM237.68285 346.34064Q237.68285 344.60626 238.63597 343.77814Q239.43285 343.09064 240.5891 343.09064Q241.87035 343.09064 242.68285 343.9344Q243.51097 344.7625 243.51097 346.2469Q243.51097 347.45 243.1516 348.1375Q242.79222 348.825 242.0891 349.21564Q241.4016 349.59064 240.5891 349.59064Q239.29222 349.59064 238.47972 348.7625Q237.68285 347.91876 237.68285 346.34064ZM238.76097 346.34064Q238.76097 347.52814 239.2766 348.1219Q239.80785 348.71564 240.5891 348.71564Q241.38597 348.71564 241.9016 348.1219Q242.41722 347.52814 242.41722 346.3094Q242.41722 345.15314 241.88597 344.5594Q241.37035 343.96564 240.5891 343.96564Q239.80785 343.96564 239.2766 344.5594Q238.76097 345.1375 238.76097 346.34064ZM245.05785 349.45L245.05785 343.23126L246.01097 343.23126L246.01097 344.16876Q246.37035 343.5125 246.66722 343.3094Q246.97972 343.09064 247.35472 343.09064Q247.88597 343.09064 248.43285 343.41876L248.07347 344.40314Q247.68285 344.16876 247.30785 344.16876Q246.94847 344.16876 246.66722 344.3875Q246.4016 344.59064 246.29222 344.96564Q246.10472 345.52814 246.10472 346.1844L246.10472 349.45L245.05785 349.45ZM253.32347 347.45L254.41722 347.575Q254.16722 348.52814 253.4641 349.0594Q252.76097 349.59064 251.68285 349.59064Q250.32347 349.59064 249.51097 348.7469Q248.7141 347.90314 248.7141 346.3875Q248.7141 344.825 249.5266 343.96564Q250.3391 343.09064 251.62035 343.09064Q252.87035 343.09064 253.6516 343.9344Q254.44847 344.77814 254.44847 346.325Q254.44847 346.41876 254.44847 346.60626L249.80785 346.60626Q249.87035 347.6375 250.38597 348.1844Q250.9016 348.71564 251.68285 348.71564Q252.26097 348.71564 252.66722 348.41876Q253.0891 348.10626 253.32347 347.45ZM249.87035 345.7469L253.3391 345.7469Q253.2766 344.95 252.94847 344.5594Q252.43285 343.95 251.63597 343.95Q250.9016 343.95 250.4016 344.4344Q249.91722 344.91876 249.87035 345.7469ZM262.3391 346.4344L263.4641 346.73126Q263.10474 348.1219 262.18286 348.85626Q261.261 349.59064 259.91724 349.59064Q258.5266 349.59064 257.6516 349.02814Q256.7766 348.46564 256.3235 347.40314Q255.87035 346.325 255.87035 345.09064Q255.87035 343.7469 256.386 342.7469Q256.9016 341.7469 257.8391 341.23126Q258.79224 340.71564 259.93286 340.71564Q261.2141 340.71564 262.0891 341.3719Q262.97974 342.02814 263.3235 343.21564L262.1985 343.48126Q261.9016 342.54376 261.3235 342.1219Q260.761 341.6844 259.9016 341.6844Q258.91724 341.6844 258.24536 342.16876Q257.5891 342.6375 257.30786 343.4344Q257.04224 344.23126 257.04224 345.09064Q257.04224 346.1844 257.35474 346.9969Q257.68286 347.8094 258.35474 348.21564Q259.0266 348.6219 259.8235 348.6219Q260.7766 348.6219 261.43286 348.075Q262.10474 347.52814 262.3391 346.4344ZM265.04224 349.45L265.04224 340.85626L266.10474 340.85626L266.10474 349.45L265.04224 349.45ZM268.0735 342.075L268.0735 340.85626L269.136 340.85626L269.136 342.075L268.0735 342.075ZM268.0735 349.45L268.0735 343.23126L269.136 343.23126L269.136 349.45L268.0735 349.45ZM275.3235 347.45L276.41724 347.575Q276.16724 348.52814 275.4641 349.0594Q274.761 349.59064 273.68286 349.59064Q272.3235 349.59064 271.511 348.7469Q270.7141 347.90314 270.7141 346.3875Q270.7141 344.825 271.5266 343.96564Q272.3391 343.09064 273.62036 343.09064Q274.87036 343.09064 275.6516 343.9344Q276.4485 344.77814 276.4485 346.325Q276.4485 346.41876 276.4485 346.60626L271.80786 346.60626Q271.87036 347.6375 272.386 348.1844Q272.9016 348.71564 273.68286 348.71564Q274.261 348.71564 274.66724 348.41876Q275.0891 348.10626 275.3235 347.45ZM271.87036 345.7469L275.3391 345.7469Q275.2766 344.95 274.9485 344.5594Q274.43286 343.95 273.636 343.95Q272.9016 343.95 272.4016 344.4344Q271.91724 344.91876 271.87036 345.7469ZM278.0735 349.45L278.0735 343.23126L279.011 343.23126L279.011 344.10626Q279.6985 343.09064 280.99536 343.09064Q281.55786 343.09064 282.0266 343.29376Q282.511 343.4969 282.74536 343.825Q282.97974 344.15314 283.0735 344.59064Q283.12036 344.8875 283.12036 345.6219L283.12036 349.45L282.0735 349.45L282.0735 345.66876Q282.0735 345.0125 281.9485 344.7Q281.8235 344.3875 281.511 344.2Q281.1985 343.9969 280.7766 343.9969Q280.10474 343.9969 279.60474 344.4344Q279.12036 344.85626 279.12036 346.04376L279.12036 349.45L278.0735 349.45ZM287.37036 348.5125L287.5266 349.4344Q287.0735 349.52814 286.72974 349.52814Q286.1516 349.52814 285.8391 349.35626Q285.5266 349.16876 285.386 348.8719Q285.261 348.575 285.261 347.6219L285.261 344.04376L284.49536 344.04376L284.49536 343.23126L285.261 343.23126L285.261 341.6844L286.30786 341.0594L286.30786 343.23126L287.37036 343.23126L287.37036 344.04376L286.30786 344.04376L286.30786 347.6844Q286.30786 348.1375 286.35474 348.2625Q286.41724 348.3875 286.54224 348.46564Q286.66724 348.54376 286.9016 348.54376Q287.0891 348.54376 287.37036 348.5125Z" fill-rule="nonzero"/><path fill="#000000" d="M408.6453 349.45L408.6453 340.85626L409.80154 340.85626L414.31717 347.60626L414.31717 340.85626L415.41092 340.85626L415.41092 349.45L414.23904 349.45L409.72342 342.7L409.72342 349.45L408.6453 349.45ZM417.61404 349.45L417.61404 340.85626L419.3328 340.85626L421.36404 346.9344Q421.6453 347.79376 421.7703 348.21564Q421.91092 347.7469 422.22342 346.84064L424.28592 340.85626L425.81717 340.85626L425.81717 349.45L424.72342 349.45L424.72342 342.2625L422.22342 349.45L421.19217 349.45L418.7078 342.1375L418.7078 349.45L417.61404 349.45ZM426.2703 346.6844L427.3328 346.59064Q427.41092 347.2469 427.69217 347.65314Q427.97342 348.0594 428.55154 348.325Q429.1453 348.575 429.87967 348.575Q430.5203 348.575 431.0203 348.3875Q431.5203 348.1844 431.75467 347.85626Q432.00467 347.5125 432.00467 347.1219Q432.00467 346.71564 431.7703 346.41876Q431.53592 346.10626 431.00467 345.90314Q430.6453 345.7625 429.4578 345.48126Q428.28592 345.2 427.81717 344.95Q427.19217 344.6219 426.8953 344.15314Q426.59842 343.66876 426.59842 343.075Q426.59842 342.4344 426.9578 341.8719Q427.3328 341.29376 428.03592 341.0125Q428.75467 340.71564 429.61404 340.71564Q430.56717 340.71564 431.30154 341.02814Q432.03592 341.325 432.42654 341.9344Q432.81717 342.52814 432.84842 343.27814L431.75467 343.35626Q431.66092 342.54376 431.1453 342.1375Q430.6453 341.71564 429.66092 341.71564Q428.62967 341.71564 428.16092 342.09064Q427.69217 342.46564 427.69217 342.9969Q427.69217 343.46564 428.0203 343.7625Q428.34842 344.0594 429.72342 344.3719Q431.11404 344.6844 431.62967 344.91876Q432.37967 345.27814 432.73904 345.8094Q433.09842 346.325 433.09842 347.02814Q433.09842 347.71564 432.7078 348.325Q432.31717 348.91876 431.5828 349.2625Q430.84842 349.59064 429.92654 349.59064Q428.75467 349.59064 427.9578 349.2625Q427.17654 348.91876 426.72342 348.23126Q426.28592 347.54376 426.2703 346.6844ZM434.81717 349.45L434.81717 348.2469L436.0203 348.2469L436.0203 349.45L434.81717 349.45ZM436.7078 349.45L440.00467 340.85626L441.22342 340.85626L444.73904 349.45L443.4578 349.45L442.44217 346.84064L438.86404 346.84064L437.91092 349.45L436.7078 349.45ZM439.19217 345.91876L442.09842 345.91876L441.2078 343.54376Q440.78592 342.46564 440.59842 341.7625Q440.42654 342.59064 440.12967 343.40314L439.19217 345.91876ZM444.61404 349.45L444.61404 340.85626L446.3328 340.85626L448.36404 346.9344Q448.6453 347.79376 448.7703 348.21564Q448.91092 347.7469 449.22342 346.84064L451.28592 340.85626L452.81717 340.85626L452.81717 349.45L451.72342 349.45L451.72342 342.2625L449.22342 349.45L448.19217 349.45L445.7078 342.1375L445.7078 349.45L444.61404 349.45ZM460.16092 348.52814Q460.9578 349.075 461.61404 349.325L461.28592 350.1219Q460.36404 349.77814 459.44217 349.0594Q458.48904 349.59064 457.3328 349.59064Q456.16092 349.59064 455.2078 349.02814Q454.2703 348.46564 453.75467 347.45Q453.23904 346.4344 453.23904 345.15314Q453.23904 343.8875 453.75467 342.84064Q454.2703 341.79376 455.22342 341.2469Q456.17654 340.7 457.34842 340.7Q458.53592 340.7 459.48904 341.27814Q460.4578 341.84064 460.9578 342.85626Q461.4578 343.8719 461.4578 345.15314Q461.4578 346.21564 461.12967 347.0594Q460.81717 347.90314 460.16092 348.52814ZM457.66092 347.075Q458.6453 347.35626 459.28592 347.90314Q460.28592 346.98126 460.28592 345.15314Q460.28592 344.10626 459.92654 343.325Q459.56717 342.54376 458.87967 342.1219Q458.2078 341.6844 457.36404 341.6844Q456.0828 341.6844 455.23904 342.5594Q454.41092 343.41876 454.41092 345.15314Q454.41092 346.825 455.23904 347.73126Q456.06717 348.6219 457.36404 348.6219Q457.97342 348.6219 458.50467 348.3875Q457.97342 348.04376 457.37967 347.90314L457.66092 347.075ZM462.6453 349.45L462.6453 340.85626L465.8953 340.85626Q466.73904 340.85626 467.19217 340.9344Q467.8328 341.04376 468.25467 341.34064Q468.69217 341.6375 468.94217 342.16876Q469.2078 342.7 469.2078 343.34064Q469.2078 344.4344 468.50467 345.2Q467.81717 345.95 465.98904 345.95L463.78592 345.95L463.78592 349.45L462.6453 349.45ZM463.78592 344.95L466.00467 344.95Q467.11404 344.95 467.56717 344.54376Q468.03592 344.1219 468.03592 343.3719Q468.03592 342.84064 467.75467 342.46564Q467.48904 342.075 467.05154 341.95Q466.75467 341.8719 465.98904 341.8719L463.78592 341.8719L463.78592 344.95Z" fill-rule="nonzero"/><path fill="#757575" d="M21.45625 32.95625L23.2375 32.8Q23.3625 33.8625 23.815624 34.55Q24.284374 35.2375 25.253124 35.675Q26.2375 36.096874 27.471874 36.096874Q28.55 36.096874 29.378124 35.784374Q30.20625 35.45625 30.6125 34.89375Q31.01875 34.33125 31.01875 33.659374Q31.01875 32.9875 30.628124 32.4875Q30.2375 31.9875 29.346874 31.64375Q28.76875 31.409374 26.784374 30.940624Q24.815624 30.471874 24.034374 30.05Q23.003124 29.51875 22.503124 28.721874Q22.003124 27.925 22.003124 26.940624Q22.003124 25.846874 22.6125 24.909374Q23.221874 23.971874 24.409374 23.4875Q25.596874 22.9875 27.034374 22.9875Q28.628124 22.9875 29.846874 23.503124Q31.065624 24.01875 31.70625 25.01875Q32.3625 26.003124 32.409374 27.26875L30.596874 27.409374Q30.45625 26.05 29.6125 25.3625Q28.76875 24.659374 27.1125 24.659374Q25.39375 24.659374 24.596874 25.3Q23.815624 25.925 23.815624 26.8Q23.815624 27.58125 24.378124 28.08125Q24.925 28.58125 27.2375 29.096874Q29.55 29.6125 30.409374 30.003124Q31.659374 30.58125 32.253124 31.471874Q32.846874 32.346874 32.846874 33.503124Q32.846874 34.64375 32.190624 35.659374Q31.534374 36.675 30.3 37.2375Q29.08125 37.8 27.55 37.8Q25.6125 37.8 24.3 37.2375Q22.9875 36.659374 22.2375 35.51875Q21.4875 34.378124 21.45625 32.95625ZM41.971874 34.20625L43.784374 34.440624Q43.3625 36.01875 42.190624 36.909374Q41.034374 37.784374 39.221874 37.784374Q36.95625 37.784374 35.6125 36.39375Q34.284374 34.9875 34.284374 32.45625Q34.284374 29.83125 35.628124 28.39375Q36.971874 26.940624 39.128124 26.940624Q41.20625 26.940624 42.51875 28.3625Q43.846874 29.76875 43.846874 32.346874Q43.846874 32.503124 43.83125 32.815624L36.096874 32.815624Q36.190624 34.51875 37.065624 35.425Q37.940624 36.33125 39.2375 36.33125Q40.20625 36.33125 40.878124 35.83125Q41.565624 35.315624 41.971874 34.20625ZM36.190624 31.3625L41.9875 31.3625Q41.878124 30.065624 41.33125 29.409374Q40.4875 28.39375 39.14375 28.39375Q37.940624 28.39375 37.1125 29.20625Q36.284374 30.003124 36.190624 31.3625ZM45.8625 37.55L45.8625 27.175L47.45625 27.175L47.45625 28.659374Q48.596874 26.940624 50.753124 26.940624Q51.690624 26.940624 52.471874 27.284374Q53.26875 27.6125 53.659374 28.159374Q54.05 28.70625 54.20625 29.45625Q54.3 29.95625 54.3 31.175L54.3 37.55L52.534374 37.55L52.534374 31.2375Q52.534374 30.159374 52.33125 29.628124Q52.128124 29.096874 51.596874 28.784374Q51.08125 28.471874 50.378124 28.471874Q49.253124 28.471874 48.440624 29.190624Q47.628124 29.89375 47.628124 31.878124L47.628124 37.55L45.8625 37.55ZM62.596874 37.55L62.596874 36.2375Q61.6125 37.784374 59.690624 37.784374Q58.45625 37.784374 57.409374 37.096874Q56.378124 36.409374 55.8 35.190624Q55.2375 33.971874 55.2375 32.378124Q55.2375 30.815624 55.753124 29.55Q56.26875 28.284374 57.3 27.6125Q58.346874 26.940624 59.6125 26.940624Q60.55 26.940624 61.284374 27.346874Q62.01875 27.7375 62.4875 28.3625L62.4875 23.2375L64.22188 23.2375L64.22188 37.55L62.596874 37.55ZM57.034374 32.378124Q57.034374 34.3625 57.878124 35.346874Q58.721874 36.33125 59.8625 36.33125Q61.01875 36.33125 61.815624 35.39375Q62.628124 34.45625 62.628124 32.51875Q62.628124 30.39375 61.8 29.39375Q60.9875 28.39375 59.784374 28.39375Q58.6125 28.39375 57.815624 29.3625Q57.034374 30.315624 57.034374 32.378124ZM66.87813 25.253124L66.87813 23.2375L68.64375 23.2375L68.64375 25.253124L66.87813 25.253124ZM66.87813 37.55L66.87813 27.175L68.64375 27.175L68.64375 37.55L66.87813 37.55ZM70.8625 37.55L70.8625 27.175L72.45625 27.175L72.45625 28.659374Q73.59688 26.940624 75.75313 26.940624Q76.69063 26.940624 77.47188 27.284374Q78.26875 27.6125 78.65938 28.159374Q79.05 28.70625 79.20625 29.45625Q79.3 29.95625 79.3 31.175L79.3 37.55L77.53438 37.55L77.53438 31.2375Q77.53438 30.159374 77.33125 29.628124Q77.12813 29.096874 76.59688 28.784374Q76.08125 28.471874 75.37813 28.471874Q74.25313 28.471874 73.44063 29.190624Q72.62813 29.89375 72.62813 31.878124L72.62813 37.55L70.8625 37.55ZM80.55 38.409374L82.25313 38.659374Q82.3625 39.45625 82.84688 39.815624Q83.50313 40.3 84.64375 40.3Q85.8625 40.3 86.51875 39.815624Q87.19063 39.33125 87.425 38.45625Q87.56563 37.909374 87.55 36.190624Q86.39375 37.55 84.675 37.55Q82.53438 37.55 81.3625 36.003124Q80.19063 34.45625 80.19063 32.3Q80.19063 30.815624 80.72188 29.565624Q81.26875 28.315624 82.28438 27.628124Q83.31563 26.940624 84.69063 26.940624Q86.51875 26.940624 87.72188 28.425L87.72188 27.175L89.33125 27.175L89.33125 36.14375Q89.33125 38.565624 88.83125 39.565624Q88.34688 40.58125 87.26875 41.159374Q86.20625 41.753124 84.64375 41.753124Q82.8 41.753124 81.64375 40.925Q80.50313 40.096874 80.55 38.409374ZM82.00313 32.175Q82.00313 34.221874 82.81563 35.159374Q83.62813 36.096874 84.84688 36.096874Q86.05 36.096874 86.8625 35.159374Q87.69063 34.221874 87.69063 32.2375Q87.69063 30.33125 86.84688 29.3625Q86.00313 28.39375 84.81563 28.39375Q83.64375 28.39375 82.81563 29.346874Q82.00313 30.3 82.00313 32.175ZM97.8625 37.55L97.8625 27.175L99.44063 27.175L99.44063 28.628124Q99.925 27.878124 100.7375 27.409374Q101.55 26.940624 102.58125 26.940624Q103.7375 26.940624 104.47188 27.425Q105.20625 27.89375 105.51875 28.753124Q106.75313 26.940624 108.72188 26.940624Q110.26875 26.940624 111.09688 27.8Q111.925 28.659374 111.925 30.425L111.925 37.55L110.175 37.55L110.175 31.01875Q110.175 29.95625 110.00313 29.503124Q109.83125 29.034374 109.37813 28.753124Q108.94063 28.471874 108.33125 28.471874Q107.2375 28.471874 106.50313 29.20625Q105.78438 29.925 105.78438 31.51875L105.78438 37.55L104.03438 37.55L104.03438 30.815624Q104.03438 29.64375 103.59688 29.065624Q103.175 28.471874 102.19063 28.471874Q101.45625 28.471874 100.81563 28.8625Q100.19063 29.253124 99.90938 30.003124Q99.62813 30.753124 99.62813 32.175L99.62813 37.55L97.8625 37.55ZM113.15938 34.45625L114.90938 34.175Q115.05 35.221874 115.72188 35.784374Q116.39375 36.33125 117.59688 36.33125Q118.8 36.33125 119.37813 35.846874Q119.97188 35.346874 119.97188 34.690624Q119.97188 34.096874 119.45625 33.753124Q119.09688 33.51875 117.65938 33.159374Q115.72188 32.659374 114.97188 32.315624Q114.2375 31.95625 113.84688 31.33125Q113.45625 30.690624 113.45625 29.925Q113.45625 29.2375 113.76875 28.64375Q114.09688 28.05 114.64375 27.659374Q115.05 27.3625 115.75313 27.159374Q116.47188 26.940624 117.28438 26.940624Q118.50313 26.940624 119.425 27.3Q120.34688 27.64375 120.78438 28.253124Q121.22188 28.846874 121.39375 29.846874L119.675 30.08125Q119.55 29.284374 118.9875 28.846874Q118.425 28.39375 117.40938 28.39375Q116.19063 28.39375 115.675 28.8Q115.15938 29.190624 115.15938 29.721874Q115.15938 30.065624 115.37813 30.346874Q115.58125 30.628124 116.05 30.815624Q116.31563 30.909374 117.59688 31.253124Q119.47188 31.753124 120.20625 32.08125Q120.94063 32.39375 121.3625 33.003124Q121.78438 33.596874 121.78438 34.503124Q121.78438 35.378124 121.26875 36.159374Q120.75313 36.940624 119.78438 37.3625Q118.81563 37.784374 117.59688 37.784374Q115.58125 37.784374 114.51875 36.940624Q113.45625 36.096874 113.15938 34.45625ZM123.55 38.409374L125.25313 38.659374Q125.3625 39.45625 125.84688 39.815624Q126.50313 40.3 127.64375 40.3Q128.8625 40.3 129.51875 39.815624Q130.19063 39.33125 130.425 38.45625Q130.56563 37.909374 130.55 36.190624Q129.39375 37.55 127.675 37.55Q125.53438 37.55 124.3625 36.003124Q123.19063 34.45625 123.19063 32.3Q123.19063 30.815624 123.72188 29.565624Q124.26875 28.315624 125.28438 27.628124Q126.31563 26.940624 127.69063 26.940624Q129.51875 26.940624 130.72188 28.425L130.72188 27.175L132.33125 27.175L132.33125 36.14375Q132.33125 38.565624 131.83125 39.565624Q131.34688 40.58125 130.26875 41.159374Q129.20625 41.753124 127.64375 41.753124Q125.8 41.753124 124.64375 40.925Q123.50313 40.096874 123.55 38.409374ZM125.00313 32.175Q125.00313 34.221874 125.81563 35.159374Q126.62813 36.096874 127.84688 36.096874Q129.05 36.096874 129.8625 35.159374Q130.69063 34.221874 130.69063 32.2375Q130.69063 30.33125 129.84688 29.3625Q129.00313 28.39375 127.81563 28.39375Q126.64375 28.39375 125.81563 29.346874Q125.00313 30.3 125.00313 32.175ZM134.15938 34.45625L135.90938 34.175Q136.05 35.221874 136.72188 35.784374Q137.39375 36.33125 138.59688 36.33125Q139.8 36.33125 140.37813 35.846874Q140.97188 35.346874 140.97188 34.690624Q140.97188 34.096874 140.45625 33.753124Q140.09688 33.51875 138.65938 33.159374Q136.72188 32.659374 135.97188 32.315624Q135.2375 31.95625 134.84688 31.33125Q134.45625 30.690624 134.45625 29.925Q134.45625 29.2375 134.76875 28.64375Q135.09688 28.05 135.64375 27.659374Q136.05 27.3625 136.75313 27.159374Q137.47188 26.940624 138.28438 26.940624Q139.50313 26.940624 140.425 27.3Q141.34688 27.64375 141.78438 28.253124Q142.22188 28.846874 142.39375 29.846874L140.675 30.08125Q140.55 29.284374 139.9875 28.846874Q139.425 28.39375 138.40938 28.39375Q137.19063 28.39375 136.675 28.8Q136.15938 29.190624 136.15938 29.721874Q136.15938 30.065624 136.37813 30.346874Q136.58125 30.628124 137.05 30.815624Q137.31563 30.909374 138.59688 31.253124Q140.47188 31.753124 141.20625 32.08125Q141.94063 32.39375 142.3625 33.003124Q142.78438 33.596874 142.78438 34.503124Q142.78438 35.378124 142.26875 36.159374Q141.75313 36.940624 140.78438 37.3625Q139.81563 37.784374 138.59688 37.784374Q136.58125 37.784374 135.51875 36.940624Q134.45625 36.096874 134.15938 34.45625ZM143.55 37.8L147.70625 22.9875L149.1125 22.9875L144.97188 37.8L143.55 37.8ZM150.15938 34.45625L151.90938 34.175Q152.05 35.221874 152.72188 35.784374Q153.39375 36.33125 154.59688 36.33125Q155.8 36.33125 156.37813 35.846874Q156.97188 35.346874 156.97188 34.690624Q156.97188 34.096874 156.45625 33.753124Q156.09688 33.51875 154.65938 33.159374Q152.72188 32.659374 151.97188 32.315624Q151.2375 31.95625 150.84688 31.33125Q150.45625 30.690624 150.45625 29.925Q150.45625 29.2375 150.76875 28.64375Q151.09688 28.05 151.64375 27.659374Q152.05 27.3625 152.75313 27.159374Q153.47188 26.940624 154.28438 26.940624Q155.50313 26.940624 156.425 27.3Q157.34688 27.64375 157.78438 28.253124Q158.22188 28.846874 158.39375 29.846874L156.675 30.08125Q156.55 29.284374 155.9875 28.846874Q155.425 28.39375 154.40938 28.39375Q153.19063 28.39375 152.675 28.8Q152.15938 29.190624 152.15938 29.721874Q152.15938 30.065624 152.37813 30.346874Q152.58125 30.628124 153.05 30.815624Q153.31563 30.909374 154.59688 31.253124Q156.47188 31.753124 157.20625 32.08125Q157.94063 32.39375 158.3625 33.003124Q158.78438 33.596874 158.78438 34.503124Q158.78438 35.378124 158.26875 36.159374Q157.75313 36.940624 156.78438 37.3625Q155.81563 37.784374 154.59688 37.784374Q152.58125 37.784374 151.51875 36.940624Q150.45625 36.096874 150.15938 34.45625ZM170.22188 41.753124Q168.76875 39.925 167.76875 37.471874Q166.76875 35.003124 166.76875 32.3625Q166.76875 30.034374 167.51875 27.909374Q168.39375 25.440624 170.22188 22.9875L171.4875 22.9875Q170.3 25.01875 169.925 25.89375Q169.33125 27.2375 168.9875 28.70625Q168.56563 30.534374 168.56563 32.378124Q168.56563 37.065624 171.4875 41.753124L170.22188 41.753124ZM173.55 38.409374L175.25313 38.659374Q175.3625 39.45625 175.84688 39.815624Q176.50313 40.3 177.64375 40.3Q178.8625 40.3 179.51875 39.815624Q180.19063 39.33125 180.425 38.45625Q180.56563 37.909374 180.55 36.190624Q179.39375 37.55 177.675 37.55Q175.53438 37.55 174.3625 36.003124Q173.19063 34.45625 173.19063 32.3Q173.19063 30.815624 173.72188 29.565624Q174.26875 28.315624 175.28438 27.628124Q176.31563 26.940624 177.69063 26.940624Q179.51875 26.940624 180.72188 28.425L180.72188 27.175L182.33125 27.175L182.33125 36.14375Q182.33125 38.565624 181.83125 39.565624Q181.34688 40.58125 180.26875 41.159374Q179.20625 41.753124 177.64375 41.753124Q175.8 41.753124 174.64375 40.925Q173.50313 40.096874 173.55 38.409374ZM175.00313 32.175Q175.00313 34.221874 175.81563 35.159374Q176.62813 36.096874 177.84688 36.096874Q179.05 36.096874 179.8625 35.159374Q180.69063 34.221874 180.69063 32.2375Q180.69063 30.33125 179.84688 29.3625Q179.00313 28.39375 177.81563 28.39375Q176.64375 28.39375 175.81563 29.346874Q175.00313 30.3 175.00313 32.175ZM184.84688 37.55L184.84688 27.175L186.425 27.175L186.425 28.753124Q187.03438 27.64375 187.55 27.3Q188.06563 26.940624 188.675 26.940624Q189.56563 26.940624 190.4875 27.503124L189.87813 29.14375Q189.2375 28.753124 188.59688 28.753124Q188.01875 28.753124 187.55 29.1125Q187.09688 29.45625 186.89375 30.065624Q186.6125 31.003124 186.6125 32.1125L186.6125 37.55L184.84688 37.55ZM198.97188 34.20625L200.78438 34.440624Q200.3625 36.01875 199.19063 36.909374Q198.03438 37.784374 196.22188 37.784374Q193.95625 37.784374 192.6125 36.39375Q191.28438 34.9875 191.28438 32.45625Q191.28438 29.83125 192.62813 28.39375Q193.97188 26.940624 196.12813 26.940624Q198.20625 26.940624 199.51875 28.3625Q200.84688 29.76875 200.84688 32.346874Q200.84688 32.503124 200.83125 32.815624L193.09688 32.815624Q193.19063 34.51875 194.06563 35.425Q194.94063 36.33125 196.2375 36.33125Q197.20625 36.33125 197.87813 35.83125Q198.56563 35.315624 198.97188 34.20625ZM193.19063 31.3625L198.9875 31.3625Q198.87813 30.065624 198.33125 29.409374Q197.4875 28.39375 196.14375 28.39375Q194.94063 28.39375 194.1125 29.20625Q193.28438 30.003124 193.19063 31.3625ZM209.64375 36.26875Q208.65938 37.096874 207.75313 37.440624Q206.84688 37.784374 205.81563 37.784374Q204.1125 37.784374 203.19063 36.95625Q202.26875 36.1125 202.26875 34.815624Q202.26875 34.05 202.6125 33.425Q202.97188 32.8 203.53438 32.425Q204.09688 32.034374 204.8 31.83125Q205.31563 31.70625 206.3625 31.565624Q208.4875 31.315624 209.4875 30.971874Q209.50313 30.6125 209.50313 30.503124Q209.50313 29.440624 209.00313 28.9875Q208.33125 28.39375 207.00313 28.39375Q205.75313 28.39375 205.15938 28.83125Q204.58125 29.26875 204.3 30.378124L202.58125 30.14375Q202.81563 29.034374 203.34688 28.3625Q203.87813 27.675 204.89375 27.315624Q205.90938 26.940624 207.25313 26.940624Q208.58125 26.940624 209.40938 27.253124Q210.2375 27.565624 210.62813 28.05Q211.01875 28.51875 211.175 29.2375Q211.26875 29.690624 211.26875 30.8625L211.26875 33.20625Q211.26875 35.659374 211.37813 36.315624Q211.4875 36.95625 211.83125 37.55L209.9875 37.55Q209.72188 37.003124 209.64375 36.26875ZM209.4875 32.346874Q208.53438 32.7375 206.6125 33.003124Q205.53438 33.159374 205.08125 33.3625Q204.64375 33.55 204.39375 33.925Q204.14375 34.3 204.14375 34.76875Q204.14375 35.471874 204.675 35.940624Q205.20625 36.409374 206.2375 36.409374Q207.25313 36.409374 208.03438 35.971874Q208.83125 35.51875 209.20625 34.753124Q209.4875 34.14375 209.4875 32.9875L209.4875 32.346874ZM217.70625 35.971874L217.95625 37.534374Q217.22188 37.690624 216.62813 37.690624Q215.675 37.690624 215.14375 37.39375Q214.62813 37.08125 214.40938 36.596874Q214.19063 36.096874 214.19063 34.51875L214.19063 28.55L212.90938 28.55L212.90938 27.175L214.19063 27.175L214.19063 24.6125L215.94063 23.55L215.94063 27.175L217.70625 27.175L217.70625 28.55L215.94063 28.55L215.94063 34.6125Q215.94063 35.3625 216.03438 35.58125Q216.12813 35.784374 216.33125 35.925Q216.55 36.05 216.94063 36.05Q217.22188 36.05 217.70625 35.971874ZM226.97188 34.20625L228.78438 34.440624Q228.3625 36.01875 227.19063 36.909374Q226.03438 37.784374 224.22188 37.784374Q221.95625 37.784374 220.6125 36.39375Q219.28438 34.9875 219.28438 32.45625Q219.28438 29.83125 220.62813 28.39375Q221.97188 26.940624 224.12813 26.940624Q226.20625 26.940624 227.51875 28.3625Q228.84688 29.76875 228.84688 32.346874Q228.84688 32.503124 228.83125 32.815624L221.09688 32.815624Q221.19063 34.51875 222.06563 35.425Q222.94063 36.33125 224.2375 36.33125Q225.20625 36.33125 225.87813 35.83125Q226.56563 35.315624 226.97188 34.20625ZM221.19063 31.3625L226.9875 31.3625Q226.87813 30.065624 226.33125 29.409374Q225.4875 28.39375 224.14375 28.39375Q222.94063 28.39375 222.1125 29.20625Q221.28438 30.003124 221.19063 31.3625ZM230.84688 37.55L230.84688 27.175L232.425 27.175L232.425 28.753124Q233.03438 27.64375 233.55 27.3Q234.06563 26.940624 234.675 26.940624Q235.56563 26.940624 236.4875 27.503124L235.87813 29.14375Q235.2375 28.753124 234.59688 28.753124Q234.01875 28.753124 233.55 29.1125Q233.09688 29.45625 232.89375 30.065624Q232.6125 31.003124 232.6125 32.1125L232.6125 37.55L230.84688 37.55ZM237.19063 33.253124L237.19063 31.4875L242.58125 31.4875L242.58125 33.253124L237.19063 33.253124ZM246.4875 37.55L244.8625 37.55L244.8625 23.2375L246.6125 23.2375L246.6125 28.346874Q247.7375 26.940624 249.45625 26.940624Q250.40938 26.940624 251.26875 27.33125Q252.12813 27.721874 252.675 28.425Q253.22188 29.1125 253.53438 30.096874Q253.84688 31.08125 253.84688 32.20625Q253.84688 34.878124 252.53438 36.33125Q251.22188 37.784374 249.37813 37.784374Q247.53438 37.784374 246.4875 36.253124L246.4875 37.55ZM246.47188 32.284374Q246.47188 34.14375 246.97188 34.9875Q247.81563 36.33125 249.22188 36.33125Q250.37813 36.33125 251.20625 35.33125Q252.05 34.33125 252.05 32.346874Q252.05 30.315624 251.2375 29.3625Q250.44063 28.39375 249.3 28.39375Q248.14375 28.39375 247.3 29.39375Q246.47188 30.39375 246.47188 32.284374ZM262.97186 34.20625L264.78436 34.440624Q264.3625 36.01875 263.1906 36.909374Q262.03436 37.784374 260.22186 37.784374Q257.95624 37.784374 256.6125 36.39375Q255.28438 34.9875 255.28438 32.45625Q255.28438 29.83125 256.6281 28.39375Q257.97186 26.940624 260.1281 26.940624Q262.20624 26.940624 263.51874 28.3625Q264.84686 29.76875 264.84686 32.346874Q264.84686 32.503124 264.83124 32.815624L257.09686 32.815624Q257.1906 34.51875 258.0656 35.425Q258.9406 36.33125 260.2375 36.33125Q261.20624 36.33125 261.8781 35.83125Q262.5656 35.315624 262.97186 34.20625ZM257.1906 31.3625L262.9875 31.3625Q262.8781 30.065624 262.33124 29.409374Q261.4875 28.39375 260.14374 28.39375Q258.9406 28.39375 258.1125 29.20625Q257.28436 30.003124 257.1906 31.3625ZM270.70624 35.971874L270.95624 37.534374Q270.22186 37.690624 269.6281 37.690624Q268.675 37.690624 268.14374 37.39375Q267.6281 37.08125 267.40936 36.596874Q267.1906 36.096874 267.1906 34.51875L267.1906 28.55L265.90936 28.55L265.90936 27.175L267.1906 27.175L267.1906 24.6125L268.9406 23.55L268.9406 27.175L270.70624 27.175L270.70624 28.55L268.9406 28.55L268.9406 34.6125Q268.9406 35.3625 269.03436 35.58125Q269.1281 35.784374 269.33124 35.925Q269.55 36.05 269.9406 36.05Q270.22186 36.05 270.70624 35.971874ZM276.70624 35.971874L276.95624 37.534374Q276.22186 37.690624 275.6281 37.690624Q274.675 37.690624 274.14374 37.39375Q273.6281 37.08125 273.40936 36.596874Q273.1906 36.096874 273.1906 34.51875L273.1906 28.55L271.90936 28.55L271.90936 27.175L273.1906 27.175L273.1906 24.6125L274.9406 23.55L274.9406 27.175L276.70624 27.175L276.70624 28.55L274.9406 28.55L274.9406 34.6125Q274.9406 35.3625 275.03436 35.58125Q275.1281 35.784374 275.33124 35.925Q275.55 36.05 275.9406 36.05Q276.22186 36.05 276.70624 35.971874ZM285.97186 34.20625L287.78436 34.440624Q287.3625 36.01875 286.1906 36.909374Q285.03436 37.784374 283.22186 37.784374Q280.95624 37.784374 279.6125 36.39375Q278.28436 34.9875 278.28436 32.45625Q278.28436 29.83125 279.6281 28.39375Q280.97186 26.940624 283.1281 26.940624Q285.20624 26.940624 286.51874 28.3625Q287.84686 29.76875 287.84686 32.346874Q287.84686 32.503124 287.83124 32.815624L280.09686 32.815624Q280.1906 34.51875 281.0656 35.425Q281.9406 36.33125 283.2375 36.33125Q284.20624 36.33125 284.8781 35.83125Q285.5656 35.315624 285.97186 34.20625ZM280.1906 31.3625L285.9875 31.3625Q285.8781 30.065624 285.33124 29.409374Q284.4875 28.39375 283.14374 28.39375Q281.9406 28.39375 281.1125 29.20625Q280.28436 30.003124 280.1906 31.3625ZM289.84686 37.55L289.84686 27.175L291.425 27.175L291.425 28.753124Q292.03436 27.64375 292.55 27.3Q293.0656 26.940624 293.675 26.940624Q294.5656 26.940624 295.4875 27.503124L294.8781 29.14375Q294.2375 28.753124 293.59686 28.753124Q293.01874 28.753124 292.55 29.1125Q292.09686 29.45625 291.89374 30.065624Q291.6125 31.003124 291.6125 32.1125L291.6125 37.55L289.84686 37.55ZM298.01874 41.753124L296.76874 41.753124Q299.675 37.065624 299.675 32.378124Q299.675 30.534374 299.26874 28.7375Q298.925 27.26875 298.33124 25.925Q297.95624 25.034374 296.76874 22.9875L298.01874 22.9875Q299.8625 25.440624 300.7375 27.909374Q301.4875 30.034374 301.4875 32.3625Q301.4875 35.003124 300.47186 37.471874Q299.47186 39.925 298.01874 41.753124Z" fill-rule="nonzero"/></svg>