<svg version="1.1" viewBox="0.0 0.0 600.0 371.0" fill="none" stroke="none" stroke-linecap="square" stroke-miterlimit="10" width="600" height="371" xmlns:xlink="http://www.w3.org/1999/xlink" xmlns="http://www.w3.org/2000/svg"><path fill="#ffffff" d="M0 0L600.0 0L600.0 371.0L0 371.0L0 0Z" fill-rule="nonzero"/><path stroke="#333333" stroke-width="1.0" stroke-linecap="butt" d="M66.5 332.5L581.5 332.5" fill-rule="nonzero"/><path stroke="#cccccc" stroke-width="1.0" stroke-linecap="butt" d="M66.5 242.5L581.5 242.5" fill-rule="nonzero"/><path stroke="#cccccc" stroke-width="1.0" stroke-linecap="butt" d="M66.5 152.5L581.5 152.5" fill-rule="nonzero"/><path stroke="#cccccc" stroke-width="1.0" stroke-linecap="butt" d="M66.5 61.5L581.5 61.5" fill-rule="nonzero"/><clipPath id="id_0"><path d="M66.55 61.916668L581.45 61.916668L581.45 332.45L66.55 332.45L66.55 61.916668Z" clip-rule="nonzero"/></clipPath><path stroke="#000000" stroke-width="2.0" stroke-linecap="butt" stroke-opacity="0.0" clip-path="url(#id_0)" d="M285.0 332.0L143.0 332.0L143.0 82.0C143.0 80.89543 143.89543 80.0 145.0 80.0L283.0 80.0C284.10458 80.0 285.0 80.89543 285.0 82.0Z" fill-rule="nonzero"/><path fill="#4285f4" clip-path="url(#id_0)" d="M285.0 332.0L143.0 332.0L143.0 82.0C143.0 80.89543 143.89543 80.0 145.0 80.0L283.0 80.0C284.10458 80.0 285.0 80.89543 285.0 82.0Z" fill-rule="nonzero"/><path stroke="#000000" stroke-width="2.0" stroke-linecap="butt" stroke-opacity="0.0" clip-path="url(#id_0)" d="M505.0 332.0L363.0 332.0L363.0 204.0C363.0 202.89543 363.89542 202.0 365.0 202.0L503.0 202.0C504.10458 202.0 505.0 202.89543 505.0 204.0Z" fill-rule="nonzero"/><path fill="#4285f4" clip-path="url(#id_0)" d="M505.0 332.0L363.0 332.0L363.0 204.0C363.0 202.89543 363.89542 202.0 365.0 202.0L503.0 202.0C504.10458 202.0 505.0 202.89543 505.0 204.0Z" fill-rule="nonzero"/><path fill="#000000" d="M54.05 332.21564Q54.05 330.6844 54.3625 329.7625Q54.675 328.825 55.284374 328.325Q55.909374 327.825 56.846874 327.825Q57.534374 327.825 58.05 328.10626Q58.58125 328.3875 58.925 328.91876Q59.26875 329.4344 59.45625 330.1844Q59.64375 330.9344 59.64375 332.21564Q59.64375 333.73126 59.33125 334.65314Q59.034374 335.575 58.409374 336.09064Q57.8 336.59064 56.846874 336.59064Q55.6125 336.59064 54.89375 335.7Q54.05 334.6375 54.05 332.21564ZM55.128124 332.21564Q55.128124 334.325 55.628124 335.02814Q56.128124 335.73126 56.846874 335.73126Q57.58125 335.73126 58.065624 335.02814Q58.565624 334.325 58.565624 332.21564Q58.565624 330.09064 58.065624 329.40314Q57.58125 328.7 56.83125 328.7Q56.1125 328.7 55.675 329.3094Q55.128124 330.09064 55.128124 332.21564Z" fill-rule="nonzero"/><path fill="#000000" d="M26.05 244.02222L27.159374 243.92847Q27.284374 244.74097 27.721874 245.14722Q28.175 245.55347 28.815624 245.55347Q29.565624 245.55347 30.096874 244.97534Q30.628124 244.39722 30.628124 243.45972Q30.628124 242.55347 30.1125 242.03784Q29.6125 241.50659 28.784374 241.50659Q28.284374 241.50659 27.8625 241.74097Q27.45625 241.97534 27.221874 242.33472L26.2375 242.20972L27.065624 237.80347L31.346874 237.80347L31.346874 238.80347L27.909374 238.80347L27.45625 241.11597Q28.221874 240.56909 29.065624 240.56909Q30.190624 240.56909 30.95625 241.35034Q31.7375 242.13159 31.7375 243.36597Q31.7375 244.52222 31.065624 245.38159Q30.2375 246.41284 28.815624 246.41284Q27.64375 246.41284 26.89375 245.75659Q26.159374 245.10034 26.05 244.02222ZM33.05 242.03784Q33.05 240.50659 33.3625 239.58472Q33.675 238.64722 34.284374 238.14722Q34.909374 237.64722 35.846874 237.64722Q36.534374 237.64722 37.05 237.92847Q37.58125 238.20972 37.925 238.74097Q38.26875 239.25659 38.45625 240.00659Q38.64375 240.75659 38.64375 242.03784Q38.64375 243.55347 38.33125 244.47534Q38.034374 245.39722 37.409374 245.91284Q36.8 246.41284 35.846874 246.41284Q34.6125 246.41284 33.89375 245.52222Q33.05 244.45972 33.05 242.03784ZM34.128124 242.03784Q34.128124 244.14722 34.628124 244.85034Q35.128124 245.55347 35.846874 245.55347Q36.58125 245.55347 37.065624 244.85034Q37.565624 244.14722 37.565624 242.03784Q37.565624 239.91284 37.065624 239.22534Q36.58125 238.52222 35.83125 238.52222Q35.1125 238.52222 34.675 239.13159Q34.128124 239.91284 34.128124 242.03784ZM40.05 242.03784Q40.05 240.50659 40.3625 239.58472Q40.675 238.64722 41.284374 238.14722Q41.909374 237.64722 42.846874 237.64722Q43.534374 237.64722 44.05 237.92847Q44.58125 238.20972 44.925 238.74097Q45.26875 239.25659 45.45625 240.00659Q45.64375 240.75659 45.64375 242.03784Q45.64375 243.55347 45.33125 244.47534Q45.034374 245.39722 44.409374 245.91284Q43.8 246.41284 42.846874 246.41284Q41.6125 246.41284 40.89375 245.52222Q40.05 244.45972 40.05 242.03784ZM41.128124 242.03784Q41.128124 244.14722 41.628124 244.85034Q42.128124 245.55347 42.846874 245.55347Q43.58125 245.55347 44.065624 244.85034Q44.565624 244.14722 44.565624 242.03784Q44.565624 239.91284 44.065624 239.22534Q43.58125 238.52222 42.83125 238.52222Q42.1125 238.52222 41.675 239.13159Q41.128124 239.91284 41.128124 242.03784ZM47.05 242.03784Q47.05 240.50659 47.3625 239.58472Q47.675 238.64722 48.284374 238.14722Q48.909374 237.64722 49.846874 237.64722Q50.534374 237.64722 51.05 237.92847Q51.58125 238.20972 51.925 238.74097Q52.26875 239.25659 52.45625 240.00659Q52.64375 240.75659 52.64375 242.03784Q52.64375 243.55347 52.33125 244.47534Q52.034374 245.39722 51.409374 245.91284Q50.8 246.41284 49.846874 246.41284Q48.6125 246.41284 47.89375 245.52222Q47.05 244.45972 47.05 242.03784ZM48.128124 242.03784Q48.128124 244.14722 48.628124 244.85034Q49.128124 245.55347 49.846874 245.55347Q50.58125 245.55347 51.065624 244.85034Q51.565624 244.14722 51.565624 242.03784Q51.565624 239.91284 51.065624 239.22534Q50.58125 238.52222 49.83125 238.52222Q49.1125 238.52222 48.675 239.13159Q48.128124 239.91284 48.128124 242.03784ZM54.05 242.03784Q54.05 240.50659 54.3625 239.58472Q54.675 238.64722 55.284374 238.14722Q55.909374 237.64722 56.846874 237.64722Q57.534374 237.64722 58.05 237.92847Q58.58125 238.20972 58.925 238.74097Q59.26875 239.25659 59.45625 240.00659Q59.64375 240.75659 59.64375 242.03784Q59.64375 243.55347 59.33125 244.47534Q59.034374 245.39722 58.409374 245.91284Q57.8 246.41284 56.846874 246.41284Q55.6125 246.41284 54.89375 245.52222Q54.05 244.45972 54.05 242.03784ZM55.128124 242.03784Q55.128124 244.14722 55.628124 244.85034Q56.128124 245.55347 56.846874 245.55347Q57.58125 245.55347 58.065624 244.85034Q58.565624 244.14722 58.565624 242.03784Q58.565624 239.91284 58.065624 239.22534Q57.58125 238.52222 56.83125 238.52222Q56.1125 238.52222 55.675 239.13159Q55.128124 239.91284 55.128124 242.03784Z" fill-rule="nonzero"/><path fill="#000000" d="M23.01875 156.09445L21.971874 156.09445L21.971874 149.3757Q21.58125 149.73508 20.95625 150.11008Q20.346874 150.46945 19.8625 150.64133L19.8625 149.6257Q20.7375 149.20383 21.39375 148.6257Q22.065624 148.03195 22.346874 147.46945L23.01875 147.46945L23.01875 156.09445ZM26.05 151.86008Q26.05 150.32883 26.3625 149.40695Q26.675 148.46945 27.284374 147.96945Q27.909374 147.46945 28.846874 147.46945Q29.534374 147.46945 30.05 147.7507Q30.58125 148.03195 30.925 148.5632Q31.26875 149.07883 31.45625 149.82883Q31.64375 150.57883 31.64375 151.86008Q31.64375 153.3757 31.33125 154.29758Q31.034374 155.21945 30.409374 155.73508Q29.8 156.23508 28.846874 156.23508Q27.6125 156.23508 26.89375 155.34445Q26.05 154.28195 26.05 151.86008ZM27.128124 151.86008Q27.128124 153.96945 27.628124 154.67258Q28.128124 155.3757 28.846874 155.3757Q29.58125 155.3757 30.065624 154.67258Q30.565624 153.96945 30.565624 151.86008Q30.565624 149.73508 30.065624 149.04758Q29.58125 148.34445 28.83125 148.34445Q28.1125 148.34445 27.675 148.95383Q27.128124 149.73508 27.128124 151.86008ZM33.05 151.86008Q33.05 150.32883 33.3625 149.40695Q33.675 148.46945 34.284374 147.96945Q34.909374 147.46945 35.846874 147.46945Q36.534374 147.46945 37.05 147.7507Q37.58125 148.03195 37.925 148.5632Q38.26875 149.07883 38.45625 149.82883Q38.64375 150.57883 38.64375 151.86008Q38.64375 153.3757 38.33125 154.29758Q38.034374 155.21945 37.409374 155.73508Q36.8 156.23508 35.846874 156.23508Q34.6125 156.23508 33.89375 155.34445Q33.05 154.28195 33.05 151.86008ZM34.128124 151.86008Q34.128124 153.96945 34.628124 154.67258Q35.128124 155.3757 35.846874 155.3757Q36.58125 155.3757 37.065624 154.67258Q37.565624 153.96945 37.565624 151.86008Q37.565624 149.73508 37.065624 149.04758Q36.58125 148.34445 35.83125 148.34445Q35.1125 148.34445 34.675 148.95383Q34.128124 149.73508 34.128124 151.86008ZM40.05 151.86008Q40.05 150.32883 40.3625 149.40695Q40.675 148.46945 41.284374 147.96945Q41.909374 147.46945 42.846874 147.46945Q43.534374 147.46945 44.05 147.7507Q44.58125 148.03195 44.925 148.5632Q45.26875 149.07883 45.45625 149.82883Q45.64375 150.57883 45.64375 151.86008Q45.64375 153.3757 45.33125 154.29758Q45.034374 155.21945 44.409374 155.73508Q43.8 156.23508 42.846874 156.23508Q41.6125 156.23508 40.89375 155.34445Q40.05 154.28195 40.05 151.86008ZM41.128124 151.86008Q41.128124 153.96945 41.628124 154.67258Q42.128124 155.3757 42.846874 155.3757Q43.58125 155.3757 44.065624 154.67258Q44.565624 153.96945 44.565624 151.86008Q44.565624 149.73508 44.065624 149.04758Q43.58125 148.34445 42.83125 148.34445Q42.1125 148.34445 41.675 148.95383Q41.128124 149.73508 41.128124 151.86008ZM47.05 151.86008Q47.05 150.32883 47.3625 149.40695Q47.675 148.46945 48.284374 147.96945Q48.909374 147.46945 49.846874 147.46945Q50.534374 147.46945 51.05 147.7507Q51.58125 148.03195 51.925 148.5632Q52.26875 149.07883 52.45625 149.82883Q52.64375 150.57883 52.64375 151.86008Q52.64375 153.3757 52.33125 154.29758Q52.034374 155.21945 51.409374 155.73508Q50.8 156.23508 49.846874 156.23508Q48.6125 156.23508 47.89375 155.34445Q47.05 154.28195 47.05 151.86008ZM48.128124 151.86008Q48.128124 153.96945 48.628124 154.67258Q49.128124 155.3757 49.846874 155.3757Q50.58125 155.3757 51.065624 154.67258Q51.565624 153.96945 51.565624 151.86008Q51.565624 149.73508 51.065624 149.04758Q50.58125 148.34445 49.83125 148.34445Q49.1125 148.34445 48.675 148.95383Q48.128124 149.73508 48.128124 151.86008ZM54.05 151.86008Q54.05 150.32883 54.3625 149.40695Q54.675 148.46945 55.284374 147.96945Q55.909374 147.46945 56.846874 147.46945Q57.534374 147.46945 58.05 147.7507Q58.58125 148.03195 58.925 148.5632Q59.26875 149.07883 59.45625 149.82883Q59.64375 150.57883 59.64375 151.86008Q59.64375 153.3757 59.33125 154.29758Q59.034374 155.21945 58.409374 155.73508Q57.8 156.23508 56.846874 156.23508Q55.6125 156.23508 54.89375 155.34445Q54.05 154.28195 54.05 151.86008ZM55.128124 151.86008Q55.128124 153.96945 55.628124 154.67258Q56.128124 155.3757 56.846874 155.3757Q57.58125 155.3757 58.065624 154.67258Q58.565624 153.96945 58.565624 151.86008Q58.565624 149.73508 58.065624 149.04758Q57.58125 148.34445 56.83125 148.34445Q56.1125 148.34445 55.675 148.95383Q55.128124 149.73508 55.128124 151.86008Z" fill-rule="nonzero"/><path fill="#000000" d="M23.01875 65.916664L21.971874 65.916664L21.971874 59.197914Q21.58125 59.55729 20.95625 59.93229Q20.346874 60.291664 19.8625 60.46354L19.8625 59.447914Q20.7375 59.02604 21.39375 58.447914Q22.065624 57.854164 22.346874 57.291664L23.01875 57.291664L23.01875 65.916664ZM26.05 63.666664L27.159374 63.572914Q27.284374 64.385414 27.721874 64.791664Q28.175 65.197914 28.815624 65.197914Q29.565624 65.197914 30.096874 64.61979Q30.628124 64.041664 30.628124 63.104164Q30.628124 62.197914 30.1125 61.68229Q29.6125 61.15104 28.784374 61.15104Q28.284374 61.15104 27.8625 61.385414Q27.45625 61.61979 27.221874 61.979164L26.2375 61.854164L27.065624 57.447914L31.346874 57.447914L31.346874 58.447914L27.909374 58.447914L27.45625 60.760414Q28.221874 60.21354 29.065624 60.21354Q30.190624 60.21354 30.95625 60.99479Q31.7375 61.77604 31.7375 63.010414Q31.7375 64.166664 31.065624 65.02604Q30.2375 66.05729 28.815624 66.05729Q27.64375 66.05729 26.89375 65.40104Q26.159374 64.74479 26.05 63.666664ZM33.05 61.68229Q33.05 60.15104 33.3625 59.229164Q33.675 58.291664 34.284374 57.791664Q34.909374 57.291664 35.846874 57.291664Q36.534374 57.291664 37.05 57.572914Q37.58125 57.854164 37.925 58.385414Q38.26875 58.90104 38.45625 59.65104Q38.64375 60.40104 38.64375 61.68229Q38.64375 63.197914 38.33125 64.11979Q38.034374 65.041664 37.409374 65.55729Q36.8 66.05729 35.846874 66.05729Q34.6125 66.05729 33.89375 65.166664Q33.05 64.104164 33.05 61.68229ZM34.128124 61.68229Q34.128124 63.791664 34.628124 64.49479Q35.128124 65.197914 35.846874 65.197914Q36.58125 65.197914 37.065624 64.49479Q37.565624 63.791664 37.565624 61.68229Q37.565624 59.55729 37.065624 58.86979Q36.58125 58.166664 35.83125 58.166664Q35.1125 58.166664 34.675 58.77604Q34.128124 59.55729 34.128124 61.68229ZM40.05 61.68229Q40.05 60.15104 40.3625 59.229164Q40.675 58.291664 41.284374 57.791664Q41.909374 57.291664 42.846874 57.291664Q43.534374 57.291664 44.05 57.572914Q44.58125 57.854164 44.925 58.385414Q45.26875 58.90104 45.45625 59.65104Q45.64375 60.40104 45.64375 61.68229Q45.64375 63.197914 45.33125 64.11979Q45.034374 65.041664 44.409374 65.55729Q43.8 66.05729 42.846874 66.05729Q41.6125 66.05729 40.89375 65.166664Q40.05 64.104164 40.05 61.68229ZM41.128124 61.68229Q41.128124 63.791664 41.628124 64.49479Q42.128124 65.197914 42.846874 65.197914Q43.58125 65.197914 44.065624 64.49479Q44.565624 63.791664 44.565624 61.68229Q44.565624 59.55729 44.065624 58.86979Q43.58125 58.166664 42.83125 58.166664Q42.1125 58.166664 41.675 58.77604Q41.128124 59.55729 41.128124 61.68229ZM47.05 61.68229Q47.05 60.15104 47.3625 59.229164Q47.675 58.291664 48.284374 57.791664Q48.909374 57.291664 49.846874 57.291664Q50.534374 57.291664 51.05 57.572914Q51.58125 57.854164 51.925 58.385414Q52.26875 58.90104 52.45625 59.65104Q52.64375 60.40104 52.64375 61.68229Q52.64375 63.197914 52.33125 64.11979Q52.034374 65.041664 51.409374 65.55729Q50.8 66.05729 49.846874 66.05729Q48.6125 66.05729 47.89375 65.166664Q47.05 64.104164 47.05 61.68229ZM48.128124 61.68229Q48.128124 63.791664 48.628124 64.49479Q49.128124 65.197914 49.846874 65.197914Q50.58125 65.197914 51.065624 64.49479Q51.565624 63.791664 51.565624 61.68229Q51.565624 59.55729 51.065624 58.86979Q50.58125 58.166664 49.83125 58.166664Q49.1125 58.166664 48.675 58.77604Q48.128124 59.55729 48.128124 61.68229ZM54.05 61.68229Q54.05 60.15104 54.3625 59.229164Q54.675 58.291664 55.284374 57.791664Q55.909374 57.291664 56.846874 57.291664Q57.534374 57.291664 58.05 57.572914Q58.58125 57.854164 58.925 58.385414Q59.26875 58.90104 59.45625 59.65104Q59.64375 60.40104 59.64375 61.68229Q59.64375 63.197914 59.33125 64.11979Q59.034374 65.041664 58.409374 65.55729Q57.8 66.05729 56.846874 66.05729Q55.6125 66.05729 54.89375 65.166664Q54.05 64.104164 54.05 61.68229ZM55.128124 61.68229Q55.128124 63.791664 55.628124 64.49479Q56.128124 65.197914 56.846874 65.197914Q57.58125 65.197914 58.065624 64.49479Q58.565624 63.791664 58.565624 61.68229Q58.565624 59.55729 58.065624 58.86979Q57.58125 58.166664 56.83125 58.166664Q56.1125 58.166664 55.675 58.77604Q55.128124 59.55729 55.128124 61.68229Z" fill-rule="nonzero"/><path fill="#000000" d="M154.43118 349.45L157.72806 340.85626L158.94681 340.85626L162.46243 349.45L161.18118 349.45L160.16556 346.84064L156.58743 346.84064L155.63431 349.45L154.43118 349.45ZM156.91556 345.91876L159.82181 345.91876L158.93118 343.54376Q158.50931 342.46564 158.32181 341.7625Q158.14993 342.59064 157.85306 343.40314L156.91556 345.91876ZM162.22806 349.45L162.22806 343.23126L163.18118 343.23126L163.18118 344.16876Q163.54056 343.5125 163.83743 343.3094Q164.14993 343.09064 164.52493 343.09064Q165.05618 343.09064 165.60306 343.41876L165.24368 344.40314Q164.85306 344.16876 164.47806 344.16876Q164.11868 344.16876 163.83743 344.3875Q163.57181 344.59064 163.46243 344.96564Q163.27493 345.52814 163.27493 346.1844L163.27493 349.45L162.22806 349.45ZM168.54056 348.5125L168.69681 349.4344Q168.24368 349.52814 167.89993 349.52814Q167.32181 349.52814 167.00931 349.35626Q166.69681 349.16876 166.55618 348.8719Q166.43118 348.575 166.43118 347.6219L166.43118 344.04376L165.66556 344.04376L165.66556 343.23126L166.43118 343.23126L166.43118 341.6844L167.47806 341.0594L167.47806 343.23126L168.54056 343.23126L168.54056 344.04376L167.47806 344.04376L167.47806 347.6844Q167.47806 348.1375 167.52493 348.2625Q167.58743 348.3875 167.71243 348.46564Q167.83743 348.54376 168.07181 348.54376Q168.25931 348.54376 168.54056 348.5125ZM173.49368 347.45L174.58743 347.575Q174.33743 348.52814 173.63431 349.0594Q172.93118 349.59064 171.85306 349.59064Q170.49368 349.59064 169.68118 348.7469Q168.88431 347.90314 168.88431 346.3875Q168.88431 344.825 169.69681 343.96564Q170.50931 343.09064 171.79056 343.09064Q173.04056 343.09064 173.82181 343.9344Q174.61868 344.77814 174.61868 346.325Q174.61868 346.41876 174.61868 346.60626L169.97806 346.60626Q170.04056 347.6375 170.55618 348.1844Q171.07181 348.71564 171.85306 348.71564Q172.43118 348.71564 172.83743 348.41876Q173.25931 348.10626 173.49368 347.45ZM170.04056 345.7469L173.50931 345.7469Q173.44681 344.95 173.11868 344.5594Q172.60306 343.95 171.80618 343.95Q171.07181 343.95 170.57181 344.4344Q170.08743 344.91876 170.04056 345.7469ZM176.24368 349.45L176.24368 343.23126L177.18118 343.23126L177.18118 344.10626Q177.47806 343.6375 177.96243 343.3719Q178.44681 343.09064 179.07181 343.09064Q179.75931 343.09064 180.19681 343.3719Q180.64993 343.65314 180.82181 344.16876Q181.57181 343.09064 182.74368 343.09064Q183.68118 343.09064 184.16556 343.60626Q184.66556 344.10626 184.66556 345.1844L184.66556 349.45L183.61868 349.45L183.61868 345.52814Q183.61868 344.90314 183.50931 344.6219Q183.41556 344.34064 183.14993 344.16876Q182.88431 343.9969 182.50931 343.9969Q181.85306 343.9969 181.41556 344.4344Q180.99368 344.8719 180.99368 345.84064L180.99368 349.45L179.93118 349.45L179.93118 345.40314Q179.93118 344.7 179.66556 344.35626Q179.41556 343.9969 178.83743 343.9969Q178.38431 343.9969 178.00931 344.23126Q177.63431 344.46564 177.46243 344.91876Q177.29056 345.3719 177.29056 346.21564L177.29056 349.45L176.24368 349.45ZM187.24368 342.075L187.24368 340.85626L188.30618 340.85626L188.30618 342.075L187.24368 342.075ZM187.24368 349.45L187.24368 343.23126L188.30618 343.23126L188.30618 349.45L187.24368 349.45ZM189.82181 347.59064L190.85306 347.4344Q190.94681 348.0594 191.33743 348.3875Q191.74368 348.71564 192.47806 348.71564Q193.19681 348.71564 193.54056 348.4344Q193.89993 348.1375 193.89993 347.73126Q193.89993 347.3719 193.58743 347.16876Q193.36868 347.02814 192.50931 346.8094Q191.35306 346.5125 190.89993 346.3094Q190.46243 346.09064 190.22806 345.71564Q189.99368 345.34064 189.99368 344.8719Q189.99368 344.46564 190.18118 344.10626Q190.36868 343.7469 190.69681 343.5125Q190.94681 343.34064 191.36868 343.21564Q191.79056 343.09064 192.29056 343.09064Q193.00931 343.09064 193.55618 343.3094Q194.11868 343.5125 194.38431 343.8719Q194.64993 344.23126 194.74368 344.825L193.71243 344.96564Q193.64993 344.4969 193.30618 344.23126Q192.97806 343.95 192.35306 343.95Q191.63431 343.95 191.32181 344.2Q191.00931 344.4344 191.00931 344.7625Q191.00931 344.96564 191.13431 345.1219Q191.27493 345.29376 191.54056 345.40314Q191.69681 345.46564 192.47806 345.66876Q193.60306 345.98126 194.04056 346.16876Q194.47806 346.35626 194.72806 346.71564Q194.97806 347.075 194.97806 347.6219Q194.97806 348.15314 194.66556 348.6219Q194.36868 349.075 193.79056 349.34064Q193.21243 349.59064 192.47806 349.59064Q191.25931 349.59064 190.61868 349.09064Q189.99368 348.575 189.82181 347.59064ZM197.36868 349.45L197.36868 340.85626L198.52493 340.85626L203.04056 347.60626L203.04056 340.85626L204.13431 340.85626L204.13431 349.45L202.96243 349.45L198.44681 342.7L198.44681 349.45L197.36868 349.45ZM210.49368 347.45L211.58743 347.575Q211.33743 348.52814 210.63431 349.0594Q209.93118 349.59064 208.85306 349.59064Q207.49368 349.59064 206.68118 348.7469Q205.88431 347.90314 205.88431 346.3875Q205.88431 344.825 206.69681 343.96564Q207.50931 343.09064 208.79056 343.09064Q210.04056 343.09064 210.82181 343.9344Q211.61868 344.77814 211.61868 346.325Q211.61868 346.41876 211.61868 346.60626L206.97806 346.60626Q207.04056 347.6375 207.55618 348.1844Q208.07181 348.71564 208.85306 348.71564Q209.43118 348.71564 209.83743 348.41876Q210.25931 348.10626 210.49368 347.45ZM207.04056 345.7469L210.50931 345.7469Q210.44681 344.95 210.11868 344.5594Q209.60306 343.95 208.80618 343.95Q208.07181 343.95 207.57181 344.4344Q207.08743 344.91876 207.04056 345.7469ZM215.54056 348.5125L215.69681 349.4344Q215.24368 349.52814 214.89993 349.52814Q214.32181 349.52814 214.00931 349.35626Q213.69681 349.16876 213.55618 348.8719Q213.43118 348.575 213.43118 347.6219L213.43118 344.04376L212.66556 344.04376L212.66556 343.23126L213.43118 343.23126L213.43118 341.6844L214.47806 341.0594L214.47806 343.23126L215.54056 343.23126L215.54056 344.04376L214.47806 344.04376L214.47806 347.6844Q214.47806 348.1375 214.52493 348.2625Q214.58743 348.3875 214.71243 348.46564Q214.83743 348.54376 215.07181 348.54376Q215.25931 348.54376 215.54056 348.5125ZM222.50931 346.4344L223.63431 346.73126Q223.27493 348.1219 222.35306 348.85626Q221.43118 349.59064 220.08743 349.59064Q218.69681 349.59064 217.82181 349.02814Q216.94681 348.46564 216.49368 347.40314Q216.04056 346.325 216.04056 345.09064Q216.04056 343.7469 216.55618 342.7469Q217.07181 341.7469 218.00931 341.23126Q218.96243 340.71564 220.10306 340.71564Q221.38431 340.71564 222.25931 341.3719Q223.14993 342.02814 223.49368 343.21564L222.36868 343.48126Q222.07181 342.54376 221.49368 342.1219Q220.93118 341.6844 220.07181 341.6844Q219.08743 341.6844 218.41556 342.16876Q217.75931 342.6375 217.47806 343.4344Q217.21243 344.23126 217.21243 345.09064Q217.21243 346.1844 217.52493 346.9969Q217.85306 347.8094 218.52493 348.21564Q219.19681 348.6219 219.99368 348.6219Q220.94681 348.6219 221.60306 348.075Q222.27493 347.52814 222.50931 346.4344ZM224.85306 346.34064Q224.85306 344.60626 225.80618 343.77814Q226.60306 343.09064 227.75931 343.09064Q229.04056 343.09064 229.85306 343.9344Q230.68118 344.7625 230.68118 346.2469Q230.68118 347.45 230.32181 348.1375Q229.96243 348.825 229.25931 349.21564Q228.57181 349.59064 227.75931 349.59064Q226.46243 349.59064 225.64993 348.7625Q224.85306 347.91876 224.85306 346.34064ZM225.93118 346.34064Q225.93118 347.52814 226.44681 348.1219Q226.97806 348.71564 227.75931 348.71564Q228.55618 348.71564 229.07181 348.1219Q229.58743 347.52814 229.58743 346.3094Q229.58743 345.15314 229.05618 344.5594Q228.54056 343.96564 227.75931 343.96564Q226.97806 343.96564 226.44681 344.5594Q225.93118 345.1375 225.93118 346.34064ZM232.22806 349.45L232.22806 343.23126L233.18118 343.23126L233.18118 344.16876Q233.54056 343.5125 233.83743 343.3094Q234.14993 343.09064 234.52493 343.09064Q235.05618 343.09064 235.60306 343.41876L235.24368 344.40314Q234.85306 344.16876 234.47806 344.16876Q234.11868 344.16876 233.83743 344.3875Q233.57181 344.59064 233.46243 344.96564Q233.27493 345.52814 233.27493 346.1844L233.27493 349.45L232.22806 349.45ZM240.49368 347.45L241.58743 347.575Q241.33743 348.52814 240.63431 349.0594Q239.93118 349.59064 238.85306 349.59064Q237.49368 349.59064 236.68118 348.7469Q235.88431 347.90314 235.88431 346.3875Q235.88431 344.825 236.69681 343.96564Q237.50931 343.09064 238.79056 343.09064Q240.04056 343.09064 240.82181 343.9344Q241.61868 344.77814 241.61868 346.325Q241.61868 346.41876 241.61868 346.60626L236.97806 346.60626Q237.04056 347.6375 237.55618 348.1844Q238.07181 348.71564 238.85306 348.71564Q239.43118 348.71564 239.83743 348.41876Q240.25931 348.10626 240.49368 347.45ZM237.04056 345.7469L240.50931 345.7469Q240.44681 344.95 240.11868 344.5594Q239.60306 343.95 238.80618 343.95Q238.07181 343.95 237.57181 344.4344Q237.08743 344.91876 237.04056 345.7469ZM249.50931 346.4344L250.63431 346.73126Q250.27493 348.1219 249.35306 348.85626Q248.43118 349.59064 247.08743 349.59064Q245.69681 349.59064 244.82181 349.02814Q243.94681 348.46564 243.49368 347.40314Q243.04056 346.325 243.04056 345.09064Q243.04056 343.7469 243.55618 342.7469Q244.07181 341.7469 245.00931 341.23126Q245.96243 340.71564 247.10306 340.71564Q248.38431 340.71564 249.25931 341.3719Q250.14993 342.02814 250.49368 343.21564L249.36868 343.48126Q249.07181 342.54376 248.49368 342.1219Q247.93118 341.6844 247.07181 341.6844Q246.08743 341.6844 245.41556 342.16876Q244.75931 342.6375 244.47806 343.4344Q244.21243 344.23126 244.21243 345.09064Q244.21243 346.1844 244.52493 346.9969Q244.85306 347.8094 245.52493 348.21564Q246.19681 348.6219 246.99368 348.6219Q247.94681 348.6219 248.60306 348.075Q249.27493 347.52814 249.50931 346.4344ZM252.21243 349.45L252.21243 340.85626L253.27493 340.85626L253.27493 349.45L252.21243 349.45ZM255.24368 342.075L255.24368 340.85626L256.30618 340.85626L256.30618 342.075L255.24368 342.075ZM255.24368 349.45L255.24368 343.23126L256.30618 343.23126L256.30618 349.45L255.24368 349.45ZM262.49368 347.45L263.58743 347.575Q263.33743 348.52814 262.6343 349.0594Q261.93118 349.59064 260.85306 349.59064Q259.49368 349.59064 258.68118 348.7469Q257.8843 347.90314 257.8843 346.3875Q257.8843 344.825 258.6968 343.96564Q259.5093 343.09064 260.79056 343.09064Q262.04056 343.09064 262.8218 343.9344Q263.61868 344.77814 263.61868 346.325Q263.61868 346.41876 263.61868 346.60626L258.97806 346.60626Q259.04056 347.6375 259.55618 348.1844Q260.0718 348.71564 260.85306 348.71564Q261.43118 348.71564 261.83743 348.41876Q262.2593 348.10626 262.49368 347.45ZM259.04056 345.7469L262.5093 345.7469Q262.4468 344.95 262.11868 344.5594Q261.60306 343.95 260.80618 343.95Q260.0718 343.95 259.5718 344.4344Q259.08743 344.91876 259.04056 345.7469ZM265.24368 349.45L265.24368 343.23126L266.18118 343.23126L266.18118 344.10626Q266.86868 343.09064 268.16556 343.09064Q268.72806 343.09064 269.1968 343.29376Q269.68118 343.4969 269.91556 343.825Q270.14993 344.15314 270.24368 344.59064Q270.29056 344.8875 270.29056 345.6219L270.29056 349.45L269.24368 349.45L269.24368 345.66876Q269.24368 345.0125 269.11868 344.7Q268.99368 344.3875 268.68118 344.2Q268.36868 343.9969 267.9468 343.9969Q267.27493 343.9969 266.77493 344.4344Q266.29056 344.85626 266.29056 346.04376L266.29056 349.45L265.24368 349.45ZM274.54056 348.5125L274.6968 349.4344Q274.24368 349.52814 273.89993 349.52814Q273.3218 349.52814 273.0093 349.35626Q272.6968 349.16876 272.55618 348.8719Q272.43118 348.575 272.43118 347.6219L272.43118 344.04376L271.66556 344.04376L271.66556 343.23126L272.43118 343.23126L272.43118 341.6844L273.47806 341.0594L273.47806 343.23126L274.54056 343.23126L274.54056 344.04376L273.47806 344.04376L273.47806 347.6844Q273.47806 348.1375 273.52493 348.2625Q273.58743 348.3875 273.71243 348.46564Q273.83743 348.54376 274.0718 348.54376Q274.2593 348.54376 274.54056 348.5125Z" fill-rule="nonzero"/><path fill="#000000" d="M403.47507 349.45L403.47507 340.85626L404.63132 340.85626L409.14694 347.60626L409.14694 340.85626L410.2407 340.85626L410.2407 349.45L409.06882 349.45L404.5532 342.7L404.5532 349.45L403.47507 349.45ZM412.44382 349.45L412.44382 340.85626L414.16257 340.85626L416.19382 346.9344Q416.47507 347.79376 416.60007 348.21564Q416.7407 347.7469 417.0532 346.84064L419.1157 340.85626L420.64694 340.85626L420.64694 349.45L419.5532 349.45L419.5532 342.2625L417.0532 349.45L416.02194 349.45L413.53757 342.1375L413.53757 349.45L412.44382 349.45ZM421.10007 346.6844L422.16257 346.59064Q422.2407 347.2469 422.52194 347.65314Q422.8032 348.0594 423.38132 348.325Q423.97507 348.575 424.70944 348.575Q425.35007 348.575 425.85007 348.3875Q426.35007 348.1844 426.58444 347.85626Q426.83444 347.5125 426.83444 347.1219Q426.83444 346.71564 426.60007 346.41876Q426.3657 346.10626 425.83444 345.90314Q425.47507 345.7625 424.28757 345.48126Q423.1157 345.2 422.64694 344.95Q422.02194 344.6219 421.72507 344.15314Q421.4282 343.66876 421.4282 343.075Q421.4282 342.4344 421.78757 341.8719Q422.16257 341.29376 422.8657 341.0125Q423.58444 340.71564 424.44382 340.71564Q425.39694 340.71564 426.13132 341.02814Q426.8657 341.325 427.25632 341.9344Q427.64694 342.52814 427.6782 343.27814L426.58444 343.35626Q426.4907 342.54376 425.97507 342.1375Q425.47507 341.71564 424.4907 341.71564Q423.45944 341.71564 422.9907 342.09064Q422.52194 342.46564 422.52194 342.9969Q422.52194 343.46564 422.85007 343.7625Q423.1782 344.0594 424.5532 344.3719Q425.94382 344.6844 426.45944 344.91876Q427.20944 345.27814 427.56882 345.8094Q427.9282 346.325 427.9282 347.02814Q427.9282 347.71564 427.53757 348.325Q427.14694 348.91876 426.41257 349.2625Q425.6782 349.59064 424.75632 349.59064Q423.58444 349.59064 422.78757 349.2625Q422.00632 348.91876 421.5532 348.23126Q421.1157 347.54376 421.10007 346.6844ZM429.64694 349.45L429.64694 348.2469L430.85007 348.2469L430.85007 349.45L429.64694 349.45ZM431.53757 349.45L434.83444 340.85626L436.0532 340.85626L439.56882 349.45L438.28757 349.45L437.27194 346.84064L433.69382 346.84064L432.7407 349.45L431.53757 349.45ZM434.02194 345.91876L436.9282 345.91876L436.03757 343.54376Q435.6157 342.46564 435.4282 341.7625Q435.25632 342.59064 434.95944 343.40314L434.02194 345.91876ZM439.44382 349.45L439.44382 340.85626L441.16257 340.85626L443.19382 346.9344Q443.47507 347.79376 443.60007 348.21564Q443.7407 347.7469 444.0532 346.84064L446.1157 340.85626L447.64694 340.85626L447.64694 349.45L446.5532 349.45L446.5532 342.2625L444.0532 349.45L443.02194 349.45L440.53757 342.1375L440.53757 349.45L439.44382 349.45ZM454.9907 348.52814Q455.78757 349.075 456.44382 349.325L456.1157 350.1219Q455.19382 349.77814 454.27194 349.0594Q453.31882 349.59064 452.16257 349.59064Q450.9907 349.59064 450.03757 349.02814Q449.10007 348.46564 448.58444 347.45Q448.06882 346.4344 448.06882 345.15314Q448.06882 343.8875 448.58444 342.84064Q449.10007 341.79376 450.0532 341.2469Q451.00632 340.7 452.1782 340.7Q453.3657 340.7 454.31882 341.27814Q455.28757 341.84064 455.78757 342.85626Q456.28757 343.8719 456.28757 345.15314Q456.28757 346.21564 455.95944 347.0594Q455.64694 347.90314 454.9907 348.52814ZM452.4907 347.075Q453.47507 347.35626 454.1157 347.90314Q455.1157 346.98126 455.1157 345.15314Q455.1157 344.10626 454.75632 343.325Q454.39694 342.54376 453.70944 342.1219Q453.03757 341.6844 452.19382 341.6844Q450.91257 341.6844 450.06882 342.5594Q449.2407 343.41876 449.2407 345.15314Q449.2407 346.825 450.06882 347.73126Q450.89694 348.6219 452.19382 348.6219Q452.8032 348.6219 453.33444 348.3875Q452.8032 348.04376 452.20944 347.90314L452.4907 347.075ZM457.47507 349.45L457.47507 340.85626L460.72507 340.85626Q461.56882 340.85626 462.02194 340.9344Q462.66257 341.04376 463.08444 341.34064Q463.52194 341.6375 463.77194 342.16876Q464.03757 342.7 464.03757 343.34064Q464.03757 344.4344 463.33444 345.2Q462.64694 345.95 460.81882 345.95L458.6157 345.95L458.6157 349.45L457.47507 349.45ZM458.6157 344.95L460.83444 344.95Q461.94382 344.95 462.39694 344.54376Q462.8657 344.1219 462.8657 343.3719Q462.8657 342.84064 462.58444 342.46564Q462.31882 342.075 461.88132 341.95Q461.58444 341.8719 460.81882 341.8719L458.6157 341.8719L458.6157 344.95Z" fill-rule="nonzero"/><path fill="#757575" d="M30.315624 32.534374L32.20625 33.003124Q31.6125 35.346874 30.065624 36.58125Q28.51875 37.8 26.26875 37.8Q23.95625 37.8 22.503124 36.8625Q21.065624 35.909374 20.3 34.128124Q19.55 32.33125 19.55 30.284374Q19.55 28.05 20.39375 26.39375Q21.253124 24.721874 22.83125 23.8625Q24.409374 22.9875 26.3 22.9875Q28.45625 22.9875 29.909374 24.08125Q31.378124 25.175 31.95625 27.159374L30.096874 27.596874Q29.596874 26.034374 28.64375 25.33125Q27.70625 24.6125 26.26875 24.6125Q24.6125 24.6125 23.503124 25.409374Q22.39375 26.190624 21.940624 27.534374Q21.503124 28.8625 21.503124 30.26875Q21.503124 32.096874 22.034374 33.471874Q22.565624 34.83125 23.690624 35.503124Q24.815624 36.175 26.1125 36.175Q27.70625 36.175 28.815624 35.253124Q29.925 34.33125 30.315624 32.534374ZM33.221874 32.3625Q33.221874 29.4875 34.815624 28.096874Q36.159374 26.940624 38.08125 26.940624Q40.221874 26.940624 41.565624 28.346874Q42.925 29.753124 42.925 32.221874Q42.925 34.221874 42.33125 35.378124Q41.7375 36.51875 40.58125 37.159374Q39.440624 37.784374 38.08125 37.784374Q35.89375 37.784374 34.55 36.39375Q33.221874 34.9875 33.221874 32.3625ZM35.01875 32.3625Q35.01875 34.3625 35.878124 35.346874Q36.753124 36.33125 38.08125 36.33125Q39.39375 36.33125 40.253124 35.346874Q41.128124 34.346874 41.128124 32.3Q41.128124 30.378124 40.253124 29.39375Q39.378124 28.39375 38.08125 28.39375Q36.753124 28.39375 35.878124 29.39375Q35.01875 30.378124 35.01875 32.3625ZM44.8625 37.55L44.8625 27.175L46.45625 27.175L46.45625 28.659374Q47.596874 26.940624 49.753124 26.940624Q50.690624 26.940624 51.471874 27.284374Q52.26875 27.6125 52.659374 28.159374Q53.05 28.70625 53.20625 29.45625Q53.3 29.95625 53.3 31.175L53.3 37.55L51.534374 37.55L51.534374 31.2375Q51.534374 30.159374 51.33125 29.628124Q51.128124 29.096874 50.596874 28.784374Q50.08125 28.471874 49.378124 28.471874Q48.253124 28.471874 47.440624 29.190624Q46.628124 29.89375 46.628124 31.878124L46.628124 37.55L44.8625 37.55ZM54.159374 34.45625L55.909374 34.175Q56.05 35.221874 56.721874 35.784374Q57.39375 36.33125 58.596874 36.33125Q59.8 36.33125 60.378124 35.846874Q60.971874 35.346874 60.971874 34.690624Q60.971874 34.096874 60.45625 33.753124Q60.096874 33.51875 58.659374 33.159374Q56.721874 32.659374 55.971874 32.315624Q55.2375 31.95625 54.846874 31.33125Q54.45625 30.690624 54.45625 29.925Q54.45625 29.2375 54.76875 28.64375Q55.096874 28.05 55.64375 27.659374Q56.05 27.3625 56.753124 27.159374Q57.471874 26.940624 58.284374 26.940624Q59.503124 26.940624 60.425 27.3Q61.346874 27.64375 61.784374 28.253124Q62.221874 28.846874 62.39375 29.846874L60.675 30.08125Q60.55 29.284374 59.9875 28.846874Q59.425 28.39375 58.409374 28.39375Q57.190624 28.39375 56.675 28.8Q56.159374 29.190624 56.159374 29.721874Q56.159374 30.065624 56.378124 30.346874Q56.58125 30.628124 57.05 30.815624Q57.315624 30.909374 58.596874 31.253124Q60.471874 31.753124 61.20625 32.08125Q61.940624 32.39375 62.3625 33.003124Q62.784374 33.596874 62.784374 34.503124Q62.784374 35.378124 62.26875 36.159374Q61.753124 36.940624 60.784374 37.3625Q59.815624 37.784374 58.596874 37.784374Q56.58125 37.784374 55.51875 36.940624Q54.45625 36.096874 54.159374 34.45625ZM71.65938 37.55L71.65938 36.01875Q70.45625 37.784374 68.37813 37.784374Q67.45625 37.784374 66.65938 37.440624Q65.8625 37.08125 65.47188 36.55Q65.09688 36.01875 64.94063 35.2375Q64.83125 34.721874 64.83125 33.596874L64.83125 27.175L66.58125 27.175L66.58125 32.925Q66.58125 34.3 66.69063 34.784374Q66.8625 35.471874 67.39375 35.878124Q67.94063 36.26875 68.72188 36.26875Q69.51875 36.26875 70.20625 35.8625Q70.90938 35.45625 71.19063 34.76875Q71.4875 34.065624 71.4875 32.7375L71.4875 27.175L73.2375 27.175L73.2375 37.55L71.65938 37.55ZM74.8625 37.55L74.8625 27.175L76.44063 27.175L76.44063 28.628124Q76.925 27.878124 77.7375 27.409374Q78.55 26.940624 79.58125 26.940624Q80.7375 26.940624 81.47188 27.425Q82.20625 27.89375 82.51875 28.753124Q83.75313 26.940624 85.72188 26.940624Q87.26875 26.940624 88.09688 27.8Q88.925 28.659374 88.925 30.425L88.925 37.55L87.175 37.55L87.175 31.01875Q87.175 29.95625 87.00313 29.503124Q86.83125 29.034374 86.37813 28.753124Q85.94063 28.471874 85.33125 28.471874Q84.2375 28.471874 83.50313 29.20625Q82.78438 29.925 82.78438 31.51875L82.78438 37.55L81.03438 37.55L81.03438 30.815624Q81.03438 29.64375 80.59688 29.065624Q80.175 28.471874 79.19063 28.471874Q78.45625 28.471874 77.81563 28.8625Q77.19063 29.253124 76.90938 30.003124Q76.62813 30.753124 76.62813 32.175L76.62813 37.55L74.8625 37.55ZM90.87813 25.253124L90.87813 23.2375L92.64375 23.2375L92.64375 25.253124L90.87813 25.253124ZM90.87813 37.55L90.87813 27.175L92.64375 27.175L92.64375 37.55L90.87813 37.55ZM94.8625 37.55L94.8625 27.175L96.45625 27.175L96.45625 28.659374Q97.59688 26.940624 99.75313 26.940624Q100.69063 26.940624 101.47188 27.284374Q102.26875 27.6125 102.65938 28.159374Q103.05 28.70625 103.20625 29.45625Q103.3 29.95625 103.3 31.175L103.3 37.55L101.53438 37.55L101.53438 31.2375Q101.53438 30.159374 101.33125 29.628124Q101.12813 29.096874 100.59688 28.784374Q100.08125 28.471874 99.37813 28.471874Q98.25313 28.471874 97.44063 29.190624Q96.62813 29.89375 96.62813 31.878124L96.62813 37.55L94.8625 37.55ZM104.55 38.409374L106.25313 38.659374Q106.3625 39.45625 106.84688 39.815624Q107.50313 40.3 108.64375 40.3Q109.8625 40.3 110.51875 39.815624Q111.19063 39.33125 111.425 38.45625Q111.56563 37.909374 111.55 36.190624Q110.39375 37.55 108.675 37.55Q106.53438 37.55 105.3625 36.003124Q104.19063 34.45625 104.19063 32.3Q104.19063 30.815624 104.72188 29.565624Q105.26875 28.315624 106.28438 27.628124Q107.31563 26.940624 108.69063 26.940624Q110.51875 26.940624 111.72188 28.425L111.72188 27.175L113.33125 27.175L113.33125 36.14375Q113.33125 38.565624 112.83125 39.565624Q112.34688 40.58125 111.26875 41.159374Q110.20625 41.753124 108.64375 41.753124Q106.8 41.753124 105.64375 40.925Q104.50313 40.096874 104.55 38.409374ZM106.00313 32.175Q106.00313 34.221874 106.81563 35.159374Q107.62813 36.096874 108.84688 36.096874Q110.05 36.096874 110.8625 35.159374Q111.69063 34.221874 111.69063 32.2375Q111.69063 30.33125 110.84688 29.3625Q110.00313 28.39375 108.81563 28.39375Q107.64375 28.39375 106.81563 29.346874Q106.00313 30.3 106.00313 32.175ZM121.8625 37.55L121.8625 27.175L123.44063 27.175L123.44063 28.628124Q123.925 27.878124 124.7375 27.409374Q125.55 26.940624 126.58125 26.940624Q127.7375 26.940624 128.47188 27.425Q129.20625 27.89375 129.51875 28.753124Q130.75313 26.940624 132.72188 26.940624Q134.26875 26.940624 135.09688 27.8Q135.925 28.659374 135.925 30.425L135.925 37.55L134.175 37.55L134.175 31.01875Q134.175 29.95625 134.00313 29.503124Q133.83125 29.034374 133.37813 28.753124Q132.94063 28.471874 132.33125 28.471874Q131.2375 28.471874 130.50313 29.20625Q129.78438 29.925 129.78438 31.51875L129.78438 37.55L128.03438 37.55L128.03438 30.815624Q128.03438 29.64375 127.59688 29.065624Q127.175 28.471874 126.19063 28.471874Q125.45625 28.471874 124.81563 28.8625Q124.19063 29.253124 123.90938 30.003124Q123.62813 30.753124 123.62813 32.175L123.62813 37.55L121.8625 37.55ZM137.15938 34.45625L138.90938 34.175Q139.05 35.221874 139.72188 35.784374Q140.39375 36.33125 141.59688 36.33125Q142.8 36.33125 143.37813 35.846874Q143.97188 35.346874 143.97188 34.690624Q143.97188 34.096874 143.45625 33.753124Q143.09688 33.51875 141.65938 33.159374Q139.72188 32.659374 138.97188 32.315624Q138.2375 31.95625 137.84688 31.33125Q137.45625 30.690624 137.45625 29.925Q137.45625 29.2375 137.76875 28.64375Q138.09688 28.05 138.64375 27.659374Q139.05 27.3625 139.75313 27.159374Q140.47188 26.940624 141.28438 26.940624Q142.50313 26.940624 143.425 27.3Q144.34688 27.64375 144.78438 28.253124Q145.22188 28.846874 145.39375 29.846874L143.675 30.08125Q143.55 29.284374 142.9875 28.846874Q142.425 28.39375 141.40938 28.39375Q140.19063 28.39375 139.675 28.8Q139.15938 29.190624 139.15938 29.721874Q139.15938 30.065624 139.37813 30.346874Q139.58125 30.628124 140.05 30.815624Q140.31563 30.909374 141.59688 31.253124Q143.47188 31.753124 144.20625 32.08125Q144.94063 32.39375 145.3625 33.003124Q145.78438 33.596874 145.78438 34.503124Q145.78438 35.378124 145.26875 36.159374Q144.75313 36.940624 143.78438 37.3625Q142.81563 37.784374 141.59688 37.784374Q139.58125 37.784374 138.51875 36.940624Q137.45625 36.096874 137.15938 34.45625ZM147.55 38.409374L149.25313 38.659374Q149.3625 39.45625 149.84688 39.815624Q150.50313 40.3 151.64375 40.3Q152.8625 40.3 153.51875 39.815624Q154.19063 39.33125 154.425 38.45625Q154.56563 37.909374 154.55 36.190624Q153.39375 37.55 151.675 37.55Q149.53438 37.55 148.3625 36.003124Q147.19063 34.45625 147.19063 32.3Q147.19063 30.815624 147.72188 29.565624Q148.26875 28.315624 149.28438 27.628124Q150.31563 26.940624 151.69063 26.940624Q153.51875 26.940624 154.72188 28.425L154.72188 27.175L156.33125 27.175L156.33125 36.14375Q156.33125 38.565624 155.83125 39.565624Q155.34688 40.58125 154.26875 41.159374Q153.20625 41.753124 151.64375 41.753124Q149.8 41.753124 148.64375 40.925Q147.50313 40.096874 147.55 38.409374ZM149.00313 32.175Q149.00313 34.221874 149.81563 35.159374Q150.62813 36.096874 151.84688 36.096874Q153.05 36.096874 153.8625 35.159374Q154.69063 34.221874 154.69063 32.2375Q154.69063 30.33125 153.84688 29.3625Q153.00313 28.39375 151.81563 28.39375Q150.64375 28.39375 149.81563 29.346874Q149.00313 30.3 149.00313 32.175ZM158.15938 34.45625L159.90938 34.175Q160.05 35.221874 160.72188 35.784374Q161.39375 36.33125 162.59688 36.33125Q163.8 36.33125 164.37813 35.846874Q164.97188 35.346874 164.97188 34.690624Q164.97188 34.096874 164.45625 33.753124Q164.09688 33.51875 162.65938 33.159374Q160.72188 32.659374 159.97188 32.315624Q159.2375 31.95625 158.84688 31.33125Q158.45625 30.690624 158.45625 29.925Q158.45625 29.2375 158.76875 28.64375Q159.09688 28.05 159.64375 27.659374Q160.05 27.3625 160.75313 27.159374Q161.47188 26.940624 162.28438 26.940624Q163.50313 26.940624 164.425 27.3Q165.34688 27.64375 165.78438 28.253124Q166.22188 28.846874 166.39375 29.846874L164.675 30.08125Q164.55 29.284374 163.9875 28.846874Q163.425 28.39375 162.40938 28.39375Q161.19063 28.39375 160.675 28.8Q160.15938 29.190624 160.15938 29.721874Q160.15938 30.065624 160.37813 30.346874Q160.58125 30.628124 161.05 30.815624Q161.31563 30.909374 162.59688 31.253124Q164.47188 31.753124 165.20625 32.08125Q165.94063 32.39375 166.3625 33.003124Q166.78438 33.596874 166.78438 34.503124Q166.78438 35.378124 166.26875 36.159374Q165.75313 36.940624 164.78438 37.3625Q163.81563 37.784374 162.59688 37.784374Q160.58125 37.784374 159.51875 36.940624Q158.45625 36.096874 158.15938 34.45625ZM167.55 37.8L171.70625 22.9875L173.1125 22.9875L168.97188 37.8L167.55 37.8ZM174.15938 34.45625L175.90938 34.175Q176.05 35.221874 176.72188 35.784374Q177.39375 36.33125 178.59688 36.33125Q179.8 36.33125 180.37813 35.846874Q180.97188 35.346874 180.97188 34.690624Q180.97188 34.096874 180.45625 33.753124Q180.09688 33.51875 178.65938 33.159374Q176.72188 32.659374 175.97188 32.315624Q175.2375 31.95625 174.84688 31.33125Q174.45625 30.690624 174.45625 29.925Q174.45625 29.2375 174.76875 28.64375Q175.09688 28.05 175.64375 27.659374Q176.05 27.3625 176.75313 27.159374Q177.47188 26.940624 178.28438 26.940624Q179.50313 26.940624 180.425 27.3Q181.34688 27.64375 181.78438 28.253124Q182.22188 28.846874 182.39375 29.846874L180.675 30.08125Q180.55 29.284374 179.9875 28.846874Q179.425 28.39375 178.40938 28.39375Q177.19063 28.39375 176.675 28.8Q176.15938 29.190624 176.15938 29.721874Q176.15938 30.065624 176.37813 30.346874Q176.58125 30.628124 177.05 30.815624Q177.31563 30.909374 178.59688 31.253124Q180.47188 31.753124 181.20625 32.08125Q181.94063 32.39375 182.3625 33.003124Q182.78438 33.596874 182.78438 34.503124Q182.78438 35.378124 182.26875 36.159374Q181.75313 36.940624 180.78438 37.3625Q179.81563 37.784374 178.59688 37.784374Q176.58125 37.784374 175.51875 36.940624Q174.45625 36.096874 174.15938 34.45625ZM194.22188 41.753124Q192.76875 39.925 191.76875 37.471874Q190.76875 35.003124 190.76875 32.3625Q190.76875 30.034374 191.51875 27.909374Q192.39375 25.440624 194.22188 22.9875L195.4875 22.9875Q194.3 25.01875 193.925 25.89375Q193.33125 27.2375 192.9875 28.70625Q192.56563 30.534374 192.56563 32.378124Q192.56563 37.065624 195.4875 41.753124L194.22188 41.753124ZM197.55 38.409374L199.25313 38.659374Q199.3625 39.45625 199.84688 39.815624Q200.50313 40.3 201.64375 40.3Q202.8625 40.3 203.51875 39.815624Q204.19063 39.33125 204.425 38.45625Q204.56563 37.909374 204.55 36.190624Q203.39375 37.55 201.675 37.55Q199.53438 37.55 198.3625 36.003124Q197.19063 34.45625 197.19063 32.3Q197.19063 30.815624 197.72188 29.565624Q198.26875 28.315624 199.28438 27.628124Q200.31563 26.940624 201.69063 26.940624Q203.51875 26.940624 204.72188 28.425L204.72188 27.175L206.33125 27.175L206.33125 36.14375Q206.33125 38.565624 205.83125 39.565624Q205.34688 40.58125 204.26875 41.159374Q203.20625 41.753124 201.64375 41.753124Q199.8 41.753124 198.64375 40.925Q197.50313 40.096874 197.55 38.409374ZM199.00313 32.175Q199.00313 34.221874 199.81563 35.159374Q200.62813 36.096874 201.84688 36.096874Q203.05 36.096874 203.8625 35.159374Q204.69063 34.221874 204.69063 32.2375Q204.69063 30.33125 203.84688 29.3625Q203.00313 28.39375 201.81563 28.39375Q200.64375 28.39375 199.81563 29.346874Q199.00313 30.3 199.00313 32.175ZM208.84688 37.55L208.84688 27.175L210.425 27.175L210.425 28.753124Q211.03438 27.64375 211.55 27.3Q212.06563 26.940624 212.675 26.940624Q213.56563 26.940624 214.4875 27.503124L213.87813 29.14375Q213.2375 28.753124 212.59688 28.753124Q212.01875 28.753124 211.55 29.1125Q211.09688 29.45625 210.89375 30.065624Q210.6125 31.003124 210.6125 32.1125L210.6125 37.55L208.84688 37.55ZM222.97188 34.20625L224.78438 34.440624Q224.3625 36.01875 223.19063 36.909374Q222.03438 37.784374 220.22188 37.784374Q217.95625 37.784374 216.6125 36.39375Q215.28438 34.9875 215.28438 32.45625Q215.28438 29.83125 216.62813 28.39375Q217.97188 26.940624 220.12813 26.940624Q222.20625 26.940624 223.51875 28.3625Q224.84688 29.76875 224.84688 32.346874Q224.84688 32.503124 224.83125 32.815624L217.09688 32.815624Q217.19063 34.51875 218.06563 35.425Q218.94063 36.33125 220.2375 36.33125Q221.20625 36.33125 221.87813 35.83125Q222.56563 35.315624 222.97188 34.20625ZM217.19063 31.3625L222.9875 31.3625Q222.87813 30.065624 222.33125 29.409374Q221.4875 28.39375 220.14375 28.39375Q218.94063 28.39375 218.1125 29.20625Q217.28438 30.003124 217.19063 31.3625ZM233.64375 36.26875Q232.65938 37.096874 231.75313 37.440624Q230.84688 37.784374 229.81563 37.784374Q228.1125 37.784374 227.19063 36.95625Q226.26875 36.1125 226.26875 34.815624Q226.26875 34.05 226.6125 33.425Q226.97188 32.8 227.53438 32.425Q228.09688 32.034374 228.8 31.83125Q229.31563 31.70625 230.3625 31.565624Q232.4875 31.315624 233.4875 30.971874Q233.50313 30.6125 233.50313 30.503124Q233.50313 29.440624 233.00313 28.9875Q232.33125 28.39375 231.00313 28.39375Q229.75313 28.39375 229.15938 28.83125Q228.58125 29.26875 228.3 30.378124L226.58125 30.14375Q226.81563 29.034374 227.34688 28.3625Q227.87813 27.675 228.89375 27.315624Q229.90938 26.940624 231.25313 26.940624Q232.58125 26.940624 233.40938 27.253124Q234.2375 27.565624 234.62813 28.05Q235.01875 28.51875 235.175 29.2375Q235.26875 29.690624 235.26875 30.8625L235.26875 33.20625Q235.26875 35.659374 235.37813 36.315624Q235.4875 36.95625 235.83125 37.55L233.9875 37.55Q233.72188 37.003124 233.64375 36.26875ZM233.4875 32.346874Q232.53438 32.7375 230.6125 33.003124Q229.53438 33.159374 229.08125 33.3625Q228.64375 33.55 228.39375 33.925Q228.14375 34.3 228.14375 34.76875Q228.14375 35.471874 228.675 35.940624Q229.20625 36.409374 230.2375 36.409374Q231.25313 36.409374 232.03438 35.971874Q232.83125 35.51875 233.20625 34.753124Q233.4875 34.14375 233.4875 32.9875L233.4875 32.346874ZM241.70625 35.971874L241.95625 37.534374Q241.22188 37.690624 240.62813 37.690624Q239.675 37.690624 239.14375 37.39375Q238.62813 37.08125 238.40938 36.596874Q238.19063 36.096874 238.19063 34.51875L238.19063 28.55L236.90938 28.55L236.90938 27.175L238.19063 27.175L238.19063 24.6125L239.94063 23.55L239.94063 27.175L241.70625 27.175L241.70625 28.55L239.94063 28.55L239.94063 34.6125Q239.94063 35.3625 240.03438 35.58125Q240.12813 35.784374 240.33125 35.925Q240.55 36.05 240.94063 36.05Q241.22188 36.05 241.70625 35.971874ZM250.97188 34.20625L252.78438 34.440624Q252.3625 36.01875 251.19063 36.909374Q250.03438 37.784374 248.22188 37.784374Q245.95625 37.784374 244.6125 36.39375Q243.28438 34.9875 243.28438 32.45625Q243.28438 29.83125 244.62813 28.39375Q245.97188 26.940624 248.12813 26.940624Q250.20625 26.940624 251.51875 28.3625Q252.84688 29.76875 252.84688 32.346874Q252.84688 32.503124 252.83125 32.815624L245.09688 32.815624Q245.19063 34.51875 246.06563 35.425Q246.94063 36.33125 248.2375 36.33125Q249.20625 36.33125 249.87813 35.83125Q250.56563 35.315624 250.97188 34.20625ZM245.19063 31.3625L250.9875 31.3625Q250.87813 30.065624 250.33125 29.409374Q249.4875 28.39375 248.14375 28.39375Q246.94063 28.39375 246.1125 29.20625Q245.28438 30.003124 245.19063 31.3625ZM254.84688 37.55L254.84688 27.175L256.425 27.175L256.425 28.753124Q257.03436 27.64375 257.55 27.3Q258.0656 26.940624 258.675 26.940624Q259.5656 26.940624 260.4875 27.503124L259.8781 29.14375Q259.2375 28.753124 258.59686 28.753124Q258.01874 28.753124 257.55 29.1125Q257.09686 29.45625 256.89374 30.065624Q256.6125 31.003124 256.6125 32.1125L256.6125 37.55L254.84688 37.55ZM261.1906 33.253124L261.1906 31.4875L266.58124 31.4875L266.58124 33.253124L261.1906 33.253124ZM270.4875 37.55L268.8625 37.55L268.8625 23.2375L270.6125 23.2375L270.6125 28.346874Q271.7375 26.940624 273.45624 26.940624Q274.40936 26.940624 275.26874 27.33125Q276.1281 27.721874 276.675 28.425Q277.22186 29.1125 277.53436 30.096874Q277.84686 31.08125 277.84686 32.20625Q277.84686 34.878124 276.53436 36.33125Q275.22186 37.784374 273.3781 37.784374Q271.53436 37.784374 270.4875 36.253124L270.4875 37.55ZM270.47186 32.284374Q270.47186 34.14375 270.97186 34.9875Q271.8156 36.33125 273.22186 36.33125Q274.3781 36.33125 275.20624 35.33125Q276.05 34.33125 276.05 32.346874Q276.05 30.315624 275.2375 29.3625Q274.4406 28.39375 273.3 28.39375Q272.14374 28.39375 271.3 29.39375Q270.47186 30.39375 270.47186 32.284374ZM286.97186 34.20625L288.78436 34.440624Q288.3625 36.01875 287.1906 36.909374Q286.03436 37.784374 284.22186 37.784374Q281.95624 37.784374 280.6125 36.39375Q279.28436 34.9875 279.28436 32.45625Q279.28436 29.83125 280.6281 28.39375Q281.97186 26.940624 284.1281 26.940624Q286.20624 26.940624 287.51874 28.3625Q288.84686 29.76875 288.84686 32.346874Q288.84686 32.503124 288.83124 32.815624L281.09686 32.815624Q281.1906 34.51875 282.0656 35.425Q282.9406 36.33125 284.2375 36.33125Q285.20624 36.33125 285.8781 35.83125Q286.5656 35.315624 286.97186 34.20625ZM281.1906 31.3625L286.9875 31.3625Q286.8781 30.065624 286.33124 29.409374Q285.4875 28.39375 284.14374 28.39375Q282.9406 28.39375 282.1125 29.20625Q281.28436 30.003124 281.1906 31.3625ZM294.70624 35.971874L294.95624 37.534374Q294.22186 37.690624 293.6281 37.690624Q292.675 37.690624 292.14374 37.39375Q291.6281 37.08125 291.40936 36.596874Q291.1906 36.096874 291.1906 34.51875L291.1906 28.55L289.90936 28.55L289.90936 27.175L291.1906 27.175L291.1906 24.6125L292.9406 23.55L292.9406 27.175L294.70624 27.175L294.70624 28.55L292.9406 28.55L292.9406 34.6125Q292.9406 35.3625 293.03436 35.58125Q293.1281 35.784374 293.33124 35.925Q293.55 36.05 293.9406 36.05Q294.22186 36.05 294.70624 35.971874ZM300.70624 35.971874L300.95624 37.534374Q300.22186 37.690624 299.6281 37.690624Q298.675 37.690624 298.14374 37.39375Q297.6281 37.08125 297.40936 36.596874Q297.1906 36.096874 297.1906 34.51875L297.1906 28.55L295.90936 28.55L295.90936 27.175L297.1906 27.175L297.1906 24.6125L298.9406 23.55L298.9406 27.175L300.70624 27.175L300.70624 28.55L298.9406 28.55L298.9406 34.6125Q298.9406 35.3625 299.03436 35.58125Q299.1281 35.784374 299.33124 35.925Q299.55 36.05 299.9406 36.05Q300.22186 36.05 300.70624 35.971874ZM309.97186 34.20625L311.78436 34.440624Q311.3625 36.01875 310.1906 36.909374Q309.03436 37.784374 307.22186 37.784374Q304.95624 37.784374 303.6125 36.39375Q302.28436 34.9875 302.28436 32.45625Q302.28436 29.83125 303.6281 28.39375Q304.97186 26.940624 307.1281 26.940624Q309.20624 26.940624 310.51874 28.3625Q311.84686 29.76875 311.84686 32.346874Q311.84686 32.503124 311.83124 32.815624L304.09686 32.815624Q304.1906 34.51875 305.0656 35.425Q305.9406 36.33125 307.2375 36.33125Q308.20624 36.33125 308.8781 35.83125Q309.5656 35.315624 309.97186 34.20625ZM304.1906 31.3625L309.9875 31.3625Q309.8781 30.065624 309.33124 29.409374Q308.4875 28.39375 307.14374 28.39375Q305.9406 28.39375 305.1125 29.20625Q304.28436 30.003124 304.1906 31.3625ZM313.84686 37.55L313.84686 27.175L315.425 27.175L315.425 28.753124Q316.03436 27.64375 316.55 27.3Q317.0656 26.940624 317.675 26.940624Q318.5656 26.940624 319.4875 27.503124L318.8781 29.14375Q318.2375 28.753124 317.59686 28.753124Q317.01874 28.753124 316.55 29.1125Q316.09686 29.45625 315.89374 30.065624Q315.6125 31.003124 315.6125 32.1125L315.6125 37.55L313.84686 37.55ZM322.01874 41.753124L320.76874 41.753124Q323.675 37.065624 323.675 32.378124Q323.675 30.534374 323.26874 28.7375Q322.925 27.26875 322.33124 25.925Q321.95624 25.034374 320.76874 22.9875L322.01874 22.9875Q323.8625 25.440624 324.7375 27.909374Q325.4875 30.034374 325.4875 32.3625Q325.4875 35.003124 324.47186 37.471874Q323.47186 39.925 322.01874 41.753124Z" fill-rule="nonzero"/></svg>