<svg version="1.1" viewBox="0.0 0.0 600.0 371.0" fill="none" stroke="none" stroke-linecap="square" stroke-miterlimit="10" width="600" height="371" xmlns:xlink="http://www.w3.org/1999/xlink" xmlns="http://www.w3.org/2000/svg"><path fill="#ffffff" d="M0 0L600.0 0L600.0 371.0L0 371.0L0 0Z" fill-rule="nonzero"/><path stroke="#333333" stroke-width="1.0" stroke-linecap="butt" d="M118.5 332.5L581.5 332.5" fill-rule="nonzero"/><path stroke="#cccccc" stroke-width="1.0" stroke-linecap="butt" d="M118.5 242.5L581.5 242.5" fill-rule="nonzero"/><path stroke="#cccccc" stroke-width="1.0" stroke-linecap="butt" d="M118.5 152.5L581.5 152.5" fill-rule="nonzero"/><path stroke="#cccccc" stroke-width="1.0" stroke-linecap="butt" d="M118.5 61.5L581.5 61.5" fill-rule="nonzero"/><clipPath id="id_0"><path d="M118.55 61.916668L581.45 61.916668L581.45 332.45L118.55 332.45L118.55 61.916668Z" clip-rule="nonzero"/></clipPath><path stroke="#000000" stroke-width="2.0" stroke-linecap="butt" stroke-opacity="0.0" clip-path="url(#id_0)" d="M316.0 332.0L188.0 332.0L188.0 90.0C188.0 88.89543 188.89543 88.0 190.0 88.0L314.0 88.0C315.10458 88.0 316.0 88.89543 316.0 90.0Z" fill-rule="nonzero"/><path fill="#4285f4" clip-path="url(#id_0)" d="M316.0 332.0L188.0 332.0L188.0 90.0C188.0 88.89543 188.89543 88.0 190.0 88.0L314.0 88.0C315.10458 88.0 316.0 88.89543 316.0 90.0Z" fill-rule="nonzero"/><path stroke="#000000" stroke-width="2.0" stroke-linecap="butt" stroke-opacity="0.0" clip-path="url(#id_0)" d="M512.0 332.0L384.0 332.0L384.0 212.0C384.0 210.89543 384.89542 210.0 386.0 210.0L510.0 210.0C511.10458 210.0 512.0 210.89543 512.0 212.0Z" fill-rule="nonzero"/><path fill="#4285f4" clip-path="url(#id_0)" d="M512.0 332.0L384.0 332.0L384.0 212.0C384.0 210.89543 384.89542 210.0 386.0 210.0L510.0 210.0C511.10458 210.0 512.0 210.89543 512.0 212.0Z" fill-rule="nonzero"/><path stroke="#4285f4" stroke-width="3.0" stroke-linejoin="round" stroke-linecap="round" d="M225.76562 104.77686L224.6875 104.77686L224.6875 97.55811L222.5 98.35499L222.5 97.37061L225.60938 96.19874L225.76562 96.19874L225.76562 104.77686ZM230.78125 99.97999L231.59375 99.97999Q232.375 99.96436 232.8125 99.57374Q233.25 99.18311 233.25 98.51124Q233.25 97.01124 231.75 97.01124Q231.04688 97.01124 230.625 97.41749Q230.21875 97.82374 230.21875 98.47999L229.125 98.47999Q229.125 97.46436 229.85938 96.79249Q230.60938 96.12061 231.75 96.12061Q232.95312 96.12061 233.64062 96.76124Q234.32812 97.40186 234.32812 98.54249Q234.32812 99.10499 233.96875 99.62061Q233.60938 100.13624 232.98438 100.40186Q233.6875 100.62061 234.0625 101.13624Q234.45312 101.65186 234.45312 102.40186Q234.45312 103.54249 233.70312 104.22999Q232.95312 104.90186 231.75 104.90186Q230.5625 104.90186 229.79688 104.24561Q229.04688 103.58936 229.04688 102.52686L230.14062 102.52686Q230.14062 103.19874 230.57812 103.60499Q231.01562 104.01124 231.76562 104.01124Q232.54688 104.01124 232.95312 103.60499Q233.375 103.18311 233.375 102.41749Q233.375 101.68311 232.92188 101.29249Q232.46875 100.88624 231.59375 100.87061L230.78125 100.87061L230.78125 99.97999ZM236.70312 100.49561L237.14062 96.24561L241.51562 96.24561L241.51562 97.24561L238.0625 97.24561L237.79688 99.57374Q238.4375 99.19874 239.23438 99.19874Q240.39062 99.19874 241.07812 99.97999Q241.76562 100.74561 241.76562 102.05811Q241.76562 103.37061 241.04688 104.13624Q240.34375 104.90186 239.0625 104.90186Q237.9375 104.90186 237.21875 104.27686Q236.5 103.63624 236.40625 102.52686L237.42188 102.52686Q237.53125 103.26124 237.95312 103.63624Q238.375 104.01124 239.0625 104.01124Q239.8125 104.01124 240.25 103.49561Q240.6875 102.97999 240.6875 102.07374Q240.6875 101.21436 240.21875 100.69874Q239.75 100.18311 238.96875 100.18311Q238.26562 100.18311 237.85938 100.47999L237.57812 100.71436L236.70312 100.49561ZM243.28125 106.47999L242.67188 106.05811Q243.21875 105.29249 243.25 104.46436L243.25 103.49561L244.3125 103.49561L244.3125 104.33936Q244.3125 104.93311 244.01562 105.52686Q243.71875 106.12061 243.28125 106.47999ZM245.70312 100.49561L246.14062 96.24561L250.51562 96.24561L250.51562 97.24561L247.0625 97.24561L246.79688 99.57374Q247.4375 99.19874 248.23438 99.19874Q249.39062 99.19874 250.07812 99.97999Q250.76562 100.74561 250.76562 102.05811Q250.76562 103.37061 250.04688 104.13624Q249.34375 104.90186 248.0625 104.90186Q246.9375 104.90186 246.21875 104.27686Q245.5 103.63624 245.40625 102.52686L246.42188 102.52686Q246.53125 103.26124 246.95312 103.63624Q247.375 104.01124 248.0625 104.01124Q248.8125 104.01124 249.25 103.49561Q249.6875 102.97999 249.6875 102.07374Q249.6875 101.21436 249.21875 100.69874Q248.75 100.18311 247.96875 100.18311Q247.26562 100.18311 246.85938 100.47999L246.57812 100.71436L245.70312 100.49561ZM252.70312 100.49561L253.14062 96.24561L257.51562 96.24561L257.51562 97.24561L254.0625 97.24561L253.79688 99.57374Q254.4375 99.19874 255.23438 99.19874Q256.39062 99.19874 257.07812 99.97999Q257.76562 100.74561 257.76562 102.05811Q257.76562 103.37061 257.04688 104.13624Q256.34375 104.90186 255.0625 104.90186Q253.9375 104.90186 253.21875 104.27686Q252.5 103.63624 252.40625 102.52686L253.42188 102.52686Q253.53125 103.26124 253.95312 103.63624Q254.375 104.01124 255.0625 104.01124Q255.8125 104.01124 256.25 103.49561Q256.6875 102.97999 256.6875 102.07374Q256.6875 101.21436 256.21875 100.69874Q255.75 100.18311 254.96875 100.18311Q254.26562 100.18311 253.85938 100.47999L253.57812 100.71436L252.70312 100.49561ZM264.5625 101.13624Q264.5625 103.04249 263.90625 103.97999Q263.26562 104.90186 261.875 104.90186Q260.51562 104.90186 259.85938 103.99561Q259.20312 103.08936 259.17188 101.27686L259.17188 99.83936Q259.17188 97.94874 259.8125 97.04249Q260.46875 96.12061 261.85938 96.12061Q263.23438 96.12061 263.89062 97.01124Q264.54688 97.88624 264.5625 99.72999L264.5625 101.13624ZM263.46875 99.65186Q263.46875 98.27686 263.07812 97.65186Q262.70312 97.01124 261.85938 97.01124Q261.03125 97.01124 260.64062 97.65186Q260.26562 98.27686 260.26562 99.57374L260.26562 101.30811Q260.26562 102.68311 260.65625 103.35499Q261.0625 104.01124 261.875 104.01124Q262.67188 104.01124 263.0625 103.38624Q263.45312 102.76124 263.46875 101.43311L263.46875 99.65186ZM266.34375 104.21436Q266.34375 103.93311 266.5 103.74561Q266.67188 103.55811 267.0 103.55811Q267.34375 103.55811 267.51562 103.74561Q267.6875 103.93311 267.6875 104.21436Q267.6875 104.47999 267.51562 104.66749Q267.34375 104.83936 267.0 104.83936Q266.67188 104.83936 266.5 104.66749Q266.34375 104.47999 266.34375 104.21436ZM273.46875 96.24561L273.46875 97.15186L273.26562 97.15186Q272.0 97.18311 271.25 97.91749Q270.5 98.63624 270.375 99.94874Q271.0625 99.18311 272.21875 99.18311Q273.32812 99.18311 274.0 99.96436Q274.67188 100.74561 274.67188 101.99561Q274.67188 103.30811 273.95312 104.10499Q273.23438 104.90186 272.01562 104.90186Q270.79688 104.90186 270.03125 103.96436Q269.28125 103.01124 269.28125 101.52686L269.28125 101.12061Q269.28125 98.76124 270.28125 97.51124Q271.28125 96.26124 273.26562 96.24561L273.46875 96.24561ZM272.04688 100.08936Q271.48438 100.08936 271.01562 100.41749Q270.54688 100.74561 270.35938 101.26124L270.35938 101.65186Q270.35938 102.71436 270.82812 103.35499Q271.3125 103.99561 272.01562 103.99561Q272.75 103.99561 273.17188 103.46436Q273.59375 102.91749 273.59375 102.04249Q273.59375 101.16749 273.17188 100.63624Q272.75 100.08936 272.04688 100.08936ZM276.70312 100.49561L277.14062 96.24561L281.51562 96.24561L281.51562 97.24561L278.0625 97.24561L277.79688 99.57374Q278.4375 99.19874 279.23438 99.19874Q280.39062 99.19874 281.07812 99.97999Q281.76562 100.74561 281.76562 102.05811Q281.76562 103.37061 281.04688 104.13624Q280.34375 104.90186 279.0625 104.90186Q277.9375 104.90186 277.21875 104.27686Q276.5 103.63624 276.40625 102.52686L277.42188 102.52686Q277.53125 103.26124 277.95312 103.63624Q278.375 104.01124 279.0625 104.01124Q279.8125 104.01124 280.25 103.49561Q280.6875 102.97999 280.6875 102.07374Q280.6875 101.21436 280.21875 100.69874Q279.75 100.18311 278.96875 100.18311Q278.26562 100.18311 277.85938 100.47999L277.57812 100.71436L276.70312 100.49561Z" fill-rule="nonzero"/><path fill="#ffffff" d="M225.76562 104.77686L224.6875 104.77686L224.6875 97.55811L222.5 98.35499L222.5 97.37061L225.60938 96.19874L225.76562 96.19874L225.76562 104.77686ZM230.78125 99.97999L231.59375 99.97999Q232.375 99.96436 232.8125 99.57374Q233.25 99.18311 233.25 98.51124Q233.25 97.01124 231.75 97.01124Q231.04688 97.01124 230.625 97.41749Q230.21875 97.82374 230.21875 98.47999L229.125 98.47999Q229.125 97.46436 229.85938 96.79249Q230.60938 96.12061 231.75 96.12061Q232.95312 96.12061 233.64062 96.76124Q234.32812 97.40186 234.32812 98.54249Q234.32812 99.10499 233.96875 99.62061Q233.60938 100.13624 232.98438 100.40186Q233.6875 100.62061 234.0625 101.13624Q234.45312 101.65186 234.45312 102.40186Q234.45312 103.54249 233.70312 104.22999Q232.95312 104.90186 231.75 104.90186Q230.5625 104.90186 229.79688 104.24561Q229.04688 103.58936 229.04688 102.52686L230.14062 102.52686Q230.14062 103.19874 230.57812 103.60499Q231.01562 104.01124 231.76562 104.01124Q232.54688 104.01124 232.95312 103.60499Q233.375 103.18311 233.375 102.41749Q233.375 101.68311 232.92188 101.29249Q232.46875 100.88624 231.59375 100.87061L230.78125 100.87061L230.78125 99.97999ZM236.70312 100.49561L237.14062 96.24561L241.51562 96.24561L241.51562 97.24561L238.0625 97.24561L237.79688 99.57374Q238.4375 99.19874 239.23438 99.19874Q240.39062 99.19874 241.07812 99.97999Q241.76562 100.74561 241.76562 102.05811Q241.76562 103.37061 241.04688 104.13624Q240.34375 104.90186 239.0625 104.90186Q237.9375 104.90186 237.21875 104.27686Q236.5 103.63624 236.40625 102.52686L237.42188 102.52686Q237.53125 103.26124 237.95312 103.63624Q238.375 104.01124 239.0625 104.01124Q239.8125 104.01124 240.25 103.49561Q240.6875 102.97999 240.6875 102.07374Q240.6875 101.21436 240.21875 100.69874Q239.75 100.18311 238.96875 100.18311Q238.26562 100.18311 237.85938 100.47999L237.57812 100.71436L236.70312 100.49561ZM243.28125 106.47999L242.67188 106.05811Q243.21875 105.29249 243.25 104.46436L243.25 103.49561L244.3125 103.49561L244.3125 104.33936Q244.3125 104.93311 244.01562 105.52686Q243.71875 106.12061 243.28125 106.47999ZM245.70312 100.49561L246.14062 96.24561L250.51562 96.24561L250.51562 97.24561L247.0625 97.24561L246.79688 99.57374Q247.4375 99.19874 248.23438 99.19874Q249.39062 99.19874 250.07812 99.97999Q250.76562 100.74561 250.76562 102.05811Q250.76562 103.37061 250.04688 104.13624Q249.34375 104.90186 248.0625 104.90186Q246.9375 104.90186 246.21875 104.27686Q245.5 103.63624 245.40625 102.52686L246.42188 102.52686Q246.53125 103.26124 246.95312 103.63624Q247.375 104.01124 248.0625 104.01124Q248.8125 104.01124 249.25 103.49561Q249.6875 102.97999 249.6875 102.07374Q249.6875 101.21436 249.21875 100.69874Q248.75 100.18311 247.96875 100.18311Q247.26562 100.18311 246.85938 100.47999L246.57812 100.71436L245.70312 100.49561ZM252.70312 100.49561L253.14062 96.24561L257.51562 96.24561L257.51562 97.24561L254.0625 97.24561L253.79688 99.57374Q254.4375 99.19874 255.23438 99.19874Q256.39062 99.19874 257.07812 99.97999Q257.76562 100.74561 257.76562 102.05811Q257.76562 103.37061 257.04688 104.13624Q256.34375 104.90186 255.0625 104.90186Q253.9375 104.90186 253.21875 104.27686Q252.5 103.63624 252.40625 102.52686L253.42188 102.52686Q253.53125 103.26124 253.95312 103.63624Q254.375 104.01124 255.0625 104.01124Q255.8125 104.01124 256.25 103.49561Q256.6875 102.97999 256.6875 102.07374Q256.6875 101.21436 256.21875 100.69874Q255.75 100.18311 254.96875 100.18311Q254.26562 100.18311 253.85938 100.47999L253.57812 100.71436L252.70312 100.49561ZM264.5625 101.13624Q264.5625 103.04249 263.90625 103.97999Q263.26562 104.90186 261.875 104.90186Q260.51562 104.90186 259.85938 103.99561Q259.20312 103.08936 259.17188 101.27686L259.17188 99.83936Q259.17188 97.94874 259.8125 97.04249Q260.46875 96.12061 261.85938 96.12061Q263.23438 96.12061 263.89062 97.01124Q264.54688 97.88624 264.5625 99.72999L264.5625 101.13624ZM263.46875 99.65186Q263.46875 98.27686 263.07812 97.65186Q262.70312 97.01124 261.85938 97.01124Q261.03125 97.01124 260.64062 97.65186Q260.26562 98.27686 260.26562 99.57374L260.26562 101.30811Q260.26562 102.68311 260.65625 103.35499Q261.0625 104.01124 261.875 104.01124Q262.67188 104.01124 263.0625 103.38624Q263.45312 102.76124 263.46875 101.43311L263.46875 99.65186ZM266.34375 104.21436Q266.34375 103.93311 266.5 103.74561Q266.67188 103.55811 267.0 103.55811Q267.34375 103.55811 267.51562 103.74561Q267.6875 103.93311 267.6875 104.21436Q267.6875 104.47999 267.51562 104.66749Q267.34375 104.83936 267.0 104.83936Q266.67188 104.83936 266.5 104.66749Q266.34375 104.47999 266.34375 104.21436ZM273.46875 96.24561L273.46875 97.15186L273.26562 97.15186Q272.0 97.18311 271.25 97.91749Q270.5 98.63624 270.375 99.94874Q271.0625 99.18311 272.21875 99.18311Q273.32812 99.18311 274.0 99.96436Q274.67188 100.74561 274.67188 101.99561Q274.67188 103.30811 273.95312 104.10499Q273.23438 104.90186 272.01562 104.90186Q270.79688 104.90186 270.03125 103.96436Q269.28125 103.01124 269.28125 101.52686L269.28125 101.12061Q269.28125 98.76124 270.28125 97.51124Q271.28125 96.26124 273.26562 96.24561L273.46875 96.24561ZM272.04688 100.08936Q271.48438 100.08936 271.01562 100.41749Q270.54688 100.74561 270.35938 101.26124L270.35938 101.65186Q270.35938 102.71436 270.82812 103.35499Q271.3125 103.99561 272.01562 103.99561Q272.75 103.99561 273.17188 103.46436Q273.59375 102.91749 273.59375 102.04249Q273.59375 101.16749 273.17188 100.63624Q272.75 100.08936 272.04688 100.08936ZM276.70312 100.49561L277.14062 96.24561L281.51562 96.24561L281.51562 97.24561L278.0625 97.24561L277.79688 99.57374Q278.4375 99.19874 279.23438 99.19874Q280.39062 99.19874 281.07812 99.97999Q281.76562 100.74561 281.76562 102.05811Q281.76562 103.37061 281.04688 104.13624Q280.34375 104.90186 279.0625 104.90186Q277.9375 104.90186 277.21875 104.27686Q276.5 103.63624 276.40625 102.52686L277.42188 102.52686Q277.53125 103.26124 277.95312 103.63624Q278.375 104.01124 279.0625 104.01124Q279.8125 104.01124 280.25 103.49561Q280.6875 102.97999 280.6875 102.07374Q280.6875 101.21436 280.21875 100.69874Q279.75 100.18311 278.96875 100.18311Q278.26562 100.18311 277.85938 100.47999L277.57812 100.71436L276.70312 100.49561Z" fill-rule="nonzero"/><path stroke="#4285f4" stroke-width="3.0" stroke-linejoin="round" stroke-linecap="round" d="M425.96875 218.18942L425.96875 219.09567L425.76562 219.09567Q424.5 219.12692 423.75 219.8613Q423.0 220.58005 422.875 221.89255Q423.5625 221.12692 424.71875 221.12692Q425.82812 221.12692 426.5 221.90817Q427.17188 222.68942 427.17188 223.93942Q427.17188 225.25192 426.45312 226.0488Q425.73438 226.84567 424.51562 226.84567Q423.29688 226.84567 422.53125 225.90817Q421.78125 224.95505 421.78125 223.47067L421.78125 223.06442Q421.78125 220.70505 422.78125 219.45505Q423.78125 218.20505 425.76562 218.18942L425.96875 218.18942ZM424.54688 222.03317Q423.98438 222.03317 423.51562 222.3613Q423.04688 222.68942 422.85938 223.20505L422.85938 223.59567Q422.85938 224.65817 423.32812 225.2988Q423.8125 225.93942 424.51562 225.93942Q425.25 225.93942 425.67188 225.40817Q426.09375 224.8613 426.09375 223.9863Q426.09375 223.1113 425.67188 222.58005Q425.25 222.03317 424.54688 222.03317ZM434.21875 218.7988L430.6875 226.72067L429.54688 226.72067L433.0625 219.08005L428.45312 219.08005L428.45312 218.18942L434.21875 218.18942L434.21875 218.7988ZM435.78125 228.4238L435.17188 228.00192Q435.71875 227.2363 435.75 226.40817L435.75 225.43942L436.8125 225.43942L436.8125 226.28317Q436.8125 226.87692 436.51562 227.47067Q436.21875 228.06442 435.78125 228.4238ZM441.85938 222.97067Q441.53125 223.37692 441.04688 223.62692Q440.57812 223.8613 440.01562 223.8613Q439.28125 223.8613 438.73438 223.50192Q438.1875 223.14255 437.89062 222.4863Q437.59375 221.81442 437.59375 221.01755Q437.59375 220.1738 437.90625 219.4863Q438.23438 218.7988 438.82812 218.43942Q439.4375 218.06442 440.23438 218.06442Q441.5 218.06442 442.21875 219.01755Q442.95312 219.97067 442.95312 221.59567L442.95312 221.90817Q442.95312 224.40817 441.96875 225.5488Q440.98438 226.68942 439.0 226.72067L438.78125 226.72067L438.78125 225.81442L439.01562 225.81442Q440.35938 225.78317 441.07812 225.1113Q441.79688 224.43942 441.85938 222.97067ZM440.1875 222.97067Q440.73438 222.97067 441.1875 222.64255Q441.65625 222.2988 441.875 221.81442L441.875 221.37692Q441.875 220.31442 441.40625 219.64255Q440.9375 218.97067 440.23438 218.97067Q439.51562 218.97067 439.07812 219.51755Q438.65625 220.06442 438.65625 220.97067Q438.65625 221.84567 439.0625 222.40817Q439.48438 222.97067 440.1875 222.97067ZM446.28125 221.9238L447.09375 221.9238Q447.875 221.90817 448.3125 221.51755Q448.75 221.12692 448.75 220.45505Q448.75 218.95505 447.25 218.95505Q446.54688 218.95505 446.125 219.3613Q445.71875 219.76755 445.71875 220.4238L444.625 220.4238Q444.625 219.40817 445.35938 218.7363Q446.10938 218.06442 447.25 218.06442Q448.45312 218.06442 449.14062 218.70505Q449.82812 219.34567 449.82812 220.4863Q449.82812 221.0488 449.46875 221.56442Q449.10938 222.08005 448.48438 222.34567Q449.1875 222.56442 449.5625 223.08005Q449.95312 223.59567 449.95312 224.34567Q449.95312 225.4863 449.20312 226.1738Q448.45312 226.84567 447.25 226.84567Q446.0625 226.84567 445.29688 226.18942Q444.54688 225.53317 444.54688 224.47067L445.64062 224.47067Q445.64062 225.14255 446.07812 225.5488Q446.51562 225.95505 447.26562 225.95505Q448.04688 225.95505 448.45312 225.5488Q448.875 225.12692 448.875 224.3613Q448.875 223.62692 448.42188 223.2363Q447.96875 222.83005 447.09375 222.81442L446.28125 222.81442L446.28125 221.9238ZM457.21875 218.7988L453.6875 226.72067L452.54688 226.72067L456.0625 219.08005L451.45312 219.08005L451.45312 218.18942L457.21875 218.18942L457.21875 218.7988ZM458.84375 226.15817Q458.84375 225.87692 459.0 225.68942Q459.17188 225.50192 459.5 225.50192Q459.84375 225.50192 460.01562 225.68942Q460.1875 225.87692 460.1875 226.15817Q460.1875 226.4238 460.01562 226.6113Q459.84375 226.78317 459.5 226.78317Q459.17188 226.78317 459.0 226.6113Q458.84375 226.4238 458.84375 226.15817ZM465.96875 218.18942L465.96875 219.09567L465.76562 219.09567Q464.5 219.12692 463.75 219.8613Q463.0 220.58005 462.875 221.89255Q463.5625 221.12692 464.71875 221.12692Q465.82812 221.12692 466.5 221.90817Q467.17188 222.68942 467.17188 223.93942Q467.17188 225.25192 466.45312 226.0488Q465.73438 226.84567 464.51562 226.84567Q463.29688 226.84567 462.53125 225.90817Q461.78125 224.95505 461.78125 223.47067L461.78125 223.06442Q461.78125 220.70505 462.78125 219.45505Q463.78125 218.20505 465.76562 218.18942L465.96875 218.18942ZM464.54688 222.03317Q463.98438 222.03317 463.51562 222.3613Q463.04688 222.68942 462.85938 223.20505L462.85938 223.59567Q462.85938 224.65817 463.32812 225.2988Q463.8125 225.93942 464.51562 225.93942Q465.25 225.93942 465.67188 225.40817Q466.09375 224.8613 466.09375 223.9863Q466.09375 223.1113 465.67188 222.58005Q465.25 222.03317 464.54688 222.03317ZM469.20312 222.43942L469.64062 218.18942L474.01562 218.18942L474.01562 219.18942L470.5625 219.18942L470.29688 221.51755Q470.9375 221.14255 471.73438 221.14255Q472.89062 221.14255 473.57812 221.9238Q474.26562 222.68942 474.26562 224.00192Q474.26562 225.31442 473.54688 226.08005Q472.84375 226.84567 471.5625 226.84567Q470.4375 226.84567 469.71875 226.22067Q469.0 225.58005 468.90625 224.47067L469.92188 224.47067Q470.03125 225.20505 470.45312 225.58005Q470.875 225.95505 471.5625 225.95505Q472.3125 225.95505 472.75 225.43942Q473.1875 224.9238 473.1875 224.01755Q473.1875 223.15817 472.71875 222.64255Q472.25 222.12692 471.46875 222.12692Q470.76562 222.12692 470.35938 222.4238L470.07812 222.65817L469.20312 222.43942Z" fill-rule="nonzero"/><path fill="#ffffff" d="M425.96875 218.18942L425.96875 219.09567L425.76562 219.09567Q424.5 219.12692 423.75 219.8613Q423.0 220.58005 422.875 221.89255Q423.5625 221.12692 424.71875 221.12692Q425.82812 221.12692 426.5 221.90817Q427.17188 222.68942 427.17188 223.93942Q427.17188 225.25192 426.45312 226.0488Q425.73438 226.84567 424.51562 226.84567Q423.29688 226.84567 422.53125 225.90817Q421.78125 224.95505 421.78125 223.47067L421.78125 223.06442Q421.78125 220.70505 422.78125 219.45505Q423.78125 218.20505 425.76562 218.18942L425.96875 218.18942ZM424.54688 222.03317Q423.98438 222.03317 423.51562 222.3613Q423.04688 222.68942 422.85938 223.20505L422.85938 223.59567Q422.85938 224.65817 423.32812 225.2988Q423.8125 225.93942 424.51562 225.93942Q425.25 225.93942 425.67188 225.40817Q426.09375 224.8613 426.09375 223.9863Q426.09375 223.1113 425.67188 222.58005Q425.25 222.03317 424.54688 222.03317ZM434.21875 218.7988L430.6875 226.72067L429.54688 226.72067L433.0625 219.08005L428.45312 219.08005L428.45312 218.18942L434.21875 218.18942L434.21875 218.7988ZM435.78125 228.4238L435.17188 228.00192Q435.71875 227.2363 435.75 226.40817L435.75 225.43942L436.8125 225.43942L436.8125 226.28317Q436.8125 226.87692 436.51562 227.47067Q436.21875 228.06442 435.78125 228.4238ZM441.85938 222.97067Q441.53125 223.37692 441.04688 223.62692Q440.57812 223.8613 440.01562 223.8613Q439.28125 223.8613 438.73438 223.50192Q438.1875 223.14255 437.89062 222.4863Q437.59375 221.81442 437.59375 221.01755Q437.59375 220.1738 437.90625 219.4863Q438.23438 218.7988 438.82812 218.43942Q439.4375 218.06442 440.23438 218.06442Q441.5 218.06442 442.21875 219.01755Q442.95312 219.97067 442.95312 221.59567L442.95312 221.90817Q442.95312 224.40817 441.96875 225.5488Q440.98438 226.68942 439.0 226.72067L438.78125 226.72067L438.78125 225.81442L439.01562 225.81442Q440.35938 225.78317 441.07812 225.1113Q441.79688 224.43942 441.85938 222.97067ZM440.1875 222.97067Q440.73438 222.97067 441.1875 222.64255Q441.65625 222.2988 441.875 221.81442L441.875 221.37692Q441.875 220.31442 441.40625 219.64255Q440.9375 218.97067 440.23438 218.97067Q439.51562 218.97067 439.07812 219.51755Q438.65625 220.06442 438.65625 220.97067Q438.65625 221.84567 439.0625 222.40817Q439.48438 222.97067 440.1875 222.97067ZM446.28125 221.9238L447.09375 221.9238Q447.875 221.90817 448.3125 221.51755Q448.75 221.12692 448.75 220.45505Q448.75 218.95505 447.25 218.95505Q446.54688 218.95505 446.125 219.3613Q445.71875 219.76755 445.71875 220.4238L444.625 220.4238Q444.625 219.40817 445.35938 218.7363Q446.10938 218.06442 447.25 218.06442Q448.45312 218.06442 449.14062 218.70505Q449.82812 219.34567 449.82812 220.4863Q449.82812 221.0488 449.46875 221.56442Q449.10938 222.08005 448.48438 222.34567Q449.1875 222.56442 449.5625 223.08005Q449.95312 223.59567 449.95312 224.34567Q449.95312 225.4863 449.20312 226.1738Q448.45312 226.84567 447.25 226.84567Q446.0625 226.84567 445.29688 226.18942Q444.54688 225.53317 444.54688 224.47067L445.64062 224.47067Q445.64062 225.14255 446.07812 225.5488Q446.51562 225.95505 447.26562 225.95505Q448.04688 225.95505 448.45312 225.5488Q448.875 225.12692 448.875 224.3613Q448.875 223.62692 448.42188 223.2363Q447.96875 222.83005 447.09375 222.81442L446.28125 222.81442L446.28125 221.9238ZM457.21875 218.7988L453.6875 226.72067L452.54688 226.72067L456.0625 219.08005L451.45312 219.08005L451.45312 218.18942L457.21875 218.18942L457.21875 218.7988ZM458.84375 226.15817Q458.84375 225.87692 459.0 225.68942Q459.17188 225.50192 459.5 225.50192Q459.84375 225.50192 460.01562 225.68942Q460.1875 225.87692 460.1875 226.15817Q460.1875 226.4238 460.01562 226.6113Q459.84375 226.78317 459.5 226.78317Q459.17188 226.78317 459.0 226.6113Q458.84375 226.4238 458.84375 226.15817ZM465.96875 218.18942L465.96875 219.09567L465.76562 219.09567Q464.5 219.12692 463.75 219.8613Q463.0 220.58005 462.875 221.89255Q463.5625 221.12692 464.71875 221.12692Q465.82812 221.12692 466.5 221.90817Q467.17188 222.68942 467.17188 223.93942Q467.17188 225.25192 466.45312 226.0488Q465.73438 226.84567 464.51562 226.84567Q463.29688 226.84567 462.53125 225.90817Q461.78125 224.95505 461.78125 223.47067L461.78125 223.06442Q461.78125 220.70505 462.78125 219.45505Q463.78125 218.20505 465.76562 218.18942L465.96875 218.18942ZM464.54688 222.03317Q463.98438 222.03317 463.51562 222.3613Q463.04688 222.68942 462.85938 223.20505L462.85938 223.59567Q462.85938 224.65817 463.32812 225.2988Q463.8125 225.93942 464.51562 225.93942Q465.25 225.93942 465.67188 225.40817Q466.09375 224.8613 466.09375 223.9863Q466.09375 223.1113 465.67188 222.58005Q465.25 222.03317 464.54688 222.03317ZM469.20312 222.43942L469.64062 218.18942L474.01562 218.18942L474.01562 219.18942L470.5625 219.18942L470.29688 221.51755Q470.9375 221.14255 471.73438 221.14255Q472.89062 221.14255 473.57812 221.9238Q474.26562 222.68942 474.26562 224.00192Q474.26562 225.31442 473.54688 226.08005Q472.84375 226.84567 471.5625 226.84567Q470.4375 226.84567 469.71875 226.22067Q469.0 225.58005 468.90625 224.47067L469.92188 224.47067Q470.03125 225.20505 470.45312 225.58005Q470.875 225.95505 471.5625 225.95505Q472.3125 225.95505 472.75 225.43942Q473.1875 224.9238 473.1875 224.01755Q473.1875 223.15817 472.71875 222.64255Q472.25 222.12692 471.46875 222.12692Q470.76562 222.12692 470.35938 222.4238L470.07812 222.65817L469.20312 222.43942Z" fill-rule="nonzero"/><path fill="#000000" d="M26.784388 248.63646L26.690638 247.57396Q27.346888 247.49583 27.753138 247.21458Q28.159388 246.93333 28.425013 246.35521Q28.675013 245.76146 28.675013 245.02708Q28.675013 244.38646 28.487513 243.88646Q28.284388 243.38646 27.956263 243.15208Q27.612513 242.90208 27.221888 242.90208Q26.815638 242.90208 26.518763 243.13646Q26.206263 243.37083 26.003138 243.90208Q25.862513 244.26146 25.581263 245.44896Q25.300013 246.62083 25.050013 247.08958Q24.721888 247.71458 24.253138 248.01146Q23.768763 248.30833 23.175013 248.30833Q22.534388 248.30833 21.971888 247.94896Q21.393763 247.57396 21.112513 246.87083Q20.815638 246.15208 20.815638 245.29271Q20.815638 244.33958 21.128138 243.60521Q21.425013 242.87083 22.034388 242.48021Q22.628138 242.08958 23.378138 242.05833L23.456263 243.15208Q22.643763 243.24583 22.237513 243.76146Q21.815638 244.26146 21.815638 245.24583Q21.815638 246.27708 22.190638 246.74583Q22.565638 247.21458 23.096888 247.21458Q23.565638 247.21458 23.862513 246.88646Q24.159388 246.55833 24.471888 245.18333Q24.784388 243.79271 25.018763 243.27708Q25.378138 242.52708 25.909388 242.16771Q26.425013 241.80833 27.128138 241.80833Q27.815638 241.80833 28.425013 242.19896Q29.018763 242.58958 29.362513 243.32396Q29.690638 244.05833 29.690638 244.98021Q29.690638 246.15208 29.362513 246.94896Q29.018763 247.73021 28.331263 248.18333Q27.643763 248.62083 26.784388 248.63646ZM27.550013 236.13646L27.675013 235.04271Q28.628138 235.29271 29.159388 235.99583Q29.690638 236.69896 29.690638 237.77708Q29.690638 239.13646 28.846888 239.94896Q28.003138 240.74583 26.487513 240.74583Q24.925013 240.74583 24.065638 239.93333Q23.190638 239.12083 23.190638 237.83958Q23.190638 236.58958 24.034388 235.80833Q24.878138 235.01146 26.425013 235.01146Q26.518763 235.01146 26.706263 235.01146L26.706263 239.65208Q27.737513 239.58958 28.284388 239.07396Q28.815638 238.55833 28.815638 237.77708Q28.815638 237.19896 28.518763 236.79271Q28.206263 236.37083 27.550013 236.13646ZM25.846888 239.58958L25.846888 236.12083Q25.050013 236.18333 24.659388 236.51146Q24.050013 237.02708 24.050013 237.82396Q24.050013 238.55833 24.534388 239.05833Q25.018763 239.54271 25.846888 239.58958ZM29.550013 233.38646L23.331263 233.38646L23.331263 232.44896L24.206263 232.44896Q23.190638 231.76146 23.190638 230.46458Q23.190638 229.90208 23.393763 229.43333Q23.596888 228.94896 23.925013 228.71458Q24.253138 228.48021 24.690638 228.38646Q24.987513 228.33958 25.721888 228.33958L29.550013 228.33958L29.550013 229.38646L25.768763 229.38646Q25.112513 229.38646 24.800013 229.51146Q24.487513 229.63646 24.300013 229.94896Q24.096888 230.26146 24.096888 230.68333Q24.096888 231.35521 24.534388 231.85521Q24.956263 232.33958 26.143763 232.33958L29.550013 232.33958L29.550013 233.38646ZM29.550013 222.35521L28.768763 222.35521Q29.690638 222.94896 29.690638 224.08958Q29.690638 224.83958 29.284388 225.46458Q28.862513 226.08958 28.128138 226.43333Q27.393763 226.77708 26.440638 226.77708Q25.518763 226.77708 24.753138 226.46458Q23.987513 226.15208 23.596888 225.52708Q23.190638 224.90208 23.190638 224.13646Q23.190638 223.57396 23.425013 223.13646Q23.659388 222.69896 24.034388 222.41771L20.956263 222.41771L20.956263 221.37083L29.550013 221.37083L29.550013 222.35521ZM26.440638 225.68333Q27.643763 225.68333 28.237513 225.18333Q28.815638 224.68333 28.815638 223.99583Q28.815638 223.30833 28.253138 222.82396Q27.690638 222.33958 26.534388 222.33958Q25.253138 222.33958 24.659388 222.83958Q24.065638 223.32396 24.065638 224.04271Q24.065638 224.74583 24.643763 225.21458Q25.206263 225.68333 26.440638 225.68333ZM22.175013 219.38646L20.956263 219.38646L20.956263 218.32396L22.175013 218.32396L22.175013 219.38646ZM29.550013 219.38646L23.331263 219.38646L23.331263 218.32396L29.550013 218.32396L29.550013 219.38646ZM29.550013 216.38646L23.331263 216.38646L23.331263 215.44896L24.206263 215.44896Q23.190638 214.76146 23.190638 213.46458Q23.190638 212.90208 23.393763 212.43333Q23.596888 211.94896 23.925013 211.71458Q24.253138 211.48021 24.690638 211.38646Q24.987513 211.33958 25.721888 211.33958L29.550013 211.33958L29.550013 212.38646L25.768763 212.38646Q25.112513 212.38646 24.800013 212.51146Q24.487513 212.63646 24.300013 212.94896Q24.096888 213.26146 24.096888 213.68333Q24.096888 214.35521 24.534388 214.85521Q24.956263 215.33958 26.143763 215.33958L29.550013 215.33958L29.550013 216.38646ZM30.065638 209.58958L30.221888 208.55833Q30.690638 208.49583 30.909388 208.19896Q31.206263 207.80833 31.206263 207.13646Q31.206263 206.40208 30.909388 206.01146Q30.612513 205.60521 30.096888 205.46458Q29.768763 205.37083 28.737513 205.38646Q29.550013 206.07396 29.550013 207.10521Q29.550013 208.38646 28.628138 209.08958Q27.690638 209.79271 26.409388 209.79271Q25.518763 209.79271 24.768763 209.48021Q24.003138 209.15208 23.596888 208.54271Q23.190638 207.93333 23.190638 207.10521Q23.190638 205.99583 24.081263 205.27708L23.331263 205.27708L23.331263 204.30833L28.706263 204.30833Q30.159388 204.30833 30.768763 204.60521Q31.378138 204.90208 31.721888 205.54271Q32.08126 206.18333 32.08126 207.12083Q32.08126 208.23021 31.581263 208.91771Q31.081263 209.60521 30.065638 209.58958ZM26.331263 208.71458Q27.550013 208.71458 28.112513 208.23021Q28.675013 207.74583 28.675013 207.01146Q28.675013 206.27708 28.112513 205.79271Q27.550013 205.29271 26.362513 205.29271Q25.221888 205.29271 24.643763 205.80833Q24.065638 206.30833 24.065638 207.02708Q24.065638 207.73021 24.643763 208.23021Q25.206263 208.71458 26.331263 208.71458ZM29.550013 199.38646L23.331263 199.38646L23.331263 198.44896L24.206263 198.44896Q23.737513 198.15208 23.471888 197.66771Q23.190638 197.18333 23.190638 196.55833Q23.190638 195.87083 23.471888 195.43333Q23.753138 194.98021 24.268763 194.80833Q23.190638 194.05833 23.190638 192.88646Q23.190638 191.94896 23.706263 191.46458Q24.206263 190.96458 25.284388 190.96458L29.550013 190.96458L29.550013 192.01146L25.628138 192.01146Q25.003138 192.01146 24.721888 192.12083Q24.440638 192.21458 24.268763 192.48021Q24.096888 192.74583 24.096888 193.12083Q24.096888 193.77708 24.534388 194.21458Q24.971888 194.63646 25.940638 194.63646L29.550013 194.63646L29.550013 195.69896L25.503138 195.69896Q24.800013 195.69896 24.456263 195.96458Q24.096888 196.21458 24.096888 196.79271Q24.096888 197.24583 24.331263 197.62083Q24.565638 197.99583 25.018763 198.16771Q25.471888 198.33958 26.315638 198.33958L29.550013 198.33958L29.550013 199.38646ZM27.690638 188.80833L27.534388 187.77708Q28.159388 187.68333 28.487513 187.29271Q28.815638 186.88646 28.815638 186.15208Q28.815638 185.43333 28.534388 185.08958Q28.237513 184.73021 27.831263 184.73021Q27.471888 184.73021 27.268763 185.04271Q27.128138 185.26146 26.909388 186.12083Q26.612513 187.27708 26.409388 187.73021Q26.190638 188.16771 25.815638 188.40208Q25.440638 188.63646 24.971888 188.63646Q24.565638 188.63646 24.206263 188.44896Q23.846888 188.26146 23.612513 187.93333Q23.440638 187.68333 23.315638 187.26146Q23.190638 186.83958 23.190638 186.33958Q23.190638 185.62083 23.409388 185.07396Q23.612513 184.51146 23.971888 184.24583Q24.331263 183.98021 24.925013 183.88646L25.065638 184.91771Q24.596888 184.98021 24.331263 185.32396Q24.050013 185.65208 24.050013 186.27708Q24.050013 186.99583 24.300013 187.30833Q24.534388 187.62083 24.862513 187.62083Q25.065638 187.62083 25.221888 187.49583Q25.393763 187.35521 25.503138 187.08958Q25.565638 186.93333 25.768763 186.15208Q26.081263 185.02708 26.268763 184.58958Q26.456263 184.15208 26.815638 183.90208Q27.175013 183.65208 27.721888 183.65208Q28.253138 183.65208 28.721888 183.96458Q29.175013 184.26146 29.440638 184.83958Q29.690638 185.41771 29.690638 186.15208Q29.690638 187.37083 29.190638 188.01146Q28.675013 188.63646 27.690638 188.80833ZM30.065638 181.58958L30.221888 180.55833Q30.690638 180.49583 30.909388 180.19896Q31.206263 179.80833 31.206263 179.13646Q31.206263 178.40208 30.909388 178.01146Q30.612513 177.60521 30.096888 177.46458Q29.768763 177.37083 28.737513 177.38646Q29.550013 178.07396 29.550013 179.10521Q29.550013 180.38646 28.628138 181.08958Q27.690638 181.79271 26.409388 181.79271Q25.518763 181.79271 24.768763 181.48021Q24.003138 181.15208 23.596888 180.54271Q23.190638 179.93333 23.190638 179.10521Q23.190638 177.99583 24.081263 177.27708L23.331263 177.27708L23.331263 176.30833L28.706263 176.30833Q30.159388 176.30833 30.768763 176.60521Q31.378138 176.90208 31.721888 177.54271Q32.08126 178.18333 32.08126 179.12083Q32.08126 180.23021 31.581263 180.91771Q31.081263 181.60521 30.065638 181.58958ZM26.331263 180.71458Q27.550013 180.71458 28.112513 180.23021Q28.675013 179.74583 28.675013 179.01146Q28.675013 178.27708 28.112513 177.79271Q27.550013 177.29271 26.362513 177.29271Q25.221888 177.29271 24.643763 177.80833Q24.065638 178.30833 24.065638 179.02708Q24.065638 179.73021 24.643763 180.23021Q25.206263 180.71458 26.331263 180.71458ZM27.690638 174.80833L27.534388 173.77708Q28.159388 173.68333 28.487513 173.29271Q28.815638 172.88646 28.815638 172.15208Q28.815638 171.43333 28.534388 171.08958Q28.237513 170.73021 27.831263 170.73021Q27.471888 170.73021 27.268763 171.04271Q27.128138 171.26146 26.909388 172.12083Q26.612513 173.27708 26.409388 173.73021Q26.190638 174.16771 25.815638 174.40208Q25.440638 174.63646 24.971888 174.63646Q24.565638 174.63646 24.206263 174.44896Q23.846888 174.26146 23.612513 173.93333Q23.440638 173.68333 23.315638 173.26146Q23.190638 172.83958 23.190638 172.33958Q23.190638 171.62083 23.409388 171.07396Q23.612513 170.51146 23.971888 170.24583Q24.331263 169.98021 24.925013 169.88646L25.065638 170.91771Q24.596888 170.98021 24.331263 171.32396Q24.050013 171.65208 24.050013 172.27708Q24.050013 172.99583 24.300013 173.30833Q24.534388 173.62083 24.862513 173.62083Q25.065638 173.62083 25.221888 173.49583Q25.393763 173.35521 25.503138 173.08958Q25.565638 172.93333 25.768763 172.15208Q26.081263 171.02708 26.268763 170.58958Q26.456263 170.15208 26.815638 169.90208Q27.175013 169.65208 27.721888 169.65208Q28.253138 169.65208 28.721888 169.96458Q29.175013 170.26146 29.440638 170.83958Q29.690638 171.41771 29.690638 172.15208Q29.690638 173.37083 29.190638 174.01146Q28.675013 174.63646 27.690638 174.80833ZM29.690638 168.18333L20.815638 165.69896L20.815638 164.85521L29.690638 167.33958L29.690638 168.18333ZM27.690638 164.80833L27.534388 163.77708Q28.159388 163.68333 28.487513 163.29271Q28.815638 162.88646 28.815638 162.15208Q28.815638 161.43333 28.534388 161.08958Q28.237513 160.73021 27.831263 160.73021Q27.471888 160.73021 27.268763 161.04271Q27.128138 161.26146 26.909388 162.12083Q26.612513 163.27708 26.409388 163.73021Q26.190638 164.16771 25.815638 164.40208Q25.440638 164.63646 24.971888 164.63646Q24.565638 164.63646 24.206263 164.44896Q23.846888 164.26146 23.612513 163.93333Q23.440638 163.68333 23.315638 163.26146Q23.190638 162.83958 23.190638 162.33958Q23.190638 161.62083 23.409388 161.07396Q23.612513 160.51146 23.971888 160.24583Q24.331263 159.98021 24.925013 159.88646L25.065638 160.91771Q24.596888 160.98021 24.331263 161.32396Q24.050013 161.65208 24.050013 162.27708Q24.050013 162.99583 24.300013 163.30833Q24.534388 163.62083 24.862513 163.62083Q25.065638 163.62083 25.221888 163.49583Q25.393763 163.35521 25.503138 163.08958Q25.565638 162.93333 25.768763 162.15208Q26.081263 161.02708 26.268763 160.58958Q26.456263 160.15208 26.815638 159.90208Q27.175013 159.65208 27.721888 159.65208Q28.253138 159.65208 28.721888 159.96458Q29.175013 160.26146 29.440638 160.83958Q29.690638 161.41771 29.690638 162.15208Q29.690638 163.37083 29.190638 164.01146Q28.675013 164.63646 27.690638 164.80833Z" fill-rule="nonzero"/><path fill="#000000" d="M89.05 332.21564Q89.05 330.6844 89.3625 329.7625Q89.675 328.825 90.28438 328.325Q90.90938 327.825 91.84688 327.825Q92.53438 327.825 93.05 328.10626Q93.58125 328.3875 93.925 328.91876Q94.26875 329.4344 94.45625 330.1844Q94.64375 330.9344 94.64375 332.21564Q94.64375 333.73126 94.33125 334.65314Q94.03438 335.575 93.40938 336.09064Q92.8 336.59064 91.84688 336.59064Q90.6125 336.59064 89.89375 335.7Q89.05 334.6375 89.05 332.21564ZM90.12813 332.21564Q90.12813 334.325 90.62813 335.02814Q91.12813 335.73126 91.84688 335.73126Q92.58125 335.73126 93.06563 335.02814Q93.56563 334.325 93.56563 332.21564Q93.56563 330.09064 93.06563 329.40314Q92.58125 328.7 91.83125 328.7Q91.1125 328.7 90.675 329.3094Q90.12813 330.09064 90.12813 332.21564ZM96.64375 336.45L96.64375 335.2469L97.84688 335.2469L97.84688 336.45L96.64375 336.45ZM99.05 332.21564Q99.05 330.6844 99.3625 329.7625Q99.675 328.825 100.28438 328.325Q100.90938 327.825 101.84688 327.825Q102.53438 327.825 103.05 328.10626Q103.58125 328.3875 103.925 328.91876Q104.26875 329.4344 104.45625 330.1844Q104.64375 330.9344 104.64375 332.21564Q104.64375 333.73126 104.33125 334.65314Q104.03438 335.575 103.40938 336.09064Q102.8 336.59064 101.84688 336.59064Q100.6125 336.59064 99.89375 335.7Q99.05 334.6375 99.05 332.21564ZM100.12813 332.21564Q100.12813 334.325 100.62813 335.02814Q101.12813 335.73126 101.84688 335.73126Q102.58125 335.73126 103.06563 335.02814Q103.56563 334.325 103.56563 332.21564Q103.56563 330.09064 103.06563 329.40314Q102.58125 328.7 101.83125 328.7Q101.1125 328.7 100.675 329.3094Q100.12813 330.09064 100.12813 332.21564ZM106.05 332.21564Q106.05 330.6844 106.3625 329.7625Q106.675 328.825 107.28438 328.325Q107.90938 327.825 108.84688 327.825Q109.53438 327.825 110.05 328.10626Q110.58125 328.3875 110.925 328.91876Q111.26875 329.4344 111.45625 330.1844Q111.64375 330.9344 111.64375 332.21564Q111.64375 333.73126 111.33125 334.65314Q111.03438 335.575 110.40938 336.09064Q109.8 336.59064 108.84688 336.59064Q107.6125 336.59064 106.89375 335.7Q106.05 334.6375 106.05 332.21564ZM107.12813 332.21564Q107.12813 334.325 107.62813 335.02814Q108.12813 335.73126 108.84688 335.73126Q109.58125 335.73126 110.06563 335.02814Q110.56563 334.325 110.56563 332.21564Q110.56563 330.09064 110.06563 329.40314Q109.58125 328.7 108.83125 328.7Q108.1125 328.7 107.675 329.3094Q107.12813 330.09064 107.12813 332.21564Z" fill-rule="nonzero"/><path fill="#000000" d="M58.05 244.02222L59.159374 243.92847Q59.284374 244.74097 59.721874 245.14722Q60.175 245.55347 60.815624 245.55347Q61.565624 245.55347 62.096874 244.97534Q62.628124 244.39722 62.628124 243.45972Q62.628124 242.55347 62.1125 242.03784Q61.6125 241.50659 60.784374 241.50659Q60.284374 241.50659 59.8625 241.74097Q59.45625 241.97534 59.221874 242.33472L58.2375 242.20972L59.065624 237.80347L63.346874 237.80347L63.346874 238.80347L59.909374 238.80347L59.45625 241.11597Q60.221874 240.56909 61.065624 240.56909Q62.190624 240.56909 62.95625 241.35034Q63.7375 242.13159 63.7375 243.36597Q63.7375 244.52222 63.065624 245.38159Q62.2375 246.41284 60.815624 246.41284Q59.64375 246.41284 58.89375 245.75659Q58.159374 245.10034 58.05 244.02222ZM65.05 242.03784Q65.05 240.50659 65.3625 239.58472Q65.675 238.64722 66.28438 238.14722Q66.90938 237.64722 67.84688 237.64722Q68.53438 237.64722 69.05 237.92847Q69.58125 238.20972 69.925 238.74097Q70.26875 239.25659 70.45625 240.00659Q70.64375 240.75659 70.64375 242.03784Q70.64375 243.55347 70.33125 244.47534Q70.03438 245.39722 69.40938 245.91284Q68.8 246.41284 67.84688 246.41284Q66.6125 246.41284 65.89375 245.52222Q65.05 244.45972 65.05 242.03784ZM66.12813 242.03784Q66.12813 244.14722 66.62813 244.85034Q67.12813 245.55347 67.84688 245.55347Q68.58125 245.55347 69.06563 244.85034Q69.56563 244.14722 69.56563 242.03784Q69.56563 239.91284 69.06563 239.22534Q68.58125 238.52222 67.83125 238.52222Q67.1125 238.52222 66.675 239.13159Q66.12813 239.91284 66.12813 242.03784ZM72.6125 246.27222L72.6125 245.06909L73.81563 245.06909L73.81563 246.27222Q73.81563 246.92847 73.58125 247.33472Q73.34688 247.75659 72.84688 247.97534L72.55 247.52222Q72.87813 247.38159 73.03438 247.08472Q73.19063 246.80347 73.22188 246.27222L72.6125 246.27222ZM75.05 242.03784Q75.05 240.50659 75.3625 239.58472Q75.675 238.64722 76.28438 238.14722Q76.90938 237.64722 77.84688 237.64722Q78.53438 237.64722 79.05 237.92847Q79.58125 238.20972 79.925 238.74097Q80.26875 239.25659 80.45625 240.00659Q80.64375 240.75659 80.64375 242.03784Q80.64375 243.55347 80.33125 244.47534Q80.03438 245.39722 79.40938 245.91284Q78.8 246.41284 77.84688 246.41284Q76.6125 246.41284 75.89375 245.52222Q75.05 244.45972 75.05 242.03784ZM76.12813 242.03784Q76.12813 244.14722 76.62813 244.85034Q77.12813 245.55347 77.84688 245.55347Q78.58125 245.55347 79.06563 244.85034Q79.56563 244.14722 79.56563 242.03784Q79.56563 239.91284 79.06563 239.22534Q78.58125 238.52222 77.83125 238.52222Q77.1125 238.52222 76.675 239.13159Q76.12813 239.91284 76.12813 242.03784ZM82.05 242.03784Q82.05 240.50659 82.3625 239.58472Q82.675 238.64722 83.28438 238.14722Q83.90938 237.64722 84.84688 237.64722Q85.53438 237.64722 86.05 237.92847Q86.58125 238.20972 86.925 238.74097Q87.26875 239.25659 87.45625 240.00659Q87.64375 240.75659 87.64375 242.03784Q87.64375 243.55347 87.33125 244.47534Q87.03438 245.39722 86.40938 245.91284Q85.8 246.41284 84.84688 246.41284Q83.6125 246.41284 82.89375 245.52222Q82.05 244.45972 82.05 242.03784ZM83.12813 242.03784Q83.12813 244.14722 83.62813 244.85034Q84.12813 245.55347 84.84688 245.55347Q85.58125 245.55347 86.06563 244.85034Q86.56563 244.14722 86.56563 242.03784Q86.56563 239.91284 86.06563 239.22534Q85.58125 238.52222 84.83125 238.52222Q84.1125 238.52222 83.675 239.13159Q83.12813 239.91284 83.12813 242.03784ZM89.05 242.03784Q89.05 240.50659 89.3625 239.58472Q89.675 238.64722 90.28438 238.14722Q90.90938 237.64722 91.84688 237.64722Q92.53438 237.64722 93.05 237.92847Q93.58125 238.20972 93.925 238.74097Q94.26875 239.25659 94.45625 240.00659Q94.64375 240.75659 94.64375 242.03784Q94.64375 243.55347 94.33125 244.47534Q94.03438 245.39722 93.40938 245.91284Q92.8 246.41284 91.84688 246.41284Q90.6125 246.41284 89.89375 245.52222Q89.05 244.45972 89.05 242.03784ZM90.12813 242.03784Q90.12813 244.14722 90.62813 244.85034Q91.12813 245.55347 91.84688 245.55347Q92.58125 245.55347 93.06563 244.85034Q93.56563 244.14722 93.56563 242.03784Q93.56563 239.91284 93.06563 239.22534Q92.58125 238.52222 91.83125 238.52222Q91.1125 238.52222 90.675 239.13159Q90.12813 239.91284 90.12813 242.03784ZM96.64375 246.27222L96.64375 245.06909L97.84688 245.06909L97.84688 246.27222L96.64375 246.27222ZM99.05 242.03784Q99.05 240.50659 99.3625 239.58472Q99.675 238.64722 100.28438 238.14722Q100.90938 237.64722 101.84688 237.64722Q102.53438 237.64722 103.05 237.92847Q103.58125 238.20972 103.925 238.74097Q104.26875 239.25659 104.45625 240.00659Q104.64375 240.75659 104.64375 242.03784Q104.64375 243.55347 104.33125 244.47534Q104.03438 245.39722 103.40938 245.91284Q102.8 246.41284 101.84688 246.41284Q100.6125 246.41284 99.89375 245.52222Q99.05 244.45972 99.05 242.03784ZM100.12813 242.03784Q100.12813 244.14722 100.62813 244.85034Q101.12813 245.55347 101.84688 245.55347Q102.58125 245.55347 103.06563 244.85034Q103.56563 244.14722 103.56563 242.03784Q103.56563 239.91284 103.06563 239.22534Q102.58125 238.52222 101.83125 238.52222Q101.1125 238.52222 100.675 239.13159Q100.12813 239.91284 100.12813 242.03784ZM106.05 242.03784Q106.05 240.50659 106.3625 239.58472Q106.675 238.64722 107.28438 238.14722Q107.90938 237.64722 108.84688 237.64722Q109.53438 237.64722 110.05 237.92847Q110.58125 238.20972 110.925 238.74097Q111.26875 239.25659 111.45625 240.00659Q111.64375 240.75659 111.64375 242.03784Q111.64375 243.55347 111.33125 244.47534Q111.03438 245.39722 110.40938 245.91284Q109.8 246.41284 108.84688 246.41284Q107.6125 246.41284 106.89375 245.52222Q106.05 244.45972 106.05 242.03784ZM107.12813 242.03784Q107.12813 244.14722 107.62813 244.85034Q108.12813 245.55347 108.84688 245.55347Q109.58125 245.55347 110.06563 244.85034Q110.56563 244.14722 110.56563 242.03784Q110.56563 239.91284 110.06563 239.22534Q109.58125 238.52222 108.83125 238.52222Q108.1125 238.52222 107.675 239.13159Q107.12813 239.91284 107.12813 242.03784Z" fill-rule="nonzero"/><path fill="#000000" d="M55.01875 156.09445L53.971874 156.09445L53.971874 149.3757Q53.58125 149.73508 52.95625 150.11008Q52.346874 150.46945 51.8625 150.64133L51.8625 149.6257Q52.7375 149.20383 53.39375 148.6257Q54.065624 148.03195 54.346874 147.46945L55.01875 147.46945L55.01875 156.09445ZM58.05 151.86008Q58.05 150.32883 58.3625 149.40695Q58.675 148.46945 59.284374 147.96945Q59.909374 147.46945 60.846874 147.46945Q61.534374 147.46945 62.05 147.7507Q62.58125 148.03195 62.925 148.5632Q63.26875 149.07883 63.45625 149.82883Q63.64375 150.57883 63.64375 151.86008Q63.64375 153.3757 63.33125 154.29758Q63.034374 155.21945 62.409374 155.73508Q61.8 156.23508 60.846874 156.23508Q59.6125 156.23508 58.89375 155.34445Q58.05 154.28195 58.05 151.86008ZM59.128124 151.86008Q59.128124 153.96945 59.628124 154.67258Q60.128124 155.3757 60.846874 155.3757Q61.58125 155.3757 62.065624 154.67258Q62.565624 153.96945 62.565624 151.86008Q62.565624 149.73508 62.065624 149.04758Q61.58125 148.34445 60.83125 148.34445Q60.1125 148.34445 59.675 148.95383Q59.128124 149.73508 59.128124 151.86008ZM65.05 151.86008Q65.05 150.32883 65.3625 149.40695Q65.675 148.46945 66.28438 147.96945Q66.90938 147.46945 67.84688 147.46945Q68.53438 147.46945 69.05 147.7507Q69.58125 148.03195 69.925 148.5632Q70.26875 149.07883 70.45625 149.82883Q70.64375 150.57883 70.64375 151.86008Q70.64375 153.3757 70.33125 154.29758Q70.03438 155.21945 69.40938 155.73508Q68.8 156.23508 67.84688 156.23508Q66.6125 156.23508 65.89375 155.34445Q65.05 154.28195 65.05 151.86008ZM66.12813 151.86008Q66.12813 153.96945 66.62813 154.67258Q67.12813 155.3757 67.84688 155.3757Q68.58125 155.3757 69.06563 154.67258Q69.56563 153.96945 69.56563 151.86008Q69.56563 149.73508 69.06563 149.04758Q68.58125 148.34445 67.83125 148.34445Q67.1125 148.34445 66.675 148.95383Q66.12813 149.73508 66.12813 151.86008ZM72.6125 156.09445L72.6125 154.89133L73.81563 154.89133L73.81563 156.09445Q73.81563 156.7507 73.58125 157.15695Q73.34688 157.57883 72.84688 157.79758L72.55 157.34445Q72.87813 157.20383 73.03438 156.90695Q73.19063 156.6257 73.22188 156.09445L72.6125 156.09445ZM75.05 151.86008Q75.05 150.32883 75.3625 149.40695Q75.675 148.46945 76.28438 147.96945Q76.90938 147.46945 77.84688 147.46945Q78.53438 147.46945 79.05 147.7507Q79.58125 148.03195 79.925 148.5632Q80.26875 149.07883 80.45625 149.82883Q80.64375 150.57883 80.64375 151.86008Q80.64375 153.3757 80.33125 154.29758Q80.03438 155.21945 79.40938 155.73508Q78.8 156.23508 77.84688 156.23508Q76.6125 156.23508 75.89375 155.34445Q75.05 154.28195 75.05 151.86008ZM76.12813 151.86008Q76.12813 153.96945 76.62813 154.67258Q77.12813 155.3757 77.84688 155.3757Q78.58125 155.3757 79.06563 154.67258Q79.56563 153.96945 79.56563 151.86008Q79.56563 149.73508 79.06563 149.04758Q78.58125 148.34445 77.83125 148.34445Q77.1125 148.34445 76.675 148.95383Q76.12813 149.73508 76.12813 151.86008ZM82.05 151.86008Q82.05 150.32883 82.3625 149.40695Q82.675 148.46945 83.28438 147.96945Q83.90938 147.46945 84.84688 147.46945Q85.53438 147.46945 86.05 147.7507Q86.58125 148.03195 86.925 148.5632Q87.26875 149.07883 87.45625 149.82883Q87.64375 150.57883 87.64375 151.86008Q87.64375 153.3757 87.33125 154.29758Q87.03438 155.21945 86.40938 155.73508Q85.8 156.23508 84.84688 156.23508Q83.6125 156.23508 82.89375 155.34445Q82.05 154.28195 82.05 151.86008ZM83.12813 151.86008Q83.12813 153.96945 83.62813 154.67258Q84.12813 155.3757 84.84688 155.3757Q85.58125 155.3757 86.06563 154.67258Q86.56563 153.96945 86.56563 151.86008Q86.56563 149.73508 86.06563 149.04758Q85.58125 148.34445 84.83125 148.34445Q84.1125 148.34445 83.675 148.95383Q83.12813 149.73508 83.12813 151.86008ZM89.05 151.86008Q89.05 150.32883 89.3625 149.40695Q89.675 148.46945 90.28438 147.96945Q90.90938 147.46945 91.84688 147.46945Q92.53438 147.46945 93.05 147.7507Q93.58125 148.03195 93.925 148.5632Q94.26875 149.07883 94.45625 149.82883Q94.64375 150.57883 94.64375 151.86008Q94.64375 153.3757 94.33125 154.29758Q94.03438 155.21945 93.40938 155.73508Q92.8 156.23508 91.84688 156.23508Q90.6125 156.23508 89.89375 155.34445Q89.05 154.28195 89.05 151.86008ZM90.12813 151.86008Q90.12813 153.96945 90.62813 154.67258Q91.12813 155.3757 91.84688 155.3757Q92.58125 155.3757 93.06563 154.67258Q93.56563 153.96945 93.56563 151.86008Q93.56563 149.73508 93.06563 149.04758Q92.58125 148.34445 91.83125 148.34445Q91.1125 148.34445 90.675 148.95383Q90.12813 149.73508 90.12813 151.86008ZM96.64375 156.09445L96.64375 154.89133L97.84688 154.89133L97.84688 156.09445L96.64375 156.09445ZM99.05 151.86008Q99.05 150.32883 99.3625 149.40695Q99.675 148.46945 100.28438 147.96945Q100.90938 147.46945 101.84688 147.46945Q102.53438 147.46945 103.05 147.7507Q103.58125 148.03195 103.925 148.5632Q104.26875 149.07883 104.45625 149.82883Q104.64375 150.57883 104.64375 151.86008Q104.64375 153.3757 104.33125 154.29758Q104.03438 155.21945 103.40938 155.73508Q102.8 156.23508 101.84688 156.23508Q100.6125 156.23508 99.89375 155.34445Q99.05 154.28195 99.05 151.86008ZM100.12813 151.86008Q100.12813 153.96945 100.62813 154.67258Q101.12813 155.3757 101.84688 155.3757Q102.58125 155.3757 103.06563 154.67258Q103.56563 153.96945 103.56563 151.86008Q103.56563 149.73508 103.06563 149.04758Q102.58125 148.34445 101.83125 148.34445Q101.1125 148.34445 100.675 148.95383Q100.12813 149.73508 100.12813 151.86008ZM106.05 151.86008Q106.05 150.32883 106.3625 149.40695Q106.675 148.46945 107.28438 147.96945Q107.90938 147.46945 108.84688 147.46945Q109.53438 147.46945 110.05 147.7507Q110.58125 148.03195 110.925 148.5632Q111.26875 149.07883 111.45625 149.82883Q111.64375 150.57883 111.64375 151.86008Q111.64375 153.3757 111.33125 154.29758Q111.03438 155.21945 110.40938 155.73508Q109.8 156.23508 108.84688 156.23508Q107.6125 156.23508 106.89375 155.34445Q106.05 154.28195 106.05 151.86008ZM107.12813 151.86008Q107.12813 153.96945 107.62813 154.67258Q108.12813 155.3757 108.84688 155.3757Q109.58125 155.3757 110.06563 154.67258Q110.56563 153.96945 110.56563 151.86008Q110.56563 149.73508 110.06563 149.04758Q109.58125 148.34445 108.83125 148.34445Q108.1125 148.34445 107.675 148.95383Q107.12813 149.73508 107.12813 151.86008Z" fill-rule="nonzero"/><path fill="#000000" d="M55.01875 65.916664L53.971874 65.916664L53.971874 59.197914Q53.58125 59.55729 52.95625 59.93229Q52.346874 60.291664 51.8625 60.46354L51.8625 59.447914Q52.7375 59.02604 53.39375 58.447914Q54.065624 57.854164 54.346874 57.291664L55.01875 57.291664L55.01875 65.916664ZM58.05 63.666664L59.159374 63.572914Q59.284374 64.385414 59.721874 64.791664Q60.175 65.197914 60.815624 65.197914Q61.565624 65.197914 62.096874 64.61979Q62.628124 64.041664 62.628124 63.104164Q62.628124 62.197914 62.1125 61.68229Q61.6125 61.15104 60.784374 61.15104Q60.284374 61.15104 59.8625 61.385414Q59.45625 61.61979 59.221874 61.979164L58.2375 61.854164L59.065624 57.447914L63.346874 57.447914L63.346874 58.447914L59.909374 58.447914L59.45625 60.760414Q60.221874 60.21354 61.065624 60.21354Q62.190624 60.21354 62.95625 60.99479Q63.7375 61.77604 63.7375 63.010414Q63.7375 64.166664 63.065624 65.02604Q62.2375 66.05729 60.815624 66.05729Q59.64375 66.05729 58.89375 65.40104Q58.159374 64.74479 58.05 63.666664ZM65.05 61.68229Q65.05 60.15104 65.3625 59.229164Q65.675 58.291664 66.28438 57.791664Q66.90938 57.291664 67.84688 57.291664Q68.53438 57.291664 69.05 57.572914Q69.58125 57.854164 69.925 58.385414Q70.26875 58.90104 70.45625 59.65104Q70.64375 60.40104 70.64375 61.68229Q70.64375 63.197914 70.33125 64.11979Q70.03438 65.041664 69.40938 65.55729Q68.8 66.05729 67.84688 66.05729Q66.6125 66.05729 65.89375 65.166664Q65.05 64.104164 65.05 61.68229ZM66.12813 61.68229Q66.12813 63.791664 66.62813 64.49479Q67.12813 65.197914 67.84688 65.197914Q68.58125 65.197914 69.06563 64.49479Q69.56563 63.791664 69.56563 61.68229Q69.56563 59.55729 69.06563 58.86979Q68.58125 58.166664 67.83125 58.166664Q67.1125 58.166664 66.675 58.77604Q66.12813 59.55729 66.12813 61.68229ZM72.6125 65.916664L72.6125 64.71354L73.81563 64.71354L73.81563 65.916664Q73.81563 66.572914 73.58125 66.979164Q73.34688 67.40104 72.84688 67.61979L72.55 67.166664Q72.87813 67.02604 73.03438 66.729164Q73.19063 66.447914 73.22188 65.916664L72.6125 65.916664ZM75.05 61.68229Q75.05 60.15104 75.3625 59.229164Q75.675 58.291664 76.28438 57.791664Q76.90938 57.291664 77.84688 57.291664Q78.53438 57.291664 79.05 57.572914Q79.58125 57.854164 79.925 58.385414Q80.26875 58.90104 80.45625 59.65104Q80.64375 60.40104 80.64375 61.68229Q80.64375 63.197914 80.33125 64.11979Q80.03438 65.041664 79.40938 65.55729Q78.8 66.05729 77.84688 66.05729Q76.6125 66.05729 75.89375 65.166664Q75.05 64.104164 75.05 61.68229ZM76.12813 61.68229Q76.12813 63.791664 76.62813 64.49479Q77.12813 65.197914 77.84688 65.197914Q78.58125 65.197914 79.06563 64.49479Q79.56563 63.791664 79.56563 61.68229Q79.56563 59.55729 79.06563 58.86979Q78.58125 58.166664 77.83125 58.166664Q77.1125 58.166664 76.675 58.77604Q76.12813 59.55729 76.12813 61.68229ZM82.05 61.68229Q82.05 60.15104 82.3625 59.229164Q82.675 58.291664 83.28438 57.791664Q83.90938 57.291664 84.84688 57.291664Q85.53438 57.291664 86.05 57.572914Q86.58125 57.854164 86.925 58.385414Q87.26875 58.90104 87.45625 59.65104Q87.64375 60.40104 87.64375 61.68229Q87.64375 63.197914 87.33125 64.11979Q87.03438 65.041664 86.40938 65.55729Q85.8 66.05729 84.84688 66.05729Q83.6125 66.05729 82.89375 65.166664Q82.05 64.104164 82.05 61.68229ZM83.12813 61.68229Q83.12813 63.791664 83.62813 64.49479Q84.12813 65.197914 84.84688 65.197914Q85.58125 65.197914 86.06563 64.49479Q86.56563 63.791664 86.56563 61.68229Q86.56563 59.55729 86.06563 58.86979Q85.58125 58.166664 84.83125 58.166664Q84.1125 58.166664 83.675 58.77604Q83.12813 59.55729 83.12813 61.68229ZM89.05 61.68229Q89.05 60.15104 89.3625 59.229164Q89.675 58.291664 90.28438 57.791664Q90.90938 57.291664 91.84688 57.291664Q92.53438 57.291664 93.05 57.572914Q93.58125 57.854164 93.925 58.385414Q94.26875 58.90104 94.45625 59.65104Q94.64375 60.40104 94.64375 61.68229Q94.64375 63.197914 94.33125 64.11979Q94.03438 65.041664 93.40938 65.55729Q92.8 66.05729 91.84688 66.05729Q90.6125 66.05729 89.89375 65.166664Q89.05 64.104164 89.05 61.68229ZM90.12813 61.68229Q90.12813 63.791664 90.62813 64.49479Q91.12813 65.197914 91.84688 65.197914Q92.58125 65.197914 93.06563 64.49479Q93.56563 63.791664 93.56563 61.68229Q93.56563 59.55729 93.06563 58.86979Q92.58125 58.166664 91.83125 58.166664Q91.1125 58.166664 90.675 58.77604Q90.12813 59.55729 90.12813 61.68229ZM96.64375 65.916664L96.64375 64.71354L97.84688 64.71354L97.84688 65.916664L96.64375 65.916664ZM99.05 61.68229Q99.05 60.15104 99.3625 59.229164Q99.675 58.291664 100.28438 57.791664Q100.90938 57.291664 101.84688 57.291664Q102.53438 57.291664 103.05 57.572914Q103.58125 57.854164 103.925 58.385414Q104.26875 58.90104 104.45625 59.65104Q104.64375 60.40104 104.64375 61.68229Q104.64375 63.197914 104.33125 64.11979Q104.03438 65.041664 103.40938 65.55729Q102.8 66.05729 101.84688 66.05729Q100.6125 66.05729 99.89375 65.166664Q99.05 64.104164 99.05 61.68229ZM100.12813 61.68229Q100.12813 63.791664 100.62813 64.49479Q101.12813 65.197914 101.84688 65.197914Q102.58125 65.197914 103.06563 64.49479Q103.56563 63.791664 103.56563 61.68229Q103.56563 59.55729 103.06563 58.86979Q102.58125 58.166664 101.83125 58.166664Q101.1125 58.166664 100.675 58.77604Q100.12813 59.55729 100.12813 61.68229ZM106.05 61.68229Q106.05 60.15104 106.3625 59.229164Q106.675 58.291664 107.28438 57.791664Q107.90938 57.291664 108.84688 57.291664Q109.53438 57.291664 110.05 57.572914Q110.58125 57.854164 110.925 58.385414Q111.26875 58.90104 111.45625 59.65104Q111.64375 60.40104 111.64375 61.68229Q111.64375 63.197914 111.33125 64.11979Q111.03438 65.041664 110.40938 65.55729Q109.8 66.05729 108.84688 66.05729Q107.6125 66.05729 106.89375 65.166664Q106.05 64.104164 106.05 61.68229ZM107.12813 61.68229Q107.12813 63.791664 107.62813 64.49479Q108.12813 65.197914 108.84688 65.197914Q109.58125 65.197914 110.06563 64.49479Q110.56563 63.791664 110.56563 61.68229Q110.56563 59.55729 110.06563 58.86979Q109.58125 58.166664 108.83125 58.166664Q108.1125 58.166664 107.675 58.77604Q107.12813 59.55729 107.12813 61.68229Z" fill-rule="nonzero"/><path fill="#000000" d="M191.49501 349.45L194.79189 340.85626L196.01064 340.85626L199.52626 349.45L198.24501 349.45L197.22939 346.84064L193.65126 346.84064L192.69814 349.45L191.49501 349.45ZM193.97939 345.91876L196.88564 345.91876L195.99501 343.54376Q195.57314 342.46564 195.38564 341.7625Q195.21376 342.59064 194.91689 343.40314L193.97939 345.91876ZM199.29189 349.45L199.29189 343.23126L200.24501 343.23126L200.24501 344.16876Q200.60439 343.5125 200.90126 343.3094Q201.21376 343.09064 201.58876 343.09064Q202.12001 343.09064 202.66689 343.41876L202.30751 344.40314Q201.91689 344.16876 201.54189 344.16876Q201.18251 344.16876 200.90126 344.3875Q200.63564 344.59064 200.52626 344.96564Q200.33876 345.52814 200.33876 346.1844L200.33876 349.45L199.29189 349.45ZM205.60439 348.5125L205.76064 349.4344Q205.30751 349.52814 204.96376 349.52814Q204.38564 349.52814 204.07314 349.35626Q203.76064 349.16876 203.62001 348.8719Q203.49501 348.575 203.49501 347.6219L203.49501 344.04376L202.72939 344.04376L202.72939 343.23126L203.49501 343.23126L203.49501 341.6844L204.54189 341.0594L204.54189 343.23126L205.60439 343.23126L205.60439 344.04376L204.54189 344.04376L204.54189 347.6844Q204.54189 348.1375 204.58876 348.2625Q204.65126 348.3875 204.77626 348.46564Q204.90126 348.54376 205.13564 348.54376Q205.32314 348.54376 205.60439 348.5125ZM210.55751 347.45L211.65126 347.575Q211.40126 348.52814 210.69814 349.0594Q209.99501 349.59064 208.91689 349.59064Q207.55751 349.59064 206.74501 348.7469Q205.94814 347.90314 205.94814 346.3875Q205.94814 344.825 206.76064 343.96564Q207.57314 343.09064 208.85439 343.09064Q210.10439 343.09064 210.88564 343.9344Q211.68251 344.77814 211.68251 346.325Q211.68251 346.41876 211.68251 346.60626L207.04189 346.60626Q207.10439 347.6375 207.62001 348.1844Q208.13564 348.71564 208.91689 348.71564Q209.49501 348.71564 209.90126 348.41876Q210.32314 348.10626 210.55751 347.45ZM207.10439 345.7469L210.57314 345.7469Q210.51064 344.95 210.18251 344.5594Q209.66689 343.95 208.87001 343.95Q208.13564 343.95 207.63564 344.4344Q207.15126 344.91876 207.10439 345.7469ZM213.30751 349.45L213.30751 343.23126L214.24501 343.23126L214.24501 344.10626Q214.54189 343.6375 215.02626 343.3719Q215.51064 343.09064 216.13564 343.09064Q216.82314 343.09064 217.26064 343.3719Q217.71376 343.65314 217.88564 344.16876Q218.63564 343.09064 219.80751 343.09064Q220.74501 343.09064 221.22939 343.60626Q221.72939 344.10626 221.72939 345.1844L221.72939 349.45L220.68251 349.45L220.68251 345.52814Q220.68251 344.90314 220.57314 344.6219Q220.47939 344.34064 220.21376 344.16876Q219.94814 343.9969 219.57314 343.9969Q218.91689 343.9969 218.47939 344.4344Q218.05751 344.8719 218.05751 345.84064L218.05751 349.45L216.99501 349.45L216.99501 345.40314Q216.99501 344.7 216.72939 344.35626Q216.47939 343.9969 215.90126 343.9969Q215.44814 343.9969 215.07314 344.23126Q214.69814 344.46564 214.52626 344.91876Q214.35439 345.3719 214.35439 346.21564L214.35439 349.45L213.30751 349.45ZM224.30751 342.075L224.30751 340.85626L225.37001 340.85626L225.37001 342.075L224.30751 342.075ZM224.30751 349.45L224.30751 343.23126L225.37001 343.23126L225.37001 349.45L224.30751 349.45ZM226.88564 347.59064L227.91689 347.4344Q228.01064 348.0594 228.40126 348.3875Q228.80751 348.71564 229.54189 348.71564Q230.26064 348.71564 230.60439 348.4344Q230.96376 348.1375 230.96376 347.73126Q230.96376 347.3719 230.65126 347.16876Q230.43251 347.02814 229.57314 346.8094Q228.41689 346.5125 227.96376 346.3094Q227.52626 346.09064 227.29189 345.71564Q227.05751 345.34064 227.05751 344.8719Q227.05751 344.46564 227.24501 344.10626Q227.43251 343.7469 227.76064 343.5125Q228.01064 343.34064 228.43251 343.21564Q228.85439 343.09064 229.35439 343.09064Q230.07314 343.09064 230.62001 343.3094Q231.18251 343.5125 231.44814 343.8719Q231.71376 344.23126 231.80751 344.825L230.77626 344.96564Q230.71376 344.4969 230.37001 344.23126Q230.04189 343.95 229.41689 343.95Q228.69814 343.95 228.38564 344.2Q228.07314 344.4344 228.07314 344.7625Q228.07314 344.96564 228.19814 345.1219Q228.33876 345.29376 228.60439 345.40314Q228.76064 345.46564 229.54189 345.66876Q230.66689 345.98126 231.10439 346.16876Q231.54189 346.35626 231.79189 346.71564Q232.04189 347.075 232.04189 347.6219Q232.04189 348.15314 231.72939 348.6219Q231.43251 349.075 230.85439 349.34064Q230.27626 349.59064 229.54189 349.59064Q228.32314 349.59064 227.68251 349.09064Q227.05751 348.575 226.88564 347.59064ZM234.43251 349.45L234.43251 340.85626L235.58876 340.85626L240.10439 347.60626L240.10439 340.85626L241.19814 340.85626L241.19814 349.45L240.02626 349.45L235.51064 342.7L235.51064 349.45L234.43251 349.45ZM247.55751 347.45L248.65126 347.575Q248.40126 348.52814 247.69814 349.0594Q246.99501 349.59064 245.91689 349.59064Q244.55751 349.59064 243.74501 348.7469Q242.94814 347.90314 242.94814 346.3875Q242.94814 344.825 243.76064 343.96564Q244.57314 343.09064 245.85439 343.09064Q247.10439 343.09064 247.88564 343.9344Q248.68251 344.77814 248.68251 346.325Q248.68251 346.41876 248.68251 346.60626L244.04189 346.60626Q244.10439 347.6375 244.62001 348.1844Q245.13564 348.71564 245.91689 348.71564Q246.49501 348.71564 246.90126 348.41876Q247.32314 348.10626 247.55751 347.45ZM244.10439 345.7469L247.57314 345.7469Q247.51064 344.95 247.18251 344.5594Q246.66689 343.95 245.87001 343.95Q245.13564 343.95 244.63564 344.4344Q244.15126 344.91876 244.10439 345.7469ZM252.60439 348.5125L252.76064 349.4344Q252.30751 349.52814 251.96376 349.52814Q251.38564 349.52814 251.07314 349.35626Q250.76064 349.16876 250.62001 348.8719Q250.49501 348.575 250.49501 347.6219L250.49501 344.04376L249.72939 344.04376L249.72939 343.23126L250.49501 343.23126L250.49501 341.6844L251.54189 341.0594L251.54189 343.23126L252.60439 343.23126L252.60439 344.04376L251.54189 344.04376L251.54189 347.6844Q251.54189 348.1375 251.58876 348.2625Q251.65126 348.3875 251.77626 348.46564Q251.90126 348.54376 252.13564 348.54376Q252.32314 348.54376 252.60439 348.5125ZM259.57312 346.4344L260.69812 346.73126Q260.33875 348.1219 259.41687 348.85626Q258.495 349.59064 257.15125 349.59064Q255.76064 349.59064 254.88564 349.02814Q254.01064 348.46564 253.55751 347.40314Q253.10439 346.325 253.10439 345.09064Q253.10439 343.7469 253.62001 342.7469Q254.13564 341.7469 255.07314 341.23126Q256.02625 340.71564 257.16687 340.71564Q258.44812 340.71564 259.32312 341.3719Q260.21375 342.02814 260.5575 343.21564L259.4325 343.48126Q259.13562 342.54376 258.5575 342.1219Q257.995 341.6844 257.13562 341.6844Q256.15125 341.6844 255.47939 342.16876Q254.82314 342.6375 254.54189 343.4344Q254.27626 344.23126 254.27626 345.09064Q254.27626 346.1844 254.58876 346.9969Q254.91689 347.8094 255.58876 348.21564Q256.26062 348.6219 257.0575 348.6219Q258.01062 348.6219 258.66687 348.075Q259.33875 347.52814 259.57312 346.4344ZM261.91687 346.34064Q261.91687 344.60626 262.87 343.77814Q263.66687 343.09064 264.82312 343.09064Q266.10437 343.09064 266.91687 343.9344Q267.745 344.7625 267.745 346.2469Q267.745 347.45 267.38562 348.1375Q267.02625 348.825 266.32312 349.21564Q265.63562 349.59064 264.82312 349.59064Q263.52625 349.59064 262.71375 348.7625Q261.91687 347.91876 261.91687 346.34064ZM262.995 346.34064Q262.995 347.52814 263.51062 348.1219Q264.04187 348.71564 264.82312 348.71564Q265.62 348.71564 266.13562 348.1219Q266.65125 347.52814 266.65125 346.3094Q266.65125 345.15314 266.12 344.5594Q265.60437 343.96564 264.82312 343.96564Q264.04187 343.96564 263.51062 344.5594Q262.995 345.1375 262.995 346.34064ZM269.29187 349.45L269.29187 343.23126L270.245 343.23126L270.245 344.16876Q270.60437 343.5125 270.90125 343.3094Q271.21375 343.09064 271.58875 343.09064Q272.12 343.09064 272.66687 343.41876L272.3075 344.40314Q271.91687 344.16876 271.54187 344.16876Q271.1825 344.16876 270.90125 344.3875Q270.63562 344.59064 270.52625 344.96564Q270.33875 345.52814 270.33875 346.1844L270.33875 349.45L269.29187 349.45ZM277.5575 347.45L278.65125 347.575Q278.40125 348.52814 277.69812 349.0594Q276.995 349.59064 275.91687 349.59064Q274.5575 349.59064 273.745 348.7469Q272.94812 347.90314 272.94812 346.3875Q272.94812 344.825 273.76062 343.96564Q274.57312 343.09064 275.85437 343.09064Q277.10437 343.09064 277.88562 343.9344Q278.6825 344.77814 278.6825 346.325Q278.6825 346.41876 278.6825 346.60626L274.04187 346.60626Q274.10437 347.6375 274.62 348.1844Q275.13562 348.71564 275.91687 348.71564Q276.495 348.71564 276.90125 348.41876Q277.32312 348.10626 277.5575 347.45ZM274.10437 345.7469L277.57312 345.7469Q277.51062 344.95 277.1825 344.5594Q276.66687 343.95 275.87 343.95Q275.13562 343.95 274.63562 344.4344Q274.15125 344.91876 274.10437 345.7469ZM286.57312 346.4344L287.69812 346.73126Q287.33875 348.1219 286.41687 348.85626Q285.495 349.59064 284.15125 349.59064Q282.76062 349.59064 281.88562 349.02814Q281.01062 348.46564 280.5575 347.40314Q280.10437 346.325 280.10437 345.09064Q280.10437 343.7469 280.62 342.7469Q281.13562 341.7469 282.07312 341.23126Q283.02625 340.71564 284.16687 340.71564Q285.44812 340.71564 286.32312 341.3719Q287.21375 342.02814 287.5575 343.21564L286.4325 343.48126Q286.13562 342.54376 285.5575 342.1219Q284.995 341.6844 284.13562 341.6844Q283.15125 341.6844 282.47937 342.16876Q281.82312 342.6375 281.54187 343.4344Q281.27625 344.23126 281.27625 345.09064Q281.27625 346.1844 281.58875 346.9969Q281.91687 347.8094 282.58875 348.21564Q283.26062 348.6219 284.0575 348.6219Q285.01062 348.6219 285.66687 348.075Q286.33875 347.52814 286.57312 346.4344ZM289.27625 349.45L289.27625 340.85626L290.33875 340.85626L290.33875 349.45L289.27625 349.45ZM292.3075 342.075L292.3075 340.85626L293.37 340.85626L293.37 342.075L292.3075 342.075ZM292.3075 349.45L292.3075 343.23126L293.37 343.23126L293.37 349.45L292.3075 349.45ZM299.5575 347.45L300.65125 347.575Q300.40125 348.52814 299.69812 349.0594Q298.995 349.59064 297.91687 349.59064Q296.5575 349.59064 295.745 348.7469Q294.94812 347.90314 294.94812 346.3875Q294.94812 344.825 295.76062 343.96564Q296.57312 343.09064 297.85437 343.09064Q299.10437 343.09064 299.88562 343.9344Q300.6825 344.77814 300.6825 346.325Q300.6825 346.41876 300.6825 346.60626L296.04187 346.60626Q296.10437 347.6375 296.62 348.1844Q297.13562 348.71564 297.91687 348.71564Q298.495 348.71564 298.90125 348.41876Q299.32312 348.10626 299.5575 347.45ZM296.10437 345.7469L299.57312 345.7469Q299.51062 344.95 299.1825 344.5594Q298.66687 343.95 297.87 343.95Q297.13562 343.95 296.63562 344.4344Q296.15125 344.91876 296.10437 345.7469ZM302.3075 349.45L302.3075 343.23126L303.245 343.23126L303.245 344.10626Q303.9325 343.09064 305.22937 343.09064Q305.79187 343.09064 306.26062 343.29376Q306.745 343.4969 306.97937 343.825Q307.21375 344.15314 307.3075 344.59064Q307.35437 344.8875 307.35437 345.6219L307.35437 349.45L306.3075 349.45L306.3075 345.66876Q306.3075 345.0125 306.1825 344.7Q306.0575 344.3875 305.745 344.2Q305.4325 343.9969 305.01062 343.9969Q304.33875 343.9969 303.83875 344.4344Q303.35437 344.85626 303.35437 346.04376L303.35437 349.45L302.3075 349.45ZM311.60437 348.5125L311.76062 349.4344Q311.3075 349.52814 310.96375 349.52814Q310.38562 349.52814 310.07312 349.35626Q309.76062 349.16876 309.62 348.8719Q309.495 348.575 309.495 347.6219L309.495 344.04376L308.72937 344.04376L308.72937 343.23126L309.495 343.23126L309.495 341.6844L310.54187 341.0594L310.54187 343.23126L311.60437 343.23126L311.60437 344.04376L310.54187 344.04376L310.54187 347.6844Q310.54187 348.1375 310.58875 348.2625Q310.65125 348.3875 310.77625 348.46564Q310.90125 348.54376 311.13562 348.54376Q311.32312 348.54376 311.60437 348.5125Z" fill-rule="nonzero"/><path fill="#000000" d="M418.41122 349.45L418.41122 340.85626L419.56747 340.85626L424.0831 347.60626L424.0831 340.85626L425.17685 340.85626L425.17685 349.45L424.00497 349.45L419.48935 342.7L419.48935 349.45L418.41122 349.45ZM427.37997 349.45L427.37997 340.85626L429.09872 340.85626L431.12997 346.9344Q431.41122 347.79376 431.53622 348.21564Q431.67685 347.7469 431.98935 346.84064L434.05185 340.85626L435.5831 340.85626L435.5831 349.45L434.48935 349.45L434.48935 342.2625L431.98935 349.45L430.9581 349.45L428.47372 342.1375L428.47372 349.45L427.37997 349.45ZM436.03622 346.6844L437.09872 346.59064Q437.17685 347.2469 437.4581 347.65314Q437.73935 348.0594 438.31747 348.325Q438.91122 348.575 439.6456 348.575Q440.28622 348.575 440.78622 348.3875Q441.28622 348.1844 441.5206 347.85626Q441.7706 347.5125 441.7706 347.1219Q441.7706 346.71564 441.53622 346.41876Q441.30185 346.10626 440.7706 345.90314Q440.41122 345.7625 439.22372 345.48126Q438.05185 345.2 437.5831 344.95Q436.9581 344.6219 436.66122 344.15314Q436.36435 343.66876 436.36435 343.075Q436.36435 342.4344 436.72372 341.8719Q437.09872 341.29376 437.80185 341.0125Q438.5206 340.71564 439.37997 340.71564Q440.3331 340.71564 441.06747 341.02814Q441.80185 341.325 442.19247 341.9344Q442.5831 342.52814 442.61435 343.27814L441.5206 343.35626Q441.42685 342.54376 440.91122 342.1375Q440.41122 341.71564 439.42685 341.71564Q438.3956 341.71564 437.92685 342.09064Q437.4581 342.46564 437.4581 342.9969Q437.4581 343.46564 437.78622 343.7625Q438.11435 344.0594 439.48935 344.3719Q440.87997 344.6844 441.3956 344.91876Q442.1456 345.27814 442.50497 345.8094Q442.86435 346.325 442.86435 347.02814Q442.86435 347.71564 442.47372 348.325Q442.0831 348.91876 441.34872 349.2625Q440.61435 349.59064 439.69247 349.59064Q438.5206 349.59064 437.72372 349.2625Q436.94247 348.91876 436.48935 348.23126Q436.05185 347.54376 436.03622 346.6844ZM444.5831 349.45L444.5831 348.2469L445.78622 348.2469L445.78622 349.45L444.5831 349.45ZM446.47372 349.45L449.7706 340.85626L450.98935 340.85626L454.50497 349.45L453.22372 349.45L452.2081 346.84064L448.62997 346.84064L447.67685 349.45L446.47372 349.45ZM448.9581 345.91876L451.86435 345.91876L450.97372 343.54376Q450.55185 342.46564 450.36435 341.7625Q450.19247 342.59064 449.8956 343.40314L448.9581 345.91876ZM454.37997 349.45L454.37997 340.85626L456.09872 340.85626L458.12997 346.9344Q458.41122 347.79376 458.53622 348.21564Q458.67685 347.7469 458.98935 346.84064L461.05185 340.85626L462.5831 340.85626L462.5831 349.45L461.48935 349.45L461.48935 342.2625L458.98935 349.45L457.9581 349.45L455.47372 342.1375L455.47372 349.45L454.37997 349.45ZM469.92685 348.52814Q470.72372 349.075 471.37997 349.325L471.05185 350.1219Q470.12997 349.77814 469.2081 349.0594Q468.25497 349.59064 467.09872 349.59064Q465.92685 349.59064 464.97372 349.02814Q464.03622 348.46564 463.5206 347.45Q463.00497 346.4344 463.00497 345.15314Q463.00497 343.8875 463.5206 342.84064Q464.03622 341.79376 464.98935 341.2469Q465.94247 340.7 467.11435 340.7Q468.30185 340.7 469.25497 341.27814Q470.22372 341.84064 470.72372 342.85626Q471.22372 343.8719 471.22372 345.15314Q471.22372 346.21564 470.8956 347.0594Q470.5831 347.90314 469.92685 348.52814ZM467.42685 347.075Q468.41122 347.35626 469.05185 347.90314Q470.05185 346.98126 470.05185 345.15314Q470.05185 344.10626 469.69247 343.325Q469.3331 342.54376 468.6456 342.1219Q467.97372 341.6844 467.12997 341.6844Q465.84872 341.6844 465.00497 342.5594Q464.17685 343.41876 464.17685 345.15314Q464.17685 346.825 465.00497 347.73126Q465.8331 348.6219 467.12997 348.6219Q467.73935 348.6219 468.2706 348.3875Q467.73935 348.04376 467.1456 347.90314L467.42685 347.075ZM472.41122 349.45L472.41122 340.85626L475.66122 340.85626Q476.50497 340.85626 476.9581 340.9344Q477.59872 341.04376 478.0206 341.34064Q478.4581 341.6375 478.7081 342.16876Q478.97372 342.7 478.97372 343.34064Q478.97372 344.4344 478.2706 345.2Q477.5831 345.95 475.75497 345.95L473.55185 345.95L473.55185 349.45L472.41122 349.45ZM473.55185 344.95L475.7706 344.95Q476.87997 344.95 477.3331 344.54376Q477.80185 344.1219 477.80185 343.3719Q477.80185 342.84064 477.5206 342.46564Q477.25497 342.075 476.81747 341.95Q476.5206 341.8719 475.75497 341.8719L473.55185 341.8719L473.55185 344.95Z" fill-rule="nonzero"/><path fill="#757575" d="M21.45625 32.95625L23.2375 32.8Q23.3625 33.8625 23.815624 34.55Q24.284374 35.2375 25.253124 35.675Q26.2375 36.096874 27.471874 36.096874Q28.55 36.096874 29.378124 35.784374Q30.20625 35.45625 30.6125 34.89375Q31.01875 34.33125 31.01875 33.659374Q31.01875 32.9875 30.628124 32.4875Q30.2375 31.9875 29.346874 31.64375Q28.76875 31.409374 26.784374 30.940624Q24.815624 30.471874 24.034374 30.05Q23.003124 29.51875 22.503124 28.721874Q22.003124 27.925 22.003124 26.940624Q22.003124 25.846874 22.6125 24.909374Q23.221874 23.971874 24.409374 23.4875Q25.596874 22.9875 27.034374 22.9875Q28.628124 22.9875 29.846874 23.503124Q31.065624 24.01875 31.70625 25.01875Q32.3625 26.003124 32.409374 27.26875L30.596874 27.409374Q30.45625 26.05 29.6125 25.3625Q28.76875 24.659374 27.1125 24.659374Q25.39375 24.659374 24.596874 25.3Q23.815624 25.925 23.815624 26.8Q23.815624 27.58125 24.378124 28.08125Q24.925 28.58125 27.2375 29.096874Q29.55 29.6125 30.409374 30.003124Q31.659374 30.58125 32.253124 31.471874Q32.846874 32.346874 32.846874 33.503124Q32.846874 34.64375 32.190624 35.659374Q31.534374 36.675 30.3 37.2375Q29.08125 37.8 27.55 37.8Q25.6125 37.8 24.3 37.2375Q22.9875 36.659374 22.2375 35.51875Q21.4875 34.378124 21.45625 32.95625ZM41.971874 34.20625L43.784374 34.440624Q43.3625 36.01875 42.190624 36.909374Q41.034374 37.784374 39.221874 37.784374Q36.95625 37.784374 35.6125 36.39375Q34.284374 34.9875 34.284374 32.45625Q34.284374 29.83125 35.628124 28.39375Q36.971874 26.940624 39.128124 26.940624Q41.20625 26.940624 42.51875 28.3625Q43.846874 29.76875 43.846874 32.346874Q43.846874 32.503124 43.83125 32.815624L36.096874 32.815624Q36.190624 34.51875 37.065624 35.425Q37.940624 36.33125 39.2375 36.33125Q40.20625 36.33125 40.878124 35.83125Q41.565624 35.315624 41.971874 34.20625ZM36.190624 31.3625L41.9875 31.3625Q41.878124 30.065624 41.33125 29.409374Q40.4875 28.39375 39.14375 28.39375Q37.940624 28.39375 37.1125 29.20625Q36.284374 30.003124 36.190624 31.3625ZM45.8625 37.55L45.8625 27.175L47.45625 27.175L47.45625 28.659374Q48.596874 26.940624 50.753124 26.940624Q51.690624 26.940624 52.471874 27.284374Q53.26875 27.6125 53.659374 28.159374Q54.05 28.70625 54.20625 29.45625Q54.3 29.95625 54.3 31.175L54.3 37.55L52.534374 37.55L52.534374 31.2375Q52.534374 30.159374 52.33125 29.628124Q52.128124 29.096874 51.596874 28.784374Q51.08125 28.471874 50.378124 28.471874Q49.253124 28.471874 48.440624 29.190624Q47.628124 29.89375 47.628124 31.878124L47.628124 37.55L45.8625 37.55ZM62.596874 37.55L62.596874 36.2375Q61.6125 37.784374 59.690624 37.784374Q58.45625 37.784374 57.409374 37.096874Q56.378124 36.409374 55.8 35.190624Q55.2375 33.971874 55.2375 32.378124Q55.2375 30.815624 55.753124 29.55Q56.26875 28.284374 57.3 27.6125Q58.346874 26.940624 59.6125 26.940624Q60.55 26.940624 61.284374 27.346874Q62.01875 27.7375 62.4875 28.3625L62.4875 23.2375L64.22188 23.2375L64.22188 37.55L62.596874 37.55ZM57.034374 32.378124Q57.034374 34.3625 57.878124 35.346874Q58.721874 36.33125 59.8625 36.33125Q61.01875 36.33125 61.815624 35.39375Q62.628124 34.45625 62.628124 32.51875Q62.628124 30.39375 61.8 29.39375Q60.9875 28.39375 59.784374 28.39375Q58.6125 28.39375 57.815624 29.3625Q57.034374 30.315624 57.034374 32.378124ZM66.87813 25.253124L66.87813 23.2375L68.64375 23.2375L68.64375 25.253124L66.87813 25.253124ZM66.87813 37.55L66.87813 27.175L68.64375 27.175L68.64375 37.55L66.87813 37.55ZM70.8625 37.55L70.8625 27.175L72.45625 27.175L72.45625 28.659374Q73.59688 26.940624 75.75313 26.940624Q76.69063 26.940624 77.47188 27.284374Q78.26875 27.6125 78.65938 28.159374Q79.05 28.70625 79.20625 29.45625Q79.3 29.95625 79.3 31.175L79.3 37.55L77.53438 37.55L77.53438 31.2375Q77.53438 30.159374 77.33125 29.628124Q77.12813 29.096874 76.59688 28.784374Q76.08125 28.471874 75.37813 28.471874Q74.25313 28.471874 73.44063 29.190624Q72.62813 29.89375 72.62813 31.878124L72.62813 37.55L70.8625 37.55ZM80.55 38.409374L82.25313 38.659374Q82.3625 39.45625 82.84688 39.815624Q83.50313 40.3 84.64375 40.3Q85.8625 40.3 86.51875 39.815624Q87.19063 39.33125 87.425 38.45625Q87.56563 37.909374 87.55 36.190624Q86.39375 37.55 84.675 37.55Q82.53438 37.55 81.3625 36.003124Q80.19063 34.45625 80.19063 32.3Q80.19063 30.815624 80.72188 29.565624Q81.26875 28.315624 82.28438 27.628124Q83.31563 26.940624 84.69063 26.940624Q86.51875 26.940624 87.72188 28.425L87.72188 27.175L89.33125 27.175L89.33125 36.14375Q89.33125 38.565624 88.83125 39.565624Q88.34688 40.58125 87.26875 41.159374Q86.20625 41.753124 84.64375 41.753124Q82.8 41.753124 81.64375 40.925Q80.50313 40.096874 80.55 38.409374ZM82.00313 32.175Q82.00313 34.221874 82.81563 35.159374Q83.62813 36.096874 84.84688 36.096874Q86.05 36.096874 86.8625 35.159374Q87.69063 34.221874 87.69063 32.2375Q87.69063 30.33125 86.84688 29.3625Q86.00313 28.39375 84.81563 28.39375Q83.64375 28.39375 82.81563 29.346874Q82.00313 30.3 82.00313 32.175ZM97.8625 37.55L97.8625 27.175L99.44063 27.175L99.44063 28.628124Q99.925 27.878124 100.7375 27.409374Q101.55 26.940624 102.58125 26.940624Q103.7375 26.940624 104.47188 27.425Q105.20625 27.89375 105.51875 28.753124Q106.75313 26.940624 108.72188 26.940624Q110.26875 26.940624 111.09688 27.8Q111.925 28.659374 111.925 30.425L111.925 37.55L110.175 37.55L110.175 31.01875Q110.175 29.95625 110.00313 29.503124Q109.83125 29.034374 109.37813 28.753124Q108.94063 28.471874 108.33125 28.471874Q107.2375 28.471874 106.50313 29.20625Q105.78438 29.925 105.78438 31.51875L105.78438 37.55L104.03438 37.55L104.03438 30.815624Q104.03438 29.64375 103.59688 29.065624Q103.175 28.471874 102.19063 28.471874Q101.45625 28.471874 100.81563 28.8625Q100.19063 29.253124 99.90938 30.003124Q99.62813 30.753124 99.62813 32.175L99.62813 37.55L97.8625 37.55ZM113.15938 34.45625L114.90938 34.175Q115.05 35.221874 115.72188 35.784374Q116.39375 36.33125 117.59688 36.33125Q118.8 36.33125 119.37813 35.846874Q119.97188 35.346874 119.97188 34.690624Q119.97188 34.096874 119.45625 33.753124Q119.09688 33.51875 117.65938 33.159374Q115.72188 32.659374 114.97188 32.315624Q114.2375 31.95625 113.84688 31.33125Q113.45625 30.690624 113.45625 29.925Q113.45625 29.2375 113.76875 28.64375Q114.09688 28.05 114.64375 27.659374Q115.05 27.3625 115.75313 27.159374Q116.47188 26.940624 117.28438 26.940624Q118.50313 26.940624 119.425 27.3Q120.34688 27.64375 120.78438 28.253124Q121.22188 28.846874 121.39375 29.846874L119.675 30.08125Q119.55 29.284374 118.9875 28.846874Q118.425 28.39375 117.40938 28.39375Q116.19063 28.39375 115.675 28.8Q115.15938 29.190624 115.15938 29.721874Q115.15938 30.065624 115.37813 30.346874Q115.58125 30.628124 116.05 30.815624Q116.31563 30.909374 117.59688 31.253124Q119.47188 31.753124 120.20625 32.08125Q120.94063 32.39375 121.3625 33.003124Q121.78438 33.596874 121.78438 34.503124Q121.78438 35.378124 121.26875 36.159374Q120.75313 36.940624 119.78438 37.3625Q118.81563 37.784374 117.59688 37.784374Q115.58125 37.784374 114.51875 36.940624Q113.45625 36.096874 113.15938 34.45625ZM123.55 38.409374L125.25313 38.659374Q125.3625 39.45625 125.84688 39.815624Q126.50313 40.3 127.64375 40.3Q128.8625 40.3 129.51875 39.815624Q130.19063 39.33125 130.425 38.45625Q130.56563 37.909374 130.55 36.190624Q129.39375 37.55 127.675 37.55Q125.53438 37.55 124.3625 36.003124Q123.19063 34.45625 123.19063 32.3Q123.19063 30.815624 123.72188 29.565624Q124.26875 28.315624 125.28438 27.628124Q126.31563 26.940624 127.69063 26.940624Q129.51875 26.940624 130.72188 28.425L130.72188 27.175L132.33125 27.175L132.33125 36.14375Q132.33125 38.565624 131.83125 39.565624Q131.34688 40.58125 130.26875 41.159374Q129.20625 41.753124 127.64375 41.753124Q125.8 41.753124 124.64375 40.925Q123.50313 40.096874 123.55 38.409374ZM125.00313 32.175Q125.00313 34.221874 125.81563 35.159374Q126.62813 36.096874 127.84688 36.096874Q129.05 36.096874 129.8625 35.159374Q130.69063 34.221874 130.69063 32.2375Q130.69063 30.33125 129.84688 29.3625Q129.00313 28.39375 127.81563 28.39375Q126.64375 28.39375 125.81563 29.346874Q125.00313 30.3 125.00313 32.175ZM134.15938 34.45625L135.90938 34.175Q136.05 35.221874 136.72188 35.784374Q137.39375 36.33125 138.59688 36.33125Q139.8 36.33125 140.37813 35.846874Q140.97188 35.346874 140.97188 34.690624Q140.97188 34.096874 140.45625 33.753124Q140.09688 33.51875 138.65938 33.159374Q136.72188 32.659374 135.97188 32.315624Q135.2375 31.95625 134.84688 31.33125Q134.45625 30.690624 134.45625 29.925Q134.45625 29.2375 134.76875 28.64375Q135.09688 28.05 135.64375 27.659374Q136.05 27.3625 136.75313 27.159374Q137.47188 26.940624 138.28438 26.940624Q139.50313 26.940624 140.425 27.3Q141.34688 27.64375 141.78438 28.253124Q142.22188 28.846874 142.39375 29.846874L140.675 30.08125Q140.55 29.284374 139.9875 28.846874Q139.425 28.39375 138.40938 28.39375Q137.19063 28.39375 136.675 28.8Q136.15938 29.190624 136.15938 29.721874Q136.15938 30.065624 136.37813 30.346874Q136.58125 30.628124 137.05 30.815624Q137.31563 30.909374 138.59688 31.253124Q140.47188 31.753124 141.20625 32.08125Q141.94063 32.39375 142.3625 33.003124Q142.78438 33.596874 142.78438 34.503124Q142.78438 35.378124 142.26875 36.159374Q141.75313 36.940624 140.78438 37.3625Q139.81563 37.784374 138.59688 37.784374Q136.58125 37.784374 135.51875 36.940624Q134.45625 36.096874 134.15938 34.45625ZM143.55 37.8L147.70625 22.9875L149.1125 22.9875L144.97188 37.8L143.55 37.8ZM150.15938 34.45625L151.90938 34.175Q152.05 35.221874 152.72188 35.784374Q153.39375 36.33125 154.59688 36.33125Q155.8 36.33125 156.37813 35.846874Q156.97188 35.346874 156.97188 34.690624Q156.97188 34.096874 156.45625 33.753124Q156.09688 33.51875 154.65938 33.159374Q152.72188 32.659374 151.97188 32.315624Q151.2375 31.95625 150.84688 31.33125Q150.45625 30.690624 150.45625 29.925Q150.45625 29.2375 150.76875 28.64375Q151.09688 28.05 151.64375 27.659374Q152.05 27.3625 152.75313 27.159374Q153.47188 26.940624 154.28438 26.940624Q155.50313 26.940624 156.425 27.3Q157.34688 27.64375 157.78438 28.253124Q158.22188 28.846874 158.39375 29.846874L156.675 30.08125Q156.55 29.284374 155.9875 28.846874Q155.425 28.39375 154.40938 28.39375Q153.19063 28.39375 152.675 28.8Q152.15938 29.190624 152.15938 29.721874Q152.15938 30.065624 152.37813 30.346874Q152.58125 30.628124 153.05 30.815624Q153.31563 30.909374 154.59688 31.253124Q156.47188 31.753124 157.20625 32.08125Q157.94063 32.39375 158.3625 33.003124Q158.78438 33.596874 158.78438 34.503124Q158.78438 35.378124 158.26875 36.159374Q157.75313 36.940624 156.78438 37.3625Q155.81563 37.784374 154.59688 37.784374Q152.58125 37.784374 151.51875 36.940624Q150.45625 36.096874 150.15938 34.45625ZM170.22188 41.753124Q168.76875 39.925 167.76875 37.471874Q166.76875 35.003124 166.76875 32.3625Q166.76875 30.034374 167.51875 27.909374Q168.39375 25.440624 170.22188 22.9875L171.4875 22.9875Q170.3 25.01875 169.925 25.89375Q169.33125 27.2375 168.9875 28.70625Q168.56563 30.534374 168.56563 32.378124Q168.56563 37.065624 171.4875 41.753124L170.22188 41.753124ZM173.55 38.409374L175.25313 38.659374Q175.3625 39.45625 175.84688 39.815624Q176.50313 40.3 177.64375 40.3Q178.8625 40.3 179.51875 39.815624Q180.19063 39.33125 180.425 38.45625Q180.56563 37.909374 180.55 36.190624Q179.39375 37.55 177.675 37.55Q175.53438 37.55 174.3625 36.003124Q173.19063 34.45625 173.19063 32.3Q173.19063 30.815624 173.72188 29.565624Q174.26875 28.315624 175.28438 27.628124Q176.31563 26.940624 177.69063 26.940624Q179.51875 26.940624 180.72188 28.425L180.72188 27.175L182.33125 27.175L182.33125 36.14375Q182.33125 38.565624 181.83125 39.565624Q181.34688 40.58125 180.26875 41.159374Q179.20625 41.753124 177.64375 41.753124Q175.8 41.753124 174.64375 40.925Q173.50313 40.096874 173.55 38.409374ZM175.00313 32.175Q175.00313 34.221874 175.81563 35.159374Q176.62813 36.096874 177.84688 36.096874Q179.05 36.096874 179.8625 35.159374Q180.69063 34.221874 180.69063 32.2375Q180.69063 30.33125 179.84688 29.3625Q179.00313 28.39375 177.81563 28.39375Q176.64375 28.39375 175.81563 29.346874Q175.00313 30.3 175.00313 32.175ZM184.84688 37.55L184.84688 27.175L186.425 27.175L186.425 28.753124Q187.03438 27.64375 187.55 27.3Q188.06563 26.940624 188.675 26.940624Q189.56563 26.940624 190.4875 27.503124L189.87813 29.14375Q189.2375 28.753124 188.59688 28.753124Q188.01875 28.753124 187.55 29.1125Q187.09688 29.45625 186.89375 30.065624Q186.6125 31.003124 186.6125 32.1125L186.6125 37.55L184.84688 37.55ZM198.97188 34.20625L200.78438 34.440624Q200.3625 36.01875 199.19063 36.909374Q198.03438 37.784374 196.22188 37.784374Q193.95625 37.784374 192.6125 36.39375Q191.28438 34.9875 191.28438 32.45625Q191.28438 29.83125 192.62813 28.39375Q193.97188 26.940624 196.12813 26.940624Q198.20625 26.940624 199.51875 28.3625Q200.84688 29.76875 200.84688 32.346874Q200.84688 32.503124 200.83125 32.815624L193.09688 32.815624Q193.19063 34.51875 194.06563 35.425Q194.94063 36.33125 196.2375 36.33125Q197.20625 36.33125 197.87813 35.83125Q198.56563 35.315624 198.97188 34.20625ZM193.19063 31.3625L198.9875 31.3625Q198.87813 30.065624 198.33125 29.409374Q197.4875 28.39375 196.14375 28.39375Q194.94063 28.39375 194.1125 29.20625Q193.28438 30.003124 193.19063 31.3625ZM209.64375 36.26875Q208.65938 37.096874 207.75313 37.440624Q206.84688 37.784374 205.81563 37.784374Q204.1125 37.784374 203.19063 36.95625Q202.26875 36.1125 202.26875 34.815624Q202.26875 34.05 202.6125 33.425Q202.97188 32.8 203.53438 32.425Q204.09688 32.034374 204.8 31.83125Q205.31563 31.70625 206.3625 31.565624Q208.4875 31.315624 209.4875 30.971874Q209.50313 30.6125 209.50313 30.503124Q209.50313 29.440624 209.00313 28.9875Q208.33125 28.39375 207.00313 28.39375Q205.75313 28.39375 205.15938 28.83125Q204.58125 29.26875 204.3 30.378124L202.58125 30.14375Q202.81563 29.034374 203.34688 28.3625Q203.87813 27.675 204.89375 27.315624Q205.90938 26.940624 207.25313 26.940624Q208.58125 26.940624 209.40938 27.253124Q210.2375 27.565624 210.62813 28.05Q211.01875 28.51875 211.175 29.2375Q211.26875 29.690624 211.26875 30.8625L211.26875 33.20625Q211.26875 35.659374 211.37813 36.315624Q211.4875 36.95625 211.83125 37.55L209.9875 37.55Q209.72188 37.003124 209.64375 36.26875ZM209.4875 32.346874Q208.53438 32.7375 206.6125 33.003124Q205.53438 33.159374 205.08125 33.3625Q204.64375 33.55 204.39375 33.925Q204.14375 34.3 204.14375 34.76875Q204.14375 35.471874 204.675 35.940624Q205.20625 36.409374 206.2375 36.409374Q207.25313 36.409374 208.03438 35.971874Q208.83125 35.51875 209.20625 34.753124Q209.4875 34.14375 209.4875 32.9875L209.4875 32.346874ZM217.70625 35.971874L217.95625 37.534374Q217.22188 37.690624 216.62813 37.690624Q215.675 37.690624 215.14375 37.39375Q214.62813 37.08125 214.40938 36.596874Q214.19063 36.096874 214.19063 34.51875L214.19063 28.55L212.90938 28.55L212.90938 27.175L214.19063 27.175L214.19063 24.6125L215.94063 23.55L215.94063 27.175L217.70625 27.175L217.70625 28.55L215.94063 28.55L215.94063 34.6125Q215.94063 35.3625 216.03438 35.58125Q216.12813 35.784374 216.33125 35.925Q216.55 36.05 216.94063 36.05Q217.22188 36.05 217.70625 35.971874ZM226.97188 34.20625L228.78438 34.440624Q228.3625 36.01875 227.19063 36.909374Q226.03438 37.784374 224.22188 37.784374Q221.95625 37.784374 220.6125 36.39375Q219.28438 34.9875 219.28438 32.45625Q219.28438 29.83125 220.62813 28.39375Q221.97188 26.940624 224.12813 26.940624Q226.20625 26.940624 227.51875 28.3625Q228.84688 29.76875 228.84688 32.346874Q228.84688 32.503124 228.83125 32.815624L221.09688 32.815624Q221.19063 34.51875 222.06563 35.425Q222.94063 36.33125 224.2375 36.33125Q225.20625 36.33125 225.87813 35.83125Q226.56563 35.315624 226.97188 34.20625ZM221.19063 31.3625L226.9875 31.3625Q226.87813 30.065624 226.33125 29.409374Q225.4875 28.39375 224.14375 28.39375Q222.94063 28.39375 222.1125 29.20625Q221.28438 30.003124 221.19063 31.3625ZM230.84688 37.55L230.84688 27.175L232.425 27.175L232.425 28.753124Q233.03438 27.64375 233.55 27.3Q234.06563 26.940624 234.675 26.940624Q235.56563 26.940624 236.4875 27.503124L235.87813 29.14375Q235.2375 28.753124 234.59688 28.753124Q234.01875 28.753124 233.55 29.1125Q233.09688 29.45625 232.89375 30.065624Q232.6125 31.003124 232.6125 32.1125L232.6125 37.55L230.84688 37.55ZM237.19063 33.253124L237.19063 31.4875L242.58125 31.4875L242.58125 33.253124L237.19063 33.253124ZM246.4875 37.55L244.8625 37.55L244.8625 23.2375L246.6125 23.2375L246.6125 28.346874Q247.7375 26.940624 249.45625 26.940624Q250.40938 26.940624 251.26875 27.33125Q252.12813 27.721874 252.675 28.425Q253.22188 29.1125 253.53438 30.096874Q253.84688 31.08125 253.84688 32.20625Q253.84688 34.878124 252.53438 36.33125Q251.22188 37.784374 249.37813 37.784374Q247.53438 37.784374 246.4875 36.253124L246.4875 37.55ZM246.47188 32.284374Q246.47188 34.14375 246.97188 34.9875Q247.81563 36.33125 249.22188 36.33125Q250.37813 36.33125 251.20625 35.33125Q252.05 34.33125 252.05 32.346874Q252.05 30.315624 251.2375 29.3625Q250.44063 28.39375 249.3 28.39375Q248.14375 28.39375 247.3 29.39375Q246.47188 30.39375 246.47188 32.284374ZM262.97186 34.20625L264.78436 34.440624Q264.3625 36.01875 263.1906 36.909374Q262.03436 37.784374 260.22186 37.784374Q257.95624 37.784374 256.6125 36.39375Q255.28438 34.9875 255.28438 32.45625Q255.28438 29.83125 256.6281 28.39375Q257.97186 26.940624 260.1281 26.940624Q262.20624 26.940624 263.51874 28.3625Q264.84686 29.76875 264.84686 32.346874Q264.84686 32.503124 264.83124 32.815624L257.09686 32.815624Q257.1906 34.51875 258.0656 35.425Q258.9406 36.33125 260.2375 36.33125Q261.20624 36.33125 261.8781 35.83125Q262.5656 35.315624 262.97186 34.20625ZM257.1906 31.3625L262.9875 31.3625Q262.8781 30.065624 262.33124 29.409374Q261.4875 28.39375 260.14374 28.39375Q258.9406 28.39375 258.1125 29.20625Q257.28436 30.003124 257.1906 31.3625ZM270.70624 35.971874L270.95624 37.534374Q270.22186 37.690624 269.6281 37.690624Q268.675 37.690624 268.14374 37.39375Q267.6281 37.08125 267.40936 36.596874Q267.1906 36.096874 267.1906 34.51875L267.1906 28.55L265.90936 28.55L265.90936 27.175L267.1906 27.175L267.1906 24.6125L268.9406 23.55L268.9406 27.175L270.70624 27.175L270.70624 28.55L268.9406 28.55L268.9406 34.6125Q268.9406 35.3625 269.03436 35.58125Q269.1281 35.784374 269.33124 35.925Q269.55 36.05 269.9406 36.05Q270.22186 36.05 270.70624 35.971874ZM276.70624 35.971874L276.95624 37.534374Q276.22186 37.690624 275.6281 37.690624Q274.675 37.690624 274.14374 37.39375Q273.6281 37.08125 273.40936 36.596874Q273.1906 36.096874 273.1906 34.51875L273.1906 28.55L271.90936 28.55L271.90936 27.175L273.1906 27.175L273.1906 24.6125L274.9406 23.55L274.9406 27.175L276.70624 27.175L276.70624 28.55L274.9406 28.55L274.9406 34.6125Q274.9406 35.3625 275.03436 35.58125Q275.1281 35.784374 275.33124 35.925Q275.55 36.05 275.9406 36.05Q276.22186 36.05 276.70624 35.971874ZM285.97186 34.20625L287.78436 34.440624Q287.3625 36.01875 286.1906 36.909374Q285.03436 37.784374 283.22186 37.784374Q280.95624 37.784374 279.6125 36.39375Q278.28436 34.9875 278.28436 32.45625Q278.28436 29.83125 279.6281 28.39375Q280.97186 26.940624 283.1281 26.940624Q285.20624 26.940624 286.51874 28.3625Q287.84686 29.76875 287.84686 32.346874Q287.84686 32.503124 287.83124 32.815624L280.09686 32.815624Q280.1906 34.51875 281.0656 35.425Q281.9406 36.33125 283.2375 36.33125Q284.20624 36.33125 284.8781 35.83125Q285.5656 35.315624 285.97186 34.20625ZM280.1906 31.3625L285.9875 31.3625Q285.8781 30.065624 285.33124 29.409374Q284.4875 28.39375 283.14374 28.39375Q281.9406 28.39375 281.1125 29.20625Q280.28436 30.003124 280.1906 31.3625ZM289.84686 37.55L289.84686 27.175L291.425 27.175L291.425 28.753124Q292.03436 27.64375 292.55 27.3Q293.0656 26.940624 293.675 26.940624Q294.5656 26.940624 295.4875 27.503124L294.8781 29.14375Q294.2375 28.753124 293.59686 28.753124Q293.01874 28.753124 292.55 29.1125Q292.09686 29.45625 291.89374 30.065624Q291.6125 31.003124 291.6125 32.1125L291.6125 37.55L289.84686 37.55ZM298.01874 41.753124L296.76874 41.753124Q299.675 37.065624 299.675 32.378124Q299.675 30.534374 299.26874 28.7375Q298.925 27.26875 298.33124 25.925Q297.95624 25.034374 296.76874 22.9875L298.01874 22.9875Q299.8625 25.440624 300.7375 27.909374Q301.4875 30.034374 301.4875 32.3625Q301.4875 35.003124 300.47186 37.471874Q299.47186 39.925 298.01874 41.753124Z" fill-rule="nonzero"/></svg>